<?xml version="1.0" encoding="utf-8" standalone="no"?>
<!DOCTYPE svg PUBLIC "-//W3C//DTD SVG 1.1//EN"
  "http://www.w3.org/Graphics/SVG/1.1/DTD/svg11.dtd">
<!-- Created with matplotlib (https://matplotlib.org/) -->
<svg height="72pt" version="1.1" viewBox="0 0 216 72" width="216pt" xmlns="http://www.w3.org/2000/svg" xmlns:xlink="http://www.w3.org/1999/xlink">
 <metadata>
  <rdf:RDF xmlns:cc="http://creativecommons.org/ns#" xmlns:dc="http://purl.org/dc/elements/1.1/" xmlns:rdf="http://www.w3.org/1999/02/22-rdf-syntax-ns#">
   <cc:Work>
    <dc:type rdf:resource="http://purl.org/dc/dcmitype/StillImage"/>
    <dc:date>2022-06-01T15:04:12.903555</dc:date>
    <dc:format>image/svg+xml</dc:format>
    <dc:creator>
     <cc:Agent>
      <dc:title>Matplotlib v3.3.4, https://matplotlib.org/</dc:title>
     </cc:Agent>
    </dc:creator>
   </cc:Work>
  </rdf:RDF>
 </metadata>
 <defs>
  <style type="text/css">*{stroke-linecap:butt;stroke-linejoin:round;}</style>
 </defs>
 <g id="figure_1">
  <g id="patch_1">
   <path d="M 0 72 
L 216 72 
L 216 0 
L 0 0 
z
" style="fill:none;"/>
  </g>
  <g id="axes_1">
   <g id="patch_2">
    <path d="M 27 63 
L 194.4 63 
L 194.4 8.64 
L 27 8.64 
z
" style="fill:#ffffff;"/>
   </g>
   <g id="PolyCollection_1">
    <defs>
     <path d="M 186.790909 -9 
L 186.790909 -9.129313 
L 185.28518 -9.159918 
L 183.779452 -9.19701 
L 182.273723 -9.241776 
L 180.767994 -9.295579 
L 179.262266 -9.359973 
L 177.756537 -9.436718 
L 176.250808 -9.527797 
L 174.74508 -9.63543 
L 173.239351 -9.762086 
L 171.733622 -9.910491 
L 170.227893 -10.083633 
L 168.722165 -10.284766 
L 167.216436 -10.517403 
L 165.710707 -10.785308 
L 164.204979 -11.092476 
L 162.69925 -11.44311 
L 161.193521 -11.841586 
L 159.687793 -12.292408 
L 158.182064 -12.800159 
L 156.676335 -13.369433 
L 155.170607 -14.004762 
L 153.664878 -14.710539 
L 152.159149 -15.490914 
L 150.65342 -16.349704 
L 149.147692 -17.290276 
L 147.641963 -18.315438 
L 146.136234 -19.427322 
L 144.630506 -20.627262 
L 144.630506 -9 
L 144.630506 -9 
L 146.136234 -9 
L 147.641963 -9 
L 149.147692 -9 
L 150.65342 -9 
L 152.159149 -9 
L 153.664878 -9 
L 155.170607 -9 
L 156.676335 -9 
L 158.182064 -9 
L 159.687793 -9 
L 161.193521 -9 
L 162.69925 -9 
L 164.204979 -9 
L 165.710707 -9 
L 167.216436 -9 
L 168.722165 -9 
L 170.227893 -9 
L 171.733622 -9 
L 173.239351 -9 
L 174.74508 -9 
L 176.250808 -9 
L 177.756537 -9 
L 179.262266 -9 
L 180.767994 -9 
L 182.273723 -9 
L 183.779452 -9 
L 185.28518 -9 
L 186.790909 -9 
z
" id="m0081096f2a" style="stroke:#c0c0c0;"/>
    </defs>
    <g clip-path="url(#p1525656d7b)">
     <use style="fill:#c0c0c0;stroke:#c0c0c0;" x="0" xlink:href="#m0081096f2a" y="72"/>
    </g>
   </g>
   <g id="patch_3">
    <path clip-path="url(#p1525656d7b)" d="M 141.593883 63 
L 131.867993 63 
L 131.867993 32.053971 
L 141.593883 32.053971 
z
" style="fill:#b22222;fill-opacity:0.75;stroke:#ffffff;stroke-linejoin:miter;stroke-width:1.5;"/>
   </g>
   <g id="patch_4">
    <path clip-path="url(#p1525656d7b)" d="M 130.787339 63 
L 121.061448 63 
L 121.061448 19.757984 
L 130.787339 19.757984 
z
" style="fill:#b22222;fill-opacity:0.75;stroke:#ffffff;stroke-linejoin:miter;stroke-width:1.5;"/>
   </g>
   <g id="patch_5">
    <path clip-path="url(#p1525656d7b)" d="M 119.980794 63 
L 110.254904 63 
L 110.254904 15.777355 
L 119.980794 15.777355 
z
" style="fill:#b22222;fill-opacity:0.75;stroke:#ffffff;stroke-linejoin:miter;stroke-width:1.5;"/>
   </g>
   <g id="patch_6">
    <path clip-path="url(#p1525656d7b)" d="M 109.174249 63 
L 99.448359 63 
L 99.448359 15.679656 
L 109.174249 15.679656 
z
" style="fill:#b22222;fill-opacity:0.75;stroke:#ffffff;stroke-linejoin:miter;stroke-width:1.5;"/>
   </g>
   <g id="patch_7">
    <path clip-path="url(#p1525656d7b)" d="M 98.367705 63 
L 88.641814 63 
L 88.641814 26.328534 
L 98.367705 26.328534 
z
" style="fill:#b22222;fill-opacity:0.75;stroke:#ffffff;stroke-linejoin:miter;stroke-width:1.5;"/>
   </g>
   <g id="patch_8">
    <path clip-path="url(#p1525656d7b)" d="M 87.56116 63 
L 77.83527 63 
L 77.83527 33.171767 
L 87.56116 33.171767 
z
" style="fill:#b22222;fill-opacity:0.75;stroke:#ffffff;stroke-linejoin:miter;stroke-width:1.5;"/>
   </g>
   <g id="patch_9">
    <path clip-path="url(#p1525656d7b)" d="M 76.754615 63 
L 67.028725 63 
L 67.028725 33.51761 
L 76.754615 33.51761 
z
" style="fill:#b22222;fill-opacity:0.75;stroke:#ffffff;stroke-linejoin:miter;stroke-width:1.5;"/>
   </g>
   <g id="patch_10">
    <path clip-path="url(#p1525656d7b)" d="M 65.94807 63 
L 56.22218 63 
L 56.22218 47.82696 
L 65.94807 47.82696 
z
" style="fill:#b22222;fill-opacity:0.75;stroke:#ffffff;stroke-linejoin:miter;stroke-width:1.5;"/>
   </g>
   <g id="patch_11">
    <path clip-path="url(#p1525656d7b)" d="M 55.141526 63 
L 45.415636 63 
L 45.415636 54.257614 
L 55.141526 54.257614 
z
" style="fill:#b22222;fill-opacity:0.75;stroke:#ffffff;stroke-linejoin:miter;stroke-width:1.5;"/>
   </g>
   <g id="patch_12">
    <path clip-path="url(#p1525656d7b)" d="M 44.334981 63 
L 34.609091 63 
L 34.609091 59.580562 
L 44.334981 59.580562 
z
" style="fill:#b22222;fill-opacity:0.75;stroke:#ffffff;stroke-linejoin:miter;stroke-width:1.5;"/>
   </g>
   <g id="matplotlib.axis_1">
    <g id="xtick_1">
     <g id="line2d_1">
      <defs>
       <path d="M 0 0 
L 0 3.5 
" id="mb71c2da7f9" style="stroke:#000000;stroke-width:0.8;"/>
      </defs>
      <g>
       <use style="stroke:#000000;stroke-width:0.8;" x="186.790909" xlink:href="#mb71c2da7f9" y="63"/>
      </g>
     </g>
     <g id="text_1">
      <!-- −2 -->
      <g transform="translate(188.600518 77.981094)rotate(-90)scale(0.07 -0.07)">
       <defs>
        <path d="M 52.828125 31.203125 
L 5.5625 31.203125 
L 5.5625 39.40625 
L 52.828125 39.40625 
z
" id="ArialMT-8722"/>
        <path d="M 50.34375 8.453125 
L 50.34375 0 
L 3.03125 0 
Q 2.9375 3.171875 4.046875 6.109375 
Q 5.859375 10.9375 9.828125 15.625 
Q 13.8125 20.3125 21.34375 26.46875 
Q 33.015625 36.03125 37.109375 41.625 
Q 41.21875 47.21875 41.21875 52.203125 
Q 41.21875 57.421875 37.46875 61 
Q 33.734375 64.59375 27.734375 64.59375 
Q 21.390625 64.59375 17.578125 60.78125 
Q 13.765625 56.984375 13.71875 50.25 
L 4.6875 51.171875 
Q 5.609375 61.28125 11.65625 66.578125 
Q 17.71875 71.875 27.9375 71.875 
Q 38.234375 71.875 44.234375 66.15625 
Q 50.25 60.453125 50.25 52 
Q 50.25 47.703125 48.484375 43.546875 
Q 46.734375 39.40625 42.65625 34.8125 
Q 38.578125 30.21875 29.109375 22.21875 
Q 21.1875 15.578125 18.9375 13.203125 
Q 16.703125 10.84375 15.234375 8.453125 
z
" id="ArialMT-50"/>
       </defs>
       <use xlink:href="#ArialMT-8722"/>
       <use x="58.398438" xlink:href="#ArialMT-50"/>
      </g>
     </g>
    </g>
    <g id="xtick_2">
     <g id="line2d_2">
      <g>
       <use style="stroke:#000000;stroke-width:0.8;" x="149.524124" xlink:href="#mb71c2da7f9" y="63"/>
      </g>
     </g>
     <g id="text_2">
      <!-- −1 -->
      <g transform="translate(151.333733 77.981094)rotate(-90)scale(0.07 -0.07)">
       <defs>
        <path d="M 37.25 0 
L 28.46875 0 
L 28.46875 56 
Q 25.296875 52.984375 20.140625 49.953125 
Q 14.984375 46.921875 10.890625 45.40625 
L 10.890625 53.90625 
Q 18.265625 57.375 23.78125 62.296875 
Q 29.296875 67.234375 31.59375 71.875 
L 37.25 71.875 
z
" id="ArialMT-49"/>
       </defs>
       <use xlink:href="#ArialMT-8722"/>
       <use x="58.398438" xlink:href="#ArialMT-49"/>
      </g>
     </g>
    </g>
    <g id="xtick_3">
     <g id="line2d_3">
      <g>
       <use style="stroke:#000000;stroke-width:0.8;" x="112.257339" xlink:href="#mb71c2da7f9" y="63"/>
      </g>
     </g>
     <g id="text_3">
      <!-- 0 -->
      <g transform="translate(114.066948 73.892656)rotate(-90)scale(0.07 -0.07)">
       <defs>
        <path d="M 4.15625 35.296875 
Q 4.15625 48 6.765625 55.734375 
Q 9.375 63.484375 14.515625 67.671875 
Q 19.671875 71.875 27.484375 71.875 
Q 33.25 71.875 37.59375 69.546875 
Q 41.9375 67.234375 44.765625 62.859375 
Q 47.609375 58.5 49.21875 52.21875 
Q 50.828125 45.953125 50.828125 35.296875 
Q 50.828125 22.703125 48.234375 14.96875 
Q 45.65625 7.234375 40.5 3 
Q 35.359375 -1.21875 27.484375 -1.21875 
Q 17.140625 -1.21875 11.234375 6.203125 
Q 4.15625 15.140625 4.15625 35.296875 
z
M 13.1875 35.296875 
Q 13.1875 17.671875 17.3125 11.828125 
Q 21.4375 6 27.484375 6 
Q 33.546875 6 37.671875 11.859375 
Q 41.796875 17.71875 41.796875 35.296875 
Q 41.796875 52.984375 37.671875 58.78125 
Q 33.546875 64.59375 27.390625 64.59375 
Q 21.34375 64.59375 17.71875 59.46875 
Q 13.1875 52.9375 13.1875 35.296875 
z
" id="ArialMT-48"/>
       </defs>
       <use xlink:href="#ArialMT-48"/>
      </g>
     </g>
    </g>
    <g id="xtick_4">
     <g id="line2d_4">
      <g>
       <use style="stroke:#000000;stroke-width:0.8;" x="74.990554" xlink:href="#mb71c2da7f9" y="63"/>
      </g>
     </g>
     <g id="text_4">
      <!-- 1 -->
      <g transform="translate(76.800163 73.892656)rotate(-90)scale(0.07 -0.07)">
       <use xlink:href="#ArialMT-49"/>
      </g>
     </g>
    </g>
    <g id="xtick_5">
     <g id="line2d_5">
      <g>
       <use style="stroke:#000000;stroke-width:0.8;" x="37.723769" xlink:href="#mb71c2da7f9" y="63"/>
      </g>
     </g>
     <g id="text_5">
      <!-- 2 -->
      <g transform="translate(39.533378 73.892656)rotate(-90)scale(0.07 -0.07)">
       <use xlink:href="#ArialMT-50"/>
      </g>
     </g>
    </g>
    <g id="text_6">
     <!-- [] -->
     <g transform="translate(108.755313 86.991563)scale(0.07 -0.07)">
      <defs>
       <path d="M 6.78125 -19.875 
L 6.78125 71.578125 
L 26.171875 71.578125 
L 26.171875 64.3125 
L 15.578125 64.3125 
L 15.578125 -12.59375 
L 26.171875 -12.59375 
L 26.171875 -19.875 
z
" id="ArialMT-91"/>
       <path d="M 21.296875 -19.875 
L 1.90625 -19.875 
L 1.90625 -12.59375 
L 12.5 -12.59375 
L 12.5 64.3125 
L 1.90625 64.3125 
L 1.90625 71.578125 
L 21.296875 71.578125 
z
" id="ArialMT-93"/>
      </defs>
      <use xlink:href="#ArialMT-91"/>
      <use x="27.783203" xlink:href="#ArialMT-93"/>
     </g>
    </g>
   </g>
   <g id="line2d_6">
    <path clip-path="url(#p1525656d7b)" d="M 186.790909 62.870687 
L 185.28518 62.840082 
L 183.779452 62.80299 
L 182.273723 62.758224 
L 180.767994 62.704421 
L 179.262266 62.640027 
L 177.756537 62.563282 
L 176.250808 62.472203 
L 174.74508 62.36457 
L 173.239351 62.237914 
L 171.733622 62.089509 
L 170.227893 61.916367 
L 168.722165 61.715234 
L 167.216436 61.482597 
L 165.710707 61.214692 
L 164.204979 60.907524 
L 162.69925 60.55689 
L 161.193521 60.158414 
L 159.687793 59.707592 
L 158.182064 59.199841 
L 156.676335 58.630567 
L 155.170607 57.995238 
L 153.664878 57.289461 
L 152.159149 56.509086 
L 150.65342 55.650296 
L 149.147692 54.709724 
L 147.641963 53.684562 
L 146.136234 52.572678 
L 144.630506 51.372738 
L 143.124777 50.084319 
L 141.619048 48.708023 
L 140.11332 47.245576 
L 138.607591 45.699928 
L 137.101862 44.075324 
L 135.596134 42.377363 
L 134.090405 40.613041 
L 132.584676 38.790758 
L 131.078947 36.920308 
L 129.573219 35.012835 
L 128.06749 33.080763 
L 126.561761 31.137686 
L 125.056033 29.198242 
L 123.550304 27.277944 
L 122.044575 25.392993 
L 120.538847 23.560057 
L 119.033118 21.79604 
L 117.527389 20.117824 
L 116.021661 18.542007 
L 114.515932 17.084632 
L 113.010203 15.760917 
L 111.504474 14.58499 
L 109.998746 13.569641 
L 108.493017 12.726087 
L 106.987288 12.063771 
L 105.48156 11.590182 
L 103.975831 11.310716 
L 102.470102 11.228571 
L 100.964374 11.344692 
L 99.458645 11.657745 
L 97.952916 12.164148 
L 96.447188 12.85814 
L 94.941459 13.731884 
L 93.43573 14.77562 
L 91.930001 15.977846 
L 90.424273 17.325525 
L 88.918544 18.804323 
L 87.412815 20.398863 
L 85.907087 22.092987 
L 84.401358 23.870029 
L 82.895629 25.713084 
L 81.389901 27.605273 
L 79.884172 29.529989 
L 78.378443 31.471136 
L 76.872715 33.413338 
L 75.366986 35.342127 
L 73.861257 37.244097 
L 72.355528 39.10704 
L 70.8498 40.920039 
L 69.344071 42.673536 
L 67.838342 44.359372 
L 66.332614 45.970793 
L 64.826885 47.502435 
L 63.321156 48.950279 
L 61.815428 50.311592 
L 60.309699 51.584848 
L 58.80397 52.769627 
L 57.298242 53.866517 
L 55.792513 54.876998 
L 54.286784 55.803326 
L 52.781055 56.648412 
L 51.275327 57.41571 
L 49.769598 58.1091 
L 48.263869 58.732782 
L 46.758141 59.291178 
L 45.252412 59.788837 
L 43.746683 60.230356 
L 42.240955 60.620309 
L 40.735226 60.963181 
L 39.229497 61.263321 
L 37.723769 61.524899 
" style="fill:none;stroke:#b22222;stroke-linecap:square;stroke-width:1.5;"/>
   </g>
   <g id="patch_13">
    <path d="M 27 63 
L 194.4 63 
" style="fill:none;stroke:#000000;stroke-linecap:square;stroke-linejoin:miter;stroke-width:0.8;"/>
   </g>
  </g>
 </g>
 <defs>
  <clipPath id="p1525656d7b">
   <rect height="54.36" width="167.4" x="27" y="8.64"/>
  </clipPath>
 </defs>
</svg>
