<?xml version="1.0" encoding="utf-8" standalone="no"?>
<!DOCTYPE svg PUBLIC "-//W3C//DTD SVG 1.1//EN"
  "http://www.w3.org/Graphics/SVG/1.1/DTD/svg11.dtd">
<!-- Created with matplotlib (https://matplotlib.org/) -->
<svg height="252pt" version="1.1" viewBox="0 0 72 252" width="72pt" xmlns="http://www.w3.org/2000/svg" xmlns:xlink="http://www.w3.org/1999/xlink">
 <metadata>
  <rdf:RDF xmlns:cc="http://creativecommons.org/ns#" xmlns:dc="http://purl.org/dc/elements/1.1/" xmlns:rdf="http://www.w3.org/1999/02/22-rdf-syntax-ns#">
   <cc:Work>
    <dc:type rdf:resource="http://purl.org/dc/dcmitype/StillImage"/>
    <dc:date>2022-06-01T11:09:56.992449</dc:date>
    <dc:format>image/svg+xml</dc:format>
    <dc:creator>
     <cc:Agent>
      <dc:title>Matplotlib v3.3.4, https://matplotlib.org/</dc:title>
     </cc:Agent>
    </dc:creator>
   </cc:Work>
  </rdf:RDF>
 </metadata>
 <defs>
  <style type="text/css">*{stroke-linecap:butt;stroke-linejoin:round;}</style>
 </defs>
 <g id="figure_1">
  <g id="patch_1">
   <path d="M 0 252 
L 72 252 
L 72 0 
L 0 0 
z
" style="fill:none;"/>
  </g>
  <g id="axes_1">
   <g id="patch_2">
    <path d="M 9 220.5 
L 64.8 220.5 
L 64.8 30.24 
L 9 30.24 
z
" style="fill:#ffffff;"/>
   </g>
   <g id="matplotlib.axis_1">
    <g id="ytick_1">
     <g id="line2d_1">
      <defs>
       <path d="M 0 0 
L -3.5 0 
" id="m7d8f455193" style="stroke:#000000;stroke-width:0.8;"/>
      </defs>
      <g>
       <use style="stroke:#000000;stroke-width:0.8;" x="9" xlink:href="#m7d8f455193" y="172.935"/>
      </g>
     </g>
    </g>
    <g id="ytick_2">
     <g id="line2d_2">
      <g>
       <use style="stroke:#000000;stroke-width:0.8;" x="9" xlink:href="#m7d8f455193" y="77.805"/>
      </g>
     </g>
    </g>
   </g>
   <g id="line2d_3">
    <path clip-path="url(#pf37a3c2dca)" d="M 12.05381 220.5 
L 12.175262 218.578182 
L 12.321308 216.656364 
L 12.495958 214.734545 
L 12.703653 212.812727 
L 12.949268 210.890909 
L 13.238095 208.969091 
L 13.575816 207.047273 
L 13.96846 205.125455 
L 14.422342 203.203636 
L 14.94398 201.281818 
L 15.539992 199.36 
L 16.216972 197.438182 
L 16.981348 195.516364 
L 17.83921 193.594545 
L 18.79613 191.672727 
L 19.85696 189.750909 
L 21.025622 187.829091 
L 22.304886 185.907273 
L 23.69615 183.985455 
L 25.199231 182.063636 
L 26.812159 180.141818 
L 28.531001 178.22 
L 30.349712 176.298182 
L 32.26002 174.376364 
L 34.251368 172.454545 
L 36.310891 170.532727 
L 38.423472 168.610909 
L 40.57184 166.689091 
L 42.736749 164.767273 
L 44.897215 162.845455 
L 47.030814 160.923636 
L 49.114042 159.001818 
L 51.122726 157.08 
L 53.032477 155.158182 
L 54.81917 153.236364 
L 56.459448 151.314545 
L 57.931227 149.392727 
L 59.214185 147.470909 
L 60.290232 145.549091 
L 61.143931 143.627273 
L 61.762868 141.705455 
L 62.137951 139.783636 
L 62.263636 137.861818 
L 62.138058 135.94 
L 61.763079 134.018182 
L 61.144243 132.096364 
L 60.290642 130.174545 
L 59.214686 128.252727 
L 57.931812 126.330909 
L 56.460109 124.409091 
L 54.819898 122.487273 
L 53.033262 120.565455 
L 51.123558 118.643636 
L 49.114911 116.721818 
L 47.031709 114.8 
L 44.898127 112.878182 
L 42.737667 110.956364 
L 40.572755 109.034545 
L 38.424376 107.112727 
L 36.311777 105.190909 
L 34.252227 103.269091 
L 32.260848 101.347273 
L 30.350502 99.425455 
L 28.531751 97.503636 
L 26.812865 95.581818 
L 25.199891 93.66 
L 23.696764 91.738182 
L 22.305452 89.816364 
L 21.026141 87.894545 
L 19.857433 85.972727 
L 18.796557 84.050909 
L 17.839594 82.129091 
L 16.981691 80.207273 
L 16.217277 78.285455 
L 15.540261 76.363636 
L 14.944216 74.441818 
L 14.422549 72.52 
L 13.968639 70.598182 
L 13.57597 68.676364 
L 13.238227 66.754545 
L 12.949381 64.832727 
L 12.703749 62.910909 
L 12.496038 60.989091 
L 12.321376 59.067273 
L 12.175319 57.145455 
L 12.053856 55.223636 
L 11.953403 53.301818 
L 11.870778 51.38 
L 11.803189 49.458182 
L 11.748198 47.536364 
L 11.703701 45.614545 
L 11.667887 43.692727 
L 11.639218 41.770909 
L 11.61639 39.849091 
L 11.598311 37.927273 
L 11.584069 36.005455 
L 11.572909 34.083636 
L 11.56421 32.161818 
L 11.557466 30.24 
" style="fill:none;stroke:#0173b2;stroke-linecap:square;stroke-width:1.5;"/>
   </g>
   <g id="line2d_4">
    <path clip-path="url(#pf37a3c2dca)" d="M 0 0 
" style="fill:none;stroke:#de8f05;stroke-linecap:square;stroke-width:1.5;"/>
   </g>
   <g id="line2d_5">
    <path clip-path="url(#pf37a3c2dca)" d="M 11.555688 220.5 
L 11.56092 218.578182 
L 11.567409 216.656364 
L 11.575417 214.734545 
L 11.585248 212.812727 
L 11.597256 210.890909 
L 11.611847 208.969091 
L 11.629487 207.047273 
L 11.650702 205.125455 
L 11.676085 203.203636 
L 11.706295 201.281818 
L 11.742063 199.36 
L 11.784188 197.438182 
L 11.833538 195.516364 
L 11.891043 193.594545 
L 11.957692 191.672727 
L 12.034521 189.750909 
L 12.122604 187.829091 
L 12.223034 185.907273 
L 12.336908 183.985455 
L 12.465303 182.063636 
L 12.609254 180.141818 
L 12.769721 178.22 
L 12.947564 176.298182 
L 13.143509 174.376364 
L 13.358112 172.454545 
L 13.591726 170.532727 
L 13.844469 168.610909 
L 14.116187 166.689091 
L 14.406428 164.767273 
L 14.714414 162.845455 
L 15.039017 160.923636 
L 15.378751 159.001818 
L 15.731757 157.08 
L 16.095806 155.158182 
L 16.46831 153.236364 
L 16.846341 151.314545 
L 17.226656 149.392727 
L 17.605742 147.470909 
L 17.979859 145.549091 
L 18.3451 143.627273 
L 18.697455 141.705455 
L 19.032883 139.783636 
L 19.347385 137.861818 
L 19.637085 135.94 
L 19.898309 134.018182 
L 20.12766 132.096364 
L 20.322094 130.174545 
L 20.478983 128.252727 
L 20.596179 126.330909 
L 20.672062 124.409091 
L 20.705573 122.487273 
L 20.696244 120.565455 
L 20.644205 118.643636 
L 20.550184 116.721818 
L 20.415487 114.8 
L 20.241969 112.878182 
L 20.031995 110.956364 
L 19.78838 109.034545 
L 19.514331 107.112727 
L 19.213375 105.190909 
L 18.889283 103.269091 
L 18.545995 101.347273 
L 18.187537 99.425455 
L 17.817946 97.503636 
L 17.441196 95.581818 
L 17.061127 93.66 
L 16.681389 91.738182 
L 16.305382 89.816364 
L 15.936216 87.894545 
L 15.576674 85.972727 
L 15.229191 84.050909 
L 14.895833 82.129091 
L 14.578299 80.207273 
L 14.277916 78.285455 
L 13.995658 76.363636 
L 13.732158 74.441818 
L 13.487735 72.52 
L 13.262421 70.598182 
L 13.055993 68.676364 
L 12.868002 66.754545 
L 12.697817 64.832727 
L 12.544648 62.910909 
L 12.407589 60.989091 
L 12.285642 59.067273 
L 12.177751 57.145455 
L 12.082828 55.223636 
L 11.999775 53.301818 
L 11.927505 51.38 
L 11.864959 49.458182 
L 11.81112 47.536364 
L 11.765025 45.614545 
L 11.725768 43.692727 
L 11.692512 41.770909 
L 11.664488 39.849091 
L 11.640996 37.927273 
L 11.621406 36.005455 
L 11.605153 34.083636 
L 11.591739 32.161818 
L 11.580725 30.24 
" style="fill:none;stroke:#029e73;stroke-linecap:square;stroke-width:1.5;"/>
   </g>
   <g id="line2d_6">
    <path clip-path="url(#pf37a3c2dca)" d="M 12.35523 220.5 
L 12.51129 218.578182 
L 12.69138 216.656364 
L 12.898006 214.734545 
L 13.133701 212.812727 
L 13.40098 210.890909 
L 13.70228 208.969091 
L 14.039898 207.047273 
L 14.415917 205.125455 
L 14.832133 203.203636 
L 15.289969 201.281818 
L 15.790394 199.36 
L 16.333839 197.438182 
L 16.920118 195.516364 
L 17.548353 193.594545 
L 18.216902 191.672727 
L 18.923315 189.750909 
L 19.664285 187.829091 
L 20.435631 185.907273 
L 21.232294 183.985455 
L 22.048363 182.063636 
L 22.877111 180.141818 
L 23.711072 178.22 
L 24.542134 176.298182 
L 25.36165 174.376364 
L 26.160586 172.454545 
L 26.929674 170.532727 
L 27.659587 168.610909 
L 28.341124 166.689091 
L 28.9654 164.767273 
L 29.524038 162.845455 
L 30.009357 160.923636 
L 30.414545 159.001818 
L 30.733818 157.08 
L 30.962558 155.158182 
L 31.097427 153.236364 
L 31.136441 151.314545 
L 31.079026 149.392727 
L 30.926027 147.470909 
L 30.679692 145.549091 
L 30.343611 143.627273 
L 29.922633 141.705455 
L 29.422751 139.783636 
L 28.850955 137.861818 
L 28.215074 135.94 
L 27.523596 134.018182 
L 26.785481 132.096364 
L 26.009969 130.174545 
L 25.20639 128.252727 
L 24.38398 126.330909 
L 23.551711 124.409091 
L 22.718137 122.487273 
L 21.891256 120.565455 
L 21.078399 118.643636 
L 20.286141 116.721818 
L 19.520235 114.8 
L 18.785571 112.878182 
L 18.086163 110.956364 
L 17.425152 109.034545 
L 16.80483 107.112727 
L 16.226689 105.190909 
L 15.691468 103.269091 
L 15.199231 101.347273 
L 14.749437 99.425455 
L 14.341023 97.503636 
L 13.972488 95.581818 
L 13.641978 93.66 
L 13.34736 91.738182 
L 13.086307 89.816364 
L 12.856361 87.894545 
L 12.655001 85.972727 
L 12.479694 84.050909 
L 12.327945 82.129091 
L 12.197338 80.207273 
L 12.085562 78.285455 
L 11.99044 76.363636 
L 11.909943 74.441818 
L 11.842198 72.52 
L 11.785501 70.598182 
L 11.738311 68.676364 
L 11.699247 66.754545 
L 11.667086 64.832727 
L 11.640752 62.910909 
L 11.619305 60.989091 
L 11.601932 59.067273 
L 11.587934 57.145455 
L 11.576716 55.223636 
L 11.567774 53.301818 
L 11.560683 51.38 
L 11.555091 49.458182 
L 11.550703 47.536364 
L 11.547278 45.614545 
L 11.54462 43.692727 
L 11.542566 41.770909 
L 11.540989 39.849091 
L 11.539783 37.927273 
L 11.538867 36.005455 
L 11.538174 34.083636 
L 11.537652 32.161818 
L 11.537262 30.24 
" style="fill:none;stroke:#d55e00;stroke-linecap:square;stroke-width:1.5;"/>
   </g>
   <g id="line2d_7">
    <path clip-path="url(#pf37a3c2dca)" d="M 13.122797 220.5 
L 13.389856 218.578182 
L 13.692498 216.656364 
L 14.033701 214.734545 
L 14.416381 212.812727 
L 14.843331 210.890909 
L 15.317145 208.969091 
L 15.840144 207.047273 
L 16.414295 205.125455 
L 17.041122 203.203636 
L 17.721625 201.281818 
L 18.456187 199.36 
L 19.244497 197.438182 
L 20.085468 195.516364 
L 20.977174 193.594545 
L 21.916792 191.672727 
L 22.900554 189.750909 
L 23.923733 187.829091 
L 24.980627 185.907273 
L 26.064578 183.985455 
L 27.168014 182.063636 
L 28.282506 180.141818 
L 29.398857 178.22 
L 30.507212 176.298182 
L 31.597188 174.376364 
L 32.65803 172.454545 
L 33.678777 170.532727 
L 34.648448 168.610909 
L 35.556234 166.689091 
L 36.391696 164.767273 
L 37.144967 162.845455 
L 37.806939 160.923636 
L 38.369451 159.001818 
L 38.825457 157.08 
L 39.169168 155.158182 
L 39.396177 153.236364 
L 39.503553 151.314545 
L 39.489906 149.392727 
L 39.355411 147.470909 
L 39.101811 145.549091 
L 38.732375 143.627273 
L 38.251832 141.705455 
L 37.666263 139.783636 
L 36.982982 137.861818 
L 36.210377 135.94 
L 35.357743 134.018182 
L 34.435094 132.096364 
L 33.452968 130.174545 
L 32.422231 128.252727 
L 31.353876 126.330909 
L 30.258833 124.409091 
L 29.147788 122.487273 
L 28.031018 120.565455 
L 26.918239 118.643636 
L 25.818485 116.721818 
L 24.739998 114.8 
L 23.69015 112.878182 
L 22.675385 110.956364 
L 21.701186 109.034545 
L 20.772064 107.112727 
L 19.89157 105.190909 
L 19.062321 103.269091 
L 18.28605 101.347273 
L 17.563661 99.425455 
L 16.895302 97.503636 
L 16.280445 95.581818 
L 15.717964 93.66 
L 15.206227 91.738182 
L 14.743181 89.816364 
L 14.326435 87.894545 
L 13.953344 85.972727 
L 13.621083 84.050909 
L 13.326715 82.129091 
L 13.067258 80.207273 
L 12.839735 78.285455 
L 12.641221 76.363636 
L 12.468887 74.441818 
L 12.320023 72.52 
L 12.19207 70.598182 
L 12.082629 68.676364 
L 11.98948 66.754545 
L 11.910584 64.832727 
L 11.844081 62.910909 
L 11.788296 60.989091 
L 11.741725 59.067273 
L 11.703031 57.145455 
L 11.671036 55.223636 
L 11.644705 53.301818 
L 11.623137 51.38 
L 11.605554 49.458182 
L 11.591287 47.536364 
L 11.579765 45.614545 
L 11.570503 43.692727 
L 11.563092 41.770909 
L 11.55719 39.849091 
L 11.552512 37.927273 
L 11.54882 36.005455 
L 11.545921 34.083636 
L 11.543654 32.161818 
L 11.54189 30.24 
" style="fill:none;stroke:#cc78bc;stroke-linecap:square;stroke-width:1.5;"/>
   </g>
   <g id="line2d_8">
    <path clip-path="url(#pf37a3c2dca)" d="M 12.399481 220.5 
L 12.571719 218.578182 
L 12.771561 216.656364 
L 13.001951 214.734545 
L 13.265843 212.812727 
L 13.566138 210.890909 
L 13.905606 208.969091 
L 14.286793 207.047273 
L 14.71193 205.125455 
L 15.182824 203.203636 
L 15.700756 201.281818 
L 16.266369 199.36 
L 16.879567 197.438182 
L 17.539411 195.516364 
L 18.244037 193.594545 
L 18.990583 191.672727 
L 19.775138 189.750909 
L 20.592715 187.829091 
L 21.437251 185.907273 
L 22.301641 183.985455 
L 23.1778 182.063636 
L 24.056763 180.141818 
L 24.928814 178.22 
L 25.783652 176.298182 
L 26.610576 174.376364 
L 27.398708 172.454545 
L 28.137216 170.532727 
L 28.815568 168.610909 
L 29.42377 166.689091 
L 29.952618 164.767273 
L 30.393926 162.845455 
L 30.740736 160.923636 
L 30.987501 159.001818 
L 31.130233 157.08 
L 31.166608 155.158182 
L 31.096034 153.236364 
L 30.919661 151.314545 
L 30.640355 149.392727 
L 30.262616 147.470909 
L 29.792461 145.549091 
L 29.237263 143.627273 
L 28.605558 141.705455 
L 27.906829 139.783636 
L 27.151267 137.861818 
L 26.34953 135.94 
L 25.512489 134.018182 
L 24.650991 132.096364 
L 23.77563 130.174545 
L 22.896541 128.252727 
L 22.023214 126.330909 
L 21.164346 124.409091 
L 20.327717 122.487273 
L 19.520103 120.565455 
L 18.747226 118.643636 
L 18.013726 116.721818 
L 17.323175 114.8 
L 16.678108 112.878182 
L 16.080085 110.956364 
L 15.529764 109.034545 
L 15.026994 107.112727 
L 14.570917 105.190909 
L 14.16007 103.269091 
L 13.792499 101.347273 
L 13.465862 99.425455 
L 13.177531 97.503636 
L 12.924685 95.581818 
L 12.704398 93.66 
L 12.513711 91.738182 
L 12.349699 89.816364 
L 12.209521 87.894545 
L 12.090464 85.972727 
L 11.989976 84.050909 
L 11.905684 82.129091 
L 11.835412 80.207273 
L 11.777186 78.285455 
L 11.729233 76.363636 
L 11.68998 74.441818 
L 11.658042 72.52 
L 11.63221 70.598182 
L 11.611443 68.676364 
L 11.594845 66.754545 
L 11.581659 64.832727 
L 11.571245 62.910909 
L 11.563069 60.989091 
L 11.556687 59.067273 
L 11.551734 57.145455 
L 11.547914 55.223636 
L 11.544984 53.301818 
L 11.542749 51.38 
L 11.541055 49.458182 
L 11.539779 47.536364 
L 11.538822 45.614545 
L 11.538109 43.692727 
L 11.537581 41.770909 
L 11.537192 39.849091 
L 11.536907 37.927273 
L 11.536699 36.005455 
L 11.536549 34.083636 
L 11.536441 32.161818 
L 11.536364 30.24 
" style="fill:none;stroke:#ca9161;stroke-linecap:square;stroke-width:1.5;"/>
   </g>
   <g id="patch_3">
    <path d="M 9 220.5 
L 9 30.24 
" style="fill:none;stroke:#000000;stroke-linecap:square;stroke-linejoin:miter;stroke-width:0.8;"/>
   </g>
  </g>
 </g>
 <defs>
  <clipPath id="pf37a3c2dca">
   <rect height="190.26" width="55.8" x="9" y="30.24"/>
  </clipPath>
 </defs>
</svg>
