<?xml version="1.0" encoding="utf-8" standalone="no"?>
<!DOCTYPE svg PUBLIC "-//W3C//DTD SVG 1.1//EN"
  "http://www.w3.org/Graphics/SVG/1.1/DTD/svg11.dtd">
<!-- Created with matplotlib (https://matplotlib.org/) -->
<svg height="252pt" version="1.1" viewBox="0 0 72 252" width="72pt" xmlns="http://www.w3.org/2000/svg" xmlns:xlink="http://www.w3.org/1999/xlink">
 <metadata>
  <rdf:RDF xmlns:cc="http://creativecommons.org/ns#" xmlns:dc="http://purl.org/dc/elements/1.1/" xmlns:rdf="http://www.w3.org/1999/02/22-rdf-syntax-ns#">
   <cc:Work>
    <dc:type rdf:resource="http://purl.org/dc/dcmitype/StillImage"/>
    <dc:date>2022-06-01T11:09:57.231847</dc:date>
    <dc:format>image/svg+xml</dc:format>
    <dc:creator>
     <cc:Agent>
      <dc:title>Matplotlib v3.3.4, https://matplotlib.org/</dc:title>
     </cc:Agent>
    </dc:creator>
   </cc:Work>
  </rdf:RDF>
 </metadata>
 <defs>
  <style type="text/css">*{stroke-linecap:butt;stroke-linejoin:round;}</style>
 </defs>
 <g id="figure_1">
  <g id="patch_1">
   <path d="M 0 252 
L 72 252 
L 72 0 
L 0 0 
z
" style="fill:none;"/>
  </g>
  <g id="axes_1">
   <g id="patch_2">
    <path d="M 9 220.5 
L 64.8 220.5 
L 64.8 30.24 
L 9 30.24 
z
" style="fill:#ffffff;"/>
   </g>
   <g id="matplotlib.axis_1">
    <g id="ytick_1">
     <g id="line2d_1">
      <defs>
       <path d="M 0 0 
L -3.5 0 
" id="m96c4dc2e45" style="stroke:#000000;stroke-width:0.8;"/>
      </defs>
      <g>
       <use style="stroke:#000000;stroke-width:0.8;" x="9" xlink:href="#m96c4dc2e45" y="172.935"/>
      </g>
     </g>
    </g>
    <g id="ytick_2">
     <g id="line2d_2">
      <g>
       <use style="stroke:#000000;stroke-width:0.8;" x="9" xlink:href="#m96c4dc2e45" y="77.805"/>
      </g>
     </g>
    </g>
   </g>
   <g id="line2d_3">
    <path clip-path="url(#pd82390c49a)" d="M 11.989489 220.5 
L 12.073135 218.578182 
L 12.169555 216.656364 
L 12.280218 214.734545 
L 12.406676 212.812727 
L 12.550549 210.890909 
L 12.713514 208.969091 
L 12.897284 207.047273 
L 13.103588 205.125455 
L 13.334141 203.203636 
L 13.590621 201.281818 
L 13.87463 199.36 
L 14.187659 197.438182 
L 14.531052 195.516364 
L 14.905959 193.594545 
L 15.313299 191.672727 
L 15.753709 189.750909 
L 16.227506 187.829091 
L 16.734643 185.907273 
L 17.274666 183.985455 
L 17.846682 182.063636 
L 18.449325 180.141818 
L 19.08073 178.22 
L 19.738518 176.298182 
L 20.419784 174.376364 
L 21.121098 172.454545 
L 21.838516 170.532727 
L 22.567601 168.610909 
L 23.303457 166.689091 
L 24.040772 164.767273 
L 24.773872 162.845455 
L 25.496792 160.923636 
L 26.203347 159.001818 
L 26.887218 157.08 
L 27.542042 155.158182 
L 28.161514 153.236364 
L 28.739478 151.314545 
L 29.270035 149.392727 
L 29.747641 147.470909 
L 30.1672 145.549091 
L 30.524159 143.627273 
L 30.814588 141.705455 
L 31.035251 139.783636 
L 31.183668 137.861818 
L 31.258159 135.94 
L 31.257879 134.018182 
L 31.182831 132.096364 
L 31.033868 130.174545 
L 30.812673 128.252727 
L 30.521735 126.330909 
L 30.164293 124.409091 
L 29.744282 122.487273 
L 29.266262 120.565455 
L 28.735329 118.643636 
L 28.157033 116.721818 
L 27.537274 114.8 
L 26.882209 112.878182 
L 26.198145 110.956364 
L 25.491445 109.034545 
L 24.768426 107.112727 
L 24.035272 105.190909 
L 23.297948 103.269091 
L 22.562124 101.347273 
L 21.833108 99.425455 
L 21.115794 97.503636 
L 20.414616 95.581818 
L 19.733514 93.66 
L 19.075913 91.738182 
L 18.444714 89.816364 
L 17.842294 87.894545 
L 17.270512 85.972727 
L 16.730732 84.050909 
L 16.223843 82.129091 
L 15.750295 80.207273 
L 15.310134 78.285455 
L 14.90304 76.363636 
L 14.528371 74.441818 
L 14.18521 72.52 
L 13.872403 70.598182 
L 13.588605 68.676364 
L 13.332325 66.754545 
L 13.101959 64.832727 
L 12.89583 62.910909 
L 12.712222 60.989091 
L 12.549405 59.067273 
L 12.405668 57.145455 
L 12.279335 55.223636 
L 12.168784 53.301818 
L 12.072465 51.38 
L 11.988909 49.458182 
L 11.916737 47.536364 
L 11.854664 45.614545 
L 11.801505 43.692727 
L 11.756173 41.770909 
L 11.717679 39.849091 
L 11.685128 37.927273 
L 11.657718 36.005455 
L 11.634733 34.083636 
L 11.61554 32.161818 
L 11.599579 30.24 
" style="fill:none;stroke:#000000;stroke-linecap:square;stroke-width:1.5;"/>
   </g>
   <g id="line2d_4">
    <path clip-path="url(#pd82390c49a)" d="M 14.464845 220.5 
L 14.964174 218.578182 
L 15.530583 216.656364 
L 16.169686 214.734545 
L 16.886962 212.812727 
L 17.687625 210.890909 
L 18.576492 208.969091 
L 19.557825 207.047273 
L 20.63517 205.125455 
L 21.811196 203.203636 
L 23.087521 201.281818 
L 24.464549 199.36 
L 25.941311 197.438182 
L 27.51532 195.516364 
L 29.182445 193.594545 
L 30.936809 191.672727 
L 32.770715 189.750909 
L 34.674613 187.829091 
L 36.637097 185.907273 
L 38.644955 183.985455 
L 40.683258 182.063636 
L 42.7355 180.141818 
L 44.783781 178.22 
L 46.809041 176.298182 
L 48.791332 174.376364 
L 50.710126 172.454545 
L 52.544665 170.532727 
L 54.274316 168.610909 
L 55.878962 166.689091 
L 57.339381 164.767273 
L 58.637632 162.845455 
L 59.757417 160.923636 
L 60.684425 159.001818 
L 61.406633 157.08 
L 61.914567 155.158182 
L 62.201506 153.236364 
L 62.263636 151.314545 
L 62.100129 149.392727 
L 61.713161 147.470909 
L 61.10787 145.549091 
L 60.292234 143.627273 
L 59.276904 141.705455 
L 58.074967 139.783636 
L 56.701667 137.861818 
L 55.174085 135.94 
L 53.510784 134.018182 
L 51.731437 132.096364 
L 49.856439 130.174545 
L 47.906528 128.252727 
L 45.902401 126.330909 
L 43.864367 124.409091 
L 41.81201 122.487273 
L 39.7639 120.565455 
L 37.737336 118.643636 
L 35.748135 116.721818 
L 33.810469 114.8 
L 31.936745 112.878182 
L 30.137537 110.956364 
L 28.421562 109.034545 
L 26.79569 107.112727 
L 25.265002 105.190909 
L 23.832876 103.269091 
L 22.501099 101.347273 
L 21.270005 99.425455 
L 20.138622 97.503636 
L 19.104839 95.581818 
L 18.165573 93.66 
L 17.316935 91.738182 
L 16.554394 89.816364 
L 15.872936 87.894545 
L 15.267211 85.972727 
L 14.731666 84.050909 
L 14.260663 82.129091 
L 13.848587 80.207273 
L 13.489934 78.285455 
L 13.179382 76.363636 
L 12.911853 74.441818 
L 12.682556 72.52 
L 12.487018 70.598182 
L 12.321105 68.676364 
L 12.181031 66.754545 
L 12.063358 64.832727 
L 11.964992 62.910909 
L 11.883171 60.989091 
L 11.815444 59.067273 
L 11.759657 57.145455 
L 11.713929 55.223636 
L 11.676627 53.301818 
L 11.646346 51.38 
L 11.621882 49.458182 
L 11.602214 47.536364 
L 11.586476 45.614545 
L 11.573944 43.692727 
L 11.564011 41.770909 
L 11.556176 39.849091 
L 11.550026 37.927273 
L 11.545221 36.005455 
L 11.541484 34.083636 
L 11.538592 32.161818 
L 11.536364 30.24 
" style="fill:none;stroke:#808080;stroke-dasharray:1.5,2.475;stroke-dashoffset:0;stroke-width:1.5;"/>
   </g>
   <g id="patch_3">
    <path d="M 9 220.5 
L 9 30.24 
" style="fill:none;stroke:#000000;stroke-linecap:square;stroke-linejoin:miter;stroke-width:0.8;"/>
   </g>
   <g id="legend_1">
    <g id="patch_4">
     <path d="M 16 66.824375 
L 123.607813 66.824375 
Q 125.607813 66.824375 125.607813 64.824375 
L 125.607813 37.24 
Q 125.607813 35.24 123.607813 35.24 
L 16 35.24 
Q 14 35.24 14 37.24 
L 14 64.824375 
Q 14 66.824375 16 66.824375 
z
" style="fill:#ffffff;opacity:0.8;stroke:#cccccc;stroke-linejoin:miter;"/>
    </g>
    <g id="line2d_5">
     <path d="M 18 42.9275 
L 38 42.9275 
" style="fill:none;stroke:#000000;stroke-linecap:square;stroke-width:1.5;"/>
    </g>
    <g id="line2d_6"/>
    <g id="text_1">
     <!-- 0-150 degrees -->
     <g transform="translate(46 46.4275)scale(0.1 -0.1)">
      <defs>
       <path d="M 4.15625 35.296875 
Q 4.15625 48 6.765625 55.734375 
Q 9.375 63.484375 14.515625 67.671875 
Q 19.671875 71.875 27.484375 71.875 
Q 33.25 71.875 37.59375 69.546875 
Q 41.9375 67.234375 44.765625 62.859375 
Q 47.609375 58.5 49.21875 52.21875 
Q 50.828125 45.953125 50.828125 35.296875 
Q 50.828125 22.703125 48.234375 14.96875 
Q 45.65625 7.234375 40.5 3 
Q 35.359375 -1.21875 27.484375 -1.21875 
Q 17.140625 -1.21875 11.234375 6.203125 
Q 4.15625 15.140625 4.15625 35.296875 
z
M 13.1875 35.296875 
Q 13.1875 17.671875 17.3125 11.828125 
Q 21.4375 6 27.484375 6 
Q 33.546875 6 37.671875 11.859375 
Q 41.796875 17.71875 41.796875 35.296875 
Q 41.796875 52.984375 37.671875 58.78125 
Q 33.546875 64.59375 27.390625 64.59375 
Q 21.34375 64.59375 17.71875 59.46875 
Q 13.1875 52.9375 13.1875 35.296875 
z
" id="ArialMT-48"/>
       <path d="M 3.171875 21.484375 
L 3.171875 30.328125 
L 30.171875 30.328125 
L 30.171875 21.484375 
z
" id="ArialMT-45"/>
       <path d="M 37.25 0 
L 28.46875 0 
L 28.46875 56 
Q 25.296875 52.984375 20.140625 49.953125 
Q 14.984375 46.921875 10.890625 45.40625 
L 10.890625 53.90625 
Q 18.265625 57.375 23.78125 62.296875 
Q 29.296875 67.234375 31.59375 71.875 
L 37.25 71.875 
z
" id="ArialMT-49"/>
       <path d="M 4.15625 18.75 
L 13.375 19.53125 
Q 14.40625 12.796875 18.140625 9.390625 
Q 21.875 6 27.15625 6 
Q 33.5 6 37.890625 10.78125 
Q 42.28125 15.578125 42.28125 23.484375 
Q 42.28125 31 38.0625 35.34375 
Q 33.84375 39.703125 27 39.703125 
Q 22.75 39.703125 19.328125 37.765625 
Q 15.921875 35.84375 13.96875 32.765625 
L 5.71875 33.84375 
L 12.640625 70.609375 
L 48.25 70.609375 
L 48.25 62.203125 
L 19.671875 62.203125 
L 15.828125 42.96875 
Q 22.265625 47.46875 29.34375 47.46875 
Q 38.71875 47.46875 45.15625 40.96875 
Q 51.609375 34.46875 51.609375 24.265625 
Q 51.609375 14.546875 45.953125 7.46875 
Q 39.0625 -1.21875 27.15625 -1.21875 
Q 17.390625 -1.21875 11.203125 4.25 
Q 5.03125 9.71875 4.15625 18.75 
z
" id="ArialMT-53"/>
       <path id="ArialMT-32"/>
       <path d="M 40.234375 0 
L 40.234375 6.546875 
Q 35.296875 -1.171875 25.734375 -1.171875 
Q 19.53125 -1.171875 14.328125 2.25 
Q 9.125 5.671875 6.265625 11.796875 
Q 3.421875 17.921875 3.421875 25.875 
Q 3.421875 33.640625 6 39.96875 
Q 8.59375 46.296875 13.765625 49.65625 
Q 18.953125 53.03125 25.34375 53.03125 
Q 30.03125 53.03125 33.6875 51.046875 
Q 37.359375 49.078125 39.65625 45.90625 
L 39.65625 71.578125 
L 48.390625 71.578125 
L 48.390625 0 
z
M 12.453125 25.875 
Q 12.453125 15.921875 16.640625 10.984375 
Q 20.84375 6.0625 26.5625 6.0625 
Q 32.328125 6.0625 36.34375 10.765625 
Q 40.375 15.484375 40.375 25.140625 
Q 40.375 35.796875 36.265625 40.765625 
Q 32.171875 45.75 26.171875 45.75 
Q 20.3125 45.75 16.375 40.96875 
Q 12.453125 36.1875 12.453125 25.875 
z
" id="ArialMT-100"/>
       <path d="M 42.09375 16.703125 
L 51.171875 15.578125 
Q 49.03125 7.625 43.21875 3.21875 
Q 37.40625 -1.171875 28.375 -1.171875 
Q 17 -1.171875 10.328125 5.828125 
Q 3.65625 12.84375 3.65625 25.484375 
Q 3.65625 38.578125 10.390625 45.796875 
Q 17.140625 53.03125 27.875 53.03125 
Q 38.28125 53.03125 44.875 45.953125 
Q 51.46875 38.875 51.46875 26.03125 
Q 51.46875 25.25 51.421875 23.6875 
L 12.75 23.6875 
Q 13.234375 15.140625 17.578125 10.59375 
Q 21.921875 6.0625 28.421875 6.0625 
Q 33.25 6.0625 36.671875 8.59375 
Q 40.09375 11.140625 42.09375 16.703125 
z
M 13.234375 30.90625 
L 42.1875 30.90625 
Q 41.609375 37.453125 38.875 40.71875 
Q 34.671875 45.796875 27.984375 45.796875 
Q 21.921875 45.796875 17.796875 41.75 
Q 13.671875 37.703125 13.234375 30.90625 
z
" id="ArialMT-101"/>
       <path d="M 4.984375 -4.296875 
L 13.53125 -5.5625 
Q 14.0625 -9.515625 16.5 -11.328125 
Q 19.78125 -13.765625 25.4375 -13.765625 
Q 31.546875 -13.765625 34.859375 -11.328125 
Q 38.1875 -8.890625 39.359375 -4.5 
Q 40.046875 -1.8125 39.984375 6.78125 
Q 34.234375 0 25.640625 0 
Q 14.9375 0 9.078125 7.71875 
Q 3.21875 15.4375 3.21875 26.21875 
Q 3.21875 33.640625 5.90625 39.90625 
Q 8.59375 46.1875 13.6875 49.609375 
Q 18.796875 53.03125 25.6875 53.03125 
Q 34.859375 53.03125 40.828125 45.609375 
L 40.828125 51.859375 
L 48.921875 51.859375 
L 48.921875 7.03125 
Q 48.921875 -5.078125 46.453125 -10.125 
Q 44 -15.1875 38.640625 -18.109375 
Q 33.296875 -21.046875 25.484375 -21.046875 
Q 16.21875 -21.046875 10.5 -16.875 
Q 4.78125 -12.703125 4.984375 -4.296875 
z
M 12.25 26.859375 
Q 12.25 16.65625 16.296875 11.96875 
Q 20.359375 7.28125 26.46875 7.28125 
Q 32.515625 7.28125 36.609375 11.9375 
Q 40.71875 16.609375 40.71875 26.5625 
Q 40.71875 36.078125 36.5 40.90625 
Q 32.28125 45.75 26.3125 45.75 
Q 20.453125 45.75 16.34375 40.984375 
Q 12.25 36.234375 12.25 26.859375 
z
" id="ArialMT-103"/>
       <path d="M 6.5 0 
L 6.5 51.859375 
L 14.40625 51.859375 
L 14.40625 44 
Q 17.4375 49.515625 20 51.265625 
Q 22.5625 53.03125 25.640625 53.03125 
Q 30.078125 53.03125 34.671875 50.203125 
L 31.640625 42.046875 
Q 28.421875 43.953125 25.203125 43.953125 
Q 22.3125 43.953125 20.015625 42.21875 
Q 17.71875 40.484375 16.75 37.40625 
Q 15.28125 32.71875 15.28125 27.15625 
L 15.28125 0 
z
" id="ArialMT-114"/>
       <path d="M 3.078125 15.484375 
L 11.765625 16.84375 
Q 12.5 11.625 15.84375 8.84375 
Q 19.1875 6.0625 25.203125 6.0625 
Q 31.25 6.0625 34.171875 8.515625 
Q 37.109375 10.984375 37.109375 14.3125 
Q 37.109375 17.28125 34.515625 19 
Q 32.71875 20.171875 25.53125 21.96875 
Q 15.875 24.421875 12.140625 26.203125 
Q 8.40625 27.984375 6.46875 31.125 
Q 4.546875 34.28125 4.546875 38.09375 
Q 4.546875 41.546875 6.125 44.5 
Q 7.71875 47.46875 10.453125 49.421875 
Q 12.5 50.921875 16.03125 51.96875 
Q 19.578125 53.03125 23.640625 53.03125 
Q 29.734375 53.03125 34.34375 51.265625 
Q 38.96875 49.515625 41.15625 46.5 
Q 43.359375 43.5 44.1875 38.484375 
L 35.59375 37.3125 
Q 35.015625 41.3125 32.203125 43.546875 
Q 29.390625 45.796875 24.265625 45.796875 
Q 18.21875 45.796875 15.625 43.796875 
Q 13.03125 41.796875 13.03125 39.109375 
Q 13.03125 37.40625 14.109375 36.03125 
Q 15.1875 34.625 17.484375 33.6875 
Q 18.796875 33.203125 25.25 31.453125 
Q 34.578125 28.953125 38.25 27.359375 
Q 41.9375 25.78125 44.03125 22.75 
Q 46.140625 19.734375 46.140625 15.234375 
Q 46.140625 10.84375 43.578125 6.953125 
Q 41.015625 3.078125 36.171875 0.953125 
Q 31.34375 -1.171875 25.25 -1.171875 
Q 15.140625 -1.171875 9.84375 3.03125 
Q 4.546875 7.234375 3.078125 15.484375 
z
" id="ArialMT-115"/>
      </defs>
      <use xlink:href="#ArialMT-48"/>
      <use x="55.615234" xlink:href="#ArialMT-45"/>
      <use x="88.916016" xlink:href="#ArialMT-49"/>
      <use x="144.53125" xlink:href="#ArialMT-53"/>
      <use x="200.146484" xlink:href="#ArialMT-48"/>
      <use x="255.761719" xlink:href="#ArialMT-32"/>
      <use x="283.544922" xlink:href="#ArialMT-100"/>
      <use x="339.160156" xlink:href="#ArialMT-101"/>
      <use x="394.775391" xlink:href="#ArialMT-103"/>
      <use x="450.390625" xlink:href="#ArialMT-114"/>
      <use x="483.691406" xlink:href="#ArialMT-101"/>
      <use x="539.306641" xlink:href="#ArialMT-101"/>
      <use x="594.921875" xlink:href="#ArialMT-115"/>
     </g>
    </g>
    <g id="line2d_7">
     <path d="M 18 57.219688 
L 38 57.219688 
" style="fill:none;stroke:#808080;stroke-dasharray:1.5,2.475;stroke-dashoffset:0;stroke-width:1.5;"/>
    </g>
    <g id="line2d_8"/>
    <g id="text_2">
     <!-- 150-336 degrees -->
     <g transform="translate(46 60.719688)scale(0.1 -0.1)">
      <defs>
       <path d="M 4.203125 18.890625 
L 12.984375 20.0625 
Q 14.5 12.59375 18.140625 9.296875 
Q 21.78125 6 27 6 
Q 33.203125 6 37.46875 10.296875 
Q 41.75 14.59375 41.75 20.953125 
Q 41.75 27 37.796875 30.921875 
Q 33.84375 34.859375 27.734375 34.859375 
Q 25.25 34.859375 21.53125 33.890625 
L 22.515625 41.609375 
Q 23.390625 41.5 23.921875 41.5 
Q 29.546875 41.5 34.03125 44.421875 
Q 38.53125 47.359375 38.53125 53.46875 
Q 38.53125 58.296875 35.25 61.46875 
Q 31.984375 64.65625 26.8125 64.65625 
Q 21.6875 64.65625 18.265625 61.421875 
Q 14.84375 58.203125 13.875 51.765625 
L 5.078125 53.328125 
Q 6.6875 62.15625 12.390625 67.015625 
Q 18.109375 71.875 26.609375 71.875 
Q 32.46875 71.875 37.390625 69.359375 
Q 42.328125 66.84375 44.9375 62.5 
Q 47.5625 58.15625 47.5625 53.265625 
Q 47.5625 48.640625 45.0625 44.828125 
Q 42.578125 41.015625 37.703125 38.765625 
Q 44.046875 37.3125 47.5625 32.6875 
Q 51.078125 28.078125 51.078125 21.140625 
Q 51.078125 11.765625 44.234375 5.25 
Q 37.40625 -1.265625 26.953125 -1.265625 
Q 17.53125 -1.265625 11.296875 4.34375 
Q 5.078125 9.96875 4.203125 18.890625 
z
" id="ArialMT-51"/>
       <path d="M 49.75 54.046875 
L 41.015625 53.375 
Q 39.84375 58.546875 37.703125 60.890625 
Q 34.125 64.65625 28.90625 64.65625 
Q 24.703125 64.65625 21.53125 62.3125 
Q 17.390625 59.28125 14.984375 53.46875 
Q 12.59375 47.65625 12.5 36.921875 
Q 15.671875 41.75 20.265625 44.09375 
Q 24.859375 46.4375 29.890625 46.4375 
Q 38.671875 46.4375 44.84375 39.96875 
Q 51.03125 33.5 51.03125 23.25 
Q 51.03125 16.5 48.125 10.71875 
Q 45.21875 4.9375 40.140625 1.859375 
Q 35.0625 -1.21875 28.609375 -1.21875 
Q 17.625 -1.21875 10.6875 6.859375 
Q 3.765625 14.9375 3.765625 33.5 
Q 3.765625 54.25 11.421875 63.671875 
Q 18.109375 71.875 29.4375 71.875 
Q 37.890625 71.875 43.28125 67.140625 
Q 48.6875 62.40625 49.75 54.046875 
z
M 13.875 23.1875 
Q 13.875 18.65625 15.796875 14.5 
Q 17.71875 10.359375 21.1875 8.171875 
Q 24.65625 6 28.46875 6 
Q 34.03125 6 38.03125 10.484375 
Q 42.046875 14.984375 42.046875 22.703125 
Q 42.046875 30.125 38.078125 34.390625 
Q 34.125 38.671875 28.125 38.671875 
Q 22.171875 38.671875 18.015625 34.390625 
Q 13.875 30.125 13.875 23.1875 
z
" id="ArialMT-54"/>
      </defs>
      <use xlink:href="#ArialMT-49"/>
      <use x="55.615234" xlink:href="#ArialMT-53"/>
      <use x="111.230469" xlink:href="#ArialMT-48"/>
      <use x="166.845703" xlink:href="#ArialMT-45"/>
      <use x="200.146484" xlink:href="#ArialMT-51"/>
      <use x="255.761719" xlink:href="#ArialMT-51"/>
      <use x="311.376953" xlink:href="#ArialMT-54"/>
      <use x="366.992188" xlink:href="#ArialMT-32"/>
      <use x="394.775391" xlink:href="#ArialMT-100"/>
      <use x="450.390625" xlink:href="#ArialMT-101"/>
      <use x="506.005859" xlink:href="#ArialMT-103"/>
      <use x="561.621094" xlink:href="#ArialMT-114"/>
      <use x="594.921875" xlink:href="#ArialMT-101"/>
      <use x="650.537109" xlink:href="#ArialMT-101"/>
      <use x="706.152344" xlink:href="#ArialMT-115"/>
     </g>
    </g>
   </g>
  </g>
 </g>
 <defs>
  <clipPath id="pd82390c49a">
   <rect height="190.26" width="55.8" x="9" y="30.24"/>
  </clipPath>
 </defs>
</svg>
