<?xml version="1.0" encoding="utf-8" standalone="no"?>
<!DOCTYPE svg PUBLIC "-//W3C//DTD SVG 1.1//EN"
  "http://www.w3.org/Graphics/SVG/1.1/DTD/svg11.dtd">
<!-- Created with matplotlib (https://matplotlib.org/) -->
<svg height="252pt" version="1.1" viewBox="0 0 72 252" width="72pt" xmlns="http://www.w3.org/2000/svg" xmlns:xlink="http://www.w3.org/1999/xlink">
 <metadata>
  <rdf:RDF xmlns:cc="http://creativecommons.org/ns#" xmlns:dc="http://purl.org/dc/elements/1.1/" xmlns:rdf="http://www.w3.org/1999/02/22-rdf-syntax-ns#">
   <cc:Work>
    <dc:type rdf:resource="http://purl.org/dc/dcmitype/StillImage"/>
    <dc:date>2022-06-01T11:09:57.094354</dc:date>
    <dc:format>image/svg+xml</dc:format>
    <dc:creator>
     <cc:Agent>
      <dc:title>Matplotlib v3.3.4, https://matplotlib.org/</dc:title>
     </cc:Agent>
    </dc:creator>
   </cc:Work>
  </rdf:RDF>
 </metadata>
 <defs>
  <style type="text/css">*{stroke-linecap:butt;stroke-linejoin:round;}</style>
 </defs>
 <g id="figure_1">
  <g id="patch_1">
   <path d="M 0 252 
L 72 252 
L 72 0 
L 0 0 
z
" style="fill:none;"/>
  </g>
  <g id="axes_1">
   <g id="patch_2">
    <path d="M 9 220.5 
L 64.8 220.5 
L 64.8 30.24 
L 9 30.24 
z
" style="fill:#ffffff;"/>
   </g>
   <g id="matplotlib.axis_1">
    <g id="ytick_1">
     <g id="line2d_1">
      <defs>
       <path d="M 0 0 
L -3.5 0 
" id="m3ca35b9c1e" style="stroke:#000000;stroke-width:0.8;"/>
      </defs>
      <g>
       <use style="stroke:#000000;stroke-width:0.8;" x="9" xlink:href="#m3ca35b9c1e" y="172.935"/>
      </g>
     </g>
    </g>
    <g id="ytick_2">
     <g id="line2d_2">
      <g>
       <use style="stroke:#000000;stroke-width:0.8;" x="9" xlink:href="#m3ca35b9c1e" y="77.805"/>
      </g>
     </g>
    </g>
   </g>
   <g id="line2d_3">
    <path clip-path="url(#p2b8fa68d17)" d="M 11.735601 220.5 
L 11.772265 218.578182 
L 11.81423 216.656364 
L 11.862053 214.734545 
L 11.916315 212.812727 
L 11.977612 210.890909 
L 12.046549 208.969091 
L 12.123733 207.047273 
L 12.20976 205.125455 
L 12.305209 203.203636 
L 12.410624 201.281818 
L 12.526505 199.36 
L 12.653294 197.438182 
L 12.791357 195.516364 
L 12.940972 193.594545 
L 13.102311 191.672727 
L 13.275427 189.750909 
L 13.460238 187.829091 
L 13.656517 185.907273 
L 13.863873 183.985455 
L 14.081748 182.063636 
L 14.309407 180.141818 
L 14.545931 178.22 
L 14.790217 176.298182 
L 15.040982 174.376364 
L 15.296762 172.454545 
L 15.555928 170.532727 
L 15.816695 168.610909 
L 16.077141 166.689091 
L 16.335228 164.767273 
L 16.588823 162.845455 
L 16.835733 160.923636 
L 17.073726 159.001818 
L 17.300573 157.08 
L 17.514076 155.158182 
L 17.712105 153.236364 
L 17.892634 151.314545 
L 18.053773 149.392727 
L 18.193805 147.470909 
L 18.311211 145.549091 
L 18.404701 143.627273 
L 18.473238 141.705455 
L 18.516054 139.783636 
L 18.532669 137.861818 
L 18.522894 135.94 
L 18.48684 134.018182 
L 18.424914 132.096364 
L 18.337808 130.174545 
L 18.226492 128.252727 
L 18.092193 126.330909 
L 17.936372 124.409091 
L 17.760698 122.487273 
L 17.567019 120.565455 
L 17.357329 118.643636 
L 17.133735 116.721818 
L 16.89842 114.8 
L 16.653609 112.878182 
L 16.401535 110.956364 
L 16.144406 109.034545 
L 15.884371 107.112727 
L 15.623498 105.190909 
L 15.363739 103.269091 
L 15.106917 101.347273 
L 14.854704 99.425455 
L 14.608607 97.503636 
L 14.369956 95.581818 
L 14.139902 93.66 
L 13.91941 91.738182 
L 13.709265 89.816364 
L 13.510069 87.894545 
L 13.322254 85.972727 
L 13.14609 84.050909 
L 12.981696 82.129091 
L 12.829052 80.207273 
L 12.688014 78.285455 
L 12.558333 76.363636 
L 12.439661 74.441818 
L 12.331577 72.52 
L 12.233594 70.598182 
L 12.145177 68.676364 
L 12.065756 66.754545 
L 11.994738 64.832727 
L 11.931517 62.910909 
L 11.875488 60.989091 
L 11.82605 59.067273 
L 11.78262 57.145455 
L 11.744633 55.223636 
L 11.71155 53.301818 
L 11.682862 51.38 
L 11.658091 49.458182 
L 11.636793 47.536364 
L 11.618559 45.614545 
L 11.603013 43.692727 
L 11.589814 41.770909 
L 11.578656 39.849091 
L 11.569261 37.927273 
L 11.561384 36.005455 
L 11.554807 34.083636 
L 11.549337 32.161818 
L 11.544808 30.24 
" style="fill:none;stroke:#000000;stroke-linecap:square;stroke-width:1.5;"/>
   </g>
   <g id="line2d_4">
    <path clip-path="url(#p2b8fa68d17)" d="M 14.430553 220.5 
L 14.917114 218.578182 
L 15.468139 216.656364 
L 16.088977 214.734545 
L 16.784863 212.812727 
L 17.560802 210.890909 
L 18.42144 208.969091 
L 19.370926 207.047273 
L 20.412769 205.125455 
L 21.549679 203.203636 
L 22.783419 201.281818 
L 24.114643 199.36 
L 25.542758 197.438182 
L 27.065778 195.516364 
L 28.680208 193.594545 
L 30.380944 191.672727 
L 32.161192 189.750909 
L 34.012432 187.829091 
L 35.924401 185.907273 
L 37.885123 183.985455 
L 39.880982 182.063636 
L 41.896828 180.141818 
L 43.916132 178.22 
L 45.921186 176.298182 
L 47.893334 174.376364 
L 49.813246 172.454545 
L 51.661223 170.532727 
L 53.417519 168.610909 
L 55.062692 166.689091 
L 56.577954 164.767273 
L 57.94553 162.845455 
L 59.148998 160.923636 
L 60.173623 159.001818 
L 61.006653 157.08 
L 61.637583 155.158182 
L 62.058377 153.236364 
L 62.263636 151.314545 
L 62.250718 149.392727 
L 62.019788 147.470909 
L 61.573821 145.549091 
L 60.918532 143.627273 
L 60.062261 141.705455 
L 59.015789 139.783636 
L 57.792118 137.861818 
L 56.406199 135.94 
L 54.874631 134.018182 
L 53.215328 132.096364 
L 51.447171 130.174545 
L 49.58966 128.252727 
L 47.66255 126.330909 
L 45.685515 124.409091 
L 43.677821 122.487273 
L 41.658023 120.565455 
L 39.643704 118.643636 
L 37.651238 116.721818 
L 35.6956 114.8 
L 33.790218 112.878182 
L 31.946869 110.956364 
L 30.17561 109.034545 
L 28.484755 107.112727 
L 26.880896 105.190909 
L 25.368943 103.269091 
L 23.952207 101.347273 
L 22.632501 99.425455 
L 21.410264 97.503636 
L 20.284703 95.581818 
L 19.253936 93.66 
L 18.315149 91.738182 
L 17.464751 89.816364 
L 16.698526 87.894545 
L 16.011777 85.972727 
L 15.399467 84.050909 
L 14.856343 82.129091 
L 14.377047 80.207273 
L 13.95622 78.285455 
L 13.588585 76.363636 
L 13.269019 74.441818 
L 12.992613 72.52 
L 12.754714 70.598182 
L 12.550957 68.676364 
L 12.377291 66.754545 
L 12.229987 64.832727 
L 12.105646 62.910909 
L 12.001189 60.989091 
L 11.913856 59.067273 
L 11.841186 57.145455 
L 11.781002 55.223636 
L 11.731395 53.301818 
L 11.690697 51.38 
L 11.657466 49.458182 
L 11.630456 47.536364 
L 11.608607 45.614545 
L 11.591013 43.692727 
L 11.576912 41.770909 
L 11.565662 39.849091 
L 11.556728 37.927273 
L 11.549666 36.005455 
L 11.544109 34.083636 
L 11.539757 32.161818 
L 11.536364 30.24 
" style="fill:none;stroke:#808080;stroke-dasharray:5.55,2.4;stroke-dashoffset:0;stroke-width:1.5;"/>
   </g>
   <g id="patch_3">
    <path d="M 9 220.5 
L 9 30.24 
" style="fill:none;stroke:#000000;stroke-linecap:square;stroke-linejoin:miter;stroke-width:0.8;"/>
   </g>
   <g id="legend_1">
    <g id="patch_4">
     <path d="M 16 66.59 
L 104.142188 66.59 
Q 106.142188 66.59 106.142188 64.59 
L 106.142188 37.24 
Q 106.142188 35.24 104.142188 35.24 
L 16 35.24 
Q 14 35.24 14 37.24 
L 14 64.59 
Q 14 66.59 16 66.59 
z
" style="fill:#ffffff;opacity:0.8;stroke:#cccccc;stroke-linejoin:miter;"/>
    </g>
    <g id="line2d_5">
     <path d="M 18 42.9275 
L 38 42.9275 
" style="fill:none;stroke:#000000;stroke-linecap:square;stroke-width:1.5;"/>
    </g>
    <g id="line2d_6"/>
    <g id="text_1">
     <!-- 60.8-80 mph -->
     <g transform="translate(46 46.4275)scale(0.1 -0.1)">
      <defs>
       <path d="M 49.75 54.046875 
L 41.015625 53.375 
Q 39.84375 58.546875 37.703125 60.890625 
Q 34.125 64.65625 28.90625 64.65625 
Q 24.703125 64.65625 21.53125 62.3125 
Q 17.390625 59.28125 14.984375 53.46875 
Q 12.59375 47.65625 12.5 36.921875 
Q 15.671875 41.75 20.265625 44.09375 
Q 24.859375 46.4375 29.890625 46.4375 
Q 38.671875 46.4375 44.84375 39.96875 
Q 51.03125 33.5 51.03125 23.25 
Q 51.03125 16.5 48.125 10.71875 
Q 45.21875 4.9375 40.140625 1.859375 
Q 35.0625 -1.21875 28.609375 -1.21875 
Q 17.625 -1.21875 10.6875 6.859375 
Q 3.765625 14.9375 3.765625 33.5 
Q 3.765625 54.25 11.421875 63.671875 
Q 18.109375 71.875 29.4375 71.875 
Q 37.890625 71.875 43.28125 67.140625 
Q 48.6875 62.40625 49.75 54.046875 
z
M 13.875 23.1875 
Q 13.875 18.65625 15.796875 14.5 
Q 17.71875 10.359375 21.1875 8.171875 
Q 24.65625 6 28.46875 6 
Q 34.03125 6 38.03125 10.484375 
Q 42.046875 14.984375 42.046875 22.703125 
Q 42.046875 30.125 38.078125 34.390625 
Q 34.125 38.671875 28.125 38.671875 
Q 22.171875 38.671875 18.015625 34.390625 
Q 13.875 30.125 13.875 23.1875 
z
" id="ArialMT-54"/>
       <path d="M 4.15625 35.296875 
Q 4.15625 48 6.765625 55.734375 
Q 9.375 63.484375 14.515625 67.671875 
Q 19.671875 71.875 27.484375 71.875 
Q 33.25 71.875 37.59375 69.546875 
Q 41.9375 67.234375 44.765625 62.859375 
Q 47.609375 58.5 49.21875 52.21875 
Q 50.828125 45.953125 50.828125 35.296875 
Q 50.828125 22.703125 48.234375 14.96875 
Q 45.65625 7.234375 40.5 3 
Q 35.359375 -1.21875 27.484375 -1.21875 
Q 17.140625 -1.21875 11.234375 6.203125 
Q 4.15625 15.140625 4.15625 35.296875 
z
M 13.1875 35.296875 
Q 13.1875 17.671875 17.3125 11.828125 
Q 21.4375 6 27.484375 6 
Q 33.546875 6 37.671875 11.859375 
Q 41.796875 17.71875 41.796875 35.296875 
Q 41.796875 52.984375 37.671875 58.78125 
Q 33.546875 64.59375 27.390625 64.59375 
Q 21.34375 64.59375 17.71875 59.46875 
Q 13.1875 52.9375 13.1875 35.296875 
z
" id="ArialMT-48"/>
       <path d="M 9.078125 0 
L 9.078125 10.015625 
L 19.09375 10.015625 
L 19.09375 0 
z
" id="ArialMT-46"/>
       <path d="M 17.671875 38.8125 
Q 12.203125 40.828125 9.5625 44.53125 
Q 6.9375 48.25 6.9375 53.421875 
Q 6.9375 61.234375 12.546875 66.546875 
Q 18.171875 71.875 27.484375 71.875 
Q 36.859375 71.875 42.578125 66.421875 
Q 48.296875 60.984375 48.296875 53.171875 
Q 48.296875 48.1875 45.671875 44.5 
Q 43.0625 40.828125 37.75 38.8125 
Q 44.34375 36.671875 47.78125 31.875 
Q 51.21875 27.09375 51.21875 20.453125 
Q 51.21875 11.28125 44.71875 5.03125 
Q 38.234375 -1.21875 27.640625 -1.21875 
Q 17.046875 -1.21875 10.546875 5.046875 
Q 4.046875 11.328125 4.046875 20.703125 
Q 4.046875 27.6875 7.59375 32.390625 
Q 11.140625 37.109375 17.671875 38.8125 
z
M 15.921875 53.71875 
Q 15.921875 48.640625 19.1875 45.40625 
Q 22.46875 42.1875 27.6875 42.1875 
Q 32.765625 42.1875 36.015625 45.375 
Q 39.265625 48.578125 39.265625 53.21875 
Q 39.265625 58.0625 35.90625 61.359375 
Q 32.5625 64.65625 27.59375 64.65625 
Q 22.5625 64.65625 19.234375 61.421875 
Q 15.921875 58.203125 15.921875 53.71875 
z
M 13.09375 20.65625 
Q 13.09375 16.890625 14.875 13.375 
Q 16.65625 9.859375 20.171875 7.921875 
Q 23.6875 6 27.734375 6 
Q 34.03125 6 38.125 10.046875 
Q 42.234375 14.109375 42.234375 20.359375 
Q 42.234375 26.703125 38.015625 30.859375 
Q 33.796875 35.015625 27.4375 35.015625 
Q 21.234375 35.015625 17.15625 30.90625 
Q 13.09375 26.8125 13.09375 20.65625 
z
" id="ArialMT-56"/>
       <path d="M 3.171875 21.484375 
L 3.171875 30.328125 
L 30.171875 30.328125 
L 30.171875 21.484375 
z
" id="ArialMT-45"/>
       <path id="ArialMT-32"/>
       <path d="M 6.59375 0 
L 6.59375 51.859375 
L 14.453125 51.859375 
L 14.453125 44.578125 
Q 16.890625 48.390625 20.9375 50.703125 
Q 25 53.03125 30.171875 53.03125 
Q 35.9375 53.03125 39.625 50.640625 
Q 43.3125 48.25 44.828125 43.953125 
Q 50.984375 53.03125 60.84375 53.03125 
Q 68.5625 53.03125 72.703125 48.75 
Q 76.859375 44.484375 76.859375 35.59375 
L 76.859375 0 
L 68.109375 0 
L 68.109375 32.671875 
Q 68.109375 37.9375 67.25 40.25 
Q 66.40625 42.578125 64.15625 43.984375 
Q 61.921875 45.40625 58.890625 45.40625 
Q 53.421875 45.40625 49.796875 41.765625 
Q 46.1875 38.140625 46.1875 30.125 
L 46.1875 0 
L 37.40625 0 
L 37.40625 33.6875 
Q 37.40625 39.546875 35.25 42.46875 
Q 33.109375 45.40625 28.21875 45.40625 
Q 24.515625 45.40625 21.359375 43.453125 
Q 18.21875 41.5 16.796875 37.734375 
Q 15.375 33.984375 15.375 26.90625 
L 15.375 0 
z
" id="ArialMT-109"/>
       <path d="M 6.59375 -19.875 
L 6.59375 51.859375 
L 14.59375 51.859375 
L 14.59375 45.125 
Q 17.4375 49.078125 21 51.046875 
Q 24.5625 53.03125 29.640625 53.03125 
Q 36.28125 53.03125 41.359375 49.609375 
Q 46.4375 46.1875 49.015625 39.953125 
Q 51.609375 33.734375 51.609375 26.3125 
Q 51.609375 18.359375 48.75 11.984375 
Q 45.90625 5.609375 40.453125 2.21875 
Q 35.015625 -1.171875 29 -1.171875 
Q 24.609375 -1.171875 21.109375 0.6875 
Q 17.625 2.546875 15.375 5.375 
L 15.375 -19.875 
z
M 14.546875 25.640625 
Q 14.546875 15.625 18.59375 10.84375 
Q 22.65625 6.0625 28.421875 6.0625 
Q 34.28125 6.0625 38.453125 11.015625 
Q 42.625 15.96875 42.625 26.375 
Q 42.625 36.28125 38.546875 41.203125 
Q 34.46875 46.140625 28.8125 46.140625 
Q 23.1875 46.140625 18.859375 40.890625 
Q 14.546875 35.640625 14.546875 25.640625 
z
" id="ArialMT-112"/>
       <path d="M 6.59375 0 
L 6.59375 71.578125 
L 15.375 71.578125 
L 15.375 45.90625 
Q 21.53125 53.03125 30.90625 53.03125 
Q 36.671875 53.03125 40.921875 50.75 
Q 45.171875 48.484375 47 44.484375 
Q 48.828125 40.484375 48.828125 32.859375 
L 48.828125 0 
L 40.046875 0 
L 40.046875 32.859375 
Q 40.046875 39.453125 37.1875 42.453125 
Q 34.328125 45.453125 29.109375 45.453125 
Q 25.203125 45.453125 21.75 43.421875 
Q 18.3125 41.40625 16.84375 37.9375 
Q 15.375 34.46875 15.375 28.375 
L 15.375 0 
z
" id="ArialMT-104"/>
      </defs>
      <use xlink:href="#ArialMT-54"/>
      <use x="55.615234" xlink:href="#ArialMT-48"/>
      <use x="111.230469" xlink:href="#ArialMT-46"/>
      <use x="139.013672" xlink:href="#ArialMT-56"/>
      <use x="194.628906" xlink:href="#ArialMT-45"/>
      <use x="227.929688" xlink:href="#ArialMT-56"/>
      <use x="283.544922" xlink:href="#ArialMT-48"/>
      <use x="339.160156" xlink:href="#ArialMT-32"/>
      <use x="366.943359" xlink:href="#ArialMT-109"/>
      <use x="450.244141" xlink:href="#ArialMT-112"/>
      <use x="505.859375" xlink:href="#ArialMT-104"/>
     </g>
    </g>
    <g id="line2d_7">
     <path d="M 18 57.1025 
L 38 57.1025 
" style="fill:none;stroke:#808080;stroke-dasharray:5.55,2.4;stroke-dashoffset:0;stroke-width:1.5;"/>
    </g>
    <g id="line2d_8"/>
    <g id="text_2">
     <!-- 80-96.1 mph -->
     <g transform="translate(46 60.6025)scale(0.1 -0.1)">
      <defs>
       <path d="M 5.46875 16.546875 
L 13.921875 17.328125 
Q 14.984375 11.375 18.015625 8.6875 
Q 21.046875 6 25.78125 6 
Q 29.828125 6 32.875 7.859375 
Q 35.9375 9.71875 37.890625 12.8125 
Q 39.84375 15.921875 41.15625 21.1875 
Q 42.484375 26.46875 42.484375 31.9375 
Q 42.484375 32.515625 42.4375 33.6875 
Q 39.796875 29.5 35.234375 26.875 
Q 30.671875 24.265625 25.34375 24.265625 
Q 16.453125 24.265625 10.296875 30.703125 
Q 4.15625 37.15625 4.15625 47.703125 
Q 4.15625 58.59375 10.578125 65.234375 
Q 17 71.875 26.65625 71.875 
Q 33.640625 71.875 39.421875 68.109375 
Q 45.21875 64.359375 48.21875 57.390625 
Q 51.21875 50.4375 51.21875 37.25 
Q 51.21875 23.53125 48.234375 15.40625 
Q 45.265625 7.28125 39.375 3.03125 
Q 33.5 -1.21875 25.59375 -1.21875 
Q 17.1875 -1.21875 11.859375 3.4375 
Q 6.546875 8.109375 5.46875 16.546875 
z
M 41.453125 48.140625 
Q 41.453125 55.71875 37.421875 60.15625 
Q 33.40625 64.59375 27.734375 64.59375 
Q 21.875 64.59375 17.53125 59.8125 
Q 13.1875 55.03125 13.1875 47.40625 
Q 13.1875 40.578125 17.3125 36.296875 
Q 21.4375 32.03125 27.484375 32.03125 
Q 33.59375 32.03125 37.515625 36.296875 
Q 41.453125 40.578125 41.453125 48.140625 
z
" id="ArialMT-57"/>
       <path d="M 37.25 0 
L 28.46875 0 
L 28.46875 56 
Q 25.296875 52.984375 20.140625 49.953125 
Q 14.984375 46.921875 10.890625 45.40625 
L 10.890625 53.90625 
Q 18.265625 57.375 23.78125 62.296875 
Q 29.296875 67.234375 31.59375 71.875 
L 37.25 71.875 
z
" id="ArialMT-49"/>
      </defs>
      <use xlink:href="#ArialMT-56"/>
      <use x="55.615234" xlink:href="#ArialMT-48"/>
      <use x="111.230469" xlink:href="#ArialMT-45"/>
      <use x="144.53125" xlink:href="#ArialMT-57"/>
      <use x="200.146484" xlink:href="#ArialMT-54"/>
      <use x="255.761719" xlink:href="#ArialMT-46"/>
      <use x="283.544922" xlink:href="#ArialMT-49"/>
      <use x="339.160156" xlink:href="#ArialMT-32"/>
      <use x="366.943359" xlink:href="#ArialMT-109"/>
      <use x="450.244141" xlink:href="#ArialMT-112"/>
      <use x="505.859375" xlink:href="#ArialMT-104"/>
     </g>
    </g>
   </g>
  </g>
 </g>
 <defs>
  <clipPath id="p2b8fa68d17">
   <rect height="190.26" width="55.8" x="9" y="30.24"/>
  </clipPath>
 </defs>
</svg>
