<?xml version="1.0" encoding="utf-8" standalone="no"?>
<!DOCTYPE svg PUBLIC "-//W3C//DTD SVG 1.1//EN"
  "http://www.w3.org/Graphics/SVG/1.1/DTD/svg11.dtd">
<!-- Created with matplotlib (https://matplotlib.org/) -->
<svg height="252pt" version="1.1" viewBox="0 0 72 252" width="72pt" xmlns="http://www.w3.org/2000/svg" xmlns:xlink="http://www.w3.org/1999/xlink">
 <metadata>
  <rdf:RDF xmlns:cc="http://creativecommons.org/ns#" xmlns:dc="http://purl.org/dc/elements/1.1/" xmlns:rdf="http://www.w3.org/1999/02/22-rdf-syntax-ns#">
   <cc:Work>
    <dc:type rdf:resource="http://purl.org/dc/dcmitype/StillImage"/>
    <dc:date>2022-05-31T12:19:46.724771</dc:date>
    <dc:format>image/svg+xml</dc:format>
    <dc:creator>
     <cc:Agent>
      <dc:title>Matplotlib v3.3.4, https://matplotlib.org/</dc:title>
     </cc:Agent>
    </dc:creator>
   </cc:Work>
  </rdf:RDF>
 </metadata>
 <defs>
  <style type="text/css">*{stroke-linecap:butt;stroke-linejoin:round;}</style>
 </defs>
 <g id="figure_1">
  <g id="patch_1">
   <path d="M 0 252 
L 72 252 
L 72 0 
L 0 0 
z
" style="fill:none;"/>
  </g>
  <g id="axes_1">
   <g id="patch_2">
    <path d="M 9 220.5 
L 64.8 220.5 
L 64.8 30.24 
L 9 30.24 
z
" style="fill:#ffffff;"/>
   </g>
   <g id="matplotlib.axis_1">
    <g id="ytick_1">
     <g id="line2d_1">
      <defs>
       <path d="M 0 0 
L -3.5 0 
" id="md117915408" style="stroke:#000000;stroke-width:0.8;"/>
      </defs>
      <g>
       <use style="stroke:#000000;stroke-width:0.8;" x="9" xlink:href="#md117915408" y="172.935"/>
      </g>
     </g>
    </g>
    <g id="ytick_2">
     <g id="line2d_2">
      <g>
       <use style="stroke:#000000;stroke-width:0.8;" x="9" xlink:href="#md117915408" y="77.805"/>
      </g>
     </g>
    </g>
   </g>
   <g id="line2d_3">
    <path clip-path="url(#pdc0eb5d7c5)" d="M 11.536364 220.5 
L 11.536364 218.578182 
L 11.536364 216.656364 
L 11.536364 214.734545 
L 11.536364 212.812727 
L 11.536365 210.890909 
L 11.536365 208.969091 
L 11.536367 207.047273 
L 11.536369 205.125455 
L 11.536373 203.203636 
L 11.53638 201.281818 
L 11.536392 199.36 
L 11.536413 197.438182 
L 11.536447 195.516364 
L 11.536505 193.594545 
L 11.536598 191.672727 
L 11.53675 189.750909 
L 11.536994 187.829091 
L 11.537381 185.907273 
L 11.537986 183.985455 
L 11.538925 182.063636 
L 11.540364 180.141818 
L 11.542544 178.22 
L 11.545811 176.298182 
L 11.55065 174.376364 
L 11.557736 172.454545 
L 11.567995 170.532727 
L 11.582679 168.610909 
L 11.603454 166.689091 
L 11.632509 164.767273 
L 11.672675 162.845455 
L 11.727555 160.923636 
L 11.801663 159.001818 
L 11.900561 157.08 
L 12.030983 155.158182 
L 12.200931 153.236364 
L 12.419727 151.314545 
L 12.698008 149.392727 
L 13.047626 147.470909 
L 13.481454 145.549091 
L 14.01306 143.627273 
L 14.65625 141.705455 
L 15.424469 139.783636 
L 16.330057 137.861818 
L 17.383398 135.94 
L 18.591966 134.018182 
L 19.959342 132.096364 
L 21.48424 130.174545 
L 23.159629 128.252727 
L 24.972025 126.330909 
L 26.901026 124.409091 
L 28.919178 122.487273 
L 30.992216 120.565455 
L 33.079729 118.643636 
L 35.136251 116.721818 
L 37.112762 114.8 
L 38.958543 112.878182 
L 40.623277 110.956364 
L 42.059307 109.034545 
L 43.223886 107.112727 
L 44.081287 105.190909 
L 44.604622 103.269091 
L 44.777242 101.347273 
L 44.593617 99.425455 
L 44.059628 97.503636 
L 43.192259 95.581818 
L 42.018694 93.66 
L 40.574907 91.738182 
L 38.90383 89.816364 
L 37.053237 87.894545 
L 35.073489 85.972727 
L 33.015286 84.050909 
L 30.927562 82.129091 
L 28.855646 80.207273 
L 26.839775 78.285455 
L 24.91401 76.363636 
L 23.105589 74.441818 
L 21.434694 72.52 
L 19.914602 70.598182 
L 18.552153 68.676364 
L 17.348469 66.754545 
L 16.299835 64.832727 
L 15.39867 62.910909 
L 14.634517 60.989091 
L 13.994989 59.067273 
L 13.466619 57.145455 
L 13.035601 55.223636 
L 12.688381 53.301818 
L 12.412115 51.38 
L 12.194985 49.458182 
L 12.026395 47.536364 
L 11.897062 45.614545 
L 11.799027 43.692727 
L 11.725592 41.770909 
L 11.671231 39.849091 
L 11.631459 37.927273 
L 11.602699 36.005455 
L 11.582143 34.083636 
L 11.567619 32.161818 
L 11.557474 30.24 
" style="fill:none;stroke:#000000;stroke-linecap:square;stroke-width:1.5;"/>
   </g>
   <g id="line2d_4">
    <path clip-path="url(#pdc0eb5d7c5)" d="M 11.536364 220.5 
L 11.536364 218.578182 
L 11.536364 216.656364 
L 11.536364 214.734545 
L 11.536364 212.812727 
L 11.536364 210.890909 
L 11.536364 208.969091 
L 11.536364 207.047273 
L 11.536364 205.125455 
L 11.536364 203.203636 
L 11.536366 201.281818 
L 11.536369 199.36 
L 11.536376 197.438182 
L 11.536393 195.516364 
L 11.536431 193.594545 
L 11.536515 191.672727 
L 11.536696 189.750909 
L 11.537077 187.829091 
L 11.537855 185.907273 
L 11.539405 183.985455 
L 11.542409 182.063636 
L 11.548081 180.141818 
L 11.55851 178.22 
L 11.577181 176.298182 
L 11.609719 174.376364 
L 11.664914 172.454545 
L 11.756034 170.532727 
L 11.902398 168.610909 
L 12.131104 166.689091 
L 12.47866 164.767273 
L 12.992164 162.845455 
L 13.729528 160.923636 
L 14.758135 159.001818 
L 16.151377 157.08 
L 17.982591 155.158182 
L 20.316329 153.236364 
L 23.19733 151.314545 
L 26.638237 149.392727 
L 30.60772 147.470909 
L 35.021164 145.549091 
L 39.736207 143.627273 
L 44.555144 141.705455 
L 49.235368 139.783636 
L 53.507745 137.861818 
L 57.101341 135.94 
L 59.771507 134.018182 
L 61.327324 132.096364 
L 61.654159 130.174545 
L 60.727623 128.252727 
L 58.616578 126.330909 
L 55.474684 124.409091 
L 51.521906 122.487273 
L 47.019095 120.565455 
L 42.239704 118.643636 
L 37.442862 116.721818 
L 32.851413 114.8 
L 28.637244 112.878182 
L 24.914793 110.956364 
L 21.742146 109.034545 
L 19.128116 107.112727 
L 17.043074 105.190909 
L 15.43127 103.269091 
L 14.222674 101.347273 
L 13.342997 99.425455 
L 12.721145 97.503636 
L 12.294001 95.581818 
L 12.008795 93.66 
L 11.82362 91.738182 
L 11.70668 89.816364 
L 11.634832 87.894545 
L 11.591876 85.972727 
L 11.566881 84.050909 
L 11.552722 82.129091 
L 11.544914 80.207273 
L 11.540722 78.285455 
L 11.53853 76.363636 
L 11.537413 74.441818 
L 11.53686 72.52 
L 11.536592 70.598182 
L 11.536466 68.676364 
L 11.536409 66.754545 
L 11.536383 64.832727 
L 11.536372 62.910909 
L 11.536367 60.989091 
L 11.536365 59.067273 
L 11.536364 57.145455 
L 11.536364 55.223636 
L 11.536364 53.301818 
L 11.536364 51.38 
L 11.536364 49.458182 
L 11.536364 47.536364 
L 11.536364 45.614545 
L 11.536364 43.692727 
L 11.536364 41.770909 
L 11.536364 39.849091 
L 11.536364 37.927273 
L 11.536364 36.005455 
L 11.536364 34.083636 
L 11.536364 32.161818 
L 11.536364 30.24 
" style="fill:none;stroke:#808080;stroke-dasharray:5.55,2.4;stroke-dashoffset:0;stroke-width:1.5;"/>
   </g>
   <g id="line2d_5">
    <path clip-path="url(#pdc0eb5d7c5)" d="M 11.536366 220.5 
L 11.53637 218.578182 
L 11.53638 216.656364 
L 11.536402 214.734545 
L 11.53645 212.812727 
L 11.536555 210.890909 
L 11.536779 208.969091 
L 11.537243 207.047273 
L 11.538178 205.125455 
L 11.540016 203.203636 
L 11.543536 201.281818 
L 11.550104 199.36 
L 11.562041 197.438182 
L 11.583178 195.516364 
L 11.619626 193.594545 
L 11.68083 191.672727 
L 11.780898 189.750909 
L 11.940159 187.829091 
L 12.186845 185.907273 
L 12.558616 183.985455 
L 13.103592 182.063636 
L 13.880361 180.141818 
L 14.956414 178.22 
L 16.404453 176.298182 
L 18.296186 174.376364 
L 20.693563 172.454545 
L 23.637906 170.532727 
L 27.137972 168.610909 
L 31.158609 166.689091 
L 35.612049 164.767273 
L 40.354059 162.845455 
L 45.186784 160.923636 
L 49.869327 159.001818 
L 54.135905 157.08 
L 57.719998 155.158182 
L 60.381568 153.236364 
L 61.933563 151.314545 
L 62.263636 149.392727 
L 61.347594 147.470909 
L 59.252325 145.549091 
L 56.127724 143.627273 
L 52.188972 141.705455 
L 47.692062 139.783636 
L 42.906451 137.861818 
L 38.08886 135.94 
L 33.461668 134.018182 
L 29.198228 132.096364 
L 25.416 130.174545 
L 22.177066 128.252727 
L 19.494533 126.330909 
L 17.34276 124.409091 
L 15.669224 122.487273 
L 14.406124 120.565455 
L 13.48034 118.643636 
L 12.82102 116.721818 
L 12.364561 114.8 
L 12.057236 112.878182 
L 11.855943 110.956364 
L 11.727647 109.034545 
L 11.648057 107.112727 
L 11.599989 105.190909 
L 11.571721 103.269091 
L 11.555532 101.347273 
L 11.546501 99.425455 
L 11.541594 97.503636 
L 11.538996 95.581818 
L 11.537656 93.66 
L 11.536983 91.738182 
L 11.536653 89.816364 
L 11.536496 87.894545 
L 11.536422 85.972727 
L 11.536389 84.050909 
L 11.536374 82.129091 
L 11.536368 80.207273 
L 11.536365 78.285455 
L 11.536364 76.363636 
L 11.536364 74.441818 
L 11.536364 72.52 
L 11.536364 70.598182 
L 11.536364 68.676364 
L 11.536364 66.754545 
L 11.536364 64.832727 
L 11.536364 62.910909 
L 11.536364 60.989091 
L 11.536364 59.067273 
L 11.536364 57.145455 
L 11.536364 55.223636 
L 11.536364 53.301818 
L 11.536364 51.38 
L 11.536364 49.458182 
L 11.536364 47.536364 
L 11.536364 45.614545 
L 11.536364 43.692727 
L 11.536364 41.770909 
L 11.536364 39.849091 
L 11.536364 37.927273 
L 11.536364 36.005455 
L 11.536364 34.083636 
L 11.536364 32.161818 
L 11.536364 30.24 
" style="fill:none;stroke:#d3d3d3;stroke-dasharray:1.5,2.475;stroke-dashoffset:0;stroke-width:1.5;"/>
   </g>
   <g id="line2d_6">
    <path clip-path="url(#pdc0eb5d7c5)" d="M 12.48286 220.5 
L 12.846435 218.578182 
L 13.322993 216.656364 
L 13.937059 214.734545 
L 14.714724 212.812727 
L 15.682395 210.890909 
L 16.865113 208.969091 
L 18.284462 207.047273 
L 19.956145 205.125455 
L 21.887393 203.203636 
L 24.074403 201.281818 
L 26.500065 199.36 
L 29.132276 197.438182 
L 31.923107 195.516364 
L 34.80909 193.594545 
L 37.71277 191.672727 
L 40.545587 189.750909 
L 43.212012 187.829091 
L 45.61469 185.907273 
L 47.66024 183.985455 
L 49.265231 182.063636 
L 50.361815 180.141818 
L 50.902483 178.22 
L 50.863473 176.298182 
L 50.246507 174.376364 
L 49.078663 172.454545 
L 47.410404 170.532727 
L 45.311962 168.610909 
L 42.868438 166.689091 
L 40.174093 164.767273 
L 37.326363 162.845455 
L 34.420126 160.923636 
L 31.542668 159.001818 
L 28.76971 157.08 
L 26.162706 155.158182 
L 23.767454 153.236364 
L 21.613982 151.314545 
L 19.717507 149.392727 
L 18.080216 147.470909 
L 16.69359 145.549091 
L 15.540993 143.627273 
L 14.600244 141.705455 
L 13.846005 139.783636 
L 13.251824 137.861818 
L 12.791758 135.94 
L 12.44156 134.018182 
L 12.17945 132.096364 
L 11.986515 130.174545 
L 11.846828 128.252727 
L 11.747337 126.330909 
L 11.67762 124.409091 
L 11.629549 122.487273 
L 11.596933 120.565455 
L 11.575154 118.643636 
L 11.560841 116.721818 
L 11.551582 114.8 
L 11.545686 112.878182 
L 11.54199 110.956364 
L 11.53971 109.034545 
L 11.538324 107.112727 
L 11.537495 105.190909 
L 11.537007 103.269091 
L 11.536724 101.347273 
L 11.536563 99.425455 
L 11.536472 97.503636 
L 11.536422 95.581818 
L 11.536394 93.66 
L 11.53638 91.738182 
L 11.536372 89.816364 
L 11.536368 87.894545 
L 11.536366 85.972727 
L 11.536365 84.050909 
L 11.536364 82.129091 
L 11.536364 80.207273 
L 11.536364 78.285455 
L 11.536364 76.363636 
L 11.536364 74.441818 
L 11.536364 72.52 
L 11.536364 70.598182 
L 11.536364 68.676364 
L 11.536364 66.754545 
L 11.536364 64.832727 
L 11.536364 62.910909 
L 11.536364 60.989091 
L 11.536364 59.067273 
L 11.536364 57.145455 
L 11.536364 55.223636 
L 11.536364 53.301818 
L 11.536364 51.38 
L 11.536364 49.458182 
L 11.536364 47.536364 
L 11.536364 45.614545 
L 11.536364 43.692727 
L 11.536364 41.770909 
L 11.536364 39.849091 
L 11.536364 37.927273 
L 11.536364 36.005455 
L 11.536364 34.083636 
L 11.536364 32.161818 
L 11.536364 30.24 
" style="fill:none;stroke:#a9a9a9;stroke-dasharray:9.6,2.4,1.5,2.4;stroke-dashoffset:0;stroke-width:1.5;"/>
   </g>
   <g id="patch_3">
    <path d="M 9 220.5 
L 9 30.24 
" style="fill:none;stroke:#000000;stroke-linecap:square;stroke-linejoin:miter;stroke-width:0.8;"/>
   </g>
   <g id="legend_1">
    <g id="patch_4">
     <path d="M 16 94.82125 
L 87.464063 94.82125 
Q 89.464063 94.82125 89.464063 92.82125 
L 89.464063 37.24 
Q 89.464063 35.24 87.464063 35.24 
L 16 35.24 
Q 14 35.24 14 37.24 
L 14 92.82125 
Q 14 94.82125 16 94.82125 
z
" style="fill:#ffffff;opacity:0.8;stroke:#cccccc;stroke-linejoin:miter;"/>
    </g>
    <g id="line2d_7">
     <path d="M 18 42.897813 
L 38 42.897813 
" style="fill:none;stroke:#000000;stroke-linecap:square;stroke-width:1.5;"/>
    </g>
    <g id="line2d_8"/>
    <g id="text_1">
     <!-- 2.0-3.7 ft -->
     <g transform="translate(46 46.397813)scale(0.1 -0.1)">
      <defs>
       <path d="M 50.34375 8.453125 
L 50.34375 0 
L 3.03125 0 
Q 2.9375 3.171875 4.046875 6.109375 
Q 5.859375 10.9375 9.828125 15.625 
Q 13.8125 20.3125 21.34375 26.46875 
Q 33.015625 36.03125 37.109375 41.625 
Q 41.21875 47.21875 41.21875 52.203125 
Q 41.21875 57.421875 37.46875 61 
Q 33.734375 64.59375 27.734375 64.59375 
Q 21.390625 64.59375 17.578125 60.78125 
Q 13.765625 56.984375 13.71875 50.25 
L 4.6875 51.171875 
Q 5.609375 61.28125 11.65625 66.578125 
Q 17.71875 71.875 27.9375 71.875 
Q 38.234375 71.875 44.234375 66.15625 
Q 50.25 60.453125 50.25 52 
Q 50.25 47.703125 48.484375 43.546875 
Q 46.734375 39.40625 42.65625 34.8125 
Q 38.578125 30.21875 29.109375 22.21875 
Q 21.1875 15.578125 18.9375 13.203125 
Q 16.703125 10.84375 15.234375 8.453125 
z
" id="ArialMT-50"/>
       <path d="M 9.078125 0 
L 9.078125 10.015625 
L 19.09375 10.015625 
L 19.09375 0 
z
" id="ArialMT-46"/>
       <path d="M 4.15625 35.296875 
Q 4.15625 48 6.765625 55.734375 
Q 9.375 63.484375 14.515625 67.671875 
Q 19.671875 71.875 27.484375 71.875 
Q 33.25 71.875 37.59375 69.546875 
Q 41.9375 67.234375 44.765625 62.859375 
Q 47.609375 58.5 49.21875 52.21875 
Q 50.828125 45.953125 50.828125 35.296875 
Q 50.828125 22.703125 48.234375 14.96875 
Q 45.65625 7.234375 40.5 3 
Q 35.359375 -1.21875 27.484375 -1.21875 
Q 17.140625 -1.21875 11.234375 6.203125 
Q 4.15625 15.140625 4.15625 35.296875 
z
M 13.1875 35.296875 
Q 13.1875 17.671875 17.3125 11.828125 
Q 21.4375 6 27.484375 6 
Q 33.546875 6 37.671875 11.859375 
Q 41.796875 17.71875 41.796875 35.296875 
Q 41.796875 52.984375 37.671875 58.78125 
Q 33.546875 64.59375 27.390625 64.59375 
Q 21.34375 64.59375 17.71875 59.46875 
Q 13.1875 52.9375 13.1875 35.296875 
z
" id="ArialMT-48"/>
       <path d="M 3.171875 21.484375 
L 3.171875 30.328125 
L 30.171875 30.328125 
L 30.171875 21.484375 
z
" id="ArialMT-45"/>
       <path d="M 4.203125 18.890625 
L 12.984375 20.0625 
Q 14.5 12.59375 18.140625 9.296875 
Q 21.78125 6 27 6 
Q 33.203125 6 37.46875 10.296875 
Q 41.75 14.59375 41.75 20.953125 
Q 41.75 27 37.796875 30.921875 
Q 33.84375 34.859375 27.734375 34.859375 
Q 25.25 34.859375 21.53125 33.890625 
L 22.515625 41.609375 
Q 23.390625 41.5 23.921875 41.5 
Q 29.546875 41.5 34.03125 44.421875 
Q 38.53125 47.359375 38.53125 53.46875 
Q 38.53125 58.296875 35.25 61.46875 
Q 31.984375 64.65625 26.8125 64.65625 
Q 21.6875 64.65625 18.265625 61.421875 
Q 14.84375 58.203125 13.875 51.765625 
L 5.078125 53.328125 
Q 6.6875 62.15625 12.390625 67.015625 
Q 18.109375 71.875 26.609375 71.875 
Q 32.46875 71.875 37.390625 69.359375 
Q 42.328125 66.84375 44.9375 62.5 
Q 47.5625 58.15625 47.5625 53.265625 
Q 47.5625 48.640625 45.0625 44.828125 
Q 42.578125 41.015625 37.703125 38.765625 
Q 44.046875 37.3125 47.5625 32.6875 
Q 51.078125 28.078125 51.078125 21.140625 
Q 51.078125 11.765625 44.234375 5.25 
Q 37.40625 -1.265625 26.953125 -1.265625 
Q 17.53125 -1.265625 11.296875 4.34375 
Q 5.078125 9.96875 4.203125 18.890625 
z
" id="ArialMT-51"/>
       <path d="M 4.734375 62.203125 
L 4.734375 70.65625 
L 51.078125 70.65625 
L 51.078125 63.8125 
Q 44.234375 56.546875 37.515625 44.484375 
Q 30.8125 32.421875 27.15625 19.671875 
Q 24.515625 10.6875 23.78125 0 
L 14.75 0 
Q 14.890625 8.453125 18.0625 20.40625 
Q 21.234375 32.375 27.171875 43.484375 
Q 33.109375 54.59375 39.796875 62.203125 
z
" id="ArialMT-55"/>
       <path id="ArialMT-32"/>
       <path d="M 8.6875 0 
L 8.6875 45.015625 
L 0.921875 45.015625 
L 0.921875 51.859375 
L 8.6875 51.859375 
L 8.6875 57.375 
Q 8.6875 62.59375 9.625 65.140625 
Q 10.890625 68.5625 14.078125 70.671875 
Q 17.28125 72.796875 23.046875 72.796875 
Q 26.765625 72.796875 31.25 71.921875 
L 29.9375 64.265625 
Q 27.203125 64.75 24.75 64.75 
Q 20.75 64.75 19.09375 63.03125 
Q 17.4375 61.328125 17.4375 56.640625 
L 17.4375 51.859375 
L 27.546875 51.859375 
L 27.546875 45.015625 
L 17.4375 45.015625 
L 17.4375 0 
z
" id="ArialMT-102"/>
       <path d="M 25.78125 7.859375 
L 27.046875 0.09375 
Q 23.34375 -0.6875 20.40625 -0.6875 
Q 15.625 -0.6875 12.984375 0.828125 
Q 10.359375 2.34375 9.28125 4.8125 
Q 8.203125 7.28125 8.203125 15.1875 
L 8.203125 45.015625 
L 1.765625 45.015625 
L 1.765625 51.859375 
L 8.203125 51.859375 
L 8.203125 64.703125 
L 16.9375 69.96875 
L 16.9375 51.859375 
L 25.78125 51.859375 
L 25.78125 45.015625 
L 16.9375 45.015625 
L 16.9375 14.703125 
Q 16.9375 10.9375 17.40625 9.859375 
Q 17.875 8.796875 18.921875 8.15625 
Q 19.96875 7.515625 21.921875 7.515625 
Q 23.390625 7.515625 25.78125 7.859375 
z
" id="ArialMT-116"/>
      </defs>
      <use xlink:href="#ArialMT-50"/>
      <use x="55.615234" xlink:href="#ArialMT-46"/>
      <use x="83.398438" xlink:href="#ArialMT-48"/>
      <use x="139.013672" xlink:href="#ArialMT-45"/>
      <use x="172.314453" xlink:href="#ArialMT-51"/>
      <use x="227.929688" xlink:href="#ArialMT-46"/>
      <use x="255.712891" xlink:href="#ArialMT-55"/>
      <use x="311.328125" xlink:href="#ArialMT-32"/>
      <use x="339.111328" xlink:href="#ArialMT-102"/>
      <use x="366.894531" xlink:href="#ArialMT-116"/>
     </g>
    </g>
    <g id="line2d_9">
     <path d="M 18 57.043125 
L 38 57.043125 
" style="fill:none;stroke:#808080;stroke-dasharray:5.55,2.4;stroke-dashoffset:0;stroke-width:1.5;"/>
    </g>
    <g id="line2d_10"/>
    <g id="text_2">
     <!-- 3.7-4.1 ft -->
     <g transform="translate(46 60.543125)scale(0.1 -0.1)">
      <defs>
       <path d="M 32.328125 0 
L 32.328125 17.140625 
L 1.265625 17.140625 
L 1.265625 25.203125 
L 33.9375 71.578125 
L 41.109375 71.578125 
L 41.109375 25.203125 
L 50.78125 25.203125 
L 50.78125 17.140625 
L 41.109375 17.140625 
L 41.109375 0 
z
M 32.328125 25.203125 
L 32.328125 57.46875 
L 9.90625 25.203125 
z
" id="ArialMT-52"/>
       <path d="M 37.25 0 
L 28.46875 0 
L 28.46875 56 
Q 25.296875 52.984375 20.140625 49.953125 
Q 14.984375 46.921875 10.890625 45.40625 
L 10.890625 53.90625 
Q 18.265625 57.375 23.78125 62.296875 
Q 29.296875 67.234375 31.59375 71.875 
L 37.25 71.875 
z
" id="ArialMT-49"/>
      </defs>
      <use xlink:href="#ArialMT-51"/>
      <use x="55.615234" xlink:href="#ArialMT-46"/>
      <use x="83.398438" xlink:href="#ArialMT-55"/>
      <use x="139.013672" xlink:href="#ArialMT-45"/>
      <use x="172.314453" xlink:href="#ArialMT-52"/>
      <use x="227.929688" xlink:href="#ArialMT-46"/>
      <use x="255.712891" xlink:href="#ArialMT-49"/>
      <use x="311.328125" xlink:href="#ArialMT-32"/>
      <use x="339.111328" xlink:href="#ArialMT-102"/>
      <use x="366.894531" xlink:href="#ArialMT-116"/>
     </g>
    </g>
    <g id="line2d_11">
     <path d="M 18 71.188438 
L 38 71.188438 
" style="fill:none;stroke:#d3d3d3;stroke-dasharray:1.5,2.475;stroke-dashoffset:0;stroke-width:1.5;"/>
    </g>
    <g id="line2d_12"/>
    <g id="text_3">
     <!-- 4.1-4.6 ft -->
     <g transform="translate(46 74.688438)scale(0.1 -0.1)">
      <defs>
       <path d="M 49.75 54.046875 
L 41.015625 53.375 
Q 39.84375 58.546875 37.703125 60.890625 
Q 34.125 64.65625 28.90625 64.65625 
Q 24.703125 64.65625 21.53125 62.3125 
Q 17.390625 59.28125 14.984375 53.46875 
Q 12.59375 47.65625 12.5 36.921875 
Q 15.671875 41.75 20.265625 44.09375 
Q 24.859375 46.4375 29.890625 46.4375 
Q 38.671875 46.4375 44.84375 39.96875 
Q 51.03125 33.5 51.03125 23.25 
Q 51.03125 16.5 48.125 10.71875 
Q 45.21875 4.9375 40.140625 1.859375 
Q 35.0625 -1.21875 28.609375 -1.21875 
Q 17.625 -1.21875 10.6875 6.859375 
Q 3.765625 14.9375 3.765625 33.5 
Q 3.765625 54.25 11.421875 63.671875 
Q 18.109375 71.875 29.4375 71.875 
Q 37.890625 71.875 43.28125 67.140625 
Q 48.6875 62.40625 49.75 54.046875 
z
M 13.875 23.1875 
Q 13.875 18.65625 15.796875 14.5 
Q 17.71875 10.359375 21.1875 8.171875 
Q 24.65625 6 28.46875 6 
Q 34.03125 6 38.03125 10.484375 
Q 42.046875 14.984375 42.046875 22.703125 
Q 42.046875 30.125 38.078125 34.390625 
Q 34.125 38.671875 28.125 38.671875 
Q 22.171875 38.671875 18.015625 34.390625 
Q 13.875 30.125 13.875 23.1875 
z
" id="ArialMT-54"/>
      </defs>
      <use xlink:href="#ArialMT-52"/>
      <use x="55.615234" xlink:href="#ArialMT-46"/>
      <use x="83.398438" xlink:href="#ArialMT-49"/>
      <use x="139.013672" xlink:href="#ArialMT-45"/>
      <use x="172.314453" xlink:href="#ArialMT-52"/>
      <use x="227.929688" xlink:href="#ArialMT-46"/>
      <use x="255.712891" xlink:href="#ArialMT-54"/>
      <use x="311.328125" xlink:href="#ArialMT-32"/>
      <use x="339.111328" xlink:href="#ArialMT-102"/>
      <use x="366.894531" xlink:href="#ArialMT-116"/>
     </g>
    </g>
    <g id="line2d_13">
     <path d="M 18 85.33375 
L 38 85.33375 
" style="fill:none;stroke:#a9a9a9;stroke-dasharray:9.6,2.4,1.5,2.4;stroke-dashoffset:0;stroke-width:1.5;"/>
    </g>
    <g id="line2d_14"/>
    <g id="text_4">
     <!-- 4.6-6.3 ft -->
     <g transform="translate(46 88.83375)scale(0.1 -0.1)">
      <use xlink:href="#ArialMT-52"/>
      <use x="55.615234" xlink:href="#ArialMT-46"/>
      <use x="83.398438" xlink:href="#ArialMT-54"/>
      <use x="139.013672" xlink:href="#ArialMT-45"/>
      <use x="172.314453" xlink:href="#ArialMT-54"/>
      <use x="227.929688" xlink:href="#ArialMT-46"/>
      <use x="255.712891" xlink:href="#ArialMT-51"/>
      <use x="311.328125" xlink:href="#ArialMT-32"/>
      <use x="339.111328" xlink:href="#ArialMT-102"/>
      <use x="366.894531" xlink:href="#ArialMT-116"/>
     </g>
    </g>
   </g>
  </g>
 </g>
 <defs>
  <clipPath id="pdc0eb5d7c5">
   <rect height="190.26" width="55.8" x="9" y="30.24"/>
  </clipPath>
 </defs>
</svg>
