<?xml version="1.0" encoding="utf-8" standalone="no"?>
<!DOCTYPE svg PUBLIC "-//W3C//DTD SVG 1.1//EN"
  "http://www.w3.org/Graphics/SVG/1.1/DTD/svg11.dtd">
<!-- Created with matplotlib (https://matplotlib.org/) -->
<svg height="252pt" version="1.1" viewBox="0 0 72 252" width="72pt" xmlns="http://www.w3.org/2000/svg" xmlns:xlink="http://www.w3.org/1999/xlink">
 <metadata>
  <rdf:RDF xmlns:cc="http://creativecommons.org/ns#" xmlns:dc="http://purl.org/dc/elements/1.1/" xmlns:rdf="http://www.w3.org/1999/02/22-rdf-syntax-ns#">
   <cc:Work>
    <dc:type rdf:resource="http://purl.org/dc/dcmitype/StillImage"/>
    <dc:date>2022-06-01T11:09:59.153584</dc:date>
    <dc:format>image/svg+xml</dc:format>
    <dc:creator>
     <cc:Agent>
      <dc:title>Matplotlib v3.3.4, https://matplotlib.org/</dc:title>
     </cc:Agent>
    </dc:creator>
   </cc:Work>
  </rdf:RDF>
 </metadata>
 <defs>
  <style type="text/css">*{stroke-linecap:butt;stroke-linejoin:round;}</style>
 </defs>
 <g id="figure_1">
  <g id="patch_1">
   <path d="M 0 252 
L 72 252 
L 72 0 
L 0 0 
z
" style="fill:none;"/>
  </g>
  <g id="axes_1">
   <g id="patch_2">
    <path d="M 9 220.5 
L 64.8 220.5 
L 64.8 30.24 
L 9 30.24 
z
" style="fill:#ffffff;"/>
   </g>
   <g id="matplotlib.axis_1">
    <g id="ytick_1">
     <g id="line2d_1">
      <defs>
       <path d="M 0 0 
L -3.5 0 
" id="mb872df4d90" style="stroke:#000000;stroke-width:0.8;"/>
      </defs>
      <g>
       <use style="stroke:#000000;stroke-width:0.8;" x="9" xlink:href="#mb872df4d90" y="211.851818"/>
      </g>
     </g>
     <g id="text_1">
      <!-- −100 -->
      <g transform="translate(-16.01875 214.714943)scale(0.08 -0.08)">
       <defs>
        <path d="M 52.828125 31.203125 
L 5.5625 31.203125 
L 5.5625 39.40625 
L 52.828125 39.40625 
z
" id="ArialMT-8722"/>
        <path d="M 37.25 0 
L 28.46875 0 
L 28.46875 56 
Q 25.296875 52.984375 20.140625 49.953125 
Q 14.984375 46.921875 10.890625 45.40625 
L 10.890625 53.90625 
Q 18.265625 57.375 23.78125 62.296875 
Q 29.296875 67.234375 31.59375 71.875 
L 37.25 71.875 
z
" id="ArialMT-49"/>
        <path d="M 4.15625 35.296875 
Q 4.15625 48 6.765625 55.734375 
Q 9.375 63.484375 14.515625 67.671875 
Q 19.671875 71.875 27.484375 71.875 
Q 33.25 71.875 37.59375 69.546875 
Q 41.9375 67.234375 44.765625 62.859375 
Q 47.609375 58.5 49.21875 52.21875 
Q 50.828125 45.953125 50.828125 35.296875 
Q 50.828125 22.703125 48.234375 14.96875 
Q 45.65625 7.234375 40.5 3 
Q 35.359375 -1.21875 27.484375 -1.21875 
Q 17.140625 -1.21875 11.234375 6.203125 
Q 4.15625 15.140625 4.15625 35.296875 
z
M 13.1875 35.296875 
Q 13.1875 17.671875 17.3125 11.828125 
Q 21.4375 6 27.484375 6 
Q 33.546875 6 37.671875 11.859375 
Q 41.796875 17.71875 41.796875 35.296875 
Q 41.796875 52.984375 37.671875 58.78125 
Q 33.546875 64.59375 27.390625 64.59375 
Q 21.34375 64.59375 17.71875 59.46875 
Q 13.1875 52.9375 13.1875 35.296875 
z
" id="ArialMT-48"/>
       </defs>
       <use xlink:href="#ArialMT-8722"/>
       <use x="58.398438" xlink:href="#ArialMT-49"/>
       <use x="114.013672" xlink:href="#ArialMT-48"/>
       <use x="169.628906" xlink:href="#ArialMT-48"/>
      </g>
     </g>
    </g>
    <g id="ytick_2">
     <g id="line2d_2">
      <g>
       <use style="stroke:#000000;stroke-width:0.8;" x="9" xlink:href="#mb872df4d90" y="190.231364"/>
      </g>
     </g>
     <g id="text_2">
      <!-- −75 -->
      <g transform="translate(-11.57 193.094489)scale(0.08 -0.08)">
       <defs>
        <path d="M 4.734375 62.203125 
L 4.734375 70.65625 
L 51.078125 70.65625 
L 51.078125 63.8125 
Q 44.234375 56.546875 37.515625 44.484375 
Q 30.8125 32.421875 27.15625 19.671875 
Q 24.515625 10.6875 23.78125 0 
L 14.75 0 
Q 14.890625 8.453125 18.0625 20.40625 
Q 21.234375 32.375 27.171875 43.484375 
Q 33.109375 54.59375 39.796875 62.203125 
z
" id="ArialMT-55"/>
        <path d="M 4.15625 18.75 
L 13.375 19.53125 
Q 14.40625 12.796875 18.140625 9.390625 
Q 21.875 6 27.15625 6 
Q 33.5 6 37.890625 10.78125 
Q 42.28125 15.578125 42.28125 23.484375 
Q 42.28125 31 38.0625 35.34375 
Q 33.84375 39.703125 27 39.703125 
Q 22.75 39.703125 19.328125 37.765625 
Q 15.921875 35.84375 13.96875 32.765625 
L 5.71875 33.84375 
L 12.640625 70.609375 
L 48.25 70.609375 
L 48.25 62.203125 
L 19.671875 62.203125 
L 15.828125 42.96875 
Q 22.265625 47.46875 29.34375 47.46875 
Q 38.71875 47.46875 45.15625 40.96875 
Q 51.609375 34.46875 51.609375 24.265625 
Q 51.609375 14.546875 45.953125 7.46875 
Q 39.0625 -1.21875 27.15625 -1.21875 
Q 17.390625 -1.21875 11.203125 4.25 
Q 5.03125 9.71875 4.15625 18.75 
z
" id="ArialMT-53"/>
       </defs>
       <use xlink:href="#ArialMT-8722"/>
       <use x="58.398438" xlink:href="#ArialMT-55"/>
       <use x="114.013672" xlink:href="#ArialMT-53"/>
      </g>
     </g>
    </g>
    <g id="ytick_3">
     <g id="line2d_3">
      <g>
       <use style="stroke:#000000;stroke-width:0.8;" x="9" xlink:href="#mb872df4d90" y="168.610909"/>
      </g>
     </g>
     <g id="text_3">
      <!-- −50 -->
      <g transform="translate(-11.57 171.474034)scale(0.08 -0.08)">
       <use xlink:href="#ArialMT-8722"/>
       <use x="58.398438" xlink:href="#ArialMT-53"/>
       <use x="114.013672" xlink:href="#ArialMT-48"/>
      </g>
     </g>
    </g>
    <g id="ytick_4">
     <g id="line2d_4">
      <g>
       <use style="stroke:#000000;stroke-width:0.8;" x="9" xlink:href="#mb872df4d90" y="146.990455"/>
      </g>
     </g>
     <g id="text_4">
      <!-- −25 -->
      <g transform="translate(-11.57 149.85358)scale(0.08 -0.08)">
       <defs>
        <path d="M 50.34375 8.453125 
L 50.34375 0 
L 3.03125 0 
Q 2.9375 3.171875 4.046875 6.109375 
Q 5.859375 10.9375 9.828125 15.625 
Q 13.8125 20.3125 21.34375 26.46875 
Q 33.015625 36.03125 37.109375 41.625 
Q 41.21875 47.21875 41.21875 52.203125 
Q 41.21875 57.421875 37.46875 61 
Q 33.734375 64.59375 27.734375 64.59375 
Q 21.390625 64.59375 17.578125 60.78125 
Q 13.765625 56.984375 13.71875 50.25 
L 4.6875 51.171875 
Q 5.609375 61.28125 11.65625 66.578125 
Q 17.71875 71.875 27.9375 71.875 
Q 38.234375 71.875 44.234375 66.15625 
Q 50.25 60.453125 50.25 52 
Q 50.25 47.703125 48.484375 43.546875 
Q 46.734375 39.40625 42.65625 34.8125 
Q 38.578125 30.21875 29.109375 22.21875 
Q 21.1875 15.578125 18.9375 13.203125 
Q 16.703125 10.84375 15.234375 8.453125 
z
" id="ArialMT-50"/>
       </defs>
       <use xlink:href="#ArialMT-8722"/>
       <use x="58.398438" xlink:href="#ArialMT-50"/>
       <use x="114.013672" xlink:href="#ArialMT-53"/>
      </g>
     </g>
    </g>
    <g id="ytick_5">
     <g id="line2d_5">
      <g>
       <use style="stroke:#000000;stroke-width:0.8;" x="9" xlink:href="#mb872df4d90" y="125.37"/>
      </g>
     </g>
     <g id="text_5">
      <!-- 0 -->
      <g transform="translate(-2.44875 128.233125)scale(0.08 -0.08)">
       <use xlink:href="#ArialMT-48"/>
      </g>
     </g>
    </g>
    <g id="ytick_6">
     <g id="line2d_6">
      <g>
       <use style="stroke:#000000;stroke-width:0.8;" x="9" xlink:href="#mb872df4d90" y="103.749545"/>
      </g>
     </g>
     <g id="text_6">
      <!-- 25 -->
      <g transform="translate(-6.8975 106.61267)scale(0.08 -0.08)">
       <use xlink:href="#ArialMT-50"/>
       <use x="55.615234" xlink:href="#ArialMT-53"/>
      </g>
     </g>
    </g>
    <g id="ytick_7">
     <g id="line2d_7">
      <g>
       <use style="stroke:#000000;stroke-width:0.8;" x="9" xlink:href="#mb872df4d90" y="82.129091"/>
      </g>
     </g>
     <g id="text_7">
      <!-- 50 -->
      <g transform="translate(-6.8975 84.992216)scale(0.08 -0.08)">
       <use xlink:href="#ArialMT-53"/>
       <use x="55.615234" xlink:href="#ArialMT-48"/>
      </g>
     </g>
    </g>
    <g id="ytick_8">
     <g id="line2d_8">
      <g>
       <use style="stroke:#000000;stroke-width:0.8;" x="9" xlink:href="#mb872df4d90" y="60.508636"/>
      </g>
     </g>
     <g id="text_8">
      <!-- 75 -->
      <g transform="translate(-6.8975 63.371761)scale(0.08 -0.08)">
       <use xlink:href="#ArialMT-55"/>
       <use x="55.615234" xlink:href="#ArialMT-53"/>
      </g>
     </g>
    </g>
    <g id="ytick_9">
     <g id="line2d_9">
      <g>
       <use style="stroke:#000000;stroke-width:0.8;" x="9" xlink:href="#mb872df4d90" y="38.888182"/>
      </g>
     </g>
     <g id="text_9">
      <!-- 100 -->
      <g transform="translate(-11.34625 41.751307)scale(0.08 -0.08)">
       <use xlink:href="#ArialMT-49"/>
       <use x="55.615234" xlink:href="#ArialMT-48"/>
       <use x="111.230469" xlink:href="#ArialMT-48"/>
      </g>
     </g>
    </g>
    <g id="text_10">
     <!-- Degrees -->
     <g transform="translate(-21.7025 140.488125)rotate(-90)scale(0.08 -0.08)">
      <defs>
       <path d="M 7.71875 0 
L 7.71875 71.578125 
L 32.375 71.578125 
Q 40.71875 71.578125 45.125 70.5625 
Q 51.265625 69.140625 55.609375 65.4375 
Q 61.28125 60.640625 64.078125 53.1875 
Q 66.890625 45.75 66.890625 36.1875 
Q 66.890625 28.03125 64.984375 21.734375 
Q 63.09375 15.4375 60.109375 11.296875 
Q 57.125 7.171875 53.578125 4.796875 
Q 50.046875 2.4375 45.046875 1.21875 
Q 40.046875 0 33.546875 0 
z
M 17.1875 8.453125 
L 32.46875 8.453125 
Q 39.546875 8.453125 43.578125 9.765625 
Q 47.609375 11.078125 50 13.484375 
Q 53.375 16.84375 55.25 22.53125 
Q 57.125 28.21875 57.125 36.328125 
Q 57.125 47.5625 53.4375 53.59375 
Q 49.75 59.625 44.484375 61.671875 
Q 40.671875 63.140625 32.234375 63.140625 
L 17.1875 63.140625 
z
" id="ArialMT-68"/>
       <path d="M 42.09375 16.703125 
L 51.171875 15.578125 
Q 49.03125 7.625 43.21875 3.21875 
Q 37.40625 -1.171875 28.375 -1.171875 
Q 17 -1.171875 10.328125 5.828125 
Q 3.65625 12.84375 3.65625 25.484375 
Q 3.65625 38.578125 10.390625 45.796875 
Q 17.140625 53.03125 27.875 53.03125 
Q 38.28125 53.03125 44.875 45.953125 
Q 51.46875 38.875 51.46875 26.03125 
Q 51.46875 25.25 51.421875 23.6875 
L 12.75 23.6875 
Q 13.234375 15.140625 17.578125 10.59375 
Q 21.921875 6.0625 28.421875 6.0625 
Q 33.25 6.0625 36.671875 8.59375 
Q 40.09375 11.140625 42.09375 16.703125 
z
M 13.234375 30.90625 
L 42.1875 30.90625 
Q 41.609375 37.453125 38.875 40.71875 
Q 34.671875 45.796875 27.984375 45.796875 
Q 21.921875 45.796875 17.796875 41.75 
Q 13.671875 37.703125 13.234375 30.90625 
z
" id="ArialMT-101"/>
       <path d="M 4.984375 -4.296875 
L 13.53125 -5.5625 
Q 14.0625 -9.515625 16.5 -11.328125 
Q 19.78125 -13.765625 25.4375 -13.765625 
Q 31.546875 -13.765625 34.859375 -11.328125 
Q 38.1875 -8.890625 39.359375 -4.5 
Q 40.046875 -1.8125 39.984375 6.78125 
Q 34.234375 0 25.640625 0 
Q 14.9375 0 9.078125 7.71875 
Q 3.21875 15.4375 3.21875 26.21875 
Q 3.21875 33.640625 5.90625 39.90625 
Q 8.59375 46.1875 13.6875 49.609375 
Q 18.796875 53.03125 25.6875 53.03125 
Q 34.859375 53.03125 40.828125 45.609375 
L 40.828125 51.859375 
L 48.921875 51.859375 
L 48.921875 7.03125 
Q 48.921875 -5.078125 46.453125 -10.125 
Q 44 -15.1875 38.640625 -18.109375 
Q 33.296875 -21.046875 25.484375 -21.046875 
Q 16.21875 -21.046875 10.5 -16.875 
Q 4.78125 -12.703125 4.984375 -4.296875 
z
M 12.25 26.859375 
Q 12.25 16.65625 16.296875 11.96875 
Q 20.359375 7.28125 26.46875 7.28125 
Q 32.515625 7.28125 36.609375 11.9375 
Q 40.71875 16.609375 40.71875 26.5625 
Q 40.71875 36.078125 36.5 40.90625 
Q 32.28125 45.75 26.3125 45.75 
Q 20.453125 45.75 16.34375 40.984375 
Q 12.25 36.234375 12.25 26.859375 
z
" id="ArialMT-103"/>
       <path d="M 6.5 0 
L 6.5 51.859375 
L 14.40625 51.859375 
L 14.40625 44 
Q 17.4375 49.515625 20 51.265625 
Q 22.5625 53.03125 25.640625 53.03125 
Q 30.078125 53.03125 34.671875 50.203125 
L 31.640625 42.046875 
Q 28.421875 43.953125 25.203125 43.953125 
Q 22.3125 43.953125 20.015625 42.21875 
Q 17.71875 40.484375 16.75 37.40625 
Q 15.28125 32.71875 15.28125 27.15625 
L 15.28125 0 
z
" id="ArialMT-114"/>
       <path d="M 3.078125 15.484375 
L 11.765625 16.84375 
Q 12.5 11.625 15.84375 8.84375 
Q 19.1875 6.0625 25.203125 6.0625 
Q 31.25 6.0625 34.171875 8.515625 
Q 37.109375 10.984375 37.109375 14.3125 
Q 37.109375 17.28125 34.515625 19 
Q 32.71875 20.171875 25.53125 21.96875 
Q 15.875 24.421875 12.140625 26.203125 
Q 8.40625 27.984375 6.46875 31.125 
Q 4.546875 34.28125 4.546875 38.09375 
Q 4.546875 41.546875 6.125 44.5 
Q 7.71875 47.46875 10.453125 49.421875 
Q 12.5 50.921875 16.03125 51.96875 
Q 19.578125 53.03125 23.640625 53.03125 
Q 29.734375 53.03125 34.34375 51.265625 
Q 38.96875 49.515625 41.15625 46.5 
Q 43.359375 43.5 44.1875 38.484375 
L 35.59375 37.3125 
Q 35.015625 41.3125 32.203125 43.546875 
Q 29.390625 45.796875 24.265625 45.796875 
Q 18.21875 45.796875 15.625 43.796875 
Q 13.03125 41.796875 13.03125 39.109375 
Q 13.03125 37.40625 14.109375 36.03125 
Q 15.1875 34.625 17.484375 33.6875 
Q 18.796875 33.203125 25.25 31.453125 
Q 34.578125 28.953125 38.25 27.359375 
Q 41.9375 25.78125 44.03125 22.75 
Q 46.140625 19.734375 46.140625 15.234375 
Q 46.140625 10.84375 43.578125 6.953125 
Q 41.015625 3.078125 36.171875 0.953125 
Q 31.34375 -1.171875 25.25 -1.171875 
Q 15.140625 -1.171875 9.84375 3.03125 
Q 4.546875 7.234375 3.078125 15.484375 
z
" id="ArialMT-115"/>
      </defs>
      <use xlink:href="#ArialMT-68"/>
      <use x="72.216797" xlink:href="#ArialMT-101"/>
      <use x="127.832031" xlink:href="#ArialMT-103"/>
      <use x="183.447266" xlink:href="#ArialMT-114"/>
      <use x="216.748047" xlink:href="#ArialMT-101"/>
      <use x="272.363281" xlink:href="#ArialMT-101"/>
      <use x="327.978516" xlink:href="#ArialMT-115"/>
     </g>
    </g>
   </g>
   <g id="line2d_10">
    <path clip-path="url(#p3651865391)" d="M 11.713531 211.851818 
L 11.755464 210.104711 
L 11.806217 208.357603 
L 11.867374 206.610496 
L 11.940739 204.863388 
L 12.028356 203.116281 
L 12.132527 201.369174 
L 12.255821 199.622066 
L 12.401089 197.874959 
L 12.571472 196.127851 
L 12.770401 194.380744 
L 13.001592 192.633636 
L 13.269041 190.886529 
L 13.577 189.139421 
L 13.929949 187.392314 
L 14.332561 185.645207 
L 14.789652 183.898099 
L 15.306119 182.150992 
L 15.886868 180.403884 
L 16.536733 178.656777 
L 17.260376 176.909669 
L 18.062184 175.162562 
L 18.94615 173.415455 
L 19.915754 171.668347 
L 20.973826 169.92124 
L 22.12242 168.174132 
L 23.362676 166.427025 
L 24.694689 164.679917 
L 26.117389 162.93281 
L 27.628426 161.185702 
L 29.224071 159.438595 
L 30.899137 157.691488 
L 32.646924 155.94438 
L 34.459191 154.197273 
L 36.326151 152.450165 
L 38.236509 150.703058 
L 40.177528 148.95595 
L 42.13513 147.208843 
L 44.094038 145.461736 
L 46.037949 143.714628 
L 47.949739 141.967521 
L 49.811703 140.220413 
L 51.605814 138.473306 
L 53.314006 136.726198 
L 54.918476 134.979091 
L 56.401984 133.231983 
L 57.748163 131.484876 
L 58.941817 129.737769 
L 59.969206 127.990661 
L 60.818307 126.243554 
L 61.479052 124.496446 
L 61.943523 122.749339 
L 62.206113 121.002231 
L 62.263636 119.255124 
L 62.115393 117.508017 
L 61.763185 115.760909 
L 61.211276 114.013802 
L 60.466312 112.266694 
L 59.537179 110.519587 
L 58.434837 108.772479 
L 57.172094 107.025372 
L 55.763369 105.278264 
L 54.22441 103.531157 
L 52.572007 101.78405 
L 50.823687 100.036942 
L 48.997405 98.289835 
L 47.111245 96.542727 
L 45.183128 94.79562 
L 43.230532 93.048512 
L 41.270246 91.301405 
L 39.318146 89.554298 
L 37.388997 87.80719 
L 35.496302 86.060083 
L 33.652171 84.312975 
L 31.86724 82.565868 
L 30.150617 80.81876 
L 28.50986 79.071653 
L 26.950997 77.324545 
L 25.478563 75.577438 
L 24.095667 73.830331 
L 22.804082 72.083223 
L 21.604348 70.336116 
L 20.495895 68.589008 
L 19.477161 66.841901 
L 18.545736 65.094793 
L 17.698484 63.347686 
L 16.931685 61.600579 
L 16.241156 59.853471 
L 15.622376 58.106364 
L 15.070593 56.359256 
L 14.580932 54.612149 
L 14.14848 52.865041 
L 13.768368 51.117934 
L 13.435837 49.370826 
L 13.146293 47.623719 
L 12.895352 45.876612 
L 12.678873 44.129504 
L 12.492982 42.382397 
L 12.334086 40.635289 
L 12.198884 38.888182 
" style="fill:none;stroke:#0173b2;stroke-linecap:square;stroke-width:1.5;"/>
   </g>
   <g id="line2d_11">
    <path clip-path="url(#p3651865391)" d="M 0 0 
" style="fill:none;stroke:#de8f05;stroke-linecap:square;stroke-width:1.5;"/>
   </g>
   <g id="line2d_12">
    <path clip-path="url(#p3651865391)" d="M 11.536364 211.851818 
L 11.53641 210.104711 
L 11.536476 208.357603 
L 11.536569 206.610496 
L 11.536698 204.863388 
L 11.536877 203.116281 
L 11.537124 201.369174 
L 11.537461 199.622066 
L 11.53792 197.874959 
L 11.53854 196.127851 
L 11.539373 194.380744 
L 11.540486 192.633636 
L 11.541962 190.886529 
L 11.543907 189.139421 
L 11.546457 187.392314 
L 11.549776 185.645207 
L 11.55407 183.898099 
L 11.55959 182.150992 
L 11.566642 180.403884 
L 11.575593 178.656777 
L 11.586882 176.909669 
L 11.601028 175.162562 
L 11.618641 173.415455 
L 11.64043 171.668347 
L 11.667208 169.92124 
L 11.699903 168.174132 
L 11.739563 166.427025 
L 11.787352 164.679917 
L 11.844556 162.93281 
L 11.91257 161.185702 
L 11.992895 159.438595 
L 12.087116 157.691488 
L 12.196879 155.94438 
L 12.323865 154.197273 
L 12.469753 152.450165 
L 12.636173 150.703058 
L 12.824659 148.95595 
L 13.036592 147.208843 
L 13.273137 145.461736 
L 13.535181 143.714628 
L 13.823264 141.967521 
L 14.137516 140.220413 
L 14.477593 138.473306 
L 14.842619 136.726198 
L 15.231143 134.979091 
L 15.641099 133.231983 
L 16.06979 131.484876 
L 16.513879 129.737769 
L 16.969409 127.990661 
L 17.431839 126.243554 
L 17.896099 124.496446 
L 18.356672 122.749339 
L 18.807692 121.002231 
L 19.24306 119.255124 
L 19.65658 117.508017 
L 20.042095 115.760909 
L 20.393647 114.013802 
L 20.705623 112.266694 
L 20.972902 110.519587 
L 21.191002 108.772479 
L 21.356197 107.025372 
L 21.465627 105.278264 
L 21.517379 103.531157 
L 21.510545 101.78405 
L 21.445244 100.036942 
L 21.322623 98.289835 
L 21.144821 96.542727 
L 20.914908 94.79562 
L 20.636795 93.048512 
L 20.315127 91.301405 
L 19.955151 89.554298 
L 19.562573 87.80719 
L 19.143413 86.060083 
L 18.703848 84.312975 
L 18.250065 82.565868 
L 17.788121 80.81876 
L 17.323809 79.071653 
L 16.862551 77.324545 
L 16.4093 75.577438 
L 15.968465 73.830331 
L 15.543862 72.083223 
L 15.138678 70.336116 
L 14.755464 68.589008 
L 14.39614 66.841901 
L 14.062018 65.094793 
L 13.753847 63.347686 
L 13.471854 61.600579 
L 13.21581 59.853471 
L 12.985086 58.106364 
L 12.778726 56.359256 
L 12.595507 54.612149 
L 12.434009 52.865041 
L 12.292671 51.117934 
L 12.169845 49.370826 
L 12.063851 47.623719 
L 11.973011 45.876612 
L 11.895691 44.129504 
L 11.830324 42.382397 
L 11.775433 40.635289 
L 11.729647 38.888182 
" style="fill:none;stroke:#029e73;stroke-linecap:square;stroke-width:1.5;"/>
   </g>
   <g id="line2d_13">
    <path clip-path="url(#p3651865391)" d="M 11.554398 211.851818 
L 11.559614 210.104711 
L 11.566189 208.357603 
L 11.574437 206.610496 
L 11.584729 204.863388 
L 11.59751 203.116281 
L 11.613298 201.369174 
L 11.632704 199.622066 
L 11.656435 197.874959 
L 11.685305 196.127851 
L 11.720249 194.380744 
L 11.762325 192.633636 
L 11.812726 190.886529 
L 11.872786 189.139421 
L 11.943982 187.392314 
L 12.027934 185.645207 
L 12.126405 183.898099 
L 12.241291 182.150992 
L 12.37461 180.403884 
L 12.528488 178.656777 
L 12.705127 176.909669 
L 12.906786 175.162562 
L 13.135736 173.415455 
L 13.394219 171.668347 
L 13.684402 169.92124 
L 14.008313 168.174132 
L 14.367788 166.427025 
L 14.764399 164.679917 
L 15.199386 162.93281 
L 15.673584 161.185702 
L 16.187359 159.438595 
L 16.740529 157.691488 
L 17.33231 155.94438 
L 17.961254 154.197273 
L 18.625205 152.450165 
L 19.32126 150.703058 
L 20.045757 148.95595 
L 20.794265 147.208843 
L 21.5616 145.461736 
L 22.341863 143.714628 
L 23.128495 141.967521 
L 23.914347 140.220413 
L 24.691783 138.473306 
L 25.452788 136.726198 
L 26.189104 134.979091 
L 26.892368 133.231983 
L 27.554272 131.484876 
L 28.166721 129.737769 
L 28.721998 127.990661 
L 29.212923 126.243554 
L 29.633012 124.496446 
L 29.976611 122.749339 
L 30.239031 121.002231 
L 30.416649 119.255124 
L 30.506994 117.508017 
L 30.508804 115.760909 
L 30.422053 114.013802 
L 30.247953 112.266694 
L 29.988928 110.519587 
L 29.648555 108.772479 
L 29.231481 107.025372 
L 28.743323 105.278264 
L 28.190534 103.531157 
L 27.580269 101.78405 
L 26.920225 100.036942 
L 26.218486 98.289835 
L 25.483355 96.542727 
L 24.723193 94.79562 
L 23.946269 93.048512 
L 23.160607 91.301405 
L 22.373864 89.554298 
L 21.593208 87.80719 
L 20.825226 86.060083 
L 20.075844 84.312975 
L 19.350277 82.565868 
L 18.652984 80.81876 
L 17.987663 79.071653 
L 17.357244 77.324545 
L 16.763914 75.577438 
L 16.209149 73.830331 
L 15.693761 72.083223 
L 15.217952 70.336116 
L 14.78138 68.589008 
L 14.383226 66.841901 
L 14.022265 65.094793 
L 13.696938 63.347686 
L 13.405419 61.600579 
L 13.145684 59.853471 
L 12.915574 58.106364 
L 12.712846 56.359256 
L 12.535231 54.612149 
L 12.380469 52.865041 
L 12.246353 51.117934 
L 12.130755 49.370826 
L 12.031653 47.623719 
L 11.947145 45.876612 
L 11.875461 44.129504 
L 11.814977 42.382397 
L 11.764209 40.635289 
L 11.721818 38.888182 
" style="fill:none;stroke:#d55e00;stroke-linecap:square;stroke-width:1.5;"/>
   </g>
   <g id="line2d_14">
    <path clip-path="url(#p3651865391)" d="M 11.563256 211.851818 
L 11.570766 210.104711 
L 11.580168 208.357603 
L 11.591883 206.610496 
L 11.606409 204.863388 
L 11.624335 203.116281 
L 11.646348 201.369174 
L 11.673251 199.622066 
L 11.705968 197.874959 
L 11.745562 196.127851 
L 11.793243 194.380744 
L 11.850381 192.633636 
L 11.918513 190.886529 
L 11.99935 189.139421 
L 12.094783 187.392314 
L 12.206881 185.645207 
L 12.337892 183.898099 
L 12.490227 182.150992 
L 12.666454 180.403884 
L 12.869271 178.656777 
L 13.10148 176.909669 
L 13.365952 175.162562 
L 13.665585 173.415455 
L 14.003247 171.668347 
L 14.381722 169.92124 
L 14.803641 168.174132 
L 15.271409 166.427025 
L 15.787123 164.679917 
L 16.352492 162.93281 
L 16.968748 161.185702 
L 17.63656 159.438595 
L 18.355952 157.691488 
L 19.126218 155.94438 
L 19.945855 154.197273 
L 20.812497 152.450165 
L 21.722871 150.703058 
L 22.672758 148.95595 
L 23.656987 147.208843 
L 24.669437 145.461736 
L 25.703068 143.714628 
L 26.749976 141.967521 
L 27.80147 140.220413 
L 28.848176 138.473306 
L 29.88016 136.726198 
L 30.887077 134.979091 
L 31.858334 133.231983 
L 32.783271 131.484876 
L 33.651351 129.737769 
L 34.45236 127.990661 
L 35.176603 126.243554 
L 35.815099 124.496446 
L 36.359768 122.749339 
L 36.803597 121.002231 
L 37.140794 119.255124 
L 37.366912 117.508017 
L 37.478947 115.760909 
L 37.475403 114.013802 
L 37.356327 112.266694 
L 37.123309 110.519587 
L 36.779444 108.772479 
L 36.329263 107.025372 
L 35.778639 105.278264 
L 35.134652 103.531157 
L 34.405445 101.78405 
L 33.600046 100.036942 
L 32.728189 98.289835 
L 31.800112 96.542727 
L 30.826366 94.79562 
L 29.817612 93.048512 
L 28.784433 91.301405 
L 27.737154 89.554298 
L 26.685677 87.80719 
L 25.63934 86.060083 
L 24.606787 84.312975 
L 23.595871 82.565868 
L 22.613578 80.81876 
L 21.665969 79.071653 
L 20.758161 77.324545 
L 19.894311 75.577438 
L 19.077637 73.830331 
L 18.31045 72.083223 
L 17.594203 70.336116 
L 16.929553 68.589008 
L 16.316437 66.841901 
L 15.754148 65.094793 
L 15.241422 63.347686 
L 14.776524 61.600579 
L 14.357335 59.853471 
L 13.981436 58.106364 
L 13.646182 56.359256 
L 13.348785 54.612149 
L 13.08637 52.865041 
L 12.856042 51.117934 
L 12.654932 49.370826 
L 12.480244 47.623719 
L 12.329286 45.876612 
L 12.199501 44.129504 
L 12.088485 42.382397 
L 11.994003 40.635289 
L 11.913996 38.888182 
" style="fill:none;stroke:#cc78bc;stroke-linecap:square;stroke-width:1.5;"/>
   </g>
   <g id="line2d_15">
    <path clip-path="url(#p3651865391)" d="M 11.579102 211.851818 
L 11.591471 210.104711 
L 11.607027 208.357603 
L 11.626479 206.610496 
L 11.650659 204.863388 
L 11.68054 203.116281 
L 11.717247 201.369174 
L 11.762071 199.622066 
L 11.816483 197.874959 
L 11.882137 196.127851 
L 11.960876 194.380744 
L 12.054739 192.633636 
L 12.165947 190.886529 
L 12.296896 189.139421 
L 12.450138 187.392314 
L 12.628349 185.645207 
L 12.834297 183.898099 
L 13.070788 182.150992 
L 13.340614 180.403884 
L 13.646478 178.656777 
L 13.990923 176.909669 
L 14.376241 175.162562 
L 14.804379 173.415455 
L 15.276843 171.668347 
L 15.794593 169.92124 
L 16.357945 168.174132 
L 16.966475 166.427025 
L 17.618929 164.679917 
L 18.313147 162.93281 
L 19.046007 161.185702 
L 19.81338 159.438595 
L 20.610121 157.691488 
L 21.430079 155.94438 
L 22.266137 154.197273 
L 23.110286 152.450165 
L 23.95373 150.703058 
L 24.787018 148.95595 
L 25.600209 147.208843 
L 26.383057 145.461736 
L 27.125222 143.714628 
L 27.816492 141.967521 
L 28.447011 140.220413 
L 29.007517 138.473306 
L 29.489563 136.726198 
L 29.885729 134.979091 
L 30.189814 133.231983 
L 30.396995 131.484876 
L 30.503956 129.737769 
L 30.508976 127.990661 
L 30.411973 126.243554 
L 30.214509 124.496446 
L 29.919747 122.749339 
L 29.532368 121.002231 
L 29.058443 119.255124 
L 28.505281 117.508017 
L 27.881236 115.760909 
L 27.195503 114.013802 
L 26.457886 112.266694 
L 25.678574 110.519587 
L 24.867906 108.772479 
L 24.036144 107.025372 
L 23.19327 105.278264 
L 22.348789 103.531157 
L 21.511568 101.78405 
L 20.689699 100.036942 
L 19.89039 98.289835 
L 19.11989 96.542727 
L 18.383443 94.79562 
L 17.685277 93.048512 
L 17.028612 91.301405 
L 16.4157 89.554298 
L 15.847881 87.80719 
L 15.325657 86.060083 
L 14.84878 84.312975 
L 14.416349 82.565868 
L 14.026907 80.81876 
L 13.678546 79.071653 
L 13.369003 77.324545 
L 13.095758 75.577438 
L 12.856116 73.830331 
L 12.647295 72.083223 
L 12.466484 70.336116 
L 12.310911 68.589008 
L 12.177889 66.841901 
L 12.064851 65.094793 
L 11.969387 63.347686 
L 11.889256 61.600579 
L 11.822403 59.853471 
L 11.766963 58.106364 
L 11.721265 56.359256 
L 11.683821 54.612149 
L 11.653323 52.865041 
L 11.628629 51.117934 
L 11.608752 49.370826 
L 11.592846 47.623719 
L 11.580193 45.876612 
L 11.570185 44.129504 
L 11.562317 42.382397 
L 11.556165 40.635289 
L 11.551384 38.888182 
" style="fill:none;stroke:#ca9161;stroke-linecap:square;stroke-width:1.5;"/>
   </g>
   <g id="patch_3">
    <path d="M 9 220.5 
L 9 30.24 
" style="fill:none;stroke:#000000;stroke-linecap:square;stroke-linejoin:miter;stroke-width:0.8;"/>
   </g>
  </g>
 </g>
 <defs>
  <clipPath id="p3651865391">
   <rect height="190.26" width="55.8" x="9" y="30.24"/>
  </clipPath>
 </defs>
</svg>
