<?xml version="1.0" encoding="utf-8" standalone="no"?>
<!DOCTYPE svg PUBLIC "-//W3C//DTD SVG 1.1//EN"
  "http://www.w3.org/Graphics/SVG/1.1/DTD/svg11.dtd">
<!-- Created with matplotlib (https://matplotlib.org/) -->
<svg height="252pt" version="1.1" viewBox="0 0 72 252" width="72pt" xmlns="http://www.w3.org/2000/svg" xmlns:xlink="http://www.w3.org/1999/xlink">
 <metadata>
  <rdf:RDF xmlns:cc="http://creativecommons.org/ns#" xmlns:dc="http://purl.org/dc/elements/1.1/" xmlns:rdf="http://www.w3.org/1999/02/22-rdf-syntax-ns#">
   <cc:Work>
    <dc:type rdf:resource="http://purl.org/dc/dcmitype/StillImage"/>
    <dc:date>2022-06-01T11:09:57.356386</dc:date>
    <dc:format>image/svg+xml</dc:format>
    <dc:creator>
     <cc:Agent>
      <dc:title>Matplotlib v3.3.4, https://matplotlib.org/</dc:title>
     </cc:Agent>
    </dc:creator>
   </cc:Work>
  </rdf:RDF>
 </metadata>
 <defs>
  <style type="text/css">*{stroke-linecap:butt;stroke-linejoin:round;}</style>
 </defs>
 <g id="figure_1">
  <g id="patch_1">
   <path d="M 0 252 
L 72 252 
L 72 0 
L 0 0 
z
" style="fill:none;"/>
  </g>
  <g id="axes_1">
   <g id="patch_2">
    <path d="M 9 220.5 
L 64.8 220.5 
L 64.8 30.24 
L 9 30.24 
z
" style="fill:#ffffff;"/>
   </g>
   <g id="matplotlib.axis_1">
    <g id="ytick_1">
     <g id="line2d_1">
      <defs>
       <path d="M 0 0 
L -3.5 0 
" id="m51fc3fdc8a" style="stroke:#000000;stroke-width:0.8;"/>
      </defs>
      <g>
       <use style="stroke:#000000;stroke-width:0.8;" x="9" xlink:href="#m51fc3fdc8a" y="172.935"/>
      </g>
     </g>
    </g>
    <g id="ytick_2">
     <g id="line2d_2">
      <g>
       <use style="stroke:#000000;stroke-width:0.8;" x="9" xlink:href="#m51fc3fdc8a" y="77.805"/>
      </g>
     </g>
    </g>
   </g>
   <g id="line2d_3">
    <path clip-path="url(#pa772a064b4)" d="M 11.58132 220.5 
L 11.593152 218.578182 
L 11.607731 216.656364 
L 11.625606 214.734545 
L 11.647408 212.812727 
L 11.673866 210.890909 
L 11.705808 208.969091 
L 11.744175 207.047273 
L 11.790017 205.125455 
L 11.84451 203.203636 
L 11.908945 201.281818 
L 11.984738 199.36 
L 12.073419 197.438182 
L 12.176628 195.516364 
L 12.296103 193.594545 
L 12.433662 191.672727 
L 12.591183 189.750909 
L 12.770573 187.829091 
L 12.97374 185.907273 
L 13.202553 183.985455 
L 13.458792 182.063636 
L 13.74411 180.141818 
L 14.05997 178.22 
L 14.407592 176.298182 
L 14.787895 174.376364 
L 15.201436 172.454545 
L 15.648348 170.532727 
L 16.128291 168.610909 
L 16.640395 166.689091 
L 17.183218 164.767273 
L 17.754707 162.845455 
L 18.35218 160.923636 
L 18.972308 159.001818 
L 19.611122 157.08 
L 20.264029 155.158182 
L 20.925851 153.236364 
L 21.590874 151.314545 
L 22.25292 149.392727 
L 22.905431 147.470909 
L 23.541573 145.549091 
L 24.154348 143.627273 
L 24.736717 141.705455 
L 25.281735 139.783636 
L 25.782686 137.861818 
L 26.233219 135.94 
L 26.627483 134.018182 
L 26.960252 132.096364 
L 27.22704 130.174545 
L 27.424203 128.252727 
L 27.54902 126.330909 
L 27.599759 124.409091 
L 27.575711 122.487273 
L 27.477211 120.565455 
L 27.305632 118.643636 
L 27.063345 116.721818 
L 26.753675 114.8 
L 26.380817 112.878182 
L 25.949744 110.956364 
L 25.466099 109.034545 
L 24.936068 107.112727 
L 24.366254 105.190909 
L 23.763536 103.269091 
L 23.134933 101.347273 
L 22.487474 99.425455 
L 21.828065 97.503636 
L 21.163375 95.581818 
L 20.499728 93.66 
L 19.843012 91.738182 
L 19.198605 89.816364 
L 18.571312 87.894545 
L 17.96533 85.972727 
L 17.384217 84.050909 
L 16.830885 82.129091 
L 16.30761 80.207273 
L 15.816049 78.285455 
L 15.357271 76.363636 
L 14.9318 74.441818 
L 14.539666 72.52 
L 14.180457 70.598182 
L 13.853376 68.676364 
L 13.557303 66.754545 
L 13.290856 64.832727 
L 13.052444 62.910909 
L 12.840326 60.989091 
L 12.65266 59.067273 
L 12.487546 57.145455 
L 12.343073 55.223636 
L 12.21735 53.301818 
L 12.108534 51.38 
L 12.014856 49.458182 
L 11.934641 47.536364 
L 11.866317 45.614545 
L 11.808427 43.692727 
L 11.759635 41.770909 
L 11.718725 39.849091 
L 11.684601 37.927273 
L 11.656285 36.005455 
L 11.632908 34.083636 
L 11.613708 32.161818 
L 11.598018 30.24 
" style="fill:none;stroke:#000000;stroke-linecap:square;stroke-width:1.5;"/>
   </g>
   <g id="line2d_4">
    <path clip-path="url(#pa772a064b4)" d="M 12.392794 220.5 
L 12.557761 218.578182 
L 12.748226 216.656364 
L 12.966802 214.734545 
L 13.216107 212.812727 
L 13.498711 210.890909 
L 13.817065 208.969091 
L 14.173431 207.047273 
L 14.569798 205.125455 
L 15.007799 203.203636 
L 15.488617 201.281818 
L 16.012898 199.36 
L 16.580661 197.438182 
L 17.191216 195.516364 
L 17.843086 193.594545 
L 18.533949 191.672727 
L 19.260587 189.750909 
L 20.018857 187.829091 
L 20.80369 185.907273 
L 21.609104 183.985455 
L 22.428251 182.063636 
L 23.253485 180.141818 
L 24.076466 178.22 
L 24.88828 176.298182 
L 25.67959 174.376364 
L 26.440808 172.454545 
L 27.162281 170.532727 
L 27.834489 168.610909 
L 28.448257 166.689091 
L 28.994957 164.767273 
L 29.466712 162.845455 
L 29.856582 160.923636 
L 30.158737 159.001818 
L 30.368598 157.08 
L 30.482958 155.158182 
L 30.500057 153.236364 
L 30.419631 151.314545 
L 30.242919 149.392727 
L 29.972629 147.470909 
L 29.612872 145.549091 
L 29.169055 143.627273 
L 28.647746 141.705455 
L 28.056516 139.783636 
L 27.403751 137.861818 
L 26.69846 135.94 
L 25.950063 134.018182 
L 25.168192 132.096364 
L 24.362479 130.174545 
L 23.542369 128.252727 
L 22.716943 126.330909 
L 21.894757 124.409091 
L 21.083712 122.487273 
L 20.290946 120.565455 
L 19.52275 118.643636 
L 18.784517 116.721818 
L 18.080714 114.8 
L 17.41488 112.878182 
L 16.789648 110.956364 
L 16.206783 109.034545 
L 15.667243 107.112727 
L 15.171249 105.190909 
L 14.718365 103.269091 
L 14.307583 101.347273 
L 13.93742 99.425455 
L 13.606 97.503636 
L 13.311149 95.581818 
L 13.050471 93.66 
L 12.821432 91.738182 
L 12.621422 89.816364 
L 12.447821 87.894545 
L 12.298047 85.972727 
L 12.169599 84.050909 
L 12.060092 82.129091 
L 11.967281 80.207273 
L 11.889079 78.285455 
L 11.823568 76.363636 
L 11.769006 74.441818 
L 11.723822 72.52 
L 11.686619 70.598182 
L 11.656161 68.676364 
L 11.631365 66.754545 
L 11.611294 64.832727 
L 11.595137 62.910909 
L 11.582204 60.989091 
L 11.57191 59.067273 
L 11.563762 57.145455 
L 11.557347 55.223636 
L 11.552326 53.301818 
L 11.548416 51.38 
L 11.54539 49.458182 
L 11.543059 47.536364 
L 11.541274 45.614545 
L 11.539915 43.692727 
L 11.538885 41.770909 
L 11.538109 39.849091 
L 11.537528 37.927273 
L 11.537095 36.005455 
L 11.536774 34.083636 
L 11.536537 32.161818 
L 11.536364 30.24 
" style="fill:none;stroke:#a9a9a9;stroke-dasharray:1.5,2.475;stroke-dashoffset:0;stroke-width:1.5;"/>
   </g>
   <g id="line2d_5">
    <path clip-path="url(#pa772a064b4)" d="M 15.007535 220.5 
L 15.561026 218.578182 
L 16.18322 216.656364 
L 16.879123 214.734545 
L 17.653508 212.812727 
L 18.510792 210.890909 
L 19.454912 208.969091 
L 20.489177 207.047273 
L 21.616135 205.125455 
L 22.837421 203.203636 
L 24.153614 201.281818 
L 25.564103 199.36 
L 27.066956 197.438182 
L 28.658807 195.516364 
L 30.334762 193.594545 
L 32.088332 191.672727 
L 33.911383 189.750909 
L 35.794136 187.829091 
L 37.72518 185.907273 
L 39.691544 183.985455 
L 41.678794 182.063636 
L 43.671173 180.141818 
L 45.651783 178.22 
L 47.602798 176.298182 
L 49.505719 174.376364 
L 51.341653 172.454545 
L 53.09161 170.532727 
L 54.736835 168.610909 
L 56.259129 166.689091 
L 57.641186 164.767273 
L 58.866918 162.845455 
L 59.921769 160.923636 
L 60.792996 159.001818 
L 61.469931 157.08 
L 61.944196 155.158182 
L 62.209874 153.236364 
L 62.263636 151.314545 
L 62.104807 149.392727 
L 61.735379 147.470909 
L 61.159974 145.549091 
L 60.385745 143.627273 
L 59.422227 141.705455 
L 58.281144 139.783636 
L 56.97617 137.861818 
L 55.522656 135.94 
L 53.937332 134.018182 
L 52.237988 132.096364 
L 50.443139 130.174545 
L 48.571698 128.252727 
L 46.642644 126.330909 
L 44.674715 124.409091 
L 42.686109 122.487273 
L 40.694221 120.565455 
L 38.715411 118.643636 
L 36.7648 116.721818 
L 34.856116 114.8 
L 33.001567 112.878182 
L 31.211762 110.956364 
L 29.495668 109.034545 
L 27.860602 107.112727 
L 26.312256 105.190909 
L 24.854759 103.269091 
L 23.490753 101.347273 
L 22.221504 99.425455 
L 21.047015 97.503636 
L 19.966169 95.581818 
L 18.97686 93.66 
L 18.076146 91.738182 
L 17.26039 89.816364 
L 16.525401 87.894545 
L 15.86657 85.972727 
L 15.278993 84.050909 
L 14.75759 82.129091 
L 14.297206 80.207273 
L 13.892701 78.285455 
L 13.539029 76.363636 
L 13.231302 74.441818 
L 12.964841 72.52 
L 12.735216 70.598182 
L 12.538276 68.676364 
L 12.370168 66.754545 
L 12.227346 64.832727 
L 12.106575 62.910909 
L 12.004927 60.989091 
L 11.919771 59.067273 
L 11.848761 57.145455 
L 11.789819 55.223636 
L 11.74112 53.301818 
L 11.701067 51.38 
L 11.668275 49.458182 
L 11.64155 47.536364 
L 11.619868 45.614545 
L 11.602357 43.692727 
L 11.588279 41.770909 
L 11.577011 39.849091 
L 11.568033 37.927273 
L 11.560911 36.005455 
L 11.555287 34.083636 
L 11.550866 32.161818 
L 11.547405 30.24 
" style="fill:none;stroke:#d3d3d3;stroke-dasharray:5.55,2.4;stroke-dashoffset:0;stroke-width:1.5;"/>
   </g>
   <g id="patch_3">
    <path d="M 9 220.5 
L 9 30.24 
" style="fill:none;stroke:#000000;stroke-linecap:square;stroke-linejoin:miter;stroke-width:0.8;"/>
   </g>
   <g id="legend_1">
    <g id="patch_4">
     <path d="M 16 80.675937 
L 119.703125 80.675937 
Q 121.703125 80.675937 121.703125 78.675937 
L 121.703125 37.24 
Q 121.703125 35.24 119.703125 35.24 
L 16 35.24 
Q 14 35.24 14 37.24 
L 14 78.675937 
Q 14 80.675937 16 80.675937 
z
" style="fill:#ffffff;opacity:0.8;stroke:#cccccc;stroke-linejoin:miter;"/>
    </g>
    <g id="line2d_6">
     <path d="M 18 42.897812 
L 38 42.897812 
" style="fill:none;stroke:#000000;stroke-linecap:square;stroke-width:1.5;"/>
    </g>
    <g id="line2d_7"/>
    <g id="text_1">
     <!-- -1- -0.25 inches -->
     <g transform="translate(46 46.397812)scale(0.1 -0.1)">
      <defs>
       <path d="M 3.171875 21.484375 
L 3.171875 30.328125 
L 30.171875 30.328125 
L 30.171875 21.484375 
z
" id="ArialMT-45"/>
       <path d="M 37.25 0 
L 28.46875 0 
L 28.46875 56 
Q 25.296875 52.984375 20.140625 49.953125 
Q 14.984375 46.921875 10.890625 45.40625 
L 10.890625 53.90625 
Q 18.265625 57.375 23.78125 62.296875 
Q 29.296875 67.234375 31.59375 71.875 
L 37.25 71.875 
z
" id="ArialMT-49"/>
       <path d="M 4.15625 35.296875 
Q 4.15625 48 6.765625 55.734375 
Q 9.375 63.484375 14.515625 67.671875 
Q 19.671875 71.875 27.484375 71.875 
Q 33.25 71.875 37.59375 69.546875 
Q 41.9375 67.234375 44.765625 62.859375 
Q 47.609375 58.5 49.21875 52.21875 
Q 50.828125 45.953125 50.828125 35.296875 
Q 50.828125 22.703125 48.234375 14.96875 
Q 45.65625 7.234375 40.5 3 
Q 35.359375 -1.21875 27.484375 -1.21875 
Q 17.140625 -1.21875 11.234375 6.203125 
Q 4.15625 15.140625 4.15625 35.296875 
z
M 13.1875 35.296875 
Q 13.1875 17.671875 17.3125 11.828125 
Q 21.4375 6 27.484375 6 
Q 33.546875 6 37.671875 11.859375 
Q 41.796875 17.71875 41.796875 35.296875 
Q 41.796875 52.984375 37.671875 58.78125 
Q 33.546875 64.59375 27.390625 64.59375 
Q 21.34375 64.59375 17.71875 59.46875 
Q 13.1875 52.9375 13.1875 35.296875 
z
" id="ArialMT-48"/>
       <path d="M 9.078125 0 
L 9.078125 10.015625 
L 19.09375 10.015625 
L 19.09375 0 
z
" id="ArialMT-46"/>
       <path d="M 50.34375 8.453125 
L 50.34375 0 
L 3.03125 0 
Q 2.9375 3.171875 4.046875 6.109375 
Q 5.859375 10.9375 9.828125 15.625 
Q 13.8125 20.3125 21.34375 26.46875 
Q 33.015625 36.03125 37.109375 41.625 
Q 41.21875 47.21875 41.21875 52.203125 
Q 41.21875 57.421875 37.46875 61 
Q 33.734375 64.59375 27.734375 64.59375 
Q 21.390625 64.59375 17.578125 60.78125 
Q 13.765625 56.984375 13.71875 50.25 
L 4.6875 51.171875 
Q 5.609375 61.28125 11.65625 66.578125 
Q 17.71875 71.875 27.9375 71.875 
Q 38.234375 71.875 44.234375 66.15625 
Q 50.25 60.453125 50.25 52 
Q 50.25 47.703125 48.484375 43.546875 
Q 46.734375 39.40625 42.65625 34.8125 
Q 38.578125 30.21875 29.109375 22.21875 
Q 21.1875 15.578125 18.9375 13.203125 
Q 16.703125 10.84375 15.234375 8.453125 
z
" id="ArialMT-50"/>
       <path d="M 4.15625 18.75 
L 13.375 19.53125 
Q 14.40625 12.796875 18.140625 9.390625 
Q 21.875 6 27.15625 6 
Q 33.5 6 37.890625 10.78125 
Q 42.28125 15.578125 42.28125 23.484375 
Q 42.28125 31 38.0625 35.34375 
Q 33.84375 39.703125 27 39.703125 
Q 22.75 39.703125 19.328125 37.765625 
Q 15.921875 35.84375 13.96875 32.765625 
L 5.71875 33.84375 
L 12.640625 70.609375 
L 48.25 70.609375 
L 48.25 62.203125 
L 19.671875 62.203125 
L 15.828125 42.96875 
Q 22.265625 47.46875 29.34375 47.46875 
Q 38.71875 47.46875 45.15625 40.96875 
Q 51.609375 34.46875 51.609375 24.265625 
Q 51.609375 14.546875 45.953125 7.46875 
Q 39.0625 -1.21875 27.15625 -1.21875 
Q 17.390625 -1.21875 11.203125 4.25 
Q 5.03125 9.71875 4.15625 18.75 
z
" id="ArialMT-53"/>
       <path id="ArialMT-32"/>
       <path d="M 6.640625 61.46875 
L 6.640625 71.578125 
L 15.4375 71.578125 
L 15.4375 61.46875 
z
M 6.640625 0 
L 6.640625 51.859375 
L 15.4375 51.859375 
L 15.4375 0 
z
" id="ArialMT-105"/>
       <path d="M 6.59375 0 
L 6.59375 51.859375 
L 14.5 51.859375 
L 14.5 44.484375 
Q 20.21875 53.03125 31 53.03125 
Q 35.6875 53.03125 39.625 51.34375 
Q 43.5625 49.65625 45.515625 46.921875 
Q 47.46875 44.1875 48.25 40.4375 
Q 48.734375 37.984375 48.734375 31.890625 
L 48.734375 0 
L 39.9375 0 
L 39.9375 31.546875 
Q 39.9375 36.921875 38.90625 39.578125 
Q 37.890625 42.234375 35.28125 43.8125 
Q 32.671875 45.40625 29.15625 45.40625 
Q 23.53125 45.40625 19.453125 41.84375 
Q 15.375 38.28125 15.375 28.328125 
L 15.375 0 
z
" id="ArialMT-110"/>
       <path d="M 40.4375 19 
L 49.078125 17.875 
Q 47.65625 8.9375 41.8125 3.875 
Q 35.984375 -1.171875 27.484375 -1.171875 
Q 16.84375 -1.171875 10.375 5.78125 
Q 3.90625 12.75 3.90625 25.734375 
Q 3.90625 34.125 6.6875 40.421875 
Q 9.46875 46.734375 15.15625 49.875 
Q 20.84375 53.03125 27.546875 53.03125 
Q 35.984375 53.03125 41.359375 48.75 
Q 46.734375 44.484375 48.25 36.625 
L 39.703125 35.296875 
Q 38.484375 40.53125 35.375 43.15625 
Q 32.28125 45.796875 27.875 45.796875 
Q 21.234375 45.796875 17.078125 41.03125 
Q 12.9375 36.28125 12.9375 25.984375 
Q 12.9375 15.53125 16.9375 10.796875 
Q 20.953125 6.0625 27.390625 6.0625 
Q 32.5625 6.0625 36.03125 9.234375 
Q 39.5 12.40625 40.4375 19 
z
" id="ArialMT-99"/>
       <path d="M 6.59375 0 
L 6.59375 71.578125 
L 15.375 71.578125 
L 15.375 45.90625 
Q 21.53125 53.03125 30.90625 53.03125 
Q 36.671875 53.03125 40.921875 50.75 
Q 45.171875 48.484375 47 44.484375 
Q 48.828125 40.484375 48.828125 32.859375 
L 48.828125 0 
L 40.046875 0 
L 40.046875 32.859375 
Q 40.046875 39.453125 37.1875 42.453125 
Q 34.328125 45.453125 29.109375 45.453125 
Q 25.203125 45.453125 21.75 43.421875 
Q 18.3125 41.40625 16.84375 37.9375 
Q 15.375 34.46875 15.375 28.375 
L 15.375 0 
z
" id="ArialMT-104"/>
       <path d="M 42.09375 16.703125 
L 51.171875 15.578125 
Q 49.03125 7.625 43.21875 3.21875 
Q 37.40625 -1.171875 28.375 -1.171875 
Q 17 -1.171875 10.328125 5.828125 
Q 3.65625 12.84375 3.65625 25.484375 
Q 3.65625 38.578125 10.390625 45.796875 
Q 17.140625 53.03125 27.875 53.03125 
Q 38.28125 53.03125 44.875 45.953125 
Q 51.46875 38.875 51.46875 26.03125 
Q 51.46875 25.25 51.421875 23.6875 
L 12.75 23.6875 
Q 13.234375 15.140625 17.578125 10.59375 
Q 21.921875 6.0625 28.421875 6.0625 
Q 33.25 6.0625 36.671875 8.59375 
Q 40.09375 11.140625 42.09375 16.703125 
z
M 13.234375 30.90625 
L 42.1875 30.90625 
Q 41.609375 37.453125 38.875 40.71875 
Q 34.671875 45.796875 27.984375 45.796875 
Q 21.921875 45.796875 17.796875 41.75 
Q 13.671875 37.703125 13.234375 30.90625 
z
" id="ArialMT-101"/>
       <path d="M 3.078125 15.484375 
L 11.765625 16.84375 
Q 12.5 11.625 15.84375 8.84375 
Q 19.1875 6.0625 25.203125 6.0625 
Q 31.25 6.0625 34.171875 8.515625 
Q 37.109375 10.984375 37.109375 14.3125 
Q 37.109375 17.28125 34.515625 19 
Q 32.71875 20.171875 25.53125 21.96875 
Q 15.875 24.421875 12.140625 26.203125 
Q 8.40625 27.984375 6.46875 31.125 
Q 4.546875 34.28125 4.546875 38.09375 
Q 4.546875 41.546875 6.125 44.5 
Q 7.71875 47.46875 10.453125 49.421875 
Q 12.5 50.921875 16.03125 51.96875 
Q 19.578125 53.03125 23.640625 53.03125 
Q 29.734375 53.03125 34.34375 51.265625 
Q 38.96875 49.515625 41.15625 46.5 
Q 43.359375 43.5 44.1875 38.484375 
L 35.59375 37.3125 
Q 35.015625 41.3125 32.203125 43.546875 
Q 29.390625 45.796875 24.265625 45.796875 
Q 18.21875 45.796875 15.625 43.796875 
Q 13.03125 41.796875 13.03125 39.109375 
Q 13.03125 37.40625 14.109375 36.03125 
Q 15.1875 34.625 17.484375 33.6875 
Q 18.796875 33.203125 25.25 31.453125 
Q 34.578125 28.953125 38.25 27.359375 
Q 41.9375 25.78125 44.03125 22.75 
Q 46.140625 19.734375 46.140625 15.234375 
Q 46.140625 10.84375 43.578125 6.953125 
Q 41.015625 3.078125 36.171875 0.953125 
Q 31.34375 -1.171875 25.25 -1.171875 
Q 15.140625 -1.171875 9.84375 3.03125 
Q 4.546875 7.234375 3.078125 15.484375 
z
" id="ArialMT-115"/>
      </defs>
      <use xlink:href="#ArialMT-45"/>
      <use x="33.300781" xlink:href="#ArialMT-49"/>
      <use x="88.916016" xlink:href="#ArialMT-45"/>
      <use x="122.216797" xlink:href="#ArialMT-45"/>
      <use x="155.517578" xlink:href="#ArialMT-48"/>
      <use x="211.132812" xlink:href="#ArialMT-46"/>
      <use x="238.916016" xlink:href="#ArialMT-50"/>
      <use x="294.53125" xlink:href="#ArialMT-53"/>
      <use x="350.146484" xlink:href="#ArialMT-32"/>
      <use x="377.929688" xlink:href="#ArialMT-105"/>
      <use x="400.146484" xlink:href="#ArialMT-110"/>
      <use x="455.761719" xlink:href="#ArialMT-99"/>
      <use x="505.761719" xlink:href="#ArialMT-104"/>
      <use x="561.376953" xlink:href="#ArialMT-101"/>
      <use x="616.992188" xlink:href="#ArialMT-115"/>
     </g>
    </g>
    <g id="line2d_8">
     <path d="M 18 57.043125 
L 38 57.043125 
" style="fill:none;stroke:#a9a9a9;stroke-dasharray:1.5,2.475;stroke-dashoffset:0;stroke-width:1.5;"/>
    </g>
    <g id="line2d_9"/>
    <g id="text_2">
     <!-- -0.25-0.5 inches -->
     <g transform="translate(46 60.543125)scale(0.1 -0.1)">
      <use xlink:href="#ArialMT-45"/>
      <use x="33.300781" xlink:href="#ArialMT-48"/>
      <use x="88.916016" xlink:href="#ArialMT-46"/>
      <use x="116.699219" xlink:href="#ArialMT-50"/>
      <use x="172.314453" xlink:href="#ArialMT-53"/>
      <use x="227.929688" xlink:href="#ArialMT-45"/>
      <use x="261.230469" xlink:href="#ArialMT-48"/>
      <use x="316.845703" xlink:href="#ArialMT-46"/>
      <use x="344.628906" xlink:href="#ArialMT-53"/>
      <use x="400.244141" xlink:href="#ArialMT-32"/>
      <use x="428.027344" xlink:href="#ArialMT-105"/>
      <use x="450.244141" xlink:href="#ArialMT-110"/>
      <use x="505.859375" xlink:href="#ArialMT-99"/>
      <use x="555.859375" xlink:href="#ArialMT-104"/>
      <use x="611.474609" xlink:href="#ArialMT-101"/>
      <use x="667.089844" xlink:href="#ArialMT-115"/>
     </g>
    </g>
    <g id="line2d_10">
     <path d="M 18 71.188437 
L 38 71.188437 
" style="fill:none;stroke:#d3d3d3;stroke-dasharray:5.55,2.4;stroke-dashoffset:0;stroke-width:1.5;"/>
    </g>
    <g id="line2d_11"/>
    <g id="text_3">
     <!-- 0.5-1.5 inches -->
     <g transform="translate(46 74.688437)scale(0.1 -0.1)">
      <use xlink:href="#ArialMT-48"/>
      <use x="55.615234" xlink:href="#ArialMT-46"/>
      <use x="83.398438" xlink:href="#ArialMT-53"/>
      <use x="139.013672" xlink:href="#ArialMT-45"/>
      <use x="172.314453" xlink:href="#ArialMT-49"/>
      <use x="227.929688" xlink:href="#ArialMT-46"/>
      <use x="255.712891" xlink:href="#ArialMT-53"/>
      <use x="311.328125" xlink:href="#ArialMT-32"/>
      <use x="339.111328" xlink:href="#ArialMT-105"/>
      <use x="361.328125" xlink:href="#ArialMT-110"/>
      <use x="416.943359" xlink:href="#ArialMT-99"/>
      <use x="466.943359" xlink:href="#ArialMT-104"/>
      <use x="522.558594" xlink:href="#ArialMT-101"/>
      <use x="578.173828" xlink:href="#ArialMT-115"/>
     </g>
    </g>
   </g>
  </g>
 </g>
 <defs>
  <clipPath id="pa772a064b4">
   <rect height="190.26" width="55.8" x="9" y="30.24"/>
  </clipPath>
 </defs>
</svg>
