<?xml version="1.0" encoding="utf-8" standalone="no"?>
<!DOCTYPE svg PUBLIC "-//W3C//DTD SVG 1.1//EN"
  "http://www.w3.org/Graphics/SVG/1.1/DTD/svg11.dtd">
<!-- Created with matplotlib (https://matplotlib.org/) -->
<svg height="252pt" version="1.1" viewBox="0 0 72 252" width="72pt" xmlns="http://www.w3.org/2000/svg" xmlns:xlink="http://www.w3.org/1999/xlink">
 <metadata>
  <rdf:RDF xmlns:cc="http://creativecommons.org/ns#" xmlns:dc="http://purl.org/dc/elements/1.1/" xmlns:rdf="http://www.w3.org/1999/02/22-rdf-syntax-ns#">
   <cc:Work>
    <dc:type rdf:resource="http://purl.org/dc/dcmitype/StillImage"/>
    <dc:date>2022-05-31T11:31:53.156504</dc:date>
    <dc:format>image/svg+xml</dc:format>
    <dc:creator>
     <cc:Agent>
      <dc:title>Matplotlib v3.3.4, https://matplotlib.org/</dc:title>
     </cc:Agent>
    </dc:creator>
   </cc:Work>
  </rdf:RDF>
 </metadata>
 <defs>
  <style type="text/css">*{stroke-linecap:butt;stroke-linejoin:round;}</style>
 </defs>
 <g id="figure_1">
  <g id="patch_1">
   <path d="M 0 252 
L 72 252 
L 72 0 
L 0 0 
z
" style="fill:none;"/>
  </g>
  <g id="axes_1">
   <g id="patch_2">
    <path d="M 9 220.5 
L 64.8 220.5 
L 64.8 30.24 
L 9 30.24 
z
" style="fill:#ffffff;"/>
   </g>
   <g id="matplotlib.axis_1">
    <g id="ytick_1">
     <g id="line2d_1">
      <defs>
       <path d="M 0 0 
L -3.5 0 
" id="m598e39b52d" style="stroke:#000000;stroke-width:0.8;"/>
      </defs>
      <g>
       <use style="stroke:#000000;stroke-width:0.8;" x="9" xlink:href="#m598e39b52d" y="172.935"/>
      </g>
     </g>
    </g>
    <g id="ytick_2">
     <g id="line2d_2">
      <g>
       <use style="stroke:#000000;stroke-width:0.8;" x="9" xlink:href="#m598e39b52d" y="77.805"/>
      </g>
     </g>
    </g>
   </g>
   <g id="line2d_3">
    <path clip-path="url(#p3d77acbcfa)" d="M 11.536364 220.5 
L 11.536364 218.578182 
L 11.536364 216.656364 
L 11.536364 214.734545 
L 11.536364 212.812727 
L 11.536364 210.890909 
L 11.536364 208.969091 
L 11.536364 207.047273 
L 11.536364 205.125455 
L 11.536364 203.203636 
L 11.536364 201.281818 
L 11.536364 199.36 
L 11.536364 197.438182 
L 11.536364 195.516364 
L 11.536364 193.594545 
L 11.536364 191.672727 
L 11.536364 189.750909 
L 11.536364 187.829091 
L 11.536365 185.907273 
L 11.536367 183.985455 
L 11.536371 182.063636 
L 11.536378 180.141818 
L 11.536392 178.22 
L 11.536419 176.298182 
L 11.53647 174.376364 
L 11.536566 172.454545 
L 11.536741 170.532727 
L 11.537055 168.610909 
L 11.537612 166.689091 
L 11.538579 164.767273 
L 11.540234 162.845455 
L 11.543016 160.923636 
L 11.547614 159.001818 
L 11.555085 157.08 
L 11.567016 155.158182 
L 11.585746 153.236364 
L 11.614643 151.314545 
L 11.658456 149.392727 
L 11.723734 147.470909 
L 11.819297 145.549091 
L 11.956738 143.627273 
L 12.150914 141.705455 
L 12.420357 139.783636 
L 12.787515 137.861818 
L 13.278733 135.94 
L 13.923846 134.018182 
L 14.755281 132.096364 
L 15.806572 130.174545 
L 17.110247 128.252727 
L 18.695098 126.330909 
L 20.582939 124.409091 
L 22.785048 122.487273 
L 25.298595 120.565455 
L 28.103428 118.643636 
L 31.159654 116.721818 
L 34.406445 114.8 
L 37.76243 112.878182 
L 41.127946 110.956364 
L 44.389195 109.034545 
L 47.424178 107.112727 
L 50.110018 105.190909 
L 52.331102 103.269091 
L 53.987283 101.347273 
L 55.001359 99.425455 
L 55.325033 97.503636 
L 54.942731 95.581818 
L 53.872842 93.66 
L 52.166248 91.738182 
L 49.902321 89.816364 
L 47.182796 87.894545 
L 44.124211 85.972727 
L 40.849674 84.050909 
L 37.480765 82.129091 
L 34.130306 80.207273 
L 30.896569 78.285455 
L 27.85927 76.363636 
L 25.077484 74.441818 
L 22.589392 72.52 
L 20.413595 70.598182 
L 18.551618 68.676364 
L 16.991164 66.754545 
L 15.709705 64.832727 
L 14.678019 62.910909 
L 13.863397 60.989091 
L 13.232327 59.067273 
L 12.752549 57.145455 
L 12.394493 55.223636 
L 12.132129 53.301818 
L 11.943338 51.38 
L 11.809909 49.458182 
L 11.717273 47.536364 
L 11.654087 45.614545 
L 11.611739 43.692727 
L 11.58385 41.770909 
L 11.5658 39.849091 
L 11.554318 37.927273 
L 11.547138 36.005455 
L 11.542726 34.083636 
L 11.54006 32.161818 
L 11.538477 30.24 
" style="fill:none;stroke:#000000;stroke-linecap:square;stroke-width:1.5;"/>
   </g>
   <g id="line2d_4">
    <path clip-path="url(#p3d77acbcfa)" d="M 11.536364 220.5 
L 11.536364 218.578182 
L 11.536364 216.656364 
L 11.536364 214.734545 
L 11.536364 212.812727 
L 11.536364 210.890909 
L 11.536365 208.969091 
L 11.536367 207.047273 
L 11.536371 205.125455 
L 11.536378 203.203636 
L 11.536391 201.281818 
L 11.536417 199.36 
L 11.536465 197.438182 
L 11.536553 195.516364 
L 11.536712 193.594545 
L 11.536995 191.672727 
L 11.537488 189.750909 
L 11.538336 187.829091 
L 11.539773 185.907273 
L 11.542164 183.985455 
L 11.546082 182.063636 
L 11.552399 180.141818 
L 11.562416 178.22 
L 11.578042 176.298182 
L 11.602024 174.376364 
L 11.638221 172.454545 
L 11.691959 170.532727 
L 11.770412 168.610909 
L 11.88304 166.689091 
L 12.042015 164.767273 
L 12.262615 162.845455 
L 12.563507 160.923636 
L 12.966849 159.001818 
L 13.498117 157.08 
L 14.185557 155.158182 
L 15.059193 153.236364 
L 16.149305 151.314545 
L 17.484388 149.392727 
L 19.088607 147.470909 
L 20.978879 145.549091 
L 23.161763 143.627273 
L 25.630437 141.705455 
L 28.362083 139.783636 
L 31.316041 137.861818 
L 34.433082 135.94 
L 37.636077 134.018182 
L 40.832253 132.096364 
L 43.917053 130.174545 
L 46.779453 128.252727 
L 49.308392 126.330909 
L 51.399834 124.409091 
L 52.96383 122.487273 
L 53.93092 120.565455 
L 54.257252 118.643636 
L 53.927877 116.721818 
L 52.957884 114.8 
L 51.391252 112.878182 
L 49.29755 110.956364 
L 46.766808 109.034545 
L 43.903113 107.112727 
L 40.817539 105.190909 
L 37.621096 103.269091 
L 34.418297 101.347273 
L 31.301851 99.425455 
L 28.348805 97.503636 
L 25.618304 95.581818 
L 23.150922 93.66 
L 20.969397 91.738182 
L 19.080481 89.816364 
L 17.477562 87.894545 
L 16.14368 85.972727 
L 15.054645 84.050909 
L 14.181947 82.129091 
L 13.495303 80.207273 
L 12.964695 78.285455 
L 12.561886 76.363636 
L 12.261417 74.441818 
L 12.041145 72.52 
L 11.882419 70.598182 
L 11.769976 68.676364 
L 11.691657 66.754545 
L 11.638017 64.832727 
L 11.601887 62.910909 
L 11.577953 60.989091 
L 11.562358 59.067273 
L 11.552362 57.145455 
L 11.546059 55.223636 
L 11.54215 53.301818 
L 11.539764 51.38 
L 11.538331 49.458182 
L 11.537485 47.536364 
L 11.536993 45.614545 
L 11.536711 43.692727 
L 11.536553 41.770909 
L 11.536465 39.849091 
L 11.536417 37.927273 
L 11.536391 36.005455 
L 11.536378 34.083636 
L 11.536371 32.161818 
L 11.536367 30.24 
" style="fill:none;stroke:#808080;stroke-dasharray:5.55,2.4;stroke-dashoffset:0;stroke-width:1.5;"/>
   </g>
   <g id="line2d_5">
    <path clip-path="url(#p3d77acbcfa)" d="M 11.536364 220.5 
L 11.536364 218.578182 
L 11.536364 216.656364 
L 11.536364 214.734545 
L 11.536364 212.812727 
L 11.536365 210.890909 
L 11.536367 208.969091 
L 11.53637 207.047273 
L 11.536379 205.125455 
L 11.536398 203.203636 
L 11.536438 201.281818 
L 11.536522 199.36 
L 11.536692 197.438182 
L 11.537031 195.516364 
L 11.537692 193.594545 
L 11.53895 191.672727 
L 11.541292 189.750909 
L 11.545551 187.829091 
L 11.553124 185.907273 
L 11.566282 183.985455 
L 11.58862 182.063636 
L 11.625673 180.141818 
L 11.685718 178.22 
L 11.780764 176.298182 
L 11.927694 174.376364 
L 12.149485 172.454545 
L 12.476323 170.532727 
L 12.946406 168.610909 
L 13.606102 166.689091 
L 14.509116 164.767273 
L 15.714306 162.845455 
L 17.281843 160.923636 
L 19.267624 159.001818 
L 21.716054 157.08 
L 24.651687 155.158182 
L 28.070582 153.236364 
L 31.932529 151.314545 
L 36.155544 149.392727 
L 40.613985 147.470909 
L 45.141398 145.549091 
L 49.538677 143.627273 
L 53.587324 141.705455 
L 57.066821 139.783636 
L 59.774254 137.861818 
L 61.543825 135.94 
L 62.263636 134.018182 
L 61.887401 132.096364 
L 60.439368 130.174545 
L 58.011734 128.252727 
L 54.754933 126.330909 
L 50.862213 124.409091 
L 46.550712 122.487273 
L 42.041585 120.565455 
L 37.541703 118.643636 
L 33.228937 116.721818 
L 29.242338 114.8 
L 25.677646 112.878182 
L 22.58778 110.956364 
L 19.987348 109.034545 
L 17.859854 107.112727 
L 16.166211 105.190909 
L 14.853296 103.269091 
L 13.861599 101.347273 
L 13.131351 99.425455 
L 12.606916 97.503636 
L 12.239466 95.581818 
L 11.988209 93.66 
L 11.820496 91.738182 
L 11.711192 89.816364 
L 11.641624 87.894545 
L 11.598376 85.972727 
L 11.572111 84.050909 
L 11.556528 82.129091 
L 11.547493 80.207273 
L 11.542374 78.285455 
L 11.53954 76.363636 
L 11.538006 74.441818 
L 11.537195 72.52 
L 11.536775 70.598182 
L 11.536563 68.676364 
L 11.536458 66.754545 
L 11.536407 64.832727 
L 11.536384 62.910909 
L 11.536372 60.989091 
L 11.536367 59.067273 
L 11.536365 57.145455 
L 11.536364 55.223636 
L 11.536364 53.301818 
L 11.536364 51.38 
L 11.536364 49.458182 
L 11.536364 47.536364 
L 11.536364 45.614545 
L 11.536364 43.692727 
L 11.536364 41.770909 
L 11.536364 39.849091 
L 11.536364 37.927273 
L 11.536364 36.005455 
L 11.536364 34.083636 
L 11.536364 32.161818 
L 11.536364 30.24 
" style="fill:none;stroke:#d3d3d3;stroke-dasharray:1.5,2.475;stroke-dashoffset:0;stroke-width:1.5;"/>
   </g>
   <g id="line2d_6">
    <path clip-path="url(#p3d77acbcfa)" d="M 11.82252 220.5 
L 11.919187 218.578182 
L 12.043818 216.656364 
L 12.202861 214.734545 
L 12.40373 212.812727 
L 12.654797 210.890909 
L 12.965324 208.969091 
L 13.345343 207.047273 
L 13.805443 205.125455 
L 14.356491 203.203636 
L 15.009251 201.281818 
L 15.773921 199.36 
L 16.659589 197.438182 
L 17.67362 195.516364 
L 18.821002 193.594545 
L 20.103678 191.672727 
L 21.519898 189.750909 
L 23.063644 187.829091 
L 24.724164 185.907273 
L 26.485662 183.985455 
L 28.327194 182.063636 
L 30.222801 180.141818 
L 32.141892 178.22 
L 34.049912 176.298182 
L 35.909256 174.376364 
L 37.680431 172.454545 
L 39.323395 170.532727 
L 40.799044 168.610909 
L 42.070735 166.689091 
L 43.105799 164.767273 
L 43.876927 162.845455 
L 44.36337 160.923636 
L 44.551867 159.001818 
L 44.437242 157.08 
L 44.022646 155.158182 
L 43.319406 153.236364 
L 42.346517 151.314545 
L 41.129786 149.392727 
L 39.700697 147.470909 
L 38.095056 145.549091 
L 36.35151 143.627273 
L 34.510009 141.705455 
L 32.610314 139.783636 
L 30.690603 137.861818 
L 28.786273 135.94 
L 26.928952 134.018182 
L 25.145778 132.096364 
L 23.458941 130.174545 
L 21.885493 128.252727 
L 20.437397 126.330909 
L 19.121789 124.409091 
L 17.941412 122.487273 
L 16.895167 120.565455 
L 15.978749 118.643636 
L 15.18531 116.721818 
L 14.506126 114.8 
L 13.931217 112.878182 
L 13.44991 110.956364 
L 13.051327 109.034545 
L 12.724778 107.112727 
L 12.460076 105.190909 
L 12.247755 103.269091 
L 12.079218 101.347273 
L 11.946815 99.425455 
L 11.843861 97.503636 
L 11.764621 95.581818 
L 11.704249 93.66 
L 11.658713 91.738182 
L 11.624711 89.816364 
L 11.599574 87.894545 
L 11.581175 85.972727 
L 11.56784 84.050909 
L 11.558271 82.129091 
L 11.551471 80.207273 
L 11.546687 78.285455 
L 11.543353 76.363636 
L 11.541052 74.441818 
L 11.53948 72.52 
L 11.538416 70.598182 
L 11.537703 68.676364 
L 11.53723 66.754545 
L 11.536918 64.832727 
L 11.536716 62.910909 
L 11.536585 60.989091 
L 11.536502 59.067273 
L 11.536449 57.145455 
L 11.536416 55.223636 
L 11.536395 53.301818 
L 11.536383 51.38 
L 11.536375 49.458182 
L 11.53637 47.536364 
L 11.536368 45.614545 
L 11.536366 43.692727 
L 11.536365 41.770909 
L 11.536364 39.849091 
L 11.536364 37.927273 
L 11.536364 36.005455 
L 11.536364 34.083636 
L 11.536364 32.161818 
L 11.536364 30.24 
" style="fill:none;stroke:#a9a9a9;stroke-dasharray:9.6,2.4,1.5,2.4;stroke-dashoffset:0;stroke-width:1.5;"/>
   </g>
   <g id="patch_3">
    <path d="M 9 220.5 
L 9 30.24 
" style="fill:none;stroke:#000000;stroke-linecap:square;stroke-linejoin:miter;stroke-width:0.8;"/>
   </g>
   <g id="legend_1">
    <g id="patch_4">
     <path d="M 16 94.82125 
L 87.464063 94.82125 
Q 89.464063 94.82125 89.464063 92.82125 
L 89.464063 37.24 
Q 89.464063 35.24 87.464063 35.24 
L 16 35.24 
Q 14 35.24 14 37.24 
L 14 92.82125 
Q 14 94.82125 16 94.82125 
z
" style="fill:#ffffff;opacity:0.8;stroke:#cccccc;stroke-linejoin:miter;"/>
    </g>
    <g id="line2d_7">
     <path d="M 18 42.897813 
L 38 42.897813 
" style="fill:none;stroke:#000000;stroke-linecap:square;stroke-width:1.5;"/>
    </g>
    <g id="line2d_8"/>
    <g id="text_1">
     <!-- 1.9-2.9 ft -->
     <g transform="translate(46 46.397813)scale(0.1 -0.1)">
      <defs>
       <path d="M 37.25 0 
L 28.46875 0 
L 28.46875 56 
Q 25.296875 52.984375 20.140625 49.953125 
Q 14.984375 46.921875 10.890625 45.40625 
L 10.890625 53.90625 
Q 18.265625 57.375 23.78125 62.296875 
Q 29.296875 67.234375 31.59375 71.875 
L 37.25 71.875 
z
" id="ArialMT-49"/>
       <path d="M 9.078125 0 
L 9.078125 10.015625 
L 19.09375 10.015625 
L 19.09375 0 
z
" id="ArialMT-46"/>
       <path d="M 5.46875 16.546875 
L 13.921875 17.328125 
Q 14.984375 11.375 18.015625 8.6875 
Q 21.046875 6 25.78125 6 
Q 29.828125 6 32.875 7.859375 
Q 35.9375 9.71875 37.890625 12.8125 
Q 39.84375 15.921875 41.15625 21.1875 
Q 42.484375 26.46875 42.484375 31.9375 
Q 42.484375 32.515625 42.4375 33.6875 
Q 39.796875 29.5 35.234375 26.875 
Q 30.671875 24.265625 25.34375 24.265625 
Q 16.453125 24.265625 10.296875 30.703125 
Q 4.15625 37.15625 4.15625 47.703125 
Q 4.15625 58.59375 10.578125 65.234375 
Q 17 71.875 26.65625 71.875 
Q 33.640625 71.875 39.421875 68.109375 
Q 45.21875 64.359375 48.21875 57.390625 
Q 51.21875 50.4375 51.21875 37.25 
Q 51.21875 23.53125 48.234375 15.40625 
Q 45.265625 7.28125 39.375 3.03125 
Q 33.5 -1.21875 25.59375 -1.21875 
Q 17.1875 -1.21875 11.859375 3.4375 
Q 6.546875 8.109375 5.46875 16.546875 
z
M 41.453125 48.140625 
Q 41.453125 55.71875 37.421875 60.15625 
Q 33.40625 64.59375 27.734375 64.59375 
Q 21.875 64.59375 17.53125 59.8125 
Q 13.1875 55.03125 13.1875 47.40625 
Q 13.1875 40.578125 17.3125 36.296875 
Q 21.4375 32.03125 27.484375 32.03125 
Q 33.59375 32.03125 37.515625 36.296875 
Q 41.453125 40.578125 41.453125 48.140625 
z
" id="ArialMT-57"/>
       <path d="M 3.171875 21.484375 
L 3.171875 30.328125 
L 30.171875 30.328125 
L 30.171875 21.484375 
z
" id="ArialMT-45"/>
       <path d="M 50.34375 8.453125 
L 50.34375 0 
L 3.03125 0 
Q 2.9375 3.171875 4.046875 6.109375 
Q 5.859375 10.9375 9.828125 15.625 
Q 13.8125 20.3125 21.34375 26.46875 
Q 33.015625 36.03125 37.109375 41.625 
Q 41.21875 47.21875 41.21875 52.203125 
Q 41.21875 57.421875 37.46875 61 
Q 33.734375 64.59375 27.734375 64.59375 
Q 21.390625 64.59375 17.578125 60.78125 
Q 13.765625 56.984375 13.71875 50.25 
L 4.6875 51.171875 
Q 5.609375 61.28125 11.65625 66.578125 
Q 17.71875 71.875 27.9375 71.875 
Q 38.234375 71.875 44.234375 66.15625 
Q 50.25 60.453125 50.25 52 
Q 50.25 47.703125 48.484375 43.546875 
Q 46.734375 39.40625 42.65625 34.8125 
Q 38.578125 30.21875 29.109375 22.21875 
Q 21.1875 15.578125 18.9375 13.203125 
Q 16.703125 10.84375 15.234375 8.453125 
z
" id="ArialMT-50"/>
       <path id="ArialMT-32"/>
       <path d="M 8.6875 0 
L 8.6875 45.015625 
L 0.921875 45.015625 
L 0.921875 51.859375 
L 8.6875 51.859375 
L 8.6875 57.375 
Q 8.6875 62.59375 9.625 65.140625 
Q 10.890625 68.5625 14.078125 70.671875 
Q 17.28125 72.796875 23.046875 72.796875 
Q 26.765625 72.796875 31.25 71.921875 
L 29.9375 64.265625 
Q 27.203125 64.75 24.75 64.75 
Q 20.75 64.75 19.09375 63.03125 
Q 17.4375 61.328125 17.4375 56.640625 
L 17.4375 51.859375 
L 27.546875 51.859375 
L 27.546875 45.015625 
L 17.4375 45.015625 
L 17.4375 0 
z
" id="ArialMT-102"/>
       <path d="M 25.78125 7.859375 
L 27.046875 0.09375 
Q 23.34375 -0.6875 20.40625 -0.6875 
Q 15.625 -0.6875 12.984375 0.828125 
Q 10.359375 2.34375 9.28125 4.8125 
Q 8.203125 7.28125 8.203125 15.1875 
L 8.203125 45.015625 
L 1.765625 45.015625 
L 1.765625 51.859375 
L 8.203125 51.859375 
L 8.203125 64.703125 
L 16.9375 69.96875 
L 16.9375 51.859375 
L 25.78125 51.859375 
L 25.78125 45.015625 
L 16.9375 45.015625 
L 16.9375 14.703125 
Q 16.9375 10.9375 17.40625 9.859375 
Q 17.875 8.796875 18.921875 8.15625 
Q 19.96875 7.515625 21.921875 7.515625 
Q 23.390625 7.515625 25.78125 7.859375 
z
" id="ArialMT-116"/>
      </defs>
      <use xlink:href="#ArialMT-49"/>
      <use x="55.615234" xlink:href="#ArialMT-46"/>
      <use x="83.398438" xlink:href="#ArialMT-57"/>
      <use x="139.013672" xlink:href="#ArialMT-45"/>
      <use x="172.314453" xlink:href="#ArialMT-50"/>
      <use x="227.929688" xlink:href="#ArialMT-46"/>
      <use x="255.712891" xlink:href="#ArialMT-57"/>
      <use x="311.328125" xlink:href="#ArialMT-32"/>
      <use x="339.111328" xlink:href="#ArialMT-102"/>
      <use x="366.894531" xlink:href="#ArialMT-116"/>
     </g>
    </g>
    <g id="line2d_9">
     <path d="M 18 57.043125 
L 38 57.043125 
" style="fill:none;stroke:#808080;stroke-dasharray:5.55,2.4;stroke-dashoffset:0;stroke-width:1.5;"/>
    </g>
    <g id="line2d_10"/>
    <g id="text_2">
     <!-- 2.9-3.3 ft -->
     <g transform="translate(46 60.543125)scale(0.1 -0.1)">
      <defs>
       <path d="M 4.203125 18.890625 
L 12.984375 20.0625 
Q 14.5 12.59375 18.140625 9.296875 
Q 21.78125 6 27 6 
Q 33.203125 6 37.46875 10.296875 
Q 41.75 14.59375 41.75 20.953125 
Q 41.75 27 37.796875 30.921875 
Q 33.84375 34.859375 27.734375 34.859375 
Q 25.25 34.859375 21.53125 33.890625 
L 22.515625 41.609375 
Q 23.390625 41.5 23.921875 41.5 
Q 29.546875 41.5 34.03125 44.421875 
Q 38.53125 47.359375 38.53125 53.46875 
Q 38.53125 58.296875 35.25 61.46875 
Q 31.984375 64.65625 26.8125 64.65625 
Q 21.6875 64.65625 18.265625 61.421875 
Q 14.84375 58.203125 13.875 51.765625 
L 5.078125 53.328125 
Q 6.6875 62.15625 12.390625 67.015625 
Q 18.109375 71.875 26.609375 71.875 
Q 32.46875 71.875 37.390625 69.359375 
Q 42.328125 66.84375 44.9375 62.5 
Q 47.5625 58.15625 47.5625 53.265625 
Q 47.5625 48.640625 45.0625 44.828125 
Q 42.578125 41.015625 37.703125 38.765625 
Q 44.046875 37.3125 47.5625 32.6875 
Q 51.078125 28.078125 51.078125 21.140625 
Q 51.078125 11.765625 44.234375 5.25 
Q 37.40625 -1.265625 26.953125 -1.265625 
Q 17.53125 -1.265625 11.296875 4.34375 
Q 5.078125 9.96875 4.203125 18.890625 
z
" id="ArialMT-51"/>
      </defs>
      <use xlink:href="#ArialMT-50"/>
      <use x="55.615234" xlink:href="#ArialMT-46"/>
      <use x="83.398438" xlink:href="#ArialMT-57"/>
      <use x="139.013672" xlink:href="#ArialMT-45"/>
      <use x="172.314453" xlink:href="#ArialMT-51"/>
      <use x="227.929688" xlink:href="#ArialMT-46"/>
      <use x="255.712891" xlink:href="#ArialMT-51"/>
      <use x="311.328125" xlink:href="#ArialMT-32"/>
      <use x="339.111328" xlink:href="#ArialMT-102"/>
      <use x="366.894531" xlink:href="#ArialMT-116"/>
     </g>
    </g>
    <g id="line2d_11">
     <path d="M 18 71.188438 
L 38 71.188438 
" style="fill:none;stroke:#d3d3d3;stroke-dasharray:1.5,2.475;stroke-dashoffset:0;stroke-width:1.5;"/>
    </g>
    <g id="line2d_12"/>
    <g id="text_3">
     <!-- 3.3-3.7 ft -->
     <g transform="translate(46 74.688438)scale(0.1 -0.1)">
      <defs>
       <path d="M 4.734375 62.203125 
L 4.734375 70.65625 
L 51.078125 70.65625 
L 51.078125 63.8125 
Q 44.234375 56.546875 37.515625 44.484375 
Q 30.8125 32.421875 27.15625 19.671875 
Q 24.515625 10.6875 23.78125 0 
L 14.75 0 
Q 14.890625 8.453125 18.0625 20.40625 
Q 21.234375 32.375 27.171875 43.484375 
Q 33.109375 54.59375 39.796875 62.203125 
z
" id="ArialMT-55"/>
      </defs>
      <use xlink:href="#ArialMT-51"/>
      <use x="55.615234" xlink:href="#ArialMT-46"/>
      <use x="83.398438" xlink:href="#ArialMT-51"/>
      <use x="139.013672" xlink:href="#ArialMT-45"/>
      <use x="172.314453" xlink:href="#ArialMT-51"/>
      <use x="227.929688" xlink:href="#ArialMT-46"/>
      <use x="255.712891" xlink:href="#ArialMT-55"/>
      <use x="311.328125" xlink:href="#ArialMT-32"/>
      <use x="339.111328" xlink:href="#ArialMT-102"/>
      <use x="366.894531" xlink:href="#ArialMT-116"/>
     </g>
    </g>
    <g id="line2d_13">
     <path d="M 18 85.33375 
L 38 85.33375 
" style="fill:none;stroke:#a9a9a9;stroke-dasharray:9.6,2.4,1.5,2.4;stroke-dashoffset:0;stroke-width:1.5;"/>
    </g>
    <g id="line2d_14"/>
    <g id="text_4">
     <!-- 3.7-4.9 ft -->
     <g transform="translate(46 88.83375)scale(0.1 -0.1)">
      <defs>
       <path d="M 32.328125 0 
L 32.328125 17.140625 
L 1.265625 17.140625 
L 1.265625 25.203125 
L 33.9375 71.578125 
L 41.109375 71.578125 
L 41.109375 25.203125 
L 50.78125 25.203125 
L 50.78125 17.140625 
L 41.109375 17.140625 
L 41.109375 0 
z
M 32.328125 25.203125 
L 32.328125 57.46875 
L 9.90625 25.203125 
z
" id="ArialMT-52"/>
      </defs>
      <use xlink:href="#ArialMT-51"/>
      <use x="55.615234" xlink:href="#ArialMT-46"/>
      <use x="83.398438" xlink:href="#ArialMT-55"/>
      <use x="139.013672" xlink:href="#ArialMT-45"/>
      <use x="172.314453" xlink:href="#ArialMT-52"/>
      <use x="227.929688" xlink:href="#ArialMT-46"/>
      <use x="255.712891" xlink:href="#ArialMT-57"/>
      <use x="311.328125" xlink:href="#ArialMT-32"/>
      <use x="339.111328" xlink:href="#ArialMT-102"/>
      <use x="366.894531" xlink:href="#ArialMT-116"/>
     </g>
    </g>
   </g>
  </g>
 </g>
 <defs>
  <clipPath id="p3d77acbcfa">
   <rect height="190.26" width="55.8" x="9" y="30.24"/>
  </clipPath>
 </defs>
</svg>
