<?xml version="1.0" encoding="utf-8" standalone="no"?>
<!DOCTYPE svg PUBLIC "-//W3C//DTD SVG 1.1//EN"
  "http://www.w3.org/Graphics/SVG/1.1/DTD/svg11.dtd">
<!-- Created with matplotlib (https://matplotlib.org/) -->
<svg height="252pt" version="1.1" viewBox="0 0 54 252" width="54pt" xmlns="http://www.w3.org/2000/svg" xmlns:xlink="http://www.w3.org/1999/xlink">
 <metadata>
  <rdf:RDF xmlns:cc="http://creativecommons.org/ns#" xmlns:dc="http://purl.org/dc/elements/1.1/" xmlns:rdf="http://www.w3.org/1999/02/22-rdf-syntax-ns#">
   <cc:Work>
    <dc:type rdf:resource="http://purl.org/dc/dcmitype/StillImage"/>
    <dc:date>2022-06-08T17:38:46.507213</dc:date>
    <dc:format>image/svg+xml</dc:format>
    <dc:creator>
     <cc:Agent>
      <dc:title>Matplotlib v3.3.4, https://matplotlib.org/</dc:title>
     </cc:Agent>
    </dc:creator>
   </cc:Work>
  </rdf:RDF>
 </metadata>
 <defs>
  <style type="text/css">*{stroke-linecap:butt;stroke-linejoin:round;}</style>
 </defs>
 <g id="figure_1">
  <g id="patch_1">
   <path d="M 0 252 
L 54 252 
L 54 0 
L 0 0 
z
" style="fill:none;"/>
  </g>
  <g id="axes_1">
   <g id="patch_2">
    <path d="M 6.75 220.5 
L 48.6 220.5 
L 48.6 30.24 
L 6.75 30.24 
z
" style="fill:#ffffff;"/>
   </g>
   <g id="matplotlib.axis_1">
    <g id="ytick_1">
     <g id="line2d_1">
      <defs>
       <path d="M 0 0 
L -3.5 0 
" id="m2c2afe2ffa" style="stroke:#000000;stroke-width:0.8;"/>
      </defs>
      <g>
       <use style="stroke:#000000;stroke-width:0.8;" x="6.75" xlink:href="#m2c2afe2ffa" y="172.935"/>
      </g>
     </g>
    </g>
    <g id="ytick_2">
     <g id="line2d_2">
      <g>
       <use style="stroke:#000000;stroke-width:0.8;" x="6.75" xlink:href="#m2c2afe2ffa" y="77.805"/>
      </g>
     </g>
    </g>
   </g>
   <g id="line2d_3">
    <path clip-path="url(#p573e33f6d3)" d="M 8.652273 220.5 
L 8.661321 218.578182 
L 8.672963 216.656364 
L 8.687856 214.734545 
L 8.706801 212.812727 
L 8.730759 210.890909 
L 8.760883 208.969091 
L 8.798542 207.047273 
L 8.845345 205.125455 
L 8.903175 203.203636 
L 8.974211 201.281818 
L 9.060957 199.36 
L 9.166261 197.438182 
L 9.293334 195.516364 
L 9.445763 193.594545 
L 9.627511 191.672727 
L 9.842908 189.750909 
L 10.096635 187.829091 
L 10.393683 185.907273 
L 10.739306 183.985455 
L 11.138947 182.063636 
L 11.598151 180.141818 
L 12.122454 178.22 
L 12.717254 176.298182 
L 13.387661 174.376364 
L 14.13833 172.454545 
L 14.973284 170.532727 
L 15.895714 168.610909 
L 16.907791 166.689091 
L 18.01046 164.767273 
L 19.203251 162.845455 
L 20.484103 160.923636 
L 21.84921 159.001818 
L 23.292889 157.08 
L 24.807501 155.158182 
L 26.383402 153.236364 
L 28.008958 151.314545 
L 29.670604 149.392727 
L 31.352977 147.470909 
L 33.039096 145.549091 
L 34.710612 143.627273 
L 36.348112 141.705455 
L 37.931469 139.783636 
L 39.440244 137.861818 
L 40.854113 135.94 
L 42.153316 134.018182 
L 43.319111 132.096364 
L 44.334227 130.174545 
L 45.183284 128.252727 
L 45.853182 126.330909 
L 46.333437 124.409091 
L 46.616454 122.487273 
L 46.697727 120.565455 
L 46.575958 118.643636 
L 46.25309 116.721818 
L 45.73426 114.8 
L 45.027658 112.878182 
L 44.144313 110.956364 
L 43.097811 109.034545 
L 41.90394 107.112727 
L 40.580302 105.190909 
L 39.145876 103.269091 
L 37.620572 101.347273 
L 36.024773 99.425455 
L 34.378889 97.503636 
L 32.702934 95.581818 
L 31.016137 93.66 
L 29.336595 91.738182 
L 27.680983 89.816364 
L 26.06432 87.894545 
L 24.499792 85.972727 
L 22.998639 84.050909 
L 21.570104 82.129091 
L 20.221431 80.207273 
L 18.957918 78.285455 
L 17.783014 76.363636 
L 16.698447 74.441818 
L 15.70439 72.52 
L 14.799638 70.598182 
L 13.981801 68.676364 
L 13.247505 66.754545 
L 12.592586 64.832727 
L 12.012285 62.910909 
L 11.50142 60.989091 
L 11.054555 59.067273 
L 10.666143 57.145455 
L 10.330651 55.223636 
L 10.042666 53.301818 
L 9.796984 51.38 
L 9.58867 49.458182 
L 9.413112 47.536364 
L 9.266051 45.614545 
L 9.143599 43.692727 
L 9.042247 41.770909 
L 8.958855 39.849091 
L 8.890645 37.927273 
L 8.835181 36.005455 
L 8.790346 34.083636 
L 8.754312 32.161818 
L 8.725521 30.24 
" style="fill:none;stroke:#029e73;stroke-linecap:square;stroke-width:1.5;"/>
   </g>
   <g id="line2d_4">
    <path clip-path="url(#p573e33f6d3)" d="M 9.048296 220.5 
L 9.128805 218.578182 
L 9.222429 216.656364 
L 9.330867 214.734545 
L 9.455957 212.812727 
L 9.599672 210.890909 
L 9.76411 208.969091 
L 9.95149 207.047273 
L 10.16413 205.125455 
L 10.404436 203.203636 
L 10.674869 201.281818 
L 10.977927 199.36 
L 11.316103 197.438182 
L 11.69185 195.516364 
L 12.107539 193.594545 
L 12.565409 191.672727 
L 13.067516 189.750909 
L 13.615676 187.829091 
L 14.211412 185.907273 
L 14.855889 183.985455 
L 15.549855 182.063636 
L 16.293586 180.141818 
L 17.086823 178.22 
L 17.928725 176.298182 
L 18.817814 174.376364 
L 19.751942 172.454545 
L 20.728252 170.532727 
L 21.743162 168.610909 
L 22.792348 166.689091 
L 23.870754 164.767273 
L 24.972602 162.845455 
L 26.091425 160.923636 
L 27.220115 159.001818 
L 28.350982 157.08 
L 29.475829 155.158182 
L 30.586044 153.236364 
L 31.672701 151.314545 
L 32.726674 149.392727 
L 33.738765 147.470909 
L 34.699829 145.549091 
L 35.600912 143.627273 
L 36.43339 141.705455 
L 37.189103 139.783636 
L 37.860491 137.861818 
L 38.440716 135.94 
L 38.923782 134.018182 
L 39.304633 132.096364 
L 39.579244 130.174545 
L 39.744695 128.252727 
L 39.799215 126.330909 
L 39.74222 124.409091 
L 39.574321 122.487273 
L 39.297314 120.565455 
L 38.914145 118.643636 
L 38.428863 116.721818 
L 37.846544 114.8 
L 37.173205 112.878182 
L 36.415702 110.956364 
L 35.58161 109.034545 
L 34.6791 107.112727 
L 33.716805 105.190909 
L 32.703684 103.269091 
L 31.648884 101.347273 
L 30.561605 99.425455 
L 29.45097 97.503636 
L 28.325897 95.581818 
L 27.194991 93.66 
L 26.066438 91.738182 
L 24.947917 89.816364 
L 23.846522 87.894545 
L 22.768706 85.972727 
L 21.720228 84.050909 
L 20.706132 82.129091 
L 19.730722 80.207273 
L 18.797567 78.285455 
L 17.909505 76.363636 
L 17.068671 74.441818 
L 16.276526 72.52 
L 15.5339 70.598182 
L 14.841038 68.676364 
L 14.197654 66.754545 
L 13.602989 64.832727 
L 13.055869 62.910909 
L 12.554766 60.989091 
L 12.097856 59.067273 
L 11.683079 57.145455 
L 11.308192 55.223636 
L 10.970823 53.301818 
L 10.668517 51.38 
L 10.39878 49.458182 
L 10.159116 47.536364 
L 9.947062 45.614545 
L 9.760217 43.692727 
L 9.596262 41.770909 
L 9.452984 39.849091 
L 9.328284 37.927273 
L 9.220195 36.005455 
L 9.12688 34.083636 
L 9.046645 32.161818 
L 8.97793 30.24 
" style="fill:none;stroke:#000000;stroke-linecap:square;stroke-width:1.5;"/>
   </g>
   <g id="patch_3">
    <path d="M 6.75 220.5 
L 6.75 30.24 
" style="fill:none;stroke:#000000;stroke-linecap:square;stroke-linejoin:miter;stroke-width:0.8;"/>
   </g>
  </g>
 </g>
 <defs>
  <clipPath id="p573e33f6d3">
   <rect height="190.26" width="41.85" x="6.75" y="30.24"/>
  </clipPath>
 </defs>
</svg>
