<?xml version="1.0" encoding="utf-8" standalone="no"?>
<!DOCTYPE svg PUBLIC "-//W3C//DTD SVG 1.1//EN"
  "http://www.w3.org/Graphics/SVG/1.1/DTD/svg11.dtd">
<!-- Created with matplotlib (https://matplotlib.org/) -->
<svg height="252pt" version="1.1" viewBox="0 0 72 252" width="72pt" xmlns="http://www.w3.org/2000/svg" xmlns:xlink="http://www.w3.org/1999/xlink">
 <metadata>
  <rdf:RDF xmlns:cc="http://creativecommons.org/ns#" xmlns:dc="http://purl.org/dc/elements/1.1/" xmlns:rdf="http://www.w3.org/1999/02/22-rdf-syntax-ns#">
   <cc:Work>
    <dc:type rdf:resource="http://purl.org/dc/dcmitype/StillImage"/>
    <dc:date>2022-06-08T17:38:46.688364</dc:date>
    <dc:format>image/svg+xml</dc:format>
    <dc:creator>
     <cc:Agent>
      <dc:title>Matplotlib v3.3.4, https://matplotlib.org/</dc:title>
     </cc:Agent>
    </dc:creator>
   </cc:Work>
  </rdf:RDF>
 </metadata>
 <defs>
  <style type="text/css">*{stroke-linecap:butt;stroke-linejoin:round;}</style>
 </defs>
 <g id="figure_1">
  <g id="patch_1">
   <path d="M 0 252 
L 72 252 
L 72 0 
L 0 0 
z
" style="fill:none;"/>
  </g>
  <g id="axes_1">
   <g id="patch_2">
    <path d="M 9 220.5 
L 64.8 220.5 
L 64.8 30.24 
L 9 30.24 
z
" style="fill:#ffffff;"/>
   </g>
   <g id="matplotlib.axis_1">
    <g id="ytick_1">
     <g id="line2d_1">
      <defs>
       <path d="M 0 0 
L -3.5 0 
" id="mb27ec6dfa1" style="stroke:#000000;stroke-width:0.8;"/>
      </defs>
      <g>
       <use style="stroke:#000000;stroke-width:0.8;" x="9" xlink:href="#mb27ec6dfa1" y="172.935"/>
      </g>
     </g>
    </g>
    <g id="ytick_2">
     <g id="line2d_2">
      <g>
       <use style="stroke:#000000;stroke-width:0.8;" x="9" xlink:href="#mb27ec6dfa1" y="77.805"/>
      </g>
     </g>
    </g>
   </g>
   <g id="line2d_3">
    <path clip-path="url(#p79ffa2fc7c)" d="M 11.587821 220.5 
L 11.60669 218.578182 
L 11.629194 216.656364 
L 11.655923 214.734545 
L 11.687532 212.812727 
L 11.724753 210.890909 
L 11.768393 208.969091 
L 11.81934 207.047273 
L 11.878559 205.125455 
L 11.947092 203.203636 
L 12.026056 201.281818 
L 12.116639 199.36 
L 12.220088 197.438182 
L 12.337705 195.516364 
L 12.470826 193.594545 
L 12.620815 191.672727 
L 12.789035 189.750909 
L 12.976833 187.829091 
L 13.185512 185.907273 
L 13.416304 183.985455 
L 13.670341 182.063636 
L 13.948617 180.141818 
L 14.251962 178.22 
L 14.581001 176.298182 
L 14.93612 174.376364 
L 15.317432 172.454545 
L 15.724745 170.532727 
L 16.157527 168.610909 
L 16.614883 166.689091 
L 17.095528 164.767273 
L 17.597775 162.845455 
L 18.119518 160.923636 
L 18.658234 159.001818 
L 19.210983 157.08 
L 19.774427 155.158182 
L 20.344845 153.236364 
L 20.918172 151.314545 
L 21.490035 149.392727 
L 22.055804 147.470909 
L 22.61065 145.549091 
L 23.149613 143.627273 
L 23.667666 141.705455 
L 24.1598 139.783636 
L 24.621096 137.861818 
L 25.046812 135.94 
L 25.432458 134.018182 
L 25.773881 132.096364 
L 26.067332 130.174545 
L 26.309542 128.252727 
L 26.497775 126.330909 
L 26.629886 124.409091 
L 26.704359 122.487273 
L 26.720333 120.565455 
L 26.677625 118.643636 
L 26.576728 116.721818 
L 26.418803 114.8 
L 26.205659 112.878182 
L 25.939715 110.956364 
L 25.623957 109.034545 
L 25.261882 107.112727 
L 24.85743 105.190909 
L 24.414919 103.269091 
L 23.938963 101.347273 
L 23.434395 99.425455 
L 22.906184 97.503636 
L 22.359359 95.581818 
L 21.798924 93.66 
L 21.229788 91.738182 
L 20.656698 89.816364 
L 20.084172 87.894545 
L 19.51645 85.972727 
L 18.957443 84.050909 
L 18.410701 82.129091 
L 17.879383 80.207273 
L 17.366241 78.285455 
L 16.873606 76.363636 
L 16.403394 74.441818 
L 15.957107 72.52 
L 15.535848 70.598182 
L 15.140344 68.676364 
L 14.770968 66.754545 
L 14.427771 64.832727 
L 14.11051 62.910909 
L 13.818684 60.989091 
L 13.551573 59.067273 
L 13.308266 57.145455 
L 13.087702 55.223636 
L 12.888701 53.301818 
L 12.709993 51.38 
L 12.550254 49.458182 
L 12.408125 47.536364 
L 12.28224 45.614545 
L 12.171247 43.692727 
L 12.073822 41.770909 
L 11.988687 39.849091 
L 11.914622 37.927273 
L 11.85047 36.005455 
L 11.795147 34.083636 
L 11.747646 32.161818 
L 11.707037 30.24 
" style="fill:none;stroke:#000000;stroke-linecap:square;stroke-width:1.5;"/>
   </g>
   <g id="line2d_4">
    <path clip-path="url(#p79ffa2fc7c)" d="M 12.435721 220.5 
L 12.628322 218.578182 
L 12.854529 216.656364 
L 13.11885 214.734545 
L 13.426123 212.812727 
L 13.781485 210.890909 
L 14.190327 208.969091 
L 14.658235 207.047273 
L 15.190916 205.125455 
L 15.794109 203.203636 
L 16.473478 201.281818 
L 17.234488 199.36 
L 18.082272 197.438182 
L 19.02148 195.516364 
L 20.056114 193.594545 
L 21.189365 191.672727 
L 22.423435 189.750909 
L 23.75937 187.829091 
L 25.196885 185.907273 
L 26.734217 183.985455 
L 28.367974 182.063636 
L 30.093028 180.141818 
L 31.902417 178.22 
L 33.787293 176.298182 
L 35.736907 174.376364 
L 37.738632 172.454545 
L 39.778035 170.532727 
L 41.839003 168.610909 
L 43.903908 166.689091 
L 45.953824 164.767273 
L 47.968796 162.845455 
L 49.928139 160.923636 
L 51.810779 159.001818 
L 53.595622 157.08 
L 55.261939 155.158182 
L 56.789765 153.236364 
L 58.160291 151.314545 
L 59.356252 149.392727 
L 60.362287 147.470909 
L 61.165264 145.549091 
L 61.754569 143.627273 
L 62.12234 141.705455 
L 62.263636 139.783636 
L 62.176555 137.861818 
L 61.862269 135.94 
L 61.325003 134.018182 
L 60.571942 132.096364 
L 59.613062 130.174545 
L 58.460922 128.252727 
L 57.130381 126.330909 
L 55.638285 124.409091 
L 54.003107 122.487273 
L 52.244575 120.565455 
L 50.383272 118.643636 
L 48.440241 116.721818 
L 46.436595 114.8 
L 44.393142 112.878182 
L 42.330042 110.956364 
L 40.26649 109.034545 
L 38.220442 107.112727 
L 36.208391 105.190909 
L 34.24518 103.269091 
L 32.343875 101.347273 
L 30.515675 99.425455 
L 28.769879 97.503636 
L 27.113894 95.581818 
L 25.553277 93.66 
L 24.091822 91.738182 
L 22.731669 89.816364 
L 21.473439 87.894545 
L 20.316389 85.972727 
L 19.258574 84.050909 
L 18.297024 82.129091 
L 17.427914 80.207273 
L 16.646732 78.285455 
L 15.948447 76.363636 
L 15.327659 74.441818 
L 14.778741 72.52 
L 14.295959 70.598182 
L 13.873593 68.676364 
L 13.506018 66.754545 
L 13.187792 64.832727 
L 12.913715 62.910909 
L 12.678872 60.989091 
L 12.478674 59.067273 
L 12.308877 57.145455 
L 12.16559 55.223636 
L 12.045282 53.301818 
L 11.944772 51.38 
L 11.861221 49.458182 
L 11.79211 47.536364 
L 11.735227 45.614545 
L 11.688639 43.692727 
L 11.650668 41.770909 
L 11.619873 39.849091 
L 11.595018 37.927273 
L 11.575056 36.005455 
L 11.559101 34.083636 
L 11.54641 32.161818 
L 11.536364 30.24 
" style="fill:none;stroke:#808080;stroke-dasharray:5.55,2.4;stroke-dashoffset:0;stroke-width:1.5;"/>
   </g>
   <g id="patch_3">
    <path d="M 9 220.5 
L 9 30.24 
" style="fill:none;stroke:#000000;stroke-linecap:square;stroke-linejoin:miter;stroke-width:0.8;"/>
   </g>
   <g id="legend_1">
    <g id="patch_4">
     <path d="M 16 66.530625 
L 189.217187 66.530625 
Q 191.217187 66.530625 191.217187 64.530625 
L 191.217187 37.24 
Q 191.217187 35.24 189.217187 35.24 
L 16 35.24 
Q 14 35.24 14 37.24 
L 14 64.530625 
Q 14 66.530625 16 66.530625 
z
" style="fill:#ffffff;opacity:0.8;stroke:#cccccc;stroke-linejoin:miter;"/>
    </g>
    <g id="line2d_5">
     <path d="M 18 42.897813 
L 38 42.897813 
" style="fill:none;stroke:#000000;stroke-linecap:square;stroke-width:1.5;"/>
    </g>
    <g id="line2d_6"/>
    <g id="text_1">
     <!-- -0.7891891891891891-0 inches -->
     <g transform="translate(46 46.397813)scale(0.1 -0.1)">
      <defs>
       <path d="M 3.171875 21.484375 
L 3.171875 30.328125 
L 30.171875 30.328125 
L 30.171875 21.484375 
z
" id="ArialMT-45"/>
       <path d="M 4.15625 35.296875 
Q 4.15625 48 6.765625 55.734375 
Q 9.375 63.484375 14.515625 67.671875 
Q 19.671875 71.875 27.484375 71.875 
Q 33.25 71.875 37.59375 69.546875 
Q 41.9375 67.234375 44.765625 62.859375 
Q 47.609375 58.5 49.21875 52.21875 
Q 50.828125 45.953125 50.828125 35.296875 
Q 50.828125 22.703125 48.234375 14.96875 
Q 45.65625 7.234375 40.5 3 
Q 35.359375 -1.21875 27.484375 -1.21875 
Q 17.140625 -1.21875 11.234375 6.203125 
Q 4.15625 15.140625 4.15625 35.296875 
z
M 13.1875 35.296875 
Q 13.1875 17.671875 17.3125 11.828125 
Q 21.4375 6 27.484375 6 
Q 33.546875 6 37.671875 11.859375 
Q 41.796875 17.71875 41.796875 35.296875 
Q 41.796875 52.984375 37.671875 58.78125 
Q 33.546875 64.59375 27.390625 64.59375 
Q 21.34375 64.59375 17.71875 59.46875 
Q 13.1875 52.9375 13.1875 35.296875 
z
" id="ArialMT-48"/>
       <path d="M 9.078125 0 
L 9.078125 10.015625 
L 19.09375 10.015625 
L 19.09375 0 
z
" id="ArialMT-46"/>
       <path d="M 4.734375 62.203125 
L 4.734375 70.65625 
L 51.078125 70.65625 
L 51.078125 63.8125 
Q 44.234375 56.546875 37.515625 44.484375 
Q 30.8125 32.421875 27.15625 19.671875 
Q 24.515625 10.6875 23.78125 0 
L 14.75 0 
Q 14.890625 8.453125 18.0625 20.40625 
Q 21.234375 32.375 27.171875 43.484375 
Q 33.109375 54.59375 39.796875 62.203125 
z
" id="ArialMT-55"/>
       <path d="M 17.671875 38.8125 
Q 12.203125 40.828125 9.5625 44.53125 
Q 6.9375 48.25 6.9375 53.421875 
Q 6.9375 61.234375 12.546875 66.546875 
Q 18.171875 71.875 27.484375 71.875 
Q 36.859375 71.875 42.578125 66.421875 
Q 48.296875 60.984375 48.296875 53.171875 
Q 48.296875 48.1875 45.671875 44.5 
Q 43.0625 40.828125 37.75 38.8125 
Q 44.34375 36.671875 47.78125 31.875 
Q 51.21875 27.09375 51.21875 20.453125 
Q 51.21875 11.28125 44.71875 5.03125 
Q 38.234375 -1.21875 27.640625 -1.21875 
Q 17.046875 -1.21875 10.546875 5.046875 
Q 4.046875 11.328125 4.046875 20.703125 
Q 4.046875 27.6875 7.59375 32.390625 
Q 11.140625 37.109375 17.671875 38.8125 
z
M 15.921875 53.71875 
Q 15.921875 48.640625 19.1875 45.40625 
Q 22.46875 42.1875 27.6875 42.1875 
Q 32.765625 42.1875 36.015625 45.375 
Q 39.265625 48.578125 39.265625 53.21875 
Q 39.265625 58.0625 35.90625 61.359375 
Q 32.5625 64.65625 27.59375 64.65625 
Q 22.5625 64.65625 19.234375 61.421875 
Q 15.921875 58.203125 15.921875 53.71875 
z
M 13.09375 20.65625 
Q 13.09375 16.890625 14.875 13.375 
Q 16.65625 9.859375 20.171875 7.921875 
Q 23.6875 6 27.734375 6 
Q 34.03125 6 38.125 10.046875 
Q 42.234375 14.109375 42.234375 20.359375 
Q 42.234375 26.703125 38.015625 30.859375 
Q 33.796875 35.015625 27.4375 35.015625 
Q 21.234375 35.015625 17.15625 30.90625 
Q 13.09375 26.8125 13.09375 20.65625 
z
" id="ArialMT-56"/>
       <path d="M 5.46875 16.546875 
L 13.921875 17.328125 
Q 14.984375 11.375 18.015625 8.6875 
Q 21.046875 6 25.78125 6 
Q 29.828125 6 32.875 7.859375 
Q 35.9375 9.71875 37.890625 12.8125 
Q 39.84375 15.921875 41.15625 21.1875 
Q 42.484375 26.46875 42.484375 31.9375 
Q 42.484375 32.515625 42.4375 33.6875 
Q 39.796875 29.5 35.234375 26.875 
Q 30.671875 24.265625 25.34375 24.265625 
Q 16.453125 24.265625 10.296875 30.703125 
Q 4.15625 37.15625 4.15625 47.703125 
Q 4.15625 58.59375 10.578125 65.234375 
Q 17 71.875 26.65625 71.875 
Q 33.640625 71.875 39.421875 68.109375 
Q 45.21875 64.359375 48.21875 57.390625 
Q 51.21875 50.4375 51.21875 37.25 
Q 51.21875 23.53125 48.234375 15.40625 
Q 45.265625 7.28125 39.375 3.03125 
Q 33.5 -1.21875 25.59375 -1.21875 
Q 17.1875 -1.21875 11.859375 3.4375 
Q 6.546875 8.109375 5.46875 16.546875 
z
M 41.453125 48.140625 
Q 41.453125 55.71875 37.421875 60.15625 
Q 33.40625 64.59375 27.734375 64.59375 
Q 21.875 64.59375 17.53125 59.8125 
Q 13.1875 55.03125 13.1875 47.40625 
Q 13.1875 40.578125 17.3125 36.296875 
Q 21.4375 32.03125 27.484375 32.03125 
Q 33.59375 32.03125 37.515625 36.296875 
Q 41.453125 40.578125 41.453125 48.140625 
z
" id="ArialMT-57"/>
       <path d="M 37.25 0 
L 28.46875 0 
L 28.46875 56 
Q 25.296875 52.984375 20.140625 49.953125 
Q 14.984375 46.921875 10.890625 45.40625 
L 10.890625 53.90625 
Q 18.265625 57.375 23.78125 62.296875 
Q 29.296875 67.234375 31.59375 71.875 
L 37.25 71.875 
z
" id="ArialMT-49"/>
       <path id="ArialMT-32"/>
       <path d="M 6.640625 61.46875 
L 6.640625 71.578125 
L 15.4375 71.578125 
L 15.4375 61.46875 
z
M 6.640625 0 
L 6.640625 51.859375 
L 15.4375 51.859375 
L 15.4375 0 
z
" id="ArialMT-105"/>
       <path d="M 6.59375 0 
L 6.59375 51.859375 
L 14.5 51.859375 
L 14.5 44.484375 
Q 20.21875 53.03125 31 53.03125 
Q 35.6875 53.03125 39.625 51.34375 
Q 43.5625 49.65625 45.515625 46.921875 
Q 47.46875 44.1875 48.25 40.4375 
Q 48.734375 37.984375 48.734375 31.890625 
L 48.734375 0 
L 39.9375 0 
L 39.9375 31.546875 
Q 39.9375 36.921875 38.90625 39.578125 
Q 37.890625 42.234375 35.28125 43.8125 
Q 32.671875 45.40625 29.15625 45.40625 
Q 23.53125 45.40625 19.453125 41.84375 
Q 15.375 38.28125 15.375 28.328125 
L 15.375 0 
z
" id="ArialMT-110"/>
       <path d="M 40.4375 19 
L 49.078125 17.875 
Q 47.65625 8.9375 41.8125 3.875 
Q 35.984375 -1.171875 27.484375 -1.171875 
Q 16.84375 -1.171875 10.375 5.78125 
Q 3.90625 12.75 3.90625 25.734375 
Q 3.90625 34.125 6.6875 40.421875 
Q 9.46875 46.734375 15.15625 49.875 
Q 20.84375 53.03125 27.546875 53.03125 
Q 35.984375 53.03125 41.359375 48.75 
Q 46.734375 44.484375 48.25 36.625 
L 39.703125 35.296875 
Q 38.484375 40.53125 35.375 43.15625 
Q 32.28125 45.796875 27.875 45.796875 
Q 21.234375 45.796875 17.078125 41.03125 
Q 12.9375 36.28125 12.9375 25.984375 
Q 12.9375 15.53125 16.9375 10.796875 
Q 20.953125 6.0625 27.390625 6.0625 
Q 32.5625 6.0625 36.03125 9.234375 
Q 39.5 12.40625 40.4375 19 
z
" id="ArialMT-99"/>
       <path d="M 6.59375 0 
L 6.59375 71.578125 
L 15.375 71.578125 
L 15.375 45.90625 
Q 21.53125 53.03125 30.90625 53.03125 
Q 36.671875 53.03125 40.921875 50.75 
Q 45.171875 48.484375 47 44.484375 
Q 48.828125 40.484375 48.828125 32.859375 
L 48.828125 0 
L 40.046875 0 
L 40.046875 32.859375 
Q 40.046875 39.453125 37.1875 42.453125 
Q 34.328125 45.453125 29.109375 45.453125 
Q 25.203125 45.453125 21.75 43.421875 
Q 18.3125 41.40625 16.84375 37.9375 
Q 15.375 34.46875 15.375 28.375 
L 15.375 0 
z
" id="ArialMT-104"/>
       <path d="M 42.09375 16.703125 
L 51.171875 15.578125 
Q 49.03125 7.625 43.21875 3.21875 
Q 37.40625 -1.171875 28.375 -1.171875 
Q 17 -1.171875 10.328125 5.828125 
Q 3.65625 12.84375 3.65625 25.484375 
Q 3.65625 38.578125 10.390625 45.796875 
Q 17.140625 53.03125 27.875 53.03125 
Q 38.28125 53.03125 44.875 45.953125 
Q 51.46875 38.875 51.46875 26.03125 
Q 51.46875 25.25 51.421875 23.6875 
L 12.75 23.6875 
Q 13.234375 15.140625 17.578125 10.59375 
Q 21.921875 6.0625 28.421875 6.0625 
Q 33.25 6.0625 36.671875 8.59375 
Q 40.09375 11.140625 42.09375 16.703125 
z
M 13.234375 30.90625 
L 42.1875 30.90625 
Q 41.609375 37.453125 38.875 40.71875 
Q 34.671875 45.796875 27.984375 45.796875 
Q 21.921875 45.796875 17.796875 41.75 
Q 13.671875 37.703125 13.234375 30.90625 
z
" id="ArialMT-101"/>
       <path d="M 3.078125 15.484375 
L 11.765625 16.84375 
Q 12.5 11.625 15.84375 8.84375 
Q 19.1875 6.0625 25.203125 6.0625 
Q 31.25 6.0625 34.171875 8.515625 
Q 37.109375 10.984375 37.109375 14.3125 
Q 37.109375 17.28125 34.515625 19 
Q 32.71875 20.171875 25.53125 21.96875 
Q 15.875 24.421875 12.140625 26.203125 
Q 8.40625 27.984375 6.46875 31.125 
Q 4.546875 34.28125 4.546875 38.09375 
Q 4.546875 41.546875 6.125 44.5 
Q 7.71875 47.46875 10.453125 49.421875 
Q 12.5 50.921875 16.03125 51.96875 
Q 19.578125 53.03125 23.640625 53.03125 
Q 29.734375 53.03125 34.34375 51.265625 
Q 38.96875 49.515625 41.15625 46.5 
Q 43.359375 43.5 44.1875 38.484375 
L 35.59375 37.3125 
Q 35.015625 41.3125 32.203125 43.546875 
Q 29.390625 45.796875 24.265625 45.796875 
Q 18.21875 45.796875 15.625 43.796875 
Q 13.03125 41.796875 13.03125 39.109375 
Q 13.03125 37.40625 14.109375 36.03125 
Q 15.1875 34.625 17.484375 33.6875 
Q 18.796875 33.203125 25.25 31.453125 
Q 34.578125 28.953125 38.25 27.359375 
Q 41.9375 25.78125 44.03125 22.75 
Q 46.140625 19.734375 46.140625 15.234375 
Q 46.140625 10.84375 43.578125 6.953125 
Q 41.015625 3.078125 36.171875 0.953125 
Q 31.34375 -1.171875 25.25 -1.171875 
Q 15.140625 -1.171875 9.84375 3.03125 
Q 4.546875 7.234375 3.078125 15.484375 
z
" id="ArialMT-115"/>
      </defs>
      <use xlink:href="#ArialMT-45"/>
      <use x="33.300781" xlink:href="#ArialMT-48"/>
      <use x="88.916016" xlink:href="#ArialMT-46"/>
      <use x="116.699219" xlink:href="#ArialMT-55"/>
      <use x="172.314453" xlink:href="#ArialMT-56"/>
      <use x="227.929688" xlink:href="#ArialMT-57"/>
      <use x="283.544922" xlink:href="#ArialMT-49"/>
      <use x="339.160156" xlink:href="#ArialMT-56"/>
      <use x="394.775391" xlink:href="#ArialMT-57"/>
      <use x="450.390625" xlink:href="#ArialMT-49"/>
      <use x="506.005859" xlink:href="#ArialMT-56"/>
      <use x="561.621094" xlink:href="#ArialMT-57"/>
      <use x="617.236328" xlink:href="#ArialMT-49"/>
      <use x="672.851562" xlink:href="#ArialMT-56"/>
      <use x="728.466797" xlink:href="#ArialMT-57"/>
      <use x="784.082031" xlink:href="#ArialMT-49"/>
      <use x="839.697266" xlink:href="#ArialMT-56"/>
      <use x="895.3125" xlink:href="#ArialMT-57"/>
      <use x="950.927734" xlink:href="#ArialMT-49"/>
      <use x="1006.542969" xlink:href="#ArialMT-45"/>
      <use x="1039.84375" xlink:href="#ArialMT-48"/>
      <use x="1095.458984" xlink:href="#ArialMT-32"/>
      <use x="1123.242188" xlink:href="#ArialMT-105"/>
      <use x="1145.458984" xlink:href="#ArialMT-110"/>
      <use x="1201.074219" xlink:href="#ArialMT-99"/>
      <use x="1251.074219" xlink:href="#ArialMT-104"/>
      <use x="1306.689453" xlink:href="#ArialMT-101"/>
      <use x="1362.304688" xlink:href="#ArialMT-115"/>
     </g>
    </g>
    <g id="line2d_7">
     <path d="M 18 57.043125 
L 38 57.043125 
" style="fill:none;stroke:#808080;stroke-dasharray:5.55,2.4;stroke-dashoffset:0;stroke-width:1.5;"/>
    </g>
    <g id="line2d_8"/>
    <g id="text_2">
     <!-- 0-1.1229946524064172 inches -->
     <g transform="translate(46 60.543125)scale(0.1 -0.1)">
      <defs>
       <path d="M 50.34375 8.453125 
L 50.34375 0 
L 3.03125 0 
Q 2.9375 3.171875 4.046875 6.109375 
Q 5.859375 10.9375 9.828125 15.625 
Q 13.8125 20.3125 21.34375 26.46875 
Q 33.015625 36.03125 37.109375 41.625 
Q 41.21875 47.21875 41.21875 52.203125 
Q 41.21875 57.421875 37.46875 61 
Q 33.734375 64.59375 27.734375 64.59375 
Q 21.390625 64.59375 17.578125 60.78125 
Q 13.765625 56.984375 13.71875 50.25 
L 4.6875 51.171875 
Q 5.609375 61.28125 11.65625 66.578125 
Q 17.71875 71.875 27.9375 71.875 
Q 38.234375 71.875 44.234375 66.15625 
Q 50.25 60.453125 50.25 52 
Q 50.25 47.703125 48.484375 43.546875 
Q 46.734375 39.40625 42.65625 34.8125 
Q 38.578125 30.21875 29.109375 22.21875 
Q 21.1875 15.578125 18.9375 13.203125 
Q 16.703125 10.84375 15.234375 8.453125 
z
" id="ArialMT-50"/>
       <path d="M 32.328125 0 
L 32.328125 17.140625 
L 1.265625 17.140625 
L 1.265625 25.203125 
L 33.9375 71.578125 
L 41.109375 71.578125 
L 41.109375 25.203125 
L 50.78125 25.203125 
L 50.78125 17.140625 
L 41.109375 17.140625 
L 41.109375 0 
z
M 32.328125 25.203125 
L 32.328125 57.46875 
L 9.90625 25.203125 
z
" id="ArialMT-52"/>
       <path d="M 49.75 54.046875 
L 41.015625 53.375 
Q 39.84375 58.546875 37.703125 60.890625 
Q 34.125 64.65625 28.90625 64.65625 
Q 24.703125 64.65625 21.53125 62.3125 
Q 17.390625 59.28125 14.984375 53.46875 
Q 12.59375 47.65625 12.5 36.921875 
Q 15.671875 41.75 20.265625 44.09375 
Q 24.859375 46.4375 29.890625 46.4375 
Q 38.671875 46.4375 44.84375 39.96875 
Q 51.03125 33.5 51.03125 23.25 
Q 51.03125 16.5 48.125 10.71875 
Q 45.21875 4.9375 40.140625 1.859375 
Q 35.0625 -1.21875 28.609375 -1.21875 
Q 17.625 -1.21875 10.6875 6.859375 
Q 3.765625 14.9375 3.765625 33.5 
Q 3.765625 54.25 11.421875 63.671875 
Q 18.109375 71.875 29.4375 71.875 
Q 37.890625 71.875 43.28125 67.140625 
Q 48.6875 62.40625 49.75 54.046875 
z
M 13.875 23.1875 
Q 13.875 18.65625 15.796875 14.5 
Q 17.71875 10.359375 21.1875 8.171875 
Q 24.65625 6 28.46875 6 
Q 34.03125 6 38.03125 10.484375 
Q 42.046875 14.984375 42.046875 22.703125 
Q 42.046875 30.125 38.078125 34.390625 
Q 34.125 38.671875 28.125 38.671875 
Q 22.171875 38.671875 18.015625 34.390625 
Q 13.875 30.125 13.875 23.1875 
z
" id="ArialMT-54"/>
       <path d="M 4.15625 18.75 
L 13.375 19.53125 
Q 14.40625 12.796875 18.140625 9.390625 
Q 21.875 6 27.15625 6 
Q 33.5 6 37.890625 10.78125 
Q 42.28125 15.578125 42.28125 23.484375 
Q 42.28125 31 38.0625 35.34375 
Q 33.84375 39.703125 27 39.703125 
Q 22.75 39.703125 19.328125 37.765625 
Q 15.921875 35.84375 13.96875 32.765625 
L 5.71875 33.84375 
L 12.640625 70.609375 
L 48.25 70.609375 
L 48.25 62.203125 
L 19.671875 62.203125 
L 15.828125 42.96875 
Q 22.265625 47.46875 29.34375 47.46875 
Q 38.71875 47.46875 45.15625 40.96875 
Q 51.609375 34.46875 51.609375 24.265625 
Q 51.609375 14.546875 45.953125 7.46875 
Q 39.0625 -1.21875 27.15625 -1.21875 
Q 17.390625 -1.21875 11.203125 4.25 
Q 5.03125 9.71875 4.15625 18.75 
z
" id="ArialMT-53"/>
      </defs>
      <use xlink:href="#ArialMT-48"/>
      <use x="55.615234" xlink:href="#ArialMT-45"/>
      <use x="88.916016" xlink:href="#ArialMT-49"/>
      <use x="144.53125" xlink:href="#ArialMT-46"/>
      <use x="172.314453" xlink:href="#ArialMT-49"/>
      <use x="227.929688" xlink:href="#ArialMT-50"/>
      <use x="283.544922" xlink:href="#ArialMT-50"/>
      <use x="339.160156" xlink:href="#ArialMT-57"/>
      <use x="394.775391" xlink:href="#ArialMT-57"/>
      <use x="450.390625" xlink:href="#ArialMT-52"/>
      <use x="506.005859" xlink:href="#ArialMT-54"/>
      <use x="561.621094" xlink:href="#ArialMT-53"/>
      <use x="617.236328" xlink:href="#ArialMT-50"/>
      <use x="672.851562" xlink:href="#ArialMT-52"/>
      <use x="728.466797" xlink:href="#ArialMT-48"/>
      <use x="784.082031" xlink:href="#ArialMT-54"/>
      <use x="839.697266" xlink:href="#ArialMT-52"/>
      <use x="895.3125" xlink:href="#ArialMT-49"/>
      <use x="950.927734" xlink:href="#ArialMT-55"/>
      <use x="1006.542969" xlink:href="#ArialMT-50"/>
      <use x="1062.158203" xlink:href="#ArialMT-32"/>
      <use x="1089.941406" xlink:href="#ArialMT-105"/>
      <use x="1112.158203" xlink:href="#ArialMT-110"/>
      <use x="1167.773438" xlink:href="#ArialMT-99"/>
      <use x="1217.773438" xlink:href="#ArialMT-104"/>
      <use x="1273.388672" xlink:href="#ArialMT-101"/>
      <use x="1329.003906" xlink:href="#ArialMT-115"/>
     </g>
    </g>
   </g>
  </g>
 </g>
 <defs>
  <clipPath id="p79ffa2fc7c">
   <rect height="190.26" width="55.8" x="9" y="30.24"/>
  </clipPath>
 </defs>
</svg>
