<?xml version="1.0" encoding="utf-8" standalone="no"?>
<!DOCTYPE svg PUBLIC "-//W3C//DTD SVG 1.1//EN"
  "http://www.w3.org/Graphics/SVG/1.1/DTD/svg11.dtd">
<!-- Created with matplotlib (https://matplotlib.org/) -->
<svg height="252pt" version="1.1" viewBox="0 0 72 252" width="72pt" xmlns="http://www.w3.org/2000/svg" xmlns:xlink="http://www.w3.org/1999/xlink">
 <metadata>
  <rdf:RDF xmlns:cc="http://creativecommons.org/ns#" xmlns:dc="http://purl.org/dc/elements/1.1/" xmlns:rdf="http://www.w3.org/1999/02/22-rdf-syntax-ns#">
   <cc:Work>
    <dc:type rdf:resource="http://purl.org/dc/dcmitype/StillImage"/>
    <dc:date>2022-06-08T17:38:46.619326</dc:date>
    <dc:format>image/svg+xml</dc:format>
    <dc:creator>
     <cc:Agent>
      <dc:title>Matplotlib v3.3.4, https://matplotlib.org/</dc:title>
     </cc:Agent>
    </dc:creator>
   </cc:Work>
  </rdf:RDF>
 </metadata>
 <defs>
  <style type="text/css">*{stroke-linecap:butt;stroke-linejoin:round;}</style>
 </defs>
 <g id="figure_1">
  <g id="patch_1">
   <path d="M 0 252 
L 72 252 
L 72 0 
L 0 0 
z
" style="fill:none;"/>
  </g>
  <g id="axes_1">
   <g id="patch_2">
    <path d="M 9 220.5 
L 64.8 220.5 
L 64.8 30.24 
L 9 30.24 
z
" style="fill:#ffffff;"/>
   </g>
   <g id="matplotlib.axis_1">
    <g id="ytick_1">
     <g id="line2d_1">
      <defs>
       <path d="M 0 0 
L -3.5 0 
" id="md3b8c11c75" style="stroke:#000000;stroke-width:0.8;"/>
      </defs>
      <g>
       <use style="stroke:#000000;stroke-width:0.8;" x="9" xlink:href="#md3b8c11c75" y="172.935"/>
      </g>
     </g>
    </g>
    <g id="ytick_2">
     <g id="line2d_2">
      <g>
       <use style="stroke:#000000;stroke-width:0.8;" x="9" xlink:href="#md3b8c11c75" y="77.805"/>
      </g>
     </g>
    </g>
   </g>
   <g id="line2d_3">
    <path clip-path="url(#p44a2d4c3f7)" d="M 11.536364 220.5 
L 11.538363 218.578182 
L 11.540696 216.656364 
L 11.543406 214.734545 
L 11.546541 212.812727 
L 11.550155 210.890909 
L 11.554302 208.969091 
L 11.559043 207.047273 
L 11.564439 205.125455 
L 11.570556 203.203636 
L 11.577462 201.281818 
L 11.585223 199.36 
L 11.593912 197.438182 
L 11.603595 195.516364 
L 11.61434 193.594545 
L 11.626213 191.672727 
L 11.639273 189.750909 
L 11.653575 187.829091 
L 11.669168 185.907273 
L 11.68609 183.985455 
L 11.704369 182.063636 
L 11.724022 180.141818 
L 11.745052 178.22 
L 11.767445 176.298182 
L 11.791171 174.376364 
L 11.816184 172.454545 
L 11.842416 170.532727 
L 11.86978 168.610909 
L 11.898171 166.689091 
L 11.92746 164.767273 
L 11.957499 162.845455 
L 11.988121 160.923636 
L 12.019139 159.001818 
L 12.05035 157.08 
L 12.081535 155.158182 
L 12.112462 153.236364 
L 12.142887 151.314545 
L 12.172562 149.392727 
L 12.201232 147.470909 
L 12.228642 145.549091 
L 12.254539 143.627273 
L 12.278679 141.705455 
L 12.300828 139.783636 
L 12.320764 137.861818 
L 12.338288 135.94 
L 12.353217 134.018182 
L 12.365396 132.096364 
L 12.374697 130.174545 
L 12.381021 128.252727 
L 12.384299 126.330909 
L 12.384497 124.409091 
L 12.381613 122.487273 
L 12.375677 120.565455 
L 12.366753 118.643636 
L 12.354936 116.721818 
L 12.340351 114.8 
L 12.323151 112.878182 
L 12.303513 110.956364 
L 12.281636 109.034545 
L 12.257739 107.112727 
L 12.232053 105.190909 
L 12.204824 103.269091 
L 12.176301 101.347273 
L 12.146741 99.425455 
L 12.116397 97.503636 
L 12.085521 95.581818 
L 12.054356 93.66 
L 12.023136 91.738182 
L 11.992081 89.816364 
L 11.961398 87.894545 
L 11.931274 85.972727 
L 11.90188 84.050909 
L 11.873367 82.129091 
L 11.845864 80.207273 
L 11.819482 78.285455 
L 11.794309 76.363636 
L 11.770414 74.441818 
L 11.747848 72.52 
L 11.726643 70.598182 
L 11.706813 68.676364 
L 11.688358 66.754545 
L 11.671264 64.832727 
L 11.655502 62.910909 
L 11.641037 60.989091 
L 11.62782 59.067273 
L 11.615799 57.145455 
L 11.604912 55.223636 
L 11.595096 53.301818 
L 11.586285 51.38 
L 11.578408 49.458182 
L 11.571397 47.536364 
L 11.565182 45.614545 
L 11.559697 43.692727 
L 11.554876 41.770909 
L 11.550656 39.849091 
L 11.546977 37.927273 
L 11.543783 36.005455 
L 11.541021 34.083636 
L 11.538643 32.161818 
L 11.536603 30.24 
" style="fill:none;stroke:#000000;stroke-linecap:square;stroke-width:1.5;"/>
   </g>
   <g id="line2d_4">
    <path clip-path="url(#p44a2d4c3f7)" d="M 11.729484 220.5 
L 11.777955 218.578182 
L 11.836659 216.656364 
L 11.907428 214.734545 
L 11.992348 212.812727 
L 12.093775 210.890909 
L 12.214351 208.969091 
L 12.357021 207.047273 
L 12.525038 205.125455 
L 12.72197 203.203636 
L 12.951695 201.281818 
L 13.218393 199.36 
L 13.526524 197.438182 
L 13.880803 195.516364 
L 14.286155 193.594545 
L 14.747665 191.672727 
L 15.270515 189.750909 
L 15.859898 187.829091 
L 16.520937 185.907273 
L 17.258572 183.985455 
L 18.077444 182.063636 
L 18.981773 180.141818 
L 19.975216 178.22 
L 21.060727 176.298182 
L 22.240409 174.376364 
L 23.515368 172.454545 
L 24.885569 170.532727 
L 26.349703 168.610909 
L 27.905064 166.689091 
L 29.547443 164.767273 
L 31.271046 162.845455 
L 33.068437 160.923636 
L 34.930513 159.001818 
L 36.846513 157.08 
L 38.804061 155.158182 
L 40.789253 153.236364 
L 42.786779 151.314545 
L 44.780093 149.392727 
L 46.751609 147.470909 
L 48.682947 145.549091 
L 50.5552 143.627273 
L 52.34923 141.705455 
L 54.045993 139.783636 
L 55.626865 137.861818 
L 57.073982 135.94 
L 58.370572 134.018182 
L 59.501279 132.096364 
L 60.452466 130.174545 
L 61.212486 128.252727 
L 61.771923 126.330909 
L 62.123782 124.409091 
L 62.263636 122.487273 
L 62.189721 120.565455 
L 61.90297 118.643636 
L 61.406995 116.721818 
L 60.708009 114.8 
L 59.814703 112.878182 
L 58.738055 110.956364 
L 57.491118 109.034545 
L 56.088747 107.112727 
L 54.547311 105.190909 
L 52.884371 103.269091 
L 51.118353 101.347273 
L 49.268208 99.425455 
L 47.353078 97.503636 
L 45.391976 95.581818 
L 43.403473 93.66 
L 41.405429 91.738182 
L 39.414734 89.816364 
L 37.447099 87.894545 
L 35.516877 85.972727 
L 33.636927 84.050909 
L 31.818514 82.129091 
L 30.071258 80.207273 
L 28.403108 78.285455 
L 26.820358 76.363636 
L 25.3277 74.441818 
L 23.928294 72.52 
L 22.623868 70.598182 
L 21.414837 68.676364 
L 20.300431 66.754545 
L 19.27884 64.832727 
L 18.347357 62.910909 
L 17.502527 60.989091 
L 16.740288 59.067273 
L 16.056116 57.145455 
L 15.445149 55.223636 
L 14.902309 53.301818 
L 14.422415 51.38 
L 14.000273 49.458182 
L 13.630759 47.536364 
L 13.308893 45.614545 
L 13.029891 43.692727 
L 12.78921 41.770909 
L 12.582581 39.849091 
L 12.406032 37.927273 
L 12.255898 36.005455 
L 12.128828 34.083636 
L 12.021785 32.161818 
L 11.932033 30.24 
" style="fill:none;stroke:#808080;stroke-dasharray:5.55,2.4;stroke-dashoffset:0;stroke-width:1.5;"/>
   </g>
   <g id="line2d_5">
    <path clip-path="url(#p44a2d4c3f7)" d="M 11.54736 220.5 
L 11.552623 218.578182 
L 11.559031 216.656364 
L 11.566793 214.734545 
L 11.576148 212.812727 
L 11.587366 210.890909 
L 11.600749 208.969091 
L 11.616633 207.047273 
L 11.635388 205.125455 
L 11.657418 203.203636 
L 11.683161 201.281818 
L 11.713084 199.36 
L 11.747682 197.438182 
L 11.787474 195.516364 
L 11.832994 193.594545 
L 11.884784 191.672727 
L 11.943387 189.750909 
L 12.009335 187.829091 
L 12.083134 185.907273 
L 12.165255 183.985455 
L 12.256114 182.063636 
L 12.356062 180.141818 
L 12.465361 178.22 
L 12.584175 176.298182 
L 12.712548 174.376364 
L 12.850389 172.454545 
L 12.997461 170.532727 
L 13.153363 168.610909 
L 13.317525 166.689091 
L 13.489197 164.767273 
L 13.667448 162.845455 
L 13.851165 160.923636 
L 14.03906 159.001818 
L 14.229675 157.08 
L 14.421402 155.158182 
L 14.612497 153.236364 
L 14.801108 151.314545 
L 14.985297 149.392727 
L 15.163081 147.470909 
L 15.332454 145.549091 
L 15.491436 143.627273 
L 15.638102 141.705455 
L 15.770627 139.783636 
L 15.887319 137.861818 
L 15.986657 135.94 
L 16.067324 134.018182 
L 16.128235 132.096364 
L 16.168562 130.174545 
L 16.187754 128.252727 
L 16.185547 126.330909 
L 16.16197 124.409091 
L 16.117348 122.487273 
L 16.052291 120.565455 
L 15.967682 118.643636 
L 15.864654 116.721818 
L 15.74457 114.8 
L 15.608989 112.878182 
L 15.459633 110.956364 
L 15.298351 109.034545 
L 15.127082 107.112727 
L 14.947815 105.190909 
L 14.762554 103.269091 
L 14.573275 101.347273 
L 14.381902 99.425455 
L 14.190265 97.503636 
L 14.000084 95.581818 
L 13.812936 93.66 
L 13.630244 91.738182 
L 13.453263 89.816364 
L 13.283068 87.894545 
L 13.120553 85.972727 
L 12.966429 84.050909 
L 12.821231 82.129091 
L 12.685326 80.207273 
L 12.558919 78.285455 
L 12.442073 76.363636 
L 12.334716 74.441818 
L 12.236666 72.52 
L 12.147637 70.598182 
L 12.067267 68.676364 
L 11.995125 66.754545 
L 11.930732 64.832727 
L 11.873577 62.910909 
L 11.823123 60.989091 
L 11.778827 59.067273 
L 11.740148 57.145455 
L 11.706554 55.223636 
L 11.677532 53.301818 
L 11.652591 51.38 
L 11.63127 49.458182 
L 11.613139 47.536364 
L 11.597799 45.614545 
L 11.584888 43.692727 
L 11.574078 41.770909 
L 11.565072 39.849091 
L 11.557607 37.927273 
L 11.551451 36.005455 
L 11.546401 34.083636 
L 11.542277 32.161818 
L 11.538928 30.24 
" style="fill:none;stroke:#d3d3d3;stroke-dasharray:1.5,2.475;stroke-dashoffset:0;stroke-width:1.5;"/>
   </g>
   <g id="patch_3">
    <path d="M 9 220.5 
L 9 30.24 
" style="fill:none;stroke:#000000;stroke-linecap:square;stroke-linejoin:miter;stroke-width:0.8;"/>
   </g>
   <g id="legend_1">
    <g id="patch_4">
     <path d="M 16 215.5 
L 132.49375 215.5 
Q 134.49375 215.5 134.49375 213.5 
L 134.49375 171.975 
Q 134.49375 169.975 132.49375 169.975 
L 16 169.975 
Q 14 169.975 14 171.975 
L 14 213.5 
Q 14 215.5 16 215.5 
z
" style="fill:#ffffff;opacity:0.8;stroke:#cccccc;stroke-linejoin:miter;"/>
    </g>
    <g id="line2d_6">
     <path d="M 18 177.6625 
L 38 177.6625 
" style="fill:none;stroke:#000000;stroke-linecap:square;stroke-width:1.5;"/>
    </g>
    <g id="line2d_7"/>
    <g id="text_1">
     <!-- 0.0-300.0 rpm -->
     <g transform="translate(46 181.1625)scale(0.1 -0.1)">
      <defs>
       <path d="M 4.15625 35.296875 
Q 4.15625 48 6.765625 55.734375 
Q 9.375 63.484375 14.515625 67.671875 
Q 19.671875 71.875 27.484375 71.875 
Q 33.25 71.875 37.59375 69.546875 
Q 41.9375 67.234375 44.765625 62.859375 
Q 47.609375 58.5 49.21875 52.21875 
Q 50.828125 45.953125 50.828125 35.296875 
Q 50.828125 22.703125 48.234375 14.96875 
Q 45.65625 7.234375 40.5 3 
Q 35.359375 -1.21875 27.484375 -1.21875 
Q 17.140625 -1.21875 11.234375 6.203125 
Q 4.15625 15.140625 4.15625 35.296875 
z
M 13.1875 35.296875 
Q 13.1875 17.671875 17.3125 11.828125 
Q 21.4375 6 27.484375 6 
Q 33.546875 6 37.671875 11.859375 
Q 41.796875 17.71875 41.796875 35.296875 
Q 41.796875 52.984375 37.671875 58.78125 
Q 33.546875 64.59375 27.390625 64.59375 
Q 21.34375 64.59375 17.71875 59.46875 
Q 13.1875 52.9375 13.1875 35.296875 
z
" id="ArialMT-48"/>
       <path d="M 9.078125 0 
L 9.078125 10.015625 
L 19.09375 10.015625 
L 19.09375 0 
z
" id="ArialMT-46"/>
       <path d="M 3.171875 21.484375 
L 3.171875 30.328125 
L 30.171875 30.328125 
L 30.171875 21.484375 
z
" id="ArialMT-45"/>
       <path d="M 4.203125 18.890625 
L 12.984375 20.0625 
Q 14.5 12.59375 18.140625 9.296875 
Q 21.78125 6 27 6 
Q 33.203125 6 37.46875 10.296875 
Q 41.75 14.59375 41.75 20.953125 
Q 41.75 27 37.796875 30.921875 
Q 33.84375 34.859375 27.734375 34.859375 
Q 25.25 34.859375 21.53125 33.890625 
L 22.515625 41.609375 
Q 23.390625 41.5 23.921875 41.5 
Q 29.546875 41.5 34.03125 44.421875 
Q 38.53125 47.359375 38.53125 53.46875 
Q 38.53125 58.296875 35.25 61.46875 
Q 31.984375 64.65625 26.8125 64.65625 
Q 21.6875 64.65625 18.265625 61.421875 
Q 14.84375 58.203125 13.875 51.765625 
L 5.078125 53.328125 
Q 6.6875 62.15625 12.390625 67.015625 
Q 18.109375 71.875 26.609375 71.875 
Q 32.46875 71.875 37.390625 69.359375 
Q 42.328125 66.84375 44.9375 62.5 
Q 47.5625 58.15625 47.5625 53.265625 
Q 47.5625 48.640625 45.0625 44.828125 
Q 42.578125 41.015625 37.703125 38.765625 
Q 44.046875 37.3125 47.5625 32.6875 
Q 51.078125 28.078125 51.078125 21.140625 
Q 51.078125 11.765625 44.234375 5.25 
Q 37.40625 -1.265625 26.953125 -1.265625 
Q 17.53125 -1.265625 11.296875 4.34375 
Q 5.078125 9.96875 4.203125 18.890625 
z
" id="ArialMT-51"/>
       <path id="ArialMT-32"/>
       <path d="M 6.5 0 
L 6.5 51.859375 
L 14.40625 51.859375 
L 14.40625 44 
Q 17.4375 49.515625 20 51.265625 
Q 22.5625 53.03125 25.640625 53.03125 
Q 30.078125 53.03125 34.671875 50.203125 
L 31.640625 42.046875 
Q 28.421875 43.953125 25.203125 43.953125 
Q 22.3125 43.953125 20.015625 42.21875 
Q 17.71875 40.484375 16.75 37.40625 
Q 15.28125 32.71875 15.28125 27.15625 
L 15.28125 0 
z
" id="ArialMT-114"/>
       <path d="M 6.59375 -19.875 
L 6.59375 51.859375 
L 14.59375 51.859375 
L 14.59375 45.125 
Q 17.4375 49.078125 21 51.046875 
Q 24.5625 53.03125 29.640625 53.03125 
Q 36.28125 53.03125 41.359375 49.609375 
Q 46.4375 46.1875 49.015625 39.953125 
Q 51.609375 33.734375 51.609375 26.3125 
Q 51.609375 18.359375 48.75 11.984375 
Q 45.90625 5.609375 40.453125 2.21875 
Q 35.015625 -1.171875 29 -1.171875 
Q 24.609375 -1.171875 21.109375 0.6875 
Q 17.625 2.546875 15.375 5.375 
L 15.375 -19.875 
z
M 14.546875 25.640625 
Q 14.546875 15.625 18.59375 10.84375 
Q 22.65625 6.0625 28.421875 6.0625 
Q 34.28125 6.0625 38.453125 11.015625 
Q 42.625 15.96875 42.625 26.375 
Q 42.625 36.28125 38.546875 41.203125 
Q 34.46875 46.140625 28.8125 46.140625 
Q 23.1875 46.140625 18.859375 40.890625 
Q 14.546875 35.640625 14.546875 25.640625 
z
" id="ArialMT-112"/>
       <path d="M 6.59375 0 
L 6.59375 51.859375 
L 14.453125 51.859375 
L 14.453125 44.578125 
Q 16.890625 48.390625 20.9375 50.703125 
Q 25 53.03125 30.171875 53.03125 
Q 35.9375 53.03125 39.625 50.640625 
Q 43.3125 48.25 44.828125 43.953125 
Q 50.984375 53.03125 60.84375 53.03125 
Q 68.5625 53.03125 72.703125 48.75 
Q 76.859375 44.484375 76.859375 35.59375 
L 76.859375 0 
L 68.109375 0 
L 68.109375 32.671875 
Q 68.109375 37.9375 67.25 40.25 
Q 66.40625 42.578125 64.15625 43.984375 
Q 61.921875 45.40625 58.890625 45.40625 
Q 53.421875 45.40625 49.796875 41.765625 
Q 46.1875 38.140625 46.1875 30.125 
L 46.1875 0 
L 37.40625 0 
L 37.40625 33.6875 
Q 37.40625 39.546875 35.25 42.46875 
Q 33.109375 45.40625 28.21875 45.40625 
Q 24.515625 45.40625 21.359375 43.453125 
Q 18.21875 41.5 16.796875 37.734375 
Q 15.375 33.984375 15.375 26.90625 
L 15.375 0 
z
" id="ArialMT-109"/>
      </defs>
      <use xlink:href="#ArialMT-48"/>
      <use x="55.615234" xlink:href="#ArialMT-46"/>
      <use x="83.398438" xlink:href="#ArialMT-48"/>
      <use x="139.013672" xlink:href="#ArialMT-45"/>
      <use x="172.314453" xlink:href="#ArialMT-51"/>
      <use x="227.929688" xlink:href="#ArialMT-48"/>
      <use x="283.544922" xlink:href="#ArialMT-48"/>
      <use x="339.160156" xlink:href="#ArialMT-46"/>
      <use x="366.943359" xlink:href="#ArialMT-48"/>
      <use x="422.558594" xlink:href="#ArialMT-32"/>
      <use x="450.341797" xlink:href="#ArialMT-114"/>
      <use x="483.642578" xlink:href="#ArialMT-112"/>
      <use x="539.257812" xlink:href="#ArialMT-109"/>
     </g>
    </g>
    <g id="line2d_8">
     <path d="M 18 191.8375 
L 38 191.8375 
" style="fill:none;stroke:#808080;stroke-dasharray:5.55,2.4;stroke-dashoffset:0;stroke-width:1.5;"/>
    </g>
    <g id="line2d_9"/>
    <g id="text_2">
     <!-- 300.0-1000.0 rpm -->
     <g transform="translate(46 195.3375)scale(0.1 -0.1)">
      <defs>
       <path d="M 37.25 0 
L 28.46875 0 
L 28.46875 56 
Q 25.296875 52.984375 20.140625 49.953125 
Q 14.984375 46.921875 10.890625 45.40625 
L 10.890625 53.90625 
Q 18.265625 57.375 23.78125 62.296875 
Q 29.296875 67.234375 31.59375 71.875 
L 37.25 71.875 
z
" id="ArialMT-49"/>
      </defs>
      <use xlink:href="#ArialMT-51"/>
      <use x="55.615234" xlink:href="#ArialMT-48"/>
      <use x="111.230469" xlink:href="#ArialMT-48"/>
      <use x="166.845703" xlink:href="#ArialMT-46"/>
      <use x="194.628906" xlink:href="#ArialMT-48"/>
      <use x="250.244141" xlink:href="#ArialMT-45"/>
      <use x="283.544922" xlink:href="#ArialMT-49"/>
      <use x="339.160156" xlink:href="#ArialMT-48"/>
      <use x="394.775391" xlink:href="#ArialMT-48"/>
      <use x="450.390625" xlink:href="#ArialMT-48"/>
      <use x="506.005859" xlink:href="#ArialMT-46"/>
      <use x="533.789062" xlink:href="#ArialMT-48"/>
      <use x="589.404297" xlink:href="#ArialMT-32"/>
      <use x="617.1875" xlink:href="#ArialMT-114"/>
      <use x="650.488281" xlink:href="#ArialMT-112"/>
      <use x="706.103516" xlink:href="#ArialMT-109"/>
     </g>
    </g>
    <g id="line2d_10">
     <path d="M 18 206.0125 
L 38 206.0125 
" style="fill:none;stroke:#d3d3d3;stroke-dasharray:1.5,2.475;stroke-dashoffset:0;stroke-width:1.5;"/>
    </g>
    <g id="line2d_11"/>
    <g id="text_3">
     <!-- 1400.0-2575.0 rpm -->
     <g transform="translate(46 209.5125)scale(0.1 -0.1)">
      <defs>
       <path d="M 32.328125 0 
L 32.328125 17.140625 
L 1.265625 17.140625 
L 1.265625 25.203125 
L 33.9375 71.578125 
L 41.109375 71.578125 
L 41.109375 25.203125 
L 50.78125 25.203125 
L 50.78125 17.140625 
L 41.109375 17.140625 
L 41.109375 0 
z
M 32.328125 25.203125 
L 32.328125 57.46875 
L 9.90625 25.203125 
z
" id="ArialMT-52"/>
       <path d="M 50.34375 8.453125 
L 50.34375 0 
L 3.03125 0 
Q 2.9375 3.171875 4.046875 6.109375 
Q 5.859375 10.9375 9.828125 15.625 
Q 13.8125 20.3125 21.34375 26.46875 
Q 33.015625 36.03125 37.109375 41.625 
Q 41.21875 47.21875 41.21875 52.203125 
Q 41.21875 57.421875 37.46875 61 
Q 33.734375 64.59375 27.734375 64.59375 
Q 21.390625 64.59375 17.578125 60.78125 
Q 13.765625 56.984375 13.71875 50.25 
L 4.6875 51.171875 
Q 5.609375 61.28125 11.65625 66.578125 
Q 17.71875 71.875 27.9375 71.875 
Q 38.234375 71.875 44.234375 66.15625 
Q 50.25 60.453125 50.25 52 
Q 50.25 47.703125 48.484375 43.546875 
Q 46.734375 39.40625 42.65625 34.8125 
Q 38.578125 30.21875 29.109375 22.21875 
Q 21.1875 15.578125 18.9375 13.203125 
Q 16.703125 10.84375 15.234375 8.453125 
z
" id="ArialMT-50"/>
       <path d="M 4.15625 18.75 
L 13.375 19.53125 
Q 14.40625 12.796875 18.140625 9.390625 
Q 21.875 6 27.15625 6 
Q 33.5 6 37.890625 10.78125 
Q 42.28125 15.578125 42.28125 23.484375 
Q 42.28125 31 38.0625 35.34375 
Q 33.84375 39.703125 27 39.703125 
Q 22.75 39.703125 19.328125 37.765625 
Q 15.921875 35.84375 13.96875 32.765625 
L 5.71875 33.84375 
L 12.640625 70.609375 
L 48.25 70.609375 
L 48.25 62.203125 
L 19.671875 62.203125 
L 15.828125 42.96875 
Q 22.265625 47.46875 29.34375 47.46875 
Q 38.71875 47.46875 45.15625 40.96875 
Q 51.609375 34.46875 51.609375 24.265625 
Q 51.609375 14.546875 45.953125 7.46875 
Q 39.0625 -1.21875 27.15625 -1.21875 
Q 17.390625 -1.21875 11.203125 4.25 
Q 5.03125 9.71875 4.15625 18.75 
z
" id="ArialMT-53"/>
       <path d="M 4.734375 62.203125 
L 4.734375 70.65625 
L 51.078125 70.65625 
L 51.078125 63.8125 
Q 44.234375 56.546875 37.515625 44.484375 
Q 30.8125 32.421875 27.15625 19.671875 
Q 24.515625 10.6875 23.78125 0 
L 14.75 0 
Q 14.890625 8.453125 18.0625 20.40625 
Q 21.234375 32.375 27.171875 43.484375 
Q 33.109375 54.59375 39.796875 62.203125 
z
" id="ArialMT-55"/>
      </defs>
      <use xlink:href="#ArialMT-49"/>
      <use x="55.615234" xlink:href="#ArialMT-52"/>
      <use x="111.230469" xlink:href="#ArialMT-48"/>
      <use x="166.845703" xlink:href="#ArialMT-48"/>
      <use x="222.460938" xlink:href="#ArialMT-46"/>
      <use x="250.244141" xlink:href="#ArialMT-48"/>
      <use x="305.859375" xlink:href="#ArialMT-45"/>
      <use x="339.160156" xlink:href="#ArialMT-50"/>
      <use x="394.775391" xlink:href="#ArialMT-53"/>
      <use x="450.390625" xlink:href="#ArialMT-55"/>
      <use x="506.005859" xlink:href="#ArialMT-53"/>
      <use x="561.621094" xlink:href="#ArialMT-46"/>
      <use x="589.404297" xlink:href="#ArialMT-48"/>
      <use x="645.019531" xlink:href="#ArialMT-32"/>
      <use x="672.802734" xlink:href="#ArialMT-114"/>
      <use x="706.103516" xlink:href="#ArialMT-112"/>
      <use x="761.71875" xlink:href="#ArialMT-109"/>
     </g>
    </g>
   </g>
  </g>
 </g>
 <defs>
  <clipPath id="p44a2d4c3f7">
   <rect height="190.26" width="55.8" x="9" y="30.24"/>
  </clipPath>
 </defs>
</svg>
