<?xml version="1.0" encoding="utf-8" standalone="no"?>
<!DOCTYPE svg PUBLIC "-//W3C//DTD SVG 1.1//EN"
  "http://www.w3.org/Graphics/SVG/1.1/DTD/svg11.dtd">
<!-- Created with matplotlib (https://matplotlib.org/) -->
<svg height="252pt" version="1.1" viewBox="0 0 72 252" width="72pt" xmlns="http://www.w3.org/2000/svg" xmlns:xlink="http://www.w3.org/1999/xlink">
 <metadata>
  <rdf:RDF xmlns:cc="http://creativecommons.org/ns#" xmlns:dc="http://purl.org/dc/elements/1.1/" xmlns:rdf="http://www.w3.org/1999/02/22-rdf-syntax-ns#">
   <cc:Work>
    <dc:type rdf:resource="http://purl.org/dc/dcmitype/StillImage"/>
    <dc:date>2022-05-31T11:31:52.808163</dc:date>
    <dc:format>image/svg+xml</dc:format>
    <dc:creator>
     <cc:Agent>
      <dc:title>Matplotlib v3.3.4, https://matplotlib.org/</dc:title>
     </cc:Agent>
    </dc:creator>
   </cc:Work>
  </rdf:RDF>
 </metadata>
 <defs>
  <style type="text/css">*{stroke-linecap:butt;stroke-linejoin:round;}</style>
 </defs>
 <g id="figure_1">
  <g id="patch_1">
   <path d="M 0 252 
L 72 252 
L 72 0 
L 0 0 
z
" style="fill:none;"/>
  </g>
  <g id="axes_1">
   <g id="patch_2">
    <path d="M 9 220.5 
L 64.8 220.5 
L 64.8 30.24 
L 9 30.24 
z
" style="fill:#ffffff;"/>
   </g>
   <g id="matplotlib.axis_1">
    <g id="ytick_1">
     <g id="line2d_1">
      <defs>
       <path d="M 0 0 
L -3.5 0 
" id="m45a1a1d76b" style="stroke:#000000;stroke-width:0.8;"/>
      </defs>
      <g>
       <use style="stroke:#000000;stroke-width:0.8;" x="9" xlink:href="#m45a1a1d76b" y="172.935"/>
      </g>
     </g>
    </g>
    <g id="ytick_2">
     <g id="line2d_2">
      <g>
       <use style="stroke:#000000;stroke-width:0.8;" x="9" xlink:href="#m45a1a1d76b" y="77.805"/>
      </g>
     </g>
    </g>
   </g>
   <g id="line2d_3">
    <path clip-path="url(#p8ff298e8a2)" d="M 11.90762 220.5 
L 11.998972 218.578182 
L 12.10699 216.656364 
L 12.23416 214.734545 
L 12.383224 212.812727 
L 12.557187 210.890909 
L 12.759313 208.969091 
L 12.993121 207.047273 
L 13.262375 205.125455 
L 13.57106 203.203636 
L 13.923355 201.281818 
L 14.323597 199.36 
L 14.776233 197.438182 
L 15.285765 195.516364 
L 15.85668 193.594545 
L 16.493375 191.672727 
L 17.200067 189.750909 
L 17.9807 187.829091 
L 18.838839 185.907273 
L 19.777559 183.985455 
L 20.79933 182.063636 
L 21.905898 180.141818 
L 23.098168 178.22 
L 24.376091 176.298182 
L 25.738552 174.376364 
L 27.183275 172.454545 
L 28.706737 170.532727 
L 30.304096 168.610909 
L 31.969149 166.689091 
L 33.694303 164.767273 
L 35.470577 162.845455 
L 37.287628 160.923636 
L 39.133818 159.001818 
L 40.996296 157.08 
L 42.861124 155.158182 
L 44.713426 153.236364 
L 46.537569 151.314545 
L 48.317373 149.392727 
L 50.036334 147.470909 
L 51.677875 145.549091 
L 53.225608 143.627273 
L 54.663602 141.705455 
L 55.976653 139.783636 
L 57.150554 137.861818 
L 58.172344 135.94 
L 59.030552 134.018182 
L 59.715407 132.096364 
L 60.219027 130.174545 
L 60.535566 128.252727 
L 60.661329 126.330909 
L 60.594843 124.409091 
L 60.336888 122.487273 
L 59.890477 120.565455 
L 59.260803 118.643636 
L 58.455135 116.721818 
L 57.482679 114.8 
L 56.354403 112.878182 
L 55.082832 110.956364 
L 53.681816 109.034545 
L 52.166278 107.112727 
L 50.551955 105.190909 
L 48.855121 103.269091 
L 47.092325 101.347273 
L 45.280119 99.425455 
L 43.43481 97.503636 
L 41.572222 95.581818 
L 39.707485 93.66 
L 37.854844 91.738182 
L 36.0275 89.816364 
L 34.237477 87.894545 
L 32.495524 85.972727 
L 30.811048 84.050909 
L 29.192072 82.129091 
L 27.645226 80.207273 
L 26.175768 78.285455 
L 24.787621 76.363636 
L 23.483438 74.441818 
L 22.264681 72.52 
L 21.131719 70.598182 
L 20.083929 68.676364 
L 19.11981 66.754545 
L 18.237106 64.832727 
L 17.432913 62.910909 
L 16.703808 60.989091 
L 16.045951 59.067273 
L 15.455199 57.145455 
L 14.927199 55.223636 
L 14.457485 53.301818 
L 14.041552 51.38 
L 13.674929 49.458182 
L 13.35324 47.536364 
L 13.072252 45.614545 
L 12.827917 43.692727 
L 12.616401 41.770909 
L 12.434108 39.849091 
L 12.277692 37.927273 
L 12.14407 36.005455 
L 12.030419 34.083636 
L 11.934173 32.161818 
L 11.853021 30.24 
" style="fill:none;stroke:#000000;stroke-linecap:square;stroke-width:1.5;"/>
   </g>
   <g id="line2d_4">
    <path clip-path="url(#p8ff298e8a2)" d="M 11.536364 220.5 
L 11.552941 218.578182 
L 11.573376 216.656364 
L 11.59846 214.734545 
L 11.629117 212.812727 
L 11.66642 210.890909 
L 11.711615 208.969091 
L 11.76613 207.047273 
L 11.8316 205.125455 
L 11.90988 203.203636 
L 12.003062 201.281818 
L 12.113493 199.36 
L 12.243781 197.438182 
L 12.396811 195.516364 
L 12.575743 193.594545 
L 12.784019 191.672727 
L 13.025348 189.750909 
L 13.303699 187.829091 
L 13.623278 185.907273 
L 13.988493 183.985455 
L 14.40392 182.063636 
L 14.874244 180.141818 
L 15.404202 178.22 
L 15.998507 176.298182 
L 16.661766 174.376364 
L 17.398379 172.454545 
L 18.21244 170.532727 
L 19.107617 168.610909 
L 20.087038 166.689091 
L 21.153161 164.767273 
L 22.307647 162.845455 
L 23.551234 160.923636 
L 24.883616 159.001818 
L 26.303326 157.08 
L 27.807636 155.158182 
L 29.392466 153.236364 
L 31.052317 151.314545 
L 32.780227 149.392727 
L 34.567752 147.470909 
L 36.404973 145.549091 
L 38.280543 143.627273 
L 40.181759 141.705455 
L 42.094671 139.783636 
L 44.004226 137.861818 
L 45.894442 135.94 
L 47.748615 134.018182 
L 49.549553 132.096364 
L 51.279828 130.174545 
L 52.922057 128.252727 
L 54.459181 126.330909 
L 55.874763 124.409091 
L 57.153274 122.487273 
L 58.28038 120.565455 
L 59.243206 118.643636 
L 60.030581 116.721818 
L 60.633254 114.8 
L 61.044077 112.878182 
L 61.258141 110.956364 
L 61.272879 109.034545 
L 61.088113 107.112727 
L 60.70606 105.190909 
L 60.13129 103.269091 
L 59.370627 101.347273 
L 58.433023 99.425455 
L 57.329379 97.503636 
L 56.072332 95.581818 
L 54.676019 93.66 
L 53.155809 91.738182 
L 51.528023 89.816364 
L 49.809647 87.894545 
L 48.018035 85.972727 
L 46.170624 84.050909 
L 44.28466 82.129091 
L 42.376934 80.207273 
L 40.463546 78.285455 
L 38.559699 76.363636 
L 36.679516 74.441818 
L 34.835891 72.52 
L 33.040377 70.598182 
L 31.303106 68.676364 
L 29.632743 66.754545 
L 28.036466 64.832727 
L 26.519989 62.910909 
L 25.087596 60.989091 
L 23.742211 59.067273 
L 22.48548 57.145455 
L 21.317873 55.223636 
L 20.2388 53.301818 
L 19.246727 51.38 
L 18.339304 49.458182 
L 17.513497 47.536364 
L 16.765708 45.614545 
L 16.0919 43.692727 
L 15.487709 41.770909 
L 14.948554 39.849091 
L 14.469731 37.927273 
L 14.046504 36.005455 
L 13.674173 34.083636 
L 13.348144 32.161818 
L 13.063981 30.24 
" style="fill:none;stroke:#808080;stroke-dasharray:5.55,2.4;stroke-dashoffset:0;stroke-width:1.5;"/>
   </g>
   <g id="line2d_5">
    <path clip-path="url(#p8ff298e8a2)" d="M 11.582308 220.5 
L 11.610028 218.578182 
L 11.643993 216.656364 
L 11.685422 214.734545 
L 11.735723 212.812727 
L 11.796522 210.890909 
L 11.869672 208.969091 
L 11.957279 207.047273 
L 12.061719 205.125455 
L 12.185651 203.203636 
L 12.332029 201.281818 
L 12.504115 199.36 
L 12.705474 197.438182 
L 12.93998 195.516364 
L 13.211793 193.594545 
L 13.52535 191.672727 
L 13.885327 189.750909 
L 14.296602 187.829091 
L 14.7642 185.907273 
L 15.293231 183.985455 
L 15.888806 182.063636 
L 16.55595 180.141818 
L 17.299501 178.22 
L 18.123989 176.298182 
L 19.033512 174.376364 
L 20.031609 172.454545 
L 21.12111 170.532727 
L 22.304001 168.610909 
L 23.581276 166.689091 
L 24.952804 164.767273 
L 26.417192 162.845455 
L 27.971672 160.923636 
L 29.611998 159.001818 
L 31.332366 157.08 
L 33.125364 155.158182 
L 34.981945 153.236364 
L 36.89144 151.314545 
L 38.841599 149.392727 
L 40.818683 147.470909 
L 42.807579 145.549091 
L 44.791965 143.627273 
L 46.754509 141.705455 
L 48.677102 139.783636 
L 50.541123 137.861818 
L 52.327727 135.94 
L 54.018157 134.018182 
L 55.594067 132.096364 
L 57.03785 130.174545 
L 58.332965 128.252727 
L 59.464248 126.330909 
L 60.418211 124.409091 
L 61.183307 122.487273 
L 61.750163 120.565455 
L 62.111772 118.643636 
L 62.263636 116.721818 
L 62.20386 114.8 
L 61.933189 112.878182 
L 61.454997 110.956364 
L 60.775214 109.034545 
L 59.902202 107.112727 
L 58.846589 105.190909 
L 57.621047 103.269091 
L 56.240047 101.347273 
L 54.719566 99.425455 
L 53.076788 97.503636 
L 51.329777 95.581818 
L 49.497151 93.66 
L 47.597756 91.738182 
L 45.650347 89.816364 
L 43.673291 87.894545 
L 41.684289 85.972727 
L 39.700129 84.050909 
L 37.736471 82.129091 
L 35.807672 80.207273 
L 33.926642 78.285455 
L 32.104747 76.363636 
L 30.351743 74.441818 
L 28.675753 72.52 
L 27.083277 70.598182 
L 25.579231 68.676364 
L 24.167015 66.754545 
L 22.848607 64.832727 
L 21.624673 62.910909 
L 20.494691 60.989091 
L 19.457092 59.067273 
L 18.509393 57.145455 
L 17.648348 55.223636 
L 16.870085 53.301818 
L 16.170246 51.38 
L 15.544113 49.458182 
L 14.98673 47.536364 
L 14.493009 45.614545 
L 14.05783 43.692727 
L 13.676124 41.770909 
L 13.34294 39.849091 
L 13.053508 37.927273 
L 12.803284 36.005455 
L 12.587984 34.083636 
L 12.403606 32.161818 
L 12.246452 30.24 
" style="fill:none;stroke:#d3d3d3;stroke-dasharray:1.5,2.475;stroke-dashoffset:0;stroke-width:1.5;"/>
   </g>
   <g id="patch_3">
    <path d="M 9 220.5 
L 9 30.24 
" style="fill:none;stroke:#000000;stroke-linecap:square;stroke-linejoin:miter;stroke-width:0.8;"/>
   </g>
   <g id="legend_1">
    <g id="patch_4">
     <path d="M 16 215.5 
L 101.373437 215.5 
Q 103.373437 215.5 103.373437 213.5 
L 103.373437 172.064063 
Q 103.373437 170.064063 101.373437 170.064063 
L 16 170.064063 
Q 14 170.064063 14 172.064063 
L 14 213.5 
Q 14 215.5 16 215.5 
z
" style="fill:#ffffff;opacity:0.8;stroke:#cccccc;stroke-linejoin:miter;"/>
    </g>
    <g id="line2d_6">
     <path d="M 18 177.721875 
L 38 177.721875 
" style="fill:none;stroke:#000000;stroke-linecap:square;stroke-width:1.5;"/>
    </g>
    <g id="line2d_7"/>
    <g id="text_1">
     <!-- 0.0-147.0 -->
     <g transform="translate(46 181.221875)scale(0.1 -0.1)">
      <defs>
       <path d="M 4.15625 35.296875 
Q 4.15625 48 6.765625 55.734375 
Q 9.375 63.484375 14.515625 67.671875 
Q 19.671875 71.875 27.484375 71.875 
Q 33.25 71.875 37.59375 69.546875 
Q 41.9375 67.234375 44.765625 62.859375 
Q 47.609375 58.5 49.21875 52.21875 
Q 50.828125 45.953125 50.828125 35.296875 
Q 50.828125 22.703125 48.234375 14.96875 
Q 45.65625 7.234375 40.5 3 
Q 35.359375 -1.21875 27.484375 -1.21875 
Q 17.140625 -1.21875 11.234375 6.203125 
Q 4.15625 15.140625 4.15625 35.296875 
z
M 13.1875 35.296875 
Q 13.1875 17.671875 17.3125 11.828125 
Q 21.4375 6 27.484375 6 
Q 33.546875 6 37.671875 11.859375 
Q 41.796875 17.71875 41.796875 35.296875 
Q 41.796875 52.984375 37.671875 58.78125 
Q 33.546875 64.59375 27.390625 64.59375 
Q 21.34375 64.59375 17.71875 59.46875 
Q 13.1875 52.9375 13.1875 35.296875 
z
" id="ArialMT-48"/>
       <path d="M 9.078125 0 
L 9.078125 10.015625 
L 19.09375 10.015625 
L 19.09375 0 
z
" id="ArialMT-46"/>
       <path d="M 3.171875 21.484375 
L 3.171875 30.328125 
L 30.171875 30.328125 
L 30.171875 21.484375 
z
" id="ArialMT-45"/>
       <path d="M 37.25 0 
L 28.46875 0 
L 28.46875 56 
Q 25.296875 52.984375 20.140625 49.953125 
Q 14.984375 46.921875 10.890625 45.40625 
L 10.890625 53.90625 
Q 18.265625 57.375 23.78125 62.296875 
Q 29.296875 67.234375 31.59375 71.875 
L 37.25 71.875 
z
" id="ArialMT-49"/>
       <path d="M 32.328125 0 
L 32.328125 17.140625 
L 1.265625 17.140625 
L 1.265625 25.203125 
L 33.9375 71.578125 
L 41.109375 71.578125 
L 41.109375 25.203125 
L 50.78125 25.203125 
L 50.78125 17.140625 
L 41.109375 17.140625 
L 41.109375 0 
z
M 32.328125 25.203125 
L 32.328125 57.46875 
L 9.90625 25.203125 
z
" id="ArialMT-52"/>
       <path d="M 4.734375 62.203125 
L 4.734375 70.65625 
L 51.078125 70.65625 
L 51.078125 63.8125 
Q 44.234375 56.546875 37.515625 44.484375 
Q 30.8125 32.421875 27.15625 19.671875 
Q 24.515625 10.6875 23.78125 0 
L 14.75 0 
Q 14.890625 8.453125 18.0625 20.40625 
Q 21.234375 32.375 27.171875 43.484375 
Q 33.109375 54.59375 39.796875 62.203125 
z
" id="ArialMT-55"/>
      </defs>
      <use xlink:href="#ArialMT-48"/>
      <use x="55.615234" xlink:href="#ArialMT-46"/>
      <use x="83.398438" xlink:href="#ArialMT-48"/>
      <use x="139.013672" xlink:href="#ArialMT-45"/>
      <use x="172.314453" xlink:href="#ArialMT-49"/>
      <use x="227.929688" xlink:href="#ArialMT-52"/>
      <use x="283.544922" xlink:href="#ArialMT-55"/>
      <use x="339.160156" xlink:href="#ArialMT-46"/>
      <use x="366.943359" xlink:href="#ArialMT-48"/>
     </g>
    </g>
    <g id="line2d_8">
     <path d="M 18 191.867188 
L 38 191.867188 
" style="fill:none;stroke:#808080;stroke-dasharray:5.55,2.4;stroke-dashoffset:0;stroke-width:1.5;"/>
    </g>
    <g id="line2d_9"/>
    <g id="text_2">
     <!-- 147.0-203.0 -->
     <g transform="translate(46 195.367188)scale(0.1 -0.1)">
      <defs>
       <path d="M 50.34375 8.453125 
L 50.34375 0 
L 3.03125 0 
Q 2.9375 3.171875 4.046875 6.109375 
Q 5.859375 10.9375 9.828125 15.625 
Q 13.8125 20.3125 21.34375 26.46875 
Q 33.015625 36.03125 37.109375 41.625 
Q 41.21875 47.21875 41.21875 52.203125 
Q 41.21875 57.421875 37.46875 61 
Q 33.734375 64.59375 27.734375 64.59375 
Q 21.390625 64.59375 17.578125 60.78125 
Q 13.765625 56.984375 13.71875 50.25 
L 4.6875 51.171875 
Q 5.609375 61.28125 11.65625 66.578125 
Q 17.71875 71.875 27.9375 71.875 
Q 38.234375 71.875 44.234375 66.15625 
Q 50.25 60.453125 50.25 52 
Q 50.25 47.703125 48.484375 43.546875 
Q 46.734375 39.40625 42.65625 34.8125 
Q 38.578125 30.21875 29.109375 22.21875 
Q 21.1875 15.578125 18.9375 13.203125 
Q 16.703125 10.84375 15.234375 8.453125 
z
" id="ArialMT-50"/>
       <path d="M 4.203125 18.890625 
L 12.984375 20.0625 
Q 14.5 12.59375 18.140625 9.296875 
Q 21.78125 6 27 6 
Q 33.203125 6 37.46875 10.296875 
Q 41.75 14.59375 41.75 20.953125 
Q 41.75 27 37.796875 30.921875 
Q 33.84375 34.859375 27.734375 34.859375 
Q 25.25 34.859375 21.53125 33.890625 
L 22.515625 41.609375 
Q 23.390625 41.5 23.921875 41.5 
Q 29.546875 41.5 34.03125 44.421875 
Q 38.53125 47.359375 38.53125 53.46875 
Q 38.53125 58.296875 35.25 61.46875 
Q 31.984375 64.65625 26.8125 64.65625 
Q 21.6875 64.65625 18.265625 61.421875 
Q 14.84375 58.203125 13.875 51.765625 
L 5.078125 53.328125 
Q 6.6875 62.15625 12.390625 67.015625 
Q 18.109375 71.875 26.609375 71.875 
Q 32.46875 71.875 37.390625 69.359375 
Q 42.328125 66.84375 44.9375 62.5 
Q 47.5625 58.15625 47.5625 53.265625 
Q 47.5625 48.640625 45.0625 44.828125 
Q 42.578125 41.015625 37.703125 38.765625 
Q 44.046875 37.3125 47.5625 32.6875 
Q 51.078125 28.078125 51.078125 21.140625 
Q 51.078125 11.765625 44.234375 5.25 
Q 37.40625 -1.265625 26.953125 -1.265625 
Q 17.53125 -1.265625 11.296875 4.34375 
Q 5.078125 9.96875 4.203125 18.890625 
z
" id="ArialMT-51"/>
      </defs>
      <use xlink:href="#ArialMT-49"/>
      <use x="55.615234" xlink:href="#ArialMT-52"/>
      <use x="111.230469" xlink:href="#ArialMT-55"/>
      <use x="166.845703" xlink:href="#ArialMT-46"/>
      <use x="194.628906" xlink:href="#ArialMT-48"/>
      <use x="250.244141" xlink:href="#ArialMT-45"/>
      <use x="283.544922" xlink:href="#ArialMT-50"/>
      <use x="339.160156" xlink:href="#ArialMT-48"/>
      <use x="394.775391" xlink:href="#ArialMT-51"/>
      <use x="450.390625" xlink:href="#ArialMT-46"/>
      <use x="478.173828" xlink:href="#ArialMT-48"/>
     </g>
    </g>
    <g id="line2d_10">
     <path d="M 18 206.0125 
L 38 206.0125 
" style="fill:none;stroke:#d3d3d3;stroke-dasharray:1.5,2.475;stroke-dashoffset:0;stroke-width:1.5;"/>
    </g>
    <g id="line2d_11"/>
    <g id="text_3">
     <!-- 203.0-234.0 -->
     <g transform="translate(46 209.5125)scale(0.1 -0.1)">
      <use xlink:href="#ArialMT-50"/>
      <use x="55.615234" xlink:href="#ArialMT-48"/>
      <use x="111.230469" xlink:href="#ArialMT-51"/>
      <use x="166.845703" xlink:href="#ArialMT-46"/>
      <use x="194.628906" xlink:href="#ArialMT-48"/>
      <use x="250.244141" xlink:href="#ArialMT-45"/>
      <use x="283.544922" xlink:href="#ArialMT-50"/>
      <use x="339.160156" xlink:href="#ArialMT-51"/>
      <use x="394.775391" xlink:href="#ArialMT-52"/>
      <use x="450.390625" xlink:href="#ArialMT-46"/>
      <use x="478.173828" xlink:href="#ArialMT-48"/>
     </g>
    </g>
   </g>
  </g>
 </g>
 <defs>
  <clipPath id="p8ff298e8a2">
   <rect height="190.26" width="55.8" x="9" y="30.24"/>
  </clipPath>
 </defs>
</svg>
