<?xml version="1.0" encoding="utf-8" standalone="no"?>
<!DOCTYPE svg PUBLIC "-//W3C//DTD SVG 1.1//EN"
  "http://www.w3.org/Graphics/SVG/1.1/DTD/svg11.dtd">
<!-- Created with matplotlib (https://matplotlib.org/) -->
<svg height="288pt" version="1.1" viewBox="0 0 108 288" width="108pt" xmlns="http://www.w3.org/2000/svg" xmlns:xlink="http://www.w3.org/1999/xlink">
 <metadata>
  <rdf:RDF xmlns:cc="http://creativecommons.org/ns#" xmlns:dc="http://purl.org/dc/elements/1.1/" xmlns:rdf="http://www.w3.org/1999/02/22-rdf-syntax-ns#">
   <cc:Work>
    <dc:type rdf:resource="http://purl.org/dc/dcmitype/StillImage"/>
    <dc:date>2022-06-08T17:38:46.446073</dc:date>
    <dc:format>image/svg+xml</dc:format>
    <dc:creator>
     <cc:Agent>
      <dc:title>Matplotlib v3.3.4, https://matplotlib.org/</dc:title>
     </cc:Agent>
    </dc:creator>
   </cc:Work>
  </rdf:RDF>
 </metadata>
 <defs>
  <style type="text/css">*{stroke-linecap:butt;stroke-linejoin:round;}</style>
 </defs>
 <g id="figure_1">
  <g id="patch_1">
   <path d="M 0 288 
L 108 288 
L 108 0 
L 0 0 
z
" style="fill:none;"/>
  </g>
  <g id="axes_1">
   <g id="patch_2">
    <path d="M 13.5 252 
L 97.2 252 
L 97.2 34.56 
L 13.5 34.56 
z
" style="fill:#ffffff;"/>
   </g>
   <g id="matplotlib.axis_1">
    <g id="ytick_1">
     <g id="line2d_1">
      <defs>
       <path d="M 0 0 
L -3.5 0 
" id="mde393f4b06" style="stroke:#000000;stroke-width:0.8;"/>
      </defs>
      <g>
       <use style="stroke:#000000;stroke-width:0.8;" x="13.5" xlink:href="#mde393f4b06" y="197.64"/>
      </g>
     </g>
     <g id="text_1">
      <!-- 0 -->
      <g transform="translate(0.939062 201.218906)scale(0.1 -0.1)">
       <defs>
        <path d="M 4.15625 35.296875 
Q 4.15625 48 6.765625 55.734375 
Q 9.375 63.484375 14.515625 67.671875 
Q 19.671875 71.875 27.484375 71.875 
Q 33.25 71.875 37.59375 69.546875 
Q 41.9375 67.234375 44.765625 62.859375 
Q 47.609375 58.5 49.21875 52.21875 
Q 50.828125 45.953125 50.828125 35.296875 
Q 50.828125 22.703125 48.234375 14.96875 
Q 45.65625 7.234375 40.5 3 
Q 35.359375 -1.21875 27.484375 -1.21875 
Q 17.140625 -1.21875 11.234375 6.203125 
Q 4.15625 15.140625 4.15625 35.296875 
z
M 13.1875 35.296875 
Q 13.1875 17.671875 17.3125 11.828125 
Q 21.4375 6 27.484375 6 
Q 33.546875 6 37.671875 11.859375 
Q 41.796875 17.71875 41.796875 35.296875 
Q 41.796875 52.984375 37.671875 58.78125 
Q 33.546875 64.59375 27.390625 64.59375 
Q 21.34375 64.59375 17.71875 59.46875 
Q 13.1875 52.9375 13.1875 35.296875 
z
" id="ArialMT-48"/>
       </defs>
       <use xlink:href="#ArialMT-48"/>
      </g>
     </g>
    </g>
    <g id="ytick_2">
     <g id="line2d_2">
      <g>
       <use style="stroke:#000000;stroke-width:0.8;" x="13.5" xlink:href="#mde393f4b06" y="88.92"/>
      </g>
     </g>
     <g id="text_2">
      <!-- 1 -->
      <g transform="translate(0.939062 92.498906)scale(0.1 -0.1)">
       <defs>
        <path d="M 37.25 0 
L 28.46875 0 
L 28.46875 56 
Q 25.296875 52.984375 20.140625 49.953125 
Q 14.984375 46.921875 10.890625 45.40625 
L 10.890625 53.90625 
Q 18.265625 57.375 23.78125 62.296875 
Q 29.296875 67.234375 31.59375 71.875 
L 37.25 71.875 
z
" id="ArialMT-49"/>
       </defs>
       <use xlink:href="#ArialMT-49"/>
      </g>
     </g>
    </g>
   </g>
   <g id="line2d_3">
    <path clip-path="url(#pb10a0a7a67)" d="M 17.612493 252 
L 17.670873 249.803636 
L 17.738764 247.607273 
L 17.817398 245.410909 
L 17.908107 243.214545 
L 18.012321 241.018182 
L 18.131563 238.821818 
L 18.26744 236.625455 
L 18.421635 234.429091 
L 18.595892 232.232727 
L 18.791996 230.036364 
L 19.011757 227.84 
L 19.256983 225.643636 
L 19.529455 223.447273 
L 19.83089 221.250909 
L 20.162913 219.054545 
L 20.527013 216.858182 
L 20.92451 214.661818 
L 21.356505 212.465455 
L 21.823844 210.269091 
L 22.327071 208.072727 
L 22.866384 205.876364 
L 23.441597 203.68 
L 24.052098 201.483636 
L 24.696818 199.287273 
L 25.374197 197.090909 
L 26.082164 194.894545 
L 26.818121 192.698182 
L 27.578934 190.501818 
L 28.360936 188.305455 
L 29.159936 186.109091 
L 29.971246 183.912727 
L 30.789711 181.716364 
L 31.609755 179.52 
L 32.425433 177.323636 
L 33.2305 175.127273 
L 34.018485 172.930909 
L 34.782769 170.734545 
L 35.516683 168.538182 
L 36.213594 166.341818 
L 36.867011 164.145455 
L 37.470678 161.949091 
L 38.018681 159.752727 
L 38.505535 157.556364 
L 38.926283 155.36 
L 39.276576 153.163636 
L 39.552748 150.967273 
L 39.751882 148.770909 
L 39.871857 146.574545 
L 39.911392 144.378182 
L 39.870063 142.181818 
L 39.748312 139.985455 
L 39.547441 137.789091 
L 39.269587 135.592727 
L 38.917687 133.396364 
L 38.495421 131.2 
L 38.007153 129.003636 
L 37.457852 126.807273 
L 36.853014 124.610909 
L 36.198563 122.414545 
L 35.500758 120.218182 
L 34.766098 118.021818 
L 34.001214 115.825455 
L 33.212779 113.629091 
L 32.407406 111.432727 
L 31.591564 109.236364 
L 30.771492 107.04 
L 29.953127 104.843636 
L 29.142036 102.647273 
L 28.343364 100.450909 
L 27.56179 98.254545 
L 26.801491 96.058182 
L 26.066124 93.861818 
L 25.358809 91.665455 
L 24.682135 89.469091 
L 24.038161 87.272727 
L 23.428434 85.076364 
L 22.854013 82.88 
L 22.315501 80.683636 
L 21.813075 78.487273 
L 21.346528 76.290909 
L 20.915309 74.094545 
L 20.518567 71.898182 
L 20.155195 69.701818 
L 19.823868 67.505455 
L 19.523094 65.309091 
L 19.251247 63.112727 
L 19.006605 60.916364 
L 18.787389 58.72 
L 18.591791 56.523636 
L 18.417999 54.327273 
L 18.264229 52.130909 
L 18.128739 49.934545 
L 18.009848 47.738182 
L 17.905951 45.541818 
L 17.815525 43.345455 
L 17.737144 41.149091 
L 17.669478 38.952727 
L 17.611295 36.756364 
L 17.561468 34.56 
" style="fill:none;stroke:#1e90ff;stroke-dasharray:5.55,2.4;stroke-dashoffset:0;stroke-width:1.5;"/>
   </g>
   <g id="patch_3">
    <path d="M 13.5 252 
L 13.5 34.56 
" style="fill:none;stroke:#000000;stroke-linecap:square;stroke-linejoin:miter;stroke-width:0.8;"/>
   </g>
   <g id="line2d_4">
    <path clip-path="url(#pb10a0a7a67)" d="M 17.304545 252 
L 17.304545 249.803636 
L 17.304545 247.607273 
L 17.304545 245.410909 
L 17.304545 243.214545 
L 17.304546 241.018182 
L 17.304546 238.821818 
L 17.304546 236.625455 
L 17.304548 234.429091 
L 17.304553 232.232727 
L 17.304568 230.036364 
L 17.304614 227.84 
L 17.304739 225.643636 
L 17.305075 223.447273 
L 17.305933 221.250909 
L 17.308039 219.054545 
L 17.31299 216.858182 
L 17.324139 214.661818 
L 17.348194 212.465455 
L 17.397889 210.269091 
L 17.496182 208.072727 
L 17.682247 205.876364 
L 18.019196 203.68 
L 18.602664 201.483636 
L 19.568202 199.287273 
L 21.094049 197.090909 
L 23.394717 194.894545 
L 26.700747 192.698182 
L 31.221705 190.501818 
L 37.09357 188.305455 
L 44.317598 186.109091 
L 52.704154 183.912727 
L 61.839268 181.716364 
L 71.091202 179.52 
L 79.667381 177.323636 
L 86.719438 175.127273 
L 91.479103 172.930909 
L 93.395455 170.734545 
L 92.239783 168.538182 
L 88.150475 166.341818 
L 81.605767 164.145455 
L 73.331762 161.949091 
L 64.170166 159.752727 
L 54.938963 157.556364 
L 46.317472 155.36 
L 38.776589 153.163636 
L 32.560195 150.967273 
L 27.71006 148.770909 
L 24.118071 146.574545 
L 21.587621 144.378182 
L 19.889275 142.181818 
L 18.801987 139.985455 
L 18.137383 137.789091 
L 17.749224 135.592727 
L 17.532479 133.396364 
L 17.416707 131.2 
L 17.357531 129.003636 
L 17.328575 126.807273 
L 17.315007 124.610909 
L 17.308918 122.414545 
L 17.3063 120.218182 
L 17.305221 118.021818 
L 17.304795 115.825455 
L 17.304634 113.629091 
L 17.304576 111.432727 
L 17.304555 109.236364 
L 17.304549 107.04 
L 17.304546 104.843636 
L 17.304546 102.647273 
L 17.304546 100.450909 
L 17.304545 98.254545 
L 17.304545 96.058182 
L 17.304545 93.861818 
L 17.304545 91.665455 
L 17.304545 89.469091 
L 17.304545 87.272727 
L 17.304545 85.076364 
L 17.304545 82.88 
L 17.304545 80.683636 
L 17.304545 78.487273 
L 17.304545 76.290909 
L 17.304545 74.094545 
L 17.304545 71.898182 
L 17.304545 69.701818 
L 17.304545 67.505455 
L 17.304545 65.309091 
L 17.304545 63.112727 
L 17.304545 60.916364 
L 17.304545 58.72 
L 17.304545 56.523636 
L 17.304545 54.327273 
L 17.304545 52.130909 
L 17.304545 49.934545 
L 17.304545 47.738182 
L 17.304545 45.541818 
L 17.304545 43.345455 
L 17.304545 41.149091 
L 17.304545 38.952727 
L 17.304545 36.756364 
L 17.304545 34.56 
" style="fill:none;stroke:#808080;stroke-linecap:square;stroke-width:1.5;"/>
   </g>
   <g id="line2d_5">
    <path clip-path="url(#pb10a0a7a67)" d="M 17.304545 252 
L 17.304545 249.803636 
L 17.304545 247.607273 
L 17.304545 245.410909 
L 17.304545 243.214545 
L 17.304545 241.018182 
L 17.304546 238.821818 
L 17.304546 236.625455 
L 17.304546 234.429091 
L 17.304548 232.232727 
L 17.304553 230.036364 
L 17.304568 227.84 
L 17.304614 225.643636 
L 17.304739 223.447273 
L 17.305075 221.250909 
L 17.305933 219.054545 
L 17.308039 216.858182 
L 17.31299 214.661818 
L 17.324139 212.465455 
L 17.348194 210.269091 
L 17.397889 208.072727 
L 17.496182 205.876364 
L 17.682247 203.68 
L 18.019196 201.483636 
L 18.602664 199.287273 
L 19.568202 197.090909 
L 21.094049 194.894545 
L 23.394717 192.698182 
L 26.700747 190.501818 
L 31.221705 188.305455 
L 37.09357 186.109091 
L 44.317598 183.912727 
L 52.704154 181.716364 
L 61.839268 179.52 
L 71.091202 177.323636 
L 79.667381 175.127273 
L 86.719438 172.930909 
L 91.479103 170.734545 
L 93.395455 168.538182 
L 92.239783 166.341818 
L 88.150475 164.145455 
L 81.605767 161.949091 
L 73.331762 159.752727 
L 64.170166 157.556364 
L 54.938963 155.36 
L 46.317472 153.163636 
L 38.776589 150.967273 
L 32.560195 148.770909 
L 27.71006 146.574545 
L 24.118071 144.378182 
L 21.587621 142.181818 
L 19.889275 139.985455 
L 18.801987 137.789091 
L 18.137383 135.592727 
L 17.749224 133.396364 
L 17.532479 131.2 
L 17.416707 129.003636 
L 17.357531 126.807273 
L 17.328575 124.610909 
L 17.315007 122.414545 
L 17.308918 120.218182 
L 17.3063 118.021818 
L 17.305221 115.825455 
L 17.304795 113.629091 
L 17.304634 111.432727 
L 17.304576 109.236364 
L 17.304555 107.04 
L 17.304549 104.843636 
L 17.304546 102.647273 
L 17.304546 100.450909 
L 17.304546 98.254545 
L 17.304545 96.058182 
L 17.304545 93.861818 
L 17.304545 91.665455 
L 17.304545 89.469091 
L 17.304545 87.272727 
L 17.304545 85.076364 
L 17.304545 82.88 
L 17.304545 80.683636 
L 17.304545 78.487273 
L 17.304545 76.290909 
L 17.304545 74.094545 
L 17.304545 71.898182 
L 17.304545 69.701818 
L 17.304545 67.505455 
L 17.304545 65.309091 
L 17.304545 63.112727 
L 17.304545 60.916364 
L 17.304545 58.72 
L 17.304545 56.523636 
L 17.304545 54.327273 
L 17.304545 52.130909 
L 17.304545 49.934545 
L 17.304545 47.738182 
L 17.304545 45.541818 
L 17.304545 43.345455 
L 17.304545 41.149091 
L 17.304545 38.952727 
L 17.304545 36.756364 
L 17.304545 34.56 
" style="fill:none;stroke:#cc78bc;stroke-linecap:square;stroke-width:1.5;"/>
   </g>
   <g id="PathCollection_1">
    <defs>
     <path d="M 0 -3.535534 
L -0.793777 -1.09254 
L -3.362493 -1.09254 
L -1.284358 0.417313 
L -2.078135 2.860307 
L -0 1.350454 
L 2.078135 2.860307 
L 1.284358 0.417313 
L 3.362493 -1.09254 
L 0.793777 -1.09254 
z
" id="m823bdf8f8e" style="stroke:#029e73;"/>
    </defs>
    <g clip-path="url(#pb10a0a7a67)">
     <use style="fill:#029e73;stroke:#029e73;" x="93.395455" xlink:href="#m823bdf8f8e" y="168.538182"/>
    </g>
   </g>
   <g id="legend_1">
    <g id="patch_4">
     <path d="M 20.5 99.14125 
L 97.53125 99.14125 
Q 99.53125 99.14125 99.53125 97.14125 
L 99.53125 41.56 
Q 99.53125 39.56 97.53125 39.56 
L 20.5 39.56 
Q 18.5 39.56 18.5 41.56 
L 18.5 97.14125 
Q 18.5 99.14125 20.5 99.14125 
z
" style="fill:#ffffff;opacity:0.8;stroke:#cccccc;stroke-linejoin:miter;"/>
    </g>
    <g id="line2d_6">
     <path d="M 22.5 47.217813 
L 42.5 47.217813 
" style="fill:none;stroke:#1e90ff;stroke-dasharray:5.55,2.4;stroke-dashoffset:0;stroke-width:1.5;"/>
    </g>
    <g id="line2d_7"/>
    <g id="text_3">
     <!-- Prior -->
     <g transform="translate(50.5 50.717813)scale(0.1 -0.1)">
      <defs>
       <path d="M 7.71875 0 
L 7.71875 71.578125 
L 34.71875 71.578125 
Q 41.84375 71.578125 45.609375 70.90625 
Q 50.875 70.015625 54.4375 67.546875 
Q 58.015625 65.09375 60.1875 60.640625 
Q 62.359375 56.203125 62.359375 50.875 
Q 62.359375 41.75 56.546875 35.421875 
Q 50.734375 29.109375 35.546875 29.109375 
L 17.1875 29.109375 
L 17.1875 0 
z
M 17.1875 37.546875 
L 35.6875 37.546875 
Q 44.875 37.546875 48.734375 40.96875 
Q 52.59375 44.390625 52.59375 50.59375 
Q 52.59375 55.078125 50.3125 58.265625 
Q 48.046875 61.46875 44.34375 62.5 
Q 41.9375 63.140625 35.5 63.140625 
L 17.1875 63.140625 
z
" id="ArialMT-80"/>
       <path d="M 6.5 0 
L 6.5 51.859375 
L 14.40625 51.859375 
L 14.40625 44 
Q 17.4375 49.515625 20 51.265625 
Q 22.5625 53.03125 25.640625 53.03125 
Q 30.078125 53.03125 34.671875 50.203125 
L 31.640625 42.046875 
Q 28.421875 43.953125 25.203125 43.953125 
Q 22.3125 43.953125 20.015625 42.21875 
Q 17.71875 40.484375 16.75 37.40625 
Q 15.28125 32.71875 15.28125 27.15625 
L 15.28125 0 
z
" id="ArialMT-114"/>
       <path d="M 6.640625 61.46875 
L 6.640625 71.578125 
L 15.4375 71.578125 
L 15.4375 61.46875 
z
M 6.640625 0 
L 6.640625 51.859375 
L 15.4375 51.859375 
L 15.4375 0 
z
" id="ArialMT-105"/>
       <path d="M 3.328125 25.921875 
Q 3.328125 40.328125 11.328125 47.265625 
Q 18.015625 53.03125 27.640625 53.03125 
Q 38.328125 53.03125 45.109375 46.015625 
Q 51.90625 39.015625 51.90625 26.65625 
Q 51.90625 16.65625 48.90625 10.90625 
Q 45.90625 5.171875 40.15625 2 
Q 34.421875 -1.171875 27.640625 -1.171875 
Q 16.75 -1.171875 10.03125 5.8125 
Q 3.328125 12.796875 3.328125 25.921875 
z
M 12.359375 25.921875 
Q 12.359375 15.96875 16.703125 11.015625 
Q 21.046875 6.0625 27.640625 6.0625 
Q 34.1875 6.0625 38.53125 11.03125 
Q 42.875 16.015625 42.875 26.21875 
Q 42.875 35.84375 38.5 40.796875 
Q 34.125 45.75 27.640625 45.75 
Q 21.046875 45.75 16.703125 40.8125 
Q 12.359375 35.890625 12.359375 25.921875 
z
" id="ArialMT-111"/>
      </defs>
      <use xlink:href="#ArialMT-80"/>
      <use x="66.699219" xlink:href="#ArialMT-114"/>
      <use x="100" xlink:href="#ArialMT-105"/>
      <use x="122.216797" xlink:href="#ArialMT-111"/>
      <use x="177.832031" xlink:href="#ArialMT-114"/>
     </g>
    </g>
    <g id="line2d_8">
     <path d="M 22.5 61.363125 
L 42.5 61.363125 
" style="fill:none;stroke:#808080;stroke-linecap:square;stroke-width:1.5;"/>
    </g>
    <g id="line2d_9"/>
    <g id="text_4">
     <!-- Likelihood -->
     <g transform="translate(50.5 64.863125)scale(0.1 -0.1)">
      <defs>
       <path d="M 7.328125 0 
L 7.328125 71.578125 
L 16.796875 71.578125 
L 16.796875 8.453125 
L 52.046875 8.453125 
L 52.046875 0 
z
" id="ArialMT-76"/>
       <path d="M 6.640625 0 
L 6.640625 71.578125 
L 15.4375 71.578125 
L 15.4375 30.765625 
L 36.234375 51.859375 
L 47.609375 51.859375 
L 27.78125 32.625 
L 49.609375 0 
L 38.765625 0 
L 21.625 26.515625 
L 15.4375 20.5625 
L 15.4375 0 
z
" id="ArialMT-107"/>
       <path d="M 42.09375 16.703125 
L 51.171875 15.578125 
Q 49.03125 7.625 43.21875 3.21875 
Q 37.40625 -1.171875 28.375 -1.171875 
Q 17 -1.171875 10.328125 5.828125 
Q 3.65625 12.84375 3.65625 25.484375 
Q 3.65625 38.578125 10.390625 45.796875 
Q 17.140625 53.03125 27.875 53.03125 
Q 38.28125 53.03125 44.875 45.953125 
Q 51.46875 38.875 51.46875 26.03125 
Q 51.46875 25.25 51.421875 23.6875 
L 12.75 23.6875 
Q 13.234375 15.140625 17.578125 10.59375 
Q 21.921875 6.0625 28.421875 6.0625 
Q 33.25 6.0625 36.671875 8.59375 
Q 40.09375 11.140625 42.09375 16.703125 
z
M 13.234375 30.90625 
L 42.1875 30.90625 
Q 41.609375 37.453125 38.875 40.71875 
Q 34.671875 45.796875 27.984375 45.796875 
Q 21.921875 45.796875 17.796875 41.75 
Q 13.671875 37.703125 13.234375 30.90625 
z
" id="ArialMT-101"/>
       <path d="M 6.390625 0 
L 6.390625 71.578125 
L 15.1875 71.578125 
L 15.1875 0 
z
" id="ArialMT-108"/>
       <path d="M 6.59375 0 
L 6.59375 71.578125 
L 15.375 71.578125 
L 15.375 45.90625 
Q 21.53125 53.03125 30.90625 53.03125 
Q 36.671875 53.03125 40.921875 50.75 
Q 45.171875 48.484375 47 44.484375 
Q 48.828125 40.484375 48.828125 32.859375 
L 48.828125 0 
L 40.046875 0 
L 40.046875 32.859375 
Q 40.046875 39.453125 37.1875 42.453125 
Q 34.328125 45.453125 29.109375 45.453125 
Q 25.203125 45.453125 21.75 43.421875 
Q 18.3125 41.40625 16.84375 37.9375 
Q 15.375 34.46875 15.375 28.375 
L 15.375 0 
z
" id="ArialMT-104"/>
       <path d="M 40.234375 0 
L 40.234375 6.546875 
Q 35.296875 -1.171875 25.734375 -1.171875 
Q 19.53125 -1.171875 14.328125 2.25 
Q 9.125 5.671875 6.265625 11.796875 
Q 3.421875 17.921875 3.421875 25.875 
Q 3.421875 33.640625 6 39.96875 
Q 8.59375 46.296875 13.765625 49.65625 
Q 18.953125 53.03125 25.34375 53.03125 
Q 30.03125 53.03125 33.6875 51.046875 
Q 37.359375 49.078125 39.65625 45.90625 
L 39.65625 71.578125 
L 48.390625 71.578125 
L 48.390625 0 
z
M 12.453125 25.875 
Q 12.453125 15.921875 16.640625 10.984375 
Q 20.84375 6.0625 26.5625 6.0625 
Q 32.328125 6.0625 36.34375 10.765625 
Q 40.375 15.484375 40.375 25.140625 
Q 40.375 35.796875 36.265625 40.765625 
Q 32.171875 45.75 26.171875 45.75 
Q 20.3125 45.75 16.375 40.96875 
Q 12.453125 36.1875 12.453125 25.875 
z
" id="ArialMT-100"/>
      </defs>
      <use xlink:href="#ArialMT-76"/>
      <use x="55.615234" xlink:href="#ArialMT-105"/>
      <use x="77.832031" xlink:href="#ArialMT-107"/>
      <use x="127.832031" xlink:href="#ArialMT-101"/>
      <use x="183.447266" xlink:href="#ArialMT-108"/>
      <use x="205.664062" xlink:href="#ArialMT-105"/>
      <use x="227.880859" xlink:href="#ArialMT-104"/>
      <use x="283.496094" xlink:href="#ArialMT-111"/>
      <use x="339.111328" xlink:href="#ArialMT-111"/>
      <use x="394.726562" xlink:href="#ArialMT-100"/>
     </g>
    </g>
    <g id="line2d_10">
     <path d="M 22.5 75.508438 
L 42.5 75.508438 
" style="fill:none;stroke:#cc78bc;stroke-linecap:square;stroke-width:1.5;"/>
    </g>
    <g id="line2d_11"/>
    <g id="text_5">
     <!-- Posterior -->
     <g transform="translate(50.5 79.008438)scale(0.1 -0.1)">
      <defs>
       <path d="M 3.078125 15.484375 
L 11.765625 16.84375 
Q 12.5 11.625 15.84375 8.84375 
Q 19.1875 6.0625 25.203125 6.0625 
Q 31.25 6.0625 34.171875 8.515625 
Q 37.109375 10.984375 37.109375 14.3125 
Q 37.109375 17.28125 34.515625 19 
Q 32.71875 20.171875 25.53125 21.96875 
Q 15.875 24.421875 12.140625 26.203125 
Q 8.40625 27.984375 6.46875 31.125 
Q 4.546875 34.28125 4.546875 38.09375 
Q 4.546875 41.546875 6.125 44.5 
Q 7.71875 47.46875 10.453125 49.421875 
Q 12.5 50.921875 16.03125 51.96875 
Q 19.578125 53.03125 23.640625 53.03125 
Q 29.734375 53.03125 34.34375 51.265625 
Q 38.96875 49.515625 41.15625 46.5 
Q 43.359375 43.5 44.1875 38.484375 
L 35.59375 37.3125 
Q 35.015625 41.3125 32.203125 43.546875 
Q 29.390625 45.796875 24.265625 45.796875 
Q 18.21875 45.796875 15.625 43.796875 
Q 13.03125 41.796875 13.03125 39.109375 
Q 13.03125 37.40625 14.109375 36.03125 
Q 15.1875 34.625 17.484375 33.6875 
Q 18.796875 33.203125 25.25 31.453125 
Q 34.578125 28.953125 38.25 27.359375 
Q 41.9375 25.78125 44.03125 22.75 
Q 46.140625 19.734375 46.140625 15.234375 
Q 46.140625 10.84375 43.578125 6.953125 
Q 41.015625 3.078125 36.171875 0.953125 
Q 31.34375 -1.171875 25.25 -1.171875 
Q 15.140625 -1.171875 9.84375 3.03125 
Q 4.546875 7.234375 3.078125 15.484375 
z
" id="ArialMT-115"/>
       <path d="M 25.78125 7.859375 
L 27.046875 0.09375 
Q 23.34375 -0.6875 20.40625 -0.6875 
Q 15.625 -0.6875 12.984375 0.828125 
Q 10.359375 2.34375 9.28125 4.8125 
Q 8.203125 7.28125 8.203125 15.1875 
L 8.203125 45.015625 
L 1.765625 45.015625 
L 1.765625 51.859375 
L 8.203125 51.859375 
L 8.203125 64.703125 
L 16.9375 69.96875 
L 16.9375 51.859375 
L 25.78125 51.859375 
L 25.78125 45.015625 
L 16.9375 45.015625 
L 16.9375 14.703125 
Q 16.9375 10.9375 17.40625 9.859375 
Q 17.875 8.796875 18.921875 8.15625 
Q 19.96875 7.515625 21.921875 7.515625 
Q 23.390625 7.515625 25.78125 7.859375 
z
" id="ArialMT-116"/>
      </defs>
      <use xlink:href="#ArialMT-80"/>
      <use x="66.699219" xlink:href="#ArialMT-111"/>
      <use x="122.314453" xlink:href="#ArialMT-115"/>
      <use x="172.314453" xlink:href="#ArialMT-116"/>
      <use x="200.097656" xlink:href="#ArialMT-101"/>
      <use x="255.712891" xlink:href="#ArialMT-114"/>
      <use x="289.013672" xlink:href="#ArialMT-105"/>
      <use x="311.230469" xlink:href="#ArialMT-111"/>
      <use x="366.845703" xlink:href="#ArialMT-114"/>
     </g>
    </g>
    <g id="PathCollection_2">
     <g>
      <use style="fill:#029e73;stroke:#029e73;" x="32.5" xlink:href="#m823bdf8f8e" y="90.52875"/>
     </g>
    </g>
    <g id="text_6">
     <!-- Estimate -->
     <g transform="translate(50.5 93.15375)scale(0.1 -0.1)">
      <defs>
       <path d="M 7.90625 0 
L 7.90625 71.578125 
L 59.671875 71.578125 
L 59.671875 63.140625 
L 17.390625 63.140625 
L 17.390625 41.21875 
L 56.984375 41.21875 
L 56.984375 32.8125 
L 17.390625 32.8125 
L 17.390625 8.453125 
L 61.328125 8.453125 
L 61.328125 0 
z
" id="ArialMT-69"/>
       <path d="M 6.59375 0 
L 6.59375 51.859375 
L 14.453125 51.859375 
L 14.453125 44.578125 
Q 16.890625 48.390625 20.9375 50.703125 
Q 25 53.03125 30.171875 53.03125 
Q 35.9375 53.03125 39.625 50.640625 
Q 43.3125 48.25 44.828125 43.953125 
Q 50.984375 53.03125 60.84375 53.03125 
Q 68.5625 53.03125 72.703125 48.75 
Q 76.859375 44.484375 76.859375 35.59375 
L 76.859375 0 
L 68.109375 0 
L 68.109375 32.671875 
Q 68.109375 37.9375 67.25 40.25 
Q 66.40625 42.578125 64.15625 43.984375 
Q 61.921875 45.40625 58.890625 45.40625 
Q 53.421875 45.40625 49.796875 41.765625 
Q 46.1875 38.140625 46.1875 30.125 
L 46.1875 0 
L 37.40625 0 
L 37.40625 33.6875 
Q 37.40625 39.546875 35.25 42.46875 
Q 33.109375 45.40625 28.21875 45.40625 
Q 24.515625 45.40625 21.359375 43.453125 
Q 18.21875 41.5 16.796875 37.734375 
Q 15.375 33.984375 15.375 26.90625 
L 15.375 0 
z
" id="ArialMT-109"/>
       <path d="M 40.4375 6.390625 
Q 35.546875 2.25 31.03125 0.53125 
Q 26.515625 -1.171875 21.34375 -1.171875 
Q 12.796875 -1.171875 8.203125 3 
Q 3.609375 7.171875 3.609375 13.671875 
Q 3.609375 17.484375 5.34375 20.625 
Q 7.078125 23.78125 9.890625 25.6875 
Q 12.703125 27.59375 16.21875 28.5625 
Q 18.796875 29.25 24.03125 29.890625 
Q 34.671875 31.15625 39.703125 32.90625 
Q 39.75 34.71875 39.75 35.203125 
Q 39.75 40.578125 37.25 42.78125 
Q 33.890625 45.75 27.25 45.75 
Q 21.046875 45.75 18.09375 43.578125 
Q 15.140625 41.40625 13.71875 35.890625 
L 5.125 37.0625 
Q 6.296875 42.578125 8.984375 45.96875 
Q 11.671875 49.359375 16.75 51.1875 
Q 21.828125 53.03125 28.515625 53.03125 
Q 35.15625 53.03125 39.296875 51.46875 
Q 43.453125 49.90625 45.40625 47.53125 
Q 47.359375 45.171875 48.140625 41.546875 
Q 48.578125 39.3125 48.578125 33.453125 
L 48.578125 21.734375 
Q 48.578125 9.46875 49.140625 6.21875 
Q 49.703125 2.984375 51.375 0 
L 42.1875 0 
Q 40.828125 2.734375 40.4375 6.390625 
z
M 39.703125 26.03125 
Q 34.90625 24.078125 25.34375 22.703125 
Q 19.921875 21.921875 17.671875 20.9375 
Q 15.4375 19.96875 14.203125 18.09375 
Q 12.984375 16.21875 12.984375 13.921875 
Q 12.984375 10.40625 15.640625 8.0625 
Q 18.3125 5.71875 23.4375 5.71875 
Q 28.515625 5.71875 32.46875 7.9375 
Q 36.421875 10.15625 38.28125 14.015625 
Q 39.703125 17 39.703125 22.796875 
z
" id="ArialMT-97"/>
      </defs>
      <use xlink:href="#ArialMT-69"/>
      <use x="66.699219" xlink:href="#ArialMT-115"/>
      <use x="116.699219" xlink:href="#ArialMT-116"/>
      <use x="144.482422" xlink:href="#ArialMT-105"/>
      <use x="166.699219" xlink:href="#ArialMT-109"/>
      <use x="250" xlink:href="#ArialMT-97"/>
      <use x="305.615234" xlink:href="#ArialMT-116"/>
      <use x="333.398438" xlink:href="#ArialMT-101"/>
     </g>
    </g>
   </g>
  </g>
 </g>
 <defs>
  <clipPath id="pb10a0a7a67">
   <rect height="217.44" width="83.7" x="13.5" y="34.56"/>
  </clipPath>
 </defs>
</svg>
