<?xml version="1.0" encoding="utf-8" standalone="no"?>
<!DOCTYPE svg PUBLIC "-//W3C//DTD SVG 1.1//EN"
  "http://www.w3.org/Graphics/SVG/1.1/DTD/svg11.dtd">
<!-- Created with matplotlib (https://matplotlib.org/) -->
<svg height="252pt" version="1.1" viewBox="0 0 72 252" width="72pt" xmlns="http://www.w3.org/2000/svg" xmlns:xlink="http://www.w3.org/1999/xlink">
 <metadata>
  <rdf:RDF xmlns:cc="http://creativecommons.org/ns#" xmlns:dc="http://purl.org/dc/elements/1.1/" xmlns:rdf="http://www.w3.org/1999/02/22-rdf-syntax-ns#">
   <cc:Work>
    <dc:type rdf:resource="http://purl.org/dc/dcmitype/StillImage"/>
    <dc:date>2022-06-08T17:38:46.558267</dc:date>
    <dc:format>image/svg+xml</dc:format>
    <dc:creator>
     <cc:Agent>
      <dc:title>Matplotlib v3.3.4, https://matplotlib.org/</dc:title>
     </cc:Agent>
    </dc:creator>
   </cc:Work>
  </rdf:RDF>
 </metadata>
 <defs>
  <style type="text/css">*{stroke-linecap:butt;stroke-linejoin:round;}</style>
 </defs>
 <g id="figure_1">
  <g id="patch_1">
   <path d="M 0 252 
L 72 252 
L 72 0 
L 0 0 
z
" style="fill:none;"/>
  </g>
  <g id="axes_1">
   <g id="patch_2">
    <path d="M 9 220.5 
L 64.8 220.5 
L 64.8 30.24 
L 9 30.24 
z
" style="fill:#ffffff;"/>
   </g>
   <g id="matplotlib.axis_1">
    <g id="ytick_1">
     <g id="line2d_1">
      <defs>
       <path d="M 0 0 
L -3.5 0 
" id="mc4433d90f0" style="stroke:#000000;stroke-width:0.8;"/>
      </defs>
      <g>
       <use style="stroke:#000000;stroke-width:0.8;" x="9" xlink:href="#mc4433d90f0" y="172.935"/>
      </g>
     </g>
    </g>
    <g id="ytick_2">
     <g id="line2d_2">
      <g>
       <use style="stroke:#000000;stroke-width:0.8;" x="9" xlink:href="#mc4433d90f0" y="77.805"/>
      </g>
     </g>
    </g>
   </g>
   <g id="line2d_3">
    <path clip-path="url(#pfba4a14ff3)" d="M 12.594737 220.5 
L 12.808629 218.578182 
L 13.05627 216.656364 
L 13.341686 214.734545 
L 13.669135 212.812727 
L 14.043082 210.890909 
L 14.468154 208.969091 
L 14.949088 207.047273 
L 15.490669 205.125455 
L 16.097654 203.203636 
L 16.774689 201.281818 
L 17.526208 199.36 
L 18.356332 197.438182 
L 19.268754 195.516364 
L 20.266614 193.594545 
L 21.352376 191.672727 
L 22.527702 189.750909 
L 23.793319 187.829091 
L 25.148903 185.907273 
L 26.592961 183.985455 
L 28.122725 182.063636 
L 29.734072 180.141818 
L 31.421447 178.22 
L 33.177822 176.298182 
L 34.99468 174.376364 
L 36.862017 172.454545 
L 38.768391 170.532727 
L 40.700994 168.610909 
L 42.645761 166.689091 
L 44.587512 164.767273 
L 46.510129 162.845455 
L 48.396761 160.923636 
L 50.230056 159.001818 
L 51.992418 157.08 
L 53.666281 155.158182 
L 55.2344 153.236364 
L 56.680135 151.314545 
L 57.987754 149.392727 
L 59.142708 147.470909 
L 60.131904 145.549091 
L 60.943951 143.627273 
L 61.56938 141.705455 
L 62.000824 139.783636 
L 62.233166 137.861818 
L 62.263636 135.94 
L 62.091873 134.018182 
L 61.719923 132.096364 
L 61.152206 130.174545 
L 60.395425 128.252727 
L 59.458434 126.330909 
L 58.352066 124.409091 
L 57.088929 122.487273 
L 55.683157 120.565455 
L 54.15016 118.643636 
L 52.506332 116.721818 
L 50.768768 114.8 
L 48.954968 112.878182 
L 47.082548 110.956364 
L 45.168962 109.034545 
L 43.231236 107.112727 
L 41.285734 105.190909 
L 39.347936 103.269091 
L 37.43226 101.347273 
L 35.551906 99.425455 
L 33.718736 97.503636 
L 31.943191 95.581818 
L 30.234241 93.66 
L 28.599361 91.738182 
L 27.044543 89.816364 
L 25.574337 87.894545 
L 24.191911 85.972727 
L 22.899129 84.050909 
L 21.696658 82.129091 
L 20.584073 80.207273 
L 19.559981 78.285455 
L 18.622146 76.363636 
L 17.767616 74.441818 
L 16.992854 72.52 
L 16.293856 70.598182 
L 15.666268 68.676364 
L 15.105498 66.754545 
L 14.606813 64.832727 
L 14.16543 62.910909 
L 13.776588 60.989091 
L 13.435621 59.067273 
L 13.138012 57.145455 
L 12.879436 55.223636 
L 12.655794 53.301818 
L 12.463241 51.38 
L 12.2982 49.458182 
L 12.157374 47.536364 
L 12.037743 45.614545 
L 11.936569 43.692727 
L 11.851381 41.770909 
L 11.779968 39.849091 
L 11.720366 37.927273 
L 11.670837 36.005455 
L 11.629859 34.083636 
L 11.596102 32.161818 
L 11.568413 30.24 
" style="fill:none;stroke:#000000;stroke-linecap:square;stroke-width:1.5;"/>
   </g>
   <g id="line2d_4">
    <path clip-path="url(#pfba4a14ff3)" d="M 11.536364 220.5 
L 11.553457 218.578182 
L 11.573694 216.656364 
L 11.597551 214.734545 
L 11.625558 212.812727 
L 11.658297 210.890909 
L 11.696403 208.969091 
L 11.740566 207.047273 
L 11.791529 205.125455 
L 11.850084 203.203636 
L 11.917067 201.281818 
L 11.993355 199.36 
L 12.079858 197.438182 
L 12.177507 195.516364 
L 12.287242 193.594545 
L 12.410002 191.672727 
L 12.546707 189.750909 
L 12.698239 187.829091 
L 12.865424 185.907273 
L 13.04901 183.985455 
L 13.249646 182.063636 
L 13.467856 180.141818 
L 13.704018 178.22 
L 13.958336 176.298182 
L 14.23082 174.376364 
L 14.521263 172.454545 
L 14.829222 170.532727 
L 15.153994 168.610909 
L 15.494611 166.689091 
L 15.849823 164.767273 
L 16.218093 162.845455 
L 16.597598 160.923636 
L 16.986232 159.001818 
L 17.381619 157.08 
L 17.781127 155.158182 
L 18.181894 153.236364 
L 18.580857 151.314545 
L 18.974784 149.392727 
L 19.360319 147.470909 
L 19.734025 145.549091 
L 20.092435 143.627273 
L 20.432101 141.705455 
L 20.749653 139.783636 
L 21.041852 137.861818 
L 21.305644 135.94 
L 21.538214 134.018182 
L 21.737035 132.096364 
L 21.899915 130.174545 
L 22.025037 128.252727 
L 22.110991 126.330909 
L 22.156803 124.409091 
L 22.16195 122.487273 
L 22.126374 120.565455 
L 22.050481 118.643636 
L 21.935132 116.721818 
L 21.781629 114.8 
L 21.591689 112.878182 
L 21.367414 110.956364 
L 21.11125 109.034545 
L 20.825944 107.112727 
L 20.514493 105.190909 
L 20.180096 103.269091 
L 19.826096 101.347273 
L 19.455925 99.425455 
L 19.07305 97.503636 
L 18.680921 95.581818 
L 18.282919 93.66 
L 17.882311 91.738182 
L 17.482206 89.816364 
L 17.085521 87.894545 
L 16.694947 85.972727 
L 16.312928 84.050909 
L 15.941638 82.129091 
L 15.582973 80.207273 
L 15.238542 78.285455 
L 14.909666 76.363636 
L 14.597387 74.441818 
L 14.302469 72.52 
L 14.025422 70.598182 
L 13.76651 68.676364 
L 13.525777 66.754545 
L 13.303064 64.832727 
L 13.098035 62.910909 
L 12.9102 60.989091 
L 12.738942 59.067273 
L 12.583533 57.145455 
L 12.443166 55.223636 
L 12.31697 53.301818 
L 12.204035 51.38 
L 12.103424 49.458182 
L 12.014195 47.536364 
L 11.935414 45.614545 
L 11.866166 43.692727 
L 11.805564 41.770909 
L 11.752761 39.849091 
L 11.706953 37.927273 
L 11.667385 36.005455 
L 11.633353 34.083636 
L 11.604209 32.161818 
L 11.579355 30.24 
" style="fill:none;stroke:#808080;stroke-dasharray:5.55,2.4;stroke-dashoffset:0;stroke-width:1.5;"/>
   </g>
   <g id="patch_3">
    <path d="M 9 220.5 
L 9 30.24 
" style="fill:none;stroke:#000000;stroke-linecap:square;stroke-linejoin:miter;stroke-width:0.8;"/>
   </g>
   <g id="legend_1">
    <g id="patch_4">
     <path d="M 16 66.59 
L 112.48125 66.59 
Q 114.48125 66.59 114.48125 64.59 
L 114.48125 37.24 
Q 114.48125 35.24 112.48125 35.24 
L 16 35.24 
Q 14 35.24 14 37.24 
L 14 64.59 
Q 14 66.59 16 66.59 
z
" style="fill:#ffffff;opacity:0.8;stroke:#cccccc;stroke-linejoin:miter;"/>
    </g>
    <g id="line2d_5">
     <path d="M 18 42.9275 
L 38 42.9275 
" style="fill:none;stroke:#000000;stroke-linecap:square;stroke-width:1.5;"/>
    </g>
    <g id="line2d_6"/>
    <g id="text_1">
     <!-- 67.8-75.0 mph -->
     <g transform="translate(46 46.4275)scale(0.1 -0.1)">
      <defs>
       <path d="M 49.75 54.046875 
L 41.015625 53.375 
Q 39.84375 58.546875 37.703125 60.890625 
Q 34.125 64.65625 28.90625 64.65625 
Q 24.703125 64.65625 21.53125 62.3125 
Q 17.390625 59.28125 14.984375 53.46875 
Q 12.59375 47.65625 12.5 36.921875 
Q 15.671875 41.75 20.265625 44.09375 
Q 24.859375 46.4375 29.890625 46.4375 
Q 38.671875 46.4375 44.84375 39.96875 
Q 51.03125 33.5 51.03125 23.25 
Q 51.03125 16.5 48.125 10.71875 
Q 45.21875 4.9375 40.140625 1.859375 
Q 35.0625 -1.21875 28.609375 -1.21875 
Q 17.625 -1.21875 10.6875 6.859375 
Q 3.765625 14.9375 3.765625 33.5 
Q 3.765625 54.25 11.421875 63.671875 
Q 18.109375 71.875 29.4375 71.875 
Q 37.890625 71.875 43.28125 67.140625 
Q 48.6875 62.40625 49.75 54.046875 
z
M 13.875 23.1875 
Q 13.875 18.65625 15.796875 14.5 
Q 17.71875 10.359375 21.1875 8.171875 
Q 24.65625 6 28.46875 6 
Q 34.03125 6 38.03125 10.484375 
Q 42.046875 14.984375 42.046875 22.703125 
Q 42.046875 30.125 38.078125 34.390625 
Q 34.125 38.671875 28.125 38.671875 
Q 22.171875 38.671875 18.015625 34.390625 
Q 13.875 30.125 13.875 23.1875 
z
" id="ArialMT-54"/>
       <path d="M 4.734375 62.203125 
L 4.734375 70.65625 
L 51.078125 70.65625 
L 51.078125 63.8125 
Q 44.234375 56.546875 37.515625 44.484375 
Q 30.8125 32.421875 27.15625 19.671875 
Q 24.515625 10.6875 23.78125 0 
L 14.75 0 
Q 14.890625 8.453125 18.0625 20.40625 
Q 21.234375 32.375 27.171875 43.484375 
Q 33.109375 54.59375 39.796875 62.203125 
z
" id="ArialMT-55"/>
       <path d="M 9.078125 0 
L 9.078125 10.015625 
L 19.09375 10.015625 
L 19.09375 0 
z
" id="ArialMT-46"/>
       <path d="M 17.671875 38.8125 
Q 12.203125 40.828125 9.5625 44.53125 
Q 6.9375 48.25 6.9375 53.421875 
Q 6.9375 61.234375 12.546875 66.546875 
Q 18.171875 71.875 27.484375 71.875 
Q 36.859375 71.875 42.578125 66.421875 
Q 48.296875 60.984375 48.296875 53.171875 
Q 48.296875 48.1875 45.671875 44.5 
Q 43.0625 40.828125 37.75 38.8125 
Q 44.34375 36.671875 47.78125 31.875 
Q 51.21875 27.09375 51.21875 20.453125 
Q 51.21875 11.28125 44.71875 5.03125 
Q 38.234375 -1.21875 27.640625 -1.21875 
Q 17.046875 -1.21875 10.546875 5.046875 
Q 4.046875 11.328125 4.046875 20.703125 
Q 4.046875 27.6875 7.59375 32.390625 
Q 11.140625 37.109375 17.671875 38.8125 
z
M 15.921875 53.71875 
Q 15.921875 48.640625 19.1875 45.40625 
Q 22.46875 42.1875 27.6875 42.1875 
Q 32.765625 42.1875 36.015625 45.375 
Q 39.265625 48.578125 39.265625 53.21875 
Q 39.265625 58.0625 35.90625 61.359375 
Q 32.5625 64.65625 27.59375 64.65625 
Q 22.5625 64.65625 19.234375 61.421875 
Q 15.921875 58.203125 15.921875 53.71875 
z
M 13.09375 20.65625 
Q 13.09375 16.890625 14.875 13.375 
Q 16.65625 9.859375 20.171875 7.921875 
Q 23.6875 6 27.734375 6 
Q 34.03125 6 38.125 10.046875 
Q 42.234375 14.109375 42.234375 20.359375 
Q 42.234375 26.703125 38.015625 30.859375 
Q 33.796875 35.015625 27.4375 35.015625 
Q 21.234375 35.015625 17.15625 30.90625 
Q 13.09375 26.8125 13.09375 20.65625 
z
" id="ArialMT-56"/>
       <path d="M 3.171875 21.484375 
L 3.171875 30.328125 
L 30.171875 30.328125 
L 30.171875 21.484375 
z
" id="ArialMT-45"/>
       <path d="M 4.15625 18.75 
L 13.375 19.53125 
Q 14.40625 12.796875 18.140625 9.390625 
Q 21.875 6 27.15625 6 
Q 33.5 6 37.890625 10.78125 
Q 42.28125 15.578125 42.28125 23.484375 
Q 42.28125 31 38.0625 35.34375 
Q 33.84375 39.703125 27 39.703125 
Q 22.75 39.703125 19.328125 37.765625 
Q 15.921875 35.84375 13.96875 32.765625 
L 5.71875 33.84375 
L 12.640625 70.609375 
L 48.25 70.609375 
L 48.25 62.203125 
L 19.671875 62.203125 
L 15.828125 42.96875 
Q 22.265625 47.46875 29.34375 47.46875 
Q 38.71875 47.46875 45.15625 40.96875 
Q 51.609375 34.46875 51.609375 24.265625 
Q 51.609375 14.546875 45.953125 7.46875 
Q 39.0625 -1.21875 27.15625 -1.21875 
Q 17.390625 -1.21875 11.203125 4.25 
Q 5.03125 9.71875 4.15625 18.75 
z
" id="ArialMT-53"/>
       <path d="M 4.15625 35.296875 
Q 4.15625 48 6.765625 55.734375 
Q 9.375 63.484375 14.515625 67.671875 
Q 19.671875 71.875 27.484375 71.875 
Q 33.25 71.875 37.59375 69.546875 
Q 41.9375 67.234375 44.765625 62.859375 
Q 47.609375 58.5 49.21875 52.21875 
Q 50.828125 45.953125 50.828125 35.296875 
Q 50.828125 22.703125 48.234375 14.96875 
Q 45.65625 7.234375 40.5 3 
Q 35.359375 -1.21875 27.484375 -1.21875 
Q 17.140625 -1.21875 11.234375 6.203125 
Q 4.15625 15.140625 4.15625 35.296875 
z
M 13.1875 35.296875 
Q 13.1875 17.671875 17.3125 11.828125 
Q 21.4375 6 27.484375 6 
Q 33.546875 6 37.671875 11.859375 
Q 41.796875 17.71875 41.796875 35.296875 
Q 41.796875 52.984375 37.671875 58.78125 
Q 33.546875 64.59375 27.390625 64.59375 
Q 21.34375 64.59375 17.71875 59.46875 
Q 13.1875 52.9375 13.1875 35.296875 
z
" id="ArialMT-48"/>
       <path id="ArialMT-32"/>
       <path d="M 6.59375 0 
L 6.59375 51.859375 
L 14.453125 51.859375 
L 14.453125 44.578125 
Q 16.890625 48.390625 20.9375 50.703125 
Q 25 53.03125 30.171875 53.03125 
Q 35.9375 53.03125 39.625 50.640625 
Q 43.3125 48.25 44.828125 43.953125 
Q 50.984375 53.03125 60.84375 53.03125 
Q 68.5625 53.03125 72.703125 48.75 
Q 76.859375 44.484375 76.859375 35.59375 
L 76.859375 0 
L 68.109375 0 
L 68.109375 32.671875 
Q 68.109375 37.9375 67.25 40.25 
Q 66.40625 42.578125 64.15625 43.984375 
Q 61.921875 45.40625 58.890625 45.40625 
Q 53.421875 45.40625 49.796875 41.765625 
Q 46.1875 38.140625 46.1875 30.125 
L 46.1875 0 
L 37.40625 0 
L 37.40625 33.6875 
Q 37.40625 39.546875 35.25 42.46875 
Q 33.109375 45.40625 28.21875 45.40625 
Q 24.515625 45.40625 21.359375 43.453125 
Q 18.21875 41.5 16.796875 37.734375 
Q 15.375 33.984375 15.375 26.90625 
L 15.375 0 
z
" id="ArialMT-109"/>
       <path d="M 6.59375 -19.875 
L 6.59375 51.859375 
L 14.59375 51.859375 
L 14.59375 45.125 
Q 17.4375 49.078125 21 51.046875 
Q 24.5625 53.03125 29.640625 53.03125 
Q 36.28125 53.03125 41.359375 49.609375 
Q 46.4375 46.1875 49.015625 39.953125 
Q 51.609375 33.734375 51.609375 26.3125 
Q 51.609375 18.359375 48.75 11.984375 
Q 45.90625 5.609375 40.453125 2.21875 
Q 35.015625 -1.171875 29 -1.171875 
Q 24.609375 -1.171875 21.109375 0.6875 
Q 17.625 2.546875 15.375 5.375 
L 15.375 -19.875 
z
M 14.546875 25.640625 
Q 14.546875 15.625 18.59375 10.84375 
Q 22.65625 6.0625 28.421875 6.0625 
Q 34.28125 6.0625 38.453125 11.015625 
Q 42.625 15.96875 42.625 26.375 
Q 42.625 36.28125 38.546875 41.203125 
Q 34.46875 46.140625 28.8125 46.140625 
Q 23.1875 46.140625 18.859375 40.890625 
Q 14.546875 35.640625 14.546875 25.640625 
z
" id="ArialMT-112"/>
       <path d="M 6.59375 0 
L 6.59375 71.578125 
L 15.375 71.578125 
L 15.375 45.90625 
Q 21.53125 53.03125 30.90625 53.03125 
Q 36.671875 53.03125 40.921875 50.75 
Q 45.171875 48.484375 47 44.484375 
Q 48.828125 40.484375 48.828125 32.859375 
L 48.828125 0 
L 40.046875 0 
L 40.046875 32.859375 
Q 40.046875 39.453125 37.1875 42.453125 
Q 34.328125 45.453125 29.109375 45.453125 
Q 25.203125 45.453125 21.75 43.421875 
Q 18.3125 41.40625 16.84375 37.9375 
Q 15.375 34.46875 15.375 28.375 
L 15.375 0 
z
" id="ArialMT-104"/>
      </defs>
      <use xlink:href="#ArialMT-54"/>
      <use x="55.615234" xlink:href="#ArialMT-55"/>
      <use x="111.230469" xlink:href="#ArialMT-46"/>
      <use x="139.013672" xlink:href="#ArialMT-56"/>
      <use x="194.628906" xlink:href="#ArialMT-45"/>
      <use x="227.929688" xlink:href="#ArialMT-55"/>
      <use x="283.544922" xlink:href="#ArialMT-53"/>
      <use x="339.160156" xlink:href="#ArialMT-46"/>
      <use x="366.943359" xlink:href="#ArialMT-48"/>
      <use x="422.558594" xlink:href="#ArialMT-32"/>
      <use x="450.341797" xlink:href="#ArialMT-109"/>
      <use x="533.642578" xlink:href="#ArialMT-112"/>
      <use x="589.257812" xlink:href="#ArialMT-104"/>
     </g>
    </g>
    <g id="line2d_7">
     <path d="M 18 57.1025 
L 38 57.1025 
" style="fill:none;stroke:#808080;stroke-dasharray:5.55,2.4;stroke-dashoffset:0;stroke-width:1.5;"/>
    </g>
    <g id="line2d_8"/>
    <g id="text_2">
     <!-- 75.0-86.8 mph -->
     <g transform="translate(46 60.6025)scale(0.1 -0.1)">
      <use xlink:href="#ArialMT-55"/>
      <use x="55.615234" xlink:href="#ArialMT-53"/>
      <use x="111.230469" xlink:href="#ArialMT-46"/>
      <use x="139.013672" xlink:href="#ArialMT-48"/>
      <use x="194.628906" xlink:href="#ArialMT-45"/>
      <use x="227.929688" xlink:href="#ArialMT-56"/>
      <use x="283.544922" xlink:href="#ArialMT-54"/>
      <use x="339.160156" xlink:href="#ArialMT-46"/>
      <use x="366.943359" xlink:href="#ArialMT-56"/>
      <use x="422.558594" xlink:href="#ArialMT-32"/>
      <use x="450.341797" xlink:href="#ArialMT-109"/>
      <use x="533.642578" xlink:href="#ArialMT-112"/>
      <use x="589.257812" xlink:href="#ArialMT-104"/>
     </g>
    </g>
   </g>
  </g>
 </g>
 <defs>
  <clipPath id="pfba4a14ff3">
   <rect height="190.26" width="55.8" x="9" y="30.24"/>
  </clipPath>
 </defs>
</svg>
