<?xml version="1.0" encoding="utf-8" standalone="no"?>
<!DOCTYPE svg PUBLIC "-//W3C//DTD SVG 1.1//EN"
  "http://www.w3.org/Graphics/SVG/1.1/DTD/svg11.dtd">
<!-- Created with matplotlib (https://matplotlib.org/) -->
<svg height="252pt" version="1.1" viewBox="0 0 72 252" width="72pt" xmlns="http://www.w3.org/2000/svg" xmlns:xlink="http://www.w3.org/1999/xlink">
 <metadata>
  <rdf:RDF xmlns:cc="http://creativecommons.org/ns#" xmlns:dc="http://purl.org/dc/elements/1.1/" xmlns:rdf="http://www.w3.org/1999/02/22-rdf-syntax-ns#">
   <cc:Work>
    <dc:type rdf:resource="http://purl.org/dc/dcmitype/StillImage"/>
    <dc:date>2022-05-29T11:29:43.875404</dc:date>
    <dc:format>image/svg+xml</dc:format>
    <dc:creator>
     <cc:Agent>
      <dc:title>Matplotlib v3.3.4, https://matplotlib.org/</dc:title>
     </cc:Agent>
    </dc:creator>
   </cc:Work>
  </rdf:RDF>
 </metadata>
 <defs>
  <style type="text/css">*{stroke-linecap:butt;stroke-linejoin:round;}</style>
 </defs>
 <g id="figure_1">
  <g id="patch_1">
   <path d="M 0 252 
L 72 252 
L 72 0 
L 0 0 
z
" style="fill:none;"/>
  </g>
  <g id="axes_1">
   <g id="patch_2">
    <path d="M 9 220.5 
L 64.8 220.5 
L 64.8 30.24 
L 9 30.24 
z
" style="fill:#ffffff;"/>
   </g>
   <g id="matplotlib.axis_1">
    <g id="ytick_1">
     <g id="line2d_1">
      <defs>
       <path d="M 0 0 
L -3.5 0 
" id="m22267fd617" style="stroke:#000000;stroke-width:0.8;"/>
      </defs>
      <g>
       <use style="stroke:#000000;stroke-width:0.8;" x="9" xlink:href="#m22267fd617" y="172.935"/>
      </g>
     </g>
    </g>
    <g id="ytick_2">
     <g id="line2d_2">
      <g>
       <use style="stroke:#000000;stroke-width:0.8;" x="9" xlink:href="#m22267fd617" y="77.805"/>
      </g>
     </g>
    </g>
   </g>
   <g id="line2d_3">
    <path clip-path="url(#p4d609b5151)" d="M 11.536364 220.5 
L 11.550832 218.578182 
L 11.568966 216.656364 
L 11.591585 214.734545 
L 11.619663 212.812727 
L 11.654347 210.890909 
L 11.696982 208.969091 
L 11.749137 207.047273 
L 11.812623 205.125455 
L 11.889524 203.203636 
L 11.982213 201.281818 
L 12.09338 199.36 
L 12.226043 197.438182 
L 12.383568 195.516364 
L 12.569676 193.594545 
L 12.788442 191.672727 
L 13.04429 189.750909 
L 13.34198 187.829091 
L 13.686572 185.907273 
L 14.083393 183.985455 
L 14.537975 182.063636 
L 15.05599 180.141818 
L 15.643161 178.22 
L 16.30516 176.298182 
L 17.04749 174.376364 
L 17.875354 172.454545 
L 18.793505 170.532727 
L 19.80609 168.610909 
L 20.916484 166.689091 
L 22.127119 164.767273 
L 23.439308 162.845455 
L 24.853081 160.923636 
L 26.367026 159.001818 
L 27.978143 157.08 
L 29.681724 155.158182 
L 31.471254 153.236364 
L 33.338353 151.314545 
L 35.272741 149.392727 
L 37.262263 147.470909 
L 39.292945 145.549091 
L 41.349103 143.627273 
L 43.413504 141.705455 
L 45.467566 139.783636 
L 47.491614 137.861818 
L 49.465172 135.94 
L 51.36729 134.018182 
L 53.176908 132.096364 
L 54.873236 130.174545 
L 56.436144 128.252727 
L 57.846559 126.330909 
L 59.086852 124.409091 
L 60.141203 122.487273 
L 60.995933 120.565455 
L 61.639805 118.643636 
L 62.064266 116.721818 
L 62.263636 114.8 
L 62.235239 112.878182 
L 61.979455 110.956364 
L 61.499718 109.034545 
L 60.802437 107.112727 
L 59.896854 105.190909 
L 58.794838 103.269091 
L 57.510631 101.347273 
L 56.060536 99.425455 
L 54.462578 97.503636 
L 52.736128 95.581818 
L 50.901517 93.66 
L 48.97964 91.738182 
L 46.991565 89.816364 
L 44.958155 87.894545 
L 42.899717 85.972727 
L 40.83568 84.050909 
L 38.784311 82.129091 
L 36.762475 80.207273 
L 34.785443 78.285455 
L 32.866745 76.363636 
L 31.018073 74.441818 
L 29.249233 72.52 
L 27.568137 70.598182 
L 25.980842 68.676364 
L 24.491622 66.754545 
L 23.103069 64.832727 
L 21.816222 62.910909 
L 20.630715 60.989091 
L 19.544941 59.067273 
L 18.556217 57.145455 
L 17.660961 55.223636 
L 16.854858 53.301818 
L 16.13303 51.38 
L 15.490185 49.458182 
L 14.920768 47.536364 
L 14.419081 45.614545 
L 13.979407 43.692727 
L 13.596101 41.770909 
L 13.263676 39.849091 
L 12.976866 37.927273 
L 12.730683 36.005455 
L 12.520449 34.083636 
L 12.341825 32.161818 
L 12.190824 30.24 
" style="fill:none;stroke:#000000;stroke-linecap:square;stroke-width:1.5;"/>
   </g>
   <g id="line2d_4">
    <path clip-path="url(#p4d609b5151)" d="M 11.649142 220.5 
L 11.689023 218.578182 
L 11.737503 216.656364 
L 11.796167 214.734545 
L 11.866827 212.812727 
L 11.951541 210.890909 
L 12.052634 208.969091 
L 12.17271 207.047273 
L 12.314665 205.125455 
L 12.481697 203.203636 
L 12.677306 201.281818 
L 12.905292 199.36 
L 13.169744 197.438182 
L 13.47502 195.516364 
L 13.825715 193.594545 
L 14.226625 191.672727 
L 14.682688 189.750909 
L 15.198925 187.829091 
L 15.780357 185.907273 
L 16.43192 183.985455 
L 17.158355 182.063636 
L 17.964101 180.141818 
L 18.853165 178.22 
L 19.828991 176.298182 
L 20.89432 174.376364 
L 22.05105 172.454545 
L 23.300093 170.532727 
L 24.641238 168.610909 
L 26.073024 166.689091 
L 27.592619 164.767273 
L 29.195729 162.845455 
L 30.876514 160.923636 
L 32.627544 159.001818 
L 34.439773 157.08 
L 36.302555 155.158182 
L 38.203697 153.236364 
L 40.129537 151.314545 
L 42.06508 149.392727 
L 43.994158 147.470909 
L 45.89963 145.549091 
L 47.763622 143.627273 
L 49.56779 141.705455 
L 51.293611 139.783636 
L 52.922697 137.861818 
L 54.437108 135.94 
L 55.81969 134.018182 
L 57.054386 132.096364 
L 58.12655 130.174545 
L 59.02324 128.252727 
L 59.733468 126.330909 
L 60.248432 124.409091 
L 60.561696 122.487273 
L 60.669322 120.565455 
L 60.569951 118.643636 
L 60.264838 116.721818 
L 59.757819 114.8 
L 59.055233 112.878182 
L 58.165791 110.956364 
L 57.100396 109.034545 
L 55.871919 107.112727 
L 54.494942 105.190909 
L 52.98547 103.269091 
L 51.360624 101.347273 
L 49.638314 99.425455 
L 47.836918 97.503636 
L 45.974961 95.581818 
L 44.070798 93.66 
L 42.142329 91.738182 
L 40.206727 89.816364 
L 38.280203 87.894545 
L 36.377805 85.972727 
L 34.513247 84.050909 
L 32.698786 82.129091 
L 30.945129 80.207273 
L 29.261386 78.285455 
L 27.655053 76.363636 
L 26.132031 74.441818 
L 24.696676 72.52 
L 23.351875 70.598182 
L 22.099143 68.676364 
L 20.938738 66.754545 
L 19.869791 64.832727 
L 18.890439 62.910909 
L 17.997973 60.989091 
L 17.188974 59.067273 
L 16.459455 57.145455 
L 15.804993 55.223636 
L 15.220854 53.301818 
L 14.702111 51.38 
L 14.243742 49.458182 
L 13.840726 47.536364 
L 13.488119 45.614545 
L 13.181119 43.692727 
L 12.915123 41.770909 
L 12.685761 39.849091 
L 12.488934 37.927273 
L 12.320831 36.005455 
L 12.177938 34.083636 
L 12.057046 32.161818 
L 11.955247 30.24 
" style="fill:none;stroke:#808080;stroke-dasharray:5.55,2.4;stroke-dashoffset:0;stroke-width:1.5;"/>
   </g>
   <g id="line2d_5">
    <path clip-path="url(#p4d609b5151)" d="M 12.91608 220.5 
L 13.146641 218.578182 
L 13.407915 216.656364 
L 13.702855 214.734545 
L 14.034508 212.812727 
L 14.405993 210.890909 
L 14.820458 208.969091 
L 15.281046 207.047273 
L 15.790849 205.125455 
L 16.352853 203.203636 
L 16.969887 201.281818 
L 17.644557 199.36 
L 18.379185 197.438182 
L 19.17574 195.516364 
L 20.035768 193.594545 
L 20.960322 191.672727 
L 21.94989 189.750909 
L 23.004331 187.829091 
L 24.122809 185.907273 
L 25.303735 183.985455 
L 26.544715 182.063636 
L 27.84251 180.141818 
L 29.193006 178.22 
L 30.591192 176.298182 
L 32.03116 174.376364 
L 33.50611 172.454545 
L 35.008385 170.532727 
L 36.529506 168.610909 
L 38.060239 166.689091 
L 39.590671 164.767273 
L 41.110304 162.845455 
L 42.608164 160.923636 
L 44.072927 159.001818 
L 45.493056 157.08 
L 46.856948 155.158182 
L 48.153084 153.236364 
L 49.370197 151.314545 
L 50.497426 149.392727 
L 51.524484 147.470909 
L 52.441804 145.549091 
L 53.240698 143.627273 
L 53.913486 141.705455 
L 54.453619 139.783636 
L 54.855793 137.861818 
L 55.116026 135.94 
L 55.231727 134.018182 
L 55.201745 132.096364 
L 55.026376 130.174545 
L 54.707371 128.252727 
L 54.247896 126.330909 
L 53.652487 124.409091 
L 52.926974 122.487273 
L 52.078381 120.565455 
L 51.114822 118.643636 
L 50.045362 116.721818 
L 48.879882 114.8 
L 47.628926 112.878182 
L 46.30354 110.956364 
L 44.915116 109.034545 
L 43.475224 107.112727 
L 41.995461 105.190909 
L 40.487292 103.269091 
L 38.961914 101.347273 
L 37.430118 99.425455 
L 35.902175 97.503636 
L 34.387729 95.581818 
L 32.895711 93.66 
L 31.43427 91.738182 
L 30.010714 89.816364 
L 28.631478 87.894545 
L 27.302102 85.972727 
L 26.027227 84.050909 
L 24.810603 82.129091 
L 23.655119 80.207273 
L 22.562831 78.285455 
L 21.535011 76.363636 
L 20.572203 74.441818 
L 19.674281 72.52 
L 18.840517 70.598182 
L 18.069644 68.676364 
L 17.359936 66.754545 
L 16.709271 64.832727 
L 16.1152 62.910909 
L 15.575018 60.989091 
L 15.085826 59.067273 
L 14.644586 57.145455 
L 14.24818 55.223636 
L 13.893458 53.301818 
L 13.577279 51.38 
L 13.29655 49.458182 
L 13.048259 47.536364 
L 12.8295 45.614545 
L 12.637497 43.692727 
L 12.469616 41.770909 
L 12.323381 39.849091 
L 12.196479 37.927273 
L 12.086766 36.005455 
L 11.992268 34.083636 
L 11.911175 32.161818 
L 11.841843 30.24 
" style="fill:none;stroke:#d3d3d3;stroke-dasharray:1.5,2.475;stroke-dashoffset:0;stroke-width:1.5;"/>
   </g>
   <g id="patch_3">
    <path d="M 9 220.5 
L 9 30.24 
" style="fill:none;stroke:#000000;stroke-linecap:square;stroke-linejoin:miter;stroke-width:0.8;"/>
   </g>
   <g id="legend_1">
    <g id="patch_4">
     <path d="M 13.2 217.5 
L 83.09625 217.5 
Q 84.29625 217.5 84.29625 216.3 
L 84.29625 191.385 
Q 84.29625 190.185 83.09625 190.185 
L 13.2 190.185 
Q 12 190.185 12 191.385 
L 12 216.3 
Q 12 217.5 13.2 217.5 
z
" style="fill:#ffffff;opacity:0.8;stroke:#cccccc;stroke-linejoin:miter;"/>
    </g>
    <g id="line2d_6">
     <path d="M 14.4 194.7975 
L 26.4 194.7975 
" style="fill:none;stroke:#000000;stroke-linecap:square;stroke-width:1.5;"/>
    </g>
    <g id="line2d_7"/>
    <g id="text_1">
     <!-- 918.0-2313.0 rpm -->
     <g transform="translate(31.2 196.8975)scale(0.06 -0.06)">
      <defs>
       <path d="M 5.46875 16.546875 
L 13.921875 17.328125 
Q 14.984375 11.375 18.015625 8.6875 
Q 21.046875 6 25.78125 6 
Q 29.828125 6 32.875 7.859375 
Q 35.9375 9.71875 37.890625 12.8125 
Q 39.84375 15.921875 41.15625 21.1875 
Q 42.484375 26.46875 42.484375 31.9375 
Q 42.484375 32.515625 42.4375 33.6875 
Q 39.796875 29.5 35.234375 26.875 
Q 30.671875 24.265625 25.34375 24.265625 
Q 16.453125 24.265625 10.296875 30.703125 
Q 4.15625 37.15625 4.15625 47.703125 
Q 4.15625 58.59375 10.578125 65.234375 
Q 17 71.875 26.65625 71.875 
Q 33.640625 71.875 39.421875 68.109375 
Q 45.21875 64.359375 48.21875 57.390625 
Q 51.21875 50.4375 51.21875 37.25 
Q 51.21875 23.53125 48.234375 15.40625 
Q 45.265625 7.28125 39.375 3.03125 
Q 33.5 -1.21875 25.59375 -1.21875 
Q 17.1875 -1.21875 11.859375 3.4375 
Q 6.546875 8.109375 5.46875 16.546875 
z
M 41.453125 48.140625 
Q 41.453125 55.71875 37.421875 60.15625 
Q 33.40625 64.59375 27.734375 64.59375 
Q 21.875 64.59375 17.53125 59.8125 
Q 13.1875 55.03125 13.1875 47.40625 
Q 13.1875 40.578125 17.3125 36.296875 
Q 21.4375 32.03125 27.484375 32.03125 
Q 33.59375 32.03125 37.515625 36.296875 
Q 41.453125 40.578125 41.453125 48.140625 
z
" id="ArialMT-57"/>
       <path d="M 37.25 0 
L 28.46875 0 
L 28.46875 56 
Q 25.296875 52.984375 20.140625 49.953125 
Q 14.984375 46.921875 10.890625 45.40625 
L 10.890625 53.90625 
Q 18.265625 57.375 23.78125 62.296875 
Q 29.296875 67.234375 31.59375 71.875 
L 37.25 71.875 
z
" id="ArialMT-49"/>
       <path d="M 17.671875 38.8125 
Q 12.203125 40.828125 9.5625 44.53125 
Q 6.9375 48.25 6.9375 53.421875 
Q 6.9375 61.234375 12.546875 66.546875 
Q 18.171875 71.875 27.484375 71.875 
Q 36.859375 71.875 42.578125 66.421875 
Q 48.296875 60.984375 48.296875 53.171875 
Q 48.296875 48.1875 45.671875 44.5 
Q 43.0625 40.828125 37.75 38.8125 
Q 44.34375 36.671875 47.78125 31.875 
Q 51.21875 27.09375 51.21875 20.453125 
Q 51.21875 11.28125 44.71875 5.03125 
Q 38.234375 -1.21875 27.640625 -1.21875 
Q 17.046875 -1.21875 10.546875 5.046875 
Q 4.046875 11.328125 4.046875 20.703125 
Q 4.046875 27.6875 7.59375 32.390625 
Q 11.140625 37.109375 17.671875 38.8125 
z
M 15.921875 53.71875 
Q 15.921875 48.640625 19.1875 45.40625 
Q 22.46875 42.1875 27.6875 42.1875 
Q 32.765625 42.1875 36.015625 45.375 
Q 39.265625 48.578125 39.265625 53.21875 
Q 39.265625 58.0625 35.90625 61.359375 
Q 32.5625 64.65625 27.59375 64.65625 
Q 22.5625 64.65625 19.234375 61.421875 
Q 15.921875 58.203125 15.921875 53.71875 
z
M 13.09375 20.65625 
Q 13.09375 16.890625 14.875 13.375 
Q 16.65625 9.859375 20.171875 7.921875 
Q 23.6875 6 27.734375 6 
Q 34.03125 6 38.125 10.046875 
Q 42.234375 14.109375 42.234375 20.359375 
Q 42.234375 26.703125 38.015625 30.859375 
Q 33.796875 35.015625 27.4375 35.015625 
Q 21.234375 35.015625 17.15625 30.90625 
Q 13.09375 26.8125 13.09375 20.65625 
z
" id="ArialMT-56"/>
       <path d="M 9.078125 0 
L 9.078125 10.015625 
L 19.09375 10.015625 
L 19.09375 0 
z
" id="ArialMT-46"/>
       <path d="M 4.15625 35.296875 
Q 4.15625 48 6.765625 55.734375 
Q 9.375 63.484375 14.515625 67.671875 
Q 19.671875 71.875 27.484375 71.875 
Q 33.25 71.875 37.59375 69.546875 
Q 41.9375 67.234375 44.765625 62.859375 
Q 47.609375 58.5 49.21875 52.21875 
Q 50.828125 45.953125 50.828125 35.296875 
Q 50.828125 22.703125 48.234375 14.96875 
Q 45.65625 7.234375 40.5 3 
Q 35.359375 -1.21875 27.484375 -1.21875 
Q 17.140625 -1.21875 11.234375 6.203125 
Q 4.15625 15.140625 4.15625 35.296875 
z
M 13.1875 35.296875 
Q 13.1875 17.671875 17.3125 11.828125 
Q 21.4375 6 27.484375 6 
Q 33.546875 6 37.671875 11.859375 
Q 41.796875 17.71875 41.796875 35.296875 
Q 41.796875 52.984375 37.671875 58.78125 
Q 33.546875 64.59375 27.390625 64.59375 
Q 21.34375 64.59375 17.71875 59.46875 
Q 13.1875 52.9375 13.1875 35.296875 
z
" id="ArialMT-48"/>
       <path d="M 3.171875 21.484375 
L 3.171875 30.328125 
L 30.171875 30.328125 
L 30.171875 21.484375 
z
" id="ArialMT-45"/>
       <path d="M 50.34375 8.453125 
L 50.34375 0 
L 3.03125 0 
Q 2.9375 3.171875 4.046875 6.109375 
Q 5.859375 10.9375 9.828125 15.625 
Q 13.8125 20.3125 21.34375 26.46875 
Q 33.015625 36.03125 37.109375 41.625 
Q 41.21875 47.21875 41.21875 52.203125 
Q 41.21875 57.421875 37.46875 61 
Q 33.734375 64.59375 27.734375 64.59375 
Q 21.390625 64.59375 17.578125 60.78125 
Q 13.765625 56.984375 13.71875 50.25 
L 4.6875 51.171875 
Q 5.609375 61.28125 11.65625 66.578125 
Q 17.71875 71.875 27.9375 71.875 
Q 38.234375 71.875 44.234375 66.15625 
Q 50.25 60.453125 50.25 52 
Q 50.25 47.703125 48.484375 43.546875 
Q 46.734375 39.40625 42.65625 34.8125 
Q 38.578125 30.21875 29.109375 22.21875 
Q 21.1875 15.578125 18.9375 13.203125 
Q 16.703125 10.84375 15.234375 8.453125 
z
" id="ArialMT-50"/>
       <path d="M 4.203125 18.890625 
L 12.984375 20.0625 
Q 14.5 12.59375 18.140625 9.296875 
Q 21.78125 6 27 6 
Q 33.203125 6 37.46875 10.296875 
Q 41.75 14.59375 41.75 20.953125 
Q 41.75 27 37.796875 30.921875 
Q 33.84375 34.859375 27.734375 34.859375 
Q 25.25 34.859375 21.53125 33.890625 
L 22.515625 41.609375 
Q 23.390625 41.5 23.921875 41.5 
Q 29.546875 41.5 34.03125 44.421875 
Q 38.53125 47.359375 38.53125 53.46875 
Q 38.53125 58.296875 35.25 61.46875 
Q 31.984375 64.65625 26.8125 64.65625 
Q 21.6875 64.65625 18.265625 61.421875 
Q 14.84375 58.203125 13.875 51.765625 
L 5.078125 53.328125 
Q 6.6875 62.15625 12.390625 67.015625 
Q 18.109375 71.875 26.609375 71.875 
Q 32.46875 71.875 37.390625 69.359375 
Q 42.328125 66.84375 44.9375 62.5 
Q 47.5625 58.15625 47.5625 53.265625 
Q 47.5625 48.640625 45.0625 44.828125 
Q 42.578125 41.015625 37.703125 38.765625 
Q 44.046875 37.3125 47.5625 32.6875 
Q 51.078125 28.078125 51.078125 21.140625 
Q 51.078125 11.765625 44.234375 5.25 
Q 37.40625 -1.265625 26.953125 -1.265625 
Q 17.53125 -1.265625 11.296875 4.34375 
Q 5.078125 9.96875 4.203125 18.890625 
z
" id="ArialMT-51"/>
       <path id="ArialMT-32"/>
       <path d="M 6.5 0 
L 6.5 51.859375 
L 14.40625 51.859375 
L 14.40625 44 
Q 17.4375 49.515625 20 51.265625 
Q 22.5625 53.03125 25.640625 53.03125 
Q 30.078125 53.03125 34.671875 50.203125 
L 31.640625 42.046875 
Q 28.421875 43.953125 25.203125 43.953125 
Q 22.3125 43.953125 20.015625 42.21875 
Q 17.71875 40.484375 16.75 37.40625 
Q 15.28125 32.71875 15.28125 27.15625 
L 15.28125 0 
z
" id="ArialMT-114"/>
       <path d="M 6.59375 -19.875 
L 6.59375 51.859375 
L 14.59375 51.859375 
L 14.59375 45.125 
Q 17.4375 49.078125 21 51.046875 
Q 24.5625 53.03125 29.640625 53.03125 
Q 36.28125 53.03125 41.359375 49.609375 
Q 46.4375 46.1875 49.015625 39.953125 
Q 51.609375 33.734375 51.609375 26.3125 
Q 51.609375 18.359375 48.75 11.984375 
Q 45.90625 5.609375 40.453125 2.21875 
Q 35.015625 -1.171875 29 -1.171875 
Q 24.609375 -1.171875 21.109375 0.6875 
Q 17.625 2.546875 15.375 5.375 
L 15.375 -19.875 
z
M 14.546875 25.640625 
Q 14.546875 15.625 18.59375 10.84375 
Q 22.65625 6.0625 28.421875 6.0625 
Q 34.28125 6.0625 38.453125 11.015625 
Q 42.625 15.96875 42.625 26.375 
Q 42.625 36.28125 38.546875 41.203125 
Q 34.46875 46.140625 28.8125 46.140625 
Q 23.1875 46.140625 18.859375 40.890625 
Q 14.546875 35.640625 14.546875 25.640625 
z
" id="ArialMT-112"/>
       <path d="M 6.59375 0 
L 6.59375 51.859375 
L 14.453125 51.859375 
L 14.453125 44.578125 
Q 16.890625 48.390625 20.9375 50.703125 
Q 25 53.03125 30.171875 53.03125 
Q 35.9375 53.03125 39.625 50.640625 
Q 43.3125 48.25 44.828125 43.953125 
Q 50.984375 53.03125 60.84375 53.03125 
Q 68.5625 53.03125 72.703125 48.75 
Q 76.859375 44.484375 76.859375 35.59375 
L 76.859375 0 
L 68.109375 0 
L 68.109375 32.671875 
Q 68.109375 37.9375 67.25 40.25 
Q 66.40625 42.578125 64.15625 43.984375 
Q 61.921875 45.40625 58.890625 45.40625 
Q 53.421875 45.40625 49.796875 41.765625 
Q 46.1875 38.140625 46.1875 30.125 
L 46.1875 0 
L 37.40625 0 
L 37.40625 33.6875 
Q 37.40625 39.546875 35.25 42.46875 
Q 33.109375 45.40625 28.21875 45.40625 
Q 24.515625 45.40625 21.359375 43.453125 
Q 18.21875 41.5 16.796875 37.734375 
Q 15.375 33.984375 15.375 26.90625 
L 15.375 0 
z
" id="ArialMT-109"/>
      </defs>
      <use xlink:href="#ArialMT-57"/>
      <use x="55.615234" xlink:href="#ArialMT-49"/>
      <use x="111.230469" xlink:href="#ArialMT-56"/>
      <use x="166.845703" xlink:href="#ArialMT-46"/>
      <use x="194.628906" xlink:href="#ArialMT-48"/>
      <use x="250.244141" xlink:href="#ArialMT-45"/>
      <use x="283.544922" xlink:href="#ArialMT-50"/>
      <use x="339.160156" xlink:href="#ArialMT-51"/>
      <use x="394.775391" xlink:href="#ArialMT-49"/>
      <use x="450.390625" xlink:href="#ArialMT-51"/>
      <use x="506.005859" xlink:href="#ArialMT-46"/>
      <use x="533.789062" xlink:href="#ArialMT-48"/>
      <use x="589.404297" xlink:href="#ArialMT-32"/>
      <use x="617.1875" xlink:href="#ArialMT-114"/>
      <use x="650.488281" xlink:href="#ArialMT-112"/>
      <use x="706.103516" xlink:href="#ArialMT-109"/>
     </g>
    </g>
    <g id="line2d_8">
     <path d="M 14.4 203.3025 
L 26.4 203.3025 
" style="fill:none;stroke:#808080;stroke-dasharray:5.55,2.4;stroke-dashoffset:0;stroke-width:1.5;"/>
    </g>
    <g id="line2d_9"/>
    <g id="text_2">
     <!-- 2313.0-2531.0 rpm -->
     <g transform="translate(31.2 205.4025)scale(0.06 -0.06)">
      <defs>
       <path d="M 4.15625 18.75 
L 13.375 19.53125 
Q 14.40625 12.796875 18.140625 9.390625 
Q 21.875 6 27.15625 6 
Q 33.5 6 37.890625 10.78125 
Q 42.28125 15.578125 42.28125 23.484375 
Q 42.28125 31 38.0625 35.34375 
Q 33.84375 39.703125 27 39.703125 
Q 22.75 39.703125 19.328125 37.765625 
Q 15.921875 35.84375 13.96875 32.765625 
L 5.71875 33.84375 
L 12.640625 70.609375 
L 48.25 70.609375 
L 48.25 62.203125 
L 19.671875 62.203125 
L 15.828125 42.96875 
Q 22.265625 47.46875 29.34375 47.46875 
Q 38.71875 47.46875 45.15625 40.96875 
Q 51.609375 34.46875 51.609375 24.265625 
Q 51.609375 14.546875 45.953125 7.46875 
Q 39.0625 -1.21875 27.15625 -1.21875 
Q 17.390625 -1.21875 11.203125 4.25 
Q 5.03125 9.71875 4.15625 18.75 
z
" id="ArialMT-53"/>
      </defs>
      <use xlink:href="#ArialMT-50"/>
      <use x="55.615234" xlink:href="#ArialMT-51"/>
      <use x="111.230469" xlink:href="#ArialMT-49"/>
      <use x="166.845703" xlink:href="#ArialMT-51"/>
      <use x="222.460938" xlink:href="#ArialMT-46"/>
      <use x="250.244141" xlink:href="#ArialMT-48"/>
      <use x="305.859375" xlink:href="#ArialMT-45"/>
      <use x="339.160156" xlink:href="#ArialMT-50"/>
      <use x="394.775391" xlink:href="#ArialMT-53"/>
      <use x="450.390625" xlink:href="#ArialMT-51"/>
      <use x="506.005859" xlink:href="#ArialMT-49"/>
      <use x="561.621094" xlink:href="#ArialMT-46"/>
      <use x="589.404297" xlink:href="#ArialMT-48"/>
      <use x="645.019531" xlink:href="#ArialMT-32"/>
      <use x="672.802734" xlink:href="#ArialMT-114"/>
      <use x="706.103516" xlink:href="#ArialMT-112"/>
      <use x="761.71875" xlink:href="#ArialMT-109"/>
     </g>
    </g>
    <g id="line2d_10">
     <path d="M 14.4 211.8075 
L 26.4 211.8075 
" style="fill:none;stroke:#d3d3d3;stroke-dasharray:1.5,2.475;stroke-dashoffset:0;stroke-width:1.5;"/>
    </g>
    <g id="line2d_11"/>
    <g id="text_3">
     <!-- 2531.0-3222.0 rpm -->
     <g transform="translate(31.2 213.9075)scale(0.06 -0.06)">
      <use xlink:href="#ArialMT-50"/>
      <use x="55.615234" xlink:href="#ArialMT-53"/>
      <use x="111.230469" xlink:href="#ArialMT-51"/>
      <use x="166.845703" xlink:href="#ArialMT-49"/>
      <use x="222.460938" xlink:href="#ArialMT-46"/>
      <use x="250.244141" xlink:href="#ArialMT-48"/>
      <use x="305.859375" xlink:href="#ArialMT-45"/>
      <use x="339.160156" xlink:href="#ArialMT-51"/>
      <use x="394.775391" xlink:href="#ArialMT-50"/>
      <use x="450.390625" xlink:href="#ArialMT-50"/>
      <use x="506.005859" xlink:href="#ArialMT-50"/>
      <use x="561.621094" xlink:href="#ArialMT-46"/>
      <use x="589.404297" xlink:href="#ArialMT-48"/>
      <use x="645.019531" xlink:href="#ArialMT-32"/>
      <use x="672.802734" xlink:href="#ArialMT-114"/>
      <use x="706.103516" xlink:href="#ArialMT-112"/>
      <use x="761.71875" xlink:href="#ArialMT-109"/>
     </g>
    </g>
   </g>
  </g>
 </g>
 <defs>
  <clipPath id="p4d609b5151">
   <rect height="190.26" width="55.8" x="9" y="30.24"/>
  </clipPath>
 </defs>
</svg>
