<?xml version="1.0" encoding="utf-8" standalone="no"?>
<!DOCTYPE svg PUBLIC "-//W3C//DTD SVG 1.1//EN"
  "http://www.w3.org/Graphics/SVG/1.1/DTD/svg11.dtd">
<!-- Created with matplotlib (https://matplotlib.org/) -->
<svg height="252pt" version="1.1" viewBox="0 0 72 252" width="72pt" xmlns="http://www.w3.org/2000/svg" xmlns:xlink="http://www.w3.org/1999/xlink">
 <metadata>
  <rdf:RDF xmlns:cc="http://creativecommons.org/ns#" xmlns:dc="http://purl.org/dc/elements/1.1/" xmlns:rdf="http://www.w3.org/1999/02/22-rdf-syntax-ns#">
   <cc:Work>
    <dc:type rdf:resource="http://purl.org/dc/dcmitype/StillImage"/>
    <dc:date>2022-05-29T10:59:03.979762</dc:date>
    <dc:format>image/svg+xml</dc:format>
    <dc:creator>
     <cc:Agent>
      <dc:title>Matplotlib v3.3.4, https://matplotlib.org/</dc:title>
     </cc:Agent>
    </dc:creator>
   </cc:Work>
  </rdf:RDF>
 </metadata>
 <defs>
  <style type="text/css">*{stroke-linecap:butt;stroke-linejoin:round;}</style>
 </defs>
 <g id="figure_1">
  <g id="patch_1">
   <path d="M 0 252 
L 72 252 
L 72 0 
L 0 0 
z
" style="fill:none;"/>
  </g>
  <g id="axes_1">
   <g id="patch_2">
    <path d="M 9 220.5 
L 64.8 220.5 
L 64.8 30.24 
L 9 30.24 
z
" style="fill:#ffffff;"/>
   </g>
   <g id="matplotlib.axis_1">
    <g id="ytick_1">
     <g id="line2d_1">
      <defs>
       <path d="M 0 0 
L -3.5 0 
" id="m238e415164" style="stroke:#000000;stroke-width:0.8;"/>
      </defs>
      <g>
       <use style="stroke:#000000;stroke-width:0.8;" x="9" xlink:href="#m238e415164" y="211.851818"/>
      </g>
     </g>
     <g id="text_1">
      <!-- −100 -->
      <g transform="translate(-16.01875 214.714943)scale(0.08 -0.08)">
       <defs>
        <path d="M 52.828125 31.203125 
L 5.5625 31.203125 
L 5.5625 39.40625 
L 52.828125 39.40625 
z
" id="ArialMT-8722"/>
        <path d="M 37.25 0 
L 28.46875 0 
L 28.46875 56 
Q 25.296875 52.984375 20.140625 49.953125 
Q 14.984375 46.921875 10.890625 45.40625 
L 10.890625 53.90625 
Q 18.265625 57.375 23.78125 62.296875 
Q 29.296875 67.234375 31.59375 71.875 
L 37.25 71.875 
z
" id="ArialMT-49"/>
        <path d="M 4.15625 35.296875 
Q 4.15625 48 6.765625 55.734375 
Q 9.375 63.484375 14.515625 67.671875 
Q 19.671875 71.875 27.484375 71.875 
Q 33.25 71.875 37.59375 69.546875 
Q 41.9375 67.234375 44.765625 62.859375 
Q 47.609375 58.5 49.21875 52.21875 
Q 50.828125 45.953125 50.828125 35.296875 
Q 50.828125 22.703125 48.234375 14.96875 
Q 45.65625 7.234375 40.5 3 
Q 35.359375 -1.21875 27.484375 -1.21875 
Q 17.140625 -1.21875 11.234375 6.203125 
Q 4.15625 15.140625 4.15625 35.296875 
z
M 13.1875 35.296875 
Q 13.1875 17.671875 17.3125 11.828125 
Q 21.4375 6 27.484375 6 
Q 33.546875 6 37.671875 11.859375 
Q 41.796875 17.71875 41.796875 35.296875 
Q 41.796875 52.984375 37.671875 58.78125 
Q 33.546875 64.59375 27.390625 64.59375 
Q 21.34375 64.59375 17.71875 59.46875 
Q 13.1875 52.9375 13.1875 35.296875 
z
" id="ArialMT-48"/>
       </defs>
       <use xlink:href="#ArialMT-8722"/>
       <use x="58.398438" xlink:href="#ArialMT-49"/>
       <use x="114.013672" xlink:href="#ArialMT-48"/>
       <use x="169.628906" xlink:href="#ArialMT-48"/>
      </g>
     </g>
    </g>
    <g id="ytick_2">
     <g id="line2d_2">
      <g>
       <use style="stroke:#000000;stroke-width:0.8;" x="9" xlink:href="#m238e415164" y="190.231364"/>
      </g>
     </g>
     <g id="text_2">
      <!-- −75 -->
      <g transform="translate(-11.57 193.094489)scale(0.08 -0.08)">
       <defs>
        <path d="M 4.734375 62.203125 
L 4.734375 70.65625 
L 51.078125 70.65625 
L 51.078125 63.8125 
Q 44.234375 56.546875 37.515625 44.484375 
Q 30.8125 32.421875 27.15625 19.671875 
Q 24.515625 10.6875 23.78125 0 
L 14.75 0 
Q 14.890625 8.453125 18.0625 20.40625 
Q 21.234375 32.375 27.171875 43.484375 
Q 33.109375 54.59375 39.796875 62.203125 
z
" id="ArialMT-55"/>
        <path d="M 4.15625 18.75 
L 13.375 19.53125 
Q 14.40625 12.796875 18.140625 9.390625 
Q 21.875 6 27.15625 6 
Q 33.5 6 37.890625 10.78125 
Q 42.28125 15.578125 42.28125 23.484375 
Q 42.28125 31 38.0625 35.34375 
Q 33.84375 39.703125 27 39.703125 
Q 22.75 39.703125 19.328125 37.765625 
Q 15.921875 35.84375 13.96875 32.765625 
L 5.71875 33.84375 
L 12.640625 70.609375 
L 48.25 70.609375 
L 48.25 62.203125 
L 19.671875 62.203125 
L 15.828125 42.96875 
Q 22.265625 47.46875 29.34375 47.46875 
Q 38.71875 47.46875 45.15625 40.96875 
Q 51.609375 34.46875 51.609375 24.265625 
Q 51.609375 14.546875 45.953125 7.46875 
Q 39.0625 -1.21875 27.15625 -1.21875 
Q 17.390625 -1.21875 11.203125 4.25 
Q 5.03125 9.71875 4.15625 18.75 
z
" id="ArialMT-53"/>
       </defs>
       <use xlink:href="#ArialMT-8722"/>
       <use x="58.398438" xlink:href="#ArialMT-55"/>
       <use x="114.013672" xlink:href="#ArialMT-53"/>
      </g>
     </g>
    </g>
    <g id="ytick_3">
     <g id="line2d_3">
      <g>
       <use style="stroke:#000000;stroke-width:0.8;" x="9" xlink:href="#m238e415164" y="168.610909"/>
      </g>
     </g>
     <g id="text_3">
      <!-- −50 -->
      <g transform="translate(-11.57 171.474034)scale(0.08 -0.08)">
       <use xlink:href="#ArialMT-8722"/>
       <use x="58.398438" xlink:href="#ArialMT-53"/>
       <use x="114.013672" xlink:href="#ArialMT-48"/>
      </g>
     </g>
    </g>
    <g id="ytick_4">
     <g id="line2d_4">
      <g>
       <use style="stroke:#000000;stroke-width:0.8;" x="9" xlink:href="#m238e415164" y="146.990455"/>
      </g>
     </g>
     <g id="text_4">
      <!-- −25 -->
      <g transform="translate(-11.57 149.85358)scale(0.08 -0.08)">
       <defs>
        <path d="M 50.34375 8.453125 
L 50.34375 0 
L 3.03125 0 
Q 2.9375 3.171875 4.046875 6.109375 
Q 5.859375 10.9375 9.828125 15.625 
Q 13.8125 20.3125 21.34375 26.46875 
Q 33.015625 36.03125 37.109375 41.625 
Q 41.21875 47.21875 41.21875 52.203125 
Q 41.21875 57.421875 37.46875 61 
Q 33.734375 64.59375 27.734375 64.59375 
Q 21.390625 64.59375 17.578125 60.78125 
Q 13.765625 56.984375 13.71875 50.25 
L 4.6875 51.171875 
Q 5.609375 61.28125 11.65625 66.578125 
Q 17.71875 71.875 27.9375 71.875 
Q 38.234375 71.875 44.234375 66.15625 
Q 50.25 60.453125 50.25 52 
Q 50.25 47.703125 48.484375 43.546875 
Q 46.734375 39.40625 42.65625 34.8125 
Q 38.578125 30.21875 29.109375 22.21875 
Q 21.1875 15.578125 18.9375 13.203125 
Q 16.703125 10.84375 15.234375 8.453125 
z
" id="ArialMT-50"/>
       </defs>
       <use xlink:href="#ArialMT-8722"/>
       <use x="58.398438" xlink:href="#ArialMT-50"/>
       <use x="114.013672" xlink:href="#ArialMT-53"/>
      </g>
     </g>
    </g>
    <g id="ytick_5">
     <g id="line2d_5">
      <g>
       <use style="stroke:#000000;stroke-width:0.8;" x="9" xlink:href="#m238e415164" y="125.37"/>
      </g>
     </g>
     <g id="text_5">
      <!-- 0 -->
      <g transform="translate(-2.44875 128.233125)scale(0.08 -0.08)">
       <use xlink:href="#ArialMT-48"/>
      </g>
     </g>
    </g>
    <g id="ytick_6">
     <g id="line2d_6">
      <g>
       <use style="stroke:#000000;stroke-width:0.8;" x="9" xlink:href="#m238e415164" y="103.749545"/>
      </g>
     </g>
     <g id="text_6">
      <!-- 25 -->
      <g transform="translate(-6.8975 106.61267)scale(0.08 -0.08)">
       <use xlink:href="#ArialMT-50"/>
       <use x="55.615234" xlink:href="#ArialMT-53"/>
      </g>
     </g>
    </g>
    <g id="ytick_7">
     <g id="line2d_7">
      <g>
       <use style="stroke:#000000;stroke-width:0.8;" x="9" xlink:href="#m238e415164" y="82.129091"/>
      </g>
     </g>
     <g id="text_7">
      <!-- 50 -->
      <g transform="translate(-6.8975 84.992216)scale(0.08 -0.08)">
       <use xlink:href="#ArialMT-53"/>
       <use x="55.615234" xlink:href="#ArialMT-48"/>
      </g>
     </g>
    </g>
    <g id="ytick_8">
     <g id="line2d_8">
      <g>
       <use style="stroke:#000000;stroke-width:0.8;" x="9" xlink:href="#m238e415164" y="60.508636"/>
      </g>
     </g>
     <g id="text_8">
      <!-- 75 -->
      <g transform="translate(-6.8975 63.371761)scale(0.08 -0.08)">
       <use xlink:href="#ArialMT-55"/>
       <use x="55.615234" xlink:href="#ArialMT-53"/>
      </g>
     </g>
    </g>
    <g id="ytick_9">
     <g id="line2d_9">
      <g>
       <use style="stroke:#000000;stroke-width:0.8;" x="9" xlink:href="#m238e415164" y="38.888182"/>
      </g>
     </g>
     <g id="text_9">
      <!-- 100 -->
      <g transform="translate(-11.34625 41.751307)scale(0.08 -0.08)">
       <use xlink:href="#ArialMT-49"/>
       <use x="55.615234" xlink:href="#ArialMT-48"/>
       <use x="111.230469" xlink:href="#ArialMT-48"/>
      </g>
     </g>
    </g>
    <g id="text_10">
     <!-- Degrees -->
     <g transform="translate(-21.7025 140.488125)rotate(-90)scale(0.08 -0.08)">
      <defs>
       <path d="M 7.71875 0 
L 7.71875 71.578125 
L 32.375 71.578125 
Q 40.71875 71.578125 45.125 70.5625 
Q 51.265625 69.140625 55.609375 65.4375 
Q 61.28125 60.640625 64.078125 53.1875 
Q 66.890625 45.75 66.890625 36.1875 
Q 66.890625 28.03125 64.984375 21.734375 
Q 63.09375 15.4375 60.109375 11.296875 
Q 57.125 7.171875 53.578125 4.796875 
Q 50.046875 2.4375 45.046875 1.21875 
Q 40.046875 0 33.546875 0 
z
M 17.1875 8.453125 
L 32.46875 8.453125 
Q 39.546875 8.453125 43.578125 9.765625 
Q 47.609375 11.078125 50 13.484375 
Q 53.375 16.84375 55.25 22.53125 
Q 57.125 28.21875 57.125 36.328125 
Q 57.125 47.5625 53.4375 53.59375 
Q 49.75 59.625 44.484375 61.671875 
Q 40.671875 63.140625 32.234375 63.140625 
L 17.1875 63.140625 
z
" id="ArialMT-68"/>
       <path d="M 42.09375 16.703125 
L 51.171875 15.578125 
Q 49.03125 7.625 43.21875 3.21875 
Q 37.40625 -1.171875 28.375 -1.171875 
Q 17 -1.171875 10.328125 5.828125 
Q 3.65625 12.84375 3.65625 25.484375 
Q 3.65625 38.578125 10.390625 45.796875 
Q 17.140625 53.03125 27.875 53.03125 
Q 38.28125 53.03125 44.875 45.953125 
Q 51.46875 38.875 51.46875 26.03125 
Q 51.46875 25.25 51.421875 23.6875 
L 12.75 23.6875 
Q 13.234375 15.140625 17.578125 10.59375 
Q 21.921875 6.0625 28.421875 6.0625 
Q 33.25 6.0625 36.671875 8.59375 
Q 40.09375 11.140625 42.09375 16.703125 
z
M 13.234375 30.90625 
L 42.1875 30.90625 
Q 41.609375 37.453125 38.875 40.71875 
Q 34.671875 45.796875 27.984375 45.796875 
Q 21.921875 45.796875 17.796875 41.75 
Q 13.671875 37.703125 13.234375 30.90625 
z
" id="ArialMT-101"/>
       <path d="M 4.984375 -4.296875 
L 13.53125 -5.5625 
Q 14.0625 -9.515625 16.5 -11.328125 
Q 19.78125 -13.765625 25.4375 -13.765625 
Q 31.546875 -13.765625 34.859375 -11.328125 
Q 38.1875 -8.890625 39.359375 -4.5 
Q 40.046875 -1.8125 39.984375 6.78125 
Q 34.234375 0 25.640625 0 
Q 14.9375 0 9.078125 7.71875 
Q 3.21875 15.4375 3.21875 26.21875 
Q 3.21875 33.640625 5.90625 39.90625 
Q 8.59375 46.1875 13.6875 49.609375 
Q 18.796875 53.03125 25.6875 53.03125 
Q 34.859375 53.03125 40.828125 45.609375 
L 40.828125 51.859375 
L 48.921875 51.859375 
L 48.921875 7.03125 
Q 48.921875 -5.078125 46.453125 -10.125 
Q 44 -15.1875 38.640625 -18.109375 
Q 33.296875 -21.046875 25.484375 -21.046875 
Q 16.21875 -21.046875 10.5 -16.875 
Q 4.78125 -12.703125 4.984375 -4.296875 
z
M 12.25 26.859375 
Q 12.25 16.65625 16.296875 11.96875 
Q 20.359375 7.28125 26.46875 7.28125 
Q 32.515625 7.28125 36.609375 11.9375 
Q 40.71875 16.609375 40.71875 26.5625 
Q 40.71875 36.078125 36.5 40.90625 
Q 32.28125 45.75 26.3125 45.75 
Q 20.453125 45.75 16.34375 40.984375 
Q 12.25 36.234375 12.25 26.859375 
z
" id="ArialMT-103"/>
       <path d="M 6.5 0 
L 6.5 51.859375 
L 14.40625 51.859375 
L 14.40625 44 
Q 17.4375 49.515625 20 51.265625 
Q 22.5625 53.03125 25.640625 53.03125 
Q 30.078125 53.03125 34.671875 50.203125 
L 31.640625 42.046875 
Q 28.421875 43.953125 25.203125 43.953125 
Q 22.3125 43.953125 20.015625 42.21875 
Q 17.71875 40.484375 16.75 37.40625 
Q 15.28125 32.71875 15.28125 27.15625 
L 15.28125 0 
z
" id="ArialMT-114"/>
       <path d="M 3.078125 15.484375 
L 11.765625 16.84375 
Q 12.5 11.625 15.84375 8.84375 
Q 19.1875 6.0625 25.203125 6.0625 
Q 31.25 6.0625 34.171875 8.515625 
Q 37.109375 10.984375 37.109375 14.3125 
Q 37.109375 17.28125 34.515625 19 
Q 32.71875 20.171875 25.53125 21.96875 
Q 15.875 24.421875 12.140625 26.203125 
Q 8.40625 27.984375 6.46875 31.125 
Q 4.546875 34.28125 4.546875 38.09375 
Q 4.546875 41.546875 6.125 44.5 
Q 7.71875 47.46875 10.453125 49.421875 
Q 12.5 50.921875 16.03125 51.96875 
Q 19.578125 53.03125 23.640625 53.03125 
Q 29.734375 53.03125 34.34375 51.265625 
Q 38.96875 49.515625 41.15625 46.5 
Q 43.359375 43.5 44.1875 38.484375 
L 35.59375 37.3125 
Q 35.015625 41.3125 32.203125 43.546875 
Q 29.390625 45.796875 24.265625 45.796875 
Q 18.21875 45.796875 15.625 43.796875 
Q 13.03125 41.796875 13.03125 39.109375 
Q 13.03125 37.40625 14.109375 36.03125 
Q 15.1875 34.625 17.484375 33.6875 
Q 18.796875 33.203125 25.25 31.453125 
Q 34.578125 28.953125 38.25 27.359375 
Q 41.9375 25.78125 44.03125 22.75 
Q 46.140625 19.734375 46.140625 15.234375 
Q 46.140625 10.84375 43.578125 6.953125 
Q 41.015625 3.078125 36.171875 0.953125 
Q 31.34375 -1.171875 25.25 -1.171875 
Q 15.140625 -1.171875 9.84375 3.03125 
Q 4.546875 7.234375 3.078125 15.484375 
z
" id="ArialMT-115"/>
      </defs>
      <use xlink:href="#ArialMT-68"/>
      <use x="72.216797" xlink:href="#ArialMT-101"/>
      <use x="127.832031" xlink:href="#ArialMT-103"/>
      <use x="183.447266" xlink:href="#ArialMT-114"/>
      <use x="216.748047" xlink:href="#ArialMT-101"/>
      <use x="272.363281" xlink:href="#ArialMT-101"/>
      <use x="327.978516" xlink:href="#ArialMT-115"/>
     </g>
    </g>
   </g>
   <g id="line2d_10">
    <path clip-path="url(#p514af8f425)" d="M 11.536364 211.851818 
L 11.539384 210.104711 
L 11.543287 208.357603 
L 11.548304 206.610496 
L 11.554723 204.863388 
L 11.562897 203.116281 
L 11.573252 201.369174 
L 11.586309 199.622066 
L 11.602689 197.874959 
L 11.62314 196.127851 
L 11.648546 194.380744 
L 11.679951 192.633636 
L 11.718581 190.886529 
L 11.765861 189.139421 
L 11.823438 187.392314 
L 11.893204 185.645207 
L 11.977314 183.898099 
L 12.078204 182.150992 
L 12.19861 180.403884 
L 12.341573 178.656777 
L 12.510449 176.909669 
L 12.708907 175.162562 
L 12.940923 173.415455 
L 13.210755 171.668347 
L 13.522921 169.92124 
L 13.882155 168.174132 
L 14.293352 166.427025 
L 14.761502 164.679917 
L 15.291606 162.93281 
L 15.888582 161.185702 
L 16.557149 159.438595 
L 17.301709 157.691488 
L 18.12621 155.94438 
L 19.033999 154.197273 
L 20.027674 152.450165 
L 21.10893 150.703058 
L 22.278407 148.95595 
L 23.535543 147.208843 
L 24.878437 145.461736 
L 26.303735 143.714628 
L 27.806522 141.967521 
L 29.380262 140.220413 
L 31.016751 138.473306 
L 32.706112 136.726198 
L 34.436836 134.979091 
L 36.195854 133.231983 
L 37.968663 131.484876 
L 39.739485 129.737769 
L 41.491478 127.990661 
L 43.206978 126.243554 
L 44.867784 124.496446 
L 46.45547 122.749339 
L 47.95171 121.002231 
L 49.338633 119.255124 
L 50.599174 117.508017 
L 51.717417 115.760909 
L 52.678934 114.013802 
L 53.471091 112.266694 
L 54.083327 110.519587 
L 54.507383 108.772479 
L 54.737493 107.025372 
L 54.770514 105.278264 
L 54.605991 103.531157 
L 54.246177 101.78405 
L 53.695974 100.036942 
L 52.962826 98.289835 
L 52.056548 96.542727 
L 50.989112 94.79562 
L 49.774379 93.048512 
L 48.427805 91.301405 
L 46.96611 89.554298 
L 45.406935 87.80719 
L 43.768491 86.060083 
L 42.06921 84.312975 
L 40.327406 82.565868 
L 38.560952 80.81876 
L 36.786994 79.071653 
L 35.021691 77.324545 
L 33.279993 75.577438 
L 31.575463 73.830331 
L 29.920141 72.083223 
L 28.324455 70.336116 
L 26.797168 68.589008 
L 25.345372 66.841901 
L 23.974516 65.094793 
L 22.688465 63.347686 
L 21.489594 61.600579 
L 20.378897 59.853471 
L 19.356119 58.106364 
L 18.419902 56.359256 
L 17.567931 54.612149 
L 16.797091 52.865041 
L 16.103621 51.117934 
L 15.483254 49.370826 
L 14.931361 47.623719 
L 14.44308 45.876612 
L 14.013424 44.129504 
L 13.637391 42.382397 
L 13.310045 40.635289 
L 13.026592 38.888182 
" style="fill:none;stroke:#029e73;stroke-linecap:square;stroke-width:1.5;"/>
   </g>
   <g id="line2d_11">
    <path clip-path="url(#p514af8f425)" d="M 11.911791 211.851818 
L 11.993685 210.104711 
L 12.0907 208.357603 
L 12.205106 206.610496 
L 12.339408 204.863388 
L 12.496346 203.116281 
L 12.678891 201.369174 
L 12.890243 199.622066 
L 13.13381 197.874959 
L 13.413189 196.127851 
L 13.732138 194.380744 
L 14.094536 192.633636 
L 14.504334 190.886529 
L 14.965499 189.139421 
L 15.481947 187.392314 
L 16.057469 185.645207 
L 16.695639 183.898099 
L 17.399729 182.150992 
L 18.172605 180.403884 
L 19.016622 178.656777 
L 19.933517 176.909669 
L 20.924301 175.162562 
L 21.989152 173.415455 
L 23.127317 171.668347 
L 24.337014 169.92124 
L 25.615355 168.174132 
L 26.958278 166.427025 
L 28.360502 164.679917 
L 29.815496 162.93281 
L 31.315482 161.185702 
L 32.851455 159.438595 
L 34.413236 157.691488 
L 35.989553 155.94438 
L 37.568151 154.197273 
L 39.135929 152.450165 
L 40.679105 150.703058 
L 42.183409 148.95595 
L 43.634289 147.208843 
L 45.017141 145.461736 
L 46.317551 143.714628 
L 47.521541 141.967521 
L 48.615816 140.220413 
L 49.588009 138.473306 
L 50.426912 136.726198 
L 51.122693 134.979091 
L 51.667083 133.231983 
L 52.053546 131.484876 
L 52.277403 129.737769 
L 52.335932 127.990661 
L 52.228419 126.243554 
L 51.956174 124.496446 
L 51.522505 122.749339 
L 50.932651 121.002231 
L 50.193674 119.255124 
L 49.314324 117.508017 
L 48.304859 115.760909 
L 47.176854 114.013802 
L 45.942974 112.266694 
L 44.616741 110.519587 
L 43.212288 108.772479 
L 41.744112 107.025372 
L 40.226824 105.278264 
L 38.674916 103.531157 
L 37.102536 101.78405 
L 35.523284 100.036942 
L 33.950026 98.289835 
L 32.39474 96.542727 
L 30.868386 94.79562 
L 29.380802 93.048512 
L 27.940637 91.301405 
L 26.555301 89.554298 
L 25.230954 87.80719 
L 23.972514 86.060083 
L 22.78369 84.312975 
L 21.667036 82.565868 
L 20.624021 80.81876 
L 19.655113 79.071653 
L 18.759878 77.324545 
L 17.937079 75.577438 
L 17.184785 73.830331 
L 16.500478 72.083223 
L 15.881163 70.336116 
L 15.323468 68.589008 
L 14.823745 66.841901 
L 14.37816 65.094793 
L 13.982772 63.347686 
L 13.633613 61.600579 
L 13.326747 59.853471 
L 13.058327 58.106364 
L 12.824639 56.359256 
L 12.622139 54.612149 
L 12.447478 52.865041 
L 12.297523 51.117934 
L 12.16937 49.370826 
L 12.06035 47.623719 
L 11.968026 45.876612 
L 11.890195 44.129504 
L 11.824879 42.382397 
L 11.770309 40.635289 
L 11.724922 38.888182 
" style="fill:none;stroke:#cc78bc;stroke-linecap:square;stroke-width:1.5;"/>
   </g>
   <g id="line2d_12">
    <path clip-path="url(#p514af8f425)" d="M 11.54762 211.851818 
L 11.555182 210.104711 
L 11.565254 208.357603 
L 11.578577 206.610496 
L 11.596082 204.863388 
L 11.618927 203.116281 
L 11.64854 201.369174 
L 11.686665 199.622066 
L 11.735415 197.874959 
L 11.797326 196.127851 
L 11.875411 194.380744 
L 11.973217 192.633636 
L 12.094877 190.886529 
L 12.245158 189.139421 
L 12.429494 187.392314 
L 12.654013 185.645207 
L 12.92554 183.898099 
L 13.251579 182.150992 
L 13.640267 180.403884 
L 14.100292 178.656777 
L 14.640776 176.909669 
L 15.271119 175.162562 
L 16.000796 173.415455 
L 16.839111 171.668347 
L 17.794906 169.92124 
L 18.87624 168.174132 
L 20.090023 166.427025 
L 21.441628 164.679917 
L 22.934502 162.93281 
L 24.56976 161.185702 
L 26.345808 159.438595 
L 28.258 157.691488 
L 30.298345 155.94438 
L 32.455292 154.197273 
L 34.713601 152.450165 
L 37.054325 150.703058 
L 39.454911 148.95595 
L 41.88943 147.208843 
L 44.32894 145.461736 
L 46.741983 143.714628 
L 49.095199 141.967521 
L 51.354057 140.220413 
L 53.483669 138.473306 
L 55.449671 136.726198 
L 57.219133 134.979091 
L 58.761474 133.231983 
L 60.049335 131.484876 
L 61.059386 129.737769 
L 61.773031 127.990661 
L 62.176976 126.243554 
L 62.263636 124.496446 
L 62.031382 122.749339 
L 61.484582 121.002231 
L 60.633469 119.255124 
L 59.493825 117.508017 
L 58.086487 115.760909 
L 56.436721 114.013802 
L 54.573464 112.266694 
L 52.528483 110.519587 
L 50.335476 108.772479 
L 48.02916 107.025372 
L 45.644366 105.278264 
L 43.215184 103.531157 
L 40.774191 101.78405 
L 38.351763 100.036942 
L 35.975519 98.289835 
L 33.669882 96.542727 
L 31.455777 94.79562 
L 29.350461 93.048512 
L 27.367479 91.301405 
L 25.516734 89.554298 
L 23.804656 87.80719 
L 22.234456 86.060083 
L 20.806443 84.312975 
L 19.518389 82.565868 
L 18.365917 80.81876 
L 17.342901 79.071653 
L 16.441861 77.324545 
L 15.654337 75.577438 
L 14.971236 73.830331 
L 14.383143 72.083223 
L 13.880591 70.336116 
L 13.454283 68.589008 
L 13.095279 66.841901 
L 12.795129 65.094793 
L 12.54598 63.347686 
L 12.340634 61.600579 
L 12.172583 59.853471 
L 12.036018 58.106364 
L 11.925813 56.359256 
L 11.837498 54.612149 
L 11.767213 52.865041 
L 11.711662 51.117934 
L 11.668056 49.370826 
L 11.634061 47.623719 
L 11.607737 45.876612 
L 11.587493 44.129504 
L 11.572029 42.382397 
L 11.560295 40.635289 
L 11.551453 38.888182 
" style="fill:none;stroke:#d55e00;stroke-linecap:square;stroke-width:1.5;"/>
   </g>
   <g id="line2d_13">
    <path clip-path="url(#p514af8f425)" d="M 11.685776 211.851818 
L 11.724584 210.104711 
L 11.771796 208.357603 
L 11.82896 206.610496 
L 11.897843 204.863388 
L 11.980448 203.116281 
L 12.079031 201.369174 
L 12.196115 199.622066 
L 12.334494 197.874959 
L 12.497244 196.127851 
L 12.687717 194.380744 
L 12.909533 192.633636 
L 13.166566 190.886529 
L 13.46292 189.139421 
L 13.802888 187.392314 
L 14.19091 185.645207 
L 14.631515 183.898099 
L 15.129248 182.150992 
L 15.68859 180.403884 
L 16.313859 178.656777 
L 17.009113 176.909669 
L 17.778026 175.162562 
L 18.623767 173.415455 
L 19.548876 171.668347 
L 20.555121 169.92124 
L 21.643375 168.174132 
L 22.813482 166.427025 
L 24.064139 164.679917 
L 25.392785 162.93281 
L 26.795509 161.185702 
L 28.266984 159.438595 
L 29.800411 157.691488 
L 31.387511 155.94438 
L 33.018536 154.197273 
L 34.682315 152.450165 
L 36.366346 150.703058 
L 38.056915 148.95595 
L 39.739255 147.208843 
L 41.397739 145.461736 
L 43.01611 143.714628 
L 44.577729 141.967521 
L 46.065855 140.220413 
L 47.463938 138.473306 
L 48.755922 136.726198 
L 49.926546 134.979091 
L 50.961649 133.231983 
L 51.848446 131.484876 
L 52.575801 129.737769 
L 53.134451 127.990661 
L 53.517204 126.243554 
L 53.719097 124.496446 
L 53.737499 122.749339 
L 53.572169 121.002231 
L 53.225265 119.255124 
L 52.701289 117.508017 
L 52.006998 115.760909 
L 51.151254 114.013802 
L 50.144839 112.266694 
L 49.000226 110.519587 
L 47.731325 108.772479 
L 46.353198 107.025372 
L 44.881768 105.278264 
L 43.33351 103.531157 
L 41.725151 101.78405 
L 40.073373 100.036942 
L 38.394531 98.289835 
L 36.704396 96.542727 
L 35.017923 94.79562 
L 33.349053 93.048512 
L 31.71054 91.301405 
L 30.113828 89.554298 
L 28.568957 87.80719 
L 27.084501 86.060083 
L 25.667553 84.312975 
L 24.323734 82.565868 
L 23.057233 80.81876 
L 21.870872 79.071653 
L 20.7662 77.324545 
L 19.743592 75.577438 
L 18.802371 73.830331 
L 17.940936 72.083223 
L 17.156893 70.336116 
L 16.447188 68.589008 
L 15.808235 66.841901 
L 15.236047 65.094793 
L 14.726347 63.347686 
L 14.274679 61.600579 
L 13.876504 59.853471 
L 13.527284 58.106364 
L 13.222556 56.359256 
L 12.957994 54.612149 
L 12.729452 52.865041 
L 12.533009 51.117934 
L 12.364992 49.370826 
L 12.221993 47.623719 
L 12.100882 45.876612 
L 11.998809 44.129504 
L 11.913198 42.382397 
L 11.841739 40.635289 
L 11.78238 38.888182 
" style="fill:none;stroke:#ca9161;stroke-linecap:square;stroke-width:1.5;"/>
   </g>
   <g id="patch_3">
    <path d="M 9 220.5 
L 9 30.24 
" style="fill:none;stroke:#000000;stroke-linecap:square;stroke-linejoin:miter;stroke-width:0.8;"/>
   </g>
  </g>
 </g>
 <defs>
  <clipPath id="p514af8f425">
   <rect height="190.26" width="55.8" x="9" y="30.24"/>
  </clipPath>
 </defs>
</svg>
