<?xml version="1.0" encoding="utf-8" standalone="no"?>
<!DOCTYPE svg PUBLIC "-//W3C//DTD SVG 1.1//EN"
  "http://www.w3.org/Graphics/SVG/1.1/DTD/svg11.dtd">
<!-- Created with matplotlib (https://matplotlib.org/) -->
<svg height="252pt" version="1.1" viewBox="0 0 72 252" width="72pt" xmlns="http://www.w3.org/2000/svg" xmlns:xlink="http://www.w3.org/1999/xlink">
 <metadata>
  <rdf:RDF xmlns:cc="http://creativecommons.org/ns#" xmlns:dc="http://purl.org/dc/elements/1.1/" xmlns:rdf="http://www.w3.org/1999/02/22-rdf-syntax-ns#">
   <cc:Work>
    <dc:type rdf:resource="http://purl.org/dc/dcmitype/StillImage"/>
    <dc:date>2022-05-29T11:29:43.969474</dc:date>
    <dc:format>image/svg+xml</dc:format>
    <dc:creator>
     <cc:Agent>
      <dc:title>Matplotlib v3.3.4, https://matplotlib.org/</dc:title>
     </cc:Agent>
    </dc:creator>
   </cc:Work>
  </rdf:RDF>
 </metadata>
 <defs>
  <style type="text/css">*{stroke-linecap:butt;stroke-linejoin:round;}</style>
 </defs>
 <g id="figure_1">
  <g id="patch_1">
   <path d="M 0 252 
L 72 252 
L 72 0 
L 0 0 
z
" style="fill:none;"/>
  </g>
  <g id="axes_1">
   <g id="patch_2">
    <path d="M 9 220.5 
L 64.8 220.5 
L 64.8 30.24 
L 9 30.24 
z
" style="fill:#ffffff;"/>
   </g>
   <g id="matplotlib.axis_1">
    <g id="ytick_1">
     <g id="line2d_1">
      <defs>
       <path d="M 0 0 
L -3.5 0 
" id="mc71c7efc6b" style="stroke:#000000;stroke-width:0.8;"/>
      </defs>
      <g>
       <use style="stroke:#000000;stroke-width:0.8;" x="9" xlink:href="#mc71c7efc6b" y="172.935"/>
      </g>
     </g>
    </g>
    <g id="ytick_2">
     <g id="line2d_2">
      <g>
       <use style="stroke:#000000;stroke-width:0.8;" x="9" xlink:href="#mc71c7efc6b" y="77.805"/>
      </g>
     </g>
    </g>
   </g>
   <g id="line2d_3">
    <path clip-path="url(#p810de06790)" d="M 13.226066 220.5 
L 13.500008 218.578182 
L 13.809147 216.656364 
L 14.156614 214.734545 
L 14.545592 212.812727 
L 14.979277 210.890909 
L 15.460836 208.969091 
L 15.99335 207.047273 
L 16.579765 205.125455 
L 17.222826 203.203636 
L 17.925012 201.281818 
L 18.68847 199.36 
L 19.514936 197.438182 
L 20.405668 195.516364 
L 21.361371 193.594545 
L 22.382124 191.672727 
L 23.467314 189.750909 
L 24.615571 187.829091 
L 25.824715 185.907273 
L 27.091707 183.985455 
L 28.412617 182.063636 
L 29.782597 180.141818 
L 31.195874 178.22 
L 32.645761 176.298182 
L 34.124673 174.376364 
L 35.624178 172.454545 
L 37.135049 170.532727 
L 38.647348 168.610909 
L 40.150515 166.689091 
L 41.633486 164.767273 
L 43.084817 162.845455 
L 44.492824 160.923636 
L 45.845738 159.001818 
L 47.131863 157.08 
L 48.339742 155.158182 
L 49.458328 153.236364 
L 50.477147 151.314545 
L 51.386465 149.392727 
L 52.17744 147.470909 
L 52.842266 145.549091 
L 53.374299 143.627273 
L 53.768171 141.705455 
L 54.019878 139.783636 
L 54.126847 137.861818 
L 54.087983 135.94 
L 53.903684 134.018182 
L 53.575836 132.096364 
L 53.107781 130.174545 
L 52.50426 128.252727 
L 51.771333 126.330909 
L 50.916278 124.409091 
L 49.94747 122.487273 
L 48.874245 120.565455 
L 47.70675 118.643636 
L 46.455786 116.721818 
L 45.132639 114.8 
L 43.748914 112.878182 
L 42.316366 110.956364 
L 40.846739 109.034545 
L 39.351606 107.112727 
L 37.842227 105.190909 
L 36.329411 103.269091 
L 34.823401 101.347273 
L 33.333766 99.425455 
L 31.869318 97.503636 
L 30.438045 95.581818 
L 29.047057 93.66 
L 27.702556 91.738182 
L 26.409822 89.816364 
L 25.173213 87.894545 
L 23.996179 85.972727 
L 22.881299 84.050909 
L 21.830312 82.129091 
L 20.844179 80.207273 
L 19.923136 78.285455 
L 19.066762 76.363636 
L 18.274048 74.441818 
L 17.543472 72.52 
L 16.873071 70.598182 
L 16.260511 68.676364 
L 15.703164 66.754545 
L 15.19817 64.832727 
L 14.742503 62.910909 
L 14.333029 60.989091 
L 13.966561 59.067273 
L 13.639904 57.145455 
L 13.349899 55.223636 
L 13.093457 53.301818 
L 12.867588 51.38 
L 12.66943 49.458182 
L 12.49626 47.536364 
L 12.345515 45.614545 
L 12.214798 43.692727 
L 12.101885 41.770909 
L 12.004723 39.849091 
L 11.921433 37.927273 
L 11.850307 36.005455 
L 11.789798 34.083636 
L 11.738514 32.161818 
L 11.695213 30.24 
" style="fill:none;stroke:#000000;stroke-linecap:square;stroke-width:1.5;"/>
   </g>
   <g id="line2d_4">
    <path clip-path="url(#p810de06790)" d="M 11.536364 220.5 
L 11.550752 218.578182 
L 11.568966 216.656364 
L 11.591901 214.734545 
L 11.620632 212.812727 
L 11.656432 210.890909 
L 11.700808 208.969091 
L 11.755523 207.047273 
L 11.822629 205.125455 
L 11.904494 203.203636 
L 12.003832 201.281818 
L 12.123724 199.36 
L 12.267647 197.438182 
L 12.43948 195.516364 
L 12.643521 193.594545 
L 12.884482 191.672727 
L 13.167477 189.750909 
L 13.498001 187.829091 
L 13.881882 185.907273 
L 14.325232 183.985455 
L 14.834364 182.063636 
L 15.415702 180.141818 
L 16.075662 178.22 
L 16.820517 176.298182 
L 17.656241 174.376364 
L 18.588336 172.454545 
L 19.621646 170.532727 
L 20.76015 168.610909 
L 22.006764 166.689091 
L 23.363123 164.767273 
L 24.829381 162.845455 
L 26.404013 160.923636 
L 28.083644 159.001818 
L 29.862896 157.08 
L 31.734276 155.158182 
L 33.6881 153.236364 
L 35.712467 151.314545 
L 37.793291 149.392727 
L 39.91438 147.470909 
L 42.05759 145.549091 
L 44.203027 143.627273 
L 46.329318 141.705455 
L 48.413936 139.783636 
L 50.433572 137.861818 
L 52.364557 135.94 
L 54.183312 134.018182 
L 55.866819 132.096364 
L 57.393102 130.174545 
L 58.741702 128.252727 
L 59.894133 126.330909 
L 60.834303 124.409091 
L 61.548886 122.487273 
L 62.027636 120.565455 
L 62.263636 118.643636 
L 62.253459 116.721818 
L 61.997252 114.8 
L 61.498735 112.878182 
L 60.765108 110.956364 
L 59.806881 109.034545 
L 58.63762 107.112727 
L 57.27363 105.190909 
L 55.733578 103.269091 
L 54.038063 101.347273 
L 52.209166 99.425455 
L 50.26997 97.503636 
L 48.244078 95.581818 
L 46.155148 93.66 
L 44.026438 91.738182 
L 41.880394 89.816364 
L 39.738279 87.894545 
L 37.61985 85.972727 
L 35.5431 84.050909 
L 33.524049 82.129091 
L 31.576607 80.207273 
L 29.712492 78.285455 
L 27.941205 76.363636 
L 26.270062 74.441818 
L 24.70427 72.52 
L 23.247047 70.598182 
L 21.899769 68.676364 
L 20.662156 66.754545 
L 19.532457 64.832727 
L 18.507662 62.910909 
L 17.583712 60.989091 
L 16.755701 59.067273 
L 16.018082 57.145455 
L 15.364849 55.223636 
L 14.789712 53.301818 
L 14.28625 51.38 
L 13.848043 49.458182 
L 13.468792 47.536364 
L 13.142407 45.614545 
L 12.863082 43.692727 
L 12.625356 41.770909 
L 12.424145 39.849091 
L 12.254771 37.927273 
L 12.112973 36.005455 
L 11.994902 34.083636 
L 11.897118 32.161818 
L 11.816568 30.24 
" style="fill:none;stroke:#808080;stroke-dasharray:5.55,2.4;stroke-dashoffset:0;stroke-width:1.5;"/>
   </g>
   <g id="line2d_5">
    <path clip-path="url(#p810de06790)" d="M 11.594646 220.5 
L 11.621165 218.578182 
L 11.653557 216.656364 
L 11.692946 214.734545 
L 11.740632 212.812727 
L 11.798102 210.890909 
L 11.867057 208.969091 
L 11.949417 207.047273 
L 12.047347 205.125455 
L 12.163261 203.203636 
L 12.299837 201.281818 
L 12.460025 199.36 
L 12.647041 197.438182 
L 12.864371 195.516364 
L 13.115756 193.594545 
L 13.405173 191.672727 
L 13.736809 189.750909 
L 14.115025 187.829091 
L 14.544304 185.907273 
L 15.029199 183.985455 
L 15.57426 182.063636 
L 16.183955 180.141818 
L 16.862577 178.22 
L 17.614146 176.298182 
L 18.442299 174.376364 
L 19.350171 172.454545 
L 20.340273 170.532727 
L 21.414369 168.610909 
L 22.573352 166.689091 
L 23.817119 164.767273 
L 25.14446 162.845455 
L 26.552956 160.923636 
L 28.038885 159.001818 
L 29.597158 157.08 
L 31.221268 155.158182 
L 32.903267 153.236364 
L 34.633777 151.314545 
L 36.402019 149.392727 
L 38.195893 147.470909 
L 40.002075 145.549091 
L 41.806153 143.627273 
L 43.592806 141.705455 
L 45.345991 139.783636 
L 47.04918 137.861818 
L 48.685607 135.94 
L 50.238534 134.018182 
L 51.691536 132.096364 
L 53.028782 130.174545 
L 54.235327 128.252727 
L 55.297382 126.330909 
L 56.20258 124.409091 
L 56.940216 122.487273 
L 57.501456 120.565455 
L 57.879511 118.643636 
L 58.069777 116.721818 
L 58.069929 114.8 
L 57.879965 112.878182 
L 57.502207 110.956364 
L 56.941256 109.034545 
L 56.203895 107.112727 
L 55.298956 105.190909 
L 54.237142 103.269091 
L 53.030818 101.347273 
L 51.693769 99.425455 
L 50.240939 97.503636 
L 48.688159 95.581818 
L 47.051852 93.66 
L 45.348756 91.738182 
L 43.595637 89.816364 
L 41.809026 87.894545 
L 40.004962 85.972727 
L 38.198773 84.050909 
L 36.404868 82.129091 
L 34.636574 80.207273 
L 32.905996 78.285455 
L 31.223911 76.363636 
L 29.599702 74.441818 
L 28.041318 72.52 
L 26.555269 70.598182 
L 25.146646 68.676364 
L 23.819173 66.754545 
L 22.575271 64.832727 
L 21.416153 62.910909 
L 20.341921 60.989091 
L 19.351686 59.067273 
L 18.443685 57.145455 
L 17.615407 55.223636 
L 16.863718 53.301818 
L 16.184983 51.38 
L 15.575182 49.458182 
L 15.030021 47.536364 
L 14.545033 45.614545 
L 14.115668 43.692727 
L 13.737375 41.770909 
L 13.405668 39.849091 
L 13.116186 37.927273 
L 12.864744 36.005455 
L 12.647363 34.083636 
L 12.460301 32.161818 
L 12.300074 30.24 
" style="fill:none;stroke:#d3d3d3;stroke-dasharray:1.5,2.475;stroke-dashoffset:0;stroke-width:1.5;"/>
   </g>
   <g id="patch_3">
    <path d="M 9 220.5 
L 9 30.24 
" style="fill:none;stroke:#000000;stroke-linecap:square;stroke-linejoin:miter;stroke-width:0.8;"/>
   </g>
   <g id="legend_1">
    <g id="patch_4">
     <path d="M 13.2 217.5 
L 78.758437 217.5 
Q 79.958438 217.5 79.958438 216.3 
L 79.958438 191.438437 
Q 79.958438 190.238438 78.758437 190.238438 
L 13.2 190.238438 
Q 12 190.238438 12 191.438437 
L 12 216.3 
Q 12 217.5 13.2 217.5 
z
" style="fill:#ffffff;opacity:0.8;stroke:#cccccc;stroke-linejoin:miter;"/>
    </g>
    <g id="line2d_6">
     <path d="M 14.4 194.833125 
L 26.4 194.833125 
" style="fill:none;stroke:#000000;stroke-linecap:square;stroke-width:1.5;"/>
    </g>
    <g id="line2d_7"/>
    <g id="text_1">
     <!-- -1.77-0.82 inches -->
     <g transform="translate(31.2 196.933125)scale(0.06 -0.06)">
      <defs>
       <path d="M 3.171875 21.484375 
L 3.171875 30.328125 
L 30.171875 30.328125 
L 30.171875 21.484375 
z
" id="ArialMT-45"/>
       <path d="M 37.25 0 
L 28.46875 0 
L 28.46875 56 
Q 25.296875 52.984375 20.140625 49.953125 
Q 14.984375 46.921875 10.890625 45.40625 
L 10.890625 53.90625 
Q 18.265625 57.375 23.78125 62.296875 
Q 29.296875 67.234375 31.59375 71.875 
L 37.25 71.875 
z
" id="ArialMT-49"/>
       <path d="M 9.078125 0 
L 9.078125 10.015625 
L 19.09375 10.015625 
L 19.09375 0 
z
" id="ArialMT-46"/>
       <path d="M 4.734375 62.203125 
L 4.734375 70.65625 
L 51.078125 70.65625 
L 51.078125 63.8125 
Q 44.234375 56.546875 37.515625 44.484375 
Q 30.8125 32.421875 27.15625 19.671875 
Q 24.515625 10.6875 23.78125 0 
L 14.75 0 
Q 14.890625 8.453125 18.0625 20.40625 
Q 21.234375 32.375 27.171875 43.484375 
Q 33.109375 54.59375 39.796875 62.203125 
z
" id="ArialMT-55"/>
       <path d="M 4.15625 35.296875 
Q 4.15625 48 6.765625 55.734375 
Q 9.375 63.484375 14.515625 67.671875 
Q 19.671875 71.875 27.484375 71.875 
Q 33.25 71.875 37.59375 69.546875 
Q 41.9375 67.234375 44.765625 62.859375 
Q 47.609375 58.5 49.21875 52.21875 
Q 50.828125 45.953125 50.828125 35.296875 
Q 50.828125 22.703125 48.234375 14.96875 
Q 45.65625 7.234375 40.5 3 
Q 35.359375 -1.21875 27.484375 -1.21875 
Q 17.140625 -1.21875 11.234375 6.203125 
Q 4.15625 15.140625 4.15625 35.296875 
z
M 13.1875 35.296875 
Q 13.1875 17.671875 17.3125 11.828125 
Q 21.4375 6 27.484375 6 
Q 33.546875 6 37.671875 11.859375 
Q 41.796875 17.71875 41.796875 35.296875 
Q 41.796875 52.984375 37.671875 58.78125 
Q 33.546875 64.59375 27.390625 64.59375 
Q 21.34375 64.59375 17.71875 59.46875 
Q 13.1875 52.9375 13.1875 35.296875 
z
" id="ArialMT-48"/>
       <path d="M 17.671875 38.8125 
Q 12.203125 40.828125 9.5625 44.53125 
Q 6.9375 48.25 6.9375 53.421875 
Q 6.9375 61.234375 12.546875 66.546875 
Q 18.171875 71.875 27.484375 71.875 
Q 36.859375 71.875 42.578125 66.421875 
Q 48.296875 60.984375 48.296875 53.171875 
Q 48.296875 48.1875 45.671875 44.5 
Q 43.0625 40.828125 37.75 38.8125 
Q 44.34375 36.671875 47.78125 31.875 
Q 51.21875 27.09375 51.21875 20.453125 
Q 51.21875 11.28125 44.71875 5.03125 
Q 38.234375 -1.21875 27.640625 -1.21875 
Q 17.046875 -1.21875 10.546875 5.046875 
Q 4.046875 11.328125 4.046875 20.703125 
Q 4.046875 27.6875 7.59375 32.390625 
Q 11.140625 37.109375 17.671875 38.8125 
z
M 15.921875 53.71875 
Q 15.921875 48.640625 19.1875 45.40625 
Q 22.46875 42.1875 27.6875 42.1875 
Q 32.765625 42.1875 36.015625 45.375 
Q 39.265625 48.578125 39.265625 53.21875 
Q 39.265625 58.0625 35.90625 61.359375 
Q 32.5625 64.65625 27.59375 64.65625 
Q 22.5625 64.65625 19.234375 61.421875 
Q 15.921875 58.203125 15.921875 53.71875 
z
M 13.09375 20.65625 
Q 13.09375 16.890625 14.875 13.375 
Q 16.65625 9.859375 20.171875 7.921875 
Q 23.6875 6 27.734375 6 
Q 34.03125 6 38.125 10.046875 
Q 42.234375 14.109375 42.234375 20.359375 
Q 42.234375 26.703125 38.015625 30.859375 
Q 33.796875 35.015625 27.4375 35.015625 
Q 21.234375 35.015625 17.15625 30.90625 
Q 13.09375 26.8125 13.09375 20.65625 
z
" id="ArialMT-56"/>
       <path d="M 50.34375 8.453125 
L 50.34375 0 
L 3.03125 0 
Q 2.9375 3.171875 4.046875 6.109375 
Q 5.859375 10.9375 9.828125 15.625 
Q 13.8125 20.3125 21.34375 26.46875 
Q 33.015625 36.03125 37.109375 41.625 
Q 41.21875 47.21875 41.21875 52.203125 
Q 41.21875 57.421875 37.46875 61 
Q 33.734375 64.59375 27.734375 64.59375 
Q 21.390625 64.59375 17.578125 60.78125 
Q 13.765625 56.984375 13.71875 50.25 
L 4.6875 51.171875 
Q 5.609375 61.28125 11.65625 66.578125 
Q 17.71875 71.875 27.9375 71.875 
Q 38.234375 71.875 44.234375 66.15625 
Q 50.25 60.453125 50.25 52 
Q 50.25 47.703125 48.484375 43.546875 
Q 46.734375 39.40625 42.65625 34.8125 
Q 38.578125 30.21875 29.109375 22.21875 
Q 21.1875 15.578125 18.9375 13.203125 
Q 16.703125 10.84375 15.234375 8.453125 
z
" id="ArialMT-50"/>
       <path id="ArialMT-32"/>
       <path d="M 6.640625 61.46875 
L 6.640625 71.578125 
L 15.4375 71.578125 
L 15.4375 61.46875 
z
M 6.640625 0 
L 6.640625 51.859375 
L 15.4375 51.859375 
L 15.4375 0 
z
" id="ArialMT-105"/>
       <path d="M 6.59375 0 
L 6.59375 51.859375 
L 14.5 51.859375 
L 14.5 44.484375 
Q 20.21875 53.03125 31 53.03125 
Q 35.6875 53.03125 39.625 51.34375 
Q 43.5625 49.65625 45.515625 46.921875 
Q 47.46875 44.1875 48.25 40.4375 
Q 48.734375 37.984375 48.734375 31.890625 
L 48.734375 0 
L 39.9375 0 
L 39.9375 31.546875 
Q 39.9375 36.921875 38.90625 39.578125 
Q 37.890625 42.234375 35.28125 43.8125 
Q 32.671875 45.40625 29.15625 45.40625 
Q 23.53125 45.40625 19.453125 41.84375 
Q 15.375 38.28125 15.375 28.328125 
L 15.375 0 
z
" id="ArialMT-110"/>
       <path d="M 40.4375 19 
L 49.078125 17.875 
Q 47.65625 8.9375 41.8125 3.875 
Q 35.984375 -1.171875 27.484375 -1.171875 
Q 16.84375 -1.171875 10.375 5.78125 
Q 3.90625 12.75 3.90625 25.734375 
Q 3.90625 34.125 6.6875 40.421875 
Q 9.46875 46.734375 15.15625 49.875 
Q 20.84375 53.03125 27.546875 53.03125 
Q 35.984375 53.03125 41.359375 48.75 
Q 46.734375 44.484375 48.25 36.625 
L 39.703125 35.296875 
Q 38.484375 40.53125 35.375 43.15625 
Q 32.28125 45.796875 27.875 45.796875 
Q 21.234375 45.796875 17.078125 41.03125 
Q 12.9375 36.28125 12.9375 25.984375 
Q 12.9375 15.53125 16.9375 10.796875 
Q 20.953125 6.0625 27.390625 6.0625 
Q 32.5625 6.0625 36.03125 9.234375 
Q 39.5 12.40625 40.4375 19 
z
" id="ArialMT-99"/>
       <path d="M 6.59375 0 
L 6.59375 71.578125 
L 15.375 71.578125 
L 15.375 45.90625 
Q 21.53125 53.03125 30.90625 53.03125 
Q 36.671875 53.03125 40.921875 50.75 
Q 45.171875 48.484375 47 44.484375 
Q 48.828125 40.484375 48.828125 32.859375 
L 48.828125 0 
L 40.046875 0 
L 40.046875 32.859375 
Q 40.046875 39.453125 37.1875 42.453125 
Q 34.328125 45.453125 29.109375 45.453125 
Q 25.203125 45.453125 21.75 43.421875 
Q 18.3125 41.40625 16.84375 37.9375 
Q 15.375 34.46875 15.375 28.375 
L 15.375 0 
z
" id="ArialMT-104"/>
       <path d="M 42.09375 16.703125 
L 51.171875 15.578125 
Q 49.03125 7.625 43.21875 3.21875 
Q 37.40625 -1.171875 28.375 -1.171875 
Q 17 -1.171875 10.328125 5.828125 
Q 3.65625 12.84375 3.65625 25.484375 
Q 3.65625 38.578125 10.390625 45.796875 
Q 17.140625 53.03125 27.875 53.03125 
Q 38.28125 53.03125 44.875 45.953125 
Q 51.46875 38.875 51.46875 26.03125 
Q 51.46875 25.25 51.421875 23.6875 
L 12.75 23.6875 
Q 13.234375 15.140625 17.578125 10.59375 
Q 21.921875 6.0625 28.421875 6.0625 
Q 33.25 6.0625 36.671875 8.59375 
Q 40.09375 11.140625 42.09375 16.703125 
z
M 13.234375 30.90625 
L 42.1875 30.90625 
Q 41.609375 37.453125 38.875 40.71875 
Q 34.671875 45.796875 27.984375 45.796875 
Q 21.921875 45.796875 17.796875 41.75 
Q 13.671875 37.703125 13.234375 30.90625 
z
" id="ArialMT-101"/>
       <path d="M 3.078125 15.484375 
L 11.765625 16.84375 
Q 12.5 11.625 15.84375 8.84375 
Q 19.1875 6.0625 25.203125 6.0625 
Q 31.25 6.0625 34.171875 8.515625 
Q 37.109375 10.984375 37.109375 14.3125 
Q 37.109375 17.28125 34.515625 19 
Q 32.71875 20.171875 25.53125 21.96875 
Q 15.875 24.421875 12.140625 26.203125 
Q 8.40625 27.984375 6.46875 31.125 
Q 4.546875 34.28125 4.546875 38.09375 
Q 4.546875 41.546875 6.125 44.5 
Q 7.71875 47.46875 10.453125 49.421875 
Q 12.5 50.921875 16.03125 51.96875 
Q 19.578125 53.03125 23.640625 53.03125 
Q 29.734375 53.03125 34.34375 51.265625 
Q 38.96875 49.515625 41.15625 46.5 
Q 43.359375 43.5 44.1875 38.484375 
L 35.59375 37.3125 
Q 35.015625 41.3125 32.203125 43.546875 
Q 29.390625 45.796875 24.265625 45.796875 
Q 18.21875 45.796875 15.625 43.796875 
Q 13.03125 41.796875 13.03125 39.109375 
Q 13.03125 37.40625 14.109375 36.03125 
Q 15.1875 34.625 17.484375 33.6875 
Q 18.796875 33.203125 25.25 31.453125 
Q 34.578125 28.953125 38.25 27.359375 
Q 41.9375 25.78125 44.03125 22.75 
Q 46.140625 19.734375 46.140625 15.234375 
Q 46.140625 10.84375 43.578125 6.953125 
Q 41.015625 3.078125 36.171875 0.953125 
Q 31.34375 -1.171875 25.25 -1.171875 
Q 15.140625 -1.171875 9.84375 3.03125 
Q 4.546875 7.234375 3.078125 15.484375 
z
" id="ArialMT-115"/>
      </defs>
      <use xlink:href="#ArialMT-45"/>
      <use x="33.300781" xlink:href="#ArialMT-49"/>
      <use x="88.916016" xlink:href="#ArialMT-46"/>
      <use x="116.699219" xlink:href="#ArialMT-55"/>
      <use x="172.314453" xlink:href="#ArialMT-55"/>
      <use x="227.929688" xlink:href="#ArialMT-45"/>
      <use x="261.230469" xlink:href="#ArialMT-48"/>
      <use x="316.845703" xlink:href="#ArialMT-46"/>
      <use x="344.628906" xlink:href="#ArialMT-56"/>
      <use x="400.244141" xlink:href="#ArialMT-50"/>
      <use x="455.859375" xlink:href="#ArialMT-32"/>
      <use x="483.642578" xlink:href="#ArialMT-105"/>
      <use x="505.859375" xlink:href="#ArialMT-110"/>
      <use x="561.474609" xlink:href="#ArialMT-99"/>
      <use x="611.474609" xlink:href="#ArialMT-104"/>
      <use x="667.089844" xlink:href="#ArialMT-101"/>
      <use x="722.705078" xlink:href="#ArialMT-115"/>
     </g>
    </g>
    <g id="line2d_8">
     <path d="M 14.4 203.320312 
L 26.4 203.320312 
" style="fill:none;stroke:#808080;stroke-dasharray:5.55,2.4;stroke-dashoffset:0;stroke-width:1.5;"/>
    </g>
    <g id="line2d_9"/>
    <g id="text_2">
     <!-- 0.82-1.19 inches -->
     <g transform="translate(31.2 205.420312)scale(0.06 -0.06)">
      <defs>
       <path d="M 5.46875 16.546875 
L 13.921875 17.328125 
Q 14.984375 11.375 18.015625 8.6875 
Q 21.046875 6 25.78125 6 
Q 29.828125 6 32.875 7.859375 
Q 35.9375 9.71875 37.890625 12.8125 
Q 39.84375 15.921875 41.15625 21.1875 
Q 42.484375 26.46875 42.484375 31.9375 
Q 42.484375 32.515625 42.4375 33.6875 
Q 39.796875 29.5 35.234375 26.875 
Q 30.671875 24.265625 25.34375 24.265625 
Q 16.453125 24.265625 10.296875 30.703125 
Q 4.15625 37.15625 4.15625 47.703125 
Q 4.15625 58.59375 10.578125 65.234375 
Q 17 71.875 26.65625 71.875 
Q 33.640625 71.875 39.421875 68.109375 
Q 45.21875 64.359375 48.21875 57.390625 
Q 51.21875 50.4375 51.21875 37.25 
Q 51.21875 23.53125 48.234375 15.40625 
Q 45.265625 7.28125 39.375 3.03125 
Q 33.5 -1.21875 25.59375 -1.21875 
Q 17.1875 -1.21875 11.859375 3.4375 
Q 6.546875 8.109375 5.46875 16.546875 
z
M 41.453125 48.140625 
Q 41.453125 55.71875 37.421875 60.15625 
Q 33.40625 64.59375 27.734375 64.59375 
Q 21.875 64.59375 17.53125 59.8125 
Q 13.1875 55.03125 13.1875 47.40625 
Q 13.1875 40.578125 17.3125 36.296875 
Q 21.4375 32.03125 27.484375 32.03125 
Q 33.59375 32.03125 37.515625 36.296875 
Q 41.453125 40.578125 41.453125 48.140625 
z
" id="ArialMT-57"/>
      </defs>
      <use xlink:href="#ArialMT-48"/>
      <use x="55.615234" xlink:href="#ArialMT-46"/>
      <use x="83.398438" xlink:href="#ArialMT-56"/>
      <use x="139.013672" xlink:href="#ArialMT-50"/>
      <use x="194.628906" xlink:href="#ArialMT-45"/>
      <use x="227.929688" xlink:href="#ArialMT-49"/>
      <use x="283.544922" xlink:href="#ArialMT-46"/>
      <use x="311.328125" xlink:href="#ArialMT-49"/>
      <use x="366.943359" xlink:href="#ArialMT-57"/>
      <use x="422.558594" xlink:href="#ArialMT-32"/>
      <use x="450.341797" xlink:href="#ArialMT-105"/>
      <use x="472.558594" xlink:href="#ArialMT-110"/>
      <use x="528.173828" xlink:href="#ArialMT-99"/>
      <use x="578.173828" xlink:href="#ArialMT-104"/>
      <use x="633.789062" xlink:href="#ArialMT-101"/>
      <use x="689.404297" xlink:href="#ArialMT-115"/>
     </g>
    </g>
    <g id="line2d_10">
     <path d="M 14.4 211.8075 
L 26.4 211.8075 
" style="fill:none;stroke:#d3d3d3;stroke-dasharray:1.5,2.475;stroke-dashoffset:0;stroke-width:1.5;"/>
    </g>
    <g id="line2d_11"/>
    <g id="text_3">
     <!-- 1.19-1.39 inches -->
     <g transform="translate(31.2 213.9075)scale(0.06 -0.06)">
      <defs>
       <path d="M 4.203125 18.890625 
L 12.984375 20.0625 
Q 14.5 12.59375 18.140625 9.296875 
Q 21.78125 6 27 6 
Q 33.203125 6 37.46875 10.296875 
Q 41.75 14.59375 41.75 20.953125 
Q 41.75 27 37.796875 30.921875 
Q 33.84375 34.859375 27.734375 34.859375 
Q 25.25 34.859375 21.53125 33.890625 
L 22.515625 41.609375 
Q 23.390625 41.5 23.921875 41.5 
Q 29.546875 41.5 34.03125 44.421875 
Q 38.53125 47.359375 38.53125 53.46875 
Q 38.53125 58.296875 35.25 61.46875 
Q 31.984375 64.65625 26.8125 64.65625 
Q 21.6875 64.65625 18.265625 61.421875 
Q 14.84375 58.203125 13.875 51.765625 
L 5.078125 53.328125 
Q 6.6875 62.15625 12.390625 67.015625 
Q 18.109375 71.875 26.609375 71.875 
Q 32.46875 71.875 37.390625 69.359375 
Q 42.328125 66.84375 44.9375 62.5 
Q 47.5625 58.15625 47.5625 53.265625 
Q 47.5625 48.640625 45.0625 44.828125 
Q 42.578125 41.015625 37.703125 38.765625 
Q 44.046875 37.3125 47.5625 32.6875 
Q 51.078125 28.078125 51.078125 21.140625 
Q 51.078125 11.765625 44.234375 5.25 
Q 37.40625 -1.265625 26.953125 -1.265625 
Q 17.53125 -1.265625 11.296875 4.34375 
Q 5.078125 9.96875 4.203125 18.890625 
z
" id="ArialMT-51"/>
      </defs>
      <use xlink:href="#ArialMT-49"/>
      <use x="55.615234" xlink:href="#ArialMT-46"/>
      <use x="83.398438" xlink:href="#ArialMT-49"/>
      <use x="139.013672" xlink:href="#ArialMT-57"/>
      <use x="194.628906" xlink:href="#ArialMT-45"/>
      <use x="227.929688" xlink:href="#ArialMT-49"/>
      <use x="283.544922" xlink:href="#ArialMT-46"/>
      <use x="311.328125" xlink:href="#ArialMT-51"/>
      <use x="366.943359" xlink:href="#ArialMT-57"/>
      <use x="422.558594" xlink:href="#ArialMT-32"/>
      <use x="450.341797" xlink:href="#ArialMT-105"/>
      <use x="472.558594" xlink:href="#ArialMT-110"/>
      <use x="528.173828" xlink:href="#ArialMT-99"/>
      <use x="578.173828" xlink:href="#ArialMT-104"/>
      <use x="633.789062" xlink:href="#ArialMT-101"/>
      <use x="689.404297" xlink:href="#ArialMT-115"/>
     </g>
    </g>
   </g>
  </g>
 </g>
 <defs>
  <clipPath id="p810de06790">
   <rect height="190.26" width="55.8" x="9" y="30.24"/>
  </clipPath>
 </defs>
</svg>
