<?xml version="1.0" encoding="utf-8" standalone="no"?>
<!DOCTYPE svg PUBLIC "-//W3C//DTD SVG 1.1//EN"
  "http://www.w3.org/Graphics/SVG/1.1/DTD/svg11.dtd">
<!-- Created with matplotlib (https://matplotlib.org/) -->
<svg height="252pt" version="1.1" viewBox="0 0 72 252" width="72pt" xmlns="http://www.w3.org/2000/svg" xmlns:xlink="http://www.w3.org/1999/xlink">
 <metadata>
  <rdf:RDF xmlns:cc="http://creativecommons.org/ns#" xmlns:dc="http://purl.org/dc/elements/1.1/" xmlns:rdf="http://www.w3.org/1999/02/22-rdf-syntax-ns#">
   <cc:Work>
    <dc:type rdf:resource="http://purl.org/dc/dcmitype/StillImage"/>
    <dc:date>2022-05-29T10:59:03.489213</dc:date>
    <dc:format>image/svg+xml</dc:format>
    <dc:creator>
     <cc:Agent>
      <dc:title>Matplotlib v3.3.4, https://matplotlib.org/</dc:title>
     </cc:Agent>
    </dc:creator>
   </cc:Work>
  </rdf:RDF>
 </metadata>
 <defs>
  <style type="text/css">*{stroke-linecap:butt;stroke-linejoin:round;}</style>
 </defs>
 <g id="figure_1">
  <g id="patch_1">
   <path d="M 0 252 
L 72 252 
L 72 0 
L 0 0 
z
" style="fill:none;"/>
  </g>
  <g id="axes_1">
   <g id="patch_2">
    <path d="M 9 220.5 
L 64.8 220.5 
L 64.8 30.24 
L 9 30.24 
z
" style="fill:#ffffff;"/>
   </g>
   <g id="matplotlib.axis_1">
    <g id="ytick_1">
     <g id="line2d_1">
      <defs>
       <path d="M 0 0 
L -3.5 0 
" id="m1f081fe3bb" style="stroke:#000000;stroke-width:0.8;"/>
      </defs>
      <g>
       <use style="stroke:#000000;stroke-width:0.8;" x="9" xlink:href="#m1f081fe3bb" y="172.935"/>
      </g>
     </g>
    </g>
    <g id="ytick_2">
     <g id="line2d_2">
      <g>
       <use style="stroke:#000000;stroke-width:0.8;" x="9" xlink:href="#m1f081fe3bb" y="77.805"/>
      </g>
     </g>
    </g>
   </g>
   <g id="line2d_3">
    <path clip-path="url(#p5769630ebd)" d="M 13.295782 220.5 
L 13.574831 218.578182 
L 13.889452 216.656364 
L 14.242774 214.734545 
L 14.637972 212.812727 
L 15.078233 210.890909 
L 15.566704 208.969091 
L 16.106448 207.047273 
L 16.700382 205.125455 
L 17.351221 203.203636 
L 18.061409 201.281818 
L 18.833051 199.36 
L 19.667841 197.438182 
L 20.566992 195.516364 
L 21.531158 193.594545 
L 22.560371 191.672727 
L 23.653968 189.750909 
L 24.81053 187.829091 
L 26.027833 185.907273 
L 27.302793 183.985455 
L 28.631443 182.063636 
L 30.008901 180.141818 
L 31.429367 178.22 
L 32.886134 176.298182 
L 34.371606 174.376364 
L 35.877345 172.454545 
L 37.394127 170.532727 
L 38.912025 168.610909 
L 40.420498 166.689091 
L 41.908506 164.767273 
L 43.364635 162.845455 
L 44.777238 160.923636 
L 46.134583 159.001818 
L 47.425013 157.08 
L 48.637113 155.158182 
L 49.759871 153.236364 
L 50.782849 151.314545 
L 51.696343 149.392727 
L 52.491532 147.470909 
L 53.160624 145.549091 
L 53.696981 143.627273 
L 54.095231 141.705455 
L 54.351352 139.783636 
L 54.462747 137.861818 
L 54.428282 135.94 
L 54.248308 134.018182 
L 53.924654 132.096364 
L 53.460597 130.174545 
L 52.860806 128.252727 
L 52.131264 126.330909 
L 51.279168 124.409091 
L 50.312813 122.487273 
L 49.241455 120.565455 
L 48.075166 118.643636 
L 46.824674 116.721818 
L 45.501202 114.8 
L 44.1163 112.878182 
L 42.681681 110.956364 
L 41.209056 109.034545 
L 39.709981 107.112727 
L 38.195709 105.190909 
L 36.67706 103.269091 
L 35.164297 101.347273 
L 33.667026 99.425455 
L 32.194109 97.503636 
L 30.753592 95.581818 
L 29.352656 93.66 
L 27.997582 91.738182 
L 26.693735 89.816364 
L 25.445563 87.894545 
L 24.256615 85.972727 
L 23.129561 84.050909 
L 22.066241 82.129091 
L 21.067708 80.207273 
L 20.134289 78.285455 
L 19.26565 76.363636 
L 18.460864 74.441818 
L 17.718482 72.52 
L 17.036607 70.598182 
L 16.412964 68.676364 
L 15.844973 66.754545 
L 15.329817 64.832727 
L 14.864502 62.910909 
L 14.445917 60.989091 
L 14.070893 59.067273 
L 13.736241 57.145455 
L 13.438805 55.223636 
L 13.17549 53.301818 
L 12.943297 51.38 
L 12.739347 49.458182 
L 12.5609 47.536364 
L 12.405369 45.614545 
L 12.270331 43.692727 
L 12.153535 41.770909 
L 12.0529 39.849091 
L 11.966519 37.927273 
L 11.892653 36.005455 
L 11.829725 34.083636 
L 11.776318 32.161818 
L 11.731158 30.24 
" style="fill:none;stroke:#000000;stroke-linecap:square;stroke-width:1.5;"/>
   </g>
   <g id="line2d_4">
    <path clip-path="url(#p5769630ebd)" d="M 11.536364 220.5 
L 11.543662 218.578182 
L 11.553006 216.656364 
L 11.564907 214.734545 
L 11.579987 212.812727 
L 11.599 210.890909 
L 11.622849 208.969091 
L 11.652611 207.047273 
L 11.689561 205.125455 
L 11.7352 203.203636 
L 11.791281 201.281818 
L 11.859834 199.36 
L 11.9432 197.438182 
L 12.044049 195.516364 
L 12.165409 193.594545 
L 12.310683 191.672727 
L 12.483662 189.750909 
L 12.688536 187.829091 
L 12.929889 185.907273 
L 13.212688 183.985455 
L 13.542256 182.063636 
L 13.924237 180.141818 
L 14.364536 178.22 
L 14.869249 176.298182 
L 15.444575 174.376364 
L 16.0967 172.454545 
L 16.831672 170.532727 
L 17.655258 168.610909 
L 18.572773 166.689091 
L 19.58891 164.767273 
L 20.707547 162.845455 
L 21.931555 160.923636 
L 23.262596 159.001818 
L 24.700933 157.08 
L 26.245246 155.158182 
L 27.892464 153.236364 
L 29.637619 151.314545 
L 31.47374 149.392727 
L 33.391771 147.470909 
L 35.380547 145.549091 
L 37.426808 143.627273 
L 39.515273 141.705455 
L 41.628769 139.783636 
L 43.748413 137.861818 
L 45.853859 135.94 
L 47.92359 134.018182 
L 49.93526 132.096364 
L 51.866086 130.174545 
L 53.69326 128.252727 
L 55.394394 126.330909 
L 56.947968 124.409091 
L 58.333786 122.487273 
L 59.533407 120.565455 
L 60.530554 118.643636 
L 61.311481 116.721818 
L 61.86529 114.8 
L 62.184181 112.878182 
L 62.263636 110.956364 
L 62.102528 109.034545 
L 61.703142 107.112727 
L 61.071128 105.190909 
L 60.215362 103.269091 
L 59.147742 101.347273 
L 57.882913 99.425455 
L 56.437929 97.503636 
L 54.831877 95.581818 
L 53.085451 93.66 
L 51.220516 91.738182 
L 49.259655 89.816364 
L 47.225714 87.894545 
L 45.141376 85.972727 
L 43.028744 84.050909 
L 40.908974 82.129091 
L 38.801947 80.207273 
L 36.725987 78.285455 
L 34.697643 76.363636 
L 32.731522 74.441818 
L 30.840176 72.52 
L 29.034053 70.598182 
L 27.321496 68.676364 
L 25.708784 66.754545 
L 24.200225 64.832727 
L 22.79828 62.910909 
L 21.503711 60.989091 
L 20.315757 59.067273 
L 19.232324 57.145455 
L 18.250177 55.223636 
L 17.365138 53.301818 
L 16.572284 51.38 
L 15.866126 49.458182 
L 15.240784 47.536364 
L 14.690148 45.614545 
L 14.208014 43.692727 
L 13.788206 41.770909 
L 13.424685 39.849091 
L 13.111626 37.927273 
L 12.84349 36.005455 
L 12.61507 34.083636 
L 12.421527 32.161818 
L 12.258412 30.24 
" style="fill:none;stroke:#808080;stroke-dasharray:1.5,2.475;stroke-dashoffset:0;stroke-width:1.5;"/>
   </g>
   <g id="line2d_5">
    <path clip-path="url(#p5769630ebd)" d="M 11.652215 220.5 
L 11.685569 218.578182 
L 11.72603 216.656364 
L 11.774895 214.734545 
L 11.833653 212.812727 
L 11.903994 210.890909 
L 11.987829 208.969091 
L 12.087305 207.047273 
L 12.204812 205.125455 
L 12.342999 203.203636 
L 12.504773 201.281818 
L 12.693306 199.36 
L 12.912026 197.438182 
L 13.164606 195.516364 
L 13.454948 193.594545 
L 13.787155 191.672727 
L 14.165494 189.750909 
L 14.594349 187.829091 
L 15.078169 185.907273 
L 15.621394 183.985455 
L 16.228386 182.063636 
L 16.903333 180.141818 
L 17.650161 178.22 
L 18.472419 176.298182 
L 19.373173 174.376364 
L 20.354888 172.454545 
L 21.419307 170.532727 
L 22.567331 168.610909 
L 23.798904 166.689091 
L 25.1129 164.767273 
L 26.50703 162.845455 
L 27.977749 160.923636 
L 29.520189 159.001818 
L 31.128113 157.08 
L 32.793893 155.158182 
L 34.508509 153.236364 
L 36.261583 151.314545 
L 38.041446 149.392727 
L 39.835231 147.470909 
L 41.629 145.549091 
L 43.407903 143.627273 
L 45.156369 141.705455 
L 46.858316 139.783636 
L 48.497389 137.861818 
L 50.057217 135.94 
L 51.521679 134.018182 
L 52.875179 132.096364 
L 54.102918 130.174545 
L 55.191168 128.252727 
L 56.127521 126.330909 
L 56.901128 124.409091 
L 57.502905 122.487273 
L 57.925715 120.565455 
L 58.164504 118.643636 
L 58.216404 116.721818 
L 58.080792 114.8 
L 57.759297 112.878182 
L 57.255774 110.956364 
L 56.576222 109.034545 
L 55.728669 107.112727 
L 54.723011 105.190909 
L 53.57082 103.269091 
L 52.285125 101.347273 
L 50.880165 99.425455 
L 49.371129 97.503636 
L 47.773881 95.581818 
L 46.104688 93.66 
L 44.379946 91.738182 
L 42.615918 89.816364 
L 40.828487 87.894545 
L 39.032927 85.972727 
L 37.2437 84.050909 
L 35.474284 82.129091 
L 33.737026 80.207273 
L 32.043028 78.285455 
L 30.402065 76.363636 
L 28.822539 74.441818 
L 27.311455 72.52 
L 25.874435 70.598182 
L 24.515746 68.676364 
L 23.238365 66.754545 
L 22.044048 64.832727 
L 20.933432 62.910909 
L 19.906128 60.989091 
L 18.960847 59.067273 
L 18.095508 57.145455 
L 17.307362 55.223636 
L 16.593114 53.301818 
L 15.949032 51.38 
L 15.371061 49.458182 
L 14.854923 47.536364 
L 14.396212 45.614545 
L 13.990475 43.692727 
L 13.633283 41.770909 
L 13.3203 39.849091 
L 13.047325 37.927273 
L 12.810343 36.005455 
L 12.60555 34.083636 
L 12.429381 32.161818 
L 12.278522 30.24 
" style="fill:none;stroke:#a9a9a9;stroke-dasharray:5.55,2.4;stroke-dashoffset:0;stroke-width:1.5;"/>
   </g>
   <g id="patch_3">
    <path d="M 9 220.5 
L 9 30.24 
" style="fill:none;stroke:#000000;stroke-linecap:square;stroke-linejoin:miter;stroke-width:0.8;"/>
   </g>
   <g id="legend_1">
    <g id="patch_4">
     <path d="M 16 215.5 
L 112.48125 215.5 
Q 114.48125 215.5 114.48125 213.5 
L 114.48125 171.975 
Q 114.48125 169.975 112.48125 169.975 
L 16 169.975 
Q 14 169.975 14 171.975 
L 14 213.5 
Q 14 215.5 16 215.5 
z
" style="fill:#ffffff;opacity:0.8;stroke:#cccccc;stroke-linejoin:miter;"/>
    </g>
    <g id="line2d_6">
     <path d="M 18 177.6625 
L 38 177.6625 
" style="fill:none;stroke:#000000;stroke-linecap:square;stroke-width:1.5;"/>
    </g>
    <g id="line2d_7"/>
    <g id="text_1">
     <!-- 79.3-94.1 mph -->
     <g transform="translate(46 181.1625)scale(0.1 -0.1)">
      <defs>
       <path d="M 4.734375 62.203125 
L 4.734375 70.65625 
L 51.078125 70.65625 
L 51.078125 63.8125 
Q 44.234375 56.546875 37.515625 44.484375 
Q 30.8125 32.421875 27.15625 19.671875 
Q 24.515625 10.6875 23.78125 0 
L 14.75 0 
Q 14.890625 8.453125 18.0625 20.40625 
Q 21.234375 32.375 27.171875 43.484375 
Q 33.109375 54.59375 39.796875 62.203125 
z
" id="ArialMT-55"/>
       <path d="M 5.46875 16.546875 
L 13.921875 17.328125 
Q 14.984375 11.375 18.015625 8.6875 
Q 21.046875 6 25.78125 6 
Q 29.828125 6 32.875 7.859375 
Q 35.9375 9.71875 37.890625 12.8125 
Q 39.84375 15.921875 41.15625 21.1875 
Q 42.484375 26.46875 42.484375 31.9375 
Q 42.484375 32.515625 42.4375 33.6875 
Q 39.796875 29.5 35.234375 26.875 
Q 30.671875 24.265625 25.34375 24.265625 
Q 16.453125 24.265625 10.296875 30.703125 
Q 4.15625 37.15625 4.15625 47.703125 
Q 4.15625 58.59375 10.578125 65.234375 
Q 17 71.875 26.65625 71.875 
Q 33.640625 71.875 39.421875 68.109375 
Q 45.21875 64.359375 48.21875 57.390625 
Q 51.21875 50.4375 51.21875 37.25 
Q 51.21875 23.53125 48.234375 15.40625 
Q 45.265625 7.28125 39.375 3.03125 
Q 33.5 -1.21875 25.59375 -1.21875 
Q 17.1875 -1.21875 11.859375 3.4375 
Q 6.546875 8.109375 5.46875 16.546875 
z
M 41.453125 48.140625 
Q 41.453125 55.71875 37.421875 60.15625 
Q 33.40625 64.59375 27.734375 64.59375 
Q 21.875 64.59375 17.53125 59.8125 
Q 13.1875 55.03125 13.1875 47.40625 
Q 13.1875 40.578125 17.3125 36.296875 
Q 21.4375 32.03125 27.484375 32.03125 
Q 33.59375 32.03125 37.515625 36.296875 
Q 41.453125 40.578125 41.453125 48.140625 
z
" id="ArialMT-57"/>
       <path d="M 9.078125 0 
L 9.078125 10.015625 
L 19.09375 10.015625 
L 19.09375 0 
z
" id="ArialMT-46"/>
       <path d="M 4.203125 18.890625 
L 12.984375 20.0625 
Q 14.5 12.59375 18.140625 9.296875 
Q 21.78125 6 27 6 
Q 33.203125 6 37.46875 10.296875 
Q 41.75 14.59375 41.75 20.953125 
Q 41.75 27 37.796875 30.921875 
Q 33.84375 34.859375 27.734375 34.859375 
Q 25.25 34.859375 21.53125 33.890625 
L 22.515625 41.609375 
Q 23.390625 41.5 23.921875 41.5 
Q 29.546875 41.5 34.03125 44.421875 
Q 38.53125 47.359375 38.53125 53.46875 
Q 38.53125 58.296875 35.25 61.46875 
Q 31.984375 64.65625 26.8125 64.65625 
Q 21.6875 64.65625 18.265625 61.421875 
Q 14.84375 58.203125 13.875 51.765625 
L 5.078125 53.328125 
Q 6.6875 62.15625 12.390625 67.015625 
Q 18.109375 71.875 26.609375 71.875 
Q 32.46875 71.875 37.390625 69.359375 
Q 42.328125 66.84375 44.9375 62.5 
Q 47.5625 58.15625 47.5625 53.265625 
Q 47.5625 48.640625 45.0625 44.828125 
Q 42.578125 41.015625 37.703125 38.765625 
Q 44.046875 37.3125 47.5625 32.6875 
Q 51.078125 28.078125 51.078125 21.140625 
Q 51.078125 11.765625 44.234375 5.25 
Q 37.40625 -1.265625 26.953125 -1.265625 
Q 17.53125 -1.265625 11.296875 4.34375 
Q 5.078125 9.96875 4.203125 18.890625 
z
" id="ArialMT-51"/>
       <path d="M 3.171875 21.484375 
L 3.171875 30.328125 
L 30.171875 30.328125 
L 30.171875 21.484375 
z
" id="ArialMT-45"/>
       <path d="M 32.328125 0 
L 32.328125 17.140625 
L 1.265625 17.140625 
L 1.265625 25.203125 
L 33.9375 71.578125 
L 41.109375 71.578125 
L 41.109375 25.203125 
L 50.78125 25.203125 
L 50.78125 17.140625 
L 41.109375 17.140625 
L 41.109375 0 
z
M 32.328125 25.203125 
L 32.328125 57.46875 
L 9.90625 25.203125 
z
" id="ArialMT-52"/>
       <path d="M 37.25 0 
L 28.46875 0 
L 28.46875 56 
Q 25.296875 52.984375 20.140625 49.953125 
Q 14.984375 46.921875 10.890625 45.40625 
L 10.890625 53.90625 
Q 18.265625 57.375 23.78125 62.296875 
Q 29.296875 67.234375 31.59375 71.875 
L 37.25 71.875 
z
" id="ArialMT-49"/>
       <path id="ArialMT-32"/>
       <path d="M 6.59375 0 
L 6.59375 51.859375 
L 14.453125 51.859375 
L 14.453125 44.578125 
Q 16.890625 48.390625 20.9375 50.703125 
Q 25 53.03125 30.171875 53.03125 
Q 35.9375 53.03125 39.625 50.640625 
Q 43.3125 48.25 44.828125 43.953125 
Q 50.984375 53.03125 60.84375 53.03125 
Q 68.5625 53.03125 72.703125 48.75 
Q 76.859375 44.484375 76.859375 35.59375 
L 76.859375 0 
L 68.109375 0 
L 68.109375 32.671875 
Q 68.109375 37.9375 67.25 40.25 
Q 66.40625 42.578125 64.15625 43.984375 
Q 61.921875 45.40625 58.890625 45.40625 
Q 53.421875 45.40625 49.796875 41.765625 
Q 46.1875 38.140625 46.1875 30.125 
L 46.1875 0 
L 37.40625 0 
L 37.40625 33.6875 
Q 37.40625 39.546875 35.25 42.46875 
Q 33.109375 45.40625 28.21875 45.40625 
Q 24.515625 45.40625 21.359375 43.453125 
Q 18.21875 41.5 16.796875 37.734375 
Q 15.375 33.984375 15.375 26.90625 
L 15.375 0 
z
" id="ArialMT-109"/>
       <path d="M 6.59375 -19.875 
L 6.59375 51.859375 
L 14.59375 51.859375 
L 14.59375 45.125 
Q 17.4375 49.078125 21 51.046875 
Q 24.5625 53.03125 29.640625 53.03125 
Q 36.28125 53.03125 41.359375 49.609375 
Q 46.4375 46.1875 49.015625 39.953125 
Q 51.609375 33.734375 51.609375 26.3125 
Q 51.609375 18.359375 48.75 11.984375 
Q 45.90625 5.609375 40.453125 2.21875 
Q 35.015625 -1.171875 29 -1.171875 
Q 24.609375 -1.171875 21.109375 0.6875 
Q 17.625 2.546875 15.375 5.375 
L 15.375 -19.875 
z
M 14.546875 25.640625 
Q 14.546875 15.625 18.59375 10.84375 
Q 22.65625 6.0625 28.421875 6.0625 
Q 34.28125 6.0625 38.453125 11.015625 
Q 42.625 15.96875 42.625 26.375 
Q 42.625 36.28125 38.546875 41.203125 
Q 34.46875 46.140625 28.8125 46.140625 
Q 23.1875 46.140625 18.859375 40.890625 
Q 14.546875 35.640625 14.546875 25.640625 
z
" id="ArialMT-112"/>
       <path d="M 6.59375 0 
L 6.59375 71.578125 
L 15.375 71.578125 
L 15.375 45.90625 
Q 21.53125 53.03125 30.90625 53.03125 
Q 36.671875 53.03125 40.921875 50.75 
Q 45.171875 48.484375 47 44.484375 
Q 48.828125 40.484375 48.828125 32.859375 
L 48.828125 0 
L 40.046875 0 
L 40.046875 32.859375 
Q 40.046875 39.453125 37.1875 42.453125 
Q 34.328125 45.453125 29.109375 45.453125 
Q 25.203125 45.453125 21.75 43.421875 
Q 18.3125 41.40625 16.84375 37.9375 
Q 15.375 34.46875 15.375 28.375 
L 15.375 0 
z
" id="ArialMT-104"/>
      </defs>
      <use xlink:href="#ArialMT-55"/>
      <use x="55.615234" xlink:href="#ArialMT-57"/>
      <use x="111.230469" xlink:href="#ArialMT-46"/>
      <use x="139.013672" xlink:href="#ArialMT-51"/>
      <use x="194.628906" xlink:href="#ArialMT-45"/>
      <use x="227.929688" xlink:href="#ArialMT-57"/>
      <use x="283.544922" xlink:href="#ArialMT-52"/>
      <use x="339.160156" xlink:href="#ArialMT-46"/>
      <use x="366.943359" xlink:href="#ArialMT-49"/>
      <use x="422.558594" xlink:href="#ArialMT-32"/>
      <use x="450.341797" xlink:href="#ArialMT-109"/>
      <use x="533.642578" xlink:href="#ArialMT-112"/>
      <use x="589.257812" xlink:href="#ArialMT-104"/>
     </g>
    </g>
    <g id="line2d_8">
     <path d="M 18 191.8375 
L 38 191.8375 
" style="fill:none;stroke:#808080;stroke-dasharray:1.5,2.475;stroke-dashoffset:0;stroke-width:1.5;"/>
    </g>
    <g id="line2d_9"/>
    <g id="text_2">
     <!-- 94.1-96.3 mph -->
     <g transform="translate(46 195.3375)scale(0.1 -0.1)">
      <defs>
       <path d="M 49.75 54.046875 
L 41.015625 53.375 
Q 39.84375 58.546875 37.703125 60.890625 
Q 34.125 64.65625 28.90625 64.65625 
Q 24.703125 64.65625 21.53125 62.3125 
Q 17.390625 59.28125 14.984375 53.46875 
Q 12.59375 47.65625 12.5 36.921875 
Q 15.671875 41.75 20.265625 44.09375 
Q 24.859375 46.4375 29.890625 46.4375 
Q 38.671875 46.4375 44.84375 39.96875 
Q 51.03125 33.5 51.03125 23.25 
Q 51.03125 16.5 48.125 10.71875 
Q 45.21875 4.9375 40.140625 1.859375 
Q 35.0625 -1.21875 28.609375 -1.21875 
Q 17.625 -1.21875 10.6875 6.859375 
Q 3.765625 14.9375 3.765625 33.5 
Q 3.765625 54.25 11.421875 63.671875 
Q 18.109375 71.875 29.4375 71.875 
Q 37.890625 71.875 43.28125 67.140625 
Q 48.6875 62.40625 49.75 54.046875 
z
M 13.875 23.1875 
Q 13.875 18.65625 15.796875 14.5 
Q 17.71875 10.359375 21.1875 8.171875 
Q 24.65625 6 28.46875 6 
Q 34.03125 6 38.03125 10.484375 
Q 42.046875 14.984375 42.046875 22.703125 
Q 42.046875 30.125 38.078125 34.390625 
Q 34.125 38.671875 28.125 38.671875 
Q 22.171875 38.671875 18.015625 34.390625 
Q 13.875 30.125 13.875 23.1875 
z
" id="ArialMT-54"/>
      </defs>
      <use xlink:href="#ArialMT-57"/>
      <use x="55.615234" xlink:href="#ArialMT-52"/>
      <use x="111.230469" xlink:href="#ArialMT-46"/>
      <use x="139.013672" xlink:href="#ArialMT-49"/>
      <use x="194.628906" xlink:href="#ArialMT-45"/>
      <use x="227.929688" xlink:href="#ArialMT-57"/>
      <use x="283.544922" xlink:href="#ArialMT-54"/>
      <use x="339.160156" xlink:href="#ArialMT-46"/>
      <use x="366.943359" xlink:href="#ArialMT-51"/>
      <use x="422.558594" xlink:href="#ArialMT-32"/>
      <use x="450.341797" xlink:href="#ArialMT-109"/>
      <use x="533.642578" xlink:href="#ArialMT-112"/>
      <use x="589.257812" xlink:href="#ArialMT-104"/>
     </g>
    </g>
    <g id="line2d_10">
     <path d="M 18 206.0125 
L 38 206.0125 
" style="fill:none;stroke:#a9a9a9;stroke-dasharray:5.55,2.4;stroke-dashoffset:0;stroke-width:1.5;"/>
    </g>
    <g id="line2d_11"/>
    <g id="text_3">
     <!-- 96.3-97.4 mph -->
     <g transform="translate(46 209.5125)scale(0.1 -0.1)">
      <use xlink:href="#ArialMT-57"/>
      <use x="55.615234" xlink:href="#ArialMT-54"/>
      <use x="111.230469" xlink:href="#ArialMT-46"/>
      <use x="139.013672" xlink:href="#ArialMT-51"/>
      <use x="194.628906" xlink:href="#ArialMT-45"/>
      <use x="227.929688" xlink:href="#ArialMT-57"/>
      <use x="283.544922" xlink:href="#ArialMT-55"/>
      <use x="339.160156" xlink:href="#ArialMT-46"/>
      <use x="366.943359" xlink:href="#ArialMT-52"/>
      <use x="422.558594" xlink:href="#ArialMT-32"/>
      <use x="450.341797" xlink:href="#ArialMT-109"/>
      <use x="533.642578" xlink:href="#ArialMT-112"/>
      <use x="589.257812" xlink:href="#ArialMT-104"/>
     </g>
    </g>
   </g>
  </g>
 </g>
 <defs>
  <clipPath id="p5769630ebd">
   <rect height="190.26" width="55.8" x="9" y="30.24"/>
  </clipPath>
 </defs>
</svg>
