<?xml version="1.0" encoding="utf-8" standalone="no"?>
<!DOCTYPE svg PUBLIC "-//W3C//DTD SVG 1.1//EN"
  "http://www.w3.org/Graphics/SVG/1.1/DTD/svg11.dtd">
<!-- Created with matplotlib (https://matplotlib.org/) -->
<svg height="252pt" version="1.1" viewBox="0 0 72 252" width="72pt" xmlns="http://www.w3.org/2000/svg" xmlns:xlink="http://www.w3.org/1999/xlink">
 <metadata>
  <rdf:RDF xmlns:cc="http://creativecommons.org/ns#" xmlns:dc="http://purl.org/dc/elements/1.1/" xmlns:rdf="http://www.w3.org/1999/02/22-rdf-syntax-ns#">
   <cc:Work>
    <dc:type rdf:resource="http://purl.org/dc/dcmitype/StillImage"/>
    <dc:date>2022-05-29T10:59:03.461659</dc:date>
    <dc:format>image/svg+xml</dc:format>
    <dc:creator>
     <cc:Agent>
      <dc:title>Matplotlib v3.3.4, https://matplotlib.org/</dc:title>
     </cc:Agent>
    </dc:creator>
   </cc:Work>
  </rdf:RDF>
 </metadata>
 <defs>
  <style type="text/css">*{stroke-linecap:butt;stroke-linejoin:round;}</style>
 </defs>
 <g id="figure_1">
  <g id="patch_1">
   <path d="M 0 252 
L 72 252 
L 72 0 
L 0 0 
z
" style="fill:none;"/>
  </g>
  <g id="axes_1">
   <g id="patch_2">
    <path d="M 9 220.5 
L 64.8 220.5 
L 64.8 30.24 
L 9 30.24 
z
" style="fill:#ffffff;"/>
   </g>
   <g id="matplotlib.axis_1">
    <g id="ytick_1">
     <g id="line2d_1">
      <defs>
       <path d="M 0 0 
L -3.5 0 
" id="m3e0642e63c" style="stroke:#000000;stroke-width:0.8;"/>
      </defs>
      <g>
       <use style="stroke:#000000;stroke-width:0.8;" x="9" xlink:href="#m3e0642e63c" y="172.935"/>
      </g>
     </g>
    </g>
    <g id="ytick_2">
     <g id="line2d_2">
      <g>
       <use style="stroke:#000000;stroke-width:0.8;" x="9" xlink:href="#m3e0642e63c" y="77.805"/>
      </g>
     </g>
    </g>
   </g>
   <g id="line2d_3">
    <path clip-path="url(#p0677e3badf)" d="M 11.61751 220.5 
L 11.645365 218.578182 
L 11.679529 216.656364 
L 11.721238 214.734545 
L 11.771925 212.812727 
L 11.833234 210.890909 
L 11.907048 208.969091 
L 11.995501 207.047273 
L 12.101002 205.125455 
L 12.226242 203.203636 
L 12.374213 201.281818 
L 12.548209 199.36 
L 12.751832 197.438182 
L 12.988981 195.516364 
L 13.263842 193.594545 
L 13.580867 191.672727 
L 13.944735 189.750909 
L 14.36031 187.829091 
L 14.832584 185.907273 
L 15.366609 183.985455 
L 15.967411 182.063636 
L 16.639895 180.141818 
L 17.388738 178.22 
L 18.218269 176.298182 
L 19.132342 174.376364 
L 20.134193 172.454545 
L 21.226304 170.532727 
L 22.410257 168.610909 
L 23.686592 166.689091 
L 25.05467 164.767273 
L 26.512545 162.845455 
L 28.056857 160.923636 
L 29.682736 159.001818 
L 31.383734 157.08 
L 33.151787 155.158182 
L 34.977202 153.236364 
L 36.84869 151.314545 
L 38.753426 149.392727 
L 40.677155 147.470909 
L 42.604332 145.549091 
L 44.518307 143.627273 
L 46.401543 141.705455 
L 48.235865 139.783636 
L 50.002741 137.861818 
L 51.683588 135.94 
L 53.260089 134.018182 
L 54.714522 132.096364 
L 56.030088 130.174545 
L 57.191238 128.252727 
L 58.183972 126.330909 
L 58.996123 124.409091 
L 59.617602 122.487273 
L 60.040613 120.565455 
L 60.259807 118.643636 
L 60.272402 116.721818 
L 60.078238 114.8 
L 59.67978 112.878182 
L 59.08207 110.956364 
L 58.292614 109.034545 
L 57.321232 107.112727 
L 56.179851 105.190909 
L 54.882262 103.269091 
L 53.443843 101.347273 
L 51.881257 99.425455 
L 50.212131 97.503636 
L 48.454727 95.581818 
L 46.627614 93.66 
L 44.749346 91.738182 
L 42.838157 89.816364 
L 40.911677 87.894545 
L 38.986675 85.972727 
L 37.07884 84.050909 
L 35.202594 82.129091 
L 33.37094 80.207273 
L 31.595362 78.285455 
L 29.885745 76.363636 
L 28.250353 74.441818 
L 26.69583 72.52 
L 25.227233 70.598182 
L 23.848104 68.676364 
L 22.560552 66.754545 
L 21.36537 64.832727 
L 20.262153 62.910909 
L 19.249441 60.989091 
L 18.324852 59.067273 
L 17.485234 57.145455 
L 16.7268 55.223636 
L 16.045274 53.301818 
L 15.436013 51.38 
L 14.894133 49.458182 
L 14.414619 47.536364 
L 13.992417 45.614545 
L 13.622523 43.692727 
L 13.300056 41.770909 
L 13.020308 39.849091 
L 12.778802 37.927273 
L 12.571316 36.005455 
L 12.393915 34.083636 
L 12.242961 32.161818 
L 12.115122 30.24 
" style="fill:none;stroke:#029e73;stroke-linecap:square;stroke-width:1.5;"/>
   </g>
   <g id="line2d_4">
    <path clip-path="url(#p0677e3badf)" d="M 13.905343 220.5 
L 14.252151 218.578182 
L 14.638934 216.656364 
L 15.068641 214.734545 
L 15.544186 212.812727 
L 16.0684 210.890909 
L 16.643986 208.969091 
L 17.273461 207.047273 
L 17.959098 205.125455 
L 18.702867 203.203636 
L 19.50637 201.281818 
L 20.370781 199.36 
L 21.296774 197.438182 
L 22.284468 195.516364 
L 23.333363 193.594545 
L 24.442286 191.672727 
L 25.609342 189.750909 
L 26.83187 187.829091 
L 28.10641 185.907273 
L 29.428686 183.985455 
L 30.793586 182.063636 
L 32.195173 180.141818 
L 33.6267 178.22 
L 35.080637 176.298182 
L 36.548725 174.376364 
L 38.022032 172.454545 
L 39.491036 170.532727 
L 40.945712 168.610909 
L 42.375642 166.689091 
L 43.77013 164.767273 
L 45.118333 162.845455 
L 46.409394 160.923636 
L 47.632591 159.001818 
L 48.777478 157.08 
L 49.834033 155.158182 
L 50.792809 153.236364 
L 51.645066 151.314545 
L 52.38291 149.392727 
L 52.999411 147.470909 
L 53.488713 145.549091 
L 53.846126 143.627273 
L 54.0682 141.705455 
L 54.152783 139.783636 
L 54.099052 137.861818 
L 53.907529 135.94 
L 53.580074 134.018182 
L 53.119849 132.096364 
L 52.531274 130.174545 
L 51.819952 128.252727 
L 50.992583 126.330909 
L 50.056855 124.409091 
L 49.02133 122.487273 
L 47.895311 120.565455 
L 46.688702 118.643636 
L 45.411867 116.721818 
L 44.075481 114.8 
L 42.690382 112.878182 
L 41.267429 110.956364 
L 39.817362 109.034545 
L 38.350672 107.112727 
L 36.87748 105.190909 
L 35.407431 103.269091 
L 33.949594 101.347273 
L 32.512385 99.425455 
L 31.103501 97.503636 
L 29.729868 95.581818 
L 28.397605 93.66 
L 27.112009 91.738182 
L 25.877542 89.816364 
L 24.697845 87.894545 
L 23.575754 85.972727 
L 22.513332 84.050909 
L 21.511911 82.129091 
L 20.572134 80.207273 
L 19.694016 78.285455 
L 18.877002 76.363636 
L 18.120023 74.441818 
L 17.421569 72.52 
L 16.779744 70.598182 
L 16.19234 68.676364 
L 15.656886 66.754545 
L 15.170719 64.832727 
L 14.731031 62.910909 
L 14.334921 60.989091 
L 13.979445 59.067273 
L 13.661655 57.145455 
L 13.378631 55.223636 
L 13.127523 53.301818 
L 12.905564 51.38 
L 12.710101 49.458182 
L 12.53861 47.536364 
L 12.388705 45.614545 
L 12.258148 43.692727 
L 12.144858 41.770909 
L 12.046908 39.849091 
L 11.962526 37.927273 
L 11.890097 36.005455 
L 11.828149 34.083636 
L 11.775355 32.161818 
L 11.730524 30.24 
" style="fill:none;stroke:#cc78bc;stroke-linecap:square;stroke-width:1.5;"/>
   </g>
   <g id="line2d_5">
    <path clip-path="url(#p0677e3badf)" d="M 12.389386 220.5 
L 12.574686 218.578182 
L 12.792992 216.656364 
L 13.048848 214.734545 
L 13.347147 212.812727 
L 13.693103 210.890909 
L 14.092207 208.969091 
L 14.550168 207.047273 
L 15.072845 205.125455 
L 15.666148 203.203636 
L 16.335937 201.281818 
L 17.087894 199.36 
L 17.927384 197.438182 
L 18.859297 195.516364 
L 19.887884 193.594545 
L 21.016579 191.672727 
L 22.247817 189.750909 
L 23.582856 187.829091 
L 25.021596 185.907273 
L 26.562412 183.985455 
L 28.202011 182.063636 
L 29.935296 180.141818 
L 31.755277 178.22 
L 33.653003 176.298182 
L 35.617544 174.376364 
L 37.636015 172.454545 
L 39.693647 170.532727 
L 41.773915 168.610909 
L 43.85871 166.689091 
L 45.928569 164.767273 
L 47.96295 162.845455 
L 49.94055 160.923636 
L 51.839665 159.001818 
L 53.638571 157.08 
L 55.315936 155.158182 
L 56.851236 153.236364 
L 58.225165 151.314545 
L 59.420047 149.392727 
L 60.420205 147.470909 
L 61.212307 145.549091 
L 61.785662 143.627273 
L 62.13246 141.705455 
L 62.247946 139.783636 
L 62.130534 137.861818 
L 61.781836 135.94 
L 61.206633 134.018182 
L 60.412761 132.096364 
L 59.410932 130.174545 
L 58.214501 128.252727 
L 56.83916 126.330909 
L 55.302603 124.409091 
L 53.624145 122.487273 
L 51.824321 120.565455 
L 49.924467 118.643636 
L 47.946308 116.721818 
L 45.911546 114.8 
L 43.841481 112.878182 
L 41.756645 110.956364 
L 39.676492 109.034545 
L 37.619119 107.112727 
L 35.601036 105.190909 
L 33.636998 103.269091 
L 31.739874 101.347273 
L 29.920577 99.425455 
L 28.188041 97.503636 
L 26.549242 95.581818 
L 25.00926 93.66 
L 23.571375 91.738182 
L 22.237197 89.816364 
L 21.006814 87.894545 
L 19.87896 85.972727 
L 18.851189 84.050909 
L 17.92006 82.129091 
L 17.081315 80.207273 
L 16.330061 78.285455 
L 15.660929 76.363636 
L 15.068235 74.441818 
L 14.546119 72.52 
L 14.088668 70.598182 
L 13.690028 68.676364 
L 13.344489 66.754545 
L 13.046562 64.832727 
L 12.791037 62.910909 
L 12.573022 60.989091 
L 12.387978 59.067273 
L 12.231727 57.145455 
L 12.100468 55.223636 
L 11.990766 53.301818 
L 11.899548 51.38 
L 11.824082 49.458182 
L 11.761964 47.536364 
L 11.711089 45.614545 
L 11.669632 43.692727 
L 11.636017 41.770909 
L 11.608896 39.849091 
L 11.587124 37.927273 
L 11.569731 36.005455 
L 11.555906 34.083636 
L 11.544971 32.161818 
L 11.536364 30.24 
" style="fill:none;stroke:#d55e00;stroke-linecap:square;stroke-width:1.5;"/>
   </g>
   <g id="line2d_6">
    <path clip-path="url(#p0677e3badf)" d="M 11.902187 220.5 
L 11.993983 218.578182 
L 12.104369 216.656364 
L 12.236433 214.734545 
L 12.393625 212.812727 
L 12.579764 210.890909 
L 12.799043 208.969091 
L 13.05602 207.047273 
L 13.355603 205.125455 
L 13.703018 203.203636 
L 14.103771 201.281818 
L 14.563582 199.36 
L 15.088319 197.438182 
L 15.683902 195.516364 
L 16.356193 193.594545 
L 17.110876 191.672727 
L 17.95331 189.750909 
L 18.888379 187.829091 
L 19.920318 185.907273 
L 21.05254 183.985455 
L 22.287455 182.063636 
L 23.626283 180.141818 
L 25.068885 178.22 
L 26.613589 176.298182 
L 28.257045 174.376364 
L 29.994096 172.454545 
L 31.817686 170.532727 
L 33.718794 168.610909 
L 35.686416 166.689091 
L 37.707591 164.767273 
L 39.767477 162.845455 
L 41.849473 160.923636 
L 43.935404 159.001818 
L 46.005741 157.08 
L 48.039889 155.158182 
L 50.016499 153.236364 
L 51.913831 151.314545 
L 53.710142 149.392727 
L 55.384094 147.470909 
L 56.91517 145.549091 
L 58.28409 143.627273 
L 59.473218 141.705455 
L 60.466934 139.783636 
L 61.251976 137.861818 
L 61.817739 135.94 
L 62.156508 134.018182 
L 62.263636 132.096364 
L 62.137649 130.174545 
L 61.78028 128.252727 
L 61.19643 126.330909 
L 60.394054 124.409091 
L 59.383984 122.487273 
L 58.179684 120.565455 
L 56.796948 118.643636 
L 55.253564 116.721818 
L 53.568925 114.8 
L 51.763629 112.878182 
L 49.859064 110.956364 
L 47.876988 109.034545 
L 45.839123 107.112727 
L 43.766768 105.190909 
L 41.680446 103.269091 
L 39.599583 101.347273 
L 37.542238 99.425455 
L 35.524872 97.503636 
L 33.562181 95.581818 
L 31.666969 93.66 
L 29.850079 91.738182 
L 28.120371 89.816364 
L 26.484747 87.894545 
L 24.948211 85.972727 
L 23.513974 84.050909 
L 22.183575 82.129091 
L 20.957041 80.207273 
L 19.833045 78.285455 
L 18.809092 76.363636 
L 17.881693 74.441818 
L 17.046555 72.52 
L 16.29875 70.598182 
L 15.632886 68.676364 
L 15.043262 66.754545 
L 14.524004 64.832727 
L 14.069192 62.910909 
L 13.67297 60.989091 
L 13.32963 59.067273 
L 13.033689 57.145455 
L 12.779943 55.223636 
L 12.563513 53.301818 
L 12.379869 51.38 
L 12.22485 49.458182 
L 12.094665 47.536364 
L 11.985896 45.614545 
L 11.89548 43.692727 
L 11.820703 41.770909 
L 11.759171 39.849091 
L 11.708792 37.927273 
L 11.667753 36.005455 
L 11.634487 34.083636 
L 11.607657 32.161818 
L 11.586125 30.24 
" style="fill:none;stroke:#ca9161;stroke-linecap:square;stroke-width:1.5;"/>
   </g>
   <g id="patch_3">
    <path d="M 9 220.5 
L 9 30.24 
" style="fill:none;stroke:#000000;stroke-linecap:square;stroke-linejoin:miter;stroke-width:0.8;"/>
   </g>
  </g>
 </g>
 <defs>
  <clipPath id="p0677e3badf">
   <rect height="190.26" width="55.8" x="9" y="30.24"/>
  </clipPath>
 </defs>
</svg>
