<?xml version="1.0" encoding="utf-8" standalone="no"?>
<!DOCTYPE svg PUBLIC "-//W3C//DTD SVG 1.1//EN"
  "http://www.w3.org/Graphics/SVG/1.1/DTD/svg11.dtd">
<!-- Created with matplotlib (https://matplotlib.org/) -->
<svg height="252pt" version="1.1" viewBox="0 0 72 252" width="72pt" xmlns="http://www.w3.org/2000/svg" xmlns:xlink="http://www.w3.org/1999/xlink">
 <metadata>
  <rdf:RDF xmlns:cc="http://creativecommons.org/ns#" xmlns:dc="http://purl.org/dc/elements/1.1/" xmlns:rdf="http://www.w3.org/1999/02/22-rdf-syntax-ns#">
   <cc:Work>
    <dc:type rdf:resource="http://purl.org/dc/dcmitype/StillImage"/>
    <dc:date>2022-05-29T10:59:03.701645</dc:date>
    <dc:format>image/svg+xml</dc:format>
    <dc:creator>
     <cc:Agent>
      <dc:title>Matplotlib v3.3.4, https://matplotlib.org/</dc:title>
     </cc:Agent>
    </dc:creator>
   </cc:Work>
  </rdf:RDF>
 </metadata>
 <defs>
  <style type="text/css">*{stroke-linecap:butt;stroke-linejoin:round;}</style>
 </defs>
 <g id="figure_1">
  <g id="patch_1">
   <path d="M 0 252 
L 72 252 
L 72 0 
L 0 0 
z
" style="fill:none;"/>
  </g>
  <g id="axes_1">
   <g id="patch_2">
    <path d="M 9 220.5 
L 64.8 220.5 
L 64.8 30.24 
L 9 30.24 
z
" style="fill:#ffffff;"/>
   </g>
   <g id="matplotlib.axis_1">
    <g id="ytick_1">
     <g id="line2d_1">
      <defs>
       <path d="M 0 0 
L -3.5 0 
" id="m5e889dd424" style="stroke:#000000;stroke-width:0.8;"/>
      </defs>
      <g>
       <use style="stroke:#000000;stroke-width:0.8;" x="9" xlink:href="#m5e889dd424" y="172.935"/>
      </g>
     </g>
    </g>
    <g id="ytick_2">
     <g id="line2d_2">
      <g>
       <use style="stroke:#000000;stroke-width:0.8;" x="9" xlink:href="#m5e889dd424" y="77.805"/>
      </g>
     </g>
    </g>
   </g>
   <g id="line2d_3">
    <path clip-path="url(#p7455e66fb4)" d="M 11.536364 220.5 
L 11.536364 218.578182 
L 11.536364 216.656364 
L 11.536364 214.734545 
L 11.536364 212.812727 
L 11.536364 210.890909 
L 11.536364 208.969091 
L 11.536364 207.047273 
L 11.536364 205.125455 
L 11.536364 203.203636 
L 11.536364 201.281818 
L 11.536364 199.36 
L 11.536364 197.438182 
L 11.536364 195.516364 
L 11.536364 193.594545 
L 11.536364 191.672727 
L 11.536364 189.750909 
L 11.536364 187.829091 
L 11.536364 185.907273 
L 11.536364 183.985455 
L 11.536364 182.063636 
L 11.536365 180.141818 
L 11.536367 178.22 
L 11.53637 176.298182 
L 11.536376 174.376364 
L 11.536386 172.454545 
L 11.536406 170.532727 
L 11.53644 168.610909 
L 11.536502 166.689091 
L 11.536611 164.767273 
L 11.536798 162.845455 
L 11.537116 160.923636 
L 11.537651 159.001818 
L 11.538535 157.08 
L 11.539977 155.158182 
L 11.542294 153.236364 
L 11.545965 151.314545 
L 11.551696 149.392727 
L 11.560516 147.470909 
L 11.573891 145.549091 
L 11.593879 143.627273 
L 11.623312 141.705455 
L 11.666017 139.783636 
L 11.727065 137.861818 
L 11.813037 135.94 
L 11.932301 134.018182 
L 12.09526 132.096364 
L 12.314547 130.174545 
L 12.605117 128.252727 
L 12.984196 126.330909 
L 13.471024 124.409091 
L 14.086341 122.487273 
L 14.851592 120.565455 
L 15.787801 118.643636 
L 16.91415 116.721818 
L 18.246274 114.8 
L 19.794369 112.878182 
L 21.56124 110.956364 
L 23.540425 109.034545 
L 25.714618 107.112727 
L 28.054562 105.190909 
L 30.518625 103.269091 
L 33.053209 101.347273 
L 35.59409 99.425455 
L 38.068726 97.503636 
L 40.399441 95.581818 
L 42.507326 93.66 
L 44.316603 91.738182 
L 45.759114 89.816364 
L 46.778567 87.894545 
L 47.334181 85.972727 
L 47.403393 84.050909 
L 46.983375 82.129091 
L 46.091228 80.207273 
L 44.762828 78.285455 
L 43.050429 76.363636 
L 41.019255 74.441818 
L 38.743391 72.52 
L 36.301314 70.598182 
L 33.771468 68.676364 
L 31.228202 66.754545 
L 28.738354 64.832727 
L 26.358695 62.910909 
L 24.134308 60.989091 
L 22.097927 59.067273 
L 20.27014 57.145455 
L 18.660321 55.223636 
L 17.268096 53.301818 
L 16.085153 51.38 
L 15.097193 49.458182 
L 14.285852 47.536364 
L 13.630466 45.614545 
L 13.109583 43.692727 
L 12.702169 41.770909 
L 12.388498 39.849091 
L 12.150742 37.927273 
L 11.97329 36.005455 
L 11.842861 34.083636 
L 11.748439 32.161818 
L 11.681107 30.24 
" style="fill:none;stroke:#000000;stroke-linecap:square;stroke-width:1.5;"/>
   </g>
   <g id="line2d_4">
    <path clip-path="url(#p7455e66fb4)" d="M 11.536364 220.5 
L 11.536364 218.578182 
L 11.536364 216.656364 
L 11.536364 214.734545 
L 11.536364 212.812727 
L 11.536364 210.890909 
L 11.536364 208.969091 
L 11.536364 207.047273 
L 11.536364 205.125455 
L 11.536364 203.203636 
L 11.536364 201.281818 
L 11.536364 199.36 
L 11.536364 197.438182 
L 11.536364 195.516364 
L 11.536364 193.594545 
L 11.536364 191.672727 
L 11.536364 189.750909 
L 11.536364 187.829091 
L 11.536364 185.907273 
L 11.536364 183.985455 
L 11.536365 182.063636 
L 11.536368 180.141818 
L 11.536374 178.22 
L 11.536388 176.298182 
L 11.53642 174.376364 
L 11.536493 172.454545 
L 11.536652 170.532727 
L 11.53699 168.610909 
L 11.53769 166.689091 
L 11.539102 164.767273 
L 11.541872 162.845455 
L 11.547163 160.923636 
L 11.556994 159.001818 
L 11.574768 157.08 
L 11.606031 155.158182 
L 11.659515 153.236364 
L 11.748502 151.314545 
L 11.89246 149.392727 
L 12.118844 147.470909 
L 12.464823 145.549091 
L 12.978518 143.627273 
L 13.719234 141.705455 
L 14.756034 139.783636 
L 16.16403 137.861818 
L 18.017929 135.94 
L 20.382732 134.018182 
L 23.302055 132.096364 
L 26.785214 130.174545 
L 30.794933 128.252727 
L 35.237992 126.330909 
L 39.961308 124.409091 
L 44.755497 122.487273 
L 49.367051 120.565455 
L 53.518779 118.643636 
L 56.936575 116.721818 
L 59.379052 114.8 
L 60.665658 112.878182 
L 60.698726 110.956364 
L 59.475721 109.034545 
L 57.089568 107.112727 
L 53.716979 105.190909 
L 49.596834 103.269091 
L 45.002273 101.347273 
L 40.21103 99.425455 
L 35.478416 97.503636 
L 31.016484 95.581818 
L 26.981407 93.66 
L 23.469481 91.738182 
L 20.520698 89.816364 
L 18.127878 87.894545 
L 16.248868 85.972727 
L 14.819474 84.050909 
L 13.765243 82.129091 
L 13.010898 80.207273 
L 12.486947 78.285455 
L 12.133527 76.363636 
L 11.901928 74.441818 
L 11.754436 72.52 
L 11.66313 70.598182 
L 11.608172 68.676364 
L 11.576002 66.754545 
L 11.557685 64.832727 
L 11.54754 62.910909 
L 11.542072 60.989091 
L 11.539205 59.067273 
L 11.537742 57.145455 
L 11.537015 55.223636 
L 11.536664 53.301818 
L 11.536498 51.38 
L 11.536423 49.458182 
L 11.536389 47.536364 
L 11.536374 45.614545 
L 11.536368 43.692727 
L 11.536365 41.770909 
L 11.536364 39.849091 
L 11.536364 37.927273 
L 11.536364 36.005455 
L 11.536364 34.083636 
L 11.536364 32.161818 
L 11.536364 30.24 
" style="fill:none;stroke:#808080;stroke-dasharray:5.55,2.4;stroke-dashoffset:0;stroke-width:1.5;"/>
   </g>
   <g id="line2d_5">
    <path clip-path="url(#p7455e66fb4)" d="M 11.536364 220.5 
L 11.536364 218.578182 
L 11.536364 216.656364 
L 11.536364 214.734545 
L 11.536364 212.812727 
L 11.536364 210.890909 
L 11.536364 208.969091 
L 11.536364 207.047273 
L 11.536364 205.125455 
L 11.536364 203.203636 
L 11.536365 201.281818 
L 11.536367 199.36 
L 11.536373 197.438182 
L 11.536387 195.516364 
L 11.536421 193.594545 
L 11.536498 191.672727 
L 11.536672 189.750909 
L 11.537049 187.829091 
L 11.537847 185.907273 
L 11.539487 183.985455 
L 11.542762 182.063636 
L 11.549113 180.141818 
L 11.561081 178.22 
L 11.582981 176.298182 
L 11.621896 174.376364 
L 11.689035 172.454545 
L 11.801471 170.532727 
L 11.984209 168.610909 
L 12.272359 166.689091 
L 12.713054 164.767273 
L 13.366527 162.845455 
L 14.305587 160.923636 
L 15.612669 159.001818 
L 17.373716 157.08 
L 19.668519 155.158182 
L 22.557741 153.236364 
L 26.067735 151.314545 
L 30.175158 149.392727 
L 34.794213 147.470909 
L 39.769673 145.549091 
L 44.878584 143.627273 
L 49.842448 141.705455 
L 54.34994 139.783636 
L 58.088086 137.861818 
L 60.777776 135.94 
L 62.208097 134.018182 
L 62.263636 132.096364 
L 60.93987 130.174545 
L 58.343766 128.252727 
L 54.679509 126.330909 
L 50.221985 124.409091 
L 45.282795 122.487273 
L 40.174624 120.565455 
L 35.179545 118.643636 
L 30.525521 116.721818 
L 26.37336 114.8 
L 22.814226 112.878182 
L 19.876018 110.956364 
L 17.535792 109.034545 
L 15.735038 107.112727 
L 14.394974 105.190909 
L 13.429746 103.269091 
L 12.75637 101.347273 
L 12.301126 99.425455 
L 12.002734 97.503636 
L 11.813043 95.581818 
L 11.696048 93.66 
L 11.626022 91.738182 
L 11.585337 89.816364 
L 11.562387 87.894545 
L 11.549816 85.972727 
L 11.543129 84.050909 
L 11.539674 82.129091 
L 11.537939 80.207273 
L 11.537093 78.285455 
L 11.536692 76.363636 
L 11.536508 74.441818 
L 11.536425 72.52 
L 11.536389 70.598182 
L 11.536374 68.676364 
L 11.536368 66.754545 
L 11.536365 64.832727 
L 11.536364 62.910909 
L 11.536364 60.989091 
L 11.536364 59.067273 
L 11.536364 57.145455 
L 11.536364 55.223636 
L 11.536364 53.301818 
L 11.536364 51.38 
L 11.536364 49.458182 
L 11.536364 47.536364 
L 11.536364 45.614545 
L 11.536364 43.692727 
L 11.536364 41.770909 
L 11.536364 39.849091 
L 11.536364 37.927273 
L 11.536364 36.005455 
L 11.536364 34.083636 
L 11.536364 32.161818 
L 11.536364 30.24 
" style="fill:none;stroke:#d3d3d3;stroke-dasharray:1.5,2.475;stroke-dashoffset:0;stroke-width:1.5;"/>
   </g>
   <g id="line2d_6">
    <path clip-path="url(#p7455e66fb4)" d="M 11.630992 220.5 
L 11.674215 218.578182 
L 11.734703 216.656364 
L 11.81821 214.734545 
L 11.931934 212.812727 
L 12.084694 210.890909 
L 12.287067 208.969091 
L 12.551446 207.047273 
L 12.891995 205.125455 
L 13.324452 203.203636 
L 13.865761 201.281818 
L 14.533493 199.36 
L 15.345043 197.438182 
L 16.316613 195.516364 
L 17.461984 193.594545 
L 18.791145 191.672727 
L 20.308837 189.750909 
L 22.013121 187.829091 
L 23.894101 185.907273 
L 25.932906 183.985455 
L 28.101103 182.063636 
L 30.360636 180.141818 
L 32.664392 178.22 
L 34.957444 176.298182 
L 37.178964 174.376364 
L 39.264736 172.454545 
L 41.150146 170.532727 
L 42.773454 168.610909 
L 44.079127 166.689091 
L 45.020992 164.767273 
L 45.564935 162.845455 
L 45.690957 160.923636 
L 45.394396 159.001818 
L 44.686208 157.08 
L 43.592298 155.158182 
L 42.15195 153.236364 
L 40.41548 151.314545 
L 38.441327 149.392727 
L 36.292798 147.470909 
L 34.034728 145.549091 
L 31.730301 143.627273 
L 29.438226 141.705455 
L 27.210464 139.783636 
L 25.090574 137.861818 
L 23.11275 135.94 
L 21.301514 134.018182 
L 19.672011 132.096364 
L 18.230775 130.174545 
L 16.976877 128.252727 
L 15.903277 126.330909 
L 14.998279 124.409091 
L 14.246964 122.487273 
L 13.632511 120.565455 
L 13.137341 118.643636 
L 12.744054 116.721818 
L 12.436138 114.8 
L 12.198456 112.878182 
L 12.017547 110.956364 
L 11.881754 109.034545 
L 11.781223 107.112727 
L 11.707811 105.190909 
L 11.654927 103.269091 
L 11.617344 101.347273 
L 11.590991 99.425455 
L 11.57276 97.503636 
L 11.560314 95.581818 
L 11.551929 93.66 
L 11.546355 91.738182 
L 11.542698 89.816364 
L 11.54033 87.894545 
L 11.538816 85.972727 
L 11.537862 84.050909 
L 11.537267 82.129091 
L 11.536902 80.207273 
L 11.536681 78.285455 
L 11.536548 76.363636 
L 11.536469 74.441818 
L 11.536424 72.52 
L 11.536397 70.598182 
L 11.536382 68.676364 
L 11.536374 66.754545 
L 11.536369 64.832727 
L 11.536367 62.910909 
L 11.536365 60.989091 
L 11.536364 59.067273 
L 11.536364 57.145455 
L 11.536364 55.223636 
L 11.536364 53.301818 
L 11.536364 51.38 
L 11.536364 49.458182 
L 11.536364 47.536364 
L 11.536364 45.614545 
L 11.536364 43.692727 
L 11.536364 41.770909 
L 11.536364 39.849091 
L 11.536364 37.927273 
L 11.536364 36.005455 
L 11.536364 34.083636 
L 11.536364 32.161818 
L 11.536364 30.24 
" style="fill:none;stroke:#a9a9a9;stroke-dasharray:9.6,2.4,1.5,2.4;stroke-dashoffset:0;stroke-width:1.5;"/>
   </g>
   <g id="patch_3">
    <path d="M 9 220.5 
L 9 30.24 
" style="fill:none;stroke:#000000;stroke-linecap:square;stroke-linejoin:miter;stroke-width:0.8;"/>
   </g>
   <g id="legend_1">
    <g id="patch_4">
     <path d="M 16 215.5 
L 87.464063 215.5 
Q 89.464063 215.5 89.464063 213.5 
L 89.464063 157.91875 
Q 89.464063 155.91875 87.464063 155.91875 
L 16 155.91875 
Q 14 155.91875 14 157.91875 
L 14 213.5 
Q 14 215.5 16 215.5 
z
" style="fill:#ffffff;opacity:0.8;stroke:#cccccc;stroke-linejoin:miter;"/>
    </g>
    <g id="line2d_7">
     <path d="M 18 163.576562 
L 38 163.576562 
" style="fill:none;stroke:#000000;stroke-linecap:square;stroke-width:1.5;"/>
    </g>
    <g id="line2d_8"/>
    <g id="text_1">
     <!-- 1.8-3.1 ft -->
     <g transform="translate(46 167.076562)scale(0.1 -0.1)">
      <defs>
       <path d="M 37.25 0 
L 28.46875 0 
L 28.46875 56 
Q 25.296875 52.984375 20.140625 49.953125 
Q 14.984375 46.921875 10.890625 45.40625 
L 10.890625 53.90625 
Q 18.265625 57.375 23.78125 62.296875 
Q 29.296875 67.234375 31.59375 71.875 
L 37.25 71.875 
z
" id="ArialMT-49"/>
       <path d="M 9.078125 0 
L 9.078125 10.015625 
L 19.09375 10.015625 
L 19.09375 0 
z
" id="ArialMT-46"/>
       <path d="M 17.671875 38.8125 
Q 12.203125 40.828125 9.5625 44.53125 
Q 6.9375 48.25 6.9375 53.421875 
Q 6.9375 61.234375 12.546875 66.546875 
Q 18.171875 71.875 27.484375 71.875 
Q 36.859375 71.875 42.578125 66.421875 
Q 48.296875 60.984375 48.296875 53.171875 
Q 48.296875 48.1875 45.671875 44.5 
Q 43.0625 40.828125 37.75 38.8125 
Q 44.34375 36.671875 47.78125 31.875 
Q 51.21875 27.09375 51.21875 20.453125 
Q 51.21875 11.28125 44.71875 5.03125 
Q 38.234375 -1.21875 27.640625 -1.21875 
Q 17.046875 -1.21875 10.546875 5.046875 
Q 4.046875 11.328125 4.046875 20.703125 
Q 4.046875 27.6875 7.59375 32.390625 
Q 11.140625 37.109375 17.671875 38.8125 
z
M 15.921875 53.71875 
Q 15.921875 48.640625 19.1875 45.40625 
Q 22.46875 42.1875 27.6875 42.1875 
Q 32.765625 42.1875 36.015625 45.375 
Q 39.265625 48.578125 39.265625 53.21875 
Q 39.265625 58.0625 35.90625 61.359375 
Q 32.5625 64.65625 27.59375 64.65625 
Q 22.5625 64.65625 19.234375 61.421875 
Q 15.921875 58.203125 15.921875 53.71875 
z
M 13.09375 20.65625 
Q 13.09375 16.890625 14.875 13.375 
Q 16.65625 9.859375 20.171875 7.921875 
Q 23.6875 6 27.734375 6 
Q 34.03125 6 38.125 10.046875 
Q 42.234375 14.109375 42.234375 20.359375 
Q 42.234375 26.703125 38.015625 30.859375 
Q 33.796875 35.015625 27.4375 35.015625 
Q 21.234375 35.015625 17.15625 30.90625 
Q 13.09375 26.8125 13.09375 20.65625 
z
" id="ArialMT-56"/>
       <path d="M 3.171875 21.484375 
L 3.171875 30.328125 
L 30.171875 30.328125 
L 30.171875 21.484375 
z
" id="ArialMT-45"/>
       <path d="M 4.203125 18.890625 
L 12.984375 20.0625 
Q 14.5 12.59375 18.140625 9.296875 
Q 21.78125 6 27 6 
Q 33.203125 6 37.46875 10.296875 
Q 41.75 14.59375 41.75 20.953125 
Q 41.75 27 37.796875 30.921875 
Q 33.84375 34.859375 27.734375 34.859375 
Q 25.25 34.859375 21.53125 33.890625 
L 22.515625 41.609375 
Q 23.390625 41.5 23.921875 41.5 
Q 29.546875 41.5 34.03125 44.421875 
Q 38.53125 47.359375 38.53125 53.46875 
Q 38.53125 58.296875 35.25 61.46875 
Q 31.984375 64.65625 26.8125 64.65625 
Q 21.6875 64.65625 18.265625 61.421875 
Q 14.84375 58.203125 13.875 51.765625 
L 5.078125 53.328125 
Q 6.6875 62.15625 12.390625 67.015625 
Q 18.109375 71.875 26.609375 71.875 
Q 32.46875 71.875 37.390625 69.359375 
Q 42.328125 66.84375 44.9375 62.5 
Q 47.5625 58.15625 47.5625 53.265625 
Q 47.5625 48.640625 45.0625 44.828125 
Q 42.578125 41.015625 37.703125 38.765625 
Q 44.046875 37.3125 47.5625 32.6875 
Q 51.078125 28.078125 51.078125 21.140625 
Q 51.078125 11.765625 44.234375 5.25 
Q 37.40625 -1.265625 26.953125 -1.265625 
Q 17.53125 -1.265625 11.296875 4.34375 
Q 5.078125 9.96875 4.203125 18.890625 
z
" id="ArialMT-51"/>
       <path id="ArialMT-32"/>
       <path d="M 8.6875 0 
L 8.6875 45.015625 
L 0.921875 45.015625 
L 0.921875 51.859375 
L 8.6875 51.859375 
L 8.6875 57.375 
Q 8.6875 62.59375 9.625 65.140625 
Q 10.890625 68.5625 14.078125 70.671875 
Q 17.28125 72.796875 23.046875 72.796875 
Q 26.765625 72.796875 31.25 71.921875 
L 29.9375 64.265625 
Q 27.203125 64.75 24.75 64.75 
Q 20.75 64.75 19.09375 63.03125 
Q 17.4375 61.328125 17.4375 56.640625 
L 17.4375 51.859375 
L 27.546875 51.859375 
L 27.546875 45.015625 
L 17.4375 45.015625 
L 17.4375 0 
z
" id="ArialMT-102"/>
       <path d="M 25.78125 7.859375 
L 27.046875 0.09375 
Q 23.34375 -0.6875 20.40625 -0.6875 
Q 15.625 -0.6875 12.984375 0.828125 
Q 10.359375 2.34375 9.28125 4.8125 
Q 8.203125 7.28125 8.203125 15.1875 
L 8.203125 45.015625 
L 1.765625 45.015625 
L 1.765625 51.859375 
L 8.203125 51.859375 
L 8.203125 64.703125 
L 16.9375 69.96875 
L 16.9375 51.859375 
L 25.78125 51.859375 
L 25.78125 45.015625 
L 16.9375 45.015625 
L 16.9375 14.703125 
Q 16.9375 10.9375 17.40625 9.859375 
Q 17.875 8.796875 18.921875 8.15625 
Q 19.96875 7.515625 21.921875 7.515625 
Q 23.390625 7.515625 25.78125 7.859375 
z
" id="ArialMT-116"/>
      </defs>
      <use xlink:href="#ArialMT-49"/>
      <use x="55.615234" xlink:href="#ArialMT-46"/>
      <use x="83.398438" xlink:href="#ArialMT-56"/>
      <use x="139.013672" xlink:href="#ArialMT-45"/>
      <use x="172.314453" xlink:href="#ArialMT-51"/>
      <use x="227.929688" xlink:href="#ArialMT-46"/>
      <use x="255.712891" xlink:href="#ArialMT-49"/>
      <use x="311.328125" xlink:href="#ArialMT-32"/>
      <use x="339.111328" xlink:href="#ArialMT-102"/>
      <use x="366.894531" xlink:href="#ArialMT-116"/>
     </g>
    </g>
    <g id="line2d_9">
     <path d="M 18 177.721875 
L 38 177.721875 
" style="fill:none;stroke:#808080;stroke-dasharray:5.55,2.4;stroke-dashoffset:0;stroke-width:1.5;"/>
    </g>
    <g id="line2d_10"/>
    <g id="text_2">
     <!-- 3.1-3.5 ft -->
     <g transform="translate(46 181.221875)scale(0.1 -0.1)">
      <defs>
       <path d="M 4.15625 18.75 
L 13.375 19.53125 
Q 14.40625 12.796875 18.140625 9.390625 
Q 21.875 6 27.15625 6 
Q 33.5 6 37.890625 10.78125 
Q 42.28125 15.578125 42.28125 23.484375 
Q 42.28125 31 38.0625 35.34375 
Q 33.84375 39.703125 27 39.703125 
Q 22.75 39.703125 19.328125 37.765625 
Q 15.921875 35.84375 13.96875 32.765625 
L 5.71875 33.84375 
L 12.640625 70.609375 
L 48.25 70.609375 
L 48.25 62.203125 
L 19.671875 62.203125 
L 15.828125 42.96875 
Q 22.265625 47.46875 29.34375 47.46875 
Q 38.71875 47.46875 45.15625 40.96875 
Q 51.609375 34.46875 51.609375 24.265625 
Q 51.609375 14.546875 45.953125 7.46875 
Q 39.0625 -1.21875 27.15625 -1.21875 
Q 17.390625 -1.21875 11.203125 4.25 
Q 5.03125 9.71875 4.15625 18.75 
z
" id="ArialMT-53"/>
      </defs>
      <use xlink:href="#ArialMT-51"/>
      <use x="55.615234" xlink:href="#ArialMT-46"/>
      <use x="83.398438" xlink:href="#ArialMT-49"/>
      <use x="139.013672" xlink:href="#ArialMT-45"/>
      <use x="172.314453" xlink:href="#ArialMT-51"/>
      <use x="227.929688" xlink:href="#ArialMT-46"/>
      <use x="255.712891" xlink:href="#ArialMT-53"/>
      <use x="311.328125" xlink:href="#ArialMT-32"/>
      <use x="339.111328" xlink:href="#ArialMT-102"/>
      <use x="366.894531" xlink:href="#ArialMT-116"/>
     </g>
    </g>
    <g id="line2d_11">
     <path d="M 18 191.867188 
L 38 191.867188 
" style="fill:none;stroke:#d3d3d3;stroke-dasharray:1.5,2.475;stroke-dashoffset:0;stroke-width:1.5;"/>
    </g>
    <g id="line2d_12"/>
    <g id="text_3">
     <!-- 3.5-4.0 ft -->
     <g transform="translate(46 195.367188)scale(0.1 -0.1)">
      <defs>
       <path d="M 32.328125 0 
L 32.328125 17.140625 
L 1.265625 17.140625 
L 1.265625 25.203125 
L 33.9375 71.578125 
L 41.109375 71.578125 
L 41.109375 25.203125 
L 50.78125 25.203125 
L 50.78125 17.140625 
L 41.109375 17.140625 
L 41.109375 0 
z
M 32.328125 25.203125 
L 32.328125 57.46875 
L 9.90625 25.203125 
z
" id="ArialMT-52"/>
       <path d="M 4.15625 35.296875 
Q 4.15625 48 6.765625 55.734375 
Q 9.375 63.484375 14.515625 67.671875 
Q 19.671875 71.875 27.484375 71.875 
Q 33.25 71.875 37.59375 69.546875 
Q 41.9375 67.234375 44.765625 62.859375 
Q 47.609375 58.5 49.21875 52.21875 
Q 50.828125 45.953125 50.828125 35.296875 
Q 50.828125 22.703125 48.234375 14.96875 
Q 45.65625 7.234375 40.5 3 
Q 35.359375 -1.21875 27.484375 -1.21875 
Q 17.140625 -1.21875 11.234375 6.203125 
Q 4.15625 15.140625 4.15625 35.296875 
z
M 13.1875 35.296875 
Q 13.1875 17.671875 17.3125 11.828125 
Q 21.4375 6 27.484375 6 
Q 33.546875 6 37.671875 11.859375 
Q 41.796875 17.71875 41.796875 35.296875 
Q 41.796875 52.984375 37.671875 58.78125 
Q 33.546875 64.59375 27.390625 64.59375 
Q 21.34375 64.59375 17.71875 59.46875 
Q 13.1875 52.9375 13.1875 35.296875 
z
" id="ArialMT-48"/>
      </defs>
      <use xlink:href="#ArialMT-51"/>
      <use x="55.615234" xlink:href="#ArialMT-46"/>
      <use x="83.398438" xlink:href="#ArialMT-53"/>
      <use x="139.013672" xlink:href="#ArialMT-45"/>
      <use x="172.314453" xlink:href="#ArialMT-52"/>
      <use x="227.929688" xlink:href="#ArialMT-46"/>
      <use x="255.712891" xlink:href="#ArialMT-48"/>
      <use x="311.328125" xlink:href="#ArialMT-32"/>
      <use x="339.111328" xlink:href="#ArialMT-102"/>
      <use x="366.894531" xlink:href="#ArialMT-116"/>
     </g>
    </g>
    <g id="line2d_13">
     <path d="M 18 206.0125 
L 38 206.0125 
" style="fill:none;stroke:#a9a9a9;stroke-dasharray:9.6,2.4,1.5,2.4;stroke-dashoffset:0;stroke-width:1.5;"/>
    </g>
    <g id="line2d_14"/>
    <g id="text_4">
     <!-- 4.0-5.6 ft -->
     <g transform="translate(46 209.5125)scale(0.1 -0.1)">
      <defs>
       <path d="M 49.75 54.046875 
L 41.015625 53.375 
Q 39.84375 58.546875 37.703125 60.890625 
Q 34.125 64.65625 28.90625 64.65625 
Q 24.703125 64.65625 21.53125 62.3125 
Q 17.390625 59.28125 14.984375 53.46875 
Q 12.59375 47.65625 12.5 36.921875 
Q 15.671875 41.75 20.265625 44.09375 
Q 24.859375 46.4375 29.890625 46.4375 
Q 38.671875 46.4375 44.84375 39.96875 
Q 51.03125 33.5 51.03125 23.25 
Q 51.03125 16.5 48.125 10.71875 
Q 45.21875 4.9375 40.140625 1.859375 
Q 35.0625 -1.21875 28.609375 -1.21875 
Q 17.625 -1.21875 10.6875 6.859375 
Q 3.765625 14.9375 3.765625 33.5 
Q 3.765625 54.25 11.421875 63.671875 
Q 18.109375 71.875 29.4375 71.875 
Q 37.890625 71.875 43.28125 67.140625 
Q 48.6875 62.40625 49.75 54.046875 
z
M 13.875 23.1875 
Q 13.875 18.65625 15.796875 14.5 
Q 17.71875 10.359375 21.1875 8.171875 
Q 24.65625 6 28.46875 6 
Q 34.03125 6 38.03125 10.484375 
Q 42.046875 14.984375 42.046875 22.703125 
Q 42.046875 30.125 38.078125 34.390625 
Q 34.125 38.671875 28.125 38.671875 
Q 22.171875 38.671875 18.015625 34.390625 
Q 13.875 30.125 13.875 23.1875 
z
" id="ArialMT-54"/>
      </defs>
      <use xlink:href="#ArialMT-52"/>
      <use x="55.615234" xlink:href="#ArialMT-46"/>
      <use x="83.398438" xlink:href="#ArialMT-48"/>
      <use x="139.013672" xlink:href="#ArialMT-45"/>
      <use x="172.314453" xlink:href="#ArialMT-53"/>
      <use x="227.929688" xlink:href="#ArialMT-46"/>
      <use x="255.712891" xlink:href="#ArialMT-54"/>
      <use x="311.328125" xlink:href="#ArialMT-32"/>
      <use x="339.111328" xlink:href="#ArialMT-102"/>
      <use x="366.894531" xlink:href="#ArialMT-116"/>
     </g>
    </g>
   </g>
  </g>
 </g>
 <defs>
  <clipPath id="p7455e66fb4">
   <rect height="190.26" width="55.8" x="9" y="30.24"/>
  </clipPath>
 </defs>
</svg>
