<?xml version="1.0" encoding="utf-8" standalone="no"?>
<!DOCTYPE svg PUBLIC "-//W3C//DTD SVG 1.1//EN"
  "http://www.w3.org/Graphics/SVG/1.1/DTD/svg11.dtd">
<!-- Created with matplotlib (https://matplotlib.org/) -->
<svg height="252pt" version="1.1" viewBox="0 0 72 252" width="72pt" xmlns="http://www.w3.org/2000/svg" xmlns:xlink="http://www.w3.org/1999/xlink">
 <metadata>
  <rdf:RDF xmlns:cc="http://creativecommons.org/ns#" xmlns:dc="http://purl.org/dc/elements/1.1/" xmlns:rdf="http://www.w3.org/1999/02/22-rdf-syntax-ns#">
   <cc:Work>
    <dc:type rdf:resource="http://purl.org/dc/dcmitype/StillImage"/>
    <dc:date>2022-05-29T10:59:03.541375</dc:date>
    <dc:format>image/svg+xml</dc:format>
    <dc:creator>
     <cc:Agent>
      <dc:title>Matplotlib v3.3.4, https://matplotlib.org/</dc:title>
     </cc:Agent>
    </dc:creator>
   </cc:Work>
  </rdf:RDF>
 </metadata>
 <defs>
  <style type="text/css">*{stroke-linecap:butt;stroke-linejoin:round;}</style>
 </defs>
 <g id="figure_1">
  <g id="patch_1">
   <path d="M 0 252 
L 72 252 
L 72 0 
L 0 0 
z
" style="fill:none;"/>
  </g>
  <g id="axes_1">
   <g id="patch_2">
    <path d="M 9 220.5 
L 64.8 220.5 
L 64.8 30.24 
L 9 30.24 
z
" style="fill:#ffffff;"/>
   </g>
   <g id="matplotlib.axis_1">
    <g id="ytick_1">
     <g id="line2d_1">
      <defs>
       <path d="M 0 0 
L -3.5 0 
" id="m98c4805c6b" style="stroke:#000000;stroke-width:0.8;"/>
      </defs>
      <g>
       <use style="stroke:#000000;stroke-width:0.8;" x="9" xlink:href="#m98c4805c6b" y="172.935"/>
      </g>
     </g>
    </g>
    <g id="ytick_2">
     <g id="line2d_2">
      <g>
       <use style="stroke:#000000;stroke-width:0.8;" x="9" xlink:href="#m98c4805c6b" y="77.805"/>
      </g>
     </g>
    </g>
   </g>
   <g id="line2d_3">
    <path clip-path="url(#p0c64dba9da)" d="M 13.844153 220.5 
L 14.194064 218.578182 
L 14.585155 216.656364 
L 15.020569 214.734545 
L 15.503423 212.812727 
L 16.036764 210.890909 
L 16.623514 208.969091 
L 17.266414 207.047273 
L 17.967964 205.125455 
L 18.730352 203.203636 
L 19.555395 201.281818 
L 20.44446 199.36 
L 21.398405 197.438182 
L 22.4175 195.516364 
L 23.50137 193.594545 
L 24.648927 191.672727 
L 25.858321 189.750909 
L 27.126888 187.829091 
L 28.451115 185.907273 
L 29.826611 183.985455 
L 31.248094 182.063636 
L 32.709395 180.141818 
L 34.203466 178.22 
L 35.722421 176.298182 
L 37.257574 174.376364 
L 38.799514 172.454545 
L 40.338179 170.532727 
L 41.862958 168.610909 
L 43.362803 166.689091 
L 44.826355 164.767273 
L 46.24208 162.845455 
L 47.59842 160.923636 
L 48.883945 159.001818 
L 50.087512 157.08 
L 51.198425 155.158182 
L 52.206591 153.236364 
L 53.102674 151.314545 
L 53.878238 149.392727 
L 54.525879 147.470909 
L 55.039341 145.549091 
L 55.413622 143.627273 
L 55.645047 141.705455 
L 55.731335 139.783636 
L 55.671634 137.861818 
L 55.466533 135.94 
L 55.118056 134.018182 
L 54.629626 132.096364 
L 54.006011 130.174545 
L 53.253243 128.252727 
L 52.378525 126.330909 
L 51.390117 124.409091 
L 50.297199 122.487273 
L 49.109737 120.565455 
L 47.838331 118.643636 
L 46.494052 116.721818 
L 45.088291 114.8 
L 43.632594 112.878182 
L 42.13851 110.956364 
L 40.617441 109.034545 
L 39.080502 107.112727 
L 37.538392 105.190909 
L 36.00128 103.269091 
L 34.478703 101.347273 
L 32.979484 99.425455 
L 31.511661 97.503636 
L 30.082434 95.581818 
L 28.698137 93.66 
L 27.364213 91.738182 
L 26.085214 89.816364 
L 24.864812 87.894545 
L 23.705823 85.972727 
L 22.610242 84.050909 
L 21.579293 82.129091 
L 20.613477 80.207273 
L 19.712633 78.285455 
L 18.87601 76.363636 
L 18.102325 74.441818 
L 17.38984 72.52 
L 16.736428 70.598182 
L 16.139642 68.676364 
L 15.59678 66.754545 
L 15.104948 64.832727 
L 14.661119 62.910909 
L 14.262183 60.989091 
L 13.905001 59.067273 
L 13.586441 57.145455 
L 13.303421 55.223636 
L 13.052937 53.301818 
L 12.832091 51.38 
L 12.638112 49.458182 
L 12.468372 47.536364 
L 12.320397 45.614545 
L 12.191876 43.692727 
L 12.080665 41.770909 
L 11.984787 39.849091 
L 11.902432 37.927273 
L 11.831951 36.005455 
L 11.771852 34.083636 
L 11.720792 32.161818 
L 11.677568 30.24 
" style="fill:none;stroke:#000000;stroke-linecap:square;stroke-width:1.5;"/>
   </g>
   <g id="line2d_4">
    <path clip-path="url(#p0c64dba9da)" d="M 11.536364 220.5 
L 11.555094 218.578182 
L 11.57835 216.656364 
L 11.607088 214.734545 
L 11.642435 212.812727 
L 11.685704 210.890909 
L 11.738423 208.969091 
L 11.802349 207.047273 
L 11.879497 205.125455 
L 11.972156 203.203636 
L 12.082912 201.281818 
L 12.214661 199.36 
L 12.370624 197.438182 
L 12.554354 195.516364 
L 12.769738 193.594545 
L 13.020987 191.672727 
L 13.312627 189.750909 
L 13.649467 187.829091 
L 14.036564 185.907273 
L 14.479175 183.985455 
L 14.982689 182.063636 
L 15.552551 180.141818 
L 16.194171 178.22 
L 16.912811 176.298182 
L 17.713473 174.376364 
L 18.600756 172.454545 
L 19.57872 170.532727 
L 20.650731 168.610909 
L 21.819301 166.689091 
L 23.085934 164.767273 
L 24.450968 162.845455 
L 25.913424 160.923636 
L 27.470875 159.001818 
L 29.119321 157.08 
L 30.853099 155.158182 
L 32.66481 153.236364 
L 34.545286 151.314545 
L 36.48359 149.392727 
L 38.467057 147.470909 
L 40.481381 145.549091 
L 42.510736 143.627273 
L 44.537953 141.705455 
L 46.544733 139.783636 
L 48.511898 137.861818 
L 50.419684 135.94 
L 52.248054 134.018182 
L 53.97705 132.096364 
L 55.58714 130.174545 
L 57.059589 128.252727 
L 58.376816 126.330909 
L 59.522745 124.409091 
L 60.48313 122.487273 
L 61.245847 120.565455 
L 61.801152 118.643636 
L 62.141888 116.721818 
L 62.263636 114.8 
L 62.164813 112.878182 
L 61.846705 110.956364 
L 61.313437 109.034545 
L 60.57189 107.112727 
L 59.631546 105.190909 
L 58.504293 103.269091 
L 57.204168 101.347273 
L 55.747073 99.425455 
L 54.150448 97.503636 
L 52.432925 95.581818 
L 50.613968 93.66 
L 48.71351 91.738182 
L 46.751595 89.816364 
L 44.74803 87.894545 
L 42.722069 85.972727 
L 40.692115 84.050909 
L 38.675465 82.129091 
L 36.688093 80.207273 
L 34.744471 78.285455 
L 32.857438 76.363636 
L 31.038115 74.441818 
L 29.295853 72.52 
L 27.638235 70.598182 
L 26.071102 68.676364 
L 24.598622 66.754545 
L 23.223383 64.832727 
L 21.946505 62.910909 
L 20.767783 60.989091 
L 19.685827 59.067273 
L 18.698221 57.145455 
L 17.801681 55.223636 
L 16.992213 53.301818 
L 16.265266 51.38 
L 15.615874 49.458182 
L 15.038796 47.536364 
L 14.528633 45.614545 
L 14.079938 43.692727 
L 13.687312 41.770909 
L 13.345483 39.849091 
L 13.049369 37.927273 
L 12.794133 36.005455 
L 12.57522 34.083636 
L 12.388383 32.161818 
L 12.229702 30.24 
" style="fill:none;stroke:#808080;stroke-dasharray:5.55,2.4;stroke-dashoffset:0;stroke-width:1.5;"/>
   </g>
   <g id="line2d_5">
    <path clip-path="url(#p0c64dba9da)" d="M 11.723958 220.5 
L 11.779699 218.578182 
L 11.846076 216.656364 
L 11.92479 214.734545 
L 12.017749 212.812727 
L 12.127073 210.890909 
L 12.255108 208.969091 
L 12.404428 207.047273 
L 12.577836 205.125455 
L 12.778367 203.203636 
L 13.009277 201.281818 
L 13.274029 199.36 
L 13.576276 197.438182 
L 13.919836 195.516364 
L 14.30865 193.594545 
L 14.746747 191.672727 
L 15.238187 189.750909 
L 15.787005 187.829091 
L 16.397137 185.907273 
L 17.072349 183.985455 
L 17.816147 182.063636 
L 18.631689 180.141818 
L 19.521686 178.22 
L 20.488305 176.298182 
L 21.533062 174.376364 
L 22.656726 172.454545 
L 23.859216 170.532727 
L 25.139509 168.610909 
L 26.495555 166.689091 
L 27.924203 164.767273 
L 29.421142 162.845455 
L 30.980858 160.923636 
L 32.596611 159.001818 
L 34.260434 157.08 
L 35.963156 155.158182 
L 37.694448 153.236364 
L 39.4429 151.314545 
L 41.196119 149.392727 
L 42.940858 147.470909 
L 44.663163 145.549091 
L 46.348549 143.627273 
L 47.982193 141.705455 
L 49.549148 139.783636 
L 51.034558 137.861818 
L 52.423897 135.94 
L 53.7032 134.018182 
L 54.859295 132.096364 
L 55.88003 130.174545 
L 56.754482 128.252727 
L 57.473156 126.330909 
L 58.028153 124.409091 
L 58.413314 122.487273 
L 58.624337 120.565455 
L 58.658855 118.643636 
L 58.516479 116.721818 
L 58.198809 114.8 
L 57.709401 112.878182 
L 57.0537 110.956364 
L 56.238941 109.034545 
L 55.274019 107.112727 
L 54.16932 105.190909 
L 52.936541 103.269091 
L 51.588484 101.347273 
L 50.13883 99.425455 
L 48.601917 97.503636 
L 46.992497 95.581818 
L 45.325511 93.66 
L 43.615855 91.738182 
L 41.878171 89.816364 
L 40.12664 87.894545 
L 38.374805 85.972727 
L 36.635408 84.050909 
L 34.920257 82.129091 
L 33.240111 80.207273 
L 31.6046 78.285455 
L 30.022165 76.363636 
L 28.500026 74.441818 
L 27.044172 72.52 
L 25.659381 70.598182 
L 24.349248 68.676364 
L 23.116246 66.754545 
L 21.961787 64.832727 
L 20.88631 62.910909 
L 19.889366 60.989091 
L 18.969718 59.067273 
L 18.12544 57.145455 
L 17.354022 55.223636 
L 16.652468 53.301818 
L 16.017396 51.38 
L 15.445131 49.458182 
L 14.931795 47.536364 
L 14.473382 45.614545 
L 14.065834 43.692727 
L 13.705105 41.770909 
L 13.387211 39.849091 
L 13.108283 37.927273 
L 12.864601 36.005455 
L 12.652624 34.083636 
L 12.469014 32.161818 
L 12.310648 30.24 
" style="fill:none;stroke:#d3d3d3;stroke-dasharray:1.5,2.475;stroke-dashoffset:0;stroke-width:1.5;"/>
   </g>
   <g id="patch_3">
    <path d="M 9 220.5 
L 9 30.24 
" style="fill:none;stroke:#000000;stroke-linecap:square;stroke-linejoin:miter;stroke-width:0.8;"/>
   </g>
   <g id="legend_1">
    <g id="patch_4">
     <path d="M 16 215.5 
L 173.665625 215.5 
Q 175.665625 215.5 175.665625 213.5 
L 175.665625 172.064063 
Q 175.665625 170.064063 173.665625 170.064063 
L 16 170.064063 
Q 14 170.064063 14 172.064063 
L 14 213.5 
Q 14 215.5 16 215.5 
z
" style="fill:#ffffff;opacity:0.8;stroke:#cccccc;stroke-linejoin:miter;"/>
    </g>
    <g id="line2d_6">
     <path d="M 18 177.721875 
L 38 177.721875 
" style="fill:none;stroke:#000000;stroke-linecap:square;stroke-width:1.5;"/>
    </g>
    <g id="line2d_7"/>
    <g id="text_1">
     <!-- 1.0-42.400000000000034 -->
     <g transform="translate(46 181.221875)scale(0.1 -0.1)">
      <defs>
       <path d="M 37.25 0 
L 28.46875 0 
L 28.46875 56 
Q 25.296875 52.984375 20.140625 49.953125 
Q 14.984375 46.921875 10.890625 45.40625 
L 10.890625 53.90625 
Q 18.265625 57.375 23.78125 62.296875 
Q 29.296875 67.234375 31.59375 71.875 
L 37.25 71.875 
z
" id="ArialMT-49"/>
       <path d="M 9.078125 0 
L 9.078125 10.015625 
L 19.09375 10.015625 
L 19.09375 0 
z
" id="ArialMT-46"/>
       <path d="M 4.15625 35.296875 
Q 4.15625 48 6.765625 55.734375 
Q 9.375 63.484375 14.515625 67.671875 
Q 19.671875 71.875 27.484375 71.875 
Q 33.25 71.875 37.59375 69.546875 
Q 41.9375 67.234375 44.765625 62.859375 
Q 47.609375 58.5 49.21875 52.21875 
Q 50.828125 45.953125 50.828125 35.296875 
Q 50.828125 22.703125 48.234375 14.96875 
Q 45.65625 7.234375 40.5 3 
Q 35.359375 -1.21875 27.484375 -1.21875 
Q 17.140625 -1.21875 11.234375 6.203125 
Q 4.15625 15.140625 4.15625 35.296875 
z
M 13.1875 35.296875 
Q 13.1875 17.671875 17.3125 11.828125 
Q 21.4375 6 27.484375 6 
Q 33.546875 6 37.671875 11.859375 
Q 41.796875 17.71875 41.796875 35.296875 
Q 41.796875 52.984375 37.671875 58.78125 
Q 33.546875 64.59375 27.390625 64.59375 
Q 21.34375 64.59375 17.71875 59.46875 
Q 13.1875 52.9375 13.1875 35.296875 
z
" id="ArialMT-48"/>
       <path d="M 3.171875 21.484375 
L 3.171875 30.328125 
L 30.171875 30.328125 
L 30.171875 21.484375 
z
" id="ArialMT-45"/>
       <path d="M 32.328125 0 
L 32.328125 17.140625 
L 1.265625 17.140625 
L 1.265625 25.203125 
L 33.9375 71.578125 
L 41.109375 71.578125 
L 41.109375 25.203125 
L 50.78125 25.203125 
L 50.78125 17.140625 
L 41.109375 17.140625 
L 41.109375 0 
z
M 32.328125 25.203125 
L 32.328125 57.46875 
L 9.90625 25.203125 
z
" id="ArialMT-52"/>
       <path d="M 50.34375 8.453125 
L 50.34375 0 
L 3.03125 0 
Q 2.9375 3.171875 4.046875 6.109375 
Q 5.859375 10.9375 9.828125 15.625 
Q 13.8125 20.3125 21.34375 26.46875 
Q 33.015625 36.03125 37.109375 41.625 
Q 41.21875 47.21875 41.21875 52.203125 
Q 41.21875 57.421875 37.46875 61 
Q 33.734375 64.59375 27.734375 64.59375 
Q 21.390625 64.59375 17.578125 60.78125 
Q 13.765625 56.984375 13.71875 50.25 
L 4.6875 51.171875 
Q 5.609375 61.28125 11.65625 66.578125 
Q 17.71875 71.875 27.9375 71.875 
Q 38.234375 71.875 44.234375 66.15625 
Q 50.25 60.453125 50.25 52 
Q 50.25 47.703125 48.484375 43.546875 
Q 46.734375 39.40625 42.65625 34.8125 
Q 38.578125 30.21875 29.109375 22.21875 
Q 21.1875 15.578125 18.9375 13.203125 
Q 16.703125 10.84375 15.234375 8.453125 
z
" id="ArialMT-50"/>
       <path d="M 4.203125 18.890625 
L 12.984375 20.0625 
Q 14.5 12.59375 18.140625 9.296875 
Q 21.78125 6 27 6 
Q 33.203125 6 37.46875 10.296875 
Q 41.75 14.59375 41.75 20.953125 
Q 41.75 27 37.796875 30.921875 
Q 33.84375 34.859375 27.734375 34.859375 
Q 25.25 34.859375 21.53125 33.890625 
L 22.515625 41.609375 
Q 23.390625 41.5 23.921875 41.5 
Q 29.546875 41.5 34.03125 44.421875 
Q 38.53125 47.359375 38.53125 53.46875 
Q 38.53125 58.296875 35.25 61.46875 
Q 31.984375 64.65625 26.8125 64.65625 
Q 21.6875 64.65625 18.265625 61.421875 
Q 14.84375 58.203125 13.875 51.765625 
L 5.078125 53.328125 
Q 6.6875 62.15625 12.390625 67.015625 
Q 18.109375 71.875 26.609375 71.875 
Q 32.46875 71.875 37.390625 69.359375 
Q 42.328125 66.84375 44.9375 62.5 
Q 47.5625 58.15625 47.5625 53.265625 
Q 47.5625 48.640625 45.0625 44.828125 
Q 42.578125 41.015625 37.703125 38.765625 
Q 44.046875 37.3125 47.5625 32.6875 
Q 51.078125 28.078125 51.078125 21.140625 
Q 51.078125 11.765625 44.234375 5.25 
Q 37.40625 -1.265625 26.953125 -1.265625 
Q 17.53125 -1.265625 11.296875 4.34375 
Q 5.078125 9.96875 4.203125 18.890625 
z
" id="ArialMT-51"/>
      </defs>
      <use xlink:href="#ArialMT-49"/>
      <use x="55.615234" xlink:href="#ArialMT-46"/>
      <use x="83.398438" xlink:href="#ArialMT-48"/>
      <use x="139.013672" xlink:href="#ArialMT-45"/>
      <use x="172.314453" xlink:href="#ArialMT-52"/>
      <use x="227.929688" xlink:href="#ArialMT-50"/>
      <use x="283.544922" xlink:href="#ArialMT-46"/>
      <use x="311.328125" xlink:href="#ArialMT-52"/>
      <use x="366.943359" xlink:href="#ArialMT-48"/>
      <use x="422.558594" xlink:href="#ArialMT-48"/>
      <use x="478.173828" xlink:href="#ArialMT-48"/>
      <use x="533.789062" xlink:href="#ArialMT-48"/>
      <use x="589.404297" xlink:href="#ArialMT-48"/>
      <use x="645.019531" xlink:href="#ArialMT-48"/>
      <use x="700.634766" xlink:href="#ArialMT-48"/>
      <use x="756.25" xlink:href="#ArialMT-48"/>
      <use x="811.865234" xlink:href="#ArialMT-48"/>
      <use x="867.480469" xlink:href="#ArialMT-48"/>
      <use x="923.095703" xlink:href="#ArialMT-48"/>
      <use x="978.710938" xlink:href="#ArialMT-48"/>
      <use x="1034.326172" xlink:href="#ArialMT-51"/>
      <use x="1089.941406" xlink:href="#ArialMT-52"/>
     </g>
    </g>
    <g id="line2d_8">
     <path d="M 18 191.867188 
L 38 191.867188 
" style="fill:none;stroke:#808080;stroke-dasharray:5.55,2.4;stroke-dashoffset:0;stroke-width:1.5;"/>
    </g>
    <g id="line2d_9"/>
    <g id="text_2">
     <!-- 42.400000000000034-175.0 -->
     <g transform="translate(46 195.367188)scale(0.1 -0.1)">
      <defs>
       <path d="M 4.734375 62.203125 
L 4.734375 70.65625 
L 51.078125 70.65625 
L 51.078125 63.8125 
Q 44.234375 56.546875 37.515625 44.484375 
Q 30.8125 32.421875 27.15625 19.671875 
Q 24.515625 10.6875 23.78125 0 
L 14.75 0 
Q 14.890625 8.453125 18.0625 20.40625 
Q 21.234375 32.375 27.171875 43.484375 
Q 33.109375 54.59375 39.796875 62.203125 
z
" id="ArialMT-55"/>
       <path d="M 4.15625 18.75 
L 13.375 19.53125 
Q 14.40625 12.796875 18.140625 9.390625 
Q 21.875 6 27.15625 6 
Q 33.5 6 37.890625 10.78125 
Q 42.28125 15.578125 42.28125 23.484375 
Q 42.28125 31 38.0625 35.34375 
Q 33.84375 39.703125 27 39.703125 
Q 22.75 39.703125 19.328125 37.765625 
Q 15.921875 35.84375 13.96875 32.765625 
L 5.71875 33.84375 
L 12.640625 70.609375 
L 48.25 70.609375 
L 48.25 62.203125 
L 19.671875 62.203125 
L 15.828125 42.96875 
Q 22.265625 47.46875 29.34375 47.46875 
Q 38.71875 47.46875 45.15625 40.96875 
Q 51.609375 34.46875 51.609375 24.265625 
Q 51.609375 14.546875 45.953125 7.46875 
Q 39.0625 -1.21875 27.15625 -1.21875 
Q 17.390625 -1.21875 11.203125 4.25 
Q 5.03125 9.71875 4.15625 18.75 
z
" id="ArialMT-53"/>
      </defs>
      <use xlink:href="#ArialMT-52"/>
      <use x="55.615234" xlink:href="#ArialMT-50"/>
      <use x="111.230469" xlink:href="#ArialMT-46"/>
      <use x="139.013672" xlink:href="#ArialMT-52"/>
      <use x="194.628906" xlink:href="#ArialMT-48"/>
      <use x="250.244141" xlink:href="#ArialMT-48"/>
      <use x="305.859375" xlink:href="#ArialMT-48"/>
      <use x="361.474609" xlink:href="#ArialMT-48"/>
      <use x="417.089844" xlink:href="#ArialMT-48"/>
      <use x="472.705078" xlink:href="#ArialMT-48"/>
      <use x="528.320312" xlink:href="#ArialMT-48"/>
      <use x="583.935547" xlink:href="#ArialMT-48"/>
      <use x="639.550781" xlink:href="#ArialMT-48"/>
      <use x="695.166016" xlink:href="#ArialMT-48"/>
      <use x="750.78125" xlink:href="#ArialMT-48"/>
      <use x="806.396484" xlink:href="#ArialMT-48"/>
      <use x="862.011719" xlink:href="#ArialMT-51"/>
      <use x="917.626953" xlink:href="#ArialMT-52"/>
      <use x="973.242188" xlink:href="#ArialMT-45"/>
      <use x="1006.542969" xlink:href="#ArialMT-49"/>
      <use x="1062.158203" xlink:href="#ArialMT-55"/>
      <use x="1117.773438" xlink:href="#ArialMT-53"/>
      <use x="1173.388672" xlink:href="#ArialMT-46"/>
      <use x="1201.171875" xlink:href="#ArialMT-48"/>
     </g>
    </g>
    <g id="line2d_10">
     <path d="M 18 206.0125 
L 38 206.0125 
" style="fill:none;stroke:#d3d3d3;stroke-dasharray:1.5,2.475;stroke-dashoffset:0;stroke-width:1.5;"/>
    </g>
    <g id="line2d_11"/>
    <g id="text_3">
     <!-- 175.0-184.0 -->
     <g transform="translate(46 209.5125)scale(0.1 -0.1)">
      <defs>
       <path d="M 17.671875 38.8125 
Q 12.203125 40.828125 9.5625 44.53125 
Q 6.9375 48.25 6.9375 53.421875 
Q 6.9375 61.234375 12.546875 66.546875 
Q 18.171875 71.875 27.484375 71.875 
Q 36.859375 71.875 42.578125 66.421875 
Q 48.296875 60.984375 48.296875 53.171875 
Q 48.296875 48.1875 45.671875 44.5 
Q 43.0625 40.828125 37.75 38.8125 
Q 44.34375 36.671875 47.78125 31.875 
Q 51.21875 27.09375 51.21875 20.453125 
Q 51.21875 11.28125 44.71875 5.03125 
Q 38.234375 -1.21875 27.640625 -1.21875 
Q 17.046875 -1.21875 10.546875 5.046875 
Q 4.046875 11.328125 4.046875 20.703125 
Q 4.046875 27.6875 7.59375 32.390625 
Q 11.140625 37.109375 17.671875 38.8125 
z
M 15.921875 53.71875 
Q 15.921875 48.640625 19.1875 45.40625 
Q 22.46875 42.1875 27.6875 42.1875 
Q 32.765625 42.1875 36.015625 45.375 
Q 39.265625 48.578125 39.265625 53.21875 
Q 39.265625 58.0625 35.90625 61.359375 
Q 32.5625 64.65625 27.59375 64.65625 
Q 22.5625 64.65625 19.234375 61.421875 
Q 15.921875 58.203125 15.921875 53.71875 
z
M 13.09375 20.65625 
Q 13.09375 16.890625 14.875 13.375 
Q 16.65625 9.859375 20.171875 7.921875 
Q 23.6875 6 27.734375 6 
Q 34.03125 6 38.125 10.046875 
Q 42.234375 14.109375 42.234375 20.359375 
Q 42.234375 26.703125 38.015625 30.859375 
Q 33.796875 35.015625 27.4375 35.015625 
Q 21.234375 35.015625 17.15625 30.90625 
Q 13.09375 26.8125 13.09375 20.65625 
z
" id="ArialMT-56"/>
      </defs>
      <use xlink:href="#ArialMT-49"/>
      <use x="55.615234" xlink:href="#ArialMT-55"/>
      <use x="111.230469" xlink:href="#ArialMT-53"/>
      <use x="166.845703" xlink:href="#ArialMT-46"/>
      <use x="194.628906" xlink:href="#ArialMT-48"/>
      <use x="250.244141" xlink:href="#ArialMT-45"/>
      <use x="283.544922" xlink:href="#ArialMT-49"/>
      <use x="339.160156" xlink:href="#ArialMT-56"/>
      <use x="394.775391" xlink:href="#ArialMT-52"/>
      <use x="450.390625" xlink:href="#ArialMT-46"/>
      <use x="478.173828" xlink:href="#ArialMT-48"/>
     </g>
    </g>
   </g>
  </g>
 </g>
 <defs>
  <clipPath id="p0c64dba9da">
   <rect height="190.26" width="55.8" x="9" y="30.24"/>
  </clipPath>
 </defs>
</svg>
