<?xml version="1.0" encoding="utf-8" standalone="no"?>
<!DOCTYPE svg PUBLIC "-//W3C//DTD SVG 1.1//EN"
  "http://www.w3.org/Graphics/SVG/1.1/DTD/svg11.dtd">
<!-- Created with matplotlib (https://matplotlib.org/) -->
<svg height="252pt" version="1.1" viewBox="0 0 72 252" width="72pt" xmlns="http://www.w3.org/2000/svg" xmlns:xlink="http://www.w3.org/1999/xlink">
 <metadata>
  <rdf:RDF xmlns:cc="http://creativecommons.org/ns#" xmlns:dc="http://purl.org/dc/elements/1.1/" xmlns:rdf="http://www.w3.org/1999/02/22-rdf-syntax-ns#">
   <cc:Work>
    <dc:type rdf:resource="http://purl.org/dc/dcmitype/StillImage"/>
    <dc:date>2022-05-23T16:14:59.479882</dc:date>
    <dc:format>image/svg+xml</dc:format>
    <dc:creator>
     <cc:Agent>
      <dc:title>Matplotlib v3.3.4, https://matplotlib.org/</dc:title>
     </cc:Agent>
    </dc:creator>
   </cc:Work>
  </rdf:RDF>
 </metadata>
 <defs>
  <style type="text/css">*{stroke-linecap:butt;stroke-linejoin:round;}</style>
 </defs>
 <g id="figure_1">
  <g id="patch_1">
   <path d="M 0 252 
L 72 252 
L 72 0 
L 0 0 
z
" style="fill:none;"/>
  </g>
  <g id="axes_1">
   <g id="patch_2">
    <path d="M 9 220.5 
L 64.8 220.5 
L 64.8 30.24 
L 9 30.24 
z
" style="fill:#ffffff;"/>
   </g>
   <g id="matplotlib.axis_1">
    <g id="ytick_1">
     <g id="line2d_1">
      <defs>
       <path d="M 0 0 
L -3.5 0 
" id="m1d5d86fa28" style="stroke:#000000;stroke-width:0.8;"/>
      </defs>
      <g>
       <use style="stroke:#000000;stroke-width:0.8;" x="9" xlink:href="#m1d5d86fa28" y="172.935"/>
      </g>
     </g>
    </g>
    <g id="ytick_2">
     <g id="line2d_2">
      <g>
       <use style="stroke:#000000;stroke-width:0.8;" x="9" xlink:href="#m1d5d86fa28" y="77.805"/>
      </g>
     </g>
    </g>
   </g>
   <g id="line2d_3">
    <path clip-path="url(#pf93d845ba5)" d="M 11.536364 220.5 
L 11.536364 218.578182 
L 11.536364 216.656364 
L 11.536364 214.734545 
L 11.536364 212.812727 
L 11.536365 210.890909 
L 11.536365 208.969091 
L 11.536367 207.047273 
L 11.536369 205.125455 
L 11.536373 203.203636 
L 11.53638 201.281818 
L 11.536392 199.36 
L 11.536413 197.438182 
L 11.536447 195.516364 
L 11.536504 193.594545 
L 11.536598 191.672727 
L 11.536749 189.750909 
L 11.536992 187.829091 
L 11.537378 185.907273 
L 11.537982 183.985455 
L 11.538918 182.063636 
L 11.540353 180.141818 
L 11.542527 178.22 
L 11.545785 176.298182 
L 11.55061 174.376364 
L 11.557676 172.454545 
L 11.567907 170.532727 
L 11.582549 168.610909 
L 11.603266 166.689091 
L 11.63224 164.767273 
L 11.672293 162.845455 
L 11.727019 160.923636 
L 11.800919 159.001818 
L 11.899541 157.08 
L 12.029598 155.158182 
L 12.199069 153.236364 
L 12.417252 151.314545 
L 12.694753 149.392727 
L 13.043392 147.470909 
L 13.476005 145.549091 
L 14.006121 143.627273 
L 14.64751 141.705455 
L 15.413576 139.783636 
L 16.316628 137.861818 
L 17.367018 135.94 
L 18.5722 134.018182 
L 19.935745 132.096364 
L 21.456371 130.174545 
L 23.127067 128.252727 
L 24.934385 126.330909 
L 26.857982 124.409091 
L 28.87048 122.487273 
L 30.937711 120.565455 
L 33.019375 118.643636 
L 35.070136 116.721818 
L 37.04111 114.8 
L 38.88172 112.878182 
L 40.541791 110.956364 
L 41.973797 109.034545 
L 43.135114 107.112727 
L 43.990113 105.190909 
L 44.511982 103.269091 
L 44.684118 101.347273 
L 44.501007 99.425455 
L 43.968514 97.503636 
L 43.103575 95.581818 
L 41.933298 93.66 
L 40.493556 91.738182 
L 38.82716 89.816364 
L 36.981751 87.894545 
L 35.00755 85.972727 
L 32.955113 84.050909 
L 30.873237 82.129091 
L 28.807127 80.207273 
L 26.796903 78.285455 
L 24.876533 76.363636 
L 23.073178 74.441818 
L 21.406964 72.52 
L 19.89113 70.598182 
L 18.532499 68.676364 
L 17.332187 66.754545 
L 16.28649 64.832727 
L 15.38785 62.910909 
L 14.625838 60.989091 
L 13.988101 59.067273 
L 13.461211 57.145455 
L 13.031401 55.223636 
L 12.685154 53.301818 
L 12.409661 51.38 
L 12.19314 49.458182 
L 12.025022 47.536364 
L 11.896052 45.614545 
L 11.798291 43.692727 
L 11.725062 41.770909 
L 11.670853 39.849091 
L 11.631193 37.927273 
L 11.602513 36.005455 
L 11.582014 34.083636 
L 11.567531 32.161818 
L 11.557415 30.24 
" style="fill:none;stroke:#000000;stroke-linecap:square;stroke-width:1.5;"/>
   </g>
   <g id="line2d_4">
    <path clip-path="url(#pf93d845ba5)" d="M 11.536364 220.5 
L 11.536364 218.578182 
L 11.536364 216.656364 
L 11.536364 214.734545 
L 11.536364 212.812727 
L 11.536364 210.890909 
L 11.536364 208.969091 
L 11.536364 207.047273 
L 11.536364 205.125455 
L 11.536364 203.203636 
L 11.536366 201.281818 
L 11.536369 199.36 
L 11.536376 197.438182 
L 11.536393 195.516364 
L 11.536432 193.594545 
L 11.536517 191.672727 
L 11.536701 189.750909 
L 11.537086 187.829091 
L 11.537874 185.907273 
L 11.539442 183.985455 
L 11.542482 182.063636 
L 11.548224 180.141818 
L 11.55878 178.22 
L 11.577677 176.298182 
L 11.610611 174.376364 
L 11.666478 172.454545 
L 11.758705 170.532727 
L 11.906849 168.610909 
L 12.138336 166.689091 
L 12.490119 164.767273 
L 13.009868 162.845455 
L 13.756198 160.923636 
L 14.797315 159.001818 
L 16.207499 157.08 
L 18.060983 155.158182 
L 20.423102 153.236364 
L 23.339138 151.314545 
L 26.821889 149.392727 
L 30.839645 147.470909 
L 35.306761 145.549091 
L 40.079142 143.627273 
L 44.956682 141.705455 
L 49.693822 139.783636 
L 54.018154 137.861818 
L 57.655451 135.94 
L 60.358089 134.018182 
L 61.932827 132.096364 
L 62.263636 130.174545 
L 61.325832 128.252727 
L 59.189116 126.330909 
L 56.009013 124.409091 
L 52.008165 122.487273 
L 47.450597 120.565455 
L 42.613084 118.643636 
L 37.757908 116.721818 
L 33.110623 114.8 
L 28.845206 112.878182 
L 25.077487 110.956364 
L 21.866258 109.034545 
L 19.220438 107.112727 
L 17.11004 105.190909 
L 15.478635 103.269091 
L 14.255342 101.347273 
L 13.364967 99.425455 
L 12.735553 97.503636 
L 12.303214 95.581818 
L 12.01454 93.66 
L 11.827114 91.738182 
L 11.708751 89.816364 
L 11.63603 87.894545 
L 11.592552 85.972727 
L 11.567252 84.050909 
L 11.552921 82.129091 
L 11.545018 80.207273 
L 11.540775 78.285455 
L 11.538556 76.363636 
L 11.537426 74.441818 
L 11.536866 72.52 
L 11.536595 70.598182 
L 11.536468 68.676364 
L 11.536409 66.754545 
L 11.536383 64.832727 
L 11.536372 62.910909 
L 11.536367 60.989091 
L 11.536365 59.067273 
L 11.536364 57.145455 
L 11.536364 55.223636 
L 11.536364 53.301818 
L 11.536364 51.38 
L 11.536364 49.458182 
L 11.536364 47.536364 
L 11.536364 45.614545 
L 11.536364 43.692727 
L 11.536364 41.770909 
L 11.536364 39.849091 
L 11.536364 37.927273 
L 11.536364 36.005455 
L 11.536364 34.083636 
L 11.536364 32.161818 
L 11.536364 30.24 
" style="fill:none;stroke:#808080;stroke-dasharray:5.55,2.4;stroke-dashoffset:0;stroke-width:1.5;"/>
   </g>
   <g id="line2d_5">
    <path clip-path="url(#pf93d845ba5)" d="M 11.536366 220.5 
L 11.53637 218.578182 
L 11.53638 216.656364 
L 11.536401 214.734545 
L 11.536449 212.812727 
L 11.536554 210.890909 
L 11.536776 208.969091 
L 11.537235 207.047273 
L 11.538162 205.125455 
L 11.539983 203.203636 
L 11.543472 201.281818 
L 11.549981 199.36 
L 11.561811 197.438182 
L 11.582758 195.516364 
L 11.618879 193.594545 
L 11.679536 191.672727 
L 11.778706 189.750909 
L 11.93654 187.829091 
L 12.181015 185.907273 
L 12.549454 183.985455 
L 13.089546 182.063636 
L 13.859353 180.141818 
L 14.925762 178.22 
L 16.360823 176.298182 
L 18.235602 174.376364 
L 20.611492 172.454545 
L 23.529446 170.532727 
L 26.998143 168.610909 
L 30.982745 166.689091 
L 35.396271 164.767273 
L 40.095782 162.845455 
L 44.885194 160.923636 
L 49.525769 159.001818 
L 53.754108 157.08 
L 57.306079 155.158182 
L 59.943794 153.236364 
L 61.481879 151.314545 
L 61.808995 149.392727 
L 60.901163 147.470909 
L 58.824672 145.549091 
L 55.728075 143.627273 
L 51.824624 141.705455 
L 47.368017 139.783636 
L 42.625298 137.861818 
L 37.850884 135.94 
L 33.265163 134.018182 
L 29.039934 132.096364 
L 25.291605 130.174545 
L 22.081699 128.252727 
L 19.423208 126.330909 
L 17.29072 124.409091 
L 15.632184 122.487273 
L 14.380403 120.565455 
L 13.462917 118.643636 
L 12.809507 116.721818 
L 12.357138 114.8 
L 12.052567 112.878182 
L 11.853079 110.956364 
L 11.725933 109.034545 
L 11.647056 107.112727 
L 11.599418 105.190909 
L 11.571404 103.269091 
L 11.55536 101.347273 
L 11.54641 99.425455 
L 11.541547 97.503636 
L 11.538973 95.581818 
L 11.537645 93.66 
L 11.536977 91.738182 
L 11.53665 89.816364 
L 11.536494 87.894545 
L 11.536422 85.972727 
L 11.536389 84.050909 
L 11.536374 82.129091 
L 11.536368 80.207273 
L 11.536365 78.285455 
L 11.536364 76.363636 
L 11.536364 74.441818 
L 11.536364 72.52 
L 11.536364 70.598182 
L 11.536364 68.676364 
L 11.536364 66.754545 
L 11.536364 64.832727 
L 11.536364 62.910909 
L 11.536364 60.989091 
L 11.536364 59.067273 
L 11.536364 57.145455 
L 11.536364 55.223636 
L 11.536364 53.301818 
L 11.536364 51.38 
L 11.536364 49.458182 
L 11.536364 47.536364 
L 11.536364 45.614545 
L 11.536364 43.692727 
L 11.536364 41.770909 
L 11.536364 39.849091 
L 11.536364 37.927273 
L 11.536364 36.005455 
L 11.536364 34.083636 
L 11.536364 32.161818 
L 11.536364 30.24 
" style="fill:none;stroke:#d3d3d3;stroke-dasharray:1.5,2.475;stroke-dashoffset:0;stroke-width:1.5;"/>
   </g>
   <g id="line2d_6">
    <path clip-path="url(#pf93d845ba5)" d="M 12.471045 220.5 
L 12.830081 218.578182 
L 13.30069 216.656364 
L 13.907091 214.734545 
L 14.675049 212.812727 
L 15.63064 210.890909 
L 16.798595 208.969091 
L 18.200225 207.047273 
L 19.851041 205.125455 
L 21.758181 203.203636 
L 23.91789 201.281818 
L 26.313273 199.36 
L 28.912625 197.438182 
L 31.668619 195.516364 
L 34.518576 193.594545 
L 37.386009 191.672727 
L 40.183464 189.750909 
L 42.816604 187.829091 
L 45.18929 185.907273 
L 47.209305 183.985455 
L 48.79426 182.063636 
L 49.877156 180.141818 
L 50.411075 178.22 
L 50.372552 176.298182 
L 49.763287 174.376364 
L 48.610022 172.454545 
L 46.962588 170.532727 
L 44.89034 168.610909 
L 42.477319 166.689091 
L 39.816607 164.767273 
L 37.004426 162.845455 
L 34.134467 160.923636 
L 31.292928 159.001818 
L 28.554586 157.08 
L 25.980125 155.158182 
L 23.614772 153.236364 
L 21.488183 151.314545 
L 19.615382 149.392727 
L 17.998528 147.470909 
L 16.629213 145.549091 
L 15.491003 143.627273 
L 14.561997 141.705455 
L 13.817174 139.783636 
L 13.23041 137.861818 
L 12.776087 135.94 
L 12.430261 134.018182 
L 12.171422 132.096364 
L 11.980896 130.174545 
L 11.842952 128.252727 
L 11.744703 126.330909 
L 11.675856 124.409091 
L 11.628386 122.487273 
L 11.596177 120.565455 
L 11.57467 118.643636 
L 11.560535 116.721818 
L 11.551392 114.8 
L 11.545569 112.878182 
L 11.54192 110.956364 
L 11.539668 109.034545 
L 11.5383 107.112727 
L 11.537481 105.190909 
L 11.536999 103.269091 
L 11.53672 101.347273 
L 11.53656 99.425455 
L 11.536471 97.503636 
L 11.536421 95.581818 
L 11.536394 93.66 
L 11.536379 91.738182 
L 11.536372 89.816364 
L 11.536368 87.894545 
L 11.536366 85.972727 
L 11.536365 84.050909 
L 11.536364 82.129091 
L 11.536364 80.207273 
L 11.536364 78.285455 
L 11.536364 76.363636 
L 11.536364 74.441818 
L 11.536364 72.52 
L 11.536364 70.598182 
L 11.536364 68.676364 
L 11.536364 66.754545 
L 11.536364 64.832727 
L 11.536364 62.910909 
L 11.536364 60.989091 
L 11.536364 59.067273 
L 11.536364 57.145455 
L 11.536364 55.223636 
L 11.536364 53.301818 
L 11.536364 51.38 
L 11.536364 49.458182 
L 11.536364 47.536364 
L 11.536364 45.614545 
L 11.536364 43.692727 
L 11.536364 41.770909 
L 11.536364 39.849091 
L 11.536364 37.927273 
L 11.536364 36.005455 
L 11.536364 34.083636 
L 11.536364 32.161818 
L 11.536364 30.24 
" style="fill:none;stroke:#a9a9a9;stroke-dasharray:9.6,2.4,1.5,2.4;stroke-dashoffset:0;stroke-width:1.5;"/>
   </g>
   <g id="patch_3">
    <path d="M 9 220.5 
L 9 30.24 
" style="fill:none;stroke:#000000;stroke-linecap:square;stroke-linejoin:miter;stroke-width:0.8;"/>
   </g>
   <g id="legend_1">
    <g id="patch_4">
     <path d="M 13.9 75.446875 
L 63.924844 75.446875 
Q 65.324844 75.446875 65.324844 74.046875 
L 65.324844 35.14 
Q 65.324844 33.74 63.924844 33.74 
L 13.9 33.74 
Q 12.5 33.74 12.5 35.14 
L 12.5 74.046875 
Q 12.5 75.446875 13.9 75.446875 
z
" style="fill:#ffffff;opacity:0.8;stroke:#cccccc;stroke-linejoin:miter;"/>
    </g>
    <g id="line2d_7">
     <path d="M 15.3 39.100469 
L 29.3 39.100469 
" style="fill:none;stroke:#000000;stroke-linecap:square;stroke-width:1.5;"/>
    </g>
    <g id="line2d_8"/>
    <g id="text_1">
     <!-- 2.0-3.7 ft -->
     <g transform="translate(34.9 41.550469)scale(0.07 -0.07)">
      <defs>
       <path d="M 50.34375 8.453125 
L 50.34375 0 
L 3.03125 0 
Q 2.9375 3.171875 4.046875 6.109375 
Q 5.859375 10.9375 9.828125 15.625 
Q 13.8125 20.3125 21.34375 26.46875 
Q 33.015625 36.03125 37.109375 41.625 
Q 41.21875 47.21875 41.21875 52.203125 
Q 41.21875 57.421875 37.46875 61 
Q 33.734375 64.59375 27.734375 64.59375 
Q 21.390625 64.59375 17.578125 60.78125 
Q 13.765625 56.984375 13.71875 50.25 
L 4.6875 51.171875 
Q 5.609375 61.28125 11.65625 66.578125 
Q 17.71875 71.875 27.9375 71.875 
Q 38.234375 71.875 44.234375 66.15625 
Q 50.25 60.453125 50.25 52 
Q 50.25 47.703125 48.484375 43.546875 
Q 46.734375 39.40625 42.65625 34.8125 
Q 38.578125 30.21875 29.109375 22.21875 
Q 21.1875 15.578125 18.9375 13.203125 
Q 16.703125 10.84375 15.234375 8.453125 
z
" id="ArialMT-50"/>
       <path d="M 9.078125 0 
L 9.078125 10.015625 
L 19.09375 10.015625 
L 19.09375 0 
z
" id="ArialMT-46"/>
       <path d="M 4.15625 35.296875 
Q 4.15625 48 6.765625 55.734375 
Q 9.375 63.484375 14.515625 67.671875 
Q 19.671875 71.875 27.484375 71.875 
Q 33.25 71.875 37.59375 69.546875 
Q 41.9375 67.234375 44.765625 62.859375 
Q 47.609375 58.5 49.21875 52.21875 
Q 50.828125 45.953125 50.828125 35.296875 
Q 50.828125 22.703125 48.234375 14.96875 
Q 45.65625 7.234375 40.5 3 
Q 35.359375 -1.21875 27.484375 -1.21875 
Q 17.140625 -1.21875 11.234375 6.203125 
Q 4.15625 15.140625 4.15625 35.296875 
z
M 13.1875 35.296875 
Q 13.1875 17.671875 17.3125 11.828125 
Q 21.4375 6 27.484375 6 
Q 33.546875 6 37.671875 11.859375 
Q 41.796875 17.71875 41.796875 35.296875 
Q 41.796875 52.984375 37.671875 58.78125 
Q 33.546875 64.59375 27.390625 64.59375 
Q 21.34375 64.59375 17.71875 59.46875 
Q 13.1875 52.9375 13.1875 35.296875 
z
" id="ArialMT-48"/>
       <path d="M 3.171875 21.484375 
L 3.171875 30.328125 
L 30.171875 30.328125 
L 30.171875 21.484375 
z
" id="ArialMT-45"/>
       <path d="M 4.203125 18.890625 
L 12.984375 20.0625 
Q 14.5 12.59375 18.140625 9.296875 
Q 21.78125 6 27 6 
Q 33.203125 6 37.46875 10.296875 
Q 41.75 14.59375 41.75 20.953125 
Q 41.75 27 37.796875 30.921875 
Q 33.84375 34.859375 27.734375 34.859375 
Q 25.25 34.859375 21.53125 33.890625 
L 22.515625 41.609375 
Q 23.390625 41.5 23.921875 41.5 
Q 29.546875 41.5 34.03125 44.421875 
Q 38.53125 47.359375 38.53125 53.46875 
Q 38.53125 58.296875 35.25 61.46875 
Q 31.984375 64.65625 26.8125 64.65625 
Q 21.6875 64.65625 18.265625 61.421875 
Q 14.84375 58.203125 13.875 51.765625 
L 5.078125 53.328125 
Q 6.6875 62.15625 12.390625 67.015625 
Q 18.109375 71.875 26.609375 71.875 
Q 32.46875 71.875 37.390625 69.359375 
Q 42.328125 66.84375 44.9375 62.5 
Q 47.5625 58.15625 47.5625 53.265625 
Q 47.5625 48.640625 45.0625 44.828125 
Q 42.578125 41.015625 37.703125 38.765625 
Q 44.046875 37.3125 47.5625 32.6875 
Q 51.078125 28.078125 51.078125 21.140625 
Q 51.078125 11.765625 44.234375 5.25 
Q 37.40625 -1.265625 26.953125 -1.265625 
Q 17.53125 -1.265625 11.296875 4.34375 
Q 5.078125 9.96875 4.203125 18.890625 
z
" id="ArialMT-51"/>
       <path d="M 4.734375 62.203125 
L 4.734375 70.65625 
L 51.078125 70.65625 
L 51.078125 63.8125 
Q 44.234375 56.546875 37.515625 44.484375 
Q 30.8125 32.421875 27.15625 19.671875 
Q 24.515625 10.6875 23.78125 0 
L 14.75 0 
Q 14.890625 8.453125 18.0625 20.40625 
Q 21.234375 32.375 27.171875 43.484375 
Q 33.109375 54.59375 39.796875 62.203125 
z
" id="ArialMT-55"/>
       <path id="ArialMT-32"/>
       <path d="M 8.6875 0 
L 8.6875 45.015625 
L 0.921875 45.015625 
L 0.921875 51.859375 
L 8.6875 51.859375 
L 8.6875 57.375 
Q 8.6875 62.59375 9.625 65.140625 
Q 10.890625 68.5625 14.078125 70.671875 
Q 17.28125 72.796875 23.046875 72.796875 
Q 26.765625 72.796875 31.25 71.921875 
L 29.9375 64.265625 
Q 27.203125 64.75 24.75 64.75 
Q 20.75 64.75 19.09375 63.03125 
Q 17.4375 61.328125 17.4375 56.640625 
L 17.4375 51.859375 
L 27.546875 51.859375 
L 27.546875 45.015625 
L 17.4375 45.015625 
L 17.4375 0 
z
" id="ArialMT-102"/>
       <path d="M 25.78125 7.859375 
L 27.046875 0.09375 
Q 23.34375 -0.6875 20.40625 -0.6875 
Q 15.625 -0.6875 12.984375 0.828125 
Q 10.359375 2.34375 9.28125 4.8125 
Q 8.203125 7.28125 8.203125 15.1875 
L 8.203125 45.015625 
L 1.765625 45.015625 
L 1.765625 51.859375 
L 8.203125 51.859375 
L 8.203125 64.703125 
L 16.9375 69.96875 
L 16.9375 51.859375 
L 25.78125 51.859375 
L 25.78125 45.015625 
L 16.9375 45.015625 
L 16.9375 14.703125 
Q 16.9375 10.9375 17.40625 9.859375 
Q 17.875 8.796875 18.921875 8.15625 
Q 19.96875 7.515625 21.921875 7.515625 
Q 23.390625 7.515625 25.78125 7.859375 
z
" id="ArialMT-116"/>
      </defs>
      <use xlink:href="#ArialMT-50"/>
      <use x="55.615234" xlink:href="#ArialMT-46"/>
      <use x="83.398438" xlink:href="#ArialMT-48"/>
      <use x="139.013672" xlink:href="#ArialMT-45"/>
      <use x="172.314453" xlink:href="#ArialMT-51"/>
      <use x="227.929688" xlink:href="#ArialMT-46"/>
      <use x="255.712891" xlink:href="#ArialMT-55"/>
      <use x="311.328125" xlink:href="#ArialMT-32"/>
      <use x="339.111328" xlink:href="#ArialMT-102"/>
      <use x="366.894531" xlink:href="#ArialMT-116"/>
     </g>
    </g>
    <g id="line2d_9">
     <path d="M 15.3 49.002187 
L 29.3 49.002187 
" style="fill:none;stroke:#808080;stroke-dasharray:5.55,2.4;stroke-dashoffset:0;stroke-width:1.5;"/>
    </g>
    <g id="line2d_10"/>
    <g id="text_2">
     <!-- 3.7-4.1 ft -->
     <g transform="translate(34.9 51.452187)scale(0.07 -0.07)">
      <defs>
       <path d="M 32.328125 0 
L 32.328125 17.140625 
L 1.265625 17.140625 
L 1.265625 25.203125 
L 33.9375 71.578125 
L 41.109375 71.578125 
L 41.109375 25.203125 
L 50.78125 25.203125 
L 50.78125 17.140625 
L 41.109375 17.140625 
L 41.109375 0 
z
M 32.328125 25.203125 
L 32.328125 57.46875 
L 9.90625 25.203125 
z
" id="ArialMT-52"/>
       <path d="M 37.25 0 
L 28.46875 0 
L 28.46875 56 
Q 25.296875 52.984375 20.140625 49.953125 
Q 14.984375 46.921875 10.890625 45.40625 
L 10.890625 53.90625 
Q 18.265625 57.375 23.78125 62.296875 
Q 29.296875 67.234375 31.59375 71.875 
L 37.25 71.875 
z
" id="ArialMT-49"/>
      </defs>
      <use xlink:href="#ArialMT-51"/>
      <use x="55.615234" xlink:href="#ArialMT-46"/>
      <use x="83.398438" xlink:href="#ArialMT-55"/>
      <use x="139.013672" xlink:href="#ArialMT-45"/>
      <use x="172.314453" xlink:href="#ArialMT-52"/>
      <use x="227.929688" xlink:href="#ArialMT-46"/>
      <use x="255.712891" xlink:href="#ArialMT-49"/>
      <use x="311.328125" xlink:href="#ArialMT-32"/>
      <use x="339.111328" xlink:href="#ArialMT-102"/>
      <use x="366.894531" xlink:href="#ArialMT-116"/>
     </g>
    </g>
    <g id="line2d_11">
     <path d="M 15.3 58.903906 
L 29.3 58.903906 
" style="fill:none;stroke:#d3d3d3;stroke-dasharray:1.5,2.475;stroke-dashoffset:0;stroke-width:1.5;"/>
    </g>
    <g id="line2d_12"/>
    <g id="text_3">
     <!-- 4.1-4.6 ft -->
     <g transform="translate(34.9 61.353906)scale(0.07 -0.07)">
      <defs>
       <path d="M 49.75 54.046875 
L 41.015625 53.375 
Q 39.84375 58.546875 37.703125 60.890625 
Q 34.125 64.65625 28.90625 64.65625 
Q 24.703125 64.65625 21.53125 62.3125 
Q 17.390625 59.28125 14.984375 53.46875 
Q 12.59375 47.65625 12.5 36.921875 
Q 15.671875 41.75 20.265625 44.09375 
Q 24.859375 46.4375 29.890625 46.4375 
Q 38.671875 46.4375 44.84375 39.96875 
Q 51.03125 33.5 51.03125 23.25 
Q 51.03125 16.5 48.125 10.71875 
Q 45.21875 4.9375 40.140625 1.859375 
Q 35.0625 -1.21875 28.609375 -1.21875 
Q 17.625 -1.21875 10.6875 6.859375 
Q 3.765625 14.9375 3.765625 33.5 
Q 3.765625 54.25 11.421875 63.671875 
Q 18.109375 71.875 29.4375 71.875 
Q 37.890625 71.875 43.28125 67.140625 
Q 48.6875 62.40625 49.75 54.046875 
z
M 13.875 23.1875 
Q 13.875 18.65625 15.796875 14.5 
Q 17.71875 10.359375 21.1875 8.171875 
Q 24.65625 6 28.46875 6 
Q 34.03125 6 38.03125 10.484375 
Q 42.046875 14.984375 42.046875 22.703125 
Q 42.046875 30.125 38.078125 34.390625 
Q 34.125 38.671875 28.125 38.671875 
Q 22.171875 38.671875 18.015625 34.390625 
Q 13.875 30.125 13.875 23.1875 
z
" id="ArialMT-54"/>
      </defs>
      <use xlink:href="#ArialMT-52"/>
      <use x="55.615234" xlink:href="#ArialMT-46"/>
      <use x="83.398438" xlink:href="#ArialMT-49"/>
      <use x="139.013672" xlink:href="#ArialMT-45"/>
      <use x="172.314453" xlink:href="#ArialMT-52"/>
      <use x="227.929688" xlink:href="#ArialMT-46"/>
      <use x="255.712891" xlink:href="#ArialMT-54"/>
      <use x="311.328125" xlink:href="#ArialMT-32"/>
      <use x="339.111328" xlink:href="#ArialMT-102"/>
      <use x="366.894531" xlink:href="#ArialMT-116"/>
     </g>
    </g>
    <g id="line2d_13">
     <path d="M 15.3 68.805625 
L 29.3 68.805625 
" style="fill:none;stroke:#a9a9a9;stroke-dasharray:9.6,2.4,1.5,2.4;stroke-dashoffset:0;stroke-width:1.5;"/>
    </g>
    <g id="line2d_14"/>
    <g id="text_4">
     <!-- 4.6-6.3 ft -->
     <g transform="translate(34.9 71.255625)scale(0.07 -0.07)">
      <use xlink:href="#ArialMT-52"/>
      <use x="55.615234" xlink:href="#ArialMT-46"/>
      <use x="83.398438" xlink:href="#ArialMT-54"/>
      <use x="139.013672" xlink:href="#ArialMT-45"/>
      <use x="172.314453" xlink:href="#ArialMT-54"/>
      <use x="227.929688" xlink:href="#ArialMT-46"/>
      <use x="255.712891" xlink:href="#ArialMT-51"/>
      <use x="311.328125" xlink:href="#ArialMT-32"/>
      <use x="339.111328" xlink:href="#ArialMT-102"/>
      <use x="366.894531" xlink:href="#ArialMT-116"/>
     </g>
    </g>
   </g>
  </g>
 </g>
 <defs>
  <clipPath id="pf93d845ba5">
   <rect height="190.26" width="55.8" x="9" y="30.24"/>
  </clipPath>
 </defs>
</svg>
