<?xml version="1.0" encoding="utf-8" standalone="no"?>
<!DOCTYPE svg PUBLIC "-//W3C//DTD SVG 1.1//EN"
  "http://www.w3.org/Graphics/SVG/1.1/DTD/svg11.dtd">
<!-- Created with matplotlib (https://matplotlib.org/) -->
<svg height="252pt" version="1.1" viewBox="0 0 72 252" width="72pt" xmlns="http://www.w3.org/2000/svg" xmlns:xlink="http://www.w3.org/1999/xlink">
 <metadata>
  <rdf:RDF xmlns:cc="http://creativecommons.org/ns#" xmlns:dc="http://purl.org/dc/elements/1.1/" xmlns:rdf="http://www.w3.org/1999/02/22-rdf-syntax-ns#">
   <cc:Work>
    <dc:type rdf:resource="http://purl.org/dc/dcmitype/StillImage"/>
    <dc:date>2022-05-19T09:15:29.672867</dc:date>
    <dc:format>image/svg+xml</dc:format>
    <dc:creator>
     <cc:Agent>
      <dc:title>Matplotlib v3.3.4, https://matplotlib.org/</dc:title>
     </cc:Agent>
    </dc:creator>
   </cc:Work>
  </rdf:RDF>
 </metadata>
 <defs>
  <style type="text/css">*{stroke-linecap:butt;stroke-linejoin:round;}</style>
 </defs>
 <g id="figure_1">
  <g id="patch_1">
   <path d="M 0 252 
L 72 252 
L 72 0 
L 0 0 
z
" style="fill:none;"/>
  </g>
  <g id="axes_1">
   <g id="patch_2">
    <path d="M 9 220.5 
L 64.8 220.5 
L 64.8 30.24 
L 9 30.24 
z
" style="fill:#ffffff;"/>
   </g>
   <g id="matplotlib.axis_1">
    <g id="ytick_1">
     <g id="line2d_1">
      <defs>
       <path d="M 0 0 
L -3.5 0 
" id="m76f609a289" style="stroke:#000000;stroke-width:0.8;"/>
      </defs>
      <g>
       <use style="stroke:#000000;stroke-width:0.8;" x="9" xlink:href="#m76f609a289" y="172.935"/>
      </g>
     </g>
    </g>
    <g id="ytick_2">
     <g id="line2d_2">
      <g>
       <use style="stroke:#000000;stroke-width:0.8;" x="9" xlink:href="#m76f609a289" y="77.805"/>
      </g>
     </g>
    </g>
   </g>
   <g id="line2d_3">
    <path clip-path="url(#pb549fe6f04)" d="M 14.185151 220.5 
L 14.642533 218.578182 
L 15.162511 216.656364 
L 15.750555 214.734545 
L 16.412059 212.812727 
L 17.152226 210.890909 
L 17.975939 208.969091 
L 18.887618 207.047273 
L 19.891073 205.125455 
L 20.989341 203.203636 
L 22.184529 201.281818 
L 23.477646 199.36 
L 24.868452 197.438182 
L 26.355306 195.516364 
L 27.935037 193.594545 
L 29.602832 191.672727 
L 31.352151 189.750909 
L 33.174672 187.829091 
L 35.060272 185.907273 
L 36.997053 183.985455 
L 38.971401 182.063636 
L 40.968099 180.141818 
L 42.97048 178.22 
L 44.960629 176.298182 
L 46.919622 174.376364 
L 48.827808 172.454545 
L 50.665125 170.532727 
L 52.411442 168.610909 
L 54.046915 166.689091 
L 55.552364 164.767273 
L 56.909643 162.845455 
L 58.101999 160.923636 
L 59.114421 159.001818 
L 59.93395 157.08 
L 60.549958 155.158182 
L 60.954375 153.236364 
L 61.141865 151.314545 
L 61.109945 149.392727 
L 60.859038 147.470909 
L 60.392464 145.549091 
L 59.716369 143.627273 
L 58.839587 141.705455 
L 57.773448 139.783636 
L 56.53154 137.861818 
L 55.129412 135.94 
L 53.584257 134.018182 
L 51.914563 132.096364 
L 50.139739 130.174545 
L 48.27975 128.252727 
L 46.354745 126.330909 
L 44.384701 124.409091 
L 42.389087 122.487273 
L 40.386561 120.565455 
L 38.394701 118.643636 
L 36.429769 116.721818 
L 34.506531 114.8 
L 32.638111 112.878182 
L 30.835898 110.956364 
L 29.109489 109.034545 
L 27.466687 107.112727 
L 25.913522 105.190909 
L 24.454321 103.269091 
L 23.091796 101.347273 
L 21.827168 99.425455 
L 20.660298 97.503636 
L 19.589842 95.581818 
L 18.613405 93.66 
L 17.727709 91.738182 
L 16.928751 89.816364 
L 16.211961 87.894545 
L 15.57235 85.972727 
L 15.004645 84.050909 
L 14.503421 82.129091 
L 14.063203 80.207273 
L 13.678569 78.285455 
L 13.344228 76.363636 
L 13.055088 74.441818 
L 12.806303 72.52 
L 12.593321 70.598182 
L 12.411901 68.676364 
L 12.258136 66.754545 
L 12.128456 64.832727 
L 12.019626 62.910909 
L 11.928744 60.989091 
L 11.853219 59.067273 
L 11.790763 57.145455 
L 11.739364 55.223636 
L 11.697268 53.301818 
L 11.662959 51.38 
L 11.63513 49.458182 
L 11.612665 47.536364 
L 11.594616 45.614545 
L 11.580185 43.692727 
L 11.568701 41.770909 
L 11.559606 39.849091 
L 11.552436 37.927273 
L 11.546811 36.005455 
L 11.542418 34.083636 
L 11.539004 32.161818 
L 11.536364 30.24 
" style="fill:none;stroke:#000000;stroke-linecap:square;stroke-width:1.5;"/>
   </g>
   <g id="line2d_4">
    <path clip-path="url(#pb549fe6f04)" d="M 11.675221 220.5 
L 11.71232 218.578182 
L 11.757752 216.656364 
L 11.813118 214.734545 
L 11.880266 212.812727 
L 11.961307 210.890909 
L 12.05864 208.969091 
L 12.174968 207.047273 
L 12.313315 205.125455 
L 12.477038 203.203636 
L 12.669829 201.281818 
L 12.895719 199.36 
L 13.159062 197.438182 
L 13.464519 195.516364 
L 13.817028 193.594545 
L 14.221755 191.672727 
L 14.684043 189.750909 
L 15.209334 187.829091 
L 15.803091 185.907273 
L 16.470686 183.985455 
L 17.217294 182.063636 
L 18.047756 180.141818 
L 18.966441 178.22 
L 19.977093 176.298182 
L 21.082674 174.376364 
L 22.285199 172.454545 
L 23.58558 170.532727 
L 24.983464 168.610909 
L 26.477091 166.689091 
L 28.063162 164.767273 
L 29.736732 162.845455 
L 31.491125 160.923636 
L 33.317884 159.001818 
L 35.206756 157.08 
L 37.145717 155.158182 
L 39.121038 153.236364 
L 41.117403 151.314545 
L 43.118059 149.392727 
L 45.105027 147.470909 
L 47.059342 145.549091 
L 48.961337 143.627273 
L 50.790961 141.705455 
L 52.528119 139.783636 
L 54.153035 137.861818 
L 55.646623 135.94 
L 56.990856 134.018182 
L 58.169127 132.096364 
L 59.166594 130.174545 
L 59.970482 128.252727 
L 60.570365 126.330909 
L 60.958385 124.409091 
L 61.129424 122.487273 
L 61.081217 120.565455 
L 60.814404 118.643636 
L 60.332512 116.721818 
L 59.64188 114.8 
L 58.751519 112.878182 
L 57.672919 110.956364 
L 56.419796 109.034545 
L 55.007811 107.112727 
L 53.454236 105.190909 
L 51.777609 103.269091 
L 49.997366 101.347273 
L 48.133467 99.425455 
L 46.206032 97.503636 
L 44.234984 95.581818 
L 42.239719 93.66 
L 40.238801 91.738182 
L 38.249699 89.816364 
L 36.288556 87.894545 
L 34.370008 85.972727 
L 32.507047 84.050909 
L 30.710923 82.129091 
L 28.991102 80.207273 
L 27.355254 78.285455 
L 25.809286 76.363636 
L 24.357409 74.441818 
L 23.00223 72.52 
L 21.744874 70.598182 
L 20.58512 68.676364 
L 19.521552 66.754545 
L 18.551718 64.832727 
L 17.672294 62.910909 
L 16.87924 60.989091 
L 16.167963 59.067273 
L 15.533459 57.145455 
L 14.970451 55.223636 
L 14.473512 53.301818 
L 14.037178 51.38 
L 13.656041 49.458182 
L 13.324827 47.536364 
L 13.038464 45.614545 
L 12.792132 43.692727 
L 12.5813 41.770909 
L 12.401756 39.849091 
L 12.249616 37.927273 
L 12.121336 36.005455 
L 12.013706 34.083636 
L 11.923845 32.161818 
L 11.849186 30.24 
" style="fill:none;stroke:#808080;stroke-dasharray:5.55,2.4;stroke-dashoffset:0;stroke-width:1.5;"/>
   </g>
   <g id="line2d_5">
    <path clip-path="url(#pb549fe6f04)" d="M 13.332057 220.5 
L 13.673754 218.578182 
L 14.068383 216.656364 
L 14.521698 214.734545 
L 15.039609 212.812727 
L 15.628093 210.890909 
L 16.293087 208.969091 
L 17.040356 207.047273 
L 17.875359 205.125455 
L 18.803089 203.203636 
L 19.8279 201.281818 
L 20.953336 199.36 
L 22.181937 197.438182 
L 23.515063 195.516364 
L 24.952706 193.594545 
L 26.493324 191.672727 
L 28.133686 189.750909 
L 29.868739 187.829091 
L 31.691513 185.907273 
L 33.593049 183.985455 
L 35.56238 182.063636 
L 37.586553 180.141818 
L 39.650699 178.22 
L 41.73816 176.298182 
L 43.830668 174.376364 
L 45.908571 172.454545 
L 47.951117 170.532727 
L 49.936776 168.610909 
L 51.843603 166.689091 
L 53.64963 164.767273 
L 55.333285 162.845455 
L 56.873813 160.923636 
L 58.251696 159.001818 
L 59.449072 157.08 
L 60.45011 155.158182 
L 61.241366 153.236364 
L 61.812078 151.314545 
L 62.154411 149.392727 
L 62.263636 147.470909 
L 62.138242 145.549091 
L 61.779965 143.627273 
L 61.193751 141.705455 
L 60.387644 139.783636 
L 59.372599 137.861818 
L 58.162236 135.94 
L 56.772536 134.018182 
L 55.221491 132.096364 
L 53.528714 130.174545 
L 51.715033 128.252727 
L 49.80206 126.330909 
L 47.811774 124.409091 
L 45.766104 122.487273 
L 43.686538 120.565455 
L 41.593762 118.643636 
L 39.507339 116.721818 
L 37.445436 114.8 
L 35.424591 112.878182 
L 33.459543 110.956364 
L 31.563112 109.034545 
L 29.746125 107.112727 
L 28.017403 105.190909 
L 26.383783 103.269091 
L 24.850185 101.347273 
L 23.419722 99.425455 
L 22.093824 97.503636 
L 20.872399 95.581818 
L 19.754 93.66 
L 18.73601 91.738182 
L 17.814826 89.816364 
L 16.986042 87.894545 
L 16.244629 85.972727 
L 15.585102 84.050909 
L 15.001679 82.129091 
L 14.488416 80.207273 
L 14.039339 78.285455 
L 13.648544 76.363636 
L 13.310292 74.441818 
L 13.019077 72.52 
L 12.769684 70.598182 
L 12.557228 68.676364 
L 12.377185 66.754545 
L 12.225401 64.832727 
L 12.098103 62.910909 
L 11.991889 60.989091 
L 11.903721 59.067273 
L 11.830907 57.145455 
L 11.771077 55.223636 
L 11.722165 53.301818 
L 11.68238 51.38 
L 11.650181 49.458182 
L 11.624253 47.536364 
L 11.603478 45.614545 
L 11.586916 43.692727 
L 11.573777 41.770909 
L 11.563405 39.849091 
L 11.555259 37.927273 
L 11.548892 36.005455 
L 11.54394 34.083636 
L 11.540107 32.161818 
L 11.537155 30.24 
" style="fill:none;stroke:#d3d3d3;stroke-dasharray:1.5,2.475;stroke-dashoffset:0;stroke-width:1.5;"/>
   </g>
   <g id="patch_3">
    <path d="M 9 220.5 
L 9 30.24 
" style="fill:none;stroke:#000000;stroke-linecap:square;stroke-linejoin:miter;stroke-width:0.8;"/>
   </g>
   <g id="legend_1">
    <g id="patch_4">
     <path d="M 16 82.274375 
L 108.864063 82.274375 
Q 110.864063 82.274375 110.864063 80.274375 
L 110.864063 37.24 
Q 110.864063 35.24 108.864063 35.24 
L 16 35.24 
Q 14 35.24 14 37.24 
L 14 80.274375 
Q 14 82.274375 16 82.274375 
z
" style="fill:#ffffff;opacity:0.8;stroke:#cccccc;stroke-linejoin:miter;"/>
    </g>
    <g id="line2d_6">
     <path d="M 18 43.338438 
L 38 43.338438 
" style="fill:none;stroke:#000000;stroke-linecap:square;stroke-width:1.5;"/>
    </g>
    <g id="line2d_7"/>
    <g id="text_1">
     <!-- 5.0-170.0 -->
     <g transform="translate(46 46.838438)scale(0.1 -0.1)">
      <defs>
       <path d="M 10.796875 72.90625 
L 49.515625 72.90625 
L 49.515625 64.59375 
L 19.828125 64.59375 
L 19.828125 46.734375 
Q 21.96875 47.46875 24.109375 47.828125 
Q 26.265625 48.1875 28.421875 48.1875 
Q 40.625 48.1875 47.75 41.5 
Q 54.890625 34.8125 54.890625 23.390625 
Q 54.890625 11.625 47.5625 5.09375 
Q 40.234375 -1.421875 26.90625 -1.421875 
Q 22.3125 -1.421875 17.546875 -0.640625 
Q 12.796875 0.140625 7.71875 1.703125 
L 7.71875 11.625 
Q 12.109375 9.234375 16.796875 8.0625 
Q 21.484375 6.890625 26.703125 6.890625 
Q 35.15625 6.890625 40.078125 11.328125 
Q 45.015625 15.765625 45.015625 23.390625 
Q 45.015625 31 40.078125 35.4375 
Q 35.15625 39.890625 26.703125 39.890625 
Q 22.75 39.890625 18.8125 39.015625 
Q 14.890625 38.140625 10.796875 36.28125 
z
" id="DejaVuSans-53"/>
       <path d="M 10.6875 12.40625 
L 21 12.40625 
L 21 0 
L 10.6875 0 
z
" id="DejaVuSans-46"/>
       <path d="M 31.78125 66.40625 
Q 24.171875 66.40625 20.328125 58.90625 
Q 16.5 51.421875 16.5 36.375 
Q 16.5 21.390625 20.328125 13.890625 
Q 24.171875 6.390625 31.78125 6.390625 
Q 39.453125 6.390625 43.28125 13.890625 
Q 47.125 21.390625 47.125 36.375 
Q 47.125 51.421875 43.28125 58.90625 
Q 39.453125 66.40625 31.78125 66.40625 
z
M 31.78125 74.21875 
Q 44.046875 74.21875 50.515625 64.515625 
Q 56.984375 54.828125 56.984375 36.375 
Q 56.984375 17.96875 50.515625 8.265625 
Q 44.046875 -1.421875 31.78125 -1.421875 
Q 19.53125 -1.421875 13.0625 8.265625 
Q 6.59375 17.96875 6.59375 36.375 
Q 6.59375 54.828125 13.0625 64.515625 
Q 19.53125 74.21875 31.78125 74.21875 
z
" id="DejaVuSans-48"/>
       <path d="M 4.890625 31.390625 
L 31.203125 31.390625 
L 31.203125 23.390625 
L 4.890625 23.390625 
z
" id="DejaVuSans-45"/>
       <path d="M 12.40625 8.296875 
L 28.515625 8.296875 
L 28.515625 63.921875 
L 10.984375 60.40625 
L 10.984375 69.390625 
L 28.421875 72.90625 
L 38.28125 72.90625 
L 38.28125 8.296875 
L 54.390625 8.296875 
L 54.390625 0 
L 12.40625 0 
z
" id="DejaVuSans-49"/>
       <path d="M 8.203125 72.90625 
L 55.078125 72.90625 
L 55.078125 68.703125 
L 28.609375 0 
L 18.3125 0 
L 43.21875 64.59375 
L 8.203125 64.59375 
z
" id="DejaVuSans-55"/>
      </defs>
      <use xlink:href="#DejaVuSans-53"/>
      <use x="63.623047" xlink:href="#DejaVuSans-46"/>
      <use x="95.410156" xlink:href="#DejaVuSans-48"/>
      <use x="159.033203" xlink:href="#DejaVuSans-45"/>
      <use x="195.117188" xlink:href="#DejaVuSans-49"/>
      <use x="258.740234" xlink:href="#DejaVuSans-55"/>
      <use x="322.363281" xlink:href="#DejaVuSans-48"/>
      <use x="385.986328" xlink:href="#DejaVuSans-46"/>
      <use x="417.773438" xlink:href="#DejaVuSans-48"/>
     </g>
    </g>
    <g id="line2d_8">
     <path d="M 18 58.016563 
L 38 58.016563 
" style="fill:none;stroke:#808080;stroke-dasharray:5.55,2.4;stroke-dashoffset:0;stroke-width:1.5;"/>
    </g>
    <g id="line2d_9"/>
    <g id="text_2">
     <!-- 170.0-199.0 -->
     <g transform="translate(46 61.516563)scale(0.1 -0.1)">
      <defs>
       <path d="M 10.984375 1.515625 
L 10.984375 10.5 
Q 14.703125 8.734375 18.5 7.8125 
Q 22.3125 6.890625 25.984375 6.890625 
Q 35.75 6.890625 40.890625 13.453125 
Q 46.046875 20.015625 46.78125 33.40625 
Q 43.953125 29.203125 39.59375 26.953125 
Q 35.25 24.703125 29.984375 24.703125 
Q 19.046875 24.703125 12.671875 31.3125 
Q 6.296875 37.9375 6.296875 49.421875 
Q 6.296875 60.640625 12.9375 67.421875 
Q 19.578125 74.21875 30.609375 74.21875 
Q 43.265625 74.21875 49.921875 64.515625 
Q 56.59375 54.828125 56.59375 36.375 
Q 56.59375 19.140625 48.40625 8.859375 
Q 40.234375 -1.421875 26.421875 -1.421875 
Q 22.703125 -1.421875 18.890625 -0.6875 
Q 15.09375 0.046875 10.984375 1.515625 
z
M 30.609375 32.421875 
Q 37.25 32.421875 41.125 36.953125 
Q 45.015625 41.5 45.015625 49.421875 
Q 45.015625 57.28125 41.125 61.84375 
Q 37.25 66.40625 30.609375 66.40625 
Q 23.96875 66.40625 20.09375 61.84375 
Q 16.21875 57.28125 16.21875 49.421875 
Q 16.21875 41.5 20.09375 36.953125 
Q 23.96875 32.421875 30.609375 32.421875 
z
" id="DejaVuSans-57"/>
      </defs>
      <use xlink:href="#DejaVuSans-49"/>
      <use x="63.623047" xlink:href="#DejaVuSans-55"/>
      <use x="127.246094" xlink:href="#DejaVuSans-48"/>
      <use x="190.869141" xlink:href="#DejaVuSans-46"/>
      <use x="222.65625" xlink:href="#DejaVuSans-48"/>
      <use x="286.279297" xlink:href="#DejaVuSans-45"/>
      <use x="322.363281" xlink:href="#DejaVuSans-49"/>
      <use x="385.986328" xlink:href="#DejaVuSans-57"/>
      <use x="449.609375" xlink:href="#DejaVuSans-57"/>
      <use x="513.232422" xlink:href="#DejaVuSans-46"/>
      <use x="545.019531" xlink:href="#DejaVuSans-48"/>
     </g>
    </g>
    <g id="line2d_10">
     <path d="M 18 72.694688 
L 38 72.694688 
" style="fill:none;stroke:#d3d3d3;stroke-dasharray:1.5,2.475;stroke-dashoffset:0;stroke-width:1.5;"/>
    </g>
    <g id="line2d_11"/>
    <g id="text_3">
     <!-- 199.0-336.0 -->
     <g transform="translate(46 76.194688)scale(0.1 -0.1)">
      <defs>
       <path d="M 40.578125 39.3125 
Q 47.65625 37.796875 51.625 33 
Q 55.609375 28.21875 55.609375 21.1875 
Q 55.609375 10.40625 48.1875 4.484375 
Q 40.765625 -1.421875 27.09375 -1.421875 
Q 22.515625 -1.421875 17.65625 -0.515625 
Q 12.796875 0.390625 7.625 2.203125 
L 7.625 11.71875 
Q 11.71875 9.328125 16.59375 8.109375 
Q 21.484375 6.890625 26.8125 6.890625 
Q 36.078125 6.890625 40.9375 10.546875 
Q 45.796875 14.203125 45.796875 21.1875 
Q 45.796875 27.640625 41.28125 31.265625 
Q 36.765625 34.90625 28.71875 34.90625 
L 20.21875 34.90625 
L 20.21875 43.015625 
L 29.109375 43.015625 
Q 36.375 43.015625 40.234375 45.921875 
Q 44.09375 48.828125 44.09375 54.296875 
Q 44.09375 59.90625 40.109375 62.90625 
Q 36.140625 65.921875 28.71875 65.921875 
Q 24.65625 65.921875 20.015625 65.03125 
Q 15.375 64.15625 9.8125 62.3125 
L 9.8125 71.09375 
Q 15.4375 72.65625 20.34375 73.4375 
Q 25.25 74.21875 29.59375 74.21875 
Q 40.828125 74.21875 47.359375 69.109375 
Q 53.90625 64.015625 53.90625 55.328125 
Q 53.90625 49.265625 50.4375 45.09375 
Q 46.96875 40.921875 40.578125 39.3125 
z
" id="DejaVuSans-51"/>
       <path d="M 33.015625 40.375 
Q 26.375 40.375 22.484375 35.828125 
Q 18.609375 31.296875 18.609375 23.390625 
Q 18.609375 15.53125 22.484375 10.953125 
Q 26.375 6.390625 33.015625 6.390625 
Q 39.65625 6.390625 43.53125 10.953125 
Q 47.40625 15.53125 47.40625 23.390625 
Q 47.40625 31.296875 43.53125 35.828125 
Q 39.65625 40.375 33.015625 40.375 
z
M 52.59375 71.296875 
L 52.59375 62.3125 
Q 48.875 64.0625 45.09375 64.984375 
Q 41.3125 65.921875 37.59375 65.921875 
Q 27.828125 65.921875 22.671875 59.328125 
Q 17.53125 52.734375 16.796875 39.40625 
Q 19.671875 43.65625 24.015625 45.921875 
Q 28.375 48.1875 33.59375 48.1875 
Q 44.578125 48.1875 50.953125 41.515625 
Q 57.328125 34.859375 57.328125 23.390625 
Q 57.328125 12.15625 50.6875 5.359375 
Q 44.046875 -1.421875 33.015625 -1.421875 
Q 20.359375 -1.421875 13.671875 8.265625 
Q 6.984375 17.96875 6.984375 36.375 
Q 6.984375 53.65625 15.1875 63.9375 
Q 23.390625 74.21875 37.203125 74.21875 
Q 40.921875 74.21875 44.703125 73.484375 
Q 48.484375 72.75 52.59375 71.296875 
z
" id="DejaVuSans-54"/>
      </defs>
      <use xlink:href="#DejaVuSans-49"/>
      <use x="63.623047" xlink:href="#DejaVuSans-57"/>
      <use x="127.246094" xlink:href="#DejaVuSans-57"/>
      <use x="190.869141" xlink:href="#DejaVuSans-46"/>
      <use x="222.65625" xlink:href="#DejaVuSans-48"/>
      <use x="286.279297" xlink:href="#DejaVuSans-45"/>
      <use x="322.363281" xlink:href="#DejaVuSans-51"/>
      <use x="385.986328" xlink:href="#DejaVuSans-51"/>
      <use x="449.609375" xlink:href="#DejaVuSans-54"/>
      <use x="513.232422" xlink:href="#DejaVuSans-46"/>
      <use x="545.019531" xlink:href="#DejaVuSans-48"/>
     </g>
    </g>
   </g>
  </g>
 </g>
 <defs>
  <clipPath id="pb549fe6f04">
   <rect height="190.26" width="55.8" x="9" y="30.24"/>
  </clipPath>
 </defs>
</svg>
