<?xml version="1.0" encoding="utf-8" standalone="no"?>
<!DOCTYPE svg PUBLIC "-//W3C//DTD SVG 1.1//EN"
  "http://www.w3.org/Graphics/SVG/1.1/DTD/svg11.dtd">
<!-- Created with matplotlib (https://matplotlib.org/) -->
<svg height="252pt" version="1.1" viewBox="0 0 72 252" width="72pt" xmlns="http://www.w3.org/2000/svg" xmlns:xlink="http://www.w3.org/1999/xlink">
 <metadata>
  <rdf:RDF xmlns:cc="http://creativecommons.org/ns#" xmlns:dc="http://purl.org/dc/elements/1.1/" xmlns:rdf="http://www.w3.org/1999/02/22-rdf-syntax-ns#">
   <cc:Work>
    <dc:type rdf:resource="http://purl.org/dc/dcmitype/StillImage"/>
    <dc:date>2022-05-23T16:14:59.306049</dc:date>
    <dc:format>image/svg+xml</dc:format>
    <dc:creator>
     <cc:Agent>
      <dc:title>Matplotlib v3.3.4, https://matplotlib.org/</dc:title>
     </cc:Agent>
    </dc:creator>
   </cc:Work>
  </rdf:RDF>
 </metadata>
 <defs>
  <style type="text/css">*{stroke-linecap:butt;stroke-linejoin:round;}</style>
 </defs>
 <g id="figure_1">
  <g id="patch_1">
   <path d="M 0 252 
L 72 252 
L 72 0 
L 0 0 
z
" style="fill:none;"/>
  </g>
  <g id="axes_1">
   <g id="patch_2">
    <path d="M 9 220.5 
L 64.8 220.5 
L 64.8 30.24 
L 9 30.24 
z
" style="fill:#ffffff;"/>
   </g>
   <g id="matplotlib.axis_1">
    <g id="ytick_1">
     <g id="line2d_1">
      <defs>
       <path d="M 0 0 
L -3.5 0 
" id="mbc330d8262" style="stroke:#000000;stroke-width:0.8;"/>
      </defs>
      <g>
       <use style="stroke:#000000;stroke-width:0.8;" x="9" xlink:href="#mbc330d8262" y="172.935"/>
      </g>
     </g>
    </g>
    <g id="ytick_2">
     <g id="line2d_2">
      <g>
       <use style="stroke:#000000;stroke-width:0.8;" x="9" xlink:href="#mbc330d8262" y="77.805"/>
      </g>
     </g>
    </g>
   </g>
   <g id="line2d_3">
    <path clip-path="url(#p6dd25b3534)" d="M 14.185151 220.5 
L 14.642533 218.578182 
L 15.162511 216.656364 
L 15.750555 214.734545 
L 16.412059 212.812727 
L 17.152226 210.890909 
L 17.975939 208.969091 
L 18.887618 207.047273 
L 19.891073 205.125455 
L 20.989341 203.203636 
L 22.184529 201.281818 
L 23.477646 199.36 
L 24.868452 197.438182 
L 26.355306 195.516364 
L 27.935037 193.594545 
L 29.602832 191.672727 
L 31.352151 189.750909 
L 33.174672 187.829091 
L 35.060272 185.907273 
L 36.997053 183.985455 
L 38.971401 182.063636 
L 40.968099 180.141818 
L 42.97048 178.22 
L 44.960629 176.298182 
L 46.919622 174.376364 
L 48.827808 172.454545 
L 50.665125 170.532727 
L 52.411442 168.610909 
L 54.046915 166.689091 
L 55.552364 164.767273 
L 56.909643 162.845455 
L 58.101999 160.923636 
L 59.114421 159.001818 
L 59.93395 157.08 
L 60.549958 155.158182 
L 60.954375 153.236364 
L 61.141865 151.314545 
L 61.109945 149.392727 
L 60.859038 147.470909 
L 60.392464 145.549091 
L 59.716369 143.627273 
L 58.839587 141.705455 
L 57.773448 139.783636 
L 56.53154 137.861818 
L 55.129412 135.94 
L 53.584257 134.018182 
L 51.914563 132.096364 
L 50.139739 130.174545 
L 48.27975 128.252727 
L 46.354745 126.330909 
L 44.384701 124.409091 
L 42.389087 122.487273 
L 40.386561 120.565455 
L 38.394701 118.643636 
L 36.429769 116.721818 
L 34.506531 114.8 
L 32.638111 112.878182 
L 30.835898 110.956364 
L 29.109489 109.034545 
L 27.466687 107.112727 
L 25.913522 105.190909 
L 24.454321 103.269091 
L 23.091796 101.347273 
L 21.827168 99.425455 
L 20.660298 97.503636 
L 19.589842 95.581818 
L 18.613405 93.66 
L 17.727709 91.738182 
L 16.928751 89.816364 
L 16.211961 87.894545 
L 15.57235 85.972727 
L 15.004645 84.050909 
L 14.503421 82.129091 
L 14.063203 80.207273 
L 13.678569 78.285455 
L 13.344228 76.363636 
L 13.055088 74.441818 
L 12.806303 72.52 
L 12.593321 70.598182 
L 12.411901 68.676364 
L 12.258136 66.754545 
L 12.128456 64.832727 
L 12.019626 62.910909 
L 11.928744 60.989091 
L 11.853219 59.067273 
L 11.790763 57.145455 
L 11.739364 55.223636 
L 11.697268 53.301818 
L 11.662959 51.38 
L 11.63513 49.458182 
L 11.612665 47.536364 
L 11.594616 45.614545 
L 11.580185 43.692727 
L 11.568701 41.770909 
L 11.559606 39.849091 
L 11.552436 37.927273 
L 11.546811 36.005455 
L 11.542418 34.083636 
L 11.539004 32.161818 
L 11.536364 30.24 
" style="fill:none;stroke:#000000;stroke-linecap:square;stroke-width:1.5;"/>
   </g>
   <g id="line2d_4">
    <path clip-path="url(#p6dd25b3534)" d="M 11.675221 220.5 
L 11.71232 218.578182 
L 11.757752 216.656364 
L 11.813118 214.734545 
L 11.880266 212.812727 
L 11.961307 210.890909 
L 12.05864 208.969091 
L 12.174968 207.047273 
L 12.313315 205.125455 
L 12.477038 203.203636 
L 12.669829 201.281818 
L 12.895719 199.36 
L 13.159062 197.438182 
L 13.464519 195.516364 
L 13.817028 193.594545 
L 14.221755 191.672727 
L 14.684043 189.750909 
L 15.209334 187.829091 
L 15.803091 185.907273 
L 16.470686 183.985455 
L 17.217294 182.063636 
L 18.047756 180.141818 
L 18.966441 178.22 
L 19.977093 176.298182 
L 21.082674 174.376364 
L 22.285199 172.454545 
L 23.58558 170.532727 
L 24.983464 168.610909 
L 26.477091 166.689091 
L 28.063162 164.767273 
L 29.736732 162.845455 
L 31.491125 160.923636 
L 33.317884 159.001818 
L 35.206756 157.08 
L 37.145717 155.158182 
L 39.121038 153.236364 
L 41.117403 151.314545 
L 43.118059 149.392727 
L 45.105027 147.470909 
L 47.059342 145.549091 
L 48.961337 143.627273 
L 50.790961 141.705455 
L 52.528119 139.783636 
L 54.153035 137.861818 
L 55.646623 135.94 
L 56.990856 134.018182 
L 58.169127 132.096364 
L 59.166594 130.174545 
L 59.970482 128.252727 
L 60.570365 126.330909 
L 60.958385 124.409091 
L 61.129424 122.487273 
L 61.081217 120.565455 
L 60.814404 118.643636 
L 60.332512 116.721818 
L 59.64188 114.8 
L 58.751519 112.878182 
L 57.672919 110.956364 
L 56.419796 109.034545 
L 55.007811 107.112727 
L 53.454236 105.190909 
L 51.777609 103.269091 
L 49.997366 101.347273 
L 48.133467 99.425455 
L 46.206032 97.503636 
L 44.234984 95.581818 
L 42.239719 93.66 
L 40.238801 91.738182 
L 38.249699 89.816364 
L 36.288556 87.894545 
L 34.370008 85.972727 
L 32.507047 84.050909 
L 30.710923 82.129091 
L 28.991102 80.207273 
L 27.355254 78.285455 
L 25.809286 76.363636 
L 24.357409 74.441818 
L 23.00223 72.52 
L 21.744874 70.598182 
L 20.58512 68.676364 
L 19.521552 66.754545 
L 18.551718 64.832727 
L 17.672294 62.910909 
L 16.87924 60.989091 
L 16.167963 59.067273 
L 15.533459 57.145455 
L 14.970451 55.223636 
L 14.473512 53.301818 
L 14.037178 51.38 
L 13.656041 49.458182 
L 13.324827 47.536364 
L 13.038464 45.614545 
L 12.792132 43.692727 
L 12.5813 41.770909 
L 12.401756 39.849091 
L 12.249616 37.927273 
L 12.121336 36.005455 
L 12.013706 34.083636 
L 11.923845 32.161818 
L 11.849186 30.24 
" style="fill:none;stroke:#808080;stroke-dasharray:5.55,2.4;stroke-dashoffset:0;stroke-width:1.5;"/>
   </g>
   <g id="line2d_5">
    <path clip-path="url(#p6dd25b3534)" d="M 13.332057 220.5 
L 13.673754 218.578182 
L 14.068383 216.656364 
L 14.521698 214.734545 
L 15.039609 212.812727 
L 15.628093 210.890909 
L 16.293087 208.969091 
L 17.040356 207.047273 
L 17.875359 205.125455 
L 18.803089 203.203636 
L 19.8279 201.281818 
L 20.953336 199.36 
L 22.181937 197.438182 
L 23.515063 195.516364 
L 24.952706 193.594545 
L 26.493324 191.672727 
L 28.133686 189.750909 
L 29.868739 187.829091 
L 31.691513 185.907273 
L 33.593049 183.985455 
L 35.56238 182.063636 
L 37.586553 180.141818 
L 39.650699 178.22 
L 41.73816 176.298182 
L 43.830668 174.376364 
L 45.908571 172.454545 
L 47.951117 170.532727 
L 49.936776 168.610909 
L 51.843603 166.689091 
L 53.64963 164.767273 
L 55.333285 162.845455 
L 56.873813 160.923636 
L 58.251696 159.001818 
L 59.449072 157.08 
L 60.45011 155.158182 
L 61.241366 153.236364 
L 61.812078 151.314545 
L 62.154411 149.392727 
L 62.263636 147.470909 
L 62.138242 145.549091 
L 61.779965 143.627273 
L 61.193751 141.705455 
L 60.387644 139.783636 
L 59.372599 137.861818 
L 58.162236 135.94 
L 56.772536 134.018182 
L 55.221491 132.096364 
L 53.528714 130.174545 
L 51.715033 128.252727 
L 49.80206 126.330909 
L 47.811774 124.409091 
L 45.766104 122.487273 
L 43.686538 120.565455 
L 41.593762 118.643636 
L 39.507339 116.721818 
L 37.445436 114.8 
L 35.424591 112.878182 
L 33.459543 110.956364 
L 31.563112 109.034545 
L 29.746125 107.112727 
L 28.017403 105.190909 
L 26.383783 103.269091 
L 24.850185 101.347273 
L 23.419722 99.425455 
L 22.093824 97.503636 
L 20.872399 95.581818 
L 19.754 93.66 
L 18.73601 91.738182 
L 17.814826 89.816364 
L 16.986042 87.894545 
L 16.244629 85.972727 
L 15.585102 84.050909 
L 15.001679 82.129091 
L 14.488416 80.207273 
L 14.039339 78.285455 
L 13.648544 76.363636 
L 13.310292 74.441818 
L 13.019077 72.52 
L 12.769684 70.598182 
L 12.557228 68.676364 
L 12.377185 66.754545 
L 12.225401 64.832727 
L 12.098103 62.910909 
L 11.991889 60.989091 
L 11.903721 59.067273 
L 11.830907 57.145455 
L 11.771077 55.223636 
L 11.722165 53.301818 
L 11.68238 51.38 
L 11.650181 49.458182 
L 11.624253 47.536364 
L 11.603478 45.614545 
L 11.586916 43.692727 
L 11.573777 41.770909 
L 11.563405 39.849091 
L 11.555259 37.927273 
L 11.548892 36.005455 
L 11.54394 34.083636 
L 11.540107 32.161818 
L 11.537155 30.24 
" style="fill:none;stroke:#d3d3d3;stroke-dasharray:1.5,2.475;stroke-dashoffset:0;stroke-width:1.5;"/>
   </g>
   <g id="patch_3">
    <path d="M 9 220.5 
L 9 30.24 
" style="fill:none;stroke:#000000;stroke-linecap:square;stroke-linejoin:miter;stroke-width:0.8;"/>
   </g>
   <g id="legend_1">
    <g id="patch_4">
     <path d="M 13.9 65.545156 
L 73.661406 65.545156 
Q 75.061406 65.545156 75.061406 64.145156 
L 75.061406 35.14 
Q 75.061406 33.74 73.661406 33.74 
L 13.9 33.74 
Q 12.5 33.74 12.5 35.14 
L 12.5 64.145156 
Q 12.5 65.545156 13.9 65.545156 
z
" style="fill:#ffffff;opacity:0.8;stroke:#cccccc;stroke-linejoin:miter;"/>
    </g>
    <g id="line2d_6">
     <path d="M 15.3 39.100469 
L 29.3 39.100469 
" style="fill:none;stroke:#000000;stroke-linecap:square;stroke-width:1.5;"/>
    </g>
    <g id="line2d_7"/>
    <g id="text_1">
     <!-- 5.0-170.0 -->
     <g transform="translate(34.9 41.550469)scale(0.07 -0.07)">
      <defs>
       <path d="M 4.15625 18.75 
L 13.375 19.53125 
Q 14.40625 12.796875 18.140625 9.390625 
Q 21.875 6 27.15625 6 
Q 33.5 6 37.890625 10.78125 
Q 42.28125 15.578125 42.28125 23.484375 
Q 42.28125 31 38.0625 35.34375 
Q 33.84375 39.703125 27 39.703125 
Q 22.75 39.703125 19.328125 37.765625 
Q 15.921875 35.84375 13.96875 32.765625 
L 5.71875 33.84375 
L 12.640625 70.609375 
L 48.25 70.609375 
L 48.25 62.203125 
L 19.671875 62.203125 
L 15.828125 42.96875 
Q 22.265625 47.46875 29.34375 47.46875 
Q 38.71875 47.46875 45.15625 40.96875 
Q 51.609375 34.46875 51.609375 24.265625 
Q 51.609375 14.546875 45.953125 7.46875 
Q 39.0625 -1.21875 27.15625 -1.21875 
Q 17.390625 -1.21875 11.203125 4.25 
Q 5.03125 9.71875 4.15625 18.75 
z
" id="ArialMT-53"/>
       <path d="M 9.078125 0 
L 9.078125 10.015625 
L 19.09375 10.015625 
L 19.09375 0 
z
" id="ArialMT-46"/>
       <path d="M 4.15625 35.296875 
Q 4.15625 48 6.765625 55.734375 
Q 9.375 63.484375 14.515625 67.671875 
Q 19.671875 71.875 27.484375 71.875 
Q 33.25 71.875 37.59375 69.546875 
Q 41.9375 67.234375 44.765625 62.859375 
Q 47.609375 58.5 49.21875 52.21875 
Q 50.828125 45.953125 50.828125 35.296875 
Q 50.828125 22.703125 48.234375 14.96875 
Q 45.65625 7.234375 40.5 3 
Q 35.359375 -1.21875 27.484375 -1.21875 
Q 17.140625 -1.21875 11.234375 6.203125 
Q 4.15625 15.140625 4.15625 35.296875 
z
M 13.1875 35.296875 
Q 13.1875 17.671875 17.3125 11.828125 
Q 21.4375 6 27.484375 6 
Q 33.546875 6 37.671875 11.859375 
Q 41.796875 17.71875 41.796875 35.296875 
Q 41.796875 52.984375 37.671875 58.78125 
Q 33.546875 64.59375 27.390625 64.59375 
Q 21.34375 64.59375 17.71875 59.46875 
Q 13.1875 52.9375 13.1875 35.296875 
z
" id="ArialMT-48"/>
       <path d="M 3.171875 21.484375 
L 3.171875 30.328125 
L 30.171875 30.328125 
L 30.171875 21.484375 
z
" id="ArialMT-45"/>
       <path d="M 37.25 0 
L 28.46875 0 
L 28.46875 56 
Q 25.296875 52.984375 20.140625 49.953125 
Q 14.984375 46.921875 10.890625 45.40625 
L 10.890625 53.90625 
Q 18.265625 57.375 23.78125 62.296875 
Q 29.296875 67.234375 31.59375 71.875 
L 37.25 71.875 
z
" id="ArialMT-49"/>
       <path d="M 4.734375 62.203125 
L 4.734375 70.65625 
L 51.078125 70.65625 
L 51.078125 63.8125 
Q 44.234375 56.546875 37.515625 44.484375 
Q 30.8125 32.421875 27.15625 19.671875 
Q 24.515625 10.6875 23.78125 0 
L 14.75 0 
Q 14.890625 8.453125 18.0625 20.40625 
Q 21.234375 32.375 27.171875 43.484375 
Q 33.109375 54.59375 39.796875 62.203125 
z
" id="ArialMT-55"/>
      </defs>
      <use xlink:href="#ArialMT-53"/>
      <use x="55.615234" xlink:href="#ArialMT-46"/>
      <use x="83.398438" xlink:href="#ArialMT-48"/>
      <use x="139.013672" xlink:href="#ArialMT-45"/>
      <use x="172.314453" xlink:href="#ArialMT-49"/>
      <use x="227.929688" xlink:href="#ArialMT-55"/>
      <use x="283.544922" xlink:href="#ArialMT-48"/>
      <use x="339.160156" xlink:href="#ArialMT-46"/>
      <use x="366.943359" xlink:href="#ArialMT-48"/>
     </g>
    </g>
    <g id="line2d_8">
     <path d="M 15.3 49.002188 
L 29.3 49.002188 
" style="fill:none;stroke:#808080;stroke-dasharray:5.55,2.4;stroke-dashoffset:0;stroke-width:1.5;"/>
    </g>
    <g id="line2d_9"/>
    <g id="text_2">
     <!-- 170.0-199.0 -->
     <g transform="translate(34.9 51.452188)scale(0.07 -0.07)">
      <defs>
       <path d="M 5.46875 16.546875 
L 13.921875 17.328125 
Q 14.984375 11.375 18.015625 8.6875 
Q 21.046875 6 25.78125 6 
Q 29.828125 6 32.875 7.859375 
Q 35.9375 9.71875 37.890625 12.8125 
Q 39.84375 15.921875 41.15625 21.1875 
Q 42.484375 26.46875 42.484375 31.9375 
Q 42.484375 32.515625 42.4375 33.6875 
Q 39.796875 29.5 35.234375 26.875 
Q 30.671875 24.265625 25.34375 24.265625 
Q 16.453125 24.265625 10.296875 30.703125 
Q 4.15625 37.15625 4.15625 47.703125 
Q 4.15625 58.59375 10.578125 65.234375 
Q 17 71.875 26.65625 71.875 
Q 33.640625 71.875 39.421875 68.109375 
Q 45.21875 64.359375 48.21875 57.390625 
Q 51.21875 50.4375 51.21875 37.25 
Q 51.21875 23.53125 48.234375 15.40625 
Q 45.265625 7.28125 39.375 3.03125 
Q 33.5 -1.21875 25.59375 -1.21875 
Q 17.1875 -1.21875 11.859375 3.4375 
Q 6.546875 8.109375 5.46875 16.546875 
z
M 41.453125 48.140625 
Q 41.453125 55.71875 37.421875 60.15625 
Q 33.40625 64.59375 27.734375 64.59375 
Q 21.875 64.59375 17.53125 59.8125 
Q 13.1875 55.03125 13.1875 47.40625 
Q 13.1875 40.578125 17.3125 36.296875 
Q 21.4375 32.03125 27.484375 32.03125 
Q 33.59375 32.03125 37.515625 36.296875 
Q 41.453125 40.578125 41.453125 48.140625 
z
" id="ArialMT-57"/>
      </defs>
      <use xlink:href="#ArialMT-49"/>
      <use x="55.615234" xlink:href="#ArialMT-55"/>
      <use x="111.230469" xlink:href="#ArialMT-48"/>
      <use x="166.845703" xlink:href="#ArialMT-46"/>
      <use x="194.628906" xlink:href="#ArialMT-48"/>
      <use x="250.244141" xlink:href="#ArialMT-45"/>
      <use x="283.544922" xlink:href="#ArialMT-49"/>
      <use x="339.160156" xlink:href="#ArialMT-57"/>
      <use x="394.775391" xlink:href="#ArialMT-57"/>
      <use x="450.390625" xlink:href="#ArialMT-46"/>
      <use x="478.173828" xlink:href="#ArialMT-48"/>
     </g>
    </g>
    <g id="line2d_10">
     <path d="M 15.3 58.903906 
L 29.3 58.903906 
" style="fill:none;stroke:#d3d3d3;stroke-dasharray:1.5,2.475;stroke-dashoffset:0;stroke-width:1.5;"/>
    </g>
    <g id="line2d_11"/>
    <g id="text_3">
     <!-- 199.0-336.0 -->
     <g transform="translate(34.9 61.353906)scale(0.07 -0.07)">
      <defs>
       <path d="M 4.203125 18.890625 
L 12.984375 20.0625 
Q 14.5 12.59375 18.140625 9.296875 
Q 21.78125 6 27 6 
Q 33.203125 6 37.46875 10.296875 
Q 41.75 14.59375 41.75 20.953125 
Q 41.75 27 37.796875 30.921875 
Q 33.84375 34.859375 27.734375 34.859375 
Q 25.25 34.859375 21.53125 33.890625 
L 22.515625 41.609375 
Q 23.390625 41.5 23.921875 41.5 
Q 29.546875 41.5 34.03125 44.421875 
Q 38.53125 47.359375 38.53125 53.46875 
Q 38.53125 58.296875 35.25 61.46875 
Q 31.984375 64.65625 26.8125 64.65625 
Q 21.6875 64.65625 18.265625 61.421875 
Q 14.84375 58.203125 13.875 51.765625 
L 5.078125 53.328125 
Q 6.6875 62.15625 12.390625 67.015625 
Q 18.109375 71.875 26.609375 71.875 
Q 32.46875 71.875 37.390625 69.359375 
Q 42.328125 66.84375 44.9375 62.5 
Q 47.5625 58.15625 47.5625 53.265625 
Q 47.5625 48.640625 45.0625 44.828125 
Q 42.578125 41.015625 37.703125 38.765625 
Q 44.046875 37.3125 47.5625 32.6875 
Q 51.078125 28.078125 51.078125 21.140625 
Q 51.078125 11.765625 44.234375 5.25 
Q 37.40625 -1.265625 26.953125 -1.265625 
Q 17.53125 -1.265625 11.296875 4.34375 
Q 5.078125 9.96875 4.203125 18.890625 
z
" id="ArialMT-51"/>
       <path d="M 49.75 54.046875 
L 41.015625 53.375 
Q 39.84375 58.546875 37.703125 60.890625 
Q 34.125 64.65625 28.90625 64.65625 
Q 24.703125 64.65625 21.53125 62.3125 
Q 17.390625 59.28125 14.984375 53.46875 
Q 12.59375 47.65625 12.5 36.921875 
Q 15.671875 41.75 20.265625 44.09375 
Q 24.859375 46.4375 29.890625 46.4375 
Q 38.671875 46.4375 44.84375 39.96875 
Q 51.03125 33.5 51.03125 23.25 
Q 51.03125 16.5 48.125 10.71875 
Q 45.21875 4.9375 40.140625 1.859375 
Q 35.0625 -1.21875 28.609375 -1.21875 
Q 17.625 -1.21875 10.6875 6.859375 
Q 3.765625 14.9375 3.765625 33.5 
Q 3.765625 54.25 11.421875 63.671875 
Q 18.109375 71.875 29.4375 71.875 
Q 37.890625 71.875 43.28125 67.140625 
Q 48.6875 62.40625 49.75 54.046875 
z
M 13.875 23.1875 
Q 13.875 18.65625 15.796875 14.5 
Q 17.71875 10.359375 21.1875 8.171875 
Q 24.65625 6 28.46875 6 
Q 34.03125 6 38.03125 10.484375 
Q 42.046875 14.984375 42.046875 22.703125 
Q 42.046875 30.125 38.078125 34.390625 
Q 34.125 38.671875 28.125 38.671875 
Q 22.171875 38.671875 18.015625 34.390625 
Q 13.875 30.125 13.875 23.1875 
z
" id="ArialMT-54"/>
      </defs>
      <use xlink:href="#ArialMT-49"/>
      <use x="55.615234" xlink:href="#ArialMT-57"/>
      <use x="111.230469" xlink:href="#ArialMT-57"/>
      <use x="166.845703" xlink:href="#ArialMT-46"/>
      <use x="194.628906" xlink:href="#ArialMT-48"/>
      <use x="250.244141" xlink:href="#ArialMT-45"/>
      <use x="283.544922" xlink:href="#ArialMT-51"/>
      <use x="339.160156" xlink:href="#ArialMT-51"/>
      <use x="394.775391" xlink:href="#ArialMT-54"/>
      <use x="450.390625" xlink:href="#ArialMT-46"/>
      <use x="478.173828" xlink:href="#ArialMT-48"/>
     </g>
    </g>
   </g>
  </g>
 </g>
 <defs>
  <clipPath id="p6dd25b3534">
   <rect height="190.26" width="55.8" x="9" y="30.24"/>
  </clipPath>
 </defs>
</svg>
