<?xml version="1.0" encoding="utf-8" standalone="no"?>
<!DOCTYPE svg PUBLIC "-//W3C//DTD SVG 1.1//EN"
  "http://www.w3.org/Graphics/SVG/1.1/DTD/svg11.dtd">
<!-- Created with matplotlib (https://matplotlib.org/) -->
<svg height="252pt" version="1.1" viewBox="0 0 72 252" width="72pt" xmlns="http://www.w3.org/2000/svg" xmlns:xlink="http://www.w3.org/1999/xlink">
 <metadata>
  <rdf:RDF xmlns:cc="http://creativecommons.org/ns#" xmlns:dc="http://purl.org/dc/elements/1.1/" xmlns:rdf="http://www.w3.org/1999/02/22-rdf-syntax-ns#">
   <cc:Work>
    <dc:type rdf:resource="http://purl.org/dc/dcmitype/StillImage"/>
    <dc:date>2022-05-23T16:14:59.362434</dc:date>
    <dc:format>image/svg+xml</dc:format>
    <dc:creator>
     <cc:Agent>
      <dc:title>Matplotlib v3.3.4, https://matplotlib.org/</dc:title>
     </cc:Agent>
    </dc:creator>
   </cc:Work>
  </rdf:RDF>
 </metadata>
 <defs>
  <style type="text/css">*{stroke-linecap:butt;stroke-linejoin:round;}</style>
 </defs>
 <g id="figure_1">
  <g id="patch_1">
   <path d="M 0 252 
L 72 252 
L 72 0 
L 0 0 
z
" style="fill:none;"/>
  </g>
  <g id="axes_1">
   <g id="patch_2">
    <path d="M 9 220.5 
L 64.8 220.5 
L 64.8 30.24 
L 9 30.24 
z
" style="fill:#ffffff;"/>
   </g>
   <g id="matplotlib.axis_1">
    <g id="ytick_1">
     <g id="line2d_1">
      <defs>
       <path d="M 0 0 
L -3.5 0 
" id="mfd90ba1d79" style="stroke:#000000;stroke-width:0.8;"/>
      </defs>
      <g>
       <use style="stroke:#000000;stroke-width:0.8;" x="9" xlink:href="#mfd90ba1d79" y="172.935"/>
      </g>
     </g>
    </g>
    <g id="ytick_2">
     <g id="line2d_2">
      <g>
       <use style="stroke:#000000;stroke-width:0.8;" x="9" xlink:href="#mfd90ba1d79" y="77.805"/>
      </g>
     </g>
    </g>
   </g>
   <g id="line2d_3">
    <path clip-path="url(#p9fbbb899ab)" d="M 13.690187 220.5 
L 14.07648 218.578182 
L 14.518444 216.656364 
L 15.021516 214.734545 
L 15.591193 212.812727 
L 16.232933 210.890909 
L 16.952055 208.969091 
L 17.75361 207.047273 
L 18.642246 205.125455 
L 19.622065 203.203636 
L 20.696468 201.281818 
L 21.867992 199.36 
L 23.138153 197.438182 
L 24.507284 195.516364 
L 25.974386 193.594545 
L 27.536988 191.672727 
L 29.19103 189.750909 
L 30.930759 187.829091 
L 32.74867 185.907273 
L 34.635461 183.985455 
L 36.580042 182.063636 
L 38.569575 180.141818 
L 40.589559 178.22 
L 42.623967 176.298182 
L 44.655414 174.376364 
L 46.665384 172.454545 
L 48.634484 170.532727 
L 50.542743 168.610909 
L 52.369935 166.689091 
L 54.09593 164.767273 
L 55.701057 162.845455 
L 57.166474 160.923636 
L 58.474534 159.001818 
L 59.609139 157.08 
L 60.556066 155.158182 
L 61.303267 153.236364 
L 61.841121 151.314545 
L 62.162645 149.392727 
L 62.263636 147.470909 
L 62.142774 145.549091 
L 61.801641 143.627273 
L 61.24469 141.705455 
L 60.479151 139.783636 
L 59.514871 137.861818 
L 58.364103 135.94 
L 57.041252 134.018182 
L 55.562567 132.096364 
L 53.945819 130.174545 
L 52.209939 128.252727 
L 50.374652 126.330909 
L 48.460114 124.409091 
L 46.486541 122.487273 
L 44.473865 120.565455 
L 42.441411 118.643636 
L 40.407606 116.721818 
L 38.38972 114.8 
L 36.40365 112.878182 
L 34.463752 110.956364 
L 32.58271 109.034545 
L 30.771456 107.112727 
L 29.03913 105.190909 
L 27.393078 103.269091 
L 25.838897 101.347273 
L 24.380502 99.425455 
L 23.020225 97.503636 
L 21.75894 95.581818 
L 20.596202 93.66 
L 19.530397 91.738182 
L 18.558903 89.816364 
L 17.678252 87.894545 
L 16.884285 85.972727 
L 16.172313 84.050909 
L 15.537253 82.129091 
L 14.973773 80.207273 
L 14.476404 78.285455 
L 14.039652 76.363636 
L 13.658089 74.441818 
L 13.326434 72.52 
L 13.039609 70.598182 
L 12.792795 68.676364 
L 12.581468 66.754545 
L 12.40142 64.832727 
L 12.248774 62.910909 
L 12.119993 60.989091 
L 12.011876 59.067273 
L 11.921545 57.145455 
L 11.84644 55.223636 
L 11.784294 53.301818 
L 11.733118 51.38 
L 11.691175 49.458182 
L 11.656964 47.536364 
L 11.629192 45.614545 
L 11.606753 43.692727 
L 11.588709 41.770909 
L 11.574267 39.849091 
L 11.562762 37.927273 
L 11.553639 36.005455 
L 11.54644 34.083636 
L 11.540785 32.161818 
L 11.536364 30.24 
" style="fill:none;stroke:#000000;stroke-linecap:square;stroke-width:1.5;"/>
   </g>
   <g id="line2d_4">
    <path clip-path="url(#p9fbbb899ab)" d="M 12.2112 220.5 
L 12.346638 218.578182 
L 12.504865 216.656364 
L 12.688908 214.734545 
L 12.902043 212.812727 
L 13.147783 210.890909 
L 13.42986 208.969091 
L 13.752206 207.047273 
L 14.118918 205.125455 
L 14.534217 203.203636 
L 15.002402 201.281818 
L 15.527787 199.36 
L 16.11463 197.438182 
L 16.76706 195.516364 
L 17.488986 193.594545 
L 18.283998 191.672727 
L 19.15527 189.750909 
L 20.105449 187.829091 
L 21.136543 185.907273 
L 22.249813 183.985455 
L 23.445655 182.063636 
L 24.723501 180.141818 
L 26.081719 178.22 
L 27.517521 176.298182 
L 29.026896 174.376364 
L 30.604553 172.454545 
L 32.24388 170.532727 
L 33.936943 168.610909 
L 35.674489 166.689091 
L 37.445996 164.767273 
L 39.239738 162.845455 
L 41.042889 160.923636 
L 42.841649 159.001818 
L 44.621401 157.08 
L 46.366897 155.158182 
L 48.062464 153.236364 
L 49.692226 151.314545 
L 51.240352 149.392727 
L 52.691303 147.470909 
L 54.030094 145.549091 
L 55.242544 143.627273 
L 56.315531 141.705455 
L 57.237225 139.783636 
L 57.997304 137.861818 
L 58.587149 135.94 
L 59.000003 134.018182 
L 59.231105 132.096364 
L 59.277777 130.174545 
L 59.139477 128.252727 
L 58.81781 126.330909 
L 58.316495 124.409091 
L 57.641297 122.487273 
L 56.799914 120.565455 
L 55.801832 118.643636 
L 54.658145 116.721818 
L 53.381352 114.8 
L 51.985132 112.878182 
L 50.484096 110.956364 
L 48.893534 109.034545 
L 47.229164 107.112727 
L 45.506869 105.190909 
L 43.742453 103.269091 
L 41.951408 101.347273 
L 40.148692 99.425455 
L 38.348537 97.503636 
L 36.56428 95.581818 
L 34.808216 93.66 
L 33.091484 91.738182 
L 31.423984 89.816364 
L 29.814319 87.894545 
L 28.269768 85.972727 
L 26.796284 84.050909 
L 25.398519 82.129091 
L 24.079869 80.207273 
L 22.842538 78.285455 
L 21.687621 76.363636 
L 20.615193 74.441818 
L 19.624417 72.52 
L 18.713648 70.598182 
L 17.880546 68.676364 
L 17.12219 66.754545 
L 16.435186 64.832727 
L 15.815773 62.910909 
L 15.259922 60.989091 
L 14.763431 59.067273 
L 14.322002 57.145455 
L 13.931323 55.223636 
L 13.587125 53.301818 
L 13.285244 51.38 
L 13.021659 49.458182 
L 12.792536 47.536364 
L 12.594247 45.614545 
L 12.423396 43.692727 
L 12.276829 41.770909 
L 12.151642 39.849091 
L 12.045177 37.927273 
L 11.955025 36.005455 
L 11.879013 34.083636 
L 11.815198 32.161818 
L 11.76185 30.24 
" style="fill:none;stroke:#808080;stroke-dasharray:5.55,2.4;stroke-dashoffset:0;stroke-width:1.5;"/>
   </g>
   <g id="line2d_5">
    <path clip-path="url(#p9fbbb899ab)" d="M 13.58312 220.5 
L 13.91229 218.578182 
L 14.284014 216.656364 
L 14.702015 214.734545 
L 15.17005 212.812727 
L 15.691852 210.890909 
L 16.271074 208.969091 
L 16.911219 207.047273 
L 17.615562 205.125455 
L 18.387075 203.203636 
L 19.228337 201.281818 
L 20.141446 199.36 
L 21.127931 197.438182 
L 22.188657 195.516364 
L 23.323738 193.594545 
L 24.532452 191.672727 
L 25.813165 189.750909 
L 27.163257 187.829091 
L 28.579073 185.907273 
L 30.055874 183.985455 
L 31.587812 182.063636 
L 33.167924 180.141818 
L 34.788141 178.22 
L 36.439326 176.298182 
L 38.11133 174.376364 
L 39.793067 172.454545 
L 41.472624 170.532727 
L 43.137382 168.610909 
L 44.774159 166.689091 
L 46.369381 164.767273 
L 47.909257 162.845455 
L 49.379974 160.923636 
L 50.7679 159.001818 
L 52.059792 157.08 
L 53.243007 155.158182 
L 54.3057 153.236364 
L 55.237031 151.314545 
L 56.027339 149.392727 
L 56.668317 147.470909 
L 57.15315 145.549091 
L 57.476643 143.627273 
L 57.635305 141.705455 
L 57.627421 139.783636 
L 57.453075 137.861818 
L 57.114155 135.94 
L 56.614313 134.018182 
L 55.958903 132.096364 
L 55.154886 130.174545 
L 54.210704 128.252727 
L 53.136137 126.330909 
L 51.942128 124.409091 
L 50.640605 122.487273 
L 49.244279 120.565455 
L 47.766436 118.643636 
L 46.220737 116.721818 
L 44.620998 114.8 
L 42.981 112.878182 
L 41.314287 110.956364 
L 39.633993 109.034545 
L 37.952678 107.112727 
L 36.282182 105.190909 
L 34.633505 103.269091 
L 33.016704 101.347273 
L 31.440819 99.425455 
L 29.913812 97.503636 
L 28.442543 95.581818 
L 27.032754 93.66 
L 25.689081 91.738182 
L 24.415078 89.816364 
L 23.213269 87.894545 
L 22.0852 85.972727 
L 21.031509 84.050909 
L 20.052008 82.129091 
L 19.145766 80.207273 
L 18.311195 78.285455 
L 17.546149 76.363636 
L 16.848007 74.441818 
L 16.213766 72.52 
L 15.640124 70.598182 
L 15.123563 68.676364 
L 14.660419 66.754545 
L 14.246953 64.832727 
L 13.87941 62.910909 
L 13.554073 60.989091 
L 13.267304 59.067273 
L 13.015586 57.145455 
L 12.795552 55.223636 
L 12.604007 53.301818 
L 12.437946 51.38 
L 12.294565 49.458182 
L 12.17127 47.536364 
L 12.065675 45.614545 
L 11.975604 43.692727 
L 11.899082 41.770909 
L 11.83433 39.849091 
L 11.779757 37.927273 
L 11.733944 36.005455 
L 11.695636 34.083636 
L 11.663732 32.161818 
L 11.637264 30.24 
" style="fill:none;stroke:#d3d3d3;stroke-dasharray:1.5,2.475;stroke-dashoffset:0;stroke-width:1.5;"/>
   </g>
   <g id="patch_3">
    <path d="M 9 220.5 
L 9 30.24 
" style="fill:none;stroke:#000000;stroke-linecap:square;stroke-linejoin:miter;stroke-width:0.8;"/>
   </g>
   <g id="legend_1">
    <g id="patch_4">
     <path d="M 13.9 65.6075 
L 95.445625 65.6075 
Q 96.845625 65.6075 96.845625 64.2075 
L 96.845625 35.14 
Q 96.845625 33.74 95.445625 33.74 
L 13.9 33.74 
Q 12.5 33.74 12.5 35.14 
L 12.5 64.2075 
Q 12.5 65.6075 13.9 65.6075 
z
" style="fill:#ffffff;opacity:0.8;stroke:#cccccc;stroke-linejoin:miter;"/>
    </g>
    <g id="line2d_6">
     <path d="M 15.3 39.12125 
L 29.3 39.12125 
" style="fill:none;stroke:#000000;stroke-linecap:square;stroke-width:1.5;"/>
    </g>
    <g id="line2d_7"/>
    <g id="text_1">
     <!-- 675.0-2261.0 rpm -->
     <g transform="translate(34.9 41.57125)scale(0.07 -0.07)">
      <defs>
       <path d="M 49.75 54.046875 
L 41.015625 53.375 
Q 39.84375 58.546875 37.703125 60.890625 
Q 34.125 64.65625 28.90625 64.65625 
Q 24.703125 64.65625 21.53125 62.3125 
Q 17.390625 59.28125 14.984375 53.46875 
Q 12.59375 47.65625 12.5 36.921875 
Q 15.671875 41.75 20.265625 44.09375 
Q 24.859375 46.4375 29.890625 46.4375 
Q 38.671875 46.4375 44.84375 39.96875 
Q 51.03125 33.5 51.03125 23.25 
Q 51.03125 16.5 48.125 10.71875 
Q 45.21875 4.9375 40.140625 1.859375 
Q 35.0625 -1.21875 28.609375 -1.21875 
Q 17.625 -1.21875 10.6875 6.859375 
Q 3.765625 14.9375 3.765625 33.5 
Q 3.765625 54.25 11.421875 63.671875 
Q 18.109375 71.875 29.4375 71.875 
Q 37.890625 71.875 43.28125 67.140625 
Q 48.6875 62.40625 49.75 54.046875 
z
M 13.875 23.1875 
Q 13.875 18.65625 15.796875 14.5 
Q 17.71875 10.359375 21.1875 8.171875 
Q 24.65625 6 28.46875 6 
Q 34.03125 6 38.03125 10.484375 
Q 42.046875 14.984375 42.046875 22.703125 
Q 42.046875 30.125 38.078125 34.390625 
Q 34.125 38.671875 28.125 38.671875 
Q 22.171875 38.671875 18.015625 34.390625 
Q 13.875 30.125 13.875 23.1875 
z
" id="ArialMT-54"/>
       <path d="M 4.734375 62.203125 
L 4.734375 70.65625 
L 51.078125 70.65625 
L 51.078125 63.8125 
Q 44.234375 56.546875 37.515625 44.484375 
Q 30.8125 32.421875 27.15625 19.671875 
Q 24.515625 10.6875 23.78125 0 
L 14.75 0 
Q 14.890625 8.453125 18.0625 20.40625 
Q 21.234375 32.375 27.171875 43.484375 
Q 33.109375 54.59375 39.796875 62.203125 
z
" id="ArialMT-55"/>
       <path d="M 4.15625 18.75 
L 13.375 19.53125 
Q 14.40625 12.796875 18.140625 9.390625 
Q 21.875 6 27.15625 6 
Q 33.5 6 37.890625 10.78125 
Q 42.28125 15.578125 42.28125 23.484375 
Q 42.28125 31 38.0625 35.34375 
Q 33.84375 39.703125 27 39.703125 
Q 22.75 39.703125 19.328125 37.765625 
Q 15.921875 35.84375 13.96875 32.765625 
L 5.71875 33.84375 
L 12.640625 70.609375 
L 48.25 70.609375 
L 48.25 62.203125 
L 19.671875 62.203125 
L 15.828125 42.96875 
Q 22.265625 47.46875 29.34375 47.46875 
Q 38.71875 47.46875 45.15625 40.96875 
Q 51.609375 34.46875 51.609375 24.265625 
Q 51.609375 14.546875 45.953125 7.46875 
Q 39.0625 -1.21875 27.15625 -1.21875 
Q 17.390625 -1.21875 11.203125 4.25 
Q 5.03125 9.71875 4.15625 18.75 
z
" id="ArialMT-53"/>
       <path d="M 9.078125 0 
L 9.078125 10.015625 
L 19.09375 10.015625 
L 19.09375 0 
z
" id="ArialMT-46"/>
       <path d="M 4.15625 35.296875 
Q 4.15625 48 6.765625 55.734375 
Q 9.375 63.484375 14.515625 67.671875 
Q 19.671875 71.875 27.484375 71.875 
Q 33.25 71.875 37.59375 69.546875 
Q 41.9375 67.234375 44.765625 62.859375 
Q 47.609375 58.5 49.21875 52.21875 
Q 50.828125 45.953125 50.828125 35.296875 
Q 50.828125 22.703125 48.234375 14.96875 
Q 45.65625 7.234375 40.5 3 
Q 35.359375 -1.21875 27.484375 -1.21875 
Q 17.140625 -1.21875 11.234375 6.203125 
Q 4.15625 15.140625 4.15625 35.296875 
z
M 13.1875 35.296875 
Q 13.1875 17.671875 17.3125 11.828125 
Q 21.4375 6 27.484375 6 
Q 33.546875 6 37.671875 11.859375 
Q 41.796875 17.71875 41.796875 35.296875 
Q 41.796875 52.984375 37.671875 58.78125 
Q 33.546875 64.59375 27.390625 64.59375 
Q 21.34375 64.59375 17.71875 59.46875 
Q 13.1875 52.9375 13.1875 35.296875 
z
" id="ArialMT-48"/>
       <path d="M 3.171875 21.484375 
L 3.171875 30.328125 
L 30.171875 30.328125 
L 30.171875 21.484375 
z
" id="ArialMT-45"/>
       <path d="M 50.34375 8.453125 
L 50.34375 0 
L 3.03125 0 
Q 2.9375 3.171875 4.046875 6.109375 
Q 5.859375 10.9375 9.828125 15.625 
Q 13.8125 20.3125 21.34375 26.46875 
Q 33.015625 36.03125 37.109375 41.625 
Q 41.21875 47.21875 41.21875 52.203125 
Q 41.21875 57.421875 37.46875 61 
Q 33.734375 64.59375 27.734375 64.59375 
Q 21.390625 64.59375 17.578125 60.78125 
Q 13.765625 56.984375 13.71875 50.25 
L 4.6875 51.171875 
Q 5.609375 61.28125 11.65625 66.578125 
Q 17.71875 71.875 27.9375 71.875 
Q 38.234375 71.875 44.234375 66.15625 
Q 50.25 60.453125 50.25 52 
Q 50.25 47.703125 48.484375 43.546875 
Q 46.734375 39.40625 42.65625 34.8125 
Q 38.578125 30.21875 29.109375 22.21875 
Q 21.1875 15.578125 18.9375 13.203125 
Q 16.703125 10.84375 15.234375 8.453125 
z
" id="ArialMT-50"/>
       <path d="M 37.25 0 
L 28.46875 0 
L 28.46875 56 
Q 25.296875 52.984375 20.140625 49.953125 
Q 14.984375 46.921875 10.890625 45.40625 
L 10.890625 53.90625 
Q 18.265625 57.375 23.78125 62.296875 
Q 29.296875 67.234375 31.59375 71.875 
L 37.25 71.875 
z
" id="ArialMT-49"/>
       <path id="ArialMT-32"/>
       <path d="M 6.5 0 
L 6.5 51.859375 
L 14.40625 51.859375 
L 14.40625 44 
Q 17.4375 49.515625 20 51.265625 
Q 22.5625 53.03125 25.640625 53.03125 
Q 30.078125 53.03125 34.671875 50.203125 
L 31.640625 42.046875 
Q 28.421875 43.953125 25.203125 43.953125 
Q 22.3125 43.953125 20.015625 42.21875 
Q 17.71875 40.484375 16.75 37.40625 
Q 15.28125 32.71875 15.28125 27.15625 
L 15.28125 0 
z
" id="ArialMT-114"/>
       <path d="M 6.59375 -19.875 
L 6.59375 51.859375 
L 14.59375 51.859375 
L 14.59375 45.125 
Q 17.4375 49.078125 21 51.046875 
Q 24.5625 53.03125 29.640625 53.03125 
Q 36.28125 53.03125 41.359375 49.609375 
Q 46.4375 46.1875 49.015625 39.953125 
Q 51.609375 33.734375 51.609375 26.3125 
Q 51.609375 18.359375 48.75 11.984375 
Q 45.90625 5.609375 40.453125 2.21875 
Q 35.015625 -1.171875 29 -1.171875 
Q 24.609375 -1.171875 21.109375 0.6875 
Q 17.625 2.546875 15.375 5.375 
L 15.375 -19.875 
z
M 14.546875 25.640625 
Q 14.546875 15.625 18.59375 10.84375 
Q 22.65625 6.0625 28.421875 6.0625 
Q 34.28125 6.0625 38.453125 11.015625 
Q 42.625 15.96875 42.625 26.375 
Q 42.625 36.28125 38.546875 41.203125 
Q 34.46875 46.140625 28.8125 46.140625 
Q 23.1875 46.140625 18.859375 40.890625 
Q 14.546875 35.640625 14.546875 25.640625 
z
" id="ArialMT-112"/>
       <path d="M 6.59375 0 
L 6.59375 51.859375 
L 14.453125 51.859375 
L 14.453125 44.578125 
Q 16.890625 48.390625 20.9375 50.703125 
Q 25 53.03125 30.171875 53.03125 
Q 35.9375 53.03125 39.625 50.640625 
Q 43.3125 48.25 44.828125 43.953125 
Q 50.984375 53.03125 60.84375 53.03125 
Q 68.5625 53.03125 72.703125 48.75 
Q 76.859375 44.484375 76.859375 35.59375 
L 76.859375 0 
L 68.109375 0 
L 68.109375 32.671875 
Q 68.109375 37.9375 67.25 40.25 
Q 66.40625 42.578125 64.15625 43.984375 
Q 61.921875 45.40625 58.890625 45.40625 
Q 53.421875 45.40625 49.796875 41.765625 
Q 46.1875 38.140625 46.1875 30.125 
L 46.1875 0 
L 37.40625 0 
L 37.40625 33.6875 
Q 37.40625 39.546875 35.25 42.46875 
Q 33.109375 45.40625 28.21875 45.40625 
Q 24.515625 45.40625 21.359375 43.453125 
Q 18.21875 41.5 16.796875 37.734375 
Q 15.375 33.984375 15.375 26.90625 
L 15.375 0 
z
" id="ArialMT-109"/>
      </defs>
      <use xlink:href="#ArialMT-54"/>
      <use x="55.615234" xlink:href="#ArialMT-55"/>
      <use x="111.230469" xlink:href="#ArialMT-53"/>
      <use x="166.845703" xlink:href="#ArialMT-46"/>
      <use x="194.628906" xlink:href="#ArialMT-48"/>
      <use x="250.244141" xlink:href="#ArialMT-45"/>
      <use x="283.544922" xlink:href="#ArialMT-50"/>
      <use x="339.160156" xlink:href="#ArialMT-50"/>
      <use x="394.775391" xlink:href="#ArialMT-54"/>
      <use x="450.390625" xlink:href="#ArialMT-49"/>
      <use x="506.005859" xlink:href="#ArialMT-46"/>
      <use x="533.789062" xlink:href="#ArialMT-48"/>
      <use x="589.404297" xlink:href="#ArialMT-32"/>
      <use x="617.1875" xlink:href="#ArialMT-114"/>
      <use x="650.488281" xlink:href="#ArialMT-112"/>
      <use x="706.103516" xlink:href="#ArialMT-109"/>
     </g>
    </g>
    <g id="line2d_8">
     <path d="M 15.3 49.04375 
L 29.3 49.04375 
" style="fill:none;stroke:#808080;stroke-dasharray:5.55,2.4;stroke-dashoffset:0;stroke-width:1.5;"/>
    </g>
    <g id="line2d_9"/>
    <g id="text_2">
     <!-- 2261.0-2409.0 rpm -->
     <g transform="translate(34.9 51.49375)scale(0.07 -0.07)">
      <defs>
       <path d="M 32.328125 0 
L 32.328125 17.140625 
L 1.265625 17.140625 
L 1.265625 25.203125 
L 33.9375 71.578125 
L 41.109375 71.578125 
L 41.109375 25.203125 
L 50.78125 25.203125 
L 50.78125 17.140625 
L 41.109375 17.140625 
L 41.109375 0 
z
M 32.328125 25.203125 
L 32.328125 57.46875 
L 9.90625 25.203125 
z
" id="ArialMT-52"/>
       <path d="M 5.46875 16.546875 
L 13.921875 17.328125 
Q 14.984375 11.375 18.015625 8.6875 
Q 21.046875 6 25.78125 6 
Q 29.828125 6 32.875 7.859375 
Q 35.9375 9.71875 37.890625 12.8125 
Q 39.84375 15.921875 41.15625 21.1875 
Q 42.484375 26.46875 42.484375 31.9375 
Q 42.484375 32.515625 42.4375 33.6875 
Q 39.796875 29.5 35.234375 26.875 
Q 30.671875 24.265625 25.34375 24.265625 
Q 16.453125 24.265625 10.296875 30.703125 
Q 4.15625 37.15625 4.15625 47.703125 
Q 4.15625 58.59375 10.578125 65.234375 
Q 17 71.875 26.65625 71.875 
Q 33.640625 71.875 39.421875 68.109375 
Q 45.21875 64.359375 48.21875 57.390625 
Q 51.21875 50.4375 51.21875 37.25 
Q 51.21875 23.53125 48.234375 15.40625 
Q 45.265625 7.28125 39.375 3.03125 
Q 33.5 -1.21875 25.59375 -1.21875 
Q 17.1875 -1.21875 11.859375 3.4375 
Q 6.546875 8.109375 5.46875 16.546875 
z
M 41.453125 48.140625 
Q 41.453125 55.71875 37.421875 60.15625 
Q 33.40625 64.59375 27.734375 64.59375 
Q 21.875 64.59375 17.53125 59.8125 
Q 13.1875 55.03125 13.1875 47.40625 
Q 13.1875 40.578125 17.3125 36.296875 
Q 21.4375 32.03125 27.484375 32.03125 
Q 33.59375 32.03125 37.515625 36.296875 
Q 41.453125 40.578125 41.453125 48.140625 
z
" id="ArialMT-57"/>
      </defs>
      <use xlink:href="#ArialMT-50"/>
      <use x="55.615234" xlink:href="#ArialMT-50"/>
      <use x="111.230469" xlink:href="#ArialMT-54"/>
      <use x="166.845703" xlink:href="#ArialMT-49"/>
      <use x="222.460938" xlink:href="#ArialMT-46"/>
      <use x="250.244141" xlink:href="#ArialMT-48"/>
      <use x="305.859375" xlink:href="#ArialMT-45"/>
      <use x="339.160156" xlink:href="#ArialMT-50"/>
      <use x="394.775391" xlink:href="#ArialMT-52"/>
      <use x="450.390625" xlink:href="#ArialMT-48"/>
      <use x="506.005859" xlink:href="#ArialMT-57"/>
      <use x="561.621094" xlink:href="#ArialMT-46"/>
      <use x="589.404297" xlink:href="#ArialMT-48"/>
      <use x="645.019531" xlink:href="#ArialMT-32"/>
      <use x="672.802734" xlink:href="#ArialMT-114"/>
      <use x="706.103516" xlink:href="#ArialMT-112"/>
      <use x="761.71875" xlink:href="#ArialMT-109"/>
     </g>
    </g>
    <g id="line2d_10">
     <path d="M 15.3 58.96625 
L 29.3 58.96625 
" style="fill:none;stroke:#d3d3d3;stroke-dasharray:1.5,2.475;stroke-dashoffset:0;stroke-width:1.5;"/>
    </g>
    <g id="line2d_11"/>
    <g id="text_3">
     <!-- 2409.0-3409.0 rpm -->
     <g transform="translate(34.9 61.41625)scale(0.07 -0.07)">
      <defs>
       <path d="M 4.203125 18.890625 
L 12.984375 20.0625 
Q 14.5 12.59375 18.140625 9.296875 
Q 21.78125 6 27 6 
Q 33.203125 6 37.46875 10.296875 
Q 41.75 14.59375 41.75 20.953125 
Q 41.75 27 37.796875 30.921875 
Q 33.84375 34.859375 27.734375 34.859375 
Q 25.25 34.859375 21.53125 33.890625 
L 22.515625 41.609375 
Q 23.390625 41.5 23.921875 41.5 
Q 29.546875 41.5 34.03125 44.421875 
Q 38.53125 47.359375 38.53125 53.46875 
Q 38.53125 58.296875 35.25 61.46875 
Q 31.984375 64.65625 26.8125 64.65625 
Q 21.6875 64.65625 18.265625 61.421875 
Q 14.84375 58.203125 13.875 51.765625 
L 5.078125 53.328125 
Q 6.6875 62.15625 12.390625 67.015625 
Q 18.109375 71.875 26.609375 71.875 
Q 32.46875 71.875 37.390625 69.359375 
Q 42.328125 66.84375 44.9375 62.5 
Q 47.5625 58.15625 47.5625 53.265625 
Q 47.5625 48.640625 45.0625 44.828125 
Q 42.578125 41.015625 37.703125 38.765625 
Q 44.046875 37.3125 47.5625 32.6875 
Q 51.078125 28.078125 51.078125 21.140625 
Q 51.078125 11.765625 44.234375 5.25 
Q 37.40625 -1.265625 26.953125 -1.265625 
Q 17.53125 -1.265625 11.296875 4.34375 
Q 5.078125 9.96875 4.203125 18.890625 
z
" id="ArialMT-51"/>
      </defs>
      <use xlink:href="#ArialMT-50"/>
      <use x="55.615234" xlink:href="#ArialMT-52"/>
      <use x="111.230469" xlink:href="#ArialMT-48"/>
      <use x="166.845703" xlink:href="#ArialMT-57"/>
      <use x="222.460938" xlink:href="#ArialMT-46"/>
      <use x="250.244141" xlink:href="#ArialMT-48"/>
      <use x="305.859375" xlink:href="#ArialMT-45"/>
      <use x="339.160156" xlink:href="#ArialMT-51"/>
      <use x="394.775391" xlink:href="#ArialMT-52"/>
      <use x="450.390625" xlink:href="#ArialMT-48"/>
      <use x="506.005859" xlink:href="#ArialMT-57"/>
      <use x="561.621094" xlink:href="#ArialMT-46"/>
      <use x="589.404297" xlink:href="#ArialMT-48"/>
      <use x="645.019531" xlink:href="#ArialMT-32"/>
      <use x="672.802734" xlink:href="#ArialMT-114"/>
      <use x="706.103516" xlink:href="#ArialMT-112"/>
      <use x="761.71875" xlink:href="#ArialMT-109"/>
     </g>
    </g>
   </g>
  </g>
 </g>
 <defs>
  <clipPath id="p9fbbb899ab">
   <rect height="190.26" width="55.8" x="9" y="30.24"/>
  </clipPath>
 </defs>
</svg>
