<?xml version="1.0" encoding="utf-8" standalone="no"?>
<!DOCTYPE svg PUBLIC "-//W3C//DTD SVG 1.1//EN"
  "http://www.w3.org/Graphics/SVG/1.1/DTD/svg11.dtd">
<!-- Created with matplotlib (https://matplotlib.org/) -->
<svg height="154.8pt" version="1.1" viewBox="0 0 198 154.8" width="198pt" xmlns="http://www.w3.org/2000/svg" xmlns:xlink="http://www.w3.org/1999/xlink">
 <metadata>
  <rdf:RDF xmlns:cc="http://creativecommons.org/ns#" xmlns:dc="http://purl.org/dc/elements/1.1/" xmlns:rdf="http://www.w3.org/1999/02/22-rdf-syntax-ns#">
   <cc:Work>
    <dc:type rdf:resource="http://purl.org/dc/dcmitype/StillImage"/>
    <dc:date>2022-05-23T16:14:57.102800</dc:date>
    <dc:format>image/svg+xml</dc:format>
    <dc:creator>
     <cc:Agent>
      <dc:title>Matplotlib v3.3.4, https://matplotlib.org/</dc:title>
     </cc:Agent>
    </dc:creator>
   </cc:Work>
  </rdf:RDF>
 </metadata>
 <defs>
  <style type="text/css">*{stroke-linecap:butt;stroke-linejoin:round;}</style>
 </defs>
 <g id="figure_1">
  <g id="patch_1">
   <path d="M 0 154.8 
L 198 154.8 
L 198 0 
L 0 0 
z
" style="fill:none;"/>
  </g>
  <g id="axes_1">
   <g id="line2d_1">
    <path clip-path="url(#p5c9308b5d1)" d="M 7.2 11.082273 
L 20.290909 11.082273 
" style="fill:none;stroke:#0173b2;stroke-linecap:square;stroke-width:1.5;"/>
   </g>
   <g id="line2d_2">
    <path clip-path="url(#p5c9308b5d1)" d="M 61.745455 11.082273 
L 74.836364 11.082273 
" style="fill:none;stroke:#de8f05;stroke-linecap:square;stroke-width:1.5;"/>
   </g>
   <g id="line2d_3">
    <path clip-path="url(#p5c9308b5d1)" d="M 138.109091 11.082273 
L 151.2 11.082273 
" style="fill:none;stroke:#029e73;stroke-linecap:square;stroke-width:1.5;"/>
   </g>
   <g id="line2d_4">
    <path clip-path="url(#p5c9308b5d1)" d="M 7.2 0.527727 
L 20.290909 0.527727 
" style="fill:none;stroke:#d55e00;stroke-linecap:square;stroke-width:1.5;"/>
   </g>
   <g id="line2d_5">
    <path clip-path="url(#p5c9308b5d1)" d="M 61.745455 0.527727 
L 74.836364 0.527727 
" style="fill:none;stroke:#cc78bc;stroke-linecap:square;stroke-width:1.5;"/>
   </g>
   <g id="line2d_6">
    <path clip-path="url(#p5c9308b5d1)" d="M 138.109091 0.527727 
L 151.2 0.527727 
" style="fill:none;stroke:#ca9161;stroke-linecap:square;stroke-width:1.5;"/>
   </g>
   <g id="text_1">
    <!-- Sinker (SI) -->
    <g style="fill:#0173b2;" transform="translate(22.472727 12.893523)scale(0.07 -0.07)">
     <defs>
      <path d="M 4.5 23 
L 13.421875 23.78125 
Q 14.0625 18.40625 16.375 14.96875 
Q 18.703125 11.53125 23.578125 9.40625 
Q 28.46875 7.28125 34.578125 7.28125 
Q 39.984375 7.28125 44.140625 8.890625 
Q 48.296875 10.5 50.3125 13.296875 
Q 52.34375 16.109375 52.34375 19.4375 
Q 52.34375 22.796875 50.390625 25.3125 
Q 48.4375 27.828125 43.953125 29.546875 
Q 41.0625 30.671875 31.203125 33.03125 
Q 21.34375 35.40625 17.390625 37.5 
Q 12.25 40.1875 9.734375 44.15625 
Q 7.234375 48.140625 7.234375 53.078125 
Q 7.234375 58.5 10.296875 63.203125 
Q 13.375 67.921875 19.28125 70.359375 
Q 25.203125 72.796875 32.421875 72.796875 
Q 40.375 72.796875 46.453125 70.234375 
Q 52.546875 67.671875 55.8125 62.6875 
Q 59.078125 57.71875 59.328125 51.421875 
L 50.25 50.734375 
Q 49.515625 57.515625 45.28125 60.984375 
Q 41.0625 64.453125 32.8125 64.453125 
Q 24.21875 64.453125 20.28125 61.296875 
Q 16.359375 58.15625 16.359375 53.71875 
Q 16.359375 49.859375 19.140625 47.359375 
Q 21.875 44.875 33.421875 42.265625 
Q 44.96875 39.65625 49.265625 37.703125 
Q 55.515625 34.8125 58.484375 30.390625 
Q 61.46875 25.984375 61.46875 20.21875 
Q 61.46875 14.5 58.203125 9.4375 
Q 54.9375 4.390625 48.796875 1.578125 
Q 42.671875 -1.21875 35.015625 -1.21875 
Q 25.296875 -1.21875 18.71875 1.609375 
Q 12.15625 4.4375 8.421875 10.125 
Q 4.6875 15.828125 4.5 23 
z
" id="ArialMT-83"/>
      <path d="M 6.640625 61.46875 
L 6.640625 71.578125 
L 15.4375 71.578125 
L 15.4375 61.46875 
z
M 6.640625 0 
L 6.640625 51.859375 
L 15.4375 51.859375 
L 15.4375 0 
z
" id="ArialMT-105"/>
      <path d="M 6.59375 0 
L 6.59375 51.859375 
L 14.5 51.859375 
L 14.5 44.484375 
Q 20.21875 53.03125 31 53.03125 
Q 35.6875 53.03125 39.625 51.34375 
Q 43.5625 49.65625 45.515625 46.921875 
Q 47.46875 44.1875 48.25 40.4375 
Q 48.734375 37.984375 48.734375 31.890625 
L 48.734375 0 
L 39.9375 0 
L 39.9375 31.546875 
Q 39.9375 36.921875 38.90625 39.578125 
Q 37.890625 42.234375 35.28125 43.8125 
Q 32.671875 45.40625 29.15625 45.40625 
Q 23.53125 45.40625 19.453125 41.84375 
Q 15.375 38.28125 15.375 28.328125 
L 15.375 0 
z
" id="ArialMT-110"/>
      <path d="M 6.640625 0 
L 6.640625 71.578125 
L 15.4375 71.578125 
L 15.4375 30.765625 
L 36.234375 51.859375 
L 47.609375 51.859375 
L 27.78125 32.625 
L 49.609375 0 
L 38.765625 0 
L 21.625 26.515625 
L 15.4375 20.5625 
L 15.4375 0 
z
" id="ArialMT-107"/>
      <path d="M 42.09375 16.703125 
L 51.171875 15.578125 
Q 49.03125 7.625 43.21875 3.21875 
Q 37.40625 -1.171875 28.375 -1.171875 
Q 17 -1.171875 10.328125 5.828125 
Q 3.65625 12.84375 3.65625 25.484375 
Q 3.65625 38.578125 10.390625 45.796875 
Q 17.140625 53.03125 27.875 53.03125 
Q 38.28125 53.03125 44.875 45.953125 
Q 51.46875 38.875 51.46875 26.03125 
Q 51.46875 25.25 51.421875 23.6875 
L 12.75 23.6875 
Q 13.234375 15.140625 17.578125 10.59375 
Q 21.921875 6.0625 28.421875 6.0625 
Q 33.25 6.0625 36.671875 8.59375 
Q 40.09375 11.140625 42.09375 16.703125 
z
M 13.234375 30.90625 
L 42.1875 30.90625 
Q 41.609375 37.453125 38.875 40.71875 
Q 34.671875 45.796875 27.984375 45.796875 
Q 21.921875 45.796875 17.796875 41.75 
Q 13.671875 37.703125 13.234375 30.90625 
z
" id="ArialMT-101"/>
      <path d="M 6.5 0 
L 6.5 51.859375 
L 14.40625 51.859375 
L 14.40625 44 
Q 17.4375 49.515625 20 51.265625 
Q 22.5625 53.03125 25.640625 53.03125 
Q 30.078125 53.03125 34.671875 50.203125 
L 31.640625 42.046875 
Q 28.421875 43.953125 25.203125 43.953125 
Q 22.3125 43.953125 20.015625 42.21875 
Q 17.71875 40.484375 16.75 37.40625 
Q 15.28125 32.71875 15.28125 27.15625 
L 15.28125 0 
z
" id="ArialMT-114"/>
      <path id="ArialMT-32"/>
      <path d="M 23.390625 -21.046875 
Q 16.109375 -11.859375 11.078125 0.4375 
Q 6.0625 12.75 6.0625 25.921875 
Q 6.0625 37.546875 9.8125 48.1875 
Q 14.203125 60.546875 23.390625 72.796875 
L 29.6875 72.796875 
Q 23.78125 62.640625 21.875 58.296875 
Q 18.890625 51.5625 17.1875 44.234375 
Q 15.09375 35.109375 15.09375 25.875 
Q 15.09375 2.390625 29.6875 -21.046875 
z
" id="ArialMT-40"/>
      <path d="M 9.328125 0 
L 9.328125 71.578125 
L 18.796875 71.578125 
L 18.796875 0 
z
" id="ArialMT-73"/>
      <path d="M 12.359375 -21.046875 
L 6.0625 -21.046875 
Q 20.65625 2.390625 20.65625 25.875 
Q 20.65625 35.0625 18.5625 44.09375 
Q 16.890625 51.421875 13.921875 58.15625 
Q 12.015625 62.546875 6.0625 72.796875 
L 12.359375 72.796875 
Q 21.53125 60.546875 25.921875 48.1875 
Q 29.6875 37.546875 29.6875 25.921875 
Q 29.6875 12.75 24.625 0.4375 
Q 19.578125 -11.859375 12.359375 -21.046875 
z
" id="ArialMT-41"/>
     </defs>
     <use xlink:href="#ArialMT-83"/>
     <use x="66.699219" xlink:href="#ArialMT-105"/>
     <use x="88.916016" xlink:href="#ArialMT-110"/>
     <use x="144.53125" xlink:href="#ArialMT-107"/>
     <use x="194.53125" xlink:href="#ArialMT-101"/>
     <use x="250.146484" xlink:href="#ArialMT-114"/>
     <use x="283.447266" xlink:href="#ArialMT-32"/>
     <use x="311.230469" xlink:href="#ArialMT-40"/>
     <use x="344.53125" xlink:href="#ArialMT-83"/>
     <use x="411.230469" xlink:href="#ArialMT-73"/>
     <use x="439.013672" xlink:href="#ArialMT-41"/>
    </g>
   </g>
   <g id="text_2">
    <!-- Cutter (FC) -->
    <g style="fill:#de8f05;" transform="translate(77.018182 12.893523)scale(0.07 -0.07)">
     <defs>
      <path d="M 58.796875 25.09375 
L 68.265625 22.703125 
Q 65.28125 11.03125 57.546875 4.90625 
Q 49.8125 -1.21875 38.625 -1.21875 
Q 27.046875 -1.21875 19.796875 3.484375 
Q 12.546875 8.203125 8.765625 17.140625 
Q 4.984375 26.078125 4.984375 36.328125 
Q 4.984375 47.515625 9.25 55.828125 
Q 13.53125 64.15625 21.40625 68.46875 
Q 29.296875 72.796875 38.765625 72.796875 
Q 49.515625 72.796875 56.828125 67.328125 
Q 64.15625 61.859375 67.046875 51.953125 
L 57.71875 49.75 
Q 55.21875 57.5625 50.484375 61.125 
Q 45.75 64.703125 38.578125 64.703125 
Q 30.328125 64.703125 24.78125 60.734375 
Q 19.234375 56.78125 16.984375 50.109375 
Q 14.75 43.453125 14.75 36.375 
Q 14.75 27.25 17.40625 20.4375 
Q 20.0625 13.625 25.671875 10.25 
Q 31.296875 6.890625 37.84375 6.890625 
Q 45.796875 6.890625 51.3125 11.46875 
Q 56.84375 16.0625 58.796875 25.09375 
z
" id="ArialMT-67"/>
      <path d="M 40.578125 0 
L 40.578125 7.625 
Q 34.515625 -1.171875 24.125 -1.171875 
Q 19.53125 -1.171875 15.546875 0.578125 
Q 11.578125 2.34375 9.640625 5 
Q 7.71875 7.671875 6.9375 11.53125 
Q 6.390625 14.109375 6.390625 19.734375 
L 6.390625 51.859375 
L 15.1875 51.859375 
L 15.1875 23.09375 
Q 15.1875 16.21875 15.71875 13.8125 
Q 16.546875 10.359375 19.234375 8.375 
Q 21.921875 6.390625 25.875 6.390625 
Q 29.828125 6.390625 33.296875 8.421875 
Q 36.765625 10.453125 38.203125 13.9375 
Q 39.65625 17.4375 39.65625 24.078125 
L 39.65625 51.859375 
L 48.4375 51.859375 
L 48.4375 0 
z
" id="ArialMT-117"/>
      <path d="M 25.78125 7.859375 
L 27.046875 0.09375 
Q 23.34375 -0.6875 20.40625 -0.6875 
Q 15.625 -0.6875 12.984375 0.828125 
Q 10.359375 2.34375 9.28125 4.8125 
Q 8.203125 7.28125 8.203125 15.1875 
L 8.203125 45.015625 
L 1.765625 45.015625 
L 1.765625 51.859375 
L 8.203125 51.859375 
L 8.203125 64.703125 
L 16.9375 69.96875 
L 16.9375 51.859375 
L 25.78125 51.859375 
L 25.78125 45.015625 
L 16.9375 45.015625 
L 16.9375 14.703125 
Q 16.9375 10.9375 17.40625 9.859375 
Q 17.875 8.796875 18.921875 8.15625 
Q 19.96875 7.515625 21.921875 7.515625 
Q 23.390625 7.515625 25.78125 7.859375 
z
" id="ArialMT-116"/>
      <path d="M 8.203125 0 
L 8.203125 71.578125 
L 56.5 71.578125 
L 56.5 63.140625 
L 17.671875 63.140625 
L 17.671875 40.96875 
L 51.265625 40.96875 
L 51.265625 32.515625 
L 17.671875 32.515625 
L 17.671875 0 
z
" id="ArialMT-70"/>
     </defs>
     <use xlink:href="#ArialMT-67"/>
     <use x="72.216797" xlink:href="#ArialMT-117"/>
     <use x="127.832031" xlink:href="#ArialMT-116"/>
     <use x="155.615234" xlink:href="#ArialMT-116"/>
     <use x="183.398438" xlink:href="#ArialMT-101"/>
     <use x="239.013672" xlink:href="#ArialMT-114"/>
     <use x="272.314453" xlink:href="#ArialMT-32"/>
     <use x="300.097656" xlink:href="#ArialMT-40"/>
     <use x="333.398438" xlink:href="#ArialMT-70"/>
     <use x="394.482422" xlink:href="#ArialMT-67"/>
     <use x="466.699219" xlink:href="#ArialMT-41"/>
    </g>
   </g>
   <g id="text_3">
    <!-- 4-Seam Fastball (FF) -->
    <g style="fill:#029e73;" transform="translate(153.381818 12.893523)scale(0.07 -0.07)">
     <defs>
      <path d="M 32.328125 0 
L 32.328125 17.140625 
L 1.265625 17.140625 
L 1.265625 25.203125 
L 33.9375 71.578125 
L 41.109375 71.578125 
L 41.109375 25.203125 
L 50.78125 25.203125 
L 50.78125 17.140625 
L 41.109375 17.140625 
L 41.109375 0 
z
M 32.328125 25.203125 
L 32.328125 57.46875 
L 9.90625 25.203125 
z
" id="ArialMT-52"/>
      <path d="M 3.171875 21.484375 
L 3.171875 30.328125 
L 30.171875 30.328125 
L 30.171875 21.484375 
z
" id="ArialMT-45"/>
      <path d="M 40.4375 6.390625 
Q 35.546875 2.25 31.03125 0.53125 
Q 26.515625 -1.171875 21.34375 -1.171875 
Q 12.796875 -1.171875 8.203125 3 
Q 3.609375 7.171875 3.609375 13.671875 
Q 3.609375 17.484375 5.34375 20.625 
Q 7.078125 23.78125 9.890625 25.6875 
Q 12.703125 27.59375 16.21875 28.5625 
Q 18.796875 29.25 24.03125 29.890625 
Q 34.671875 31.15625 39.703125 32.90625 
Q 39.75 34.71875 39.75 35.203125 
Q 39.75 40.578125 37.25 42.78125 
Q 33.890625 45.75 27.25 45.75 
Q 21.046875 45.75 18.09375 43.578125 
Q 15.140625 41.40625 13.71875 35.890625 
L 5.125 37.0625 
Q 6.296875 42.578125 8.984375 45.96875 
Q 11.671875 49.359375 16.75 51.1875 
Q 21.828125 53.03125 28.515625 53.03125 
Q 35.15625 53.03125 39.296875 51.46875 
Q 43.453125 49.90625 45.40625 47.53125 
Q 47.359375 45.171875 48.140625 41.546875 
Q 48.578125 39.3125 48.578125 33.453125 
L 48.578125 21.734375 
Q 48.578125 9.46875 49.140625 6.21875 
Q 49.703125 2.984375 51.375 0 
L 42.1875 0 
Q 40.828125 2.734375 40.4375 6.390625 
z
M 39.703125 26.03125 
Q 34.90625 24.078125 25.34375 22.703125 
Q 19.921875 21.921875 17.671875 20.9375 
Q 15.4375 19.96875 14.203125 18.09375 
Q 12.984375 16.21875 12.984375 13.921875 
Q 12.984375 10.40625 15.640625 8.0625 
Q 18.3125 5.71875 23.4375 5.71875 
Q 28.515625 5.71875 32.46875 7.9375 
Q 36.421875 10.15625 38.28125 14.015625 
Q 39.703125 17 39.703125 22.796875 
z
" id="ArialMT-97"/>
      <path d="M 6.59375 0 
L 6.59375 51.859375 
L 14.453125 51.859375 
L 14.453125 44.578125 
Q 16.890625 48.390625 20.9375 50.703125 
Q 25 53.03125 30.171875 53.03125 
Q 35.9375 53.03125 39.625 50.640625 
Q 43.3125 48.25 44.828125 43.953125 
Q 50.984375 53.03125 60.84375 53.03125 
Q 68.5625 53.03125 72.703125 48.75 
Q 76.859375 44.484375 76.859375 35.59375 
L 76.859375 0 
L 68.109375 0 
L 68.109375 32.671875 
Q 68.109375 37.9375 67.25 40.25 
Q 66.40625 42.578125 64.15625 43.984375 
Q 61.921875 45.40625 58.890625 45.40625 
Q 53.421875 45.40625 49.796875 41.765625 
Q 46.1875 38.140625 46.1875 30.125 
L 46.1875 0 
L 37.40625 0 
L 37.40625 33.6875 
Q 37.40625 39.546875 35.25 42.46875 
Q 33.109375 45.40625 28.21875 45.40625 
Q 24.515625 45.40625 21.359375 43.453125 
Q 18.21875 41.5 16.796875 37.734375 
Q 15.375 33.984375 15.375 26.90625 
L 15.375 0 
z
" id="ArialMT-109"/>
      <path d="M 3.078125 15.484375 
L 11.765625 16.84375 
Q 12.5 11.625 15.84375 8.84375 
Q 19.1875 6.0625 25.203125 6.0625 
Q 31.25 6.0625 34.171875 8.515625 
Q 37.109375 10.984375 37.109375 14.3125 
Q 37.109375 17.28125 34.515625 19 
Q 32.71875 20.171875 25.53125 21.96875 
Q 15.875 24.421875 12.140625 26.203125 
Q 8.40625 27.984375 6.46875 31.125 
Q 4.546875 34.28125 4.546875 38.09375 
Q 4.546875 41.546875 6.125 44.5 
Q 7.71875 47.46875 10.453125 49.421875 
Q 12.5 50.921875 16.03125 51.96875 
Q 19.578125 53.03125 23.640625 53.03125 
Q 29.734375 53.03125 34.34375 51.265625 
Q 38.96875 49.515625 41.15625 46.5 
Q 43.359375 43.5 44.1875 38.484375 
L 35.59375 37.3125 
Q 35.015625 41.3125 32.203125 43.546875 
Q 29.390625 45.796875 24.265625 45.796875 
Q 18.21875 45.796875 15.625 43.796875 
Q 13.03125 41.796875 13.03125 39.109375 
Q 13.03125 37.40625 14.109375 36.03125 
Q 15.1875 34.625 17.484375 33.6875 
Q 18.796875 33.203125 25.25 31.453125 
Q 34.578125 28.953125 38.25 27.359375 
Q 41.9375 25.78125 44.03125 22.75 
Q 46.140625 19.734375 46.140625 15.234375 
Q 46.140625 10.84375 43.578125 6.953125 
Q 41.015625 3.078125 36.171875 0.953125 
Q 31.34375 -1.171875 25.25 -1.171875 
Q 15.140625 -1.171875 9.84375 3.03125 
Q 4.546875 7.234375 3.078125 15.484375 
z
" id="ArialMT-115"/>
      <path d="M 14.703125 0 
L 6.546875 0 
L 6.546875 71.578125 
L 15.328125 71.578125 
L 15.328125 46.046875 
Q 20.90625 53.03125 29.546875 53.03125 
Q 34.328125 53.03125 38.59375 51.09375 
Q 42.875 49.171875 45.625 45.671875 
Q 48.390625 42.1875 49.953125 37.25 
Q 51.515625 32.328125 51.515625 26.703125 
Q 51.515625 13.375 44.921875 6.09375 
Q 38.328125 -1.171875 29.109375 -1.171875 
Q 19.921875 -1.171875 14.703125 6.5 
z
M 14.59375 26.3125 
Q 14.59375 17 17.140625 12.84375 
Q 21.296875 6.0625 28.375 6.0625 
Q 34.125 6.0625 38.328125 11.0625 
Q 42.53125 16.0625 42.53125 25.984375 
Q 42.53125 36.140625 38.5 40.96875 
Q 34.46875 45.796875 28.765625 45.796875 
Q 23 45.796875 18.796875 40.796875 
Q 14.59375 35.796875 14.59375 26.3125 
z
" id="ArialMT-98"/>
      <path d="M 6.390625 0 
L 6.390625 71.578125 
L 15.1875 71.578125 
L 15.1875 0 
z
" id="ArialMT-108"/>
     </defs>
     <use xlink:href="#ArialMT-52"/>
     <use x="55.615234" xlink:href="#ArialMT-45"/>
     <use x="88.916016" xlink:href="#ArialMT-83"/>
     <use x="155.615234" xlink:href="#ArialMT-101"/>
     <use x="211.230469" xlink:href="#ArialMT-97"/>
     <use x="266.845703" xlink:href="#ArialMT-109"/>
     <use x="350.146484" xlink:href="#ArialMT-32"/>
     <use x="377.929688" xlink:href="#ArialMT-70"/>
     <use x="439.013672" xlink:href="#ArialMT-97"/>
     <use x="494.628906" xlink:href="#ArialMT-115"/>
     <use x="544.628906" xlink:href="#ArialMT-116"/>
     <use x="572.412109" xlink:href="#ArialMT-98"/>
     <use x="628.027344" xlink:href="#ArialMT-97"/>
     <use x="683.642578" xlink:href="#ArialMT-108"/>
     <use x="705.859375" xlink:href="#ArialMT-108"/>
     <use x="728.076172" xlink:href="#ArialMT-32"/>
     <use x="755.859375" xlink:href="#ArialMT-40"/>
     <use x="789.160156" xlink:href="#ArialMT-70"/>
     <use x="850.244141" xlink:href="#ArialMT-70"/>
     <use x="911.328125" xlink:href="#ArialMT-41"/>
    </g>
   </g>
   <g id="text_4">
    <!-- Slider (SL) -->
    <g style="fill:#d55e00;" transform="translate(22.472727 2.338977)scale(0.07 -0.07)">
     <defs>
      <path d="M 40.234375 0 
L 40.234375 6.546875 
Q 35.296875 -1.171875 25.734375 -1.171875 
Q 19.53125 -1.171875 14.328125 2.25 
Q 9.125 5.671875 6.265625 11.796875 
Q 3.421875 17.921875 3.421875 25.875 
Q 3.421875 33.640625 6 39.96875 
Q 8.59375 46.296875 13.765625 49.65625 
Q 18.953125 53.03125 25.34375 53.03125 
Q 30.03125 53.03125 33.6875 51.046875 
Q 37.359375 49.078125 39.65625 45.90625 
L 39.65625 71.578125 
L 48.390625 71.578125 
L 48.390625 0 
z
M 12.453125 25.875 
Q 12.453125 15.921875 16.640625 10.984375 
Q 20.84375 6.0625 26.5625 6.0625 
Q 32.328125 6.0625 36.34375 10.765625 
Q 40.375 15.484375 40.375 25.140625 
Q 40.375 35.796875 36.265625 40.765625 
Q 32.171875 45.75 26.171875 45.75 
Q 20.3125 45.75 16.375 40.96875 
Q 12.453125 36.1875 12.453125 25.875 
z
" id="ArialMT-100"/>
      <path d="M 7.328125 0 
L 7.328125 71.578125 
L 16.796875 71.578125 
L 16.796875 8.453125 
L 52.046875 8.453125 
L 52.046875 0 
z
" id="ArialMT-76"/>
     </defs>
     <use xlink:href="#ArialMT-83"/>
     <use x="66.699219" xlink:href="#ArialMT-108"/>
     <use x="88.916016" xlink:href="#ArialMT-105"/>
     <use x="111.132812" xlink:href="#ArialMT-100"/>
     <use x="166.748047" xlink:href="#ArialMT-101"/>
     <use x="222.363281" xlink:href="#ArialMT-114"/>
     <use x="255.664062" xlink:href="#ArialMT-32"/>
     <use x="283.447266" xlink:href="#ArialMT-40"/>
     <use x="316.748047" xlink:href="#ArialMT-83"/>
     <use x="383.447266" xlink:href="#ArialMT-76"/>
     <use x="439.0625" xlink:href="#ArialMT-41"/>
    </g>
   </g>
   <g id="text_5">
    <!-- Curveball (CU) -->
    <g style="fill:#cc78bc;" transform="translate(77.018182 2.338977)scale(0.07 -0.07)">
     <defs>
      <path d="M 21 0 
L 1.265625 51.859375 
L 10.546875 51.859375 
L 21.6875 20.796875 
Q 23.484375 15.765625 25 10.359375 
Q 26.171875 14.453125 28.265625 20.21875 
L 39.796875 51.859375 
L 48.828125 51.859375 
L 29.203125 0 
z
" id="ArialMT-118"/>
      <path d="M 54.6875 71.578125 
L 64.15625 71.578125 
L 64.15625 30.21875 
Q 64.15625 19.4375 61.71875 13.078125 
Q 59.28125 6.734375 52.90625 2.75 
Q 46.53125 -1.21875 36.1875 -1.21875 
Q 26.125 -1.21875 19.71875 2.25 
Q 13.328125 5.71875 10.59375 12.28125 
Q 7.859375 18.84375 7.859375 30.21875 
L 7.859375 71.578125 
L 17.328125 71.578125 
L 17.328125 30.28125 
Q 17.328125 20.953125 19.0625 16.53125 
Q 20.796875 12.109375 25.015625 9.71875 
Q 29.25 7.328125 35.359375 7.328125 
Q 45.796875 7.328125 50.234375 12.0625 
Q 54.6875 16.796875 54.6875 30.28125 
z
" id="ArialMT-85"/>
     </defs>
     <use xlink:href="#ArialMT-67"/>
     <use x="72.216797" xlink:href="#ArialMT-117"/>
     <use x="127.832031" xlink:href="#ArialMT-114"/>
     <use x="161.132812" xlink:href="#ArialMT-118"/>
     <use x="211.132812" xlink:href="#ArialMT-101"/>
     <use x="266.748047" xlink:href="#ArialMT-98"/>
     <use x="322.363281" xlink:href="#ArialMT-97"/>
     <use x="377.978516" xlink:href="#ArialMT-108"/>
     <use x="400.195312" xlink:href="#ArialMT-108"/>
     <use x="422.412109" xlink:href="#ArialMT-32"/>
     <use x="450.195312" xlink:href="#ArialMT-40"/>
     <use x="483.496094" xlink:href="#ArialMT-67"/>
     <use x="555.712891" xlink:href="#ArialMT-85"/>
     <use x="627.929688" xlink:href="#ArialMT-41"/>
    </g>
   </g>
   <g id="text_6">
    <!-- Changeup (CH) -->
    <g style="fill:#ca9161;" transform="translate(153.381818 2.338977)scale(0.07 -0.07)">
     <defs>
      <path d="M 6.59375 0 
L 6.59375 71.578125 
L 15.375 71.578125 
L 15.375 45.90625 
Q 21.53125 53.03125 30.90625 53.03125 
Q 36.671875 53.03125 40.921875 50.75 
Q 45.171875 48.484375 47 44.484375 
Q 48.828125 40.484375 48.828125 32.859375 
L 48.828125 0 
L 40.046875 0 
L 40.046875 32.859375 
Q 40.046875 39.453125 37.1875 42.453125 
Q 34.328125 45.453125 29.109375 45.453125 
Q 25.203125 45.453125 21.75 43.421875 
Q 18.3125 41.40625 16.84375 37.9375 
Q 15.375 34.46875 15.375 28.375 
L 15.375 0 
z
" id="ArialMT-104"/>
      <path d="M 4.984375 -4.296875 
L 13.53125 -5.5625 
Q 14.0625 -9.515625 16.5 -11.328125 
Q 19.78125 -13.765625 25.4375 -13.765625 
Q 31.546875 -13.765625 34.859375 -11.328125 
Q 38.1875 -8.890625 39.359375 -4.5 
Q 40.046875 -1.8125 39.984375 6.78125 
Q 34.234375 0 25.640625 0 
Q 14.9375 0 9.078125 7.71875 
Q 3.21875 15.4375 3.21875 26.21875 
Q 3.21875 33.640625 5.90625 39.90625 
Q 8.59375 46.1875 13.6875 49.609375 
Q 18.796875 53.03125 25.6875 53.03125 
Q 34.859375 53.03125 40.828125 45.609375 
L 40.828125 51.859375 
L 48.921875 51.859375 
L 48.921875 7.03125 
Q 48.921875 -5.078125 46.453125 -10.125 
Q 44 -15.1875 38.640625 -18.109375 
Q 33.296875 -21.046875 25.484375 -21.046875 
Q 16.21875 -21.046875 10.5 -16.875 
Q 4.78125 -12.703125 4.984375 -4.296875 
z
M 12.25 26.859375 
Q 12.25 16.65625 16.296875 11.96875 
Q 20.359375 7.28125 26.46875 7.28125 
Q 32.515625 7.28125 36.609375 11.9375 
Q 40.71875 16.609375 40.71875 26.5625 
Q 40.71875 36.078125 36.5 40.90625 
Q 32.28125 45.75 26.3125 45.75 
Q 20.453125 45.75 16.34375 40.984375 
Q 12.25 36.234375 12.25 26.859375 
z
" id="ArialMT-103"/>
      <path d="M 6.59375 -19.875 
L 6.59375 51.859375 
L 14.59375 51.859375 
L 14.59375 45.125 
Q 17.4375 49.078125 21 51.046875 
Q 24.5625 53.03125 29.640625 53.03125 
Q 36.28125 53.03125 41.359375 49.609375 
Q 46.4375 46.1875 49.015625 39.953125 
Q 51.609375 33.734375 51.609375 26.3125 
Q 51.609375 18.359375 48.75 11.984375 
Q 45.90625 5.609375 40.453125 2.21875 
Q 35.015625 -1.171875 29 -1.171875 
Q 24.609375 -1.171875 21.109375 0.6875 
Q 17.625 2.546875 15.375 5.375 
L 15.375 -19.875 
z
M 14.546875 25.640625 
Q 14.546875 15.625 18.59375 10.84375 
Q 22.65625 6.0625 28.421875 6.0625 
Q 34.28125 6.0625 38.453125 11.015625 
Q 42.625 15.96875 42.625 26.375 
Q 42.625 36.28125 38.546875 41.203125 
Q 34.46875 46.140625 28.8125 46.140625 
Q 23.1875 46.140625 18.859375 40.890625 
Q 14.546875 35.640625 14.546875 25.640625 
z
" id="ArialMT-112"/>
      <path d="M 8.015625 0 
L 8.015625 71.578125 
L 17.484375 71.578125 
L 17.484375 42.1875 
L 54.6875 42.1875 
L 54.6875 71.578125 
L 64.15625 71.578125 
L 64.15625 0 
L 54.6875 0 
L 54.6875 33.734375 
L 17.484375 33.734375 
L 17.484375 0 
z
" id="ArialMT-72"/>
     </defs>
     <use xlink:href="#ArialMT-67"/>
     <use x="72.216797" xlink:href="#ArialMT-104"/>
     <use x="127.832031" xlink:href="#ArialMT-97"/>
     <use x="183.447266" xlink:href="#ArialMT-110"/>
     <use x="239.0625" xlink:href="#ArialMT-103"/>
     <use x="294.677734" xlink:href="#ArialMT-101"/>
     <use x="350.292969" xlink:href="#ArialMT-117"/>
     <use x="405.908203" xlink:href="#ArialMT-112"/>
     <use x="461.523438" xlink:href="#ArialMT-32"/>
     <use x="489.306641" xlink:href="#ArialMT-40"/>
     <use x="522.607422" xlink:href="#ArialMT-67"/>
     <use x="594.824219" xlink:href="#ArialMT-72"/>
     <use x="667.041016" xlink:href="#ArialMT-41"/>
    </g>
   </g>
  </g>
  <g id="axes_2">
   <g id="patch_2">
    <path d="M 0.198 76.71482 
L 82.6155 76.71482 
L 82.6155 38.7 
L 0.198 38.7 
z
" style="fill:none;opacity:0;"/>
   </g>
   <g id="patch_3">
    <path clip-path="url(#p95fed1efaa)" d="M 66.38175 76.71482 
L 78.86925 76.71482 
L 78.86925 63.861644 
L 66.38175 63.861644 
z
" style="fill:#ca9161;fill-opacity:0.75;stroke:#000000;stroke-linejoin:miter;"/>
   </g>
   <g id="patch_4">
    <path clip-path="url(#p95fed1efaa)" d="M 53.89425 76.71482 
L 66.38175 76.71482 
L 66.38175 68.675612 
L 53.89425 68.675612 
z
" style="fill:#cc78bc;fill-opacity:0.75;stroke:#000000;stroke-linejoin:miter;"/>
   </g>
   <g id="patch_5">
    <path clip-path="url(#p95fed1efaa)" d="M 41.40675 76.71482 
L 53.89425 76.71482 
L 53.89425 64.482801 
L 41.40675 64.482801 
z
" style="fill:#d55e00;fill-opacity:0.75;stroke:#000000;stroke-linejoin:miter;"/>
   </g>
   <g id="patch_6">
    <path clip-path="url(#p95fed1efaa)" d="M 28.91925 76.71482 
L 41.40675 76.71482 
L 41.40675 51.23543 
L 28.91925 51.23543 
z
" style="fill:#029e73;fill-opacity:0.75;stroke:#000000;stroke-linejoin:miter;"/>
   </g>
   <g id="patch_7">
    <path clip-path="url(#p95fed1efaa)" d="M 16.43175 76.71482 
L 28.91925 76.71482 
L 28.91925 76.702874 
L 16.43175 76.702874 
z
" style="fill:#de8f05;fill-opacity:0.75;stroke:#000000;stroke-linejoin:miter;"/>
   </g>
   <g id="patch_8">
    <path clip-path="url(#p95fed1efaa)" d="M 3.94425 76.71482 
L 16.43175 76.71482 
L 16.43175 71.972523 
L 3.94425 71.972523 
z
" style="fill:#0173b2;fill-opacity:0.75;stroke:#000000;stroke-linejoin:miter;"/>
   </g>
   <g id="matplotlib.axis_1"/>
   <g id="patch_9">
    <path d="M 0.198 76.71482 
L 82.6155 76.71482 
" style="fill:none;stroke:#000000;stroke-linecap:square;stroke-linejoin:miter;stroke-width:0.8;"/>
   </g>
   <g id="text_7">
    <!-- SI -->
    <g style="fill:#0173b2;" transform="translate(7.955657 86.348874)rotate(-25)scale(0.07 -0.07)">
     <use xlink:href="#ArialMT-83"/>
     <use x="66.699219" xlink:href="#ArialMT-73"/>
    </g>
   </g>
   <g id="text_8">
    <!-- 8% -->
    <g style="fill:#0173b2;" transform="translate(6.368131 68.934971)rotate(-25)scale(0.07 -0.07)">
     <defs>
      <path d="M 17.671875 38.8125 
Q 12.203125 40.828125 9.5625 44.53125 
Q 6.9375 48.25 6.9375 53.421875 
Q 6.9375 61.234375 12.546875 66.546875 
Q 18.171875 71.875 27.484375 71.875 
Q 36.859375 71.875 42.578125 66.421875 
Q 48.296875 60.984375 48.296875 53.171875 
Q 48.296875 48.1875 45.671875 44.5 
Q 43.0625 40.828125 37.75 38.8125 
Q 44.34375 36.671875 47.78125 31.875 
Q 51.21875 27.09375 51.21875 20.453125 
Q 51.21875 11.28125 44.71875 5.03125 
Q 38.234375 -1.21875 27.640625 -1.21875 
Q 17.046875 -1.21875 10.546875 5.046875 
Q 4.046875 11.328125 4.046875 20.703125 
Q 4.046875 27.6875 7.59375 32.390625 
Q 11.140625 37.109375 17.671875 38.8125 
z
M 15.921875 53.71875 
Q 15.921875 48.640625 19.1875 45.40625 
Q 22.46875 42.1875 27.6875 42.1875 
Q 32.765625 42.1875 36.015625 45.375 
Q 39.265625 48.578125 39.265625 53.21875 
Q 39.265625 58.0625 35.90625 61.359375 
Q 32.5625 64.65625 27.59375 64.65625 
Q 22.5625 64.65625 19.234375 61.421875 
Q 15.921875 58.203125 15.921875 53.71875 
z
M 13.09375 20.65625 
Q 13.09375 16.890625 14.875 13.375 
Q 16.65625 9.859375 20.171875 7.921875 
Q 23.6875 6 27.734375 6 
Q 34.03125 6 38.125 10.046875 
Q 42.234375 14.109375 42.234375 20.359375 
Q 42.234375 26.703125 38.015625 30.859375 
Q 33.796875 35.015625 27.4375 35.015625 
Q 21.234375 35.015625 17.15625 30.90625 
Q 13.09375 26.8125 13.09375 20.65625 
z
" id="ArialMT-56"/>
      <path d="M 5.8125 54.390625 
Q 5.8125 62.0625 9.671875 67.421875 
Q 13.53125 72.796875 20.84375 72.796875 
Q 27.59375 72.796875 32 67.984375 
Q 36.421875 63.1875 36.421875 53.859375 
Q 36.421875 44.78125 31.953125 39.875 
Q 27.484375 34.96875 20.953125 34.96875 
Q 14.453125 34.96875 10.125 39.796875 
Q 5.8125 44.625 5.8125 54.390625 
z
M 21.09375 66.75 
Q 17.828125 66.75 15.65625 63.90625 
Q 13.484375 61.078125 13.484375 53.515625 
Q 13.484375 46.625 15.671875 43.8125 
Q 17.875 41.015625 21.09375 41.015625 
Q 24.421875 41.015625 26.59375 43.84375 
Q 28.765625 46.6875 28.765625 54.203125 
Q 28.765625 61.140625 26.5625 63.9375 
Q 24.359375 66.75 21.09375 66.75 
z
M 21.140625 -2.640625 
L 60.296875 72.796875 
L 67.4375 72.796875 
L 28.421875 -2.640625 
z
M 52.09375 16.796875 
Q 52.09375 24.515625 55.953125 29.859375 
Q 59.8125 35.203125 67.1875 35.203125 
Q 73.921875 35.203125 78.34375 30.390625 
Q 82.765625 25.59375 82.765625 16.265625 
Q 82.765625 7.171875 78.296875 2.265625 
Q 73.828125 -2.640625 67.234375 -2.640625 
Q 60.75 -2.640625 56.421875 2.21875 
Q 52.09375 7.078125 52.09375 16.796875 
z
M 67.4375 29.15625 
Q 64.109375 29.15625 61.9375 26.3125 
Q 59.765625 23.484375 59.765625 15.921875 
Q 59.765625 9.078125 61.953125 6.25 
Q 64.15625 3.421875 67.390625 3.421875 
Q 70.75 3.421875 72.921875 6.25 
Q 75.09375 9.078125 75.09375 16.609375 
Q 75.09375 23.53125 72.890625 26.34375 
Q 70.703125 29.15625 67.4375 29.15625 
z
" id="ArialMT-37"/>
     </defs>
     <use xlink:href="#ArialMT-56"/>
     <use x="55.615234" xlink:href="#ArialMT-37"/>
    </g>
   </g>
   <g id="text_9">
    <!-- FC -->
    <g style="fill:#de8f05;" transform="translate(19.211994 86.348874)rotate(-25)scale(0.07 -0.07)">
     <use xlink:href="#ArialMT-70"/>
     <use x="61.083984" xlink:href="#ArialMT-67"/>
    </g>
   </g>
   <g id="text_10">
    <!-- 1% -->
    <g style="fill:#de8f05;" transform="translate(18.855631 73.665322)rotate(-25)scale(0.07 -0.07)">
     <defs>
      <path d="M 37.25 0 
L 28.46875 0 
L 28.46875 56 
Q 25.296875 52.984375 20.140625 49.953125 
Q 14.984375 46.921875 10.890625 45.40625 
L 10.890625 53.90625 
Q 18.265625 57.375 23.78125 62.296875 
Q 29.296875 67.234375 31.59375 71.875 
L 37.25 71.875 
z
" id="ArialMT-49"/>
     </defs>
     <use xlink:href="#ArialMT-49"/>
     <use x="55.615234" xlink:href="#ArialMT-37"/>
    </g>
   </g>
   <g id="text_11">
    <!-- FF -->
    <g style="fill:#029e73;" transform="translate(32.052883 86.348874)rotate(-25)scale(0.07 -0.07)">
     <use xlink:href="#ArialMT-70"/>
     <use x="61.083984" xlink:href="#ArialMT-70"/>
    </g>
   </g>
   <g id="text_12">
    <!-- 41% -->
    <g style="fill:#029e73;" transform="translate(29.579159 48.197877)rotate(-25)scale(0.07 -0.07)">
     <use xlink:href="#ArialMT-52"/>
     <use x="55.615234" xlink:href="#ArialMT-49"/>
     <use x="111.230469" xlink:href="#ArialMT-37"/>
    </g>
   </g>
   <g id="text_13">
    <!-- SL -->
    <g style="fill:#d55e00;" transform="translate(44.535427 86.348874)rotate(-25)scale(0.07 -0.07)">
     <use xlink:href="#ArialMT-83"/>
     <use x="66.699219" xlink:href="#ArialMT-76"/>
    </g>
   </g>
   <g id="text_14">
    <!-- 20% -->
    <g style="fill:#d55e00;" transform="translate(42.066659 61.445249)rotate(-25)scale(0.07 -0.07)">
     <defs>
      <path d="M 50.34375 8.453125 
L 50.34375 0 
L 3.03125 0 
Q 2.9375 3.171875 4.046875 6.109375 
Q 5.859375 10.9375 9.828125 15.625 
Q 13.8125 20.3125 21.34375 26.46875 
Q 33.015625 36.03125 37.109375 41.625 
Q 41.21875 47.21875 41.21875 52.203125 
Q 41.21875 57.421875 37.46875 61 
Q 33.734375 64.59375 27.734375 64.59375 
Q 21.390625 64.59375 17.578125 60.78125 
Q 13.765625 56.984375 13.71875 50.25 
L 4.6875 51.171875 
Q 5.609375 61.28125 11.65625 66.578125 
Q 17.71875 71.875 27.9375 71.875 
Q 38.234375 71.875 44.234375 66.15625 
Q 50.25 60.453125 50.25 52 
Q 50.25 47.703125 48.484375 43.546875 
Q 46.734375 39.40625 42.65625 34.8125 
Q 38.578125 30.21875 29.109375 22.21875 
Q 21.1875 15.578125 18.9375 13.203125 
Q 16.703125 10.84375 15.234375 8.453125 
z
" id="ArialMT-50"/>
      <path d="M 4.15625 35.296875 
Q 4.15625 48 6.765625 55.734375 
Q 9.375 63.484375 14.515625 67.671875 
Q 19.671875 71.875 27.484375 71.875 
Q 33.25 71.875 37.59375 69.546875 
Q 41.9375 67.234375 44.765625 62.859375 
Q 47.609375 58.5 49.21875 52.21875 
Q 50.828125 45.953125 50.828125 35.296875 
Q 50.828125 22.703125 48.234375 14.96875 
Q 45.65625 7.234375 40.5 3 
Q 35.359375 -1.21875 27.484375 -1.21875 
Q 17.140625 -1.21875 11.234375 6.203125 
Q 4.15625 15.140625 4.15625 35.296875 
z
M 13.1875 35.296875 
Q 13.1875 17.671875 17.3125 11.828125 
Q 21.4375 6 27.484375 6 
Q 33.546875 6 37.671875 11.859375 
Q 41.796875 17.71875 41.796875 35.296875 
Q 41.796875 52.984375 37.671875 58.78125 
Q 33.546875 64.59375 27.390625 64.59375 
Q 21.34375 64.59375 17.71875 59.46875 
Q 13.1875 52.9375 13.1875 35.296875 
z
" id="ArialMT-48"/>
     </defs>
     <use xlink:href="#ArialMT-50"/>
     <use x="55.615234" xlink:href="#ArialMT-48"/>
     <use x="111.230469" xlink:href="#ArialMT-37"/>
    </g>
   </g>
   <g id="text_15">
    <!-- CU -->
    <g style="fill:#cc78bc;" transform="translate(56.321105 86.348874)rotate(-25)scale(0.07 -0.07)">
     <use xlink:href="#ArialMT-67"/>
     <use x="72.216797" xlink:href="#ArialMT-85"/>
    </g>
   </g>
   <g id="text_16">
    <!-- 13% -->
    <g style="fill:#cc78bc;" transform="translate(54.554159 65.63806)rotate(-25)scale(0.07 -0.07)">
     <defs>
      <path d="M 4.203125 18.890625 
L 12.984375 20.0625 
Q 14.5 12.59375 18.140625 9.296875 
Q 21.78125 6 27 6 
Q 33.203125 6 37.46875 10.296875 
Q 41.75 14.59375 41.75 20.953125 
Q 41.75 27 37.796875 30.921875 
Q 33.84375 34.859375 27.734375 34.859375 
Q 25.25 34.859375 21.53125 33.890625 
L 22.515625 41.609375 
Q 23.390625 41.5 23.921875 41.5 
Q 29.546875 41.5 34.03125 44.421875 
Q 38.53125 47.359375 38.53125 53.46875 
Q 38.53125 58.296875 35.25 61.46875 
Q 31.984375 64.65625 26.8125 64.65625 
Q 21.6875 64.65625 18.265625 61.421875 
Q 14.84375 58.203125 13.875 51.765625 
L 5.078125 53.328125 
Q 6.6875 62.15625 12.390625 67.015625 
Q 18.109375 71.875 26.609375 71.875 
Q 32.46875 71.875 37.390625 69.359375 
Q 42.328125 66.84375 44.9375 62.5 
Q 47.5625 58.15625 47.5625 53.265625 
Q 47.5625 48.640625 45.0625 44.828125 
Q 42.578125 41.015625 37.703125 38.765625 
Q 44.046875 37.3125 47.5625 32.6875 
Q 51.078125 28.078125 51.078125 21.140625 
Q 51.078125 11.765625 44.234375 5.25 
Q 37.40625 -1.265625 26.953125 -1.265625 
Q 17.53125 -1.265625 11.296875 4.34375 
Q 5.078125 9.96875 4.203125 18.890625 
z
" id="ArialMT-51"/>
     </defs>
     <use xlink:href="#ArialMT-49"/>
     <use x="55.615234" xlink:href="#ArialMT-51"/>
     <use x="111.230469" xlink:href="#ArialMT-37"/>
    </g>
   </g>
   <g id="text_17">
    <!-- CH -->
    <g style="fill:#ca9161;" transform="translate(68.808605 86.348874)rotate(-25)scale(0.07 -0.07)">
     <use xlink:href="#ArialMT-67"/>
     <use x="72.216797" xlink:href="#ArialMT-72"/>
    </g>
   </g>
   <g id="text_18">
    <!-- 21% -->
    <g style="fill:#ca9161;" transform="translate(67.041659 60.824092)rotate(-25)scale(0.07 -0.07)">
     <use xlink:href="#ArialMT-50"/>
     <use x="55.615234" xlink:href="#ArialMT-49"/>
     <use x="111.230469" xlink:href="#ArialMT-37"/>
    </g>
   </g>
   <g id="text_19">
    <!-- Pitch distribution -->
    <g transform="translate(4.723937 32.7)scale(0.1 -0.1)">
     <defs>
      <path d="M 7.71875 0 
L 7.71875 71.578125 
L 34.71875 71.578125 
Q 41.84375 71.578125 45.609375 70.90625 
Q 50.875 70.015625 54.4375 67.546875 
Q 58.015625 65.09375 60.1875 60.640625 
Q 62.359375 56.203125 62.359375 50.875 
Q 62.359375 41.75 56.546875 35.421875 
Q 50.734375 29.109375 35.546875 29.109375 
L 17.1875 29.109375 
L 17.1875 0 
z
M 17.1875 37.546875 
L 35.6875 37.546875 
Q 44.875 37.546875 48.734375 40.96875 
Q 52.59375 44.390625 52.59375 50.59375 
Q 52.59375 55.078125 50.3125 58.265625 
Q 48.046875 61.46875 44.34375 62.5 
Q 41.9375 63.140625 35.5 63.140625 
L 17.1875 63.140625 
z
" id="ArialMT-80"/>
      <path d="M 40.4375 19 
L 49.078125 17.875 
Q 47.65625 8.9375 41.8125 3.875 
Q 35.984375 -1.171875 27.484375 -1.171875 
Q 16.84375 -1.171875 10.375 5.78125 
Q 3.90625 12.75 3.90625 25.734375 
Q 3.90625 34.125 6.6875 40.421875 
Q 9.46875 46.734375 15.15625 49.875 
Q 20.84375 53.03125 27.546875 53.03125 
Q 35.984375 53.03125 41.359375 48.75 
Q 46.734375 44.484375 48.25 36.625 
L 39.703125 35.296875 
Q 38.484375 40.53125 35.375 43.15625 
Q 32.28125 45.796875 27.875 45.796875 
Q 21.234375 45.796875 17.078125 41.03125 
Q 12.9375 36.28125 12.9375 25.984375 
Q 12.9375 15.53125 16.9375 10.796875 
Q 20.953125 6.0625 27.390625 6.0625 
Q 32.5625 6.0625 36.03125 9.234375 
Q 39.5 12.40625 40.4375 19 
z
" id="ArialMT-99"/>
      <path d="M 3.328125 25.921875 
Q 3.328125 40.328125 11.328125 47.265625 
Q 18.015625 53.03125 27.640625 53.03125 
Q 38.328125 53.03125 45.109375 46.015625 
Q 51.90625 39.015625 51.90625 26.65625 
Q 51.90625 16.65625 48.90625 10.90625 
Q 45.90625 5.171875 40.15625 2 
Q 34.421875 -1.171875 27.640625 -1.171875 
Q 16.75 -1.171875 10.03125 5.8125 
Q 3.328125 12.796875 3.328125 25.921875 
z
M 12.359375 25.921875 
Q 12.359375 15.96875 16.703125 11.015625 
Q 21.046875 6.0625 27.640625 6.0625 
Q 34.1875 6.0625 38.53125 11.03125 
Q 42.875 16.015625 42.875 26.21875 
Q 42.875 35.84375 38.5 40.796875 
Q 34.125 45.75 27.640625 45.75 
Q 21.046875 45.75 16.703125 40.8125 
Q 12.359375 35.890625 12.359375 25.921875 
z
" id="ArialMT-111"/>
     </defs>
     <use xlink:href="#ArialMT-80"/>
     <use x="66.699219" xlink:href="#ArialMT-105"/>
     <use x="88.916016" xlink:href="#ArialMT-116"/>
     <use x="116.699219" xlink:href="#ArialMT-99"/>
     <use x="166.699219" xlink:href="#ArialMT-104"/>
     <use x="222.314453" xlink:href="#ArialMT-32"/>
     <use x="250.097656" xlink:href="#ArialMT-100"/>
     <use x="305.712891" xlink:href="#ArialMT-105"/>
     <use x="327.929688" xlink:href="#ArialMT-115"/>
     <use x="377.929688" xlink:href="#ArialMT-116"/>
     <use x="405.712891" xlink:href="#ArialMT-114"/>
     <use x="439.013672" xlink:href="#ArialMT-105"/>
     <use x="461.230469" xlink:href="#ArialMT-98"/>
     <use x="516.845703" xlink:href="#ArialMT-117"/>
     <use x="572.460938" xlink:href="#ArialMT-116"/>
     <use x="600.244141" xlink:href="#ArialMT-105"/>
     <use x="622.460938" xlink:href="#ArialMT-111"/>
     <use x="678.076172" xlink:href="#ArialMT-110"/>
    </g>
   </g>
  </g>
  <g id="axes_3">
   <g id="patch_10">
    <path d="M 115.5825 76.71482 
L 198 76.71482 
L 198 38.7 
L 115.5825 38.7 
z
" style="fill:none;opacity:0;"/>
   </g>
   <g id="matplotlib.axis_2">
    <g id="xtick_1">
     <g id="line2d_7">
      <defs>
       <path d="M 0 0 
L 0 3.5 
" id="m76a1c070ba" style="stroke:#000000;stroke-width:0.8;"/>
      </defs>
      <g>
       <use style="stroke:#000000;stroke-width:0.8;" x="123.82425" xlink:href="#m76a1c070ba" y="76.71482"/>
      </g>
     </g>
     <g id="text_20">
      <!-- 60 -->
      <g transform="translate(119.931594 88.725288)scale(0.07 -0.07)">
       <defs>
        <path d="M 49.75 54.046875 
L 41.015625 53.375 
Q 39.84375 58.546875 37.703125 60.890625 
Q 34.125 64.65625 28.90625 64.65625 
Q 24.703125 64.65625 21.53125 62.3125 
Q 17.390625 59.28125 14.984375 53.46875 
Q 12.59375 47.65625 12.5 36.921875 
Q 15.671875 41.75 20.265625 44.09375 
Q 24.859375 46.4375 29.890625 46.4375 
Q 38.671875 46.4375 44.84375 39.96875 
Q 51.03125 33.5 51.03125 23.25 
Q 51.03125 16.5 48.125 10.71875 
Q 45.21875 4.9375 40.140625 1.859375 
Q 35.0625 -1.21875 28.609375 -1.21875 
Q 17.625 -1.21875 10.6875 6.859375 
Q 3.765625 14.9375 3.765625 33.5 
Q 3.765625 54.25 11.421875 63.671875 
Q 18.109375 71.875 29.4375 71.875 
Q 37.890625 71.875 43.28125 67.140625 
Q 48.6875 62.40625 49.75 54.046875 
z
M 13.875 23.1875 
Q 13.875 18.65625 15.796875 14.5 
Q 17.71875 10.359375 21.1875 8.171875 
Q 24.65625 6 28.46875 6 
Q 34.03125 6 38.03125 10.484375 
Q 42.046875 14.984375 42.046875 22.703125 
Q 42.046875 30.125 38.078125 34.390625 
Q 34.125 38.671875 28.125 38.671875 
Q 22.171875 38.671875 18.015625 34.390625 
Q 13.875 30.125 13.875 23.1875 
z
" id="ArialMT-54"/>
       </defs>
       <use xlink:href="#ArialMT-54"/>
       <use x="55.615234" xlink:href="#ArialMT-48"/>
      </g>
     </g>
    </g>
    <g id="xtick_2">
     <g id="line2d_8">
      <g>
       <use style="stroke:#000000;stroke-width:0.8;" x="140.30775" xlink:href="#m76a1c070ba" y="76.71482"/>
      </g>
     </g>
     <g id="text_21">
      <!-- 70 -->
      <g transform="translate(136.415094 88.725288)scale(0.07 -0.07)">
       <defs>
        <path d="M 4.734375 62.203125 
L 4.734375 70.65625 
L 51.078125 70.65625 
L 51.078125 63.8125 
Q 44.234375 56.546875 37.515625 44.484375 
Q 30.8125 32.421875 27.15625 19.671875 
Q 24.515625 10.6875 23.78125 0 
L 14.75 0 
Q 14.890625 8.453125 18.0625 20.40625 
Q 21.234375 32.375 27.171875 43.484375 
Q 33.109375 54.59375 39.796875 62.203125 
z
" id="ArialMT-55"/>
       </defs>
       <use xlink:href="#ArialMT-55"/>
       <use x="55.615234" xlink:href="#ArialMT-48"/>
      </g>
     </g>
    </g>
    <g id="xtick_3">
     <g id="line2d_9">
      <g>
       <use style="stroke:#000000;stroke-width:0.8;" x="156.79125" xlink:href="#m76a1c070ba" y="76.71482"/>
      </g>
     </g>
     <g id="text_22">
      <!-- 80 -->
      <g transform="translate(152.898594 88.725288)scale(0.07 -0.07)">
       <use xlink:href="#ArialMT-56"/>
       <use x="55.615234" xlink:href="#ArialMT-48"/>
      </g>
     </g>
    </g>
    <g id="xtick_4">
     <g id="line2d_10">
      <g>
       <use style="stroke:#000000;stroke-width:0.8;" x="173.27475" xlink:href="#m76a1c070ba" y="76.71482"/>
      </g>
     </g>
     <g id="text_23">
      <!-- 90 -->
      <g transform="translate(169.382094 88.725288)scale(0.07 -0.07)">
       <defs>
        <path d="M 5.46875 16.546875 
L 13.921875 17.328125 
Q 14.984375 11.375 18.015625 8.6875 
Q 21.046875 6 25.78125 6 
Q 29.828125 6 32.875 7.859375 
Q 35.9375 9.71875 37.890625 12.8125 
Q 39.84375 15.921875 41.15625 21.1875 
Q 42.484375 26.46875 42.484375 31.9375 
Q 42.484375 32.515625 42.4375 33.6875 
Q 39.796875 29.5 35.234375 26.875 
Q 30.671875 24.265625 25.34375 24.265625 
Q 16.453125 24.265625 10.296875 30.703125 
Q 4.15625 37.15625 4.15625 47.703125 
Q 4.15625 58.59375 10.578125 65.234375 
Q 17 71.875 26.65625 71.875 
Q 33.640625 71.875 39.421875 68.109375 
Q 45.21875 64.359375 48.21875 57.390625 
Q 51.21875 50.4375 51.21875 37.25 
Q 51.21875 23.53125 48.234375 15.40625 
Q 45.265625 7.28125 39.375 3.03125 
Q 33.5 -1.21875 25.59375 -1.21875 
Q 17.1875 -1.21875 11.859375 3.4375 
Q 6.546875 8.109375 5.46875 16.546875 
z
M 41.453125 48.140625 
Q 41.453125 55.71875 37.421875 60.15625 
Q 33.40625 64.59375 27.734375 64.59375 
Q 21.875 64.59375 17.53125 59.8125 
Q 13.1875 55.03125 13.1875 47.40625 
Q 13.1875 40.578125 17.3125 36.296875 
Q 21.4375 32.03125 27.484375 32.03125 
Q 33.59375 32.03125 37.515625 36.296875 
Q 41.453125 40.578125 41.453125 48.140625 
z
" id="ArialMT-57"/>
       </defs>
       <use xlink:href="#ArialMT-57"/>
       <use x="55.615234" xlink:href="#ArialMT-48"/>
      </g>
     </g>
    </g>
    <g id="xtick_5">
     <g id="line2d_11">
      <g>
       <use style="stroke:#000000;stroke-width:0.8;" x="189.75825" xlink:href="#m76a1c070ba" y="76.71482"/>
      </g>
     </g>
     <g id="text_24">
      <!-- 100 -->
      <g transform="translate(183.919266 88.725288)scale(0.07 -0.07)">
       <use xlink:href="#ArialMT-49"/>
       <use x="55.615234" xlink:href="#ArialMT-48"/>
       <use x="111.230469" xlink:href="#ArialMT-48"/>
      </g>
     </g>
    </g>
   </g>
   <g id="line2d_12">
    <path clip-path="url(#p5b1feed5f6)" d="M 158.806522 76.713758 
L 160.499114 76.590656 
L 162.28079 76.364752 
L 163.082544 76.054513 
L 163.438879 75.686202 
L 163.795215 74.945176 
L 164.329717 73.204219 
L 164.953304 70.524146 
L 165.487807 67.051085 
L 167.269483 53.730938 
L 167.625818 52.507956 
L 167.89307 52.215465 
L 168.160321 52.249899 
L 168.516656 52.592373 
L 169.051159 53.501534 
L 169.496578 54.659485 
L 169.852913 56.173532 
L 170.387416 59.674867 
L 171.634589 68.381572 
L 172.169092 70.803887 
L 172.703595 72.234889 
L 173.416265 73.535643 
L 174.128936 74.723051 
L 174.93069 76.111475 
L 175.465193 76.534083 
L 176.088779 76.693585 
L 176.534198 76.712516 
L 176.534198 76.712516 
" style="fill:none;stroke:#ca9161;stroke-linecap:square;stroke-width:1.5;"/>
   </g>
   <g id="line2d_13">
    <path clip-path="url(#p5b1feed5f6)" d="M 121.190501 76.714387 
L 129.935927 76.598778 
L 131.724765 76.417115 
L 133.314842 76.012719 
L 134.5074 75.466325 
L 135.699958 74.614533 
L 137.290036 73.152611 
L 139.277633 71.356608 
L 140.271431 70.750987 
L 141.26523 70.442334 
L 142.259028 70.384429 
L 143.252826 70.56145 
L 146.035462 71.312476 
L 147.22802 71.600917 
L 148.619338 72.224016 
L 150.408175 73.198707 
L 151.600733 74.144792 
L 153.58833 75.764375 
L 154.582129 76.275055 
L 155.575927 76.536011 
L 157.166004 76.662116 
L 160.743679 76.714386 
L 160.743679 76.714386 
" style="fill:none;stroke:#cc78bc;stroke-linecap:square;stroke-width:1.5;"/>
   </g>
   <g id="line2d_14">
    <path clip-path="url(#p5b1feed5f6)" d="M 149.376874 76.714127 
L 153.387479 76.594159 
L 155.323633 76.354905 
L 156.015117 76.007792 
L 156.983194 75.207527 
L 158.089567 74.3579 
L 158.781051 73.787714 
L 159.195941 73.139381 
L 159.749128 71.72264 
L 160.578908 68.744411 
L 162.238469 62.756684 
L 163.206546 60.041591 
L 163.621436 59.41516 
L 163.898029 59.322012 
L 164.174623 59.477748 
L 164.589513 60.020649 
L 165.280997 61.277153 
L 165.834183 62.824028 
L 166.525667 65.746654 
L 167.355447 69.07789 
L 167.770337 70.0511 
L 168.185228 70.527923 
L 168.738415 70.731454 
L 169.291601 71.003261 
L 169.706492 71.467878 
L 170.674569 73.074896 
L 171.919239 74.976298 
L 172.610723 75.730043 
L 173.302206 76.154362 
L 174.270283 76.434559 
L 175.929844 76.692059 
L 176.897921 76.713698 
L 176.897921 76.713698 
" style="fill:none;stroke:#d55e00;stroke-linecap:square;stroke-width:1.5;"/>
   </g>
   <g id="line2d_15">
    <path clip-path="url(#p5b1feed5f6)" d="M 162.685432 76.713736 
L 164.122802 76.606852 
L 165.22847 76.539425 
L 166.113006 76.453216 
L 166.66584 76.150868 
L 167.108108 75.599636 
L 167.550375 74.65757 
L 168.10321 72.914545 
L 168.656044 70.510439 
L 169.098312 67.687068 
L 169.87228 60.621156 
L 170.425114 56.330747 
L 171.199082 52.491321 
L 171.751917 49.047749 
L 172.525885 43.82313 
L 172.857586 42.682567 
L 173.299853 42.003467 
L 173.852688 41.152657 
L 174.294955 40.545807 
L 174.516089 40.544439 
L 174.737223 40.843095 
L 175.068924 41.856449 
L 175.511191 44.054749 
L 176.285159 49.338667 
L 178.938765 68.237217 
L 179.381032 69.829531 
L 180.155001 71.481287 
L 182.034638 75.233569 
L 182.698039 76.080242 
L 183.250873 76.482103 
L 183.914275 76.676796 
L 184.688243 76.713368 
L 184.688243 76.713368 
" style="fill:none;stroke:#029e73;stroke-linecap:square;stroke-width:1.5;"/>
   </g>
   <g id="line2d_16">
    <path clip-path="url(#p5b1feed5f6)" d="M 165.917758 76.713859 
L 167.695962 76.598044 
L 168.980221 76.272207 
L 169.474166 75.92265 
L 170.066901 75.175782 
L 170.857214 73.713007 
L 172.339051 70.719876 
L 173.623309 69.162209 
L 174.117255 68.771028 
L 174.512411 68.746819 
L 174.907568 68.980515 
L 175.500302 69.677364 
L 177.476084 72.714991 
L 178.562765 74.544527 
L 179.254288 75.212588 
L 180.14339 75.703592 
L 182.119173 76.557198 
L 184.490111 76.692143 
L 185.576792 76.714044 
L 185.576792 76.714044 
" style="fill:none;stroke:#0173b2;stroke-linecap:square;stroke-width:1.5;"/>
   </g>
   <g id="patch_11">
    <path d="M 115.5825 76.71482 
L 198 76.71482 
" style="fill:none;stroke:#000000;stroke-linecap:square;stroke-linejoin:miter;stroke-width:0.8;"/>
   </g>
   <g id="text_25">
    <!-- Pitch Velocity (mph) -->
    <g transform="translate(117.028125 32.7)scale(0.09 -0.09)">
     <defs>
      <path d="M 28.171875 0 
L 0.4375 71.578125 
L 10.6875 71.578125 
L 29.296875 19.578125 
Q 31.546875 13.328125 33.0625 7.859375 
Q 34.71875 13.71875 36.921875 19.578125 
L 56.25 71.578125 
L 65.921875 71.578125 
L 37.890625 0 
z
" id="ArialMT-86"/>
      <path d="M 6.203125 -19.96875 
L 5.21875 -11.71875 
Q 8.109375 -12.5 10.25 -12.5 
Q 13.1875 -12.5 14.9375 -11.515625 
Q 16.703125 -10.546875 17.828125 -8.796875 
Q 18.65625 -7.46875 20.515625 -2.25 
Q 20.75 -1.515625 21.296875 -0.09375 
L 1.609375 51.859375 
L 11.078125 51.859375 
L 21.875 21.828125 
Q 23.96875 16.109375 25.640625 9.8125 
Q 27.15625 15.875 29.25 21.625 
L 40.328125 51.859375 
L 49.125 51.859375 
L 29.390625 -0.875 
Q 26.21875 -9.421875 24.46875 -12.640625 
Q 22.125 -17 19.09375 -19.015625 
Q 16.0625 -21.046875 11.859375 -21.046875 
Q 9.328125 -21.046875 6.203125 -19.96875 
z
" id="ArialMT-121"/>
     </defs>
     <use xlink:href="#ArialMT-80"/>
     <use x="66.699219" xlink:href="#ArialMT-105"/>
     <use x="88.916016" xlink:href="#ArialMT-116"/>
     <use x="116.699219" xlink:href="#ArialMT-99"/>
     <use x="166.699219" xlink:href="#ArialMT-104"/>
     <use x="222.314453" xlink:href="#ArialMT-32"/>
     <use x="250.097656" xlink:href="#ArialMT-86"/>
     <use x="311.296875" xlink:href="#ArialMT-101"/>
     <use x="366.912109" xlink:href="#ArialMT-108"/>
     <use x="389.128906" xlink:href="#ArialMT-111"/>
     <use x="444.744141" xlink:href="#ArialMT-99"/>
     <use x="494.744141" xlink:href="#ArialMT-105"/>
     <use x="516.960938" xlink:href="#ArialMT-116"/>
     <use x="544.744141" xlink:href="#ArialMT-121"/>
     <use x="594.744141" xlink:href="#ArialMT-32"/>
     <use x="622.527344" xlink:href="#ArialMT-40"/>
     <use x="655.828125" xlink:href="#ArialMT-109"/>
     <use x="739.128906" xlink:href="#ArialMT-112"/>
     <use x="794.744141" xlink:href="#ArialMT-104"/>
     <use x="850.359375" xlink:href="#ArialMT-41"/>
    </g>
   </g>
  </g>
  <g id="axes_4">
   <g id="patch_12">
    <path d="M 0.198 154.6452 
L 82.6155 154.6452 
L 82.6155 116.63038 
L 0.198 116.63038 
z
" style="fill:none;opacity:0;"/>
   </g>
   <g id="matplotlib.axis_3">
    <g id="xtick_6">
     <g id="line2d_17">
      <g>
       <use style="stroke:#000000;stroke-width:0.8;" x="19.251015" xlink:href="#m76a1c070ba" y="154.6452"/>
      </g>
     </g>
     <g id="text_26">
      <!-- 1000 -->
      <g transform="translate(11.465702 166.655669)scale(0.07 -0.07)">
       <use xlink:href="#ArialMT-49"/>
       <use x="55.615234" xlink:href="#ArialMT-48"/>
       <use x="111.230469" xlink:href="#ArialMT-48"/>
       <use x="166.845703" xlink:href="#ArialMT-48"/>
      </g>
     </g>
    </g>
    <g id="xtick_7">
     <g id="line2d_18">
      <g>
       <use style="stroke:#000000;stroke-width:0.8;" x="42.64755" xlink:href="#m76a1c070ba" y="154.6452"/>
      </g>
     </g>
     <g id="text_27">
      <!-- 2000 -->
      <g transform="translate(34.862237 166.655669)scale(0.07 -0.07)">
       <use xlink:href="#ArialMT-50"/>
       <use x="55.615234" xlink:href="#ArialMT-48"/>
       <use x="111.230469" xlink:href="#ArialMT-48"/>
       <use x="166.845703" xlink:href="#ArialMT-48"/>
      </g>
     </g>
    </g>
    <g id="xtick_8">
     <g id="line2d_19">
      <g>
       <use style="stroke:#000000;stroke-width:0.8;" x="66.044085" xlink:href="#m76a1c070ba" y="154.6452"/>
      </g>
     </g>
     <g id="text_28">
      <!-- 3000 -->
      <g transform="translate(58.258772 166.655669)scale(0.07 -0.07)">
       <use xlink:href="#ArialMT-51"/>
       <use x="55.615234" xlink:href="#ArialMT-48"/>
       <use x="111.230469" xlink:href="#ArialMT-48"/>
       <use x="166.845703" xlink:href="#ArialMT-48"/>
      </g>
     </g>
    </g>
   </g>
   <g id="line2d_20">
    <path clip-path="url(#p64379451ca)" d="M 12.742914 154.644809 
L 26.366933 154.533855 
L 27.696105 154.223279 
L 28.360692 153.896108 
L 29.025278 153.348162 
L 29.689864 152.547229 
L 30.686744 150.957843 
L 33.345089 146.28531 
L 35.671141 143.354452 
L 36.003434 143.152012 
L 36.335727 143.092773 
L 37.000313 143.365311 
L 37.6649 143.975457 
L 38.329486 144.807143 
L 38.994072 145.933908 
L 41.652417 151.164733 
L 42.98159 152.998651 
L 43.646176 153.691798 
L 44.310763 154.151812 
L 44.975349 154.40096 
L 45.972228 154.525211 
L 47.633694 154.42922 
L 49.29516 154.386399 
L 52.950384 154.62786 
L 59.596247 154.6452 
L 78.86925 154.64479 
L 78.86925 154.64479 
" style="fill:none;stroke:#ca9161;stroke-linecap:square;stroke-width:1.5;"/>
   </g>
   <g id="line2d_21">
    <path clip-path="url(#p64379451ca)" d="M 18.382088 154.644714 
L 43.642716 154.490525 
L 45.143347 154.268763 
L 46.393873 153.878162 
L 47.144189 153.452568 
L 47.894504 152.755189 
L 48.894925 151.409771 
L 50.145451 149.703548 
L 51.896188 147.860817 
L 52.646503 147.261196 
L 53.146714 147.061966 
L 53.646924 147.072291 
L 54.147135 147.299229 
L 54.89745 147.993072 
L 57.898713 151.463387 
L 60.649871 153.804455 
L 61.400186 154.174132 
L 62.400607 154.405092 
L 64.401449 154.561731 
L 68.153027 154.644792 
L 68.153027 154.644792 
" style="fill:none;stroke:#cc78bc;stroke-linecap:square;stroke-width:1.5;"/>
   </g>
   <g id="line2d_22">
    <path clip-path="url(#p64379451ca)" d="M 3.94425 154.644932 
L 22.226954 154.529143 
L 27.500811 154.438069 
L 32.423077 154.593618 
L 37.345343 154.547783 
L 42.970791 154.606543 
L 44.728743 154.41249 
L 46.135105 154.017197 
L 47.189876 153.513716 
L 48.244648 152.76276 
L 49.299419 151.711708 
L 50.35419 150.361122 
L 53.166914 146.41133 
L 53.870095 145.750089 
L 54.573276 145.364473 
L 55.276457 145.318022 
L 55.979638 145.654914 
L 56.682819 146.368916 
L 57.73759 147.966882 
L 59.847133 151.478357 
L 60.901904 152.789351 
L 61.956675 153.67852 
L 63.011447 154.197807 
L 64.066218 154.460831 
L 65.82417 154.611311 
L 71.098027 154.635434 
L 73.910751 154.644945 
L 73.910751 154.644945 
" style="fill:none;stroke:#d55e00;stroke-linecap:square;stroke-width:1.5;"/>
   </g>
   <g id="line2d_23">
    <path clip-path="url(#p64379451ca)" d="M 22.633283 154.644418 
L 37.228704 154.64511 
L 41.944148 154.55775 
L 42.842328 154.15709 
L 43.515963 153.8078 
L 45.087777 152.452403 
L 45.536867 151.592858 
L 46.210502 149.789794 
L 46.659592 148.227125 
L 47.333227 144.882002 
L 48.455951 138.485557 
L 49.129586 132.070187 
L 50.027766 123.748743 
L 50.701401 119.412553 
L 50.925946 118.722218 
L 51.150491 118.44061 
L 51.375036 118.491067 
L 51.599581 118.803623 
L 52.04867 120.141857 
L 52.49776 122.707515 
L 52.94685 126.889149 
L 54.518665 144.817385 
L 55.1923 149.433766 
L 55.64139 151.602674 
L 56.090479 152.916965 
L 56.539569 153.640995 
L 57.213204 154.271475 
L 57.886839 154.516779 
L 60.132288 154.644847 
L 67.317727 154.644427 
L 67.317727 154.644427 
" style="fill:none;stroke:#029e73;stroke-linecap:square;stroke-width:1.5;"/>
   </g>
   <g id="line2d_24">
    <path clip-path="url(#p64379451ca)" d="M 26.570432 154.644653 
L 30.643694 154.538532 
L 35.602449 154.047438 
L 38.967319 153.810981 
L 40.738302 153.894997 
L 43.040581 154.037433 
L 44.103172 153.866243 
L 45.165762 153.45739 
L 46.405451 152.72681 
L 49.239025 150.913866 
L 50.124517 150.684999 
L 50.83291 150.729991 
L 51.541304 150.981648 
L 52.426796 151.529359 
L 55.791665 153.922021 
L 56.854255 154.310245 
L 58.093944 154.534044 
L 60.042026 154.634213 
L 61.81301 154.644635 
L 61.81301 154.644635 
" style="fill:none;stroke:#0173b2;stroke-linecap:square;stroke-width:1.5;"/>
   </g>
   <g id="patch_13">
    <path d="M 0.198 154.6452 
L 82.6155 154.6452 
" style="fill:none;stroke:#000000;stroke-linecap:square;stroke-linejoin:miter;stroke-width:0.8;"/>
   </g>
   <g id="text_29">
    <!-- Spin rate (rpm) -->
    <g transform="translate(11.400891 110.63038)scale(0.09 -0.09)">
     <use xlink:href="#ArialMT-83"/>
     <use x="66.699219" xlink:href="#ArialMT-112"/>
     <use x="122.314453" xlink:href="#ArialMT-105"/>
     <use x="144.53125" xlink:href="#ArialMT-110"/>
     <use x="200.146484" xlink:href="#ArialMT-32"/>
     <use x="227.929688" xlink:href="#ArialMT-114"/>
     <use x="261.230469" xlink:href="#ArialMT-97"/>
     <use x="316.845703" xlink:href="#ArialMT-116"/>
     <use x="344.628906" xlink:href="#ArialMT-101"/>
     <use x="400.244141" xlink:href="#ArialMT-32"/>
     <use x="428.027344" xlink:href="#ArialMT-40"/>
     <use x="461.328125" xlink:href="#ArialMT-114"/>
     <use x="494.628906" xlink:href="#ArialMT-112"/>
     <use x="550.244141" xlink:href="#ArialMT-109"/>
     <use x="633.544922" xlink:href="#ArialMT-41"/>
    </g>
   </g>
  </g>
  <g id="axes_5">
   <g id="patch_14">
    <path d="M 115.5825 154.6452 
L 198 154.6452 
L 198 116.63038 
L 115.5825 116.63038 
z
" style="fill:none;opacity:0;"/>
   </g>
   <g id="matplotlib.axis_4">
    <g id="xtick_9">
     <g id="line2d_25">
      <g>
       <use style="stroke:#000000;stroke-width:0.8;" x="130.808241" xlink:href="#m76a1c070ba" y="154.6452"/>
      </g>
     </g>
     <g id="text_30">
      <!-- 1 -->
      <g transform="translate(126.817694 166.655669)scale(0.07 -0.07)">
       <defs>
        <path d="M 52.828125 31.203125 
L 5.5625 31.203125 
L 5.5625 39.40625 
L 52.828125 39.40625 
z
" id="ArialMT-8722"/>
       </defs>
       <use xlink:href="#ArialMT-8722"/>
       <use x="58.398438" xlink:href="#ArialMT-49"/>
      </g>
     </g>
    </g>
    <g id="xtick_10">
     <g id="line2d_26">
      <g>
       <use style="stroke:#000000;stroke-width:0.8;" x="146.202129" xlink:href="#m76a1c070ba" y="154.6452"/>
      </g>
     </g>
     <g id="text_31">
      <!-- 0 -->
      <g transform="translate(144.255801 166.655669)scale(0.07 -0.07)">
       <use xlink:href="#ArialMT-48"/>
      </g>
     </g>
    </g>
    <g id="xtick_11">
     <g id="line2d_27">
      <g>
       <use style="stroke:#000000;stroke-width:0.8;" x="161.596017" xlink:href="#m76a1c070ba" y="154.6452"/>
      </g>
     </g>
     <g id="text_32">
      <!-- 1 -->
      <g transform="translate(159.649689 166.655669)scale(0.07 -0.07)">
       <use xlink:href="#ArialMT-49"/>
      </g>
     </g>
    </g>
    <g id="xtick_12">
     <g id="line2d_28">
      <g>
       <use style="stroke:#000000;stroke-width:0.8;" x="176.989905" xlink:href="#m76a1c070ba" y="154.6452"/>
      </g>
     </g>
     <g id="text_33">
      <!-- 2 -->
      <g transform="translate(175.043577 166.655669)scale(0.07 -0.07)">
       <use xlink:href="#ArialMT-50"/>
      </g>
     </g>
    </g>
   </g>
   <g id="line2d_29">
    <path clip-path="url(#p83db83e4d7)" d="M 138.858311 154.644668 
L 142.136218 154.541358 
L 143.228853 154.32119 
L 144.321489 153.830732 
L 145.049913 153.232224 
L 145.59623 152.492942 
L 146.324654 151.116895 
L 148.145713 146.995685 
L 149.238349 143.955547 
L 150.148879 141.412779 
L 150.695196 140.470863 
L 151.059408 140.228762 
L 151.42362 140.317569 
L 151.787832 140.70436 
L 152.516256 141.987887 
L 153.426785 143.482417 
L 154.337315 144.833359 
L 155.247845 146.744258 
L 156.158374 148.551205 
L 156.886798 149.462257 
L 158.707857 151.344722 
L 159.618387 152.248053 
L 161.075234 153.188334 
L 162.714188 154.083999 
L 163.624717 154.391506 
L 164.717353 154.513838 
L 168.359471 154.508782 
L 169.998425 154.481855 
L 172.365802 154.595582 
L 175.097391 154.644669 
L 175.097391 154.644669 
" style="fill:none;stroke:#ca9161;stroke-linecap:square;stroke-width:1.5;"/>
   </g>
   <g id="line2d_30">
    <path clip-path="url(#p83db83e4d7)" d="M 119.32875 154.644405 
L 121.616291 154.532072 
L 123.598827 154.264361 
L 124.513844 153.831444 
L 125.581363 153.112354 
L 126.191374 152.480969 
L 126.801385 151.559316 
L 127.563899 149.948506 
L 128.936424 146.880632 
L 129.546435 146.117981 
L 130.613954 145.253318 
L 131.071462 145.082318 
L 131.528971 145.126422 
L 132.291484 145.509503 
L 133.053998 146.088934 
L 133.511506 146.674335 
L 134.121517 147.853189 
L 135.494042 150.712083 
L 136.256556 151.817732 
L 137.01907 152.509254 
L 139.459114 154.190731 
L 140.679136 154.507941 
L 142.051661 154.634666 
L 146.626744 154.598264 
L 149.371793 154.643552 
L 149.676799 154.644601 
L 149.676799 154.644601 
" style="fill:none;stroke:#cc78bc;stroke-linecap:square;stroke-width:1.5;"/>
   </g>
   <g id="line2d_31">
    <path clip-path="url(#p83db83e4d7)" d="M 124.44504 154.644755 
L 136.244617 154.52684 
L 139.462683 154.064851 
L 140.535372 153.737309 
L 141.339888 153.308092 
L 142.412577 152.476411 
L 144.02161 150.902511 
L 146.43516 148.23193 
L 147.776021 146.286625 
L 148.580538 145.215781 
L 149.116882 144.73539 
L 149.921399 144.360877 
L 150.994087 144.171278 
L 151.798604 144.277693 
L 152.334948 144.565583 
L 153.139465 145.366175 
L 154.480326 147.278306 
L 156.089359 149.716682 
L 157.43022 151.948109 
L 158.234737 152.851377 
L 159.039253 153.397572 
L 160.111942 153.788861 
L 162.793664 154.37872 
L 164.939041 154.465463 
L 171.107002 154.610403 
L 176.202274 154.63398 
L 177.811307 154.644755 
L 177.811307 154.644755 
" style="fill:none;stroke:#d55e00;stroke-linecap:square;stroke-width:1.5;"/>
   </g>
   <g id="line2d_32">
    <path clip-path="url(#p83db83e4d7)" d="M 154.800017 154.644443 
L 156.980876 154.536672 
L 158.368696 154.311927 
L 160.549556 153.835265 
L 161.342595 153.515239 
L 161.937375 152.897988 
L 162.532155 151.854772 
L 163.126935 150.166468 
L 163.721715 147.630987 
L 164.911275 141.169626 
L 165.506055 136.649639 
L 167.290395 120.397712 
L 167.686914 118.763169 
L 167.885174 118.44061 
L 168.083434 118.442677 
L 168.281694 118.735461 
L 168.678214 120.034268 
L 169.272994 123.414987 
L 171.255594 136.995192 
L 172.048634 140.782808 
L 172.643414 142.747365 
L 174.229493 146.755326 
L 175.617313 150.660552 
L 176.608613 152.845531 
L 177.005133 153.378375 
L 177.599913 153.723797 
L 178.789473 154.207032 
L 179.780772 154.529444 
L 180.772072 154.610344 
L 183.944232 154.619643 
L 186.719871 154.6452 
L 194.25375 154.644445 
L 194.25375 154.644445 
" style="fill:none;stroke:#029e73;stroke-linecap:square;stroke-width:1.5;"/>
   </g>
   <g id="line2d_33">
    <path clip-path="url(#p83db83e4d7)" d="M 143.570002 154.644804 
L 150.569102 154.526853 
L 152.843809 154.362588 
L 154.593584 153.916152 
L 156.168381 153.310864 
L 157.568201 152.52589 
L 159.142998 151.353644 
L 160.367841 150.550975 
L 161.242728 150.256953 
L 161.942638 150.23196 
L 162.817525 150.451808 
L 164.217345 151.107715 
L 167.36694 152.606445 
L 173.491152 154.437418 
L 176.290791 154.621362 
L 178.390521 154.644712 
L 178.390521 154.644712 
" style="fill:none;stroke:#0173b2;stroke-linecap:square;stroke-width:1.5;"/>
   </g>
   <g id="patch_15">
    <path d="M 115.5825 154.6452 
L 198 154.6452 
" style="fill:none;stroke:#000000;stroke-linecap:square;stroke-linejoin:miter;stroke-width:0.8;"/>
   </g>
   <g id="text_34">
    <!-- Vertical movement (in) -->
    <g transform="translate(112.028203 110.63038)scale(0.09 -0.09)">
     <use xlink:href="#ArialMT-86"/>
     <use x="61.199219" xlink:href="#ArialMT-101"/>
     <use x="116.814453" xlink:href="#ArialMT-114"/>
     <use x="150.115234" xlink:href="#ArialMT-116"/>
     <use x="177.898438" xlink:href="#ArialMT-105"/>
     <use x="200.115234" xlink:href="#ArialMT-99"/>
     <use x="250.115234" xlink:href="#ArialMT-97"/>
     <use x="305.730469" xlink:href="#ArialMT-108"/>
     <use x="327.947266" xlink:href="#ArialMT-32"/>
     <use x="355.730469" xlink:href="#ArialMT-109"/>
     <use x="439.03125" xlink:href="#ArialMT-111"/>
     <use x="494.646484" xlink:href="#ArialMT-118"/>
     <use x="544.646484" xlink:href="#ArialMT-101"/>
     <use x="600.261719" xlink:href="#ArialMT-109"/>
     <use x="683.5625" xlink:href="#ArialMT-101"/>
     <use x="739.177734" xlink:href="#ArialMT-110"/>
     <use x="794.792969" xlink:href="#ArialMT-116"/>
     <use x="822.576172" xlink:href="#ArialMT-32"/>
     <use x="850.359375" xlink:href="#ArialMT-40"/>
     <use x="883.660156" xlink:href="#ArialMT-105"/>
     <use x="905.876953" xlink:href="#ArialMT-110"/>
     <use x="961.492188" xlink:href="#ArialMT-41"/>
    </g>
   </g>
  </g>
 </g>
 <defs>
  <clipPath id="p5c9308b5d1">
   <rect height="11.61" width="158.4" x="0" y="0"/>
  </clipPath>
  <clipPath id="p95fed1efaa">
   <rect height="38.01482" width="82.4175" x="0.198" y="38.7"/>
  </clipPath>
  <clipPath id="p5b1feed5f6">
   <rect height="38.01482" width="82.4175" x="115.5825" y="38.7"/>
  </clipPath>
  <clipPath id="p64379451ca">
   <rect height="38.01482" width="82.4175" x="0.198" y="116.63038"/>
  </clipPath>
  <clipPath id="p83db83e4d7">
   <rect height="38.01482" width="82.4175" x="115.5825" y="116.63038"/>
  </clipPath>
 </defs>
</svg>
