<?xml version="1.0" encoding="utf-8" standalone="no"?>
<!DOCTYPE svg PUBLIC "-//W3C//DTD SVG 1.1//EN"
  "http://www.w3.org/Graphics/SVG/1.1/DTD/svg11.dtd">
<!-- Created with matplotlib (https://matplotlib.org/) -->
<svg height="252pt" version="1.1" viewBox="0 0 72 252" width="72pt" xmlns="http://www.w3.org/2000/svg" xmlns:xlink="http://www.w3.org/1999/xlink">
 <metadata>
  <rdf:RDF xmlns:cc="http://creativecommons.org/ns#" xmlns:dc="http://purl.org/dc/elements/1.1/" xmlns:rdf="http://www.w3.org/1999/02/22-rdf-syntax-ns#">
   <cc:Work>
    <dc:type rdf:resource="http://purl.org/dc/dcmitype/StillImage"/>
    <dc:date>2022-05-23T16:14:59.192997</dc:date>
    <dc:format>image/svg+xml</dc:format>
    <dc:creator>
     <cc:Agent>
      <dc:title>Matplotlib v3.3.4, https://matplotlib.org/</dc:title>
     </cc:Agent>
    </dc:creator>
   </cc:Work>
  </rdf:RDF>
 </metadata>
 <defs>
  <style type="text/css">*{stroke-linecap:butt;stroke-linejoin:round;}</style>
 </defs>
 <g id="figure_1">
  <g id="patch_1">
   <path d="M 0 252 
L 72 252 
L 72 0 
L 0 0 
z
" style="fill:none;"/>
  </g>
  <g id="axes_1">
   <g id="patch_2">
    <path d="M 9 220.5 
L 64.8 220.5 
L 64.8 30.24 
L 9 30.24 
z
" style="fill:#ffffff;"/>
   </g>
   <g id="matplotlib.axis_1">
    <g id="ytick_1">
     <g id="line2d_1">
      <defs>
       <path d="M 0 0 
L -3.5 0 
" id="mc4580e90fb" style="stroke:#000000;stroke-width:0.8;"/>
      </defs>
      <g>
       <use style="stroke:#000000;stroke-width:0.8;" x="9" xlink:href="#mc4580e90fb" y="172.935"/>
      </g>
     </g>
    </g>
    <g id="ytick_2">
     <g id="line2d_2">
      <g>
       <use style="stroke:#000000;stroke-width:0.8;" x="9" xlink:href="#mc4580e90fb" y="77.805"/>
      </g>
     </g>
    </g>
   </g>
   <g id="line2d_3">
    <path clip-path="url(#pd9262755c7)" d="M 12.02942 220.5 
L 12.145218 218.578182 
L 12.284464 216.656364 
L 12.450982 214.734545 
L 12.649007 212.812727 
L 12.883187 210.890909 
L 13.158566 208.969091 
L 13.480563 207.047273 
L 13.854927 205.125455 
L 14.287677 203.203636 
L 14.785028 201.281818 
L 15.35329 199.36 
L 15.998752 197.438182 
L 16.727539 195.516364 
L 17.54546 193.594545 
L 18.457827 191.672727 
L 19.469267 189.750909 
L 20.583518 187.829091 
L 21.803221 185.907273 
L 23.12971 183.985455 
L 24.56281 182.063636 
L 26.100642 180.141818 
L 27.739458 178.22 
L 29.473492 176.298182 
L 31.294859 174.376364 
L 33.193492 172.454545 
L 35.157128 170.532727 
L 37.17135 168.610909 
L 39.219693 166.689091 
L 41.283807 164.767273 
L 43.343685 162.845455 
L 45.377947 160.923636 
L 47.364183 159.001818 
L 49.279346 157.08 
L 51.100181 155.158182 
L 52.803688 153.236364 
L 54.367598 151.314545 
L 55.770853 149.392727 
L 56.994078 147.470909 
L 58.020026 145.549091 
L 58.833977 143.627273 
L 59.424097 141.705455 
L 59.781718 139.783636 
L 59.901551 137.861818 
L 59.781819 135.94 
L 59.424299 134.018182 
L 58.834276 132.096364 
L 58.020416 130.174545 
L 56.994556 128.252727 
L 55.77141 126.330909 
L 54.368228 124.409091 
L 52.804382 122.487273 
L 51.100929 120.565455 
L 49.280139 118.643636 
L 47.365011 116.721818 
L 45.3788 114.8 
L 43.344554 112.878182 
L 41.284682 110.956364 
L 39.220565 109.034545 
L 37.172211 107.112727 
L 35.157972 105.190909 
L 33.194312 103.269091 
L 31.295648 101.347273 
L 29.474246 99.425455 
L 27.740173 97.503636 
L 26.101316 95.581818 
L 24.56344 93.66 
L 23.130295 91.738182 
L 21.80376 89.816364 
L 20.584013 87.894545 
L 19.469718 85.972727 
L 18.458235 84.050909 
L 17.545826 82.129091 
L 16.727866 80.207273 
L 15.999042 78.285455 
L 15.353547 76.363636 
L 14.785253 74.441818 
L 14.287874 72.52 
L 13.855097 70.598182 
L 13.480711 68.676364 
L 13.158693 66.754545 
L 12.883295 64.832727 
L 12.649098 62.910909 
L 12.451059 60.989091 
L 12.284528 59.067273 
L 12.145271 57.145455 
L 12.029464 55.223636 
L 11.933688 53.301818 
L 11.85491 51.38 
L 11.790467 49.458182 
L 11.738037 47.536364 
L 11.695611 45.614545 
L 11.661465 43.692727 
L 11.634131 41.770909 
L 11.612366 39.849091 
L 11.595129 37.927273 
L 11.58155 36.005455 
L 11.570909 34.083636 
L 11.562615 32.161818 
L 11.556185 30.24 
" style="fill:none;stroke:#0173b2;stroke-linecap:square;stroke-width:1.5;"/>
   </g>
   <g id="line2d_4">
    <path clip-path="url(#pd9262755c7)" d="M 0 0 
" style="fill:none;stroke:#de8f05;stroke-linecap:square;stroke-width:1.5;"/>
   </g>
   <g id="line2d_5">
    <path clip-path="url(#pd9262755c7)" d="M 11.635818 220.5 
L 11.662622 218.578182 
L 11.695865 216.656364 
L 11.736886 214.734545 
L 11.787247 212.812727 
L 11.848758 210.890909 
L 11.923505 208.969091 
L 12.013868 207.047273 
L 12.122544 205.125455 
L 12.252569 203.203636 
L 12.407325 201.281818 
L 12.590552 199.36 
L 12.806344 197.438182 
L 13.059146 195.516364 
L 13.353725 193.594545 
L 13.695144 191.672727 
L 14.088714 189.750909 
L 14.539931 187.829091 
L 15.054399 185.907273 
L 15.637734 183.985455 
L 16.295458 182.063636 
L 17.032864 180.141818 
L 17.85488 178.22 
L 18.765909 176.298182 
L 19.769665 174.376364 
L 20.868999 172.454545 
L 22.065724 170.532727 
L 23.360436 168.610909 
L 24.752353 166.689091 
L 26.239155 164.767273 
L 27.816855 162.845455 
L 29.479685 160.923636 
L 31.220021 159.001818 
L 33.028343 157.08 
L 34.893239 155.158182 
L 36.801448 153.236364 
L 38.737965 151.314545 
L 40.686186 149.392727 
L 42.628109 147.470909 
L 44.544577 145.549091 
L 46.415578 143.627273 
L 48.220569 141.705455 
L 49.938846 139.783636 
L 51.549929 137.861818 
L 53.033962 135.94 
L 54.372121 134.018182 
L 55.547005 132.096364 
L 56.543018 130.174545 
L 57.346705 128.252727 
L 57.947062 126.330909 
L 58.335783 124.409091 
L 58.507449 122.487273 
L 58.459659 120.565455 
L 58.193082 118.643636 
L 57.711443 116.721818 
L 57.021437 114.8 
L 56.13257 112.878182 
L 55.056946 110.956364 
L 53.808993 109.034545 
L 52.405137 107.112727 
L 50.863444 105.190909 
L 49.203237 103.269091 
L 47.444693 101.347273 
L 45.608438 99.425455 
L 43.715154 97.503636 
L 41.785195 95.581818 
L 39.838239 93.66 
L 37.892975 91.738182 
L 35.966823 89.816364 
L 34.075715 87.894545 
L 32.233911 85.972727 
L 30.453876 84.050909 
L 28.746203 82.129091 
L 27.119585 80.207273 
L 25.580831 78.285455 
L 24.134923 76.363636 
L 22.785106 74.441818 
L 21.533015 72.52 
L 20.378812 70.598182 
L 19.32135 68.676364 
L 18.358343 66.754545 
L 17.486543 64.832727 
L 16.701915 62.910909 
L 15.999807 60.989091 
L 15.375115 59.067273 
L 14.82243 57.145455 
L 14.336173 55.223636 
L 13.910722 53.301818 
L 13.540507 51.38 
L 13.220107 49.458182 
L 12.94431 47.536364 
L 12.708178 45.614545 
L 12.50708 43.692727 
L 12.336723 41.770909 
L 12.193166 39.849091 
L 12.072824 37.927273 
L 11.972468 36.005455 
L 11.889212 34.083636 
L 11.820499 32.161818 
L 11.764078 30.24 
" style="fill:none;stroke:#029e73;stroke-linecap:square;stroke-width:1.5;"/>
   </g>
   <g id="line2d_6">
    <path clip-path="url(#pd9262755c7)" d="M 13.550142 220.5 
L 13.933932 218.578182 
L 14.37682 216.656364 
L 14.884966 214.734545 
L 15.4646 212.812727 
L 16.121906 210.890909 
L 16.86288 208.969091 
L 17.693168 207.047273 
L 18.617896 205.125455 
L 19.641477 203.203636 
L 20.767412 201.281818 
L 21.998083 199.36 
L 23.334554 197.438182 
L 24.776365 195.516364 
L 26.321352 193.594545 
L 27.965487 191.672727 
L 29.702736 189.750909 
L 31.524969 187.829091 
L 33.421904 185.907273 
L 35.381103 183.985455 
L 37.388023 182.063636 
L 39.426125 180.141818 
L 41.477049 178.22 
L 43.52084 176.298182 
L 45.53624 174.376364 
L 47.501027 172.454545 
L 49.392411 170.532727 
L 51.187452 168.610909 
L 52.863524 166.689091 
L 54.398777 164.767273 
L 55.772612 162.845455 
L 56.966135 160.923636 
L 57.962595 159.001818 
L 58.747768 157.08 
L 59.3103 155.158182 
L 59.641975 153.236364 
L 59.73792 151.314545 
L 59.596722 149.392727 
L 59.220461 147.470909 
L 58.614659 145.549091 
L 57.78815 143.627273 
L 56.752859 141.705455 
L 55.523521 139.783636 
L 54.11733 137.861818 
L 52.553536 135.94 
L 50.853016 134.018182 
L 49.037804 132.096364 
L 47.130623 130.174545 
L 45.154416 128.252727 
L 43.1319 126.330909 
L 41.085139 124.409091 
L 39.035167 122.487273 
L 37.001657 120.565455 
L 35.002636 118.643636 
L 33.054272 116.721818 
L 31.170713 114.8 
L 29.363988 112.878182 
L 27.643965 110.956364 
L 26.01837 109.034545 
L 24.492842 107.112727 
L 23.071044 105.190909 
L 21.7548 103.269091 
L 20.544264 101.347273 
L 19.438106 99.425455 
L 18.433712 97.503636 
L 17.527392 95.581818 
L 16.714582 93.66 
L 15.990042 91.738182 
L 15.348046 89.816364 
L 14.782551 87.894545 
L 14.287354 85.972727 
L 13.856229 84.050909 
L 13.483041 82.129091 
L 13.161845 80.207273 
L 12.88696 78.285455 
L 12.653031 76.363636 
L 12.455066 74.441818 
L 12.288466 72.52 
L 12.149034 70.598182 
L 12.03298 68.676364 
L 11.936912 66.754545 
L 11.857821 64.832727 
L 11.793058 62.910909 
L 11.740315 60.989091 
L 11.69759 59.067273 
L 11.663166 57.145455 
L 11.635578 55.223636 
L 11.613587 53.301818 
L 11.596149 51.38 
L 11.582395 49.458182 
L 11.571605 47.536364 
L 11.563183 45.614545 
L 11.556645 43.692727 
L 11.551595 41.770909 
L 11.547716 39.849091 
L 11.544751 37.927273 
L 11.542497 36.005455 
L 11.540792 34.083636 
L 11.539509 32.161818 
L 11.538549 30.24 
" style="fill:none;stroke:#d55e00;stroke-linecap:square;stroke-width:1.5;"/>
   </g>
   <g id="line2d_7">
    <path clip-path="url(#pd9262755c7)" d="M 14.100319 220.5 
L 14.531962 218.578182 
L 15.021119 216.656364 
L 15.572601 214.734545 
L 16.191123 212.812727 
L 16.881197 210.890909 
L 17.647016 208.969091 
L 18.492332 207.047273 
L 19.420325 205.125455 
L 20.433459 203.203636 
L 21.533347 201.281818 
L 22.720611 199.36 
L 23.994745 197.438182 
L 25.353997 195.516364 
L 26.795251 193.594545 
L 28.313942 191.672727 
L 29.903986 189.750909 
L 31.557737 187.829091 
L 33.26598 185.907273 
L 35.017957 183.985455 
L 36.801427 182.063636 
L 38.602766 180.141818 
L 40.40711 178.22 
L 42.19853 176.298182 
L 43.960245 174.376364 
L 45.674871 172.454545 
L 47.324692 170.532727 
L 48.891959 168.610909 
L 50.359202 166.689091 
L 51.709549 164.767273 
L 52.92705 162.845455 
L 53.996987 160.923636 
L 54.90617 159.001818 
L 55.643206 157.08 
L 56.198742 155.158182 
L 56.565653 153.236364 
L 56.739204 151.314545 
L 56.717146 149.392727 
L 56.499763 147.470909 
L 56.089873 145.549091 
L 55.492759 143.627273 
L 54.716062 141.705455 
L 53.769615 139.783636 
L 52.665237 137.861818 
L 51.416485 135.94 
L 50.038383 134.018182 
L 48.547117 132.096364 
L 46.959719 130.174545 
L 45.293752 128.252727 
L 43.566983 126.330909 
L 41.797079 124.409091 
L 40.001311 122.487273 
L 38.196289 120.565455 
L 36.397719 118.643636 
L 34.6202 116.721818 
L 32.877055 114.8 
L 31.180199 112.878182 
L 29.540047 110.956364 
L 27.965461 109.034545 
L 26.463733 107.112727 
L 25.040601 105.190909 
L 23.700297 103.269091 
L 22.445619 101.347273 
L 21.278031 99.425455 
L 20.197772 97.503636 
L 19.203985 95.581818 
L 18.294854 93.66 
L 17.467741 91.738182 
L 16.719325 89.816364 
L 16.045744 87.894545 
L 15.442722 85.972727 
L 14.905692 84.050909 
L 14.42991 82.129091 
L 14.010552 80.207273 
L 13.642809 78.285455 
L 13.321954 76.363636 
L 13.043412 74.441818 
L 12.802806 72.52 
L 12.595996 70.598182 
L 12.419109 68.676364 
L 12.268554 66.754545 
L 12.141034 64.832727 
L 12.033546 62.910909 
L 11.943381 60.989091 
L 11.868109 59.067273 
L 11.805569 57.145455 
L 11.753856 55.223636 
L 11.711297 53.301818 
L 11.676438 51.38 
L 11.648019 49.458182 
L 11.624959 47.536364 
L 11.606336 45.614545 
L 11.591366 43.692727 
L 11.579388 41.770909 
L 11.569849 39.849091 
L 11.562287 37.927273 
L 11.55632 36.005455 
L 11.551634 34.083636 
L 11.54797 32.161818 
L 11.545119 30.24 
" style="fill:none;stroke:#cc78bc;stroke-linecap:square;stroke-width:1.5;"/>
   </g>
   <g id="line2d_8">
    <path clip-path="url(#pd9262755c7)" d="M 13.766777 220.5 
L 14.211865 218.578182 
L 14.728286 216.656364 
L 15.323644 214.734545 
L 16.005577 212.812727 
L 16.781583 210.890909 
L 17.658815 208.969091 
L 18.643855 207.047273 
L 19.742467 205.125455 
L 20.959322 203.203636 
L 22.29773 201.281818 
L 23.759354 199.36 
L 25.343941 197.438182 
L 27.049069 195.516364 
L 28.869921 193.594545 
L 30.7991 191.672727 
L 32.8265 189.750909 
L 34.939232 187.829091 
L 37.12163 185.907273 
L 39.355333 183.985455 
L 41.619449 182.063636 
L 43.890811 180.141818 
L 46.144312 178.22 
L 48.353331 176.298182 
L 50.490219 174.376364 
L 52.52686 172.454545 
L 54.435269 170.532727 
L 56.188222 168.610909 
L 57.7599 166.689091 
L 59.126518 164.767273 
L 60.26692 162.845455 
L 61.163125 160.923636 
L 61.8008 159.001818 
L 62.169637 157.08 
L 62.263636 155.158182 
L 62.081263 153.236364 
L 61.625492 151.314545 
L 60.903726 149.392727 
L 59.927596 147.470909 
L 58.712651 145.549091 
L 57.277941 143.627273 
L 55.645528 141.705455 
L 53.839915 139.783636 
L 51.88744 137.861818 
L 49.815639 135.94 
L 47.652609 134.018182 
L 45.426379 132.096364 
L 43.164325 130.174545 
L 40.892636 128.252727 
L 38.635839 126.330909 
L 36.416405 124.409091 
L 34.254439 122.487273 
L 32.167454 120.565455 
L 30.170231 118.643636 
L 28.274766 116.721818 
L 26.490285 114.8 
L 24.823344 112.878182 
L 23.277969 110.956364 
L 21.855864 109.034545 
L 20.556637 107.112727 
L 19.378069 105.190909 
L 18.316385 103.269091 
L 17.366531 101.347273 
L 16.522456 99.425455 
L 15.777368 97.503636 
L 15.123979 95.581818 
L 14.554725 93.66 
L 14.061964 91.738182 
L 13.638134 89.816364 
L 13.275895 87.894545 
L 12.968236 85.972727 
L 12.708561 84.050909 
L 12.490738 82.129091 
L 12.309146 80.207273 
L 12.158681 78.285455 
L 12.034765 76.363636 
L 11.93333 74.441818 
L 11.850797 72.52 
L 11.784045 70.598182 
L 11.730378 68.676364 
L 11.687489 66.754545 
L 11.653414 64.832727 
L 11.626503 62.910909 
L 11.605374 60.989091 
L 11.588882 59.067273 
L 11.576084 57.145455 
L 11.566211 55.223636 
L 11.558639 53.301818 
L 11.552865 51.38 
L 11.548488 49.458182 
L 11.545188 47.536364 
L 11.542716 45.614545 
L 11.540874 43.692727 
L 11.539509 41.770909 
L 11.538504 39.849091 
L 11.537767 37.927273 
L 11.537231 36.005455 
L 11.536843 34.083636 
L 11.536564 32.161818 
L 11.536364 30.24 
" style="fill:none;stroke:#ca9161;stroke-linecap:square;stroke-width:1.5;"/>
   </g>
   <g id="patch_3">
    <path d="M 9 220.5 
L 9 30.24 
" style="fill:none;stroke:#000000;stroke-linecap:square;stroke-linejoin:miter;stroke-width:0.8;"/>
   </g>
  </g>
 </g>
 <defs>
  <clipPath id="pd9262755c7">
   <rect height="190.26" width="55.8" x="9" y="30.24"/>
  </clipPath>
 </defs>
</svg>
