<?xml version="1.0" encoding="utf-8" standalone="no"?>
<!DOCTYPE svg PUBLIC "-//W3C//DTD SVG 1.1//EN"
  "http://www.w3.org/Graphics/SVG/1.1/DTD/svg11.dtd">
<!-- Created with matplotlib (https://matplotlib.org/) -->
<svg height="252pt" version="1.1" viewBox="0 0 72 252" width="72pt" xmlns="http://www.w3.org/2000/svg" xmlns:xlink="http://www.w3.org/1999/xlink">
 <metadata>
  <rdf:RDF xmlns:cc="http://creativecommons.org/ns#" xmlns:dc="http://purl.org/dc/elements/1.1/" xmlns:rdf="http://www.w3.org/1999/02/22-rdf-syntax-ns#">
   <cc:Work>
    <dc:type rdf:resource="http://purl.org/dc/dcmitype/StillImage"/>
    <dc:date>2022-05-23T16:14:59.419932</dc:date>
    <dc:format>image/svg+xml</dc:format>
    <dc:creator>
     <cc:Agent>
      <dc:title>Matplotlib v3.3.4, https://matplotlib.org/</dc:title>
     </cc:Agent>
    </dc:creator>
   </cc:Work>
  </rdf:RDF>
 </metadata>
 <defs>
  <style type="text/css">*{stroke-linecap:butt;stroke-linejoin:round;}</style>
 </defs>
 <g id="figure_1">
  <g id="patch_1">
   <path d="M 0 252 
L 72 252 
L 72 0 
L 0 0 
z
" style="fill:none;"/>
  </g>
  <g id="axes_1">
   <g id="patch_2">
    <path d="M 9 220.5 
L 64.8 220.5 
L 64.8 30.24 
L 9 30.24 
z
" style="fill:#ffffff;"/>
   </g>
   <g id="matplotlib.axis_1">
    <g id="ytick_1">
     <g id="line2d_1">
      <defs>
       <path d="M 0 0 
L -3.5 0 
" id="m23469b7a09" style="stroke:#000000;stroke-width:0.8;"/>
      </defs>
      <g>
       <use style="stroke:#000000;stroke-width:0.8;" x="9" xlink:href="#m23469b7a09" y="172.935"/>
      </g>
     </g>
    </g>
    <g id="ytick_2">
     <g id="line2d_2">
      <g>
       <use style="stroke:#000000;stroke-width:0.8;" x="9" xlink:href="#m23469b7a09" y="77.805"/>
      </g>
     </g>
    </g>
   </g>
   <g id="line2d_3">
    <path clip-path="url(#p9626e94a1c)" d="M 14.603972 220.5 
L 15.135206 218.578182 
L 15.738646 216.656364 
L 16.42029 214.734545 
L 17.185946 212.812727 
L 18.041077 210.890909 
L 18.990644 208.969091 
L 20.038927 207.047273 
L 21.189344 205.125455 
L 22.444257 203.203636 
L 23.804787 201.281818 
L 25.270629 199.36 
L 26.839881 197.438182 
L 28.508888 195.516364 
L 30.272122 193.594545 
L 32.122076 191.672727 
L 34.049213 189.750909 
L 36.041952 187.829091 
L 38.086697 185.907273 
L 40.16793 183.985455 
L 42.268346 182.063636 
L 44.369054 180.141818 
L 46.449819 178.22 
L 48.489364 176.298182 
L 50.465712 174.376364 
L 52.356565 172.454545 
L 54.139715 170.532727 
L 55.793471 168.610909 
L 57.297092 166.689091 
L 58.631223 164.767273 
L 59.778303 162.845455 
L 60.722952 160.923636 
L 61.452314 159.001818 
L 61.956346 157.08 
L 62.228051 155.158182 
L 62.263636 153.236364 
L 62.062605 151.314545 
L 61.627765 149.392727 
L 60.965164 147.470909 
L 60.083952 145.549091 
L 58.996169 143.627273 
L 57.716469 141.705455 
L 56.261797 139.783636 
L 54.651013 137.861818 
L 52.904485 135.94 
L 51.043664 134.018182 
L 49.090649 132.096364 
L 47.067755 130.174545 
L 44.997096 128.252727 
L 42.900199 126.330909 
L 40.797643 124.409091 
L 38.708753 122.487273 
L 36.651334 120.565455 
L 34.641456 118.643636 
L 32.693304 116.721818 
L 30.819071 114.8 
L 29.028909 112.878182 
L 27.33093 110.956364 
L 25.731247 109.034545 
L 24.234068 107.112727 
L 22.841804 105.190909 
L 21.555223 103.269091 
L 20.373614 101.347273 
L 19.294968 99.425455 
L 18.316164 97.503636 
L 17.433161 95.581818 
L 16.641184 93.66 
L 15.934903 91.738182 
L 15.308597 89.816364 
L 14.756312 87.894545 
L 14.27199 85.972727 
L 13.849596 84.050909 
L 13.483214 82.129091 
L 13.167128 80.207273 
L 12.895896 78.285455 
L 12.66439 76.363636 
L 12.467835 74.441818 
L 12.301833 72.52 
L 12.162368 70.598182 
L 12.045806 68.676364 
L 11.948891 66.754545 
L 11.868726 64.832727 
L 11.802758 62.910909 
L 11.748749 60.989091 
L 11.704756 59.067273 
L 11.669104 57.145455 
L 11.640358 55.223636 
L 11.617297 53.301818 
L 11.59889 51.38 
L 11.584271 49.458182 
L 11.572719 47.536364 
L 11.563636 45.614545 
L 11.556529 43.692727 
L 11.550997 41.770909 
L 11.546712 39.849091 
L 11.543409 37.927273 
L 11.540875 36.005455 
L 11.538942 34.083636 
L 11.537473 32.161818 
L 11.536364 30.24 
" style="fill:none;stroke:#000000;stroke-linecap:square;stroke-width:1.5;"/>
   </g>
   <g id="line2d_4">
    <path clip-path="url(#p9626e94a1c)" d="M 12.895601 220.5 
L 13.157016 218.578182 
L 13.460088 216.656364 
L 13.809682 214.734545 
L 14.210888 212.812727 
L 14.668967 210.890909 
L 15.18928 208.969091 
L 15.777202 207.047273 
L 16.438027 205.125455 
L 17.176849 203.203636 
L 17.998436 201.281818 
L 18.907094 199.36 
L 19.906518 197.438182 
L 20.999636 195.516364 
L 22.188447 193.594545 
L 23.473872 191.672727 
L 24.855591 189.750909 
L 26.331908 187.829091 
L 27.899616 185.907273 
L 29.553896 183.985455 
L 31.288231 182.063636 
L 33.094358 180.141818 
L 34.962248 178.22 
L 36.880131 176.298182 
L 38.834563 174.376364 
L 40.81053 172.454545 
L 42.791604 170.532727 
L 44.760139 168.610909 
L 46.697507 166.689091 
L 48.584376 164.767273 
L 50.401014 162.845455 
L 52.127629 160.923636 
L 53.744717 159.001818 
L 55.233425 157.08 
L 56.575918 155.158182 
L 57.75573 153.236364 
L 58.758097 151.314545 
L 59.570273 149.392727 
L 60.181789 147.470909 
L 60.584685 145.549091 
L 60.773679 143.627273 
L 60.746284 141.705455 
L 60.50286 139.783636 
L 60.046609 137.861818 
L 59.383504 135.94 
L 58.522157 134.018182 
L 57.473635 132.096364 
L 56.251224 130.174545 
L 54.870147 128.252727 
L 53.347248 126.330909 
L 51.700654 124.409091 
L 49.949418 122.487273 
L 48.113149 120.565455 
L 46.211659 118.643636 
L 44.264607 116.721818 
L 42.291176 114.8 
L 40.309771 112.878182 
L 38.33775 110.956364 
L 36.391201 109.034545 
L 34.484752 107.112727 
L 32.631435 105.190909 
L 30.842582 103.269091 
L 29.127777 101.347273 
L 27.494838 99.425455 
L 25.949848 97.503636 
L 24.497208 95.581818 
L 23.139733 93.66 
L 21.878757 91.738182 
L 20.714273 89.816364 
L 19.645074 87.894545 
L 18.668908 85.972727 
L 17.78264 84.050909 
L 16.982408 82.129091 
L 16.263773 80.207273 
L 15.621871 78.285455 
L 15.051548 76.363636 
L 14.54748 74.441818 
L 14.104284 72.52 
L 13.71662 70.598182 
L 13.379261 68.676364 
L 13.087171 66.754545 
L 12.83555 64.832727 
L 12.619876 62.910909 
L 12.435936 60.989091 
L 12.279836 59.067273 
L 12.148015 57.145455 
L 12.037242 55.223636 
L 11.944612 53.301818 
L 11.867529 51.38 
L 11.803693 49.458182 
L 11.751084 47.536364 
L 11.707935 45.614545 
L 11.672714 43.692727 
L 11.644102 41.770909 
L 11.620969 39.849091 
L 11.602355 37.927273 
L 11.587448 36.005455 
L 11.575566 34.083636 
L 11.56614 32.161818 
L 11.558697 30.24 
" style="fill:none;stroke:#808080;stroke-dasharray:5.55,2.4;stroke-dashoffset:0;stroke-width:1.5;"/>
   </g>
   <g id="line2d_5">
    <path clip-path="url(#p9626e94a1c)" d="M 11.652054 220.5 
L 11.683288 218.578182 
L 11.72186 216.656364 
L 11.769256 214.734545 
L 11.827207 212.812727 
L 11.897706 210.890909 
L 11.983039 208.969091 
L 12.085805 207.047273 
L 12.208941 205.125455 
L 12.35573 203.203636 
L 12.52982 201.281818 
L 12.735229 199.36 
L 12.976336 197.438182 
L 13.257872 195.516364 
L 13.584895 193.594545 
L 13.962753 191.672727 
L 14.39703 189.750909 
L 14.89348 187.829091 
L 15.45794 185.907273 
L 16.096234 183.985455 
L 16.81405 182.063636 
L 17.616809 180.141818 
L 18.509515 178.22 
L 19.496596 176.298182 
L 20.581728 174.376364 
L 21.767659 172.454545 
L 23.056033 170.532727 
L 24.447208 168.610909 
L 25.940089 166.689091 
L 27.531976 164.767273 
L 29.218431 162.845455 
L 30.993168 160.923636 
L 32.847982 159.001818 
L 34.772716 157.08 
L 36.755267 155.158182 
L 38.781642 153.236364 
L 40.836066 151.314545 
L 42.901134 149.392727 
L 44.958026 147.470909 
L 46.986756 145.549091 
L 48.966478 143.627273 
L 50.875825 141.705455 
L 52.693281 139.783636 
L 54.397577 137.861818 
L 55.968102 135.94 
L 57.385312 134.018182 
L 58.631137 132.096364 
L 59.689358 130.174545 
L 60.545964 128.252727 
L 61.189456 126.330909 
L 61.611106 124.409091 
L 61.805154 122.487273 
L 61.768937 120.565455 
L 61.502954 118.643636 
L 61.010849 116.721818 
L 60.299332 114.8 
L 59.378026 112.878182 
L 58.25925 110.956364 
L 56.957743 109.034545 
L 55.490345 107.112727 
L 53.875632 105.190909 
L 52.133527 103.269091 
L 50.284893 101.347273 
L 48.351119 99.425455 
L 46.353717 97.503636 
L 44.313929 95.581818 
L 42.252364 93.66 
L 40.188675 91.738182 
L 38.141261 89.816364 
L 36.127035 87.894545 
L 34.161227 85.972727 
L 32.257245 84.050909 
L 30.426585 82.129091 
L 28.67879 80.207273 
L 27.021455 78.285455 
L 25.460277 76.363636 
L 23.999134 74.441818 
L 22.640208 72.52 
L 21.384119 70.598182 
L 20.230086 68.676364 
L 19.176101 66.754545 
L 18.219102 64.832727 
L 17.35516 62.910909 
L 16.579647 60.989091 
L 15.887413 59.067273 
L 15.272935 57.145455 
L 14.730471 55.223636 
L 14.254179 53.301818 
L 13.83824 51.38 
L 13.476943 49.458182 
L 13.164772 47.536364 
L 12.896467 45.614545 
L 12.667069 43.692727 
L 12.471953 41.770909 
L 12.306854 39.849091 
L 12.167872 37.927273 
L 12.051473 36.005455 
L 11.954482 34.083636 
L 11.874074 32.161818 
L 11.80775 30.24 
" style="fill:none;stroke:#d3d3d3;stroke-dasharray:1.5,2.475;stroke-dashoffset:0;stroke-width:1.5;"/>
   </g>
   <g id="patch_3">
    <path d="M 9 220.5 
L 9 30.24 
" style="fill:none;stroke:#000000;stroke-linecap:square;stroke-linejoin:miter;stroke-width:0.8;"/>
   </g>
   <g id="legend_1">
    <g id="patch_4">
     <path d="M 13.9 65.545156 
L 90.384844 65.545156 
Q 91.784844 65.545156 91.784844 64.145156 
L 91.784844 35.14 
Q 91.784844 33.74 90.384844 33.74 
L 13.9 33.74 
Q 12.5 33.74 12.5 35.14 
L 12.5 64.145156 
Q 12.5 65.545156 13.9 65.545156 
z
" style="fill:#ffffff;opacity:0.8;stroke:#cccccc;stroke-linejoin:miter;"/>
    </g>
    <g id="line2d_6">
     <path d="M 15.3 39.100469 
L 29.3 39.100469 
" style="fill:none;stroke:#000000;stroke-linecap:square;stroke-width:1.5;"/>
    </g>
    <g id="line2d_7"/>
    <g id="text_1">
     <!-- -1.58-0.33 inches -->
     <g transform="translate(34.9 41.550469)scale(0.07 -0.07)">
      <defs>
       <path d="M 3.171875 21.484375 
L 3.171875 30.328125 
L 30.171875 30.328125 
L 30.171875 21.484375 
z
" id="ArialMT-45"/>
       <path d="M 37.25 0 
L 28.46875 0 
L 28.46875 56 
Q 25.296875 52.984375 20.140625 49.953125 
Q 14.984375 46.921875 10.890625 45.40625 
L 10.890625 53.90625 
Q 18.265625 57.375 23.78125 62.296875 
Q 29.296875 67.234375 31.59375 71.875 
L 37.25 71.875 
z
" id="ArialMT-49"/>
       <path d="M 9.078125 0 
L 9.078125 10.015625 
L 19.09375 10.015625 
L 19.09375 0 
z
" id="ArialMT-46"/>
       <path d="M 4.15625 18.75 
L 13.375 19.53125 
Q 14.40625 12.796875 18.140625 9.390625 
Q 21.875 6 27.15625 6 
Q 33.5 6 37.890625 10.78125 
Q 42.28125 15.578125 42.28125 23.484375 
Q 42.28125 31 38.0625 35.34375 
Q 33.84375 39.703125 27 39.703125 
Q 22.75 39.703125 19.328125 37.765625 
Q 15.921875 35.84375 13.96875 32.765625 
L 5.71875 33.84375 
L 12.640625 70.609375 
L 48.25 70.609375 
L 48.25 62.203125 
L 19.671875 62.203125 
L 15.828125 42.96875 
Q 22.265625 47.46875 29.34375 47.46875 
Q 38.71875 47.46875 45.15625 40.96875 
Q 51.609375 34.46875 51.609375 24.265625 
Q 51.609375 14.546875 45.953125 7.46875 
Q 39.0625 -1.21875 27.15625 -1.21875 
Q 17.390625 -1.21875 11.203125 4.25 
Q 5.03125 9.71875 4.15625 18.75 
z
" id="ArialMT-53"/>
       <path d="M 17.671875 38.8125 
Q 12.203125 40.828125 9.5625 44.53125 
Q 6.9375 48.25 6.9375 53.421875 
Q 6.9375 61.234375 12.546875 66.546875 
Q 18.171875 71.875 27.484375 71.875 
Q 36.859375 71.875 42.578125 66.421875 
Q 48.296875 60.984375 48.296875 53.171875 
Q 48.296875 48.1875 45.671875 44.5 
Q 43.0625 40.828125 37.75 38.8125 
Q 44.34375 36.671875 47.78125 31.875 
Q 51.21875 27.09375 51.21875 20.453125 
Q 51.21875 11.28125 44.71875 5.03125 
Q 38.234375 -1.21875 27.640625 -1.21875 
Q 17.046875 -1.21875 10.546875 5.046875 
Q 4.046875 11.328125 4.046875 20.703125 
Q 4.046875 27.6875 7.59375 32.390625 
Q 11.140625 37.109375 17.671875 38.8125 
z
M 15.921875 53.71875 
Q 15.921875 48.640625 19.1875 45.40625 
Q 22.46875 42.1875 27.6875 42.1875 
Q 32.765625 42.1875 36.015625 45.375 
Q 39.265625 48.578125 39.265625 53.21875 
Q 39.265625 58.0625 35.90625 61.359375 
Q 32.5625 64.65625 27.59375 64.65625 
Q 22.5625 64.65625 19.234375 61.421875 
Q 15.921875 58.203125 15.921875 53.71875 
z
M 13.09375 20.65625 
Q 13.09375 16.890625 14.875 13.375 
Q 16.65625 9.859375 20.171875 7.921875 
Q 23.6875 6 27.734375 6 
Q 34.03125 6 38.125 10.046875 
Q 42.234375 14.109375 42.234375 20.359375 
Q 42.234375 26.703125 38.015625 30.859375 
Q 33.796875 35.015625 27.4375 35.015625 
Q 21.234375 35.015625 17.15625 30.90625 
Q 13.09375 26.8125 13.09375 20.65625 
z
" id="ArialMT-56"/>
       <path d="M 4.15625 35.296875 
Q 4.15625 48 6.765625 55.734375 
Q 9.375 63.484375 14.515625 67.671875 
Q 19.671875 71.875 27.484375 71.875 
Q 33.25 71.875 37.59375 69.546875 
Q 41.9375 67.234375 44.765625 62.859375 
Q 47.609375 58.5 49.21875 52.21875 
Q 50.828125 45.953125 50.828125 35.296875 
Q 50.828125 22.703125 48.234375 14.96875 
Q 45.65625 7.234375 40.5 3 
Q 35.359375 -1.21875 27.484375 -1.21875 
Q 17.140625 -1.21875 11.234375 6.203125 
Q 4.15625 15.140625 4.15625 35.296875 
z
M 13.1875 35.296875 
Q 13.1875 17.671875 17.3125 11.828125 
Q 21.4375 6 27.484375 6 
Q 33.546875 6 37.671875 11.859375 
Q 41.796875 17.71875 41.796875 35.296875 
Q 41.796875 52.984375 37.671875 58.78125 
Q 33.546875 64.59375 27.390625 64.59375 
Q 21.34375 64.59375 17.71875 59.46875 
Q 13.1875 52.9375 13.1875 35.296875 
z
" id="ArialMT-48"/>
       <path d="M 4.203125 18.890625 
L 12.984375 20.0625 
Q 14.5 12.59375 18.140625 9.296875 
Q 21.78125 6 27 6 
Q 33.203125 6 37.46875 10.296875 
Q 41.75 14.59375 41.75 20.953125 
Q 41.75 27 37.796875 30.921875 
Q 33.84375 34.859375 27.734375 34.859375 
Q 25.25 34.859375 21.53125 33.890625 
L 22.515625 41.609375 
Q 23.390625 41.5 23.921875 41.5 
Q 29.546875 41.5 34.03125 44.421875 
Q 38.53125 47.359375 38.53125 53.46875 
Q 38.53125 58.296875 35.25 61.46875 
Q 31.984375 64.65625 26.8125 64.65625 
Q 21.6875 64.65625 18.265625 61.421875 
Q 14.84375 58.203125 13.875 51.765625 
L 5.078125 53.328125 
Q 6.6875 62.15625 12.390625 67.015625 
Q 18.109375 71.875 26.609375 71.875 
Q 32.46875 71.875 37.390625 69.359375 
Q 42.328125 66.84375 44.9375 62.5 
Q 47.5625 58.15625 47.5625 53.265625 
Q 47.5625 48.640625 45.0625 44.828125 
Q 42.578125 41.015625 37.703125 38.765625 
Q 44.046875 37.3125 47.5625 32.6875 
Q 51.078125 28.078125 51.078125 21.140625 
Q 51.078125 11.765625 44.234375 5.25 
Q 37.40625 -1.265625 26.953125 -1.265625 
Q 17.53125 -1.265625 11.296875 4.34375 
Q 5.078125 9.96875 4.203125 18.890625 
z
" id="ArialMT-51"/>
       <path id="ArialMT-32"/>
       <path d="M 6.640625 61.46875 
L 6.640625 71.578125 
L 15.4375 71.578125 
L 15.4375 61.46875 
z
M 6.640625 0 
L 6.640625 51.859375 
L 15.4375 51.859375 
L 15.4375 0 
z
" id="ArialMT-105"/>
       <path d="M 6.59375 0 
L 6.59375 51.859375 
L 14.5 51.859375 
L 14.5 44.484375 
Q 20.21875 53.03125 31 53.03125 
Q 35.6875 53.03125 39.625 51.34375 
Q 43.5625 49.65625 45.515625 46.921875 
Q 47.46875 44.1875 48.25 40.4375 
Q 48.734375 37.984375 48.734375 31.890625 
L 48.734375 0 
L 39.9375 0 
L 39.9375 31.546875 
Q 39.9375 36.921875 38.90625 39.578125 
Q 37.890625 42.234375 35.28125 43.8125 
Q 32.671875 45.40625 29.15625 45.40625 
Q 23.53125 45.40625 19.453125 41.84375 
Q 15.375 38.28125 15.375 28.328125 
L 15.375 0 
z
" id="ArialMT-110"/>
       <path d="M 40.4375 19 
L 49.078125 17.875 
Q 47.65625 8.9375 41.8125 3.875 
Q 35.984375 -1.171875 27.484375 -1.171875 
Q 16.84375 -1.171875 10.375 5.78125 
Q 3.90625 12.75 3.90625 25.734375 
Q 3.90625 34.125 6.6875 40.421875 
Q 9.46875 46.734375 15.15625 49.875 
Q 20.84375 53.03125 27.546875 53.03125 
Q 35.984375 53.03125 41.359375 48.75 
Q 46.734375 44.484375 48.25 36.625 
L 39.703125 35.296875 
Q 38.484375 40.53125 35.375 43.15625 
Q 32.28125 45.796875 27.875 45.796875 
Q 21.234375 45.796875 17.078125 41.03125 
Q 12.9375 36.28125 12.9375 25.984375 
Q 12.9375 15.53125 16.9375 10.796875 
Q 20.953125 6.0625 27.390625 6.0625 
Q 32.5625 6.0625 36.03125 9.234375 
Q 39.5 12.40625 40.4375 19 
z
" id="ArialMT-99"/>
       <path d="M 6.59375 0 
L 6.59375 71.578125 
L 15.375 71.578125 
L 15.375 45.90625 
Q 21.53125 53.03125 30.90625 53.03125 
Q 36.671875 53.03125 40.921875 50.75 
Q 45.171875 48.484375 47 44.484375 
Q 48.828125 40.484375 48.828125 32.859375 
L 48.828125 0 
L 40.046875 0 
L 40.046875 32.859375 
Q 40.046875 39.453125 37.1875 42.453125 
Q 34.328125 45.453125 29.109375 45.453125 
Q 25.203125 45.453125 21.75 43.421875 
Q 18.3125 41.40625 16.84375 37.9375 
Q 15.375 34.46875 15.375 28.375 
L 15.375 0 
z
" id="ArialMT-104"/>
       <path d="M 42.09375 16.703125 
L 51.171875 15.578125 
Q 49.03125 7.625 43.21875 3.21875 
Q 37.40625 -1.171875 28.375 -1.171875 
Q 17 -1.171875 10.328125 5.828125 
Q 3.65625 12.84375 3.65625 25.484375 
Q 3.65625 38.578125 10.390625 45.796875 
Q 17.140625 53.03125 27.875 53.03125 
Q 38.28125 53.03125 44.875 45.953125 
Q 51.46875 38.875 51.46875 26.03125 
Q 51.46875 25.25 51.421875 23.6875 
L 12.75 23.6875 
Q 13.234375 15.140625 17.578125 10.59375 
Q 21.921875 6.0625 28.421875 6.0625 
Q 33.25 6.0625 36.671875 8.59375 
Q 40.09375 11.140625 42.09375 16.703125 
z
M 13.234375 30.90625 
L 42.1875 30.90625 
Q 41.609375 37.453125 38.875 40.71875 
Q 34.671875 45.796875 27.984375 45.796875 
Q 21.921875 45.796875 17.796875 41.75 
Q 13.671875 37.703125 13.234375 30.90625 
z
" id="ArialMT-101"/>
       <path d="M 3.078125 15.484375 
L 11.765625 16.84375 
Q 12.5 11.625 15.84375 8.84375 
Q 19.1875 6.0625 25.203125 6.0625 
Q 31.25 6.0625 34.171875 8.515625 
Q 37.109375 10.984375 37.109375 14.3125 
Q 37.109375 17.28125 34.515625 19 
Q 32.71875 20.171875 25.53125 21.96875 
Q 15.875 24.421875 12.140625 26.203125 
Q 8.40625 27.984375 6.46875 31.125 
Q 4.546875 34.28125 4.546875 38.09375 
Q 4.546875 41.546875 6.125 44.5 
Q 7.71875 47.46875 10.453125 49.421875 
Q 12.5 50.921875 16.03125 51.96875 
Q 19.578125 53.03125 23.640625 53.03125 
Q 29.734375 53.03125 34.34375 51.265625 
Q 38.96875 49.515625 41.15625 46.5 
Q 43.359375 43.5 44.1875 38.484375 
L 35.59375 37.3125 
Q 35.015625 41.3125 32.203125 43.546875 
Q 29.390625 45.796875 24.265625 45.796875 
Q 18.21875 45.796875 15.625 43.796875 
Q 13.03125 41.796875 13.03125 39.109375 
Q 13.03125 37.40625 14.109375 36.03125 
Q 15.1875 34.625 17.484375 33.6875 
Q 18.796875 33.203125 25.25 31.453125 
Q 34.578125 28.953125 38.25 27.359375 
Q 41.9375 25.78125 44.03125 22.75 
Q 46.140625 19.734375 46.140625 15.234375 
Q 46.140625 10.84375 43.578125 6.953125 
Q 41.015625 3.078125 36.171875 0.953125 
Q 31.34375 -1.171875 25.25 -1.171875 
Q 15.140625 -1.171875 9.84375 3.03125 
Q 4.546875 7.234375 3.078125 15.484375 
z
" id="ArialMT-115"/>
      </defs>
      <use xlink:href="#ArialMT-45"/>
      <use x="33.300781" xlink:href="#ArialMT-49"/>
      <use x="88.916016" xlink:href="#ArialMT-46"/>
      <use x="116.699219" xlink:href="#ArialMT-53"/>
      <use x="172.314453" xlink:href="#ArialMT-56"/>
      <use x="227.929688" xlink:href="#ArialMT-45"/>
      <use x="261.230469" xlink:href="#ArialMT-48"/>
      <use x="316.845703" xlink:href="#ArialMT-46"/>
      <use x="344.628906" xlink:href="#ArialMT-51"/>
      <use x="400.244141" xlink:href="#ArialMT-51"/>
      <use x="455.859375" xlink:href="#ArialMT-32"/>
      <use x="483.642578" xlink:href="#ArialMT-105"/>
      <use x="505.859375" xlink:href="#ArialMT-110"/>
      <use x="561.474609" xlink:href="#ArialMT-99"/>
      <use x="611.474609" xlink:href="#ArialMT-104"/>
      <use x="667.089844" xlink:href="#ArialMT-101"/>
      <use x="722.705078" xlink:href="#ArialMT-115"/>
     </g>
    </g>
    <g id="line2d_8">
     <path d="M 15.3 49.002188 
L 29.3 49.002188 
" style="fill:none;stroke:#808080;stroke-dasharray:5.55,2.4;stroke-dashoffset:0;stroke-width:1.5;"/>
    </g>
    <g id="line2d_9"/>
    <g id="text_2">
     <!-- 0.33-1.32 inches -->
     <g transform="translate(34.9 51.452188)scale(0.07 -0.07)">
      <defs>
       <path d="M 50.34375 8.453125 
L 50.34375 0 
L 3.03125 0 
Q 2.9375 3.171875 4.046875 6.109375 
Q 5.859375 10.9375 9.828125 15.625 
Q 13.8125 20.3125 21.34375 26.46875 
Q 33.015625 36.03125 37.109375 41.625 
Q 41.21875 47.21875 41.21875 52.203125 
Q 41.21875 57.421875 37.46875 61 
Q 33.734375 64.59375 27.734375 64.59375 
Q 21.390625 64.59375 17.578125 60.78125 
Q 13.765625 56.984375 13.71875 50.25 
L 4.6875 51.171875 
Q 5.609375 61.28125 11.65625 66.578125 
Q 17.71875 71.875 27.9375 71.875 
Q 38.234375 71.875 44.234375 66.15625 
Q 50.25 60.453125 50.25 52 
Q 50.25 47.703125 48.484375 43.546875 
Q 46.734375 39.40625 42.65625 34.8125 
Q 38.578125 30.21875 29.109375 22.21875 
Q 21.1875 15.578125 18.9375 13.203125 
Q 16.703125 10.84375 15.234375 8.453125 
z
" id="ArialMT-50"/>
      </defs>
      <use xlink:href="#ArialMT-48"/>
      <use x="55.615234" xlink:href="#ArialMT-46"/>
      <use x="83.398438" xlink:href="#ArialMT-51"/>
      <use x="139.013672" xlink:href="#ArialMT-51"/>
      <use x="194.628906" xlink:href="#ArialMT-45"/>
      <use x="227.929688" xlink:href="#ArialMT-49"/>
      <use x="283.544922" xlink:href="#ArialMT-46"/>
      <use x="311.328125" xlink:href="#ArialMT-51"/>
      <use x="366.943359" xlink:href="#ArialMT-50"/>
      <use x="422.558594" xlink:href="#ArialMT-32"/>
      <use x="450.341797" xlink:href="#ArialMT-105"/>
      <use x="472.558594" xlink:href="#ArialMT-110"/>
      <use x="528.173828" xlink:href="#ArialMT-99"/>
      <use x="578.173828" xlink:href="#ArialMT-104"/>
      <use x="633.789062" xlink:href="#ArialMT-101"/>
      <use x="689.404297" xlink:href="#ArialMT-115"/>
     </g>
    </g>
    <g id="line2d_10">
     <path d="M 15.3 58.903906 
L 29.3 58.903906 
" style="fill:none;stroke:#d3d3d3;stroke-dasharray:1.5,2.475;stroke-dashoffset:0;stroke-width:1.5;"/>
    </g>
    <g id="line2d_11"/>
    <g id="text_3">
     <!-- 1.32-2.99 inches -->
     <g transform="translate(34.9 61.353906)scale(0.07 -0.07)">
      <defs>
       <path d="M 5.46875 16.546875 
L 13.921875 17.328125 
Q 14.984375 11.375 18.015625 8.6875 
Q 21.046875 6 25.78125 6 
Q 29.828125 6 32.875 7.859375 
Q 35.9375 9.71875 37.890625 12.8125 
Q 39.84375 15.921875 41.15625 21.1875 
Q 42.484375 26.46875 42.484375 31.9375 
Q 42.484375 32.515625 42.4375 33.6875 
Q 39.796875 29.5 35.234375 26.875 
Q 30.671875 24.265625 25.34375 24.265625 
Q 16.453125 24.265625 10.296875 30.703125 
Q 4.15625 37.15625 4.15625 47.703125 
Q 4.15625 58.59375 10.578125 65.234375 
Q 17 71.875 26.65625 71.875 
Q 33.640625 71.875 39.421875 68.109375 
Q 45.21875 64.359375 48.21875 57.390625 
Q 51.21875 50.4375 51.21875 37.25 
Q 51.21875 23.53125 48.234375 15.40625 
Q 45.265625 7.28125 39.375 3.03125 
Q 33.5 -1.21875 25.59375 -1.21875 
Q 17.1875 -1.21875 11.859375 3.4375 
Q 6.546875 8.109375 5.46875 16.546875 
z
M 41.453125 48.140625 
Q 41.453125 55.71875 37.421875 60.15625 
Q 33.40625 64.59375 27.734375 64.59375 
Q 21.875 64.59375 17.53125 59.8125 
Q 13.1875 55.03125 13.1875 47.40625 
Q 13.1875 40.578125 17.3125 36.296875 
Q 21.4375 32.03125 27.484375 32.03125 
Q 33.59375 32.03125 37.515625 36.296875 
Q 41.453125 40.578125 41.453125 48.140625 
z
" id="ArialMT-57"/>
      </defs>
      <use xlink:href="#ArialMT-49"/>
      <use x="55.615234" xlink:href="#ArialMT-46"/>
      <use x="83.398438" xlink:href="#ArialMT-51"/>
      <use x="139.013672" xlink:href="#ArialMT-50"/>
      <use x="194.628906" xlink:href="#ArialMT-45"/>
      <use x="227.929688" xlink:href="#ArialMT-50"/>
      <use x="283.544922" xlink:href="#ArialMT-46"/>
      <use x="311.328125" xlink:href="#ArialMT-57"/>
      <use x="366.943359" xlink:href="#ArialMT-57"/>
      <use x="422.558594" xlink:href="#ArialMT-32"/>
      <use x="450.341797" xlink:href="#ArialMT-105"/>
      <use x="472.558594" xlink:href="#ArialMT-110"/>
      <use x="528.173828" xlink:href="#ArialMT-99"/>
      <use x="578.173828" xlink:href="#ArialMT-104"/>
      <use x="633.789062" xlink:href="#ArialMT-101"/>
      <use x="689.404297" xlink:href="#ArialMT-115"/>
     </g>
    </g>
   </g>
  </g>
 </g>
 <defs>
  <clipPath id="p9626e94a1c">
   <rect height="190.26" width="55.8" x="9" y="30.24"/>
  </clipPath>
 </defs>
</svg>
