<?xml version="1.0" encoding="utf-8" standalone="no"?>
<!DOCTYPE svg PUBLIC "-//W3C//DTD SVG 1.1//EN"
  "http://www.w3.org/Graphics/SVG/1.1/DTD/svg11.dtd">
<!-- Created with matplotlib (https://matplotlib.org/) -->
<svg height="252pt" version="1.1" viewBox="0 0 72 252" width="72pt" xmlns="http://www.w3.org/2000/svg" xmlns:xlink="http://www.w3.org/1999/xlink">
 <metadata>
  <rdf:RDF xmlns:cc="http://creativecommons.org/ns#" xmlns:dc="http://purl.org/dc/elements/1.1/" xmlns:rdf="http://www.w3.org/1999/02/22-rdf-syntax-ns#">
   <cc:Work>
    <dc:type rdf:resource="http://purl.org/dc/dcmitype/StillImage"/>
    <dc:date>2022-05-23T16:14:59.244366</dc:date>
    <dc:format>image/svg+xml</dc:format>
    <dc:creator>
     <cc:Agent>
      <dc:title>Matplotlib v3.3.4, https://matplotlib.org/</dc:title>
     </cc:Agent>
    </dc:creator>
   </cc:Work>
  </rdf:RDF>
 </metadata>
 <defs>
  <style type="text/css">*{stroke-linecap:butt;stroke-linejoin:round;}</style>
 </defs>
 <g id="figure_1">
  <g id="patch_1">
   <path d="M 0 252 
L 72 252 
L 72 0 
L 0 0 
z
" style="fill:none;"/>
  </g>
  <g id="axes_1">
   <g id="patch_2">
    <path d="M 9 220.5 
L 64.8 220.5 
L 64.8 30.24 
L 9 30.24 
z
" style="fill:#ffffff;"/>
   </g>
   <g id="matplotlib.axis_1">
    <g id="ytick_1">
     <g id="line2d_1">
      <defs>
       <path d="M 0 0 
L -3.5 0 
" id="m4e6b427b5d" style="stroke:#000000;stroke-width:0.8;"/>
      </defs>
      <g>
       <use style="stroke:#000000;stroke-width:0.8;" x="9" xlink:href="#m4e6b427b5d" y="172.935"/>
      </g>
     </g>
    </g>
    <g id="ytick_2">
     <g id="line2d_2">
      <g>
       <use style="stroke:#000000;stroke-width:0.8;" x="9" xlink:href="#m4e6b427b5d" y="77.805"/>
      </g>
     </g>
    </g>
   </g>
   <g id="line2d_3">
    <path clip-path="url(#p06fd6f7f0b)" d="M 14.066691 220.5 
L 14.522969 218.578182 
L 15.044834 216.656364 
L 15.638406 214.734545 
L 16.309759 212.812727 
L 17.064798 210.890909 
L 17.909102 208.969091 
L 18.847767 207.047273 
L 19.885226 205.125455 
L 21.025063 203.203636 
L 22.269822 201.281818 
L 23.620815 199.36 
L 25.077934 197.438182 
L 26.639472 195.516364 
L 28.301969 193.594545 
L 30.060075 191.672727 
L 31.906451 189.750909 
L 33.831704 187.829091 
L 35.824367 185.907273 
L 37.870929 183.985455 
L 39.955917 182.063636 
L 42.062033 180.141818 
L 44.170346 178.22 
L 46.260541 176.298182 
L 48.311214 174.376364 
L 50.300221 172.454545 
L 52.205056 170.532727 
L 54.003269 168.610909 
L 55.672901 166.689091 
L 57.192918 164.767273 
L 58.543661 162.845455 
L 59.707259 160.923636 
L 60.668025 159.001818 
L 61.412808 157.08 
L 61.931293 155.158182 
L 62.216236 153.236364 
L 62.263636 151.314545 
L 62.072826 149.392727 
L 61.646488 147.470909 
L 60.990594 145.549091 
L 60.114262 143.627273 
L 59.029549 141.705455 
L 57.751172 139.783636 
L 56.29618 137.861818 
L 54.683571 135.94 
L 52.933883 134.018182 
L 51.068761 132.096364 
L 49.110513 130.174545 
L 47.081672 128.252727 
L 45.004576 126.330909 
L 42.900964 124.409091 
L 40.791625 122.487273 
L 38.69607 120.565455 
L 36.632275 118.643636 
L 34.616456 116.721818 
L 32.662918 114.8 
L 30.783947 112.878182 
L 28.989759 110.956364 
L 27.288507 109.034545 
L 25.686319 107.112727 
L 24.187393 105.190909 
L 22.794115 103.269091 
L 21.507208 101.347273 
L 20.325903 99.425455 
L 19.248123 97.503636 
L 18.270674 95.581818 
L 17.389437 93.66 
L 16.599558 91.738182 
L 15.895631 89.816364 
L 15.271861 87.894545 
L 14.722224 85.972727 
L 14.240605 84.050909 
L 13.820911 82.129091 
L 13.45718 80.207273 
L 13.143659 78.285455 
L 12.874874 76.363636 
L 12.645674 74.441818 
L 12.451269 72.52 
L 12.287249 70.598182 
L 12.149592 68.676364 
L 12.034665 66.754545 
L 11.939216 64.832727 
L 11.860353 62.910909 
L 11.795533 60.989091 
L 11.742527 59.067273 
L 11.699405 57.145455 
L 11.664504 55.223636 
L 11.636399 53.301818 
L 11.613882 51.38 
L 11.595934 49.458182 
L 11.581699 47.536364 
L 11.570467 45.614545 
L 11.561648 43.692727 
L 11.554758 41.770909 
L 11.549403 39.849091 
L 11.545261 37.927273 
L 11.542074 36.005455 
L 11.539633 34.083636 
L 11.537774 32.161818 
L 11.536364 30.24 
" style="fill:none;stroke:#000000;stroke-linecap:square;stroke-width:1.5;"/>
   </g>
   <g id="line2d_4">
    <path clip-path="url(#p06fd6f7f0b)" d="M 13.095307 220.5 
L 13.372406 218.578182 
L 13.689952 216.656364 
L 14.052163 214.734545 
L 14.463392 212.812727 
L 14.928074 210.890909 
L 15.450668 208.969091 
L 16.035577 207.047273 
L 16.687068 205.125455 
L 17.409177 203.203636 
L 18.205608 201.281818 
L 19.079621 199.36 
L 20.033917 197.438182 
L 21.07052 195.516364 
L 22.190656 193.594545 
L 23.394635 191.672727 
L 24.68174 189.750909 
L 26.050121 187.829091 
L 27.496705 185.907273 
L 29.017118 183.985455 
L 30.605634 182.063636 
L 32.255138 180.141818 
L 33.957119 178.22 
L 35.701696 176.298182 
L 37.477662 174.376364 
L 39.272578 172.454545 
L 41.072877 170.532727 
L 42.864023 168.610909 
L 44.630676 166.689091 
L 46.356906 164.767273 
L 48.026417 162.845455 
L 49.622796 160.923636 
L 51.129776 159.001818 
L 52.531512 157.08 
L 53.81285 155.158182 
L 54.959603 153.236364 
L 55.958812 151.314545 
L 56.798985 149.392727 
L 57.470321 147.470909 
L 57.964899 145.549091 
L 58.276833 143.627273 
L 58.402389 141.705455 
L 58.340059 139.783636 
L 58.090592 137.861818 
L 57.656978 135.94 
L 57.044389 134.018182 
L 56.260077 132.096364 
L 55.31323 130.174545 
L 54.214791 128.252727 
L 52.977254 126.330909 
L 51.61442 124.409091 
L 50.141146 122.487273 
L 48.573076 120.565455 
L 46.926366 118.643636 
L 45.217408 116.721818 
L 43.462567 114.8 
L 41.677924 112.878182 
L 39.87904 110.956364 
L 38.080744 109.034545 
L 36.296947 107.112727 
L 34.540484 105.190909 
L 32.822985 103.269091 
L 31.154787 101.347273 
L 29.544865 99.425455 
L 28.000806 97.503636 
L 26.528801 95.581818 
L 25.133674 93.66 
L 23.818929 91.738182 
L 22.586817 89.816364 
L 21.438428 87.894545 
L 20.373784 85.972727 
L 19.391955 84.050909 
L 18.491173 82.129091 
L 17.66895 80.207273 
L 16.922202 78.285455 
L 16.247363 76.363636 
L 15.640496 74.441818 
L 15.0974 72.52 
L 14.613709 70.598182 
L 14.184975 68.676364 
L 13.806746 66.754545 
L 13.474635 64.832727 
L 13.184374 62.910909 
L 12.93186 60.989091 
L 12.713192 59.067273 
L 12.524698 57.145455 
L 12.36295 55.223636 
L 12.224778 53.301818 
L 12.107277 51.38 
L 12.007801 49.458182 
L 11.923958 47.536364 
L 11.853606 45.614545 
L 11.794833 43.692727 
L 11.745951 41.770909 
L 11.705472 39.849091 
L 11.672099 37.927273 
L 11.644704 36.005455 
L 11.622313 34.083636 
L 11.604092 32.161818 
L 11.589329 30.24 
" style="fill:none;stroke:#808080;stroke-dasharray:1.5,2.475;stroke-dashoffset:0;stroke-width:1.5;"/>
   </g>
   <g id="line2d_5">
    <path clip-path="url(#p06fd6f7f0b)" d="M 11.760468 220.5 
L 11.81452 218.578182 
L 11.879877 216.656364 
L 11.958529 214.734545 
L 12.052733 212.812727 
L 12.165028 210.890909 
L 12.298251 208.969091 
L 12.455542 207.047273 
L 12.640355 205.125455 
L 12.856455 203.203636 
L 13.107906 201.281818 
L 13.399059 199.36 
L 13.734518 197.438182 
L 14.119109 195.516364 
L 14.55782 193.594545 
L 15.055746 191.672727 
L 15.618006 189.750909 
L 16.249654 187.829091 
L 16.955577 185.907273 
L 17.740375 183.985455 
L 18.608239 182.063636 
L 19.56281 180.141818 
L 20.60704 178.22 
L 21.743039 176.298182 
L 22.971934 174.376364 
L 24.293722 172.454545 
L 25.707134 170.532727 
L 27.209514 168.610909 
L 28.796711 166.689091 
L 30.462999 164.767273 
L 32.201016 162.845455 
L 34.001745 160.923636 
L 35.854519 159.001818 
L 37.747068 157.08 
L 39.665611 155.158182 
L 41.594978 153.236364 
L 43.518782 151.314545 
L 45.419625 149.392727 
L 47.27934 147.470909 
L 49.07927 145.549091 
L 50.800563 143.627273 
L 52.4245 141.705455 
L 53.932829 139.783636 
L 55.308097 137.861818 
L 56.533992 135.94 
L 57.595662 134.018182 
L 58.48001 132.096364 
L 59.175968 130.174545 
L 59.674726 128.252727 
L 59.969914 126.330909 
L 60.057744 124.409091 
L 59.937084 122.487273 
L 59.609488 120.565455 
L 59.079158 118.643636 
L 58.352858 116.721818 
L 57.439769 114.8 
L 56.351295 112.878182 
L 55.100826 110.956364 
L 53.703468 109.034545 
L 52.175732 107.112727 
L 50.535221 105.190909 
L 48.800282 103.269091 
L 46.989678 101.347273 
L 45.12225 99.425455 
L 43.216598 97.503636 
L 41.290786 95.581818 
L 39.362066 93.66 
L 37.446647 91.738182 
L 35.55949 89.816364 
L 33.714146 87.894545 
L 31.922636 85.972727 
L 30.195369 84.050909 
L 28.541102 82.129091 
L 26.966936 80.207273 
L 25.478344 78.285455 
L 24.079235 76.363636 
L 22.77204 74.441818 
L 21.557818 72.52 
L 20.436387 70.598182 
L 19.406454 68.676364 
L 18.465765 66.754545 
L 17.611253 64.832727 
L 16.839178 62.910909 
L 16.145278 60.989091 
L 15.524898 59.067273 
L 14.973117 57.145455 
L 14.484865 55.223636 
L 14.055021 53.301818 
L 13.678503 51.38 
L 13.350343 49.458182 
L 13.065748 47.536364 
L 12.820151 45.614545 
L 12.609246 43.692727 
L 12.429013 41.770909 
L 12.275737 39.849091 
L 12.146014 37.927273 
L 12.036751 36.005455 
L 11.945159 34.083636 
L 11.868746 32.161818 
L 11.805297 30.24 
" style="fill:none;stroke:#a9a9a9;stroke-dasharray:5.55,2.4;stroke-dashoffset:0;stroke-width:1.5;"/>
   </g>
   <g id="patch_3">
    <path d="M 9 220.5 
L 9 30.24 
" style="fill:none;stroke:#000000;stroke-linecap:square;stroke-linejoin:miter;stroke-width:0.8;"/>
   </g>
   <g id="legend_1">
    <g id="patch_4">
     <path d="M 13.9 65.6075 
L 81.436875 65.6075 
Q 82.836875 65.6075 82.836875 64.2075 
L 82.836875 35.14 
Q 82.836875 33.74 81.436875 33.74 
L 13.9 33.74 
Q 12.5 33.74 12.5 35.14 
L 12.5 64.2075 
Q 12.5 65.6075 13.9 65.6075 
z
" style="fill:#ffffff;opacity:0.8;stroke:#cccccc;stroke-linejoin:miter;"/>
    </g>
    <g id="line2d_6">
     <path d="M 15.3 39.12125 
L 29.3 39.12125 
" style="fill:none;stroke:#000000;stroke-linecap:square;stroke-width:1.5;"/>
    </g>
    <g id="line2d_7"/>
    <g id="text_1">
     <!-- 60.8-86.2 mph -->
     <g transform="translate(34.9 41.57125)scale(0.07 -0.07)">
      <defs>
       <path d="M 49.75 54.046875 
L 41.015625 53.375 
Q 39.84375 58.546875 37.703125 60.890625 
Q 34.125 64.65625 28.90625 64.65625 
Q 24.703125 64.65625 21.53125 62.3125 
Q 17.390625 59.28125 14.984375 53.46875 
Q 12.59375 47.65625 12.5 36.921875 
Q 15.671875 41.75 20.265625 44.09375 
Q 24.859375 46.4375 29.890625 46.4375 
Q 38.671875 46.4375 44.84375 39.96875 
Q 51.03125 33.5 51.03125 23.25 
Q 51.03125 16.5 48.125 10.71875 
Q 45.21875 4.9375 40.140625 1.859375 
Q 35.0625 -1.21875 28.609375 -1.21875 
Q 17.625 -1.21875 10.6875 6.859375 
Q 3.765625 14.9375 3.765625 33.5 
Q 3.765625 54.25 11.421875 63.671875 
Q 18.109375 71.875 29.4375 71.875 
Q 37.890625 71.875 43.28125 67.140625 
Q 48.6875 62.40625 49.75 54.046875 
z
M 13.875 23.1875 
Q 13.875 18.65625 15.796875 14.5 
Q 17.71875 10.359375 21.1875 8.171875 
Q 24.65625 6 28.46875 6 
Q 34.03125 6 38.03125 10.484375 
Q 42.046875 14.984375 42.046875 22.703125 
Q 42.046875 30.125 38.078125 34.390625 
Q 34.125 38.671875 28.125 38.671875 
Q 22.171875 38.671875 18.015625 34.390625 
Q 13.875 30.125 13.875 23.1875 
z
" id="ArialMT-54"/>
       <path d="M 4.15625 35.296875 
Q 4.15625 48 6.765625 55.734375 
Q 9.375 63.484375 14.515625 67.671875 
Q 19.671875 71.875 27.484375 71.875 
Q 33.25 71.875 37.59375 69.546875 
Q 41.9375 67.234375 44.765625 62.859375 
Q 47.609375 58.5 49.21875 52.21875 
Q 50.828125 45.953125 50.828125 35.296875 
Q 50.828125 22.703125 48.234375 14.96875 
Q 45.65625 7.234375 40.5 3 
Q 35.359375 -1.21875 27.484375 -1.21875 
Q 17.140625 -1.21875 11.234375 6.203125 
Q 4.15625 15.140625 4.15625 35.296875 
z
M 13.1875 35.296875 
Q 13.1875 17.671875 17.3125 11.828125 
Q 21.4375 6 27.484375 6 
Q 33.546875 6 37.671875 11.859375 
Q 41.796875 17.71875 41.796875 35.296875 
Q 41.796875 52.984375 37.671875 58.78125 
Q 33.546875 64.59375 27.390625 64.59375 
Q 21.34375 64.59375 17.71875 59.46875 
Q 13.1875 52.9375 13.1875 35.296875 
z
" id="ArialMT-48"/>
       <path d="M 9.078125 0 
L 9.078125 10.015625 
L 19.09375 10.015625 
L 19.09375 0 
z
" id="ArialMT-46"/>
       <path d="M 17.671875 38.8125 
Q 12.203125 40.828125 9.5625 44.53125 
Q 6.9375 48.25 6.9375 53.421875 
Q 6.9375 61.234375 12.546875 66.546875 
Q 18.171875 71.875 27.484375 71.875 
Q 36.859375 71.875 42.578125 66.421875 
Q 48.296875 60.984375 48.296875 53.171875 
Q 48.296875 48.1875 45.671875 44.5 
Q 43.0625 40.828125 37.75 38.8125 
Q 44.34375 36.671875 47.78125 31.875 
Q 51.21875 27.09375 51.21875 20.453125 
Q 51.21875 11.28125 44.71875 5.03125 
Q 38.234375 -1.21875 27.640625 -1.21875 
Q 17.046875 -1.21875 10.546875 5.046875 
Q 4.046875 11.328125 4.046875 20.703125 
Q 4.046875 27.6875 7.59375 32.390625 
Q 11.140625 37.109375 17.671875 38.8125 
z
M 15.921875 53.71875 
Q 15.921875 48.640625 19.1875 45.40625 
Q 22.46875 42.1875 27.6875 42.1875 
Q 32.765625 42.1875 36.015625 45.375 
Q 39.265625 48.578125 39.265625 53.21875 
Q 39.265625 58.0625 35.90625 61.359375 
Q 32.5625 64.65625 27.59375 64.65625 
Q 22.5625 64.65625 19.234375 61.421875 
Q 15.921875 58.203125 15.921875 53.71875 
z
M 13.09375 20.65625 
Q 13.09375 16.890625 14.875 13.375 
Q 16.65625 9.859375 20.171875 7.921875 
Q 23.6875 6 27.734375 6 
Q 34.03125 6 38.125 10.046875 
Q 42.234375 14.109375 42.234375 20.359375 
Q 42.234375 26.703125 38.015625 30.859375 
Q 33.796875 35.015625 27.4375 35.015625 
Q 21.234375 35.015625 17.15625 30.90625 
Q 13.09375 26.8125 13.09375 20.65625 
z
" id="ArialMT-56"/>
       <path d="M 3.171875 21.484375 
L 3.171875 30.328125 
L 30.171875 30.328125 
L 30.171875 21.484375 
z
" id="ArialMT-45"/>
       <path d="M 50.34375 8.453125 
L 50.34375 0 
L 3.03125 0 
Q 2.9375 3.171875 4.046875 6.109375 
Q 5.859375 10.9375 9.828125 15.625 
Q 13.8125 20.3125 21.34375 26.46875 
Q 33.015625 36.03125 37.109375 41.625 
Q 41.21875 47.21875 41.21875 52.203125 
Q 41.21875 57.421875 37.46875 61 
Q 33.734375 64.59375 27.734375 64.59375 
Q 21.390625 64.59375 17.578125 60.78125 
Q 13.765625 56.984375 13.71875 50.25 
L 4.6875 51.171875 
Q 5.609375 61.28125 11.65625 66.578125 
Q 17.71875 71.875 27.9375 71.875 
Q 38.234375 71.875 44.234375 66.15625 
Q 50.25 60.453125 50.25 52 
Q 50.25 47.703125 48.484375 43.546875 
Q 46.734375 39.40625 42.65625 34.8125 
Q 38.578125 30.21875 29.109375 22.21875 
Q 21.1875 15.578125 18.9375 13.203125 
Q 16.703125 10.84375 15.234375 8.453125 
z
" id="ArialMT-50"/>
       <path id="ArialMT-32"/>
       <path d="M 6.59375 0 
L 6.59375 51.859375 
L 14.453125 51.859375 
L 14.453125 44.578125 
Q 16.890625 48.390625 20.9375 50.703125 
Q 25 53.03125 30.171875 53.03125 
Q 35.9375 53.03125 39.625 50.640625 
Q 43.3125 48.25 44.828125 43.953125 
Q 50.984375 53.03125 60.84375 53.03125 
Q 68.5625 53.03125 72.703125 48.75 
Q 76.859375 44.484375 76.859375 35.59375 
L 76.859375 0 
L 68.109375 0 
L 68.109375 32.671875 
Q 68.109375 37.9375 67.25 40.25 
Q 66.40625 42.578125 64.15625 43.984375 
Q 61.921875 45.40625 58.890625 45.40625 
Q 53.421875 45.40625 49.796875 41.765625 
Q 46.1875 38.140625 46.1875 30.125 
L 46.1875 0 
L 37.40625 0 
L 37.40625 33.6875 
Q 37.40625 39.546875 35.25 42.46875 
Q 33.109375 45.40625 28.21875 45.40625 
Q 24.515625 45.40625 21.359375 43.453125 
Q 18.21875 41.5 16.796875 37.734375 
Q 15.375 33.984375 15.375 26.90625 
L 15.375 0 
z
" id="ArialMT-109"/>
       <path d="M 6.59375 -19.875 
L 6.59375 51.859375 
L 14.59375 51.859375 
L 14.59375 45.125 
Q 17.4375 49.078125 21 51.046875 
Q 24.5625 53.03125 29.640625 53.03125 
Q 36.28125 53.03125 41.359375 49.609375 
Q 46.4375 46.1875 49.015625 39.953125 
Q 51.609375 33.734375 51.609375 26.3125 
Q 51.609375 18.359375 48.75 11.984375 
Q 45.90625 5.609375 40.453125 2.21875 
Q 35.015625 -1.171875 29 -1.171875 
Q 24.609375 -1.171875 21.109375 0.6875 
Q 17.625 2.546875 15.375 5.375 
L 15.375 -19.875 
z
M 14.546875 25.640625 
Q 14.546875 15.625 18.59375 10.84375 
Q 22.65625 6.0625 28.421875 6.0625 
Q 34.28125 6.0625 38.453125 11.015625 
Q 42.625 15.96875 42.625 26.375 
Q 42.625 36.28125 38.546875 41.203125 
Q 34.46875 46.140625 28.8125 46.140625 
Q 23.1875 46.140625 18.859375 40.890625 
Q 14.546875 35.640625 14.546875 25.640625 
z
" id="ArialMT-112"/>
       <path d="M 6.59375 0 
L 6.59375 71.578125 
L 15.375 71.578125 
L 15.375 45.90625 
Q 21.53125 53.03125 30.90625 53.03125 
Q 36.671875 53.03125 40.921875 50.75 
Q 45.171875 48.484375 47 44.484375 
Q 48.828125 40.484375 48.828125 32.859375 
L 48.828125 0 
L 40.046875 0 
L 40.046875 32.859375 
Q 40.046875 39.453125 37.1875 42.453125 
Q 34.328125 45.453125 29.109375 45.453125 
Q 25.203125 45.453125 21.75 43.421875 
Q 18.3125 41.40625 16.84375 37.9375 
Q 15.375 34.46875 15.375 28.375 
L 15.375 0 
z
" id="ArialMT-104"/>
      </defs>
      <use xlink:href="#ArialMT-54"/>
      <use x="55.615234" xlink:href="#ArialMT-48"/>
      <use x="111.230469" xlink:href="#ArialMT-46"/>
      <use x="139.013672" xlink:href="#ArialMT-56"/>
      <use x="194.628906" xlink:href="#ArialMT-45"/>
      <use x="227.929688" xlink:href="#ArialMT-56"/>
      <use x="283.544922" xlink:href="#ArialMT-54"/>
      <use x="339.160156" xlink:href="#ArialMT-46"/>
      <use x="366.943359" xlink:href="#ArialMT-50"/>
      <use x="422.558594" xlink:href="#ArialMT-32"/>
      <use x="450.341797" xlink:href="#ArialMT-109"/>
      <use x="533.642578" xlink:href="#ArialMT-112"/>
      <use x="589.257812" xlink:href="#ArialMT-104"/>
     </g>
    </g>
    <g id="line2d_8">
     <path d="M 15.3 49.04375 
L 29.3 49.04375 
" style="fill:none;stroke:#808080;stroke-dasharray:1.5,2.475;stroke-dashoffset:0;stroke-width:1.5;"/>
    </g>
    <g id="line2d_9"/>
    <g id="text_2">
     <!-- 86.2-89.6 mph -->
     <g transform="translate(34.9 51.49375)scale(0.07 -0.07)">
      <defs>
       <path d="M 5.46875 16.546875 
L 13.921875 17.328125 
Q 14.984375 11.375 18.015625 8.6875 
Q 21.046875 6 25.78125 6 
Q 29.828125 6 32.875 7.859375 
Q 35.9375 9.71875 37.890625 12.8125 
Q 39.84375 15.921875 41.15625 21.1875 
Q 42.484375 26.46875 42.484375 31.9375 
Q 42.484375 32.515625 42.4375 33.6875 
Q 39.796875 29.5 35.234375 26.875 
Q 30.671875 24.265625 25.34375 24.265625 
Q 16.453125 24.265625 10.296875 30.703125 
Q 4.15625 37.15625 4.15625 47.703125 
Q 4.15625 58.59375 10.578125 65.234375 
Q 17 71.875 26.65625 71.875 
Q 33.640625 71.875 39.421875 68.109375 
Q 45.21875 64.359375 48.21875 57.390625 
Q 51.21875 50.4375 51.21875 37.25 
Q 51.21875 23.53125 48.234375 15.40625 
Q 45.265625 7.28125 39.375 3.03125 
Q 33.5 -1.21875 25.59375 -1.21875 
Q 17.1875 -1.21875 11.859375 3.4375 
Q 6.546875 8.109375 5.46875 16.546875 
z
M 41.453125 48.140625 
Q 41.453125 55.71875 37.421875 60.15625 
Q 33.40625 64.59375 27.734375 64.59375 
Q 21.875 64.59375 17.53125 59.8125 
Q 13.1875 55.03125 13.1875 47.40625 
Q 13.1875 40.578125 17.3125 36.296875 
Q 21.4375 32.03125 27.484375 32.03125 
Q 33.59375 32.03125 37.515625 36.296875 
Q 41.453125 40.578125 41.453125 48.140625 
z
" id="ArialMT-57"/>
      </defs>
      <use xlink:href="#ArialMT-56"/>
      <use x="55.615234" xlink:href="#ArialMT-54"/>
      <use x="111.230469" xlink:href="#ArialMT-46"/>
      <use x="139.013672" xlink:href="#ArialMT-50"/>
      <use x="194.628906" xlink:href="#ArialMT-45"/>
      <use x="227.929688" xlink:href="#ArialMT-56"/>
      <use x="283.544922" xlink:href="#ArialMT-57"/>
      <use x="339.160156" xlink:href="#ArialMT-46"/>
      <use x="366.943359" xlink:href="#ArialMT-54"/>
      <use x="422.558594" xlink:href="#ArialMT-32"/>
      <use x="450.341797" xlink:href="#ArialMT-109"/>
      <use x="533.642578" xlink:href="#ArialMT-112"/>
      <use x="589.257812" xlink:href="#ArialMT-104"/>
     </g>
    </g>
    <g id="line2d_10">
     <path d="M 15.3 58.96625 
L 29.3 58.96625 
" style="fill:none;stroke:#a9a9a9;stroke-dasharray:5.55,2.4;stroke-dashoffset:0;stroke-width:1.5;"/>
    </g>
    <g id="line2d_11"/>
    <g id="text_3">
     <!-- 89.6-96.1 mph -->
     <g transform="translate(34.9 61.41625)scale(0.07 -0.07)">
      <defs>
       <path d="M 37.25 0 
L 28.46875 0 
L 28.46875 56 
Q 25.296875 52.984375 20.140625 49.953125 
Q 14.984375 46.921875 10.890625 45.40625 
L 10.890625 53.90625 
Q 18.265625 57.375 23.78125 62.296875 
Q 29.296875 67.234375 31.59375 71.875 
L 37.25 71.875 
z
" id="ArialMT-49"/>
      </defs>
      <use xlink:href="#ArialMT-56"/>
      <use x="55.615234" xlink:href="#ArialMT-57"/>
      <use x="111.230469" xlink:href="#ArialMT-46"/>
      <use x="139.013672" xlink:href="#ArialMT-54"/>
      <use x="194.628906" xlink:href="#ArialMT-45"/>
      <use x="227.929688" xlink:href="#ArialMT-57"/>
      <use x="283.544922" xlink:href="#ArialMT-54"/>
      <use x="339.160156" xlink:href="#ArialMT-46"/>
      <use x="366.943359" xlink:href="#ArialMT-49"/>
      <use x="422.558594" xlink:href="#ArialMT-32"/>
      <use x="450.341797" xlink:href="#ArialMT-109"/>
      <use x="533.642578" xlink:href="#ArialMT-112"/>
      <use x="589.257812" xlink:href="#ArialMT-104"/>
     </g>
    </g>
   </g>
  </g>
 </g>
 <defs>
  <clipPath id="p06fd6f7f0b">
   <rect height="190.26" width="55.8" x="9" y="30.24"/>
  </clipPath>
 </defs>
</svg>
