<?xml version="1.0" encoding="utf-8" standalone="no"?>
<!DOCTYPE svg PUBLIC "-//W3C//DTD SVG 1.1//EN"
  "http://www.w3.org/Graphics/SVG/1.1/DTD/svg11.dtd">
<!-- Created with matplotlib (https://matplotlib.org/) -->
<svg height="288pt" version="1.1" viewBox="0 0 108 288" width="108pt" xmlns="http://www.w3.org/2000/svg" xmlns:xlink="http://www.w3.org/1999/xlink">
 <metadata>
  <rdf:RDF xmlns:cc="http://creativecommons.org/ns#" xmlns:dc="http://purl.org/dc/elements/1.1/" xmlns:rdf="http://www.w3.org/1999/02/22-rdf-syntax-ns#">
   <cc:Work>
    <dc:type rdf:resource="http://purl.org/dc/dcmitype/StillImage"/>
    <dc:date>2022-05-23T16:14:56.523327</dc:date>
    <dc:format>image/svg+xml</dc:format>
    <dc:creator>
     <cc:Agent>
      <dc:title>Matplotlib v3.3.4, https://matplotlib.org/</dc:title>
     </cc:Agent>
    </dc:creator>
   </cc:Work>
  </rdf:RDF>
 </metadata>
 <defs>
  <style type="text/css">*{stroke-linecap:butt;stroke-linejoin:round;}</style>
 </defs>
 <g id="figure_1">
  <g id="patch_1">
   <path d="M 0 288 
L 108 288 
L 108 0 
L 0 0 
z
" style="fill:none;"/>
  </g>
  <g id="axes_1">
   <g id="patch_2">
    <path d="M 13.5 252 
L 97.2 252 
L 97.2 34.56 
L 13.5 34.56 
z
" style="fill:#ffffff;"/>
   </g>
   <g id="matplotlib.axis_1">
    <g id="ytick_1">
     <g id="line2d_1">
      <defs>
       <path d="M 0 0 
L -3.5 0 
" id="mf9c507f4ad" style="stroke:#000000;stroke-width:0.8;"/>
      </defs>
      <g>
       <use style="stroke:#000000;stroke-width:0.8;" x="13.5" xlink:href="#mf9c507f4ad" y="228.868085"/>
      </g>
     </g>
     <g id="text_1">
      <!-- -0.5 -->
      <g transform="translate(-5.560781 231.373319)scale(0.07 -0.07)">
       <defs>
        <path d="M 3.171875 21.484375 
L 3.171875 30.328125 
L 30.171875 30.328125 
L 30.171875 21.484375 
z
" id="ArialMT-45"/>
        <path d="M 4.15625 35.296875 
Q 4.15625 48 6.765625 55.734375 
Q 9.375 63.484375 14.515625 67.671875 
Q 19.671875 71.875 27.484375 71.875 
Q 33.25 71.875 37.59375 69.546875 
Q 41.9375 67.234375 44.765625 62.859375 
Q 47.609375 58.5 49.21875 52.21875 
Q 50.828125 45.953125 50.828125 35.296875 
Q 50.828125 22.703125 48.234375 14.96875 
Q 45.65625 7.234375 40.5 3 
Q 35.359375 -1.21875 27.484375 -1.21875 
Q 17.140625 -1.21875 11.234375 6.203125 
Q 4.15625 15.140625 4.15625 35.296875 
z
M 13.1875 35.296875 
Q 13.1875 17.671875 17.3125 11.828125 
Q 21.4375 6 27.484375 6 
Q 33.546875 6 37.671875 11.859375 
Q 41.796875 17.71875 41.796875 35.296875 
Q 41.796875 52.984375 37.671875 58.78125 
Q 33.546875 64.59375 27.390625 64.59375 
Q 21.34375 64.59375 17.71875 59.46875 
Q 13.1875 52.9375 13.1875 35.296875 
z
" id="ArialMT-48"/>
        <path d="M 9.078125 0 
L 9.078125 10.015625 
L 19.09375 10.015625 
L 19.09375 0 
z
" id="ArialMT-46"/>
        <path d="M 4.15625 18.75 
L 13.375 19.53125 
Q 14.40625 12.796875 18.140625 9.390625 
Q 21.875 6 27.15625 6 
Q 33.5 6 37.890625 10.78125 
Q 42.28125 15.578125 42.28125 23.484375 
Q 42.28125 31 38.0625 35.34375 
Q 33.84375 39.703125 27 39.703125 
Q 22.75 39.703125 19.328125 37.765625 
Q 15.921875 35.84375 13.96875 32.765625 
L 5.71875 33.84375 
L 12.640625 70.609375 
L 48.25 70.609375 
L 48.25 62.203125 
L 19.671875 62.203125 
L 15.828125 42.96875 
Q 22.265625 47.46875 29.34375 47.46875 
Q 38.71875 47.46875 45.15625 40.96875 
Q 51.609375 34.46875 51.609375 24.265625 
Q 51.609375 14.546875 45.953125 7.46875 
Q 39.0625 -1.21875 27.15625 -1.21875 
Q 17.390625 -1.21875 11.203125 4.25 
Q 5.03125 9.71875 4.15625 18.75 
z
" id="ArialMT-53"/>
       </defs>
       <use xlink:href="#ArialMT-45"/>
       <use x="33.300781" xlink:href="#ArialMT-48"/>
       <use x="88.916016" xlink:href="#ArialMT-46"/>
       <use x="116.699219" xlink:href="#ArialMT-53"/>
      </g>
     </g>
    </g>
    <g id="ytick_2">
     <g id="line2d_2">
      <g>
       <use style="stroke:#000000;stroke-width:0.8;" x="13.5" xlink:href="#mf9c507f4ad" y="182.604255"/>
      </g>
     </g>
     <g id="text_2">
      <!-- 0 -->
      <g transform="translate(2.607344 185.10949)scale(0.07 -0.07)">
       <use xlink:href="#ArialMT-48"/>
      </g>
     </g>
    </g>
    <g id="ytick_3">
     <g id="line2d_3">
      <g>
       <use style="stroke:#000000;stroke-width:0.8;" x="13.5" xlink:href="#mf9c507f4ad" y="159.47234"/>
      </g>
     </g>
     <g id="text_3">
      <!-- 0.25 -->
      <g transform="translate(-7.122656 161.977575)scale(0.07 -0.07)">
       <defs>
        <path d="M 50.34375 8.453125 
L 50.34375 0 
L 3.03125 0 
Q 2.9375 3.171875 4.046875 6.109375 
Q 5.859375 10.9375 9.828125 15.625 
Q 13.8125 20.3125 21.34375 26.46875 
Q 33.015625 36.03125 37.109375 41.625 
Q 41.21875 47.21875 41.21875 52.203125 
Q 41.21875 57.421875 37.46875 61 
Q 33.734375 64.59375 27.734375 64.59375 
Q 21.390625 64.59375 17.578125 60.78125 
Q 13.765625 56.984375 13.71875 50.25 
L 4.6875 51.171875 
Q 5.609375 61.28125 11.65625 66.578125 
Q 17.71875 71.875 27.9375 71.875 
Q 38.234375 71.875 44.234375 66.15625 
Q 50.25 60.453125 50.25 52 
Q 50.25 47.703125 48.484375 43.546875 
Q 46.734375 39.40625 42.65625 34.8125 
Q 38.578125 30.21875 29.109375 22.21875 
Q 21.1875 15.578125 18.9375 13.203125 
Q 16.703125 10.84375 15.234375 8.453125 
z
" id="ArialMT-50"/>
       </defs>
       <use xlink:href="#ArialMT-48"/>
       <use x="55.615234" xlink:href="#ArialMT-46"/>
       <use x="83.398438" xlink:href="#ArialMT-50"/>
       <use x="139.013672" xlink:href="#ArialMT-53"/>
      </g>
     </g>
    </g>
    <g id="ytick_4">
     <g id="line2d_4">
      <g>
       <use style="stroke:#000000;stroke-width:0.8;" x="13.5" xlink:href="#mf9c507f4ad" y="136.340426"/>
      </g>
     </g>
     <g id="text_4">
      <!-- 0.5 -->
      <g transform="translate(-3.23 138.84566)scale(0.07 -0.07)">
       <use xlink:href="#ArialMT-48"/>
       <use x="55.615234" xlink:href="#ArialMT-46"/>
       <use x="83.398438" xlink:href="#ArialMT-53"/>
      </g>
     </g>
    </g>
    <g id="ytick_5">
     <g id="line2d_5">
      <g>
       <use style="stroke:#000000;stroke-width:0.8;" x="13.5" xlink:href="#mf9c507f4ad" y="113.208511"/>
      </g>
     </g>
     <g id="text_5">
      <!-- 0.75 -->
      <g transform="translate(-7.122656 115.713745)scale(0.07 -0.07)">
       <defs>
        <path d="M 4.734375 62.203125 
L 4.734375 70.65625 
L 51.078125 70.65625 
L 51.078125 63.8125 
Q 44.234375 56.546875 37.515625 44.484375 
Q 30.8125 32.421875 27.15625 19.671875 
Q 24.515625 10.6875 23.78125 0 
L 14.75 0 
Q 14.890625 8.453125 18.0625 20.40625 
Q 21.234375 32.375 27.171875 43.484375 
Q 33.109375 54.59375 39.796875 62.203125 
z
" id="ArialMT-55"/>
       </defs>
       <use xlink:href="#ArialMT-48"/>
       <use x="55.615234" xlink:href="#ArialMT-46"/>
       <use x="83.398438" xlink:href="#ArialMT-55"/>
       <use x="139.013672" xlink:href="#ArialMT-53"/>
      </g>
     </g>
    </g>
    <g id="ytick_6">
     <g id="line2d_6">
      <g>
       <use style="stroke:#000000;stroke-width:0.8;" x="13.5" xlink:href="#mf9c507f4ad" y="90.076596"/>
      </g>
     </g>
     <g id="text_6">
      <!-- 1 -->
      <g transform="translate(2.607344 92.58183)scale(0.07 -0.07)">
       <defs>
        <path d="M 37.25 0 
L 28.46875 0 
L 28.46875 56 
Q 25.296875 52.984375 20.140625 49.953125 
Q 14.984375 46.921875 10.890625 45.40625 
L 10.890625 53.90625 
Q 18.265625 57.375 23.78125 62.296875 
Q 29.296875 67.234375 31.59375 71.875 
L 37.25 71.875 
z
" id="ArialMT-49"/>
       </defs>
       <use xlink:href="#ArialMT-49"/>
      </g>
     </g>
    </g>
    <g id="ytick_7">
     <g id="line2d_7">
      <g>
       <use style="stroke:#000000;stroke-width:0.8;" x="13.5" xlink:href="#mf9c507f4ad" y="43.812766"/>
      </g>
     </g>
     <g id="text_7">
      <!-- 1.5 -->
      <g transform="translate(-3.23 46.318)scale(0.07 -0.07)">
       <use xlink:href="#ArialMT-49"/>
       <use x="55.615234" xlink:href="#ArialMT-46"/>
       <use x="83.398438" xlink:href="#ArialMT-53"/>
      </g>
     </g>
    </g>
   </g>
   <g id="patch_3">
    <path clip-path="url(#p98c2df8cb2)" d="M 13.5 250.118082 
L 13.815663 250.118082 
L 13.815663 236.900946 
L 13.5 236.900946 
z
" style="fill:#c0c0c0;fill-opacity:0.5;stroke:#ffffff;stroke-linejoin:miter;stroke-width:1.5;"/>
   </g>
   <g id="patch_4">
    <path clip-path="url(#p98c2df8cb2)" d="M 13.5 235.432376 
L 14.525904 235.432376 
L 14.525904 222.21524 
L 13.5 222.21524 
z
" style="fill:#c0c0c0;fill-opacity:0.5;stroke:#ffffff;stroke-linejoin:miter;stroke-width:1.5;"/>
   </g>
   <g id="patch_5">
    <path clip-path="url(#p98c2df8cb2)" d="M 13.5 220.74667 
L 19.260844 220.74667 
L 19.260844 207.529535 
L 13.5 207.529535 
z
" style="fill:#c0c0c0;fill-opacity:0.5;stroke:#ffffff;stroke-linejoin:miter;stroke-width:1.5;"/>
   </g>
   <g id="patch_6">
    <path clip-path="url(#p98c2df8cb2)" d="M 13.5 206.060964 
L 31.571688 206.060964 
L 31.571688 192.843829 
L 13.5 192.843829 
z
" style="fill:#c0c0c0;fill-opacity:0.5;stroke:#ffffff;stroke-linejoin:miter;stroke-width:1.5;"/>
   </g>
   <g id="patch_7">
    <path clip-path="url(#p98c2df8cb2)" d="M 13.5 191.375258 
L 55.088558 191.375258 
L 55.088558 178.158123 
L 13.5 178.158123 
z
" style="fill:#c0c0c0;fill-opacity:0.5;stroke:#ffffff;stroke-linejoin:miter;stroke-width:1.5;"/>
   </g>
   <g id="patch_8">
    <path clip-path="url(#p98c2df8cb2)" d="M 13.5 176.689552 
L 74.580728 176.689552 
L 74.580728 163.472417 
L 13.5 163.472417 
z
" style="fill:#c0c0c0;fill-opacity:0.5;stroke:#ffffff;stroke-linejoin:miter;stroke-width:1.5;"/>
   </g>
   <g id="patch_9">
    <path clip-path="url(#p98c2df8cb2)" d="M 13.5 162.003846 
L 88.548801 162.003846 
L 88.548801 148.786711 
L 13.5 148.786711 
z
" style="fill:#c0c0c0;fill-opacity:0.5;stroke:#ffffff;stroke-linejoin:miter;stroke-width:1.5;"/>
   </g>
   <g id="patch_10">
    <path clip-path="url(#p98c2df8cb2)" d="M 13.5 147.318141 
L 92.5735 147.318141 
L 92.5735 134.101005 
L 13.5 134.101005 
z
" style="fill:#c0c0c0;fill-opacity:0.5;stroke:#ffffff;stroke-linejoin:miter;stroke-width:1.5;"/>
   </g>
   <g id="patch_11">
    <path clip-path="url(#p98c2df8cb2)" d="M 13.5 132.632435 
L 74.501812 132.632435 
L 74.501812 119.4153 
L 13.5 119.4153 
z
" style="fill:#c0c0c0;fill-opacity:0.5;stroke:#ffffff;stroke-linejoin:miter;stroke-width:1.5;"/>
   </g>
   <g id="patch_12">
    <path clip-path="url(#p98c2df8cb2)" d="M 13.5 117.946729 
L 54.062654 117.946729 
L 54.062654 104.729594 
L 13.5 104.729594 
z
" style="fill:#c0c0c0;fill-opacity:0.5;stroke:#ffffff;stroke-linejoin:miter;stroke-width:1.5;"/>
   </g>
   <g id="patch_13">
    <path clip-path="url(#p98c2df8cb2)" d="M 13.5 103.261023 
L 37.253616 103.261023 
L 37.253616 90.043888 
L 13.5 90.043888 
z
" style="fill:#c0c0c0;fill-opacity:0.5;stroke:#ffffff;stroke-linejoin:miter;stroke-width:1.5;"/>
   </g>
   <g id="patch_14">
    <path clip-path="url(#p98c2df8cb2)" d="M 13.5 88.575317 
L 23.837953 88.575317 
L 23.837953 75.358182 
L 13.5 75.358182 
z
" style="fill:#c0c0c0;fill-opacity:0.5;stroke:#ffffff;stroke-linejoin:miter;stroke-width:1.5;"/>
   </g>
   <g id="patch_15">
    <path clip-path="url(#p98c2df8cb2)" d="M 13.5 73.889611 
L 16.41988 73.889611 
L 16.41988 60.672476 
L 13.5 60.672476 
z
" style="fill:#c0c0c0;fill-opacity:0.5;stroke:#ffffff;stroke-linejoin:miter;stroke-width:1.5;"/>
   </g>
   <g id="patch_16">
    <path clip-path="url(#p98c2df8cb2)" d="M 13.5 59.203906 
L 14.525904 59.203906 
L 14.525904 45.98677 
L 13.5 45.98677 
z
" style="fill:#c0c0c0;fill-opacity:0.5;stroke:#ffffff;stroke-linejoin:miter;stroke-width:1.5;"/>
   </g>
   <g id="patch_17">
    <path clip-path="url(#p98c2df8cb2)" d="M 13.5 44.5182 
L 13.815663 44.5182 
L 13.815663 31.301064 
L 13.5 31.301064 
z
" style="fill:#c0c0c0;fill-opacity:0.5;stroke:#ffffff;stroke-linejoin:miter;stroke-width:1.5;"/>
   </g>
   <g id="line2d_8">
    <path clip-path="url(#p98c2df8cb2)" d="M 13.633246 254.744464 
L 13.882337 244.7818 
L 14.242323 238.140023 
L 14.76758 232.605209 
L 15.295679 229.284321 
L 15.816996 227.070396 
L 16.50911 224.85647 
L 17.839353 221.535582 
L 19.916261 217.107731 
L 21.710265 213.786843 
L 23.218221 211.572917 
L 25.131213 209.358992 
L 27.491217 207.145066 
L 30.228076 204.931141 
L 34.765758 201.610252 
L 41.265668 197.182401 
L 48.247758 192.75455 
L 56.998922 187.219737 
L 60.187957 185.005811 
L 63.08306 182.791886 
L 66.931084 179.470997 
L 71.901103 175.043146 
L 76.012405 171.722258 
L 81.532326 167.294407 
L 84.023156 165.080482 
L 86.276859 162.866556 
L 88.298638 160.652631 
L 90.069876 158.438705 
L 91.52007 156.22478 
L 92.089321 155.117817 
L 92.532957 154.010854 
L 92.836248 152.903891 
L 92.988518 151.796929 
L 92.985232 150.689966 
L 92.82924 149.583003 
L 92.530762 148.47604 
L 91.574703 146.262115 
L 90.271451 144.048189 
L 87.921167 140.727301 
L 86.141814 138.513376 
L 84.143581 136.29945 
L 81.81676 134.085525 
L 79.022981 131.871599 
L 75.68819 129.657674 
L 69.929906 126.336785 
L 64.126986 123.015897 
L 60.653463 120.801972 
L 57.592177 118.588046 
L 54.910198 116.374121 
L 52.530781 114.160195 
L 44.642253 106.411456 
L 40.651941 103.090567 
L 32.397056 96.448791 
L 30.099307 94.234865 
L 28.212291 92.02094 
L 26.672683 89.807014 
L 19.161247 77.630424 
L 17.523377 74.309536 
L 16.663487 72.09561 
L 16.013147 69.881685 
L 15.558794 67.667759 
L 15.127656 64.346871 
L 14.575086 57.705095 
L 14.25318 51.063318 
L 13.653909 34.458877 
L 13.653909 34.458877 
" style="fill:none;stroke:#c0c0c0;stroke-linecap:square;stroke-width:1.5;"/>
   </g>
   <g id="line2d_9">
    <path clip-path="url(#p98c2df8cb2)" d="M 13.500942 271.168379 
L 13.615569 255.904052 
L 13.895139 244.455807 
L 14.245556 238.095671 
L 14.718323 233.007562 
L 15.31439 229.191481 
L 15.935684 226.647426 
L 16.783292 224.103372 
L 18.401726 220.28729 
L 20.23509 216.471208 
L 21.625543 213.927154 
L 23.364983 211.3831 
L 24.430858 210.111072 
L 27.0089 207.567018 
L 30.108715 205.022963 
L 35.338733 201.206882 
L 40.94863 197.3908 
L 46.927139 193.574718 
L 57.006646 187.214582 
L 60.646114 184.670528 
L 63.894797 182.126474 
L 68.205452 178.310392 
L 72.556407 174.49431 
L 83.470795 165.59012 
L 86.102802 163.046065 
L 88.427572 160.502011 
L 90.415546 157.957956 
L 91.249756 156.685929 
L 91.948699 155.413902 
L 92.487512 154.141875 
L 92.843222 152.869848 
L 92.999419 151.59782 
L 92.950412 150.325793 
L 92.703434 149.053766 
L 92.277905 147.781739 
L 91.00574 145.237684 
L 89.359814 142.69363 
L 87.474055 140.149575 
L 85.353859 137.605521 
L 82.891967 135.061467 
L 79.893031 132.517412 
L 76.19536 129.973358 
L 71.881887 127.429303 
L 65.129907 123.613222 
L 61.050871 121.069167 
L 57.510987 118.525113 
L 54.468409 115.981058 
L 51.800736 113.437004 
L 46.754113 108.348895 
L 43.946005 105.804841 
L 39.255385 101.988759 
L 32.911419 96.90065 
L 30.215113 94.356596 
L 28.05472 91.812541 
L 26.331966 89.268487 
L 18.586398 76.548215 
L 17.392815 74.00416 
L 16.455175 71.460106 
L 15.793193 68.916051 
L 15.364195 66.371997 
L 14.845932 61.283888 
L 14.417756 54.923752 
L 13.712807 37.115371 
L 13.516455 24.395099 
L 13.500949 18.034963 
L 13.500949 18.034963 
" style="fill:none;stroke:#1e90ff;stroke-linecap:square;stroke-width:1.5;"/>
   </g>
   <g id="line2d_10">
    <path d="M 12.663 90.076596 
L 84.645 90.076596 
" style="fill:none;stroke:#b22222;stroke-dasharray:2,3.3;stroke-dashoffset:0;stroke-width:2;"/>
   </g>
   <g id="line2d_11">
    <path d="M 12.663 182.604255 
L 84.645 182.604255 
" style="fill:none;stroke:#b22222;stroke-dasharray:2,3.3;stroke-dashoffset:0;stroke-width:2;"/>
   </g>
   <g id="text_8">
    <!-- Chest -->
    <g style="fill:#b22222;" transform="translate(80.46 85.450213)scale(0.07 -0.07)">
     <defs>
      <path d="M 53.078125 26.3125 
L 67.09375 21.875 
Q 63.875 10.15625 56.375 4.46875 
Q 48.875 -1.21875 37.359375 -1.21875 
Q 23.09375 -1.21875 13.90625 8.515625 
Q 4.734375 18.265625 4.734375 35.15625 
Q 4.734375 53.03125 13.953125 62.90625 
Q 23.1875 72.796875 38.234375 72.796875 
Q 51.375 72.796875 59.578125 65.046875 
Q 64.453125 60.453125 66.890625 51.859375 
L 52.59375 48.4375 
Q 51.3125 54 47.28125 57.21875 
Q 43.265625 60.453125 37.5 60.453125 
Q 29.546875 60.453125 24.578125 54.734375 
Q 19.625 49.03125 19.625 36.234375 
Q 19.625 22.65625 24.5 16.890625 
Q 29.390625 11.140625 37.203125 11.140625 
Q 42.96875 11.140625 47.109375 14.796875 
Q 51.265625 18.453125 53.078125 26.3125 
z
" id="Arial-BoldMT-67"/>
      <path d="M 20.84375 71.578125 
L 20.84375 45.265625 
Q 27.484375 53.03125 36.71875 53.03125 
Q 41.453125 53.03125 45.265625 51.265625 
Q 49.078125 49.515625 51 46.78125 
Q 52.9375 44.046875 53.640625 40.71875 
Q 54.34375 37.40625 54.34375 30.421875 
L 54.34375 0 
L 40.625 0 
L 40.625 27.390625 
Q 40.625 35.546875 39.84375 37.734375 
Q 39.0625 39.9375 37.078125 41.234375 
Q 35.109375 42.53125 32.125 42.53125 
Q 28.71875 42.53125 26.03125 40.859375 
Q 23.34375 39.203125 22.09375 35.859375 
Q 20.84375 32.515625 20.84375 25.984375 
L 20.84375 0 
L 7.125 0 
L 7.125 71.578125 
z
" id="Arial-BoldMT-104"/>
      <path d="M 37.203125 16.5 
L 50.875 14.203125 
Q 48.25 6.6875 42.546875 2.75 
Q 36.859375 -1.171875 28.328125 -1.171875 
Q 14.796875 -1.171875 8.296875 7.671875 
Q 3.171875 14.75 3.171875 25.53125 
Q 3.171875 38.421875 9.90625 45.71875 
Q 16.65625 53.03125 26.953125 53.03125 
Q 38.53125 53.03125 45.21875 45.390625 
Q 51.90625 37.75 51.609375 21.96875 
L 17.234375 21.96875 
Q 17.390625 15.875 20.5625 12.46875 
Q 23.734375 9.078125 28.46875 9.078125 
Q 31.6875 9.078125 33.875 10.828125 
Q 36.078125 12.59375 37.203125 16.5 
z
M 37.984375 30.375 
Q 37.84375 36.328125 34.90625 39.421875 
Q 31.984375 42.53125 27.78125 42.53125 
Q 23.296875 42.53125 20.359375 39.265625 
Q 17.4375 35.984375 17.484375 30.375 
z
" id="Arial-BoldMT-101"/>
      <path d="M 2.34375 14.796875 
L 16.109375 16.890625 
Q 17 12.890625 19.671875 10.8125 
Q 22.359375 8.734375 27.203125 8.734375 
Q 32.515625 8.734375 35.203125 10.6875 
Q 37.015625 12.0625 37.015625 14.359375 
Q 37.015625 15.921875 36.03125 16.9375 
Q 35.015625 17.921875 31.453125 18.75 
Q 14.84375 22.40625 10.40625 25.4375 
Q 4.25 29.640625 4.25 37.109375 
Q 4.25 43.84375 9.5625 48.4375 
Q 14.890625 53.03125 26.078125 53.03125 
Q 36.71875 53.03125 41.890625 49.5625 
Q 47.078125 46.09375 49.03125 39.3125 
L 36.078125 36.921875 
Q 35.25 39.9375 32.921875 41.546875 
Q 30.609375 43.171875 26.3125 43.171875 
Q 20.90625 43.171875 18.5625 41.65625 
Q 17 40.578125 17 38.875 
Q 17 37.40625 18.359375 36.375 
Q 20.21875 35.015625 31.171875 32.515625 
Q 42.140625 30.03125 46.484375 26.421875 
Q 50.78125 22.75 50.78125 16.21875 
Q 50.78125 9.078125 44.828125 3.953125 
Q 38.875 -1.171875 27.203125 -1.171875 
Q 16.609375 -1.171875 10.421875 3.125 
Q 4.25 7.421875 2.34375 14.796875 
z
" id="Arial-BoldMT-115"/>
      <path d="M 30.953125 51.859375 
L 30.953125 40.921875 
L 21.578125 40.921875 
L 21.578125 20.015625 
Q 21.578125 13.671875 21.84375 12.625 
Q 22.125 11.578125 23.078125 10.890625 
Q 24.03125 10.203125 25.390625 10.203125 
Q 27.296875 10.203125 30.90625 11.53125 
L 32.078125 0.875 
Q 27.296875 -1.171875 21.234375 -1.171875 
Q 17.53125 -1.171875 14.546875 0.0625 
Q 11.578125 1.3125 10.1875 3.296875 
Q 8.796875 5.28125 8.25 8.640625 
Q 7.8125 11.03125 7.8125 18.3125 
L 7.8125 40.921875 
L 1.515625 40.921875 
L 1.515625 51.859375 
L 7.8125 51.859375 
L 7.8125 62.15625 
L 21.578125 70.171875 
L 21.578125 51.859375 
z
" id="Arial-BoldMT-116"/>
     </defs>
     <use xlink:href="#Arial-BoldMT-67"/>
     <use x="72.216797" xlink:href="#Arial-BoldMT-104"/>
     <use x="133.300781" xlink:href="#Arial-BoldMT-101"/>
     <use x="188.916016" xlink:href="#Arial-BoldMT-115"/>
     <use x="244.53125" xlink:href="#Arial-BoldMT-116"/>
    </g>
   </g>
   <g id="text_9">
    <!-- Knees -->
    <g style="fill:#b22222;" transform="translate(80.46 191.857021)scale(0.07 -0.07)">
     <defs>
      <path d="M 7.46875 0 
L 7.46875 71.578125 
L 21.921875 71.578125 
L 21.921875 39.796875 
L 51.125 71.578125 
L 70.5625 71.578125 
L 43.609375 43.703125 
L 72.015625 0 
L 53.328125 0 
L 33.640625 33.59375 
L 21.921875 21.625 
L 21.921875 0 
z
" id="Arial-BoldMT-75"/>
      <path d="M 54.34375 0 
L 40.625 0 
L 40.625 26.46875 
Q 40.625 34.859375 39.75 37.328125 
Q 38.875 39.796875 36.890625 41.15625 
Q 34.90625 42.53125 32.125 42.53125 
Q 28.5625 42.53125 25.734375 40.578125 
Q 22.90625 38.625 21.84375 35.390625 
Q 20.796875 32.171875 20.796875 23.484375 
L 20.796875 0 
L 7.078125 0 
L 7.078125 51.859375 
L 19.828125 51.859375 
L 19.828125 44.234375 
Q 26.609375 53.03125 36.921875 53.03125 
Q 41.453125 53.03125 45.203125 51.390625 
Q 48.96875 49.75 50.890625 47.203125 
Q 52.828125 44.671875 53.578125 41.453125 
Q 54.34375 38.234375 54.34375 32.234375 
z
" id="Arial-BoldMT-110"/>
     </defs>
     <use xlink:href="#Arial-BoldMT-75"/>
     <use x="72.216797" xlink:href="#Arial-BoldMT-110"/>
     <use x="133.300781" xlink:href="#Arial-BoldMT-101"/>
     <use x="188.916016" xlink:href="#Arial-BoldMT-101"/>
     <use x="244.53125" xlink:href="#Arial-BoldMT-115"/>
    </g>
   </g>
   <g id="patch_18">
    <path d="M 13.5 252 
L 13.5 34.56 
" style="fill:none;stroke:#000000;stroke-linecap:square;stroke-linejoin:miter;stroke-width:0.8;"/>
   </g>
  </g>
 </g>
 <defs>
  <clipPath id="p98c2df8cb2">
   <rect height="217.44" width="83.7" x="13.5" y="34.56"/>
  </clipPath>
 </defs>
</svg>
