<?xml version="1.0" encoding="utf-8" standalone="no"?>
<!DOCTYPE svg PUBLIC "-//W3C//DTD SVG 1.1//EN"
  "http://www.w3.org/Graphics/SVG/1.1/DTD/svg11.dtd">
<!-- Created with matplotlib (https://matplotlib.org/) -->
<svg height="252pt" version="1.1" viewBox="0 0 72 252" width="72pt" xmlns="http://www.w3.org/2000/svg" xmlns:xlink="http://www.w3.org/1999/xlink">
 <metadata>
  <rdf:RDF xmlns:cc="http://creativecommons.org/ns#" xmlns:dc="http://purl.org/dc/elements/1.1/" xmlns:rdf="http://www.w3.org/1999/02/22-rdf-syntax-ns#">
   <cc:Work>
    <dc:type rdf:resource="http://purl.org/dc/dcmitype/StillImage"/>
    <dc:date>2022-06-07T15:40:41.837127</dc:date>
    <dc:format>image/svg+xml</dc:format>
    <dc:creator>
     <cc:Agent>
      <dc:title>Matplotlib v3.3.4, https://matplotlib.org/</dc:title>
     </cc:Agent>
    </dc:creator>
   </cc:Work>
  </rdf:RDF>
 </metadata>
 <defs>
  <style type="text/css">*{stroke-linecap:butt;stroke-linejoin:round;}</style>
 </defs>
 <g id="figure_1">
  <g id="patch_1">
   <path d="M 0 252 
L 72 252 
L 72 0 
L 0 0 
z
" style="fill:none;"/>
  </g>
  <g id="axes_1">
   <g id="patch_2">
    <path d="M 9 220.5 
L 64.8 220.5 
L 64.8 30.24 
L 9 30.24 
z
" style="fill:#ffffff;"/>
   </g>
   <g id="matplotlib.axis_1">
    <g id="ytick_1">
     <g id="line2d_1">
      <defs>
       <path d="M 0 0 
L -3.5 0 
" id="mc519168de1" style="stroke:#000000;stroke-width:0.8;"/>
      </defs>
      <g>
       <use style="stroke:#000000;stroke-width:0.8;" x="9" xlink:href="#mc519168de1" y="172.935"/>
      </g>
     </g>
    </g>
    <g id="ytick_2">
     <g id="line2d_2">
      <g>
       <use style="stroke:#000000;stroke-width:0.8;" x="9" xlink:href="#mc519168de1" y="77.805"/>
      </g>
     </g>
    </g>
   </g>
   <g id="line2d_3">
    <path clip-path="url(#pd2db8a001a)" d="M 13.991786 220.5 
L 14.368603 218.578182 
L 14.791229 216.656364 
L 15.263357 214.734545 
L 15.788686 212.812727 
L 16.370865 210.890909 
L 17.013432 208.969091 
L 17.71975 207.047273 
L 18.49294 205.125455 
L 19.335797 203.203636 
L 20.250717 201.281818 
L 21.239614 199.36 
L 22.303831 197.438182 
L 23.444065 195.516364 
L 24.66028 193.594545 
L 25.951633 191.672727 
L 27.316405 189.750909 
L 28.751937 187.829091 
L 30.254577 185.907273 
L 31.819649 183.985455 
L 33.44142 182.063636 
L 35.113096 180.141818 
L 36.826834 178.22 
L 38.573769 176.298182 
L 40.344063 174.376364 
L 42.126974 172.454545 
L 43.910949 170.532727 
L 45.683728 168.610909 
L 47.432478 166.689091 
L 49.143934 164.767273 
L 50.804561 162.845455 
L 52.400727 160.923636 
L 53.918887 159.001818 
L 55.345768 157.08 
L 56.668563 155.158182 
L 57.875122 153.236364 
L 58.954135 151.314545 
L 59.895309 149.392727 
L 60.689533 147.470909 
L 61.329021 145.549091 
L 61.807443 143.627273 
L 62.120026 141.705455 
L 62.263636 139.783636 
L 62.236829 137.861818 
L 62.039873 135.94 
L 61.67475 134.018182 
L 61.145115 132.096364 
L 60.456239 130.174545 
L 59.614924 128.252727 
L 58.629385 126.330909 
L 57.509123 124.409091 
L 56.264769 122.487273 
L 54.907915 120.565455 
L 53.450939 118.643636 
L 51.906815 116.721818 
L 50.28892 114.8 
L 48.61085 112.878182 
L 46.886223 110.956364 
L 45.128509 109.034545 
L 43.350852 107.112727 
L 41.565922 105.190909 
L 39.785768 103.269091 
L 38.021699 101.347273 
L 36.284183 99.425455 
L 34.582757 97.503636 
L 32.92597 95.581818 
L 31.321338 93.66 
L 29.775321 91.738182 
L 28.293318 89.816364 
L 26.879681 87.894545 
L 25.537744 85.972727 
L 24.269864 84.050909 
L 23.077479 82.129091 
L 21.96117 80.207273 
L 20.920734 78.285455 
L 19.955262 76.363636 
L 19.063222 74.441818 
L 18.24254 72.52 
L 17.490687 70.598182 
L 16.804755 68.676364 
L 16.18154 66.754545 
L 15.617617 64.832727 
L 15.109406 62.910909 
L 14.653236 60.989091 
L 14.245405 59.067273 
L 13.882229 57.145455 
L 13.560083 55.223636 
L 13.275445 53.301818 
L 13.024919 51.38 
L 12.805264 49.458182 
L 12.613413 47.536364 
L 12.446483 45.614545 
L 12.301787 43.692727 
L 12.176835 41.770909 
L 12.069339 39.849091 
L 11.977205 37.927273 
L 11.898532 36.005455 
L 11.831601 34.083636 
L 11.774872 32.161818 
L 11.726965 30.24 
" style="fill:none;stroke:#000000;stroke-linecap:square;stroke-width:1.5;"/>
   </g>
   <g id="line2d_4">
    <path clip-path="url(#pd2db8a001a)" d="M 11.536364 220.5 
L 11.546334 218.578182 
L 11.558525 216.656364 
L 11.573365 214.734545 
L 11.591346 212.812727 
L 11.613031 210.890909 
L 11.639064 208.969091 
L 11.670172 207.047273 
L 11.70717 205.125455 
L 11.750967 203.203636 
L 11.802571 201.281818 
L 11.863085 199.36 
L 11.933711 197.438182 
L 12.015745 195.516364 
L 12.110573 193.594545 
L 12.21966 191.672727 
L 12.34454 189.750909 
L 12.486799 187.829091 
L 12.648056 185.907273 
L 12.829937 183.985455 
L 13.03405 182.063636 
L 13.261949 180.141818 
L 13.515102 178.22 
L 13.794848 176.298182 
L 14.102358 174.376364 
L 14.438588 172.454545 
L 14.804234 170.532727 
L 15.199685 168.610909 
L 15.624982 166.689091 
L 16.079771 164.767273 
L 16.563265 162.845455 
L 17.074214 160.923636 
L 17.610874 159.001818 
L 18.170989 157.08 
L 18.751781 155.158182 
L 19.349956 153.236364 
L 19.961709 151.314545 
L 20.582754 149.392727 
L 21.208359 147.470909 
L 21.833397 145.549091 
L 22.452408 143.627273 
L 23.059669 141.705455 
L 23.649284 139.783636 
L 24.215266 137.861818 
L 24.751648 135.94 
L 25.252575 134.018182 
L 25.712416 132.096364 
L 26.125866 130.174545 
L 26.488051 128.252727 
L 26.794617 126.330909 
L 27.041824 124.409091 
L 27.226616 122.487273 
L 27.34669 120.565455 
L 27.400537 118.643636 
L 27.387479 116.721818 
L 27.307681 114.8 
L 27.162147 112.878182 
L 26.9527 110.956364 
L 26.681944 109.034545 
L 26.35321 107.112727 
L 25.970486 105.190909 
L 25.538341 103.269091 
L 25.061828 101.347273 
L 24.546391 99.425455 
L 23.997762 97.503636 
L 23.421851 95.581818 
L 22.824647 93.66 
L 22.21211 91.738182 
L 21.590081 89.816364 
L 20.964189 87.894545 
L 20.339773 85.972727 
L 19.721812 84.050909 
L 19.11487 82.129091 
L 18.523048 80.207273 
L 17.949955 78.285455 
L 17.398685 76.363636 
L 16.871811 74.441818 
L 16.371388 72.52 
L 15.898964 70.598182 
L 15.455606 68.676364 
L 15.041928 66.754545 
L 14.658124 64.832727 
L 14.304013 62.910909 
L 13.97908 60.989091 
L 13.682523 59.067273 
L 13.413295 57.145455 
L 13.170157 55.223636 
L 12.951713 53.301818 
L 12.756458 51.38 
L 12.582812 49.458182 
L 12.429157 47.536364 
L 12.293866 45.614545 
L 12.17533 43.692727 
L 12.071982 41.770909 
L 11.982313 39.849091 
L 11.904888 37.927273 
L 11.838354 36.005455 
L 11.781452 34.083636 
L 11.733018 32.161818 
L 11.691986 30.24 
" style="fill:none;stroke:#808080;stroke-dasharray:5.55,2.4;stroke-dashoffset:0;stroke-width:1.5;"/>
   </g>
   <g id="patch_3">
    <path d="M 9 220.5 
L 9 30.24 
" style="fill:none;stroke:#000000;stroke-linecap:square;stroke-linejoin:miter;stroke-width:0.8;"/>
   </g>
   <g id="legend_1">
    <g id="patch_4">
     <path d="M 16 66.59 
L 109.703125 66.59 
Q 111.703125 66.59 111.703125 64.59 
L 111.703125 37.24 
Q 111.703125 35.24 109.703125 35.24 
L 16 35.24 
Q 14 35.24 14 37.24 
L 14 64.59 
Q 14 66.59 16 66.59 
z
" style="fill:#ffffff;opacity:0.8;stroke:#cccccc;stroke-linejoin:miter;"/>
    </g>
    <g id="line2d_5">
     <path d="M 18 42.9275 
L 38 42.9275 
" style="fill:none;stroke:#000000;stroke-linecap:square;stroke-width:1.5;"/>
    </g>
    <g id="line2d_6"/>
    <g id="text_1">
     <!-- 79.3-90 mph -->
     <g transform="translate(46 46.4275)scale(0.1 -0.1)">
      <defs>
       <path d="M 4.734375 62.203125 
L 4.734375 70.65625 
L 51.078125 70.65625 
L 51.078125 63.8125 
Q 44.234375 56.546875 37.515625 44.484375 
Q 30.8125 32.421875 27.15625 19.671875 
Q 24.515625 10.6875 23.78125 0 
L 14.75 0 
Q 14.890625 8.453125 18.0625 20.40625 
Q 21.234375 32.375 27.171875 43.484375 
Q 33.109375 54.59375 39.796875 62.203125 
z
" id="ArialMT-55"/>
       <path d="M 5.46875 16.546875 
L 13.921875 17.328125 
Q 14.984375 11.375 18.015625 8.6875 
Q 21.046875 6 25.78125 6 
Q 29.828125 6 32.875 7.859375 
Q 35.9375 9.71875 37.890625 12.8125 
Q 39.84375 15.921875 41.15625 21.1875 
Q 42.484375 26.46875 42.484375 31.9375 
Q 42.484375 32.515625 42.4375 33.6875 
Q 39.796875 29.5 35.234375 26.875 
Q 30.671875 24.265625 25.34375 24.265625 
Q 16.453125 24.265625 10.296875 30.703125 
Q 4.15625 37.15625 4.15625 47.703125 
Q 4.15625 58.59375 10.578125 65.234375 
Q 17 71.875 26.65625 71.875 
Q 33.640625 71.875 39.421875 68.109375 
Q 45.21875 64.359375 48.21875 57.390625 
Q 51.21875 50.4375 51.21875 37.25 
Q 51.21875 23.53125 48.234375 15.40625 
Q 45.265625 7.28125 39.375 3.03125 
Q 33.5 -1.21875 25.59375 -1.21875 
Q 17.1875 -1.21875 11.859375 3.4375 
Q 6.546875 8.109375 5.46875 16.546875 
z
M 41.453125 48.140625 
Q 41.453125 55.71875 37.421875 60.15625 
Q 33.40625 64.59375 27.734375 64.59375 
Q 21.875 64.59375 17.53125 59.8125 
Q 13.1875 55.03125 13.1875 47.40625 
Q 13.1875 40.578125 17.3125 36.296875 
Q 21.4375 32.03125 27.484375 32.03125 
Q 33.59375 32.03125 37.515625 36.296875 
Q 41.453125 40.578125 41.453125 48.140625 
z
" id="ArialMT-57"/>
       <path d="M 9.078125 0 
L 9.078125 10.015625 
L 19.09375 10.015625 
L 19.09375 0 
z
" id="ArialMT-46"/>
       <path d="M 4.203125 18.890625 
L 12.984375 20.0625 
Q 14.5 12.59375 18.140625 9.296875 
Q 21.78125 6 27 6 
Q 33.203125 6 37.46875 10.296875 
Q 41.75 14.59375 41.75 20.953125 
Q 41.75 27 37.796875 30.921875 
Q 33.84375 34.859375 27.734375 34.859375 
Q 25.25 34.859375 21.53125 33.890625 
L 22.515625 41.609375 
Q 23.390625 41.5 23.921875 41.5 
Q 29.546875 41.5 34.03125 44.421875 
Q 38.53125 47.359375 38.53125 53.46875 
Q 38.53125 58.296875 35.25 61.46875 
Q 31.984375 64.65625 26.8125 64.65625 
Q 21.6875 64.65625 18.265625 61.421875 
Q 14.84375 58.203125 13.875 51.765625 
L 5.078125 53.328125 
Q 6.6875 62.15625 12.390625 67.015625 
Q 18.109375 71.875 26.609375 71.875 
Q 32.46875 71.875 37.390625 69.359375 
Q 42.328125 66.84375 44.9375 62.5 
Q 47.5625 58.15625 47.5625 53.265625 
Q 47.5625 48.640625 45.0625 44.828125 
Q 42.578125 41.015625 37.703125 38.765625 
Q 44.046875 37.3125 47.5625 32.6875 
Q 51.078125 28.078125 51.078125 21.140625 
Q 51.078125 11.765625 44.234375 5.25 
Q 37.40625 -1.265625 26.953125 -1.265625 
Q 17.53125 -1.265625 11.296875 4.34375 
Q 5.078125 9.96875 4.203125 18.890625 
z
" id="ArialMT-51"/>
       <path d="M 3.171875 21.484375 
L 3.171875 30.328125 
L 30.171875 30.328125 
L 30.171875 21.484375 
z
" id="ArialMT-45"/>
       <path d="M 4.15625 35.296875 
Q 4.15625 48 6.765625 55.734375 
Q 9.375 63.484375 14.515625 67.671875 
Q 19.671875 71.875 27.484375 71.875 
Q 33.25 71.875 37.59375 69.546875 
Q 41.9375 67.234375 44.765625 62.859375 
Q 47.609375 58.5 49.21875 52.21875 
Q 50.828125 45.953125 50.828125 35.296875 
Q 50.828125 22.703125 48.234375 14.96875 
Q 45.65625 7.234375 40.5 3 
Q 35.359375 -1.21875 27.484375 -1.21875 
Q 17.140625 -1.21875 11.234375 6.203125 
Q 4.15625 15.140625 4.15625 35.296875 
z
M 13.1875 35.296875 
Q 13.1875 17.671875 17.3125 11.828125 
Q 21.4375 6 27.484375 6 
Q 33.546875 6 37.671875 11.859375 
Q 41.796875 17.71875 41.796875 35.296875 
Q 41.796875 52.984375 37.671875 58.78125 
Q 33.546875 64.59375 27.390625 64.59375 
Q 21.34375 64.59375 17.71875 59.46875 
Q 13.1875 52.9375 13.1875 35.296875 
z
" id="ArialMT-48"/>
       <path id="ArialMT-32"/>
       <path d="M 6.59375 0 
L 6.59375 51.859375 
L 14.453125 51.859375 
L 14.453125 44.578125 
Q 16.890625 48.390625 20.9375 50.703125 
Q 25 53.03125 30.171875 53.03125 
Q 35.9375 53.03125 39.625 50.640625 
Q 43.3125 48.25 44.828125 43.953125 
Q 50.984375 53.03125 60.84375 53.03125 
Q 68.5625 53.03125 72.703125 48.75 
Q 76.859375 44.484375 76.859375 35.59375 
L 76.859375 0 
L 68.109375 0 
L 68.109375 32.671875 
Q 68.109375 37.9375 67.25 40.25 
Q 66.40625 42.578125 64.15625 43.984375 
Q 61.921875 45.40625 58.890625 45.40625 
Q 53.421875 45.40625 49.796875 41.765625 
Q 46.1875 38.140625 46.1875 30.125 
L 46.1875 0 
L 37.40625 0 
L 37.40625 33.6875 
Q 37.40625 39.546875 35.25 42.46875 
Q 33.109375 45.40625 28.21875 45.40625 
Q 24.515625 45.40625 21.359375 43.453125 
Q 18.21875 41.5 16.796875 37.734375 
Q 15.375 33.984375 15.375 26.90625 
L 15.375 0 
z
" id="ArialMT-109"/>
       <path d="M 6.59375 -19.875 
L 6.59375 51.859375 
L 14.59375 51.859375 
L 14.59375 45.125 
Q 17.4375 49.078125 21 51.046875 
Q 24.5625 53.03125 29.640625 53.03125 
Q 36.28125 53.03125 41.359375 49.609375 
Q 46.4375 46.1875 49.015625 39.953125 
Q 51.609375 33.734375 51.609375 26.3125 
Q 51.609375 18.359375 48.75 11.984375 
Q 45.90625 5.609375 40.453125 2.21875 
Q 35.015625 -1.171875 29 -1.171875 
Q 24.609375 -1.171875 21.109375 0.6875 
Q 17.625 2.546875 15.375 5.375 
L 15.375 -19.875 
z
M 14.546875 25.640625 
Q 14.546875 15.625 18.59375 10.84375 
Q 22.65625 6.0625 28.421875 6.0625 
Q 34.28125 6.0625 38.453125 11.015625 
Q 42.625 15.96875 42.625 26.375 
Q 42.625 36.28125 38.546875 41.203125 
Q 34.46875 46.140625 28.8125 46.140625 
Q 23.1875 46.140625 18.859375 40.890625 
Q 14.546875 35.640625 14.546875 25.640625 
z
" id="ArialMT-112"/>
       <path d="M 6.59375 0 
L 6.59375 71.578125 
L 15.375 71.578125 
L 15.375 45.90625 
Q 21.53125 53.03125 30.90625 53.03125 
Q 36.671875 53.03125 40.921875 50.75 
Q 45.171875 48.484375 47 44.484375 
Q 48.828125 40.484375 48.828125 32.859375 
L 48.828125 0 
L 40.046875 0 
L 40.046875 32.859375 
Q 40.046875 39.453125 37.1875 42.453125 
Q 34.328125 45.453125 29.109375 45.453125 
Q 25.203125 45.453125 21.75 43.421875 
Q 18.3125 41.40625 16.84375 37.9375 
Q 15.375 34.46875 15.375 28.375 
L 15.375 0 
z
" id="ArialMT-104"/>
      </defs>
      <use xlink:href="#ArialMT-55"/>
      <use x="55.615234" xlink:href="#ArialMT-57"/>
      <use x="111.230469" xlink:href="#ArialMT-46"/>
      <use x="139.013672" xlink:href="#ArialMT-51"/>
      <use x="194.628906" xlink:href="#ArialMT-45"/>
      <use x="227.929688" xlink:href="#ArialMT-57"/>
      <use x="283.544922" xlink:href="#ArialMT-48"/>
      <use x="339.160156" xlink:href="#ArialMT-32"/>
      <use x="366.943359" xlink:href="#ArialMT-109"/>
      <use x="450.244141" xlink:href="#ArialMT-112"/>
      <use x="505.859375" xlink:href="#ArialMT-104"/>
     </g>
    </g>
    <g id="line2d_7">
     <path d="M 18 57.1025 
L 38 57.1025 
" style="fill:none;stroke:#808080;stroke-dasharray:5.55,2.4;stroke-dashoffset:0;stroke-width:1.5;"/>
    </g>
    <g id="line2d_8"/>
    <g id="text_2">
     <!-- 90-100.7 mph -->
     <g transform="translate(46 60.6025)scale(0.1 -0.1)">
      <defs>
       <path d="M 37.25 0 
L 28.46875 0 
L 28.46875 56 
Q 25.296875 52.984375 20.140625 49.953125 
Q 14.984375 46.921875 10.890625 45.40625 
L 10.890625 53.90625 
Q 18.265625 57.375 23.78125 62.296875 
Q 29.296875 67.234375 31.59375 71.875 
L 37.25 71.875 
z
" id="ArialMT-49"/>
      </defs>
      <use xlink:href="#ArialMT-57"/>
      <use x="55.615234" xlink:href="#ArialMT-48"/>
      <use x="111.230469" xlink:href="#ArialMT-45"/>
      <use x="144.53125" xlink:href="#ArialMT-49"/>
      <use x="200.146484" xlink:href="#ArialMT-48"/>
      <use x="255.761719" xlink:href="#ArialMT-48"/>
      <use x="311.376953" xlink:href="#ArialMT-46"/>
      <use x="339.160156" xlink:href="#ArialMT-55"/>
      <use x="394.775391" xlink:href="#ArialMT-32"/>
      <use x="422.558594" xlink:href="#ArialMT-109"/>
      <use x="505.859375" xlink:href="#ArialMT-112"/>
      <use x="561.474609" xlink:href="#ArialMT-104"/>
     </g>
    </g>
   </g>
  </g>
 </g>
 <defs>
  <clipPath id="pd2db8a001a">
   <rect height="190.26" width="55.8" x="9" y="30.24"/>
  </clipPath>
 </defs>
</svg>
