<?xml version="1.0" encoding="utf-8" standalone="no"?>
<!DOCTYPE svg PUBLIC "-//W3C//DTD SVG 1.1//EN"
  "http://www.w3.org/Graphics/SVG/1.1/DTD/svg11.dtd">
<!-- Created with matplotlib (https://matplotlib.org/) -->
<svg height="252pt" version="1.1" viewBox="0 0 72 252" width="72pt" xmlns="http://www.w3.org/2000/svg" xmlns:xlink="http://www.w3.org/1999/xlink">
 <metadata>
  <rdf:RDF xmlns:cc="http://creativecommons.org/ns#" xmlns:dc="http://purl.org/dc/elements/1.1/" xmlns:rdf="http://www.w3.org/1999/02/22-rdf-syntax-ns#">
   <cc:Work>
    <dc:type rdf:resource="http://purl.org/dc/dcmitype/StillImage"/>
    <dc:date>2022-06-07T15:40:41.772035</dc:date>
    <dc:format>image/svg+xml</dc:format>
    <dc:creator>
     <cc:Agent>
      <dc:title>Matplotlib v3.3.4, https://matplotlib.org/</dc:title>
     </cc:Agent>
    </dc:creator>
   </cc:Work>
  </rdf:RDF>
 </metadata>
 <defs>
  <style type="text/css">*{stroke-linecap:butt;stroke-linejoin:round;}</style>
 </defs>
 <g id="figure_1">
  <g id="patch_1">
   <path d="M 0 252 
L 72 252 
L 72 0 
L 0 0 
z
" style="fill:none;"/>
  </g>
  <g id="axes_1">
   <g id="patch_2">
    <path d="M 9 220.5 
L 64.8 220.5 
L 64.8 30.24 
L 9 30.24 
z
" style="fill:#ffffff;"/>
   </g>
   <g id="matplotlib.axis_1">
    <g id="ytick_1">
     <g id="line2d_1">
      <defs>
       <path d="M 0 0 
L -3.5 0 
" id="m777b4d6d00" style="stroke:#000000;stroke-width:0.8;"/>
      </defs>
      <g>
       <use style="stroke:#000000;stroke-width:0.8;" x="9" xlink:href="#m777b4d6d00" y="172.935"/>
      </g>
     </g>
    </g>
    <g id="ytick_2">
     <g id="line2d_2">
      <g>
       <use style="stroke:#000000;stroke-width:0.8;" x="9" xlink:href="#m777b4d6d00" y="77.805"/>
      </g>
     </g>
    </g>
   </g>
   <g id="line2d_3">
    <path clip-path="url(#pc8808229fc)" d="M 11.536364 220.5 
L 11.565405 218.578182 
L 11.601024 216.656364 
L 11.644511 214.734545 
L 11.697356 212.812727 
L 11.761276 210.890909 
L 11.838234 208.969091 
L 11.930455 207.047273 
L 12.040449 205.125455 
L 12.171024 203.203636 
L 12.325298 201.281818 
L 12.506705 199.36 
L 12.719 197.438182 
L 12.96625 195.516364 
L 13.252819 193.594545 
L 13.583348 191.672727 
L 13.962714 189.750909 
L 14.395989 187.829091 
L 14.88838 185.907273 
L 15.445151 183.985455 
L 16.071542 182.063636 
L 16.772669 180.141818 
L 17.553408 178.22 
L 18.418273 176.298182 
L 19.371278 174.376364 
L 20.415802 172.454545 
L 21.55443 170.532727 
L 22.788812 168.610909 
L 24.11951 166.689091 
L 25.545859 164.767273 
L 27.06583 162.845455 
L 28.67592 160.923636 
L 30.37105 159.001818 
L 32.1445 157.08 
L 33.98786 155.158182 
L 35.891026 153.236364 
L 37.842227 151.314545 
L 39.828093 149.392727 
L 41.833759 147.470909 
L 43.843021 145.549091 
L 45.83852 143.627273 
L 47.801969 141.705455 
L 49.714421 139.783636 
L 51.556555 137.861818 
L 53.308995 135.94 
L 54.952645 134.018182 
L 56.469026 132.096364 
L 57.840628 130.174545 
L 59.051235 128.252727 
L 60.086253 126.330909 
L 60.932996 124.409091 
L 61.580946 122.487273 
L 62.021974 120.565455 
L 62.250505 118.643636 
L 62.263636 116.721818 
L 62.061202 114.8 
L 61.645773 112.878182 
L 61.022603 110.956364 
L 60.199522 109.034545 
L 59.186765 107.112727 
L 57.996769 105.190909 
L 56.643911 103.269091 
L 55.144225 101.347273 
L 53.515083 99.425455 
L 51.774863 97.503636 
L 49.942605 95.581818 
L 48.037669 93.66 
L 46.0794 91.738182 
L 44.086807 89.816364 
L 42.07827 87.894545 
L 40.071276 85.972727 
L 38.08218 84.050909 
L 36.126018 82.129091 
L 34.216348 80.207273 
L 32.365141 78.285455 
L 30.582706 76.363636 
L 28.877658 74.441818 
L 27.256922 72.52 
L 25.725773 70.598182 
L 24.287901 68.676364 
L 22.945508 66.754545 
L 21.699419 64.832727 
L 20.549213 62.910909 
L 19.493365 60.989091 
L 18.529395 59.067273 
L 17.654014 57.145455 
L 16.863276 55.223636 
L 16.152721 53.301818 
L 15.51751 51.38 
L 14.95255 49.458182 
L 14.452611 47.536364 
L 14.012426 45.614545 
L 13.626778 43.692727 
L 13.290575 41.770909 
L 12.998912 39.849091 
L 12.747119 37.927273 
L 12.530796 36.005455 
L 12.345839 34.083636 
L 12.188456 32.161818 
L 12.055171 30.24 
" style="fill:none;stroke:#029e73;stroke-linecap:square;stroke-width:1.5;"/>
   </g>
   <g id="line2d_4">
    <path clip-path="url(#pc8808229fc)" d="M 13.921644 220.5 
L 14.283224 218.578182 
L 14.686481 216.656364 
L 15.134491 214.734545 
L 15.63029 212.812727 
L 16.176833 210.890909 
L 16.776935 208.969091 
L 17.433221 207.047273 
L 18.148062 205.125455 
L 18.92351 203.203636 
L 19.761238 201.281818 
L 20.662467 199.36 
L 21.627901 197.438182 
L 22.657664 195.516364 
L 23.751235 193.594545 
L 24.907392 191.672727 
L 26.124157 189.750909 
L 27.398756 187.829091 
L 28.727584 185.907273 
L 30.106179 183.985455 
L 31.529215 182.063636 
L 32.990501 180.141818 
L 34.483001 178.22 
L 35.998867 176.298182 
L 37.529486 174.376364 
L 39.065546 172.454545 
L 40.59712 170.532727 
L 42.113755 168.610909 
L 43.604591 166.689091 
L 45.058475 164.767273 
L 46.464102 162.845455 
L 47.810155 160.923636 
L 49.085452 159.001818 
L 50.279103 157.08 
L 51.380661 155.158182 
L 52.380274 153.236364 
L 53.268832 151.314545 
L 54.038103 149.392727 
L 54.680863 147.470909 
L 55.191007 145.549091 
L 55.563643 143.627273 
L 55.795176 141.705455 
L 55.883361 139.783636 
L 55.827342 137.861818 
L 55.627661 135.94 
L 55.286258 134.018182 
L 54.806431 132.096364 
L 54.192786 130.174545 
L 53.451167 128.252727 
L 52.588557 126.330909 
L 51.612974 124.409091 
L 50.533342 122.487273 
L 49.359361 120.565455 
L 48.101359 118.643636 
L 46.770139 116.721818 
L 45.376832 114.8 
L 43.932737 112.878182 
L 42.449176 110.956364 
L 40.937345 109.034545 
L 39.408184 107.112727 
L 37.872244 105.190909 
L 36.33958 103.269091 
L 34.819648 101.347273 
L 33.321224 99.425455 
L 31.852331 97.503636 
L 30.42019 95.581818 
L 29.031182 93.66 
L 27.690827 91.738182 
L 26.40378 89.816364 
L 25.173836 87.894545 
L 24.003951 85.972727 
L 22.896277 84.050909 
L 21.852201 82.129091 
L 20.872396 80.207273 
L 19.956877 78.285455 
L 19.105063 76.363636 
L 18.315842 74.441818 
L 17.587637 72.52 
L 16.918476 70.598182 
L 16.306051 68.676364 
L 15.747791 66.754545 
L 15.240917 64.832727 
L 14.7825 62.910909 
L 14.369519 60.989091 
L 13.998903 59.067273 
L 13.667576 57.145455 
L 13.372498 55.223636 
L 13.110693 53.301818 
L 12.87928 51.38 
L 12.675493 49.458182 
L 12.496697 47.536364 
L 12.340407 45.614545 
L 12.204289 43.692727 
L 12.086174 41.770909 
L 11.984051 39.849091 
L 11.896076 37.927273 
L 11.820561 36.005455 
L 11.755975 34.083636 
L 11.700932 32.161818 
L 11.654191 30.24 
" style="fill:none;stroke:#cc78bc;stroke-linecap:square;stroke-width:1.5;"/>
   </g>
   <g id="patch_3">
    <path d="M 9 220.5 
L 9 30.24 
" style="fill:none;stroke:#000000;stroke-linecap:square;stroke-linejoin:miter;stroke-width:0.8;"/>
   </g>
  </g>
 </g>
 <defs>
  <clipPath id="pc8808229fc">
   <rect height="190.26" width="55.8" x="9" y="30.24"/>
  </clipPath>
 </defs>
</svg>
