<?xml version="1.0" encoding="utf-8" standalone="no"?>
<!DOCTYPE svg PUBLIC "-//W3C//DTD SVG 1.1//EN"
  "http://www.w3.org/Graphics/SVG/1.1/DTD/svg11.dtd">
<!-- Created with matplotlib (https://matplotlib.org/) -->
<svg height="252pt" version="1.1" viewBox="0 0 72 252" width="72pt" xmlns="http://www.w3.org/2000/svg" xmlns:xlink="http://www.w3.org/1999/xlink">
 <metadata>
  <rdf:RDF xmlns:cc="http://creativecommons.org/ns#" xmlns:dc="http://purl.org/dc/elements/1.1/" xmlns:rdf="http://www.w3.org/1999/02/22-rdf-syntax-ns#">
   <cc:Work>
    <dc:type rdf:resource="http://purl.org/dc/dcmitype/StillImage"/>
    <dc:date>2022-05-31T09:01:50.287215</dc:date>
    <dc:format>image/svg+xml</dc:format>
    <dc:creator>
     <cc:Agent>
      <dc:title>Matplotlib v3.3.4, https://matplotlib.org/</dc:title>
     </cc:Agent>
    </dc:creator>
   </cc:Work>
  </rdf:RDF>
 </metadata>
 <defs>
  <style type="text/css">*{stroke-linecap:butt;stroke-linejoin:round;}</style>
 </defs>
 <g id="figure_1">
  <g id="patch_1">
   <path d="M 0 252 
L 72 252 
L 72 0 
L 0 0 
z
" style="fill:none;"/>
  </g>
  <g id="axes_1">
   <g id="patch_2">
    <path d="M 9 220.5 
L 64.8 220.5 
L 64.8 30.24 
L 9 30.24 
z
" style="fill:#ffffff;"/>
   </g>
   <g id="matplotlib.axis_1">
    <g id="ytick_1">
     <g id="line2d_1">
      <defs>
       <path d="M 0 0 
L -3.5 0 
" id="m49d47481ec" style="stroke:#000000;stroke-width:0.8;"/>
      </defs>
      <g>
       <use style="stroke:#000000;stroke-width:0.8;" x="9" xlink:href="#m49d47481ec" y="172.935"/>
      </g>
     </g>
    </g>
    <g id="ytick_2">
     <g id="line2d_2">
      <g>
       <use style="stroke:#000000;stroke-width:0.8;" x="9" xlink:href="#m49d47481ec" y="77.805"/>
      </g>
     </g>
    </g>
   </g>
   <g id="line2d_3">
    <path clip-path="url(#pf8ec36438b)" d="M 11.536364 220.5 
L 11.550832 218.578182 
L 11.568966 216.656364 
L 11.591585 214.734545 
L 11.619663 212.812727 
L 11.654347 210.890909 
L 11.696982 208.969091 
L 11.749137 207.047273 
L 11.812623 205.125455 
L 11.889524 203.203636 
L 11.982213 201.281818 
L 12.09338 199.36 
L 12.226043 197.438182 
L 12.383568 195.516364 
L 12.569676 193.594545 
L 12.788442 191.672727 
L 13.04429 189.750909 
L 13.34198 187.829091 
L 13.686572 185.907273 
L 14.083393 183.985455 
L 14.537975 182.063636 
L 15.05599 180.141818 
L 15.643161 178.22 
L 16.30516 176.298182 
L 17.04749 174.376364 
L 17.875354 172.454545 
L 18.793505 170.532727 
L 19.80609 168.610909 
L 20.916484 166.689091 
L 22.127119 164.767273 
L 23.439308 162.845455 
L 24.853081 160.923636 
L 26.367026 159.001818 
L 27.978143 157.08 
L 29.681724 155.158182 
L 31.471254 153.236364 
L 33.338353 151.314545 
L 35.272741 149.392727 
L 37.262263 147.470909 
L 39.292945 145.549091 
L 41.349103 143.627273 
L 43.413504 141.705455 
L 45.467566 139.783636 
L 47.491614 137.861818 
L 49.465172 135.94 
L 51.36729 134.018182 
L 53.176908 132.096364 
L 54.873236 130.174545 
L 56.436144 128.252727 
L 57.846559 126.330909 
L 59.086852 124.409091 
L 60.141203 122.487273 
L 60.995933 120.565455 
L 61.639805 118.643636 
L 62.064266 116.721818 
L 62.263636 114.8 
L 62.235239 112.878182 
L 61.979455 110.956364 
L 61.499718 109.034545 
L 60.802437 107.112727 
L 59.896854 105.190909 
L 58.794838 103.269091 
L 57.510631 101.347273 
L 56.060536 99.425455 
L 54.462578 97.503636 
L 52.736128 95.581818 
L 50.901517 93.66 
L 48.97964 91.738182 
L 46.991565 89.816364 
L 44.958155 87.894545 
L 42.899717 85.972727 
L 40.83568 84.050909 
L 38.784311 82.129091 
L 36.762475 80.207273 
L 34.785443 78.285455 
L 32.866745 76.363636 
L 31.018073 74.441818 
L 29.249233 72.52 
L 27.568137 70.598182 
L 25.980842 68.676364 
L 24.491622 66.754545 
L 23.103069 64.832727 
L 21.816222 62.910909 
L 20.630715 60.989091 
L 19.544941 59.067273 
L 18.556217 57.145455 
L 17.660961 55.223636 
L 16.854858 53.301818 
L 16.13303 51.38 
L 15.490185 49.458182 
L 14.920768 47.536364 
L 14.419081 45.614545 
L 13.979407 43.692727 
L 13.596101 41.770909 
L 13.263676 39.849091 
L 12.976866 37.927273 
L 12.730683 36.005455 
L 12.520449 34.083636 
L 12.341825 32.161818 
L 12.190824 30.24 
" style="fill:none;stroke:#000000;stroke-linecap:square;stroke-width:1.5;"/>
   </g>
   <g id="line2d_4">
    <path clip-path="url(#pf8ec36438b)" d="M 11.649095 220.5 
L 11.688965 218.578182 
L 11.737431 216.656364 
L 11.796079 214.734545 
L 11.866718 212.812727 
L 11.951409 210.890909 
L 12.052473 208.969091 
L 12.172514 207.047273 
L 12.314429 205.125455 
L 12.481414 203.203636 
L 12.676967 201.281818 
L 12.904888 199.36 
L 13.169265 197.438182 
L 13.474453 195.516364 
L 13.825049 193.594545 
L 14.225845 191.672727 
L 14.681778 189.750909 
L 15.197868 187.829091 
L 15.779135 185.907273 
L 16.430512 183.985455 
L 17.156741 182.063636 
L 17.962258 180.141818 
L 18.851069 178.22 
L 19.826617 176.298182 
L 20.891643 174.376364 
L 22.048044 172.454545 
L 23.296732 170.532727 
L 24.637496 168.610909 
L 26.068874 166.689091 
L 27.588037 164.767273 
L 29.190691 162.845455 
L 30.870998 160.923636 
L 32.62153 159.001818 
L 34.433243 157.08 
L 36.295496 155.158182 
L 38.196096 153.236364 
L 40.121389 151.314545 
L 42.056381 149.392727 
L 43.98491 147.470909 
L 45.88984 145.549091 
L 47.753302 143.627273 
L 49.556957 141.705455 
L 51.282287 139.783636 
L 52.910909 137.861818 
L 54.42489 135.94 
L 55.807078 134.018182 
L 57.041423 132.096364 
L 58.113283 130.174545 
L 59.009717 128.252727 
L 59.719743 126.330909 
L 60.234561 124.409091 
L 60.547736 122.487273 
L 60.65533 120.565455 
L 60.555988 118.643636 
L 60.250962 116.721818 
L 59.744087 114.8 
L 59.041701 112.878182 
L 58.152512 110.956364 
L 57.08742 109.034545 
L 55.859292 107.112727 
L 54.482707 105.190909 
L 52.973665 103.269091 
L 51.349281 101.347273 
L 49.62746 99.425455 
L 47.826577 97.503636 
L 45.96515 95.581818 
L 44.061529 93.66 
L 42.133608 91.738182 
L 40.198556 89.816364 
L 38.272581 87.894545 
L 36.370724 85.972727 
L 34.506696 84.050909 
L 32.692751 82.129091 
L 30.939593 80.207273 
L 29.256329 78.285455 
L 27.650453 76.363636 
L 26.127864 74.441818 
L 24.692918 72.52 
L 23.3485 70.598182 
L 22.096124 68.676364 
L 20.936049 66.754545 
L 19.867405 64.832727 
L 18.888333 62.910909 
L 17.996121 60.989091 
L 17.187352 59.067273 
L 16.45804 57.145455 
L 15.803764 55.223636 
L 15.219792 53.301818 
L 14.701196 51.38 
L 14.242957 49.458182 
L 13.840056 47.536364 
L 13.487549 45.614545 
L 13.180637 43.692727 
L 12.914716 41.770909 
L 12.685419 39.849091 
L 12.488649 37.927273 
L 12.320593 36.005455 
L 12.177741 34.083636 
L 12.056883 32.161818 
L 11.955113 30.24 
" style="fill:none;stroke:#808080;stroke-dasharray:5.55,2.4;stroke-dashoffset:0;stroke-width:1.5;"/>
   </g>
   <g id="line2d_5">
    <path clip-path="url(#pf8ec36438b)" d="M 12.920866 220.5 
L 13.152198 218.578182 
L 13.414346 216.656364 
L 13.710272 214.734545 
L 14.043035 212.812727 
L 14.415761 210.890909 
L 14.831612 208.969091 
L 15.29374 207.047273 
L 15.805248 205.125455 
L 16.369131 203.203636 
L 16.988228 201.281818 
L 17.665154 199.36 
L 18.402239 197.438182 
L 19.201457 195.516364 
L 20.064361 193.594545 
L 20.992006 191.672727 
L 21.984883 189.750909 
L 23.04285 187.829091 
L 24.165068 185.907273 
L 25.349942 183.985455 
L 26.595072 182.063636 
L 27.897207 180.141818 
L 29.252219 178.22 
L 30.65508 176.298182 
L 32.099862 174.376364 
L 33.579745 172.454545 
L 35.087043 170.532727 
L 36.61325 168.610909 
L 38.149102 166.689091 
L 39.684651 164.767273 
L 41.209365 162.845455 
L 42.712233 160.923636 
L 44.181894 159.001818 
L 45.606772 157.08 
L 46.975224 155.158182 
L 48.275694 153.236364 
L 49.496877 151.314545 
L 50.627876 149.392727 
L 51.658367 147.470909 
L 52.578755 145.549091 
L 53.38032 143.627273 
L 54.055357 141.705455 
L 54.597297 139.783636 
L 55.000816 137.861818 
L 55.261918 135.94 
L 55.378007 134.018182 
L 55.347924 132.096364 
L 55.171969 130.174545 
L 54.851897 128.252727 
L 54.390885 126.330909 
L 53.793486 124.409091 
L 53.065546 122.487273 
L 52.214117 120.565455 
L 51.247335 118.643636 
L 50.174299 116.721818 
L 49.004922 114.8 
L 47.749783 112.878182 
L 46.419966 110.956364 
L 45.026899 109.034545 
L 43.582193 107.112727 
L 42.097481 105.190909 
L 40.58427 103.269091 
L 39.053791 101.347273 
L 37.516873 99.425455 
L 35.983821 97.503636 
L 34.464311 95.581818 
L 32.967305 93.66 
L 31.500977 91.738182 
L 30.072661 89.816364 
L 28.688813 87.894545 
L 27.354992 85.972727 
L 26.075853 84.050909 
L 24.855162 82.129091 
L 23.695814 80.207273 
L 22.599873 78.285455 
L 21.568617 76.363636 
L 20.60259 74.441818 
L 19.701666 72.52 
L 18.865113 70.598182 
L 18.091663 68.676364 
L 17.379582 66.754545 
L 16.726741 64.832727 
L 16.130683 62.910909 
L 15.588695 60.989091 
L 15.097867 59.067273 
L 14.655152 57.145455 
L 14.257421 55.223636 
L 13.901513 53.301818 
L 13.584276 51.38 
L 13.302609 49.458182 
L 13.053487 47.536364 
L 12.833997 45.614545 
L 12.641352 43.692727 
L 12.47291 41.770909 
L 12.326186 39.849091 
L 12.198859 37.927273 
L 12.08878 36.005455 
L 11.993965 34.083636 
L 11.912601 32.161818 
L 11.843038 30.24 
" style="fill:none;stroke:#d3d3d3;stroke-dasharray:1.5,2.475;stroke-dashoffset:0;stroke-width:1.5;"/>
   </g>
   <g id="patch_3">
    <path d="M 9 220.5 
L 9 30.24 
" style="fill:none;stroke:#000000;stroke-linecap:square;stroke-linejoin:miter;stroke-width:0.8;"/>
   </g>
   <g id="legend_1">
    <g id="patch_4">
     <path d="M 16 215.5 
L 132.49375 215.5 
Q 134.49375 215.5 134.49375 213.5 
L 134.49375 171.975 
Q 134.49375 169.975 132.49375 169.975 
L 16 169.975 
Q 14 169.975 14 171.975 
L 14 213.5 
Q 14 215.5 16 215.5 
z
" style="fill:#ffffff;opacity:0.8;stroke:#cccccc;stroke-linejoin:miter;"/>
    </g>
    <g id="line2d_6">
     <path d="M 18 177.6625 
L 38 177.6625 
" style="fill:none;stroke:#000000;stroke-linecap:square;stroke-width:1.5;"/>
    </g>
    <g id="line2d_7"/>
    <g id="text_1">
     <!-- 918.0-2313.0 rpm -->
     <g transform="translate(46 181.1625)scale(0.1 -0.1)">
      <defs>
       <path d="M 5.46875 16.546875 
L 13.921875 17.328125 
Q 14.984375 11.375 18.015625 8.6875 
Q 21.046875 6 25.78125 6 
Q 29.828125 6 32.875 7.859375 
Q 35.9375 9.71875 37.890625 12.8125 
Q 39.84375 15.921875 41.15625 21.1875 
Q 42.484375 26.46875 42.484375 31.9375 
Q 42.484375 32.515625 42.4375 33.6875 
Q 39.796875 29.5 35.234375 26.875 
Q 30.671875 24.265625 25.34375 24.265625 
Q 16.453125 24.265625 10.296875 30.703125 
Q 4.15625 37.15625 4.15625 47.703125 
Q 4.15625 58.59375 10.578125 65.234375 
Q 17 71.875 26.65625 71.875 
Q 33.640625 71.875 39.421875 68.109375 
Q 45.21875 64.359375 48.21875 57.390625 
Q 51.21875 50.4375 51.21875 37.25 
Q 51.21875 23.53125 48.234375 15.40625 
Q 45.265625 7.28125 39.375 3.03125 
Q 33.5 -1.21875 25.59375 -1.21875 
Q 17.1875 -1.21875 11.859375 3.4375 
Q 6.546875 8.109375 5.46875 16.546875 
z
M 41.453125 48.140625 
Q 41.453125 55.71875 37.421875 60.15625 
Q 33.40625 64.59375 27.734375 64.59375 
Q 21.875 64.59375 17.53125 59.8125 
Q 13.1875 55.03125 13.1875 47.40625 
Q 13.1875 40.578125 17.3125 36.296875 
Q 21.4375 32.03125 27.484375 32.03125 
Q 33.59375 32.03125 37.515625 36.296875 
Q 41.453125 40.578125 41.453125 48.140625 
z
" id="ArialMT-57"/>
       <path d="M 37.25 0 
L 28.46875 0 
L 28.46875 56 
Q 25.296875 52.984375 20.140625 49.953125 
Q 14.984375 46.921875 10.890625 45.40625 
L 10.890625 53.90625 
Q 18.265625 57.375 23.78125 62.296875 
Q 29.296875 67.234375 31.59375 71.875 
L 37.25 71.875 
z
" id="ArialMT-49"/>
       <path d="M 17.671875 38.8125 
Q 12.203125 40.828125 9.5625 44.53125 
Q 6.9375 48.25 6.9375 53.421875 
Q 6.9375 61.234375 12.546875 66.546875 
Q 18.171875 71.875 27.484375 71.875 
Q 36.859375 71.875 42.578125 66.421875 
Q 48.296875 60.984375 48.296875 53.171875 
Q 48.296875 48.1875 45.671875 44.5 
Q 43.0625 40.828125 37.75 38.8125 
Q 44.34375 36.671875 47.78125 31.875 
Q 51.21875 27.09375 51.21875 20.453125 
Q 51.21875 11.28125 44.71875 5.03125 
Q 38.234375 -1.21875 27.640625 -1.21875 
Q 17.046875 -1.21875 10.546875 5.046875 
Q 4.046875 11.328125 4.046875 20.703125 
Q 4.046875 27.6875 7.59375 32.390625 
Q 11.140625 37.109375 17.671875 38.8125 
z
M 15.921875 53.71875 
Q 15.921875 48.640625 19.1875 45.40625 
Q 22.46875 42.1875 27.6875 42.1875 
Q 32.765625 42.1875 36.015625 45.375 
Q 39.265625 48.578125 39.265625 53.21875 
Q 39.265625 58.0625 35.90625 61.359375 
Q 32.5625 64.65625 27.59375 64.65625 
Q 22.5625 64.65625 19.234375 61.421875 
Q 15.921875 58.203125 15.921875 53.71875 
z
M 13.09375 20.65625 
Q 13.09375 16.890625 14.875 13.375 
Q 16.65625 9.859375 20.171875 7.921875 
Q 23.6875 6 27.734375 6 
Q 34.03125 6 38.125 10.046875 
Q 42.234375 14.109375 42.234375 20.359375 
Q 42.234375 26.703125 38.015625 30.859375 
Q 33.796875 35.015625 27.4375 35.015625 
Q 21.234375 35.015625 17.15625 30.90625 
Q 13.09375 26.8125 13.09375 20.65625 
z
" id="ArialMT-56"/>
       <path d="M 9.078125 0 
L 9.078125 10.015625 
L 19.09375 10.015625 
L 19.09375 0 
z
" id="ArialMT-46"/>
       <path d="M 4.15625 35.296875 
Q 4.15625 48 6.765625 55.734375 
Q 9.375 63.484375 14.515625 67.671875 
Q 19.671875 71.875 27.484375 71.875 
Q 33.25 71.875 37.59375 69.546875 
Q 41.9375 67.234375 44.765625 62.859375 
Q 47.609375 58.5 49.21875 52.21875 
Q 50.828125 45.953125 50.828125 35.296875 
Q 50.828125 22.703125 48.234375 14.96875 
Q 45.65625 7.234375 40.5 3 
Q 35.359375 -1.21875 27.484375 -1.21875 
Q 17.140625 -1.21875 11.234375 6.203125 
Q 4.15625 15.140625 4.15625 35.296875 
z
M 13.1875 35.296875 
Q 13.1875 17.671875 17.3125 11.828125 
Q 21.4375 6 27.484375 6 
Q 33.546875 6 37.671875 11.859375 
Q 41.796875 17.71875 41.796875 35.296875 
Q 41.796875 52.984375 37.671875 58.78125 
Q 33.546875 64.59375 27.390625 64.59375 
Q 21.34375 64.59375 17.71875 59.46875 
Q 13.1875 52.9375 13.1875 35.296875 
z
" id="ArialMT-48"/>
       <path d="M 3.171875 21.484375 
L 3.171875 30.328125 
L 30.171875 30.328125 
L 30.171875 21.484375 
z
" id="ArialMT-45"/>
       <path d="M 50.34375 8.453125 
L 50.34375 0 
L 3.03125 0 
Q 2.9375 3.171875 4.046875 6.109375 
Q 5.859375 10.9375 9.828125 15.625 
Q 13.8125 20.3125 21.34375 26.46875 
Q 33.015625 36.03125 37.109375 41.625 
Q 41.21875 47.21875 41.21875 52.203125 
Q 41.21875 57.421875 37.46875 61 
Q 33.734375 64.59375 27.734375 64.59375 
Q 21.390625 64.59375 17.578125 60.78125 
Q 13.765625 56.984375 13.71875 50.25 
L 4.6875 51.171875 
Q 5.609375 61.28125 11.65625 66.578125 
Q 17.71875 71.875 27.9375 71.875 
Q 38.234375 71.875 44.234375 66.15625 
Q 50.25 60.453125 50.25 52 
Q 50.25 47.703125 48.484375 43.546875 
Q 46.734375 39.40625 42.65625 34.8125 
Q 38.578125 30.21875 29.109375 22.21875 
Q 21.1875 15.578125 18.9375 13.203125 
Q 16.703125 10.84375 15.234375 8.453125 
z
" id="ArialMT-50"/>
       <path d="M 4.203125 18.890625 
L 12.984375 20.0625 
Q 14.5 12.59375 18.140625 9.296875 
Q 21.78125 6 27 6 
Q 33.203125 6 37.46875 10.296875 
Q 41.75 14.59375 41.75 20.953125 
Q 41.75 27 37.796875 30.921875 
Q 33.84375 34.859375 27.734375 34.859375 
Q 25.25 34.859375 21.53125 33.890625 
L 22.515625 41.609375 
Q 23.390625 41.5 23.921875 41.5 
Q 29.546875 41.5 34.03125 44.421875 
Q 38.53125 47.359375 38.53125 53.46875 
Q 38.53125 58.296875 35.25 61.46875 
Q 31.984375 64.65625 26.8125 64.65625 
Q 21.6875 64.65625 18.265625 61.421875 
Q 14.84375 58.203125 13.875 51.765625 
L 5.078125 53.328125 
Q 6.6875 62.15625 12.390625 67.015625 
Q 18.109375 71.875 26.609375 71.875 
Q 32.46875 71.875 37.390625 69.359375 
Q 42.328125 66.84375 44.9375 62.5 
Q 47.5625 58.15625 47.5625 53.265625 
Q 47.5625 48.640625 45.0625 44.828125 
Q 42.578125 41.015625 37.703125 38.765625 
Q 44.046875 37.3125 47.5625 32.6875 
Q 51.078125 28.078125 51.078125 21.140625 
Q 51.078125 11.765625 44.234375 5.25 
Q 37.40625 -1.265625 26.953125 -1.265625 
Q 17.53125 -1.265625 11.296875 4.34375 
Q 5.078125 9.96875 4.203125 18.890625 
z
" id="ArialMT-51"/>
       <path id="ArialMT-32"/>
       <path d="M 6.5 0 
L 6.5 51.859375 
L 14.40625 51.859375 
L 14.40625 44 
Q 17.4375 49.515625 20 51.265625 
Q 22.5625 53.03125 25.640625 53.03125 
Q 30.078125 53.03125 34.671875 50.203125 
L 31.640625 42.046875 
Q 28.421875 43.953125 25.203125 43.953125 
Q 22.3125 43.953125 20.015625 42.21875 
Q 17.71875 40.484375 16.75 37.40625 
Q 15.28125 32.71875 15.28125 27.15625 
L 15.28125 0 
z
" id="ArialMT-114"/>
       <path d="M 6.59375 -19.875 
L 6.59375 51.859375 
L 14.59375 51.859375 
L 14.59375 45.125 
Q 17.4375 49.078125 21 51.046875 
Q 24.5625 53.03125 29.640625 53.03125 
Q 36.28125 53.03125 41.359375 49.609375 
Q 46.4375 46.1875 49.015625 39.953125 
Q 51.609375 33.734375 51.609375 26.3125 
Q 51.609375 18.359375 48.75 11.984375 
Q 45.90625 5.609375 40.453125 2.21875 
Q 35.015625 -1.171875 29 -1.171875 
Q 24.609375 -1.171875 21.109375 0.6875 
Q 17.625 2.546875 15.375 5.375 
L 15.375 -19.875 
z
M 14.546875 25.640625 
Q 14.546875 15.625 18.59375 10.84375 
Q 22.65625 6.0625 28.421875 6.0625 
Q 34.28125 6.0625 38.453125 11.015625 
Q 42.625 15.96875 42.625 26.375 
Q 42.625 36.28125 38.546875 41.203125 
Q 34.46875 46.140625 28.8125 46.140625 
Q 23.1875 46.140625 18.859375 40.890625 
Q 14.546875 35.640625 14.546875 25.640625 
z
" id="ArialMT-112"/>
       <path d="M 6.59375 0 
L 6.59375 51.859375 
L 14.453125 51.859375 
L 14.453125 44.578125 
Q 16.890625 48.390625 20.9375 50.703125 
Q 25 53.03125 30.171875 53.03125 
Q 35.9375 53.03125 39.625 50.640625 
Q 43.3125 48.25 44.828125 43.953125 
Q 50.984375 53.03125 60.84375 53.03125 
Q 68.5625 53.03125 72.703125 48.75 
Q 76.859375 44.484375 76.859375 35.59375 
L 76.859375 0 
L 68.109375 0 
L 68.109375 32.671875 
Q 68.109375 37.9375 67.25 40.25 
Q 66.40625 42.578125 64.15625 43.984375 
Q 61.921875 45.40625 58.890625 45.40625 
Q 53.421875 45.40625 49.796875 41.765625 
Q 46.1875 38.140625 46.1875 30.125 
L 46.1875 0 
L 37.40625 0 
L 37.40625 33.6875 
Q 37.40625 39.546875 35.25 42.46875 
Q 33.109375 45.40625 28.21875 45.40625 
Q 24.515625 45.40625 21.359375 43.453125 
Q 18.21875 41.5 16.796875 37.734375 
Q 15.375 33.984375 15.375 26.90625 
L 15.375 0 
z
" id="ArialMT-109"/>
      </defs>
      <use xlink:href="#ArialMT-57"/>
      <use x="55.615234" xlink:href="#ArialMT-49"/>
      <use x="111.230469" xlink:href="#ArialMT-56"/>
      <use x="166.845703" xlink:href="#ArialMT-46"/>
      <use x="194.628906" xlink:href="#ArialMT-48"/>
      <use x="250.244141" xlink:href="#ArialMT-45"/>
      <use x="283.544922" xlink:href="#ArialMT-50"/>
      <use x="339.160156" xlink:href="#ArialMT-51"/>
      <use x="394.775391" xlink:href="#ArialMT-49"/>
      <use x="450.390625" xlink:href="#ArialMT-51"/>
      <use x="506.005859" xlink:href="#ArialMT-46"/>
      <use x="533.789062" xlink:href="#ArialMT-48"/>
      <use x="589.404297" xlink:href="#ArialMT-32"/>
      <use x="617.1875" xlink:href="#ArialMT-114"/>
      <use x="650.488281" xlink:href="#ArialMT-112"/>
      <use x="706.103516" xlink:href="#ArialMT-109"/>
     </g>
    </g>
    <g id="line2d_8">
     <path d="M 18 191.8375 
L 38 191.8375 
" style="fill:none;stroke:#808080;stroke-dasharray:5.55,2.4;stroke-dashoffset:0;stroke-width:1.5;"/>
    </g>
    <g id="line2d_9"/>
    <g id="text_2">
     <!-- 2313.0-2531.0 rpm -->
     <g transform="translate(46 195.3375)scale(0.1 -0.1)">
      <defs>
       <path d="M 4.15625 18.75 
L 13.375 19.53125 
Q 14.40625 12.796875 18.140625 9.390625 
Q 21.875 6 27.15625 6 
Q 33.5 6 37.890625 10.78125 
Q 42.28125 15.578125 42.28125 23.484375 
Q 42.28125 31 38.0625 35.34375 
Q 33.84375 39.703125 27 39.703125 
Q 22.75 39.703125 19.328125 37.765625 
Q 15.921875 35.84375 13.96875 32.765625 
L 5.71875 33.84375 
L 12.640625 70.609375 
L 48.25 70.609375 
L 48.25 62.203125 
L 19.671875 62.203125 
L 15.828125 42.96875 
Q 22.265625 47.46875 29.34375 47.46875 
Q 38.71875 47.46875 45.15625 40.96875 
Q 51.609375 34.46875 51.609375 24.265625 
Q 51.609375 14.546875 45.953125 7.46875 
Q 39.0625 -1.21875 27.15625 -1.21875 
Q 17.390625 -1.21875 11.203125 4.25 
Q 5.03125 9.71875 4.15625 18.75 
z
" id="ArialMT-53"/>
      </defs>
      <use xlink:href="#ArialMT-50"/>
      <use x="55.615234" xlink:href="#ArialMT-51"/>
      <use x="111.230469" xlink:href="#ArialMT-49"/>
      <use x="166.845703" xlink:href="#ArialMT-51"/>
      <use x="222.460938" xlink:href="#ArialMT-46"/>
      <use x="250.244141" xlink:href="#ArialMT-48"/>
      <use x="305.859375" xlink:href="#ArialMT-45"/>
      <use x="339.160156" xlink:href="#ArialMT-50"/>
      <use x="394.775391" xlink:href="#ArialMT-53"/>
      <use x="450.390625" xlink:href="#ArialMT-51"/>
      <use x="506.005859" xlink:href="#ArialMT-49"/>
      <use x="561.621094" xlink:href="#ArialMT-46"/>
      <use x="589.404297" xlink:href="#ArialMT-48"/>
      <use x="645.019531" xlink:href="#ArialMT-32"/>
      <use x="672.802734" xlink:href="#ArialMT-114"/>
      <use x="706.103516" xlink:href="#ArialMT-112"/>
      <use x="761.71875" xlink:href="#ArialMT-109"/>
     </g>
    </g>
    <g id="line2d_10">
     <path d="M 18 206.0125 
L 38 206.0125 
" style="fill:none;stroke:#d3d3d3;stroke-dasharray:1.5,2.475;stroke-dashoffset:0;stroke-width:1.5;"/>
    </g>
    <g id="line2d_11"/>
    <g id="text_3">
     <!-- 2531.0-3222.0 rpm -->
     <g transform="translate(46 209.5125)scale(0.1 -0.1)">
      <use xlink:href="#ArialMT-50"/>
      <use x="55.615234" xlink:href="#ArialMT-53"/>
      <use x="111.230469" xlink:href="#ArialMT-51"/>
      <use x="166.845703" xlink:href="#ArialMT-49"/>
      <use x="222.460938" xlink:href="#ArialMT-46"/>
      <use x="250.244141" xlink:href="#ArialMT-48"/>
      <use x="305.859375" xlink:href="#ArialMT-45"/>
      <use x="339.160156" xlink:href="#ArialMT-51"/>
      <use x="394.775391" xlink:href="#ArialMT-50"/>
      <use x="450.390625" xlink:href="#ArialMT-50"/>
      <use x="506.005859" xlink:href="#ArialMT-50"/>
      <use x="561.621094" xlink:href="#ArialMT-46"/>
      <use x="589.404297" xlink:href="#ArialMT-48"/>
      <use x="645.019531" xlink:href="#ArialMT-32"/>
      <use x="672.802734" xlink:href="#ArialMT-114"/>
      <use x="706.103516" xlink:href="#ArialMT-112"/>
      <use x="761.71875" xlink:href="#ArialMT-109"/>
     </g>
    </g>
   </g>
  </g>
 </g>
 <defs>
  <clipPath id="pf8ec36438b">
   <rect height="190.26" width="55.8" x="9" y="30.24"/>
  </clipPath>
 </defs>
</svg>
