<?xml version="1.0" encoding="utf-8" standalone="no"?>
<!DOCTYPE svg PUBLIC "-//W3C//DTD SVG 1.1//EN"
  "http://www.w3.org/Graphics/SVG/1.1/DTD/svg11.dtd">
<!-- Created with matplotlib (https://matplotlib.org/) -->
<svg height="252pt" version="1.1" viewBox="0 0 72 252" width="72pt" xmlns="http://www.w3.org/2000/svg" xmlns:xlink="http://www.w3.org/1999/xlink">
 <metadata>
  <rdf:RDF xmlns:cc="http://creativecommons.org/ns#" xmlns:dc="http://purl.org/dc/elements/1.1/" xmlns:rdf="http://www.w3.org/1999/02/22-rdf-syntax-ns#">
   <cc:Work>
    <dc:type rdf:resource="http://purl.org/dc/dcmitype/StillImage"/>
    <dc:date>2022-06-07T15:40:42.035181</dc:date>
    <dc:format>image/svg+xml</dc:format>
    <dc:creator>
     <cc:Agent>
      <dc:title>Matplotlib v3.3.4, https://matplotlib.org/</dc:title>
     </cc:Agent>
    </dc:creator>
   </cc:Work>
  </rdf:RDF>
 </metadata>
 <defs>
  <style type="text/css">*{stroke-linecap:butt;stroke-linejoin:round;}</style>
 </defs>
 <g id="figure_1">
  <g id="patch_1">
   <path d="M 0 252 
L 72 252 
L 72 0 
L 0 0 
z
" style="fill:none;"/>
  </g>
  <g id="axes_1">
   <g id="patch_2">
    <path d="M 9 220.5 
L 64.8 220.5 
L 64.8 30.24 
L 9 30.24 
z
" style="fill:#ffffff;"/>
   </g>
   <g id="matplotlib.axis_1">
    <g id="ytick_1">
     <g id="line2d_1">
      <defs>
       <path d="M 0 0 
L -3.5 0 
" id="m22dd811d73" style="stroke:#000000;stroke-width:0.8;"/>
      </defs>
      <g>
       <use style="stroke:#000000;stroke-width:0.8;" x="9" xlink:href="#m22dd811d73" y="172.935"/>
      </g>
     </g>
    </g>
    <g id="ytick_2">
     <g id="line2d_2">
      <g>
       <use style="stroke:#000000;stroke-width:0.8;" x="9" xlink:href="#m22dd811d73" y="77.805"/>
      </g>
     </g>
    </g>
   </g>
   <g id="line2d_3">
    <path clip-path="url(#p8967b34e03)" d="M 13.972465 220.5 
L 14.347461 218.578182 
L 14.768243 216.656364 
L 15.238526 214.734545 
L 15.762035 212.812727 
L 16.342444 210.890909 
L 16.983321 208.969091 
L 17.688061 207.047273 
L 18.459817 205.125455 
L 19.301418 203.203636 
L 20.215294 201.281818 
L 21.203391 199.36 
L 22.267085 197.438182 
L 23.407101 195.516364 
L 24.623429 193.594545 
L 25.915248 191.672727 
L 27.280853 189.750909 
L 28.717595 187.829091 
L 30.221827 185.907273 
L 31.788865 183.985455 
L 33.412961 182.063636 
L 35.087301 180.141818 
L 36.804008 178.22 
L 38.554175 176.298182 
L 40.327915 174.376364 
L 42.114426 172.454545 
L 43.902088 170.532727 
L 45.678568 168.610909 
L 47.430953 166.689091 
L 49.145897 164.767273 
L 50.809777 162.845455 
L 52.408877 160.923636 
L 53.929566 159.001818 
L 55.35849 157.08 
L 56.682768 155.158182 
L 57.890179 153.236364 
L 58.969356 151.314545 
L 59.909957 149.392727 
L 60.702837 147.470909 
L 61.340187 145.549091 
L 61.815671 143.627273 
L 62.124524 141.705455 
L 62.263636 139.783636 
L 62.231602 137.861818 
L 62.028746 135.94 
L 61.657114 134.018182 
L 61.120444 132.096364 
L 60.424099 130.174545 
L 59.574979 128.252727 
L 58.581409 126.330909 
L 57.453 124.409091 
L 56.200497 122.487273 
L 54.835609 120.565455 
L 53.370825 118.643636 
L 51.819226 116.721818 
L 50.194292 114.8 
L 48.509708 112.878182 
L 46.779177 110.956364 
L 45.016237 109.034545 
L 43.234091 107.112727 
L 41.445451 105.190909 
L 39.662398 103.269091 
L 37.896258 101.347273 
L 36.1575 99.425455 
L 34.455651 97.503636 
L 32.799238 95.581818 
L 31.195742 93.66 
L 29.65158 91.738182 
L 28.172099 89.816364 
L 26.761591 87.894545 
L 25.423326 85.972727 
L 24.159592 84.050909 
L 22.971756 82.129091 
L 21.860326 80.207273 
L 20.825029 78.285455 
L 19.864886 76.363636 
L 18.978298 74.441818 
L 18.163128 72.52 
L 17.416788 70.598182 
L 16.736318 68.676364 
L 16.118466 66.754545 
L 15.559764 64.832727 
L 15.056597 62.910909 
L 14.605265 60.989091 
L 14.202041 59.067273 
L 13.843224 57.145455 
L 13.525177 55.223636 
L 13.244367 53.301818 
L 12.997398 51.38 
L 12.781027 49.458182 
L 12.592193 47.536364 
L 12.428018 45.614545 
L 12.285825 43.692727 
L 12.163136 41.770909 
L 12.057675 39.849091 
L 11.967362 37.927273 
L 11.89031 36.005455 
L 11.824817 34.083636 
L 11.769355 32.161818 
L 11.722561 30.24 
" style="fill:none;stroke:#000000;stroke-linecap:square;stroke-width:1.5;"/>
   </g>
   <g id="line2d_4">
    <path clip-path="url(#p8967b34e03)" d="M 11.536364 220.5 
L 11.545842 218.578182 
L 11.557442 216.656364 
L 11.571573 214.734545 
L 11.588708 212.812727 
L 11.609391 210.890909 
L 11.63424 208.969091 
L 11.663954 207.047273 
L 11.699322 205.125455 
L 11.741221 203.203636 
L 11.790623 201.281818 
L 11.848596 199.36 
L 11.916304 197.438182 
L 11.995001 195.516364 
L 12.086033 193.594545 
L 12.190822 191.672727 
L 12.310859 189.750909 
L 12.447686 187.829091 
L 12.602881 185.907273 
L 12.778031 183.985455 
L 12.974705 182.063636 
L 13.194425 180.141818 
L 13.43863 178.22 
L 13.708637 176.298182 
L 14.005601 174.376364 
L 14.33047 172.454545 
L 14.683942 170.532727 
L 15.06642 168.610909 
L 15.477966 166.689091 
L 15.91826 164.767273 
L 16.386564 162.845455 
L 16.881686 160.923636 
L 17.401954 159.001818 
L 17.945197 157.08 
L 18.508736 155.158182 
L 19.089383 153.236364 
L 19.683455 151.314545 
L 20.286794 149.392727 
L 20.894806 147.470909 
L 21.502509 145.549091 
L 22.104589 143.627273 
L 22.695476 141.705455 
L 23.269425 139.783636 
L 23.820599 137.861818 
L 24.343175 135.94 
L 24.831439 134.018182 
L 25.279887 132.096364 
L 25.683336 130.174545 
L 26.037013 128.252727 
L 26.336657 126.330909 
L 26.578602 124.409091 
L 26.759848 122.487273 
L 26.878128 120.565455 
L 26.931951 118.643636 
L 26.920639 116.721818 
L 26.844333 114.8 
L 26.703998 112.878182 
L 26.501397 110.956364 
L 26.239058 109.034545 
L 25.920219 107.112727 
L 25.548763 105.190909 
L 25.129138 103.269091 
L 24.66627 101.347273 
L 24.165466 99.425455 
L 23.632312 97.503636 
L 23.072574 95.581818 
L 22.49209 93.66 
L 21.896675 91.738182 
L 21.292025 89.816364 
L 20.683628 87.894545 
L 20.076692 85.972727 
L 19.476069 84.050909 
L 18.886207 82.129091 
L 18.311103 80.207273 
L 17.754271 78.285455 
L 17.218721 76.363636 
L 16.706958 74.441818 
L 16.220976 72.52 
L 15.762279 70.598182 
L 15.331897 68.676364 
L 14.930421 66.754545 
L 14.558032 64.832727 
L 14.214545 62.910909 
L 13.89945 60.989091 
L 13.611958 59.067273 
L 13.351043 57.145455 
L 13.115489 55.223636 
L 12.903933 53.301818 
L 12.714903 51.38 
L 12.546856 49.458182 
L 12.398213 47.536364 
L 12.267389 45.614545 
L 12.152815 43.692727 
L 12.052965 41.770909 
L 11.96637 39.849091 
L 11.891633 37.927273 
L 11.827441 36.005455 
L 11.772568 34.083636 
L 11.725886 32.161818 
L 11.686358 30.24 
" style="fill:none;stroke:#808080;stroke-dasharray:1.5,2.475;stroke-dashoffset:0;stroke-width:1.5;"/>
   </g>
   <g id="patch_3">
    <path d="M 9 220.5 
L 9 30.24 
" style="fill:none;stroke:#000000;stroke-linecap:square;stroke-linejoin:miter;stroke-width:0.8;"/>
   </g>
   <g id="legend_1">
    <g id="patch_4">
     <path d="M 16 66.530625 
L 103.020313 66.530625 
Q 105.020313 66.530625 105.020313 64.530625 
L 105.020313 37.24 
Q 105.020313 35.24 103.020313 35.24 
L 16 35.24 
Q 14 35.24 14 37.24 
L 14 64.530625 
Q 14 66.530625 16 66.530625 
z
" style="fill:#ffffff;opacity:0.8;stroke:#cccccc;stroke-linejoin:miter;"/>
    </g>
    <g id="line2d_5">
     <path d="M 18 42.897813 
L 38 42.897813 
" style="fill:none;stroke:#000000;stroke-linecap:square;stroke-width:1.5;"/>
    </g>
    <g id="line2d_6"/>
    <g id="text_1">
     <!-- -1.07- -0.4 % -->
     <g transform="translate(46 46.397813)scale(0.1 -0.1)">
      <defs>
       <path d="M 3.171875 21.484375 
L 3.171875 30.328125 
L 30.171875 30.328125 
L 30.171875 21.484375 
z
" id="ArialMT-45"/>
       <path d="M 37.25 0 
L 28.46875 0 
L 28.46875 56 
Q 25.296875 52.984375 20.140625 49.953125 
Q 14.984375 46.921875 10.890625 45.40625 
L 10.890625 53.90625 
Q 18.265625 57.375 23.78125 62.296875 
Q 29.296875 67.234375 31.59375 71.875 
L 37.25 71.875 
z
" id="ArialMT-49"/>
       <path d="M 9.078125 0 
L 9.078125 10.015625 
L 19.09375 10.015625 
L 19.09375 0 
z
" id="ArialMT-46"/>
       <path d="M 4.15625 35.296875 
Q 4.15625 48 6.765625 55.734375 
Q 9.375 63.484375 14.515625 67.671875 
Q 19.671875 71.875 27.484375 71.875 
Q 33.25 71.875 37.59375 69.546875 
Q 41.9375 67.234375 44.765625 62.859375 
Q 47.609375 58.5 49.21875 52.21875 
Q 50.828125 45.953125 50.828125 35.296875 
Q 50.828125 22.703125 48.234375 14.96875 
Q 45.65625 7.234375 40.5 3 
Q 35.359375 -1.21875 27.484375 -1.21875 
Q 17.140625 -1.21875 11.234375 6.203125 
Q 4.15625 15.140625 4.15625 35.296875 
z
M 13.1875 35.296875 
Q 13.1875 17.671875 17.3125 11.828125 
Q 21.4375 6 27.484375 6 
Q 33.546875 6 37.671875 11.859375 
Q 41.796875 17.71875 41.796875 35.296875 
Q 41.796875 52.984375 37.671875 58.78125 
Q 33.546875 64.59375 27.390625 64.59375 
Q 21.34375 64.59375 17.71875 59.46875 
Q 13.1875 52.9375 13.1875 35.296875 
z
" id="ArialMT-48"/>
       <path d="M 4.734375 62.203125 
L 4.734375 70.65625 
L 51.078125 70.65625 
L 51.078125 63.8125 
Q 44.234375 56.546875 37.515625 44.484375 
Q 30.8125 32.421875 27.15625 19.671875 
Q 24.515625 10.6875 23.78125 0 
L 14.75 0 
Q 14.890625 8.453125 18.0625 20.40625 
Q 21.234375 32.375 27.171875 43.484375 
Q 33.109375 54.59375 39.796875 62.203125 
z
" id="ArialMT-55"/>
       <path d="M 32.328125 0 
L 32.328125 17.140625 
L 1.265625 17.140625 
L 1.265625 25.203125 
L 33.9375 71.578125 
L 41.109375 71.578125 
L 41.109375 25.203125 
L 50.78125 25.203125 
L 50.78125 17.140625 
L 41.109375 17.140625 
L 41.109375 0 
z
M 32.328125 25.203125 
L 32.328125 57.46875 
L 9.90625 25.203125 
z
" id="ArialMT-52"/>
       <path id="ArialMT-32"/>
       <path d="M 5.8125 54.390625 
Q 5.8125 62.0625 9.671875 67.421875 
Q 13.53125 72.796875 20.84375 72.796875 
Q 27.59375 72.796875 32 67.984375 
Q 36.421875 63.1875 36.421875 53.859375 
Q 36.421875 44.78125 31.953125 39.875 
Q 27.484375 34.96875 20.953125 34.96875 
Q 14.453125 34.96875 10.125 39.796875 
Q 5.8125 44.625 5.8125 54.390625 
z
M 21.09375 66.75 
Q 17.828125 66.75 15.65625 63.90625 
Q 13.484375 61.078125 13.484375 53.515625 
Q 13.484375 46.625 15.671875 43.8125 
Q 17.875 41.015625 21.09375 41.015625 
Q 24.421875 41.015625 26.59375 43.84375 
Q 28.765625 46.6875 28.765625 54.203125 
Q 28.765625 61.140625 26.5625 63.9375 
Q 24.359375 66.75 21.09375 66.75 
z
M 21.140625 -2.640625 
L 60.296875 72.796875 
L 67.4375 72.796875 
L 28.421875 -2.640625 
z
M 52.09375 16.796875 
Q 52.09375 24.515625 55.953125 29.859375 
Q 59.8125 35.203125 67.1875 35.203125 
Q 73.921875 35.203125 78.34375 30.390625 
Q 82.765625 25.59375 82.765625 16.265625 
Q 82.765625 7.171875 78.296875 2.265625 
Q 73.828125 -2.640625 67.234375 -2.640625 
Q 60.75 -2.640625 56.421875 2.21875 
Q 52.09375 7.078125 52.09375 16.796875 
z
M 67.4375 29.15625 
Q 64.109375 29.15625 61.9375 26.3125 
Q 59.765625 23.484375 59.765625 15.921875 
Q 59.765625 9.078125 61.953125 6.25 
Q 64.15625 3.421875 67.390625 3.421875 
Q 70.75 3.421875 72.921875 6.25 
Q 75.09375 9.078125 75.09375 16.609375 
Q 75.09375 23.53125 72.890625 26.34375 
Q 70.703125 29.15625 67.4375 29.15625 
z
" id="ArialMT-37"/>
      </defs>
      <use xlink:href="#ArialMT-45"/>
      <use x="33.300781" xlink:href="#ArialMT-49"/>
      <use x="88.916016" xlink:href="#ArialMT-46"/>
      <use x="116.699219" xlink:href="#ArialMT-48"/>
      <use x="172.314453" xlink:href="#ArialMT-55"/>
      <use x="227.929688" xlink:href="#ArialMT-45"/>
      <use x="261.230469" xlink:href="#ArialMT-45"/>
      <use x="294.53125" xlink:href="#ArialMT-48"/>
      <use x="350.146484" xlink:href="#ArialMT-46"/>
      <use x="377.929688" xlink:href="#ArialMT-52"/>
      <use x="433.544922" xlink:href="#ArialMT-32"/>
      <use x="461.328125" xlink:href="#ArialMT-37"/>
     </g>
    </g>
    <g id="line2d_7">
     <path d="M 18 57.043125 
L 38 57.043125 
" style="fill:none;stroke:#808080;stroke-dasharray:1.5,2.475;stroke-dashoffset:0;stroke-width:1.5;"/>
    </g>
    <g id="line2d_8"/>
    <g id="text_2">
     <!-- 0.1-1.19 % -->
     <g transform="translate(46 60.543125)scale(0.1 -0.1)">
      <defs>
       <path d="M 5.46875 16.546875 
L 13.921875 17.328125 
Q 14.984375 11.375 18.015625 8.6875 
Q 21.046875 6 25.78125 6 
Q 29.828125 6 32.875 7.859375 
Q 35.9375 9.71875 37.890625 12.8125 
Q 39.84375 15.921875 41.15625 21.1875 
Q 42.484375 26.46875 42.484375 31.9375 
Q 42.484375 32.515625 42.4375 33.6875 
Q 39.796875 29.5 35.234375 26.875 
Q 30.671875 24.265625 25.34375 24.265625 
Q 16.453125 24.265625 10.296875 30.703125 
Q 4.15625 37.15625 4.15625 47.703125 
Q 4.15625 58.59375 10.578125 65.234375 
Q 17 71.875 26.65625 71.875 
Q 33.640625 71.875 39.421875 68.109375 
Q 45.21875 64.359375 48.21875 57.390625 
Q 51.21875 50.4375 51.21875 37.25 
Q 51.21875 23.53125 48.234375 15.40625 
Q 45.265625 7.28125 39.375 3.03125 
Q 33.5 -1.21875 25.59375 -1.21875 
Q 17.1875 -1.21875 11.859375 3.4375 
Q 6.546875 8.109375 5.46875 16.546875 
z
M 41.453125 48.140625 
Q 41.453125 55.71875 37.421875 60.15625 
Q 33.40625 64.59375 27.734375 64.59375 
Q 21.875 64.59375 17.53125 59.8125 
Q 13.1875 55.03125 13.1875 47.40625 
Q 13.1875 40.578125 17.3125 36.296875 
Q 21.4375 32.03125 27.484375 32.03125 
Q 33.59375 32.03125 37.515625 36.296875 
Q 41.453125 40.578125 41.453125 48.140625 
z
" id="ArialMT-57"/>
      </defs>
      <use xlink:href="#ArialMT-48"/>
      <use x="55.615234" xlink:href="#ArialMT-46"/>
      <use x="83.398438" xlink:href="#ArialMT-49"/>
      <use x="139.013672" xlink:href="#ArialMT-45"/>
      <use x="172.314453" xlink:href="#ArialMT-49"/>
      <use x="227.929688" xlink:href="#ArialMT-46"/>
      <use x="255.712891" xlink:href="#ArialMT-49"/>
      <use x="311.328125" xlink:href="#ArialMT-57"/>
      <use x="366.943359" xlink:href="#ArialMT-32"/>
      <use x="394.726562" xlink:href="#ArialMT-37"/>
     </g>
    </g>
   </g>
  </g>
 </g>
 <defs>
  <clipPath id="p8967b34e03">
   <rect height="190.26" width="55.8" x="9" y="30.24"/>
  </clipPath>
 </defs>
</svg>
