<?xml version="1.0" encoding="utf-8" standalone="no"?>
<!DOCTYPE svg PUBLIC "-//W3C//DTD SVG 1.1//EN"
  "http://www.w3.org/Graphics/SVG/1.1/DTD/svg11.dtd">
<!-- Created with matplotlib (https://matplotlib.org/) -->
<svg height="288pt" version="1.1" viewBox="0 0 108 288" width="108pt" xmlns="http://www.w3.org/2000/svg" xmlns:xlink="http://www.w3.org/1999/xlink">
 <metadata>
  <rdf:RDF xmlns:cc="http://creativecommons.org/ns#" xmlns:dc="http://purl.org/dc/elements/1.1/" xmlns:rdf="http://www.w3.org/1999/02/22-rdf-syntax-ns#">
   <cc:Work>
    <dc:type rdf:resource="http://purl.org/dc/dcmitype/StillImage"/>
    <dc:date>2022-06-07T15:40:41.428788</dc:date>
    <dc:format>image/svg+xml</dc:format>
    <dc:creator>
     <cc:Agent>
      <dc:title>Matplotlib v3.3.4, https://matplotlib.org/</dc:title>
     </cc:Agent>
    </dc:creator>
   </cc:Work>
  </rdf:RDF>
 </metadata>
 <defs>
  <style type="text/css">*{stroke-linecap:butt;stroke-linejoin:round;}</style>
 </defs>
 <g id="figure_1">
  <g id="patch_1">
   <path d="M 0 288 
L 108 288 
L 108 0 
L 0 0 
z
" style="fill:none;"/>
  </g>
  <g id="axes_1">
   <g id="patch_2">
    <path d="M 13.5 252 
L 97.2 252 
L 97.2 34.56 
L 13.5 34.56 
z
" style="fill:#ffffff;"/>
   </g>
   <g id="matplotlib.axis_1">
    <g id="ytick_1">
     <g id="line2d_1">
      <defs>
       <path d="M 0 0 
L -3.5 0 
" id="m707f179033" style="stroke:#000000;stroke-width:0.8;"/>
      </defs>
      <g>
       <use style="stroke:#000000;stroke-width:0.8;" x="13.5" xlink:href="#m707f179033" y="197.64"/>
      </g>
     </g>
     <g id="text_1">
      <!-- 0 -->
      <g transform="translate(0.939062 201.218906)scale(0.1 -0.1)">
       <defs>
        <path d="M 4.15625 35.296875 
Q 4.15625 48 6.765625 55.734375 
Q 9.375 63.484375 14.515625 67.671875 
Q 19.671875 71.875 27.484375 71.875 
Q 33.25 71.875 37.59375 69.546875 
Q 41.9375 67.234375 44.765625 62.859375 
Q 47.609375 58.5 49.21875 52.21875 
Q 50.828125 45.953125 50.828125 35.296875 
Q 50.828125 22.703125 48.234375 14.96875 
Q 45.65625 7.234375 40.5 3 
Q 35.359375 -1.21875 27.484375 -1.21875 
Q 17.140625 -1.21875 11.234375 6.203125 
Q 4.15625 15.140625 4.15625 35.296875 
z
M 13.1875 35.296875 
Q 13.1875 17.671875 17.3125 11.828125 
Q 21.4375 6 27.484375 6 
Q 33.546875 6 37.671875 11.859375 
Q 41.796875 17.71875 41.796875 35.296875 
Q 41.796875 52.984375 37.671875 58.78125 
Q 33.546875 64.59375 27.390625 64.59375 
Q 21.34375 64.59375 17.71875 59.46875 
Q 13.1875 52.9375 13.1875 35.296875 
z
" id="ArialMT-48"/>
       </defs>
       <use xlink:href="#ArialMT-48"/>
      </g>
     </g>
    </g>
    <g id="ytick_2">
     <g id="line2d_2">
      <g>
       <use style="stroke:#000000;stroke-width:0.8;" x="13.5" xlink:href="#m707f179033" y="88.92"/>
      </g>
     </g>
     <g id="text_2">
      <!-- 1 -->
      <g transform="translate(0.939062 92.498906)scale(0.1 -0.1)">
       <defs>
        <path d="M 37.25 0 
L 28.46875 0 
L 28.46875 56 
Q 25.296875 52.984375 20.140625 49.953125 
Q 14.984375 46.921875 10.890625 45.40625 
L 10.890625 53.90625 
Q 18.265625 57.375 23.78125 62.296875 
Q 29.296875 67.234375 31.59375 71.875 
L 37.25 71.875 
z
" id="ArialMT-49"/>
       </defs>
       <use xlink:href="#ArialMT-49"/>
      </g>
     </g>
    </g>
   </g>
   <g id="line2d_3">
    <path clip-path="url(#p69b70adbaa)" d="M 17.397989 252 
L 17.421613 249.803636 
L 17.450589 247.607273 
L 17.485963 245.410909 
L 17.528951 243.214545 
L 17.580949 241.018182 
L 17.643552 238.821818 
L 17.718571 236.625455 
L 17.808048 234.429091 
L 17.914267 232.232727 
L 18.039764 230.036364 
L 18.187333 227.84 
L 18.360029 225.643636 
L 18.56116 223.447273 
L 18.794275 221.250909 
L 19.06315 219.054545 
L 19.371753 216.858182 
L 19.72421 214.661818 
L 20.124755 212.465455 
L 20.577672 210.269091 
L 21.087223 208.072727 
L 21.657569 205.876364 
L 22.292677 203.68 
L 22.996218 201.483636 
L 23.771461 199.287273 
L 24.621149 197.090909 
L 25.547389 194.894545 
L 26.551523 192.698182 
L 27.634007 190.501818 
L 28.794299 188.305455 
L 30.030751 186.109091 
L 31.340511 183.912727 
L 32.71945 181.716364 
L 34.162099 179.52 
L 35.661617 177.323636 
L 37.209787 175.127273 
L 38.797031 172.930909 
L 40.412474 170.734545 
L 42.044024 168.538182 
L 43.678499 166.341818 
L 45.301778 164.145455 
L 46.898986 161.949091 
L 48.454709 159.752727 
L 49.953231 157.556364 
L 51.378789 155.36 
L 52.715849 153.163636 
L 53.949381 150.967273 
L 55.065138 148.770909 
L 56.049931 146.574545 
L 56.891888 144.378182 
L 57.580688 142.181818 
L 58.107777 139.985455 
L 58.46654 137.789091 
L 58.652443 135.592727 
L 58.663125 133.396364 
L 58.49845 131.2 
L 58.160511 129.003636 
L 57.653581 126.807273 
L 56.984029 124.610909 
L 56.160181 122.414545 
L 55.192154 120.218182 
L 54.091645 118.021818 
L 52.871694 115.825455 
L 51.546436 113.629091 
L 50.130818 111.432727 
L 48.64033 109.236364 
L 47.090721 107.04 
L 45.497727 104.843636 
L 43.876812 102.647273 
L 42.242927 100.450909 
L 40.610296 98.254545 
L 38.992226 96.058182 
L 37.400945 93.861818 
L 35.847486 91.665455 
L 34.341584 89.469091 
L 32.891625 87.272727 
L 31.504619 85.076364 
L 30.186198 82.88 
L 28.940654 80.683636 
L 27.770988 78.487273 
L 26.67899 76.290909 
L 25.665334 74.094545 
L 24.729675 71.898182 
L 23.870775 69.701818 
L 23.086613 67.505455 
L 22.374517 65.309091 
L 21.731275 63.112727 
L 21.15326 60.916364 
L 20.636534 58.72 
L 20.176956 56.523636 
L 19.77027 54.327273 
L 19.412193 52.130909 
L 19.098479 49.934545 
L 18.824988 47.738182 
L 18.587729 45.541818 
L 18.382903 43.345455 
L 18.206931 41.149091 
L 18.056474 38.952727 
L 17.928447 36.756364 
L 17.820024 34.56 
" style="fill:none;stroke:#1e90ff;stroke-linecap:square;stroke-width:1.5;"/>
   </g>
   <g id="patch_3">
    <path d="M 13.5 252 
L 13.5 34.56 
" style="fill:none;stroke:#000000;stroke-linecap:square;stroke-linejoin:miter;stroke-width:0.8;"/>
   </g>
   <g id="line2d_4">
    <path clip-path="url(#p69b70adbaa)" d="M 17.304546 252 
L 17.304546 249.803636 
L 17.304546 247.607273 
L 17.304547 245.410909 
L 17.304548 243.214545 
L 17.30455 241.018182 
L 17.304553 238.821818 
L 17.304559 236.625455 
L 17.304569 234.429091 
L 17.304586 232.232727 
L 17.304615 230.036364 
L 17.304663 227.84 
L 17.304743 225.643636 
L 17.304872 223.447273 
L 17.30508 221.250909 
L 17.305413 219.054545 
L 17.305938 216.858182 
L 17.306757 214.661818 
L 17.308024 212.465455 
L 17.30996 210.269091 
L 17.312889 208.072727 
L 17.317271 205.876364 
L 17.323758 203.68 
L 17.333257 201.483636 
L 17.347018 199.287273 
L 17.366735 197.090909 
L 17.394682 194.894545 
L 17.433861 192.698182 
L 17.488187 190.501818 
L 17.562688 188.305455 
L 17.66373 186.109091 
L 17.799248 183.912727 
L 17.97898 181.716364 
L 18.214677 179.52 
L 18.520276 177.323636 
L 18.912002 175.127273 
L 19.408373 172.930909 
L 20.030068 170.734545 
L 20.799637 168.538182 
L 21.741 166.341818 
L 22.878744 164.145455 
L 24.237171 161.949091 
L 25.83912 159.752727 
L 27.704583 157.556364 
L 29.849145 155.36 
L 32.282331 153.163636 
L 35.005931 150.967273 
L 38.012432 148.770909 
L 41.283663 146.574545 
L 44.789782 144.378182 
L 48.488748 142.181818 
L 52.326363 139.985455 
L 56.236983 137.789091 
L 60.144932 135.592727 
L 63.966621 133.396364 
L 67.613303 131.2 
L 70.994373 129.003636 
L 74.02103 126.807273 
L 76.610113 124.610909 
L 78.687885 122.414545 
L 80.193508 120.218182 
L 81.082007 118.021818 
L 81.326496 115.825455 
L 80.919533 113.629091 
L 79.873496 111.432727 
L 78.219955 109.236364 
L 76.008093 107.04 
L 73.302272 104.843636 
L 70.17893 102.647273 
L 66.722996 100.450909 
L 63.02408 98.254545 
L 59.172655 96.058182 
L 55.256468 93.861818 
L 51.357366 91.665455 
L 47.548688 89.469091 
L 43.89332 87.272727 
L 40.442463 85.076364 
L 37.235086 82.88 
L 34.298042 80.683636 
L 31.64673 78.487273 
L 29.286199 76.290909 
L 27.21257 74.094545 
L 25.414646 71.898182 
L 23.875589 69.701818 
L 22.574553 67.505455 
L 21.488212 65.309091 
L 20.592091 63.112727 
L 19.86169 60.916364 
L 19.273373 58.72 
L 18.805022 56.523636 
L 18.436475 54.327273 
L 18.149782 52.130909 
L 17.929296 49.934545 
L 17.761637 47.738182 
L 17.635577 45.541818 
L 17.541849 43.345455 
L 17.472932 41.149091 
L 17.422817 38.952727 
L 17.386774 36.756364 
L 17.361134 34.56 
" style="fill:none;stroke:#808080;stroke-linecap:square;stroke-width:1.5;"/>
   </g>
   <g id="line2d_5">
    <path clip-path="url(#p69b70adbaa)" d="M 17.304545 252 
L 17.304545 249.803636 
L 17.304545 247.607273 
L 17.304545 245.410909 
L 17.304545 243.214545 
L 17.304545 241.018182 
L 17.304546 238.821818 
L 17.304546 236.625455 
L 17.304546 234.429091 
L 17.304546 232.232727 
L 17.304547 230.036364 
L 17.304549 227.84 
L 17.304552 225.643636 
L 17.304559 223.447273 
L 17.304571 221.250909 
L 17.304594 219.054545 
L 17.304637 216.858182 
L 17.304716 214.661818 
L 17.304858 212.465455 
L 17.305111 210.269091 
L 17.305552 208.072727 
L 17.306313 205.876364 
L 17.307603 203.68 
L 17.309759 201.483636 
L 17.313308 199.287273 
L 17.319062 197.090909 
L 17.328249 194.894545 
L 17.342694 192.698182 
L 17.365062 190.501818 
L 17.399169 188.305455 
L 17.450375 186.109091 
L 17.526066 183.912727 
L 17.636217 181.716364 
L 17.794016 179.52 
L 18.016527 177.323636 
L 18.325332 175.127273 
L 18.747076 172.930909 
L 19.313819 170.734545 
L 20.063073 168.538182 
L 21.037387 166.341818 
L 22.283358 164.145455 
L 23.849944 161.949091 
L 25.786002 159.752727 
L 28.137049 157.556364 
L 30.941308 155.36 
L 34.225223 153.163636 
L 37.998728 150.967273 
L 42.250655 148.770909 
L 46.944766 146.574545 
L 52.0169 144.378182 
L 57.373753 142.181818 
L 62.893694 139.985455 
L 68.42989 137.789091 
L 73.815814 135.592727 
L 78.87295 133.396364 
L 83.420275 131.2 
L 87.284834 129.003636 
L 90.312587 126.807273 
L 92.378573 124.610909 
L 93.395455 122.414545 
L 93.319645 120.218182 
L 92.154409 118.021818 
L 89.949623 115.825455 
L 86.798242 113.629091 
L 82.829795 111.432727 
L 78.201558 109.236364 
L 73.088248 107.04 
L 67.671156 104.843636 
L 62.127673 102.647273 
L 56.622021 100.450909 
L 51.297831 98.254545 
L 46.272958 96.058182 
L 41.636685 93.861818 
L 37.449205 91.665455 
L 33.743099 89.469091 
L 30.526368 87.272727 
L 27.78652 85.076364 
L 25.495205 82.88 
L 23.612938 80.683636 
L 22.093521 78.487273 
L 20.887906 76.290909 
L 19.947335 74.094545 
L 19.225683 71.898182 
L 18.681053 69.701818 
L 18.276672 67.505455 
L 17.981237 65.309091 
L 17.768829 63.112727 
L 17.618523 60.916364 
L 17.513831 58.72 
L 17.442046 56.523636 
L 17.393587 54.327273 
L 17.361379 52.130909 
L 17.340301 49.934545 
L 17.326717 47.738182 
L 17.318097 45.541818 
L 17.312709 43.345455 
L 17.309393 41.149091 
L 17.307383 38.952727 
L 17.306182 36.756364 
L 17.305476 34.56 
" style="fill:none;stroke:#cc78bc;stroke-linecap:square;stroke-width:1.5;"/>
   </g>
   <g id="PathCollection_1">
    <defs>
     <path d="M 0 -3.535534 
L -0.793777 -1.09254 
L -3.362493 -1.09254 
L -1.284358 0.417313 
L -2.078135 2.860307 
L -0 1.350454 
L 2.078135 2.860307 
L 1.284358 0.417313 
L 3.362493 -1.09254 
L 0.793777 -1.09254 
z
" id="m4599544353" style="stroke:#029e73;"/>
    </defs>
    <g clip-path="url(#p69b70adbaa)">
     <use style="fill:#029e73;stroke:#029e73;" x="93.395455" xlink:href="#m4599544353" y="122.414545"/>
    </g>
   </g>
   <g id="legend_1">
    <g id="patch_4">
     <path d="M 20.5 247 
L 97.53125 247 
Q 99.53125 247 99.53125 245 
L 99.53125 189.41875 
Q 99.53125 187.41875 97.53125 187.41875 
L 20.5 187.41875 
Q 18.5 187.41875 18.5 189.41875 
L 18.5 245 
Q 18.5 247 20.5 247 
z
" style="fill:#ffffff;opacity:0.8;stroke:#cccccc;stroke-linejoin:miter;"/>
    </g>
    <g id="line2d_6">
     <path d="M 22.5 195.076562 
L 42.5 195.076562 
" style="fill:none;stroke:#1e90ff;stroke-linecap:square;stroke-width:1.5;"/>
    </g>
    <g id="line2d_7"/>
    <g id="text_3">
     <!-- Prior -->
     <g transform="translate(50.5 198.576562)scale(0.1 -0.1)">
      <defs>
       <path d="M 7.71875 0 
L 7.71875 71.578125 
L 34.71875 71.578125 
Q 41.84375 71.578125 45.609375 70.90625 
Q 50.875 70.015625 54.4375 67.546875 
Q 58.015625 65.09375 60.1875 60.640625 
Q 62.359375 56.203125 62.359375 50.875 
Q 62.359375 41.75 56.546875 35.421875 
Q 50.734375 29.109375 35.546875 29.109375 
L 17.1875 29.109375 
L 17.1875 0 
z
M 17.1875 37.546875 
L 35.6875 37.546875 
Q 44.875 37.546875 48.734375 40.96875 
Q 52.59375 44.390625 52.59375 50.59375 
Q 52.59375 55.078125 50.3125 58.265625 
Q 48.046875 61.46875 44.34375 62.5 
Q 41.9375 63.140625 35.5 63.140625 
L 17.1875 63.140625 
z
" id="ArialMT-80"/>
       <path d="M 6.5 0 
L 6.5 51.859375 
L 14.40625 51.859375 
L 14.40625 44 
Q 17.4375 49.515625 20 51.265625 
Q 22.5625 53.03125 25.640625 53.03125 
Q 30.078125 53.03125 34.671875 50.203125 
L 31.640625 42.046875 
Q 28.421875 43.953125 25.203125 43.953125 
Q 22.3125 43.953125 20.015625 42.21875 
Q 17.71875 40.484375 16.75 37.40625 
Q 15.28125 32.71875 15.28125 27.15625 
L 15.28125 0 
z
" id="ArialMT-114"/>
       <path d="M 6.640625 61.46875 
L 6.640625 71.578125 
L 15.4375 71.578125 
L 15.4375 61.46875 
z
M 6.640625 0 
L 6.640625 51.859375 
L 15.4375 51.859375 
L 15.4375 0 
z
" id="ArialMT-105"/>
       <path d="M 3.328125 25.921875 
Q 3.328125 40.328125 11.328125 47.265625 
Q 18.015625 53.03125 27.640625 53.03125 
Q 38.328125 53.03125 45.109375 46.015625 
Q 51.90625 39.015625 51.90625 26.65625 
Q 51.90625 16.65625 48.90625 10.90625 
Q 45.90625 5.171875 40.15625 2 
Q 34.421875 -1.171875 27.640625 -1.171875 
Q 16.75 -1.171875 10.03125 5.8125 
Q 3.328125 12.796875 3.328125 25.921875 
z
M 12.359375 25.921875 
Q 12.359375 15.96875 16.703125 11.015625 
Q 21.046875 6.0625 27.640625 6.0625 
Q 34.1875 6.0625 38.53125 11.03125 
Q 42.875 16.015625 42.875 26.21875 
Q 42.875 35.84375 38.5 40.796875 
Q 34.125 45.75 27.640625 45.75 
Q 21.046875 45.75 16.703125 40.8125 
Q 12.359375 35.890625 12.359375 25.921875 
z
" id="ArialMT-111"/>
      </defs>
      <use xlink:href="#ArialMT-80"/>
      <use x="66.699219" xlink:href="#ArialMT-114"/>
      <use x="100" xlink:href="#ArialMT-105"/>
      <use x="122.216797" xlink:href="#ArialMT-111"/>
      <use x="177.832031" xlink:href="#ArialMT-114"/>
     </g>
    </g>
    <g id="line2d_8">
     <path d="M 22.5 209.221875 
L 42.5 209.221875 
" style="fill:none;stroke:#808080;stroke-linecap:square;stroke-width:1.5;"/>
    </g>
    <g id="line2d_9"/>
    <g id="text_4">
     <!-- Likelihood -->
     <g transform="translate(50.5 212.721875)scale(0.1 -0.1)">
      <defs>
       <path d="M 7.328125 0 
L 7.328125 71.578125 
L 16.796875 71.578125 
L 16.796875 8.453125 
L 52.046875 8.453125 
L 52.046875 0 
z
" id="ArialMT-76"/>
       <path d="M 6.640625 0 
L 6.640625 71.578125 
L 15.4375 71.578125 
L 15.4375 30.765625 
L 36.234375 51.859375 
L 47.609375 51.859375 
L 27.78125 32.625 
L 49.609375 0 
L 38.765625 0 
L 21.625 26.515625 
L 15.4375 20.5625 
L 15.4375 0 
z
" id="ArialMT-107"/>
       <path d="M 42.09375 16.703125 
L 51.171875 15.578125 
Q 49.03125 7.625 43.21875 3.21875 
Q 37.40625 -1.171875 28.375 -1.171875 
Q 17 -1.171875 10.328125 5.828125 
Q 3.65625 12.84375 3.65625 25.484375 
Q 3.65625 38.578125 10.390625 45.796875 
Q 17.140625 53.03125 27.875 53.03125 
Q 38.28125 53.03125 44.875 45.953125 
Q 51.46875 38.875 51.46875 26.03125 
Q 51.46875 25.25 51.421875 23.6875 
L 12.75 23.6875 
Q 13.234375 15.140625 17.578125 10.59375 
Q 21.921875 6.0625 28.421875 6.0625 
Q 33.25 6.0625 36.671875 8.59375 
Q 40.09375 11.140625 42.09375 16.703125 
z
M 13.234375 30.90625 
L 42.1875 30.90625 
Q 41.609375 37.453125 38.875 40.71875 
Q 34.671875 45.796875 27.984375 45.796875 
Q 21.921875 45.796875 17.796875 41.75 
Q 13.671875 37.703125 13.234375 30.90625 
z
" id="ArialMT-101"/>
       <path d="M 6.390625 0 
L 6.390625 71.578125 
L 15.1875 71.578125 
L 15.1875 0 
z
" id="ArialMT-108"/>
       <path d="M 6.59375 0 
L 6.59375 71.578125 
L 15.375 71.578125 
L 15.375 45.90625 
Q 21.53125 53.03125 30.90625 53.03125 
Q 36.671875 53.03125 40.921875 50.75 
Q 45.171875 48.484375 47 44.484375 
Q 48.828125 40.484375 48.828125 32.859375 
L 48.828125 0 
L 40.046875 0 
L 40.046875 32.859375 
Q 40.046875 39.453125 37.1875 42.453125 
Q 34.328125 45.453125 29.109375 45.453125 
Q 25.203125 45.453125 21.75 43.421875 
Q 18.3125 41.40625 16.84375 37.9375 
Q 15.375 34.46875 15.375 28.375 
L 15.375 0 
z
" id="ArialMT-104"/>
       <path d="M 40.234375 0 
L 40.234375 6.546875 
Q 35.296875 -1.171875 25.734375 -1.171875 
Q 19.53125 -1.171875 14.328125 2.25 
Q 9.125 5.671875 6.265625 11.796875 
Q 3.421875 17.921875 3.421875 25.875 
Q 3.421875 33.640625 6 39.96875 
Q 8.59375 46.296875 13.765625 49.65625 
Q 18.953125 53.03125 25.34375 53.03125 
Q 30.03125 53.03125 33.6875 51.046875 
Q 37.359375 49.078125 39.65625 45.90625 
L 39.65625 71.578125 
L 48.390625 71.578125 
L 48.390625 0 
z
M 12.453125 25.875 
Q 12.453125 15.921875 16.640625 10.984375 
Q 20.84375 6.0625 26.5625 6.0625 
Q 32.328125 6.0625 36.34375 10.765625 
Q 40.375 15.484375 40.375 25.140625 
Q 40.375 35.796875 36.265625 40.765625 
Q 32.171875 45.75 26.171875 45.75 
Q 20.3125 45.75 16.375 40.96875 
Q 12.453125 36.1875 12.453125 25.875 
z
" id="ArialMT-100"/>
      </defs>
      <use xlink:href="#ArialMT-76"/>
      <use x="55.615234" xlink:href="#ArialMT-105"/>
      <use x="77.832031" xlink:href="#ArialMT-107"/>
      <use x="127.832031" xlink:href="#ArialMT-101"/>
      <use x="183.447266" xlink:href="#ArialMT-108"/>
      <use x="205.664062" xlink:href="#ArialMT-105"/>
      <use x="227.880859" xlink:href="#ArialMT-104"/>
      <use x="283.496094" xlink:href="#ArialMT-111"/>
      <use x="339.111328" xlink:href="#ArialMT-111"/>
      <use x="394.726562" xlink:href="#ArialMT-100"/>
     </g>
    </g>
    <g id="line2d_10">
     <path d="M 22.5 223.367188 
L 42.5 223.367188 
" style="fill:none;stroke:#cc78bc;stroke-linecap:square;stroke-width:1.5;"/>
    </g>
    <g id="line2d_11"/>
    <g id="text_5">
     <!-- Posterior -->
     <g transform="translate(50.5 226.867188)scale(0.1 -0.1)">
      <defs>
       <path d="M 3.078125 15.484375 
L 11.765625 16.84375 
Q 12.5 11.625 15.84375 8.84375 
Q 19.1875 6.0625 25.203125 6.0625 
Q 31.25 6.0625 34.171875 8.515625 
Q 37.109375 10.984375 37.109375 14.3125 
Q 37.109375 17.28125 34.515625 19 
Q 32.71875 20.171875 25.53125 21.96875 
Q 15.875 24.421875 12.140625 26.203125 
Q 8.40625 27.984375 6.46875 31.125 
Q 4.546875 34.28125 4.546875 38.09375 
Q 4.546875 41.546875 6.125 44.5 
Q 7.71875 47.46875 10.453125 49.421875 
Q 12.5 50.921875 16.03125 51.96875 
Q 19.578125 53.03125 23.640625 53.03125 
Q 29.734375 53.03125 34.34375 51.265625 
Q 38.96875 49.515625 41.15625 46.5 
Q 43.359375 43.5 44.1875 38.484375 
L 35.59375 37.3125 
Q 35.015625 41.3125 32.203125 43.546875 
Q 29.390625 45.796875 24.265625 45.796875 
Q 18.21875 45.796875 15.625 43.796875 
Q 13.03125 41.796875 13.03125 39.109375 
Q 13.03125 37.40625 14.109375 36.03125 
Q 15.1875 34.625 17.484375 33.6875 
Q 18.796875 33.203125 25.25 31.453125 
Q 34.578125 28.953125 38.25 27.359375 
Q 41.9375 25.78125 44.03125 22.75 
Q 46.140625 19.734375 46.140625 15.234375 
Q 46.140625 10.84375 43.578125 6.953125 
Q 41.015625 3.078125 36.171875 0.953125 
Q 31.34375 -1.171875 25.25 -1.171875 
Q 15.140625 -1.171875 9.84375 3.03125 
Q 4.546875 7.234375 3.078125 15.484375 
z
" id="ArialMT-115"/>
       <path d="M 25.78125 7.859375 
L 27.046875 0.09375 
Q 23.34375 -0.6875 20.40625 -0.6875 
Q 15.625 -0.6875 12.984375 0.828125 
Q 10.359375 2.34375 9.28125 4.8125 
Q 8.203125 7.28125 8.203125 15.1875 
L 8.203125 45.015625 
L 1.765625 45.015625 
L 1.765625 51.859375 
L 8.203125 51.859375 
L 8.203125 64.703125 
L 16.9375 69.96875 
L 16.9375 51.859375 
L 25.78125 51.859375 
L 25.78125 45.015625 
L 16.9375 45.015625 
L 16.9375 14.703125 
Q 16.9375 10.9375 17.40625 9.859375 
Q 17.875 8.796875 18.921875 8.15625 
Q 19.96875 7.515625 21.921875 7.515625 
Q 23.390625 7.515625 25.78125 7.859375 
z
" id="ArialMT-116"/>
      </defs>
      <use xlink:href="#ArialMT-80"/>
      <use x="66.699219" xlink:href="#ArialMT-111"/>
      <use x="122.314453" xlink:href="#ArialMT-115"/>
      <use x="172.314453" xlink:href="#ArialMT-116"/>
      <use x="200.097656" xlink:href="#ArialMT-101"/>
      <use x="255.712891" xlink:href="#ArialMT-114"/>
      <use x="289.013672" xlink:href="#ArialMT-105"/>
      <use x="311.230469" xlink:href="#ArialMT-111"/>
      <use x="366.845703" xlink:href="#ArialMT-114"/>
     </g>
    </g>
    <g id="PathCollection_2">
     <g>
      <use style="fill:#029e73;stroke:#029e73;" x="32.5" xlink:href="#m4599544353" y="238.3875"/>
     </g>
    </g>
    <g id="text_6">
     <!-- Estimate -->
     <g transform="translate(50.5 241.0125)scale(0.1 -0.1)">
      <defs>
       <path d="M 7.90625 0 
L 7.90625 71.578125 
L 59.671875 71.578125 
L 59.671875 63.140625 
L 17.390625 63.140625 
L 17.390625 41.21875 
L 56.984375 41.21875 
L 56.984375 32.8125 
L 17.390625 32.8125 
L 17.390625 8.453125 
L 61.328125 8.453125 
L 61.328125 0 
z
" id="ArialMT-69"/>
       <path d="M 6.59375 0 
L 6.59375 51.859375 
L 14.453125 51.859375 
L 14.453125 44.578125 
Q 16.890625 48.390625 20.9375 50.703125 
Q 25 53.03125 30.171875 53.03125 
Q 35.9375 53.03125 39.625 50.640625 
Q 43.3125 48.25 44.828125 43.953125 
Q 50.984375 53.03125 60.84375 53.03125 
Q 68.5625 53.03125 72.703125 48.75 
Q 76.859375 44.484375 76.859375 35.59375 
L 76.859375 0 
L 68.109375 0 
L 68.109375 32.671875 
Q 68.109375 37.9375 67.25 40.25 
Q 66.40625 42.578125 64.15625 43.984375 
Q 61.921875 45.40625 58.890625 45.40625 
Q 53.421875 45.40625 49.796875 41.765625 
Q 46.1875 38.140625 46.1875 30.125 
L 46.1875 0 
L 37.40625 0 
L 37.40625 33.6875 
Q 37.40625 39.546875 35.25 42.46875 
Q 33.109375 45.40625 28.21875 45.40625 
Q 24.515625 45.40625 21.359375 43.453125 
Q 18.21875 41.5 16.796875 37.734375 
Q 15.375 33.984375 15.375 26.90625 
L 15.375 0 
z
" id="ArialMT-109"/>
       <path d="M 40.4375 6.390625 
Q 35.546875 2.25 31.03125 0.53125 
Q 26.515625 -1.171875 21.34375 -1.171875 
Q 12.796875 -1.171875 8.203125 3 
Q 3.609375 7.171875 3.609375 13.671875 
Q 3.609375 17.484375 5.34375 20.625 
Q 7.078125 23.78125 9.890625 25.6875 
Q 12.703125 27.59375 16.21875 28.5625 
Q 18.796875 29.25 24.03125 29.890625 
Q 34.671875 31.15625 39.703125 32.90625 
Q 39.75 34.71875 39.75 35.203125 
Q 39.75 40.578125 37.25 42.78125 
Q 33.890625 45.75 27.25 45.75 
Q 21.046875 45.75 18.09375 43.578125 
Q 15.140625 41.40625 13.71875 35.890625 
L 5.125 37.0625 
Q 6.296875 42.578125 8.984375 45.96875 
Q 11.671875 49.359375 16.75 51.1875 
Q 21.828125 53.03125 28.515625 53.03125 
Q 35.15625 53.03125 39.296875 51.46875 
Q 43.453125 49.90625 45.40625 47.53125 
Q 47.359375 45.171875 48.140625 41.546875 
Q 48.578125 39.3125 48.578125 33.453125 
L 48.578125 21.734375 
Q 48.578125 9.46875 49.140625 6.21875 
Q 49.703125 2.984375 51.375 0 
L 42.1875 0 
Q 40.828125 2.734375 40.4375 6.390625 
z
M 39.703125 26.03125 
Q 34.90625 24.078125 25.34375 22.703125 
Q 19.921875 21.921875 17.671875 20.9375 
Q 15.4375 19.96875 14.203125 18.09375 
Q 12.984375 16.21875 12.984375 13.921875 
Q 12.984375 10.40625 15.640625 8.0625 
Q 18.3125 5.71875 23.4375 5.71875 
Q 28.515625 5.71875 32.46875 7.9375 
Q 36.421875 10.15625 38.28125 14.015625 
Q 39.703125 17 39.703125 22.796875 
z
" id="ArialMT-97"/>
      </defs>
      <use xlink:href="#ArialMT-69"/>
      <use x="66.699219" xlink:href="#ArialMT-115"/>
      <use x="116.699219" xlink:href="#ArialMT-116"/>
      <use x="144.482422" xlink:href="#ArialMT-105"/>
      <use x="166.699219" xlink:href="#ArialMT-109"/>
      <use x="250" xlink:href="#ArialMT-97"/>
      <use x="305.615234" xlink:href="#ArialMT-116"/>
      <use x="333.398438" xlink:href="#ArialMT-101"/>
     </g>
    </g>
   </g>
  </g>
 </g>
 <defs>
  <clipPath id="p69b70adbaa">
   <rect height="217.44" width="83.7" x="13.5" y="34.56"/>
  </clipPath>
 </defs>
</svg>
