<?xml version="1.0" encoding="utf-8" standalone="no"?>
<!DOCTYPE svg PUBLIC "-//W3C//DTD SVG 1.1//EN"
  "http://www.w3.org/Graphics/SVG/1.1/DTD/svg11.dtd">
<!-- Created with matplotlib (https://matplotlib.org/) -->
<svg height="288pt" version="1.1" viewBox="0 0 108 288" width="108pt" xmlns="http://www.w3.org/2000/svg" xmlns:xlink="http://www.w3.org/1999/xlink">
 <metadata>
  <rdf:RDF xmlns:cc="http://creativecommons.org/ns#" xmlns:dc="http://purl.org/dc/elements/1.1/" xmlns:rdf="http://www.w3.org/1999/02/22-rdf-syntax-ns#">
   <cc:Work>
    <dc:type rdf:resource="http://purl.org/dc/dcmitype/StillImage"/>
    <dc:date>2022-06-07T15:40:41.691290</dc:date>
    <dc:format>image/svg+xml</dc:format>
    <dc:creator>
     <cc:Agent>
      <dc:title>Matplotlib v3.3.4, https://matplotlib.org/</dc:title>
     </cc:Agent>
    </dc:creator>
   </cc:Work>
  </rdf:RDF>
 </metadata>
 <defs>
  <style type="text/css">*{stroke-linecap:butt;stroke-linejoin:round;}</style>
 </defs>
 <g id="figure_1">
  <g id="patch_1">
   <path d="M 0 288 
L 108 288 
L 108 0 
L 0 0 
z
" style="fill:none;"/>
  </g>
  <g id="axes_1">
   <g id="patch_2">
    <path d="M 13.5 252 
L 97.2 252 
L 97.2 34.56 
L 13.5 34.56 
z
" style="fill:#ffffff;"/>
   </g>
   <g id="matplotlib.axis_1">
    <g id="ytick_1">
     <g id="line2d_1">
      <defs>
       <path d="M 0 0 
L -3.5 0 
" id="m30597d5250" style="stroke:#000000;stroke-width:0.8;"/>
      </defs>
      <g>
       <use style="stroke:#000000;stroke-width:0.8;" x="13.5" xlink:href="#m30597d5250" y="197.64"/>
      </g>
     </g>
     <g id="text_1">
      <!-- 0 -->
      <g transform="translate(0.939062 201.218906)scale(0.1 -0.1)">
       <defs>
        <path d="M 4.15625 35.296875 
Q 4.15625 48 6.765625 55.734375 
Q 9.375 63.484375 14.515625 67.671875 
Q 19.671875 71.875 27.484375 71.875 
Q 33.25 71.875 37.59375 69.546875 
Q 41.9375 67.234375 44.765625 62.859375 
Q 47.609375 58.5 49.21875 52.21875 
Q 50.828125 45.953125 50.828125 35.296875 
Q 50.828125 22.703125 48.234375 14.96875 
Q 45.65625 7.234375 40.5 3 
Q 35.359375 -1.21875 27.484375 -1.21875 
Q 17.140625 -1.21875 11.234375 6.203125 
Q 4.15625 15.140625 4.15625 35.296875 
z
M 13.1875 35.296875 
Q 13.1875 17.671875 17.3125 11.828125 
Q 21.4375 6 27.484375 6 
Q 33.546875 6 37.671875 11.859375 
Q 41.796875 17.71875 41.796875 35.296875 
Q 41.796875 52.984375 37.671875 58.78125 
Q 33.546875 64.59375 27.390625 64.59375 
Q 21.34375 64.59375 17.71875 59.46875 
Q 13.1875 52.9375 13.1875 35.296875 
z
" id="ArialMT-48"/>
       </defs>
       <use xlink:href="#ArialMT-48"/>
      </g>
     </g>
    </g>
    <g id="ytick_2">
     <g id="line2d_2">
      <g>
       <use style="stroke:#000000;stroke-width:0.8;" x="13.5" xlink:href="#m30597d5250" y="88.92"/>
      </g>
     </g>
     <g id="text_2">
      <!-- 1 -->
      <g transform="translate(0.939062 92.498906)scale(0.1 -0.1)">
       <defs>
        <path d="M 37.25 0 
L 28.46875 0 
L 28.46875 56 
Q 25.296875 52.984375 20.140625 49.953125 
Q 14.984375 46.921875 10.890625 45.40625 
L 10.890625 53.90625 
Q 18.265625 57.375 23.78125 62.296875 
Q 29.296875 67.234375 31.59375 71.875 
L 37.25 71.875 
z
" id="ArialMT-49"/>
       </defs>
       <use xlink:href="#ArialMT-49"/>
      </g>
     </g>
    </g>
   </g>
   <g id="line2d_3">
    <path clip-path="url(#p3879ce309d)" d="M 19.423941 252 
L 19.730455 249.803636 
L 20.072299 247.607273 
L 20.45208 245.410909 
L 20.872372 243.214545 
L 21.33568 241.018182 
L 21.844391 238.821818 
L 22.40073 236.625455 
L 23.006705 234.429091 
L 23.664058 232.232727 
L 24.374206 230.036364 
L 25.138184 227.84 
L 25.956589 225.643636 
L 26.829527 223.447273 
L 27.756555 221.250909 
L 28.736637 219.054545 
L 29.768097 216.858182 
L 30.848584 214.661818 
L 31.975041 212.465455 
L 33.143686 210.269091 
L 34.350003 208.072727 
L 35.588746 205.876364 
L 36.853949 203.68 
L 38.138959 201.483636 
L 39.436475 199.287273 
L 40.738605 197.090909 
L 42.03693 194.894545 
L 43.322593 192.698182 
L 44.586385 190.501818 
L 45.818853 188.305455 
L 47.010413 186.109091 
L 48.151471 183.912727 
L 49.23255 181.716364 
L 50.244416 179.52 
L 51.178215 177.323636 
L 52.025594 175.127273 
L 52.77883 172.930909 
L 53.430947 170.734545 
L 53.97582 168.538182 
L 54.408272 166.341818 
L 54.724158 164.145455 
L 54.92043 161.949091 
L 54.995185 159.752727 
L 54.947697 157.556364 
L 54.778427 155.36 
L 54.489017 153.163636 
L 54.082264 150.967273 
L 53.562073 148.770909 
L 52.933397 146.574545 
L 52.202157 144.378182 
L 51.375148 142.181818 
L 50.459936 139.985455 
L 49.464745 137.789091 
L 48.398327 135.592727 
L 47.269843 133.396364 
L 46.088726 131.2 
L 44.864557 129.003636 
L 43.606931 126.807273 
L 42.325342 124.610909 
L 41.029061 122.414545 
L 39.727034 120.218182 
L 38.427784 118.021818 
L 37.139327 115.825455 
L 35.869102 113.629091 
L 34.623911 111.432727 
L 33.409875 109.236364 
L 32.232403 107.04 
L 31.096175 104.843636 
L 30.005136 102.647273 
L 28.962503 100.450909 
L 27.970784 98.254545 
L 27.031801 96.058182 
L 26.14673 93.861818 
L 25.316143 91.665455 
L 24.54005 89.469091 
L 23.817962 87.272727 
L 23.148933 85.076364 
L 22.531629 82.88 
L 21.964376 80.683636 
L 21.44522 78.487273 
L 20.971979 76.290909 
L 20.542298 74.094545 
L 20.153695 71.898182 
L 19.803608 69.701818 
L 19.489433 67.505455 
L 19.208565 65.309091 
L 18.958426 63.112727 
L 18.736492 60.916364 
L 18.540322 58.72 
L 18.36757 56.523636 
L 18.216003 54.327273 
L 18.083515 52.130909 
L 17.968127 49.934545 
L 17.868 47.738182 
L 17.78143 45.541818 
L 17.706853 43.345455 
L 17.642838 41.149091 
L 17.588088 38.952727 
L 17.541428 36.756364 
L 17.501805 34.56 
" style="fill:none;stroke:#1e90ff;stroke-linecap:square;stroke-width:1.5;"/>
   </g>
   <g id="patch_3">
    <path d="M 13.5 252 
L 13.5 34.56 
" style="fill:none;stroke:#000000;stroke-linecap:square;stroke-linejoin:miter;stroke-width:0.8;"/>
   </g>
   <g id="line2d_4">
    <path clip-path="url(#p3879ce309d)" d="M 17.304546 252 
L 17.304546 249.803636 
L 17.304546 247.607273 
L 17.304547 245.410909 
L 17.304548 243.214545 
L 17.30455 241.018182 
L 17.304553 238.821818 
L 17.30456 236.625455 
L 17.30457 234.429091 
L 17.304588 232.232727 
L 17.304618 230.036364 
L 17.304668 227.84 
L 17.30475 225.643636 
L 17.304883 223.447273 
L 17.305099 221.250909 
L 17.305443 219.054545 
L 17.305987 216.858182 
L 17.306835 214.661818 
L 17.308146 212.465455 
L 17.310151 210.269091 
L 17.313183 208.072727 
L 17.31772 205.876364 
L 17.324435 203.68 
L 17.33427 201.483636 
L 17.348515 199.287273 
L 17.368928 197.090909 
L 17.39786 194.894545 
L 17.438421 192.698182 
L 17.494663 190.501818 
L 17.571791 188.305455 
L 17.676395 186.109091 
L 17.816692 183.912727 
L 18.002761 181.716364 
L 18.246769 179.52 
L 18.563143 177.323636 
L 18.968682 175.127273 
L 19.482556 172.930909 
L 20.126173 170.734545 
L 20.922877 168.538182 
L 21.897433 166.341818 
L 23.075295 164.145455 
L 24.481621 161.949091 
L 26.140057 159.752727 
L 28.071298 157.556364 
L 30.291479 155.36 
L 32.810461 153.163636 
L 35.630097 150.967273 
L 38.742611 148.770909 
L 42.129188 146.574545 
L 45.758937 144.378182 
L 49.588331 142.181818 
L 53.561264 139.985455 
L 57.609776 137.789091 
L 61.655523 135.592727 
L 65.611968 133.396364 
L 69.387235 131.2 
L 72.887525 129.003636 
L 76.020904 126.807273 
L 78.701281 124.610909 
L 80.852317 122.414545 
L 82.41103 120.218182 
L 83.330858 118.021818 
L 83.583968 115.825455 
L 83.162655 113.629091 
L 82.079734 111.432727 
L 80.367888 109.236364 
L 78.078033 107.04 
L 75.276802 104.843636 
L 72.043328 102.647273 
L 68.465535 100.450909 
L 64.636192 98.254545 
L 60.648963 96.058182 
L 56.594687 93.861818 
L 52.558099 91.665455 
L 48.615124 89.469091 
L 44.830865 87.272727 
L 41.258326 85.076364 
L 37.937855 82.88 
L 34.897248 80.683636 
L 32.152449 78.487273 
L 29.708683 76.290909 
L 27.561936 74.094545 
L 25.700616 71.898182 
L 24.107289 69.701818 
L 22.760378 67.505455 
L 21.635732 65.309091 
L 20.708013 63.112727 
L 19.951858 60.916364 
L 19.342796 58.72 
L 18.85793 56.523636 
L 18.476388 54.327273 
L 18.179586 52.130909 
L 17.951325 49.934545 
L 17.777754 47.738182 
L 17.647249 45.541818 
L 17.550216 43.345455 
L 17.478869 41.149091 
L 17.426987 38.952727 
L 17.389673 36.756364 
L 17.36313 34.56 
" style="fill:none;stroke:#808080;stroke-linecap:square;stroke-width:1.5;"/>
   </g>
   <g id="line2d_5">
    <path clip-path="url(#p3879ce309d)" d="M 17.304545 252 
L 17.304545 249.803636 
L 17.304546 247.607273 
L 17.304546 245.410909 
L 17.304546 243.214545 
L 17.304546 241.018182 
L 17.304547 238.821818 
L 17.304549 236.625455 
L 17.304552 234.429091 
L 17.304559 232.232727 
L 17.304571 230.036364 
L 17.304593 227.84 
L 17.304633 225.643636 
L 17.304704 223.447273 
L 17.304831 221.250909 
L 17.305051 219.054545 
L 17.30543 216.858182 
L 17.306073 214.661818 
L 17.307148 212.465455 
L 17.30892 210.269091 
L 17.311799 208.072727 
L 17.316414 205.876364 
L 17.323703 203.68 
L 17.335057 201.483636 
L 17.352491 199.287273 
L 17.378881 197.090909 
L 17.418254 194.894545 
L 17.47616 192.698182 
L 17.560094 190.501818 
L 17.679995 188.305455 
L 17.848783 186.109091 
L 18.082913 183.912727 
L 18.402893 181.716364 
L 18.83371 179.52 
L 19.40507 177.323636 
L 20.151368 175.127273 
L 21.111275 172.930909 
L 22.326848 170.734545 
L 23.842062 168.538182 
L 25.700728 166.341818 
L 27.943772 164.145455 
L 30.605945 161.949091 
L 33.712095 159.752727 
L 37.273219 157.556364 
L 41.282593 155.36 
L 45.712341 153.163636 
L 50.510836 150.967273 
L 55.601329 148.770909 
L 60.88215 146.574545 
L 66.228721 144.378182 
L 71.497494 142.181818 
L 76.53174 139.985455 
L 81.168919 137.789091 
L 85.249194 135.592727 
L 88.624486 133.396364 
L 91.16735 131.2 
L 92.778956 129.003636 
L 93.395455 126.807273 
L 92.992179 124.610909 
L 91.585281 122.414545 
L 89.230655 120.218182 
L 86.020258 118.021818 
L 82.07615 115.825455 
L 77.542798 113.629091 
L 72.578327 111.432727 
L 67.345445 109.236364 
L 62.002757 107.04 
L 56.697114 104.843636 
L 51.557462 102.647273 
L 46.690509 100.450909 
L 42.178304 98.254545 
L 38.077679 96.058182 
L 34.421311 93.861818 
L 31.2201 91.665455 
L 28.466454 89.469091 
L 26.1381 87.272727 
L 24.202044 85.076364 
L 22.618366 82.88 
L 21.343614 80.683636 
L 20.333653 78.487273 
L 19.545883 76.290909 
L 18.940831 74.094545 
L 18.483155 71.898182 
L 18.142151 69.701818 
L 17.891857 67.505455 
L 17.710855 65.309091 
L 17.58188 63.112727 
L 17.491317 60.916364 
L 17.428647 58.72 
L 17.385903 56.523636 
L 17.357169 54.327273 
L 17.338129 52.130909 
L 17.325691 49.934545 
L 17.317682 47.738182 
L 17.312598 45.541818 
L 17.309415 43.345455 
L 17.307451 41.149091 
L 17.306256 38.952727 
L 17.305539 36.756364 
L 17.305115 34.56 
" style="fill:none;stroke:#cc78bc;stroke-linecap:square;stroke-width:1.5;"/>
   </g>
   <g id="PathCollection_1">
    <defs>
     <path d="M 0 -3.535534 
L -0.793777 -1.09254 
L -3.362493 -1.09254 
L -1.284358 0.417313 
L -2.078135 2.860307 
L -0 1.350454 
L 2.078135 2.860307 
L 1.284358 0.417313 
L 3.362493 -1.09254 
L 0.793777 -1.09254 
z
" id="m06320e9338" style="stroke:#029e73;"/>
    </defs>
    <g clip-path="url(#p3879ce309d)">
     <use style="fill:#029e73;stroke:#029e73;" x="93.395455" xlink:href="#m06320e9338" y="126.807273"/>
    </g>
   </g>
   <g id="legend_1">
    <g id="patch_4">
     <path d="M 20.5 247 
L 97.53125 247 
Q 99.53125 247 99.53125 245 
L 99.53125 189.41875 
Q 99.53125 187.41875 97.53125 187.41875 
L 20.5 187.41875 
Q 18.5 187.41875 18.5 189.41875 
L 18.5 245 
Q 18.5 247 20.5 247 
z
" style="fill:#ffffff;opacity:0.8;stroke:#cccccc;stroke-linejoin:miter;"/>
    </g>
    <g id="line2d_6">
     <path d="M 22.5 195.076562 
L 42.5 195.076562 
" style="fill:none;stroke:#1e90ff;stroke-linecap:square;stroke-width:1.5;"/>
    </g>
    <g id="line2d_7"/>
    <g id="text_3">
     <!-- Prior -->
     <g transform="translate(50.5 198.576562)scale(0.1 -0.1)">
      <defs>
       <path d="M 7.71875 0 
L 7.71875 71.578125 
L 34.71875 71.578125 
Q 41.84375 71.578125 45.609375 70.90625 
Q 50.875 70.015625 54.4375 67.546875 
Q 58.015625 65.09375 60.1875 60.640625 
Q 62.359375 56.203125 62.359375 50.875 
Q 62.359375 41.75 56.546875 35.421875 
Q 50.734375 29.109375 35.546875 29.109375 
L 17.1875 29.109375 
L 17.1875 0 
z
M 17.1875 37.546875 
L 35.6875 37.546875 
Q 44.875 37.546875 48.734375 40.96875 
Q 52.59375 44.390625 52.59375 50.59375 
Q 52.59375 55.078125 50.3125 58.265625 
Q 48.046875 61.46875 44.34375 62.5 
Q 41.9375 63.140625 35.5 63.140625 
L 17.1875 63.140625 
z
" id="ArialMT-80"/>
       <path d="M 6.5 0 
L 6.5 51.859375 
L 14.40625 51.859375 
L 14.40625 44 
Q 17.4375 49.515625 20 51.265625 
Q 22.5625 53.03125 25.640625 53.03125 
Q 30.078125 53.03125 34.671875 50.203125 
L 31.640625 42.046875 
Q 28.421875 43.953125 25.203125 43.953125 
Q 22.3125 43.953125 20.015625 42.21875 
Q 17.71875 40.484375 16.75 37.40625 
Q 15.28125 32.71875 15.28125 27.15625 
L 15.28125 0 
z
" id="ArialMT-114"/>
       <path d="M 6.640625 61.46875 
L 6.640625 71.578125 
L 15.4375 71.578125 
L 15.4375 61.46875 
z
M 6.640625 0 
L 6.640625 51.859375 
L 15.4375 51.859375 
L 15.4375 0 
z
" id="ArialMT-105"/>
       <path d="M 3.328125 25.921875 
Q 3.328125 40.328125 11.328125 47.265625 
Q 18.015625 53.03125 27.640625 53.03125 
Q 38.328125 53.03125 45.109375 46.015625 
Q 51.90625 39.015625 51.90625 26.65625 
Q 51.90625 16.65625 48.90625 10.90625 
Q 45.90625 5.171875 40.15625 2 
Q 34.421875 -1.171875 27.640625 -1.171875 
Q 16.75 -1.171875 10.03125 5.8125 
Q 3.328125 12.796875 3.328125 25.921875 
z
M 12.359375 25.921875 
Q 12.359375 15.96875 16.703125 11.015625 
Q 21.046875 6.0625 27.640625 6.0625 
Q 34.1875 6.0625 38.53125 11.03125 
Q 42.875 16.015625 42.875 26.21875 
Q 42.875 35.84375 38.5 40.796875 
Q 34.125 45.75 27.640625 45.75 
Q 21.046875 45.75 16.703125 40.8125 
Q 12.359375 35.890625 12.359375 25.921875 
z
" id="ArialMT-111"/>
      </defs>
      <use xlink:href="#ArialMT-80"/>
      <use x="66.699219" xlink:href="#ArialMT-114"/>
      <use x="100" xlink:href="#ArialMT-105"/>
      <use x="122.216797" xlink:href="#ArialMT-111"/>
      <use x="177.832031" xlink:href="#ArialMT-114"/>
     </g>
    </g>
    <g id="line2d_8">
     <path d="M 22.5 209.221875 
L 42.5 209.221875 
" style="fill:none;stroke:#808080;stroke-linecap:square;stroke-width:1.5;"/>
    </g>
    <g id="line2d_9"/>
    <g id="text_4">
     <!-- Likelihood -->
     <g transform="translate(50.5 212.721875)scale(0.1 -0.1)">
      <defs>
       <path d="M 7.328125 0 
L 7.328125 71.578125 
L 16.796875 71.578125 
L 16.796875 8.453125 
L 52.046875 8.453125 
L 52.046875 0 
z
" id="ArialMT-76"/>
       <path d="M 6.640625 0 
L 6.640625 71.578125 
L 15.4375 71.578125 
L 15.4375 30.765625 
L 36.234375 51.859375 
L 47.609375 51.859375 
L 27.78125 32.625 
L 49.609375 0 
L 38.765625 0 
L 21.625 26.515625 
L 15.4375 20.5625 
L 15.4375 0 
z
" id="ArialMT-107"/>
       <path d="M 42.09375 16.703125 
L 51.171875 15.578125 
Q 49.03125 7.625 43.21875 3.21875 
Q 37.40625 -1.171875 28.375 -1.171875 
Q 17 -1.171875 10.328125 5.828125 
Q 3.65625 12.84375 3.65625 25.484375 
Q 3.65625 38.578125 10.390625 45.796875 
Q 17.140625 53.03125 27.875 53.03125 
Q 38.28125 53.03125 44.875 45.953125 
Q 51.46875 38.875 51.46875 26.03125 
Q 51.46875 25.25 51.421875 23.6875 
L 12.75 23.6875 
Q 13.234375 15.140625 17.578125 10.59375 
Q 21.921875 6.0625 28.421875 6.0625 
Q 33.25 6.0625 36.671875 8.59375 
Q 40.09375 11.140625 42.09375 16.703125 
z
M 13.234375 30.90625 
L 42.1875 30.90625 
Q 41.609375 37.453125 38.875 40.71875 
Q 34.671875 45.796875 27.984375 45.796875 
Q 21.921875 45.796875 17.796875 41.75 
Q 13.671875 37.703125 13.234375 30.90625 
z
" id="ArialMT-101"/>
       <path d="M 6.390625 0 
L 6.390625 71.578125 
L 15.1875 71.578125 
L 15.1875 0 
z
" id="ArialMT-108"/>
       <path d="M 6.59375 0 
L 6.59375 71.578125 
L 15.375 71.578125 
L 15.375 45.90625 
Q 21.53125 53.03125 30.90625 53.03125 
Q 36.671875 53.03125 40.921875 50.75 
Q 45.171875 48.484375 47 44.484375 
Q 48.828125 40.484375 48.828125 32.859375 
L 48.828125 0 
L 40.046875 0 
L 40.046875 32.859375 
Q 40.046875 39.453125 37.1875 42.453125 
Q 34.328125 45.453125 29.109375 45.453125 
Q 25.203125 45.453125 21.75 43.421875 
Q 18.3125 41.40625 16.84375 37.9375 
Q 15.375 34.46875 15.375 28.375 
L 15.375 0 
z
" id="ArialMT-104"/>
       <path d="M 40.234375 0 
L 40.234375 6.546875 
Q 35.296875 -1.171875 25.734375 -1.171875 
Q 19.53125 -1.171875 14.328125 2.25 
Q 9.125 5.671875 6.265625 11.796875 
Q 3.421875 17.921875 3.421875 25.875 
Q 3.421875 33.640625 6 39.96875 
Q 8.59375 46.296875 13.765625 49.65625 
Q 18.953125 53.03125 25.34375 53.03125 
Q 30.03125 53.03125 33.6875 51.046875 
Q 37.359375 49.078125 39.65625 45.90625 
L 39.65625 71.578125 
L 48.390625 71.578125 
L 48.390625 0 
z
M 12.453125 25.875 
Q 12.453125 15.921875 16.640625 10.984375 
Q 20.84375 6.0625 26.5625 6.0625 
Q 32.328125 6.0625 36.34375 10.765625 
Q 40.375 15.484375 40.375 25.140625 
Q 40.375 35.796875 36.265625 40.765625 
Q 32.171875 45.75 26.171875 45.75 
Q 20.3125 45.75 16.375 40.96875 
Q 12.453125 36.1875 12.453125 25.875 
z
" id="ArialMT-100"/>
      </defs>
      <use xlink:href="#ArialMT-76"/>
      <use x="55.615234" xlink:href="#ArialMT-105"/>
      <use x="77.832031" xlink:href="#ArialMT-107"/>
      <use x="127.832031" xlink:href="#ArialMT-101"/>
      <use x="183.447266" xlink:href="#ArialMT-108"/>
      <use x="205.664062" xlink:href="#ArialMT-105"/>
      <use x="227.880859" xlink:href="#ArialMT-104"/>
      <use x="283.496094" xlink:href="#ArialMT-111"/>
      <use x="339.111328" xlink:href="#ArialMT-111"/>
      <use x="394.726562" xlink:href="#ArialMT-100"/>
     </g>
    </g>
    <g id="line2d_10">
     <path d="M 22.5 223.367188 
L 42.5 223.367188 
" style="fill:none;stroke:#cc78bc;stroke-linecap:square;stroke-width:1.5;"/>
    </g>
    <g id="line2d_11"/>
    <g id="text_5">
     <!-- Posterior -->
     <g transform="translate(50.5 226.867188)scale(0.1 -0.1)">
      <defs>
       <path d="M 3.078125 15.484375 
L 11.765625 16.84375 
Q 12.5 11.625 15.84375 8.84375 
Q 19.1875 6.0625 25.203125 6.0625 
Q 31.25 6.0625 34.171875 8.515625 
Q 37.109375 10.984375 37.109375 14.3125 
Q 37.109375 17.28125 34.515625 19 
Q 32.71875 20.171875 25.53125 21.96875 
Q 15.875 24.421875 12.140625 26.203125 
Q 8.40625 27.984375 6.46875 31.125 
Q 4.546875 34.28125 4.546875 38.09375 
Q 4.546875 41.546875 6.125 44.5 
Q 7.71875 47.46875 10.453125 49.421875 
Q 12.5 50.921875 16.03125 51.96875 
Q 19.578125 53.03125 23.640625 53.03125 
Q 29.734375 53.03125 34.34375 51.265625 
Q 38.96875 49.515625 41.15625 46.5 
Q 43.359375 43.5 44.1875 38.484375 
L 35.59375 37.3125 
Q 35.015625 41.3125 32.203125 43.546875 
Q 29.390625 45.796875 24.265625 45.796875 
Q 18.21875 45.796875 15.625 43.796875 
Q 13.03125 41.796875 13.03125 39.109375 
Q 13.03125 37.40625 14.109375 36.03125 
Q 15.1875 34.625 17.484375 33.6875 
Q 18.796875 33.203125 25.25 31.453125 
Q 34.578125 28.953125 38.25 27.359375 
Q 41.9375 25.78125 44.03125 22.75 
Q 46.140625 19.734375 46.140625 15.234375 
Q 46.140625 10.84375 43.578125 6.953125 
Q 41.015625 3.078125 36.171875 0.953125 
Q 31.34375 -1.171875 25.25 -1.171875 
Q 15.140625 -1.171875 9.84375 3.03125 
Q 4.546875 7.234375 3.078125 15.484375 
z
" id="ArialMT-115"/>
       <path d="M 25.78125 7.859375 
L 27.046875 0.09375 
Q 23.34375 -0.6875 20.40625 -0.6875 
Q 15.625 -0.6875 12.984375 0.828125 
Q 10.359375 2.34375 9.28125 4.8125 
Q 8.203125 7.28125 8.203125 15.1875 
L 8.203125 45.015625 
L 1.765625 45.015625 
L 1.765625 51.859375 
L 8.203125 51.859375 
L 8.203125 64.703125 
L 16.9375 69.96875 
L 16.9375 51.859375 
L 25.78125 51.859375 
L 25.78125 45.015625 
L 16.9375 45.015625 
L 16.9375 14.703125 
Q 16.9375 10.9375 17.40625 9.859375 
Q 17.875 8.796875 18.921875 8.15625 
Q 19.96875 7.515625 21.921875 7.515625 
Q 23.390625 7.515625 25.78125 7.859375 
z
" id="ArialMT-116"/>
      </defs>
      <use xlink:href="#ArialMT-80"/>
      <use x="66.699219" xlink:href="#ArialMT-111"/>
      <use x="122.314453" xlink:href="#ArialMT-115"/>
      <use x="172.314453" xlink:href="#ArialMT-116"/>
      <use x="200.097656" xlink:href="#ArialMT-101"/>
      <use x="255.712891" xlink:href="#ArialMT-114"/>
      <use x="289.013672" xlink:href="#ArialMT-105"/>
      <use x="311.230469" xlink:href="#ArialMT-111"/>
      <use x="366.845703" xlink:href="#ArialMT-114"/>
     </g>
    </g>
    <g id="PathCollection_2">
     <g>
      <use style="fill:#029e73;stroke:#029e73;" x="32.5" xlink:href="#m06320e9338" y="238.3875"/>
     </g>
    </g>
    <g id="text_6">
     <!-- Estimate -->
     <g transform="translate(50.5 241.0125)scale(0.1 -0.1)">
      <defs>
       <path d="M 7.90625 0 
L 7.90625 71.578125 
L 59.671875 71.578125 
L 59.671875 63.140625 
L 17.390625 63.140625 
L 17.390625 41.21875 
L 56.984375 41.21875 
L 56.984375 32.8125 
L 17.390625 32.8125 
L 17.390625 8.453125 
L 61.328125 8.453125 
L 61.328125 0 
z
" id="ArialMT-69"/>
       <path d="M 6.59375 0 
L 6.59375 51.859375 
L 14.453125 51.859375 
L 14.453125 44.578125 
Q 16.890625 48.390625 20.9375 50.703125 
Q 25 53.03125 30.171875 53.03125 
Q 35.9375 53.03125 39.625 50.640625 
Q 43.3125 48.25 44.828125 43.953125 
Q 50.984375 53.03125 60.84375 53.03125 
Q 68.5625 53.03125 72.703125 48.75 
Q 76.859375 44.484375 76.859375 35.59375 
L 76.859375 0 
L 68.109375 0 
L 68.109375 32.671875 
Q 68.109375 37.9375 67.25 40.25 
Q 66.40625 42.578125 64.15625 43.984375 
Q 61.921875 45.40625 58.890625 45.40625 
Q 53.421875 45.40625 49.796875 41.765625 
Q 46.1875 38.140625 46.1875 30.125 
L 46.1875 0 
L 37.40625 0 
L 37.40625 33.6875 
Q 37.40625 39.546875 35.25 42.46875 
Q 33.109375 45.40625 28.21875 45.40625 
Q 24.515625 45.40625 21.359375 43.453125 
Q 18.21875 41.5 16.796875 37.734375 
Q 15.375 33.984375 15.375 26.90625 
L 15.375 0 
z
" id="ArialMT-109"/>
       <path d="M 40.4375 6.390625 
Q 35.546875 2.25 31.03125 0.53125 
Q 26.515625 -1.171875 21.34375 -1.171875 
Q 12.796875 -1.171875 8.203125 3 
Q 3.609375 7.171875 3.609375 13.671875 
Q 3.609375 17.484375 5.34375 20.625 
Q 7.078125 23.78125 9.890625 25.6875 
Q 12.703125 27.59375 16.21875 28.5625 
Q 18.796875 29.25 24.03125 29.890625 
Q 34.671875 31.15625 39.703125 32.90625 
Q 39.75 34.71875 39.75 35.203125 
Q 39.75 40.578125 37.25 42.78125 
Q 33.890625 45.75 27.25 45.75 
Q 21.046875 45.75 18.09375 43.578125 
Q 15.140625 41.40625 13.71875 35.890625 
L 5.125 37.0625 
Q 6.296875 42.578125 8.984375 45.96875 
Q 11.671875 49.359375 16.75 51.1875 
Q 21.828125 53.03125 28.515625 53.03125 
Q 35.15625 53.03125 39.296875 51.46875 
Q 43.453125 49.90625 45.40625 47.53125 
Q 47.359375 45.171875 48.140625 41.546875 
Q 48.578125 39.3125 48.578125 33.453125 
L 48.578125 21.734375 
Q 48.578125 9.46875 49.140625 6.21875 
Q 49.703125 2.984375 51.375 0 
L 42.1875 0 
Q 40.828125 2.734375 40.4375 6.390625 
z
M 39.703125 26.03125 
Q 34.90625 24.078125 25.34375 22.703125 
Q 19.921875 21.921875 17.671875 20.9375 
Q 15.4375 19.96875 14.203125 18.09375 
Q 12.984375 16.21875 12.984375 13.921875 
Q 12.984375 10.40625 15.640625 8.0625 
Q 18.3125 5.71875 23.4375 5.71875 
Q 28.515625 5.71875 32.46875 7.9375 
Q 36.421875 10.15625 38.28125 14.015625 
Q 39.703125 17 39.703125 22.796875 
z
" id="ArialMT-97"/>
      </defs>
      <use xlink:href="#ArialMT-69"/>
      <use x="66.699219" xlink:href="#ArialMT-115"/>
      <use x="116.699219" xlink:href="#ArialMT-116"/>
      <use x="144.482422" xlink:href="#ArialMT-105"/>
      <use x="166.699219" xlink:href="#ArialMT-109"/>
      <use x="250" xlink:href="#ArialMT-97"/>
      <use x="305.615234" xlink:href="#ArialMT-116"/>
      <use x="333.398438" xlink:href="#ArialMT-101"/>
     </g>
    </g>
   </g>
  </g>
 </g>
 <defs>
  <clipPath id="p3879ce309d">
   <rect height="217.44" width="83.7" x="13.5" y="34.56"/>
  </clipPath>
 </defs>
</svg>
