<?xml version="1.0" encoding="utf-8" standalone="no"?>
<!DOCTYPE svg PUBLIC "-//W3C//DTD SVG 1.1//EN"
  "http://www.w3.org/Graphics/SVG/1.1/DTD/svg11.dtd">
<!-- Created with matplotlib (https://matplotlib.org/) -->
<svg height="252pt" version="1.1" viewBox="0 0 72 252" width="72pt" xmlns="http://www.w3.org/2000/svg" xmlns:xlink="http://www.w3.org/1999/xlink">
 <metadata>
  <rdf:RDF xmlns:cc="http://creativecommons.org/ns#" xmlns:dc="http://purl.org/dc/elements/1.1/" xmlns:rdf="http://www.w3.org/1999/02/22-rdf-syntax-ns#">
   <cc:Work>
    <dc:type rdf:resource="http://purl.org/dc/dcmitype/StillImage"/>
    <dc:date>2022-06-07T15:40:41.937872</dc:date>
    <dc:format>image/svg+xml</dc:format>
    <dc:creator>
     <cc:Agent>
      <dc:title>Matplotlib v3.3.4, https://matplotlib.org/</dc:title>
     </cc:Agent>
    </dc:creator>
   </cc:Work>
  </rdf:RDF>
 </metadata>
 <defs>
  <style type="text/css">*{stroke-linecap:butt;stroke-linejoin:round;}</style>
 </defs>
 <g id="figure_1">
  <g id="patch_1">
   <path d="M 0 252 
L 72 252 
L 72 0 
L 0 0 
z
" style="fill:none;"/>
  </g>
  <g id="axes_1">
   <g id="patch_2">
    <path d="M 9 220.5 
L 64.8 220.5 
L 64.8 30.24 
L 9 30.24 
z
" style="fill:#ffffff;"/>
   </g>
   <g id="matplotlib.axis_1">
    <g id="ytick_1">
     <g id="line2d_1">
      <defs>
       <path d="M 0 0 
L -3.5 0 
" id="m16a1df15a1" style="stroke:#000000;stroke-width:0.8;"/>
      </defs>
      <g>
       <use style="stroke:#000000;stroke-width:0.8;" x="9" xlink:href="#m16a1df15a1" y="172.935"/>
      </g>
     </g>
    </g>
    <g id="ytick_2">
     <g id="line2d_2">
      <g>
       <use style="stroke:#000000;stroke-width:0.8;" x="9" xlink:href="#m16a1df15a1" y="77.805"/>
      </g>
     </g>
    </g>
   </g>
   <g id="line2d_3">
    <path clip-path="url(#pbb9b126d7e)" d="M 13.755042 220.5 
L 14.104609 218.578182 
L 14.495964 216.656364 
L 14.932378 214.734545 
L 15.417106 212.812727 
L 15.953341 210.890909 
L 16.544162 208.969091 
L 17.192468 207.047273 
L 17.900923 205.125455 
L 18.671881 203.203636 
L 19.507318 201.281818 
L 20.408759 199.36 
L 21.377205 197.438182 
L 22.413061 195.516364 
L 23.516064 193.594545 
L 24.685219 191.672727 
L 25.91874 189.750909 
L 27.213998 187.829091 
L 28.56748 185.907273 
L 29.974757 183.985455 
L 31.430471 182.063636 
L 32.92833 180.141818 
L 34.461121 178.22 
L 36.020745 176.298182 
L 37.598263 174.376364 
L 39.183963 172.454545 
L 40.767443 170.532727 
L 42.337713 168.610909 
L 43.883314 166.689091 
L 45.392444 164.767273 
L 46.85311 162.845455 
L 48.253276 160.923636 
L 49.581028 159.001818 
L 50.824741 157.08 
L 51.973247 155.158182 
L 53.015997 153.236364 
L 53.94323 151.314545 
L 54.746117 149.392727 
L 55.416904 147.470909 
L 55.94904 145.549091 
L 56.337275 143.627273 
L 56.577754 141.705455 
L 56.66808 139.783636 
L 56.607347 137.861818 
L 56.396165 135.94 
L 56.03664 134.018182 
L 55.532347 132.096364 
L 54.888267 130.174545 
L 54.110705 128.252727 
L 53.207188 126.330909 
L 52.186344 124.409091 
L 51.057765 122.487273 
L 49.831855 120.565455 
L 48.519675 118.643636 
L 47.132775 116.721818 
L 45.683024 114.8 
L 44.182447 112.878182 
L 42.643058 110.956364 
L 41.076709 109.034545 
L 39.494937 107.112727 
L 37.908832 105.190909 
L 36.328921 103.269091 
L 34.765059 101.347273 
L 33.226341 99.425455 
L 31.721037 97.503636 
L 30.256535 95.581818 
L 28.839309 93.66 
L 27.474902 91.738182 
L 26.167923 89.816364 
L 24.922063 87.894545 
L 23.740122 85.972727 
L 22.624047 84.050909 
L 21.574983 82.129091 
L 20.593332 80.207273 
L 19.678815 78.285455 
L 18.830542 76.363636 
L 18.047085 74.441818 
L 17.32655 72.52 
L 16.666652 70.598182 
L 16.064783 68.676364 
L 15.518083 66.754545 
L 15.023506 64.832727 
L 14.577875 62.910909 
L 14.177943 60.989091 
L 13.820439 59.067273 
L 13.502115 57.145455 
L 13.219777 55.223636 
L 12.970326 53.301818 
L 12.750777 51.38 
L 12.558283 49.458182 
L 12.390151 47.536364 
L 12.243852 45.614545 
L 12.117031 43.692727 
L 12.007504 41.770909 
L 11.913267 39.849091 
L 11.832486 37.927273 
L 11.763495 36.005455 
L 11.704791 34.083636 
L 11.655023 32.161818 
L 11.612985 30.24 
" style="fill:none;stroke:#000000;stroke-linecap:square;stroke-width:1.5;"/>
   </g>
   <g id="line2d_4">
    <path clip-path="url(#pbb9b126d7e)" d="M 11.536364 220.5 
L 11.567858 218.578182 
L 11.606387 216.656364 
L 11.653306 214.734545 
L 11.71018 212.812727 
L 11.778803 210.890909 
L 11.861218 208.969091 
L 11.959739 207.047273 
L 12.076964 205.125455 
L 12.215789 203.203636 
L 12.379422 201.281818 
L 12.571385 199.36 
L 12.795511 197.438182 
L 13.055939 195.516364 
L 13.357095 193.594545 
L 13.703664 191.672727 
L 14.100551 189.750909 
L 14.552832 187.829091 
L 15.065692 185.907273 
L 15.644346 183.985455 
L 16.293949 182.063636 
L 17.019496 180.141818 
L 17.825707 178.22 
L 18.716899 176.298182 
L 19.696849 174.376364 
L 20.768656 172.454545 
L 21.934591 170.532727 
L 23.195952 168.610909 
L 24.552916 166.689091 
L 26.004406 164.767273 
L 27.547963 162.845455 
L 29.179639 160.923636 
L 30.893907 159.001818 
L 32.683604 157.08 
L 34.539894 155.158182 
L 36.452274 153.236364 
L 38.40861 151.314545 
L 40.39522 149.392727 
L 42.396985 147.470909 
L 44.397512 145.549091 
L 46.379332 143.627273 
L 48.324129 141.705455 
L 50.213011 139.783636 
L 52.026804 137.861818 
L 53.746366 135.94 
L 55.352921 134.018182 
L 56.828395 132.096364 
L 58.155752 130.174545 
L 59.319322 128.252727 
L 60.305108 126.330909 
L 61.101064 124.409091 
L 61.697344 122.487273 
L 62.086499 120.565455 
L 62.263636 118.643636 
L 62.226521 116.721818 
L 61.975622 114.8 
L 61.514103 112.878182 
L 60.847754 110.956364 
L 59.984873 109.034545 
L 58.936095 107.112727 
L 57.714169 105.190909 
L 56.333705 103.269091 
L 54.810881 101.347273 
L 53.16313 99.425455 
L 51.408808 97.503636 
L 49.566854 95.581818 
L 47.65646 93.66 
L 45.696737 91.738182 
L 43.706408 89.816364 
L 41.703526 87.894545 
L 39.705212 85.972727 
L 37.727438 84.050909 
L 35.784842 82.129091 
L 33.890581 80.207273 
L 32.056233 78.285455 
L 30.291725 76.363636 
L 28.605312 74.441818 
L 27.003588 72.52 
L 25.491523 70.598182 
L 24.072539 68.676364 
L 22.748605 66.754545 
L 21.520347 64.832727 
L 20.387186 62.910909 
L 19.347469 60.989091 
L 18.398624 59.067273 
L 17.537299 57.145455 
L 16.759514 55.223636 
L 16.060799 53.301818 
L 15.436325 51.38 
L 14.881029 49.458182 
L 14.389723 47.536364 
L 13.957194 45.614545 
L 13.578288 43.692727 
L 13.24798 41.770909 
L 12.961436 39.849091 
L 12.714057 37.927273 
L 12.501515 36.005455 
L 12.319774 34.083636 
L 12.165109 32.161818 
L 12.034106 30.24 
" style="fill:none;stroke:#808080;stroke-dasharray:5.55,2.4;stroke-dashoffset:0;stroke-width:1.5;"/>
   </g>
   <g id="patch_3">
    <path d="M 9 220.5 
L 9 30.24 
" style="fill:none;stroke:#000000;stroke-linecap:square;stroke-linejoin:miter;stroke-width:0.8;"/>
   </g>
   <g id="legend_1">
    <g id="patch_4">
     <path d="M 16 66.824375 
L 140.285937 66.824375 
Q 142.285937 66.824375 142.285937 64.824375 
L 142.285937 37.24 
Q 142.285937 35.24 140.285937 35.24 
L 16 35.24 
Q 14 35.24 14 37.24 
L 14 64.824375 
Q 14 66.824375 16 66.824375 
z
" style="fill:#ffffff;opacity:0.8;stroke:#cccccc;stroke-linejoin:miter;"/>
    </g>
    <g id="line2d_5">
     <path d="M 18 42.9275 
L 38 42.9275 
" style="fill:none;stroke:#000000;stroke-linecap:square;stroke-width:1.5;"/>
    </g>
    <g id="line2d_6"/>
    <g id="text_1">
     <!-- 0.0-50.0 degrees -->
     <g transform="translate(46 46.4275)scale(0.1 -0.1)">
      <defs>
       <path d="M 4.15625 35.296875 
Q 4.15625 48 6.765625 55.734375 
Q 9.375 63.484375 14.515625 67.671875 
Q 19.671875 71.875 27.484375 71.875 
Q 33.25 71.875 37.59375 69.546875 
Q 41.9375 67.234375 44.765625 62.859375 
Q 47.609375 58.5 49.21875 52.21875 
Q 50.828125 45.953125 50.828125 35.296875 
Q 50.828125 22.703125 48.234375 14.96875 
Q 45.65625 7.234375 40.5 3 
Q 35.359375 -1.21875 27.484375 -1.21875 
Q 17.140625 -1.21875 11.234375 6.203125 
Q 4.15625 15.140625 4.15625 35.296875 
z
M 13.1875 35.296875 
Q 13.1875 17.671875 17.3125 11.828125 
Q 21.4375 6 27.484375 6 
Q 33.546875 6 37.671875 11.859375 
Q 41.796875 17.71875 41.796875 35.296875 
Q 41.796875 52.984375 37.671875 58.78125 
Q 33.546875 64.59375 27.390625 64.59375 
Q 21.34375 64.59375 17.71875 59.46875 
Q 13.1875 52.9375 13.1875 35.296875 
z
" id="ArialMT-48"/>
       <path d="M 9.078125 0 
L 9.078125 10.015625 
L 19.09375 10.015625 
L 19.09375 0 
z
" id="ArialMT-46"/>
       <path d="M 3.171875 21.484375 
L 3.171875 30.328125 
L 30.171875 30.328125 
L 30.171875 21.484375 
z
" id="ArialMT-45"/>
       <path d="M 4.15625 18.75 
L 13.375 19.53125 
Q 14.40625 12.796875 18.140625 9.390625 
Q 21.875 6 27.15625 6 
Q 33.5 6 37.890625 10.78125 
Q 42.28125 15.578125 42.28125 23.484375 
Q 42.28125 31 38.0625 35.34375 
Q 33.84375 39.703125 27 39.703125 
Q 22.75 39.703125 19.328125 37.765625 
Q 15.921875 35.84375 13.96875 32.765625 
L 5.71875 33.84375 
L 12.640625 70.609375 
L 48.25 70.609375 
L 48.25 62.203125 
L 19.671875 62.203125 
L 15.828125 42.96875 
Q 22.265625 47.46875 29.34375 47.46875 
Q 38.71875 47.46875 45.15625 40.96875 
Q 51.609375 34.46875 51.609375 24.265625 
Q 51.609375 14.546875 45.953125 7.46875 
Q 39.0625 -1.21875 27.15625 -1.21875 
Q 17.390625 -1.21875 11.203125 4.25 
Q 5.03125 9.71875 4.15625 18.75 
z
" id="ArialMT-53"/>
       <path id="ArialMT-32"/>
       <path d="M 40.234375 0 
L 40.234375 6.546875 
Q 35.296875 -1.171875 25.734375 -1.171875 
Q 19.53125 -1.171875 14.328125 2.25 
Q 9.125 5.671875 6.265625 11.796875 
Q 3.421875 17.921875 3.421875 25.875 
Q 3.421875 33.640625 6 39.96875 
Q 8.59375 46.296875 13.765625 49.65625 
Q 18.953125 53.03125 25.34375 53.03125 
Q 30.03125 53.03125 33.6875 51.046875 
Q 37.359375 49.078125 39.65625 45.90625 
L 39.65625 71.578125 
L 48.390625 71.578125 
L 48.390625 0 
z
M 12.453125 25.875 
Q 12.453125 15.921875 16.640625 10.984375 
Q 20.84375 6.0625 26.5625 6.0625 
Q 32.328125 6.0625 36.34375 10.765625 
Q 40.375 15.484375 40.375 25.140625 
Q 40.375 35.796875 36.265625 40.765625 
Q 32.171875 45.75 26.171875 45.75 
Q 20.3125 45.75 16.375 40.96875 
Q 12.453125 36.1875 12.453125 25.875 
z
" id="ArialMT-100"/>
       <path d="M 42.09375 16.703125 
L 51.171875 15.578125 
Q 49.03125 7.625 43.21875 3.21875 
Q 37.40625 -1.171875 28.375 -1.171875 
Q 17 -1.171875 10.328125 5.828125 
Q 3.65625 12.84375 3.65625 25.484375 
Q 3.65625 38.578125 10.390625 45.796875 
Q 17.140625 53.03125 27.875 53.03125 
Q 38.28125 53.03125 44.875 45.953125 
Q 51.46875 38.875 51.46875 26.03125 
Q 51.46875 25.25 51.421875 23.6875 
L 12.75 23.6875 
Q 13.234375 15.140625 17.578125 10.59375 
Q 21.921875 6.0625 28.421875 6.0625 
Q 33.25 6.0625 36.671875 8.59375 
Q 40.09375 11.140625 42.09375 16.703125 
z
M 13.234375 30.90625 
L 42.1875 30.90625 
Q 41.609375 37.453125 38.875 40.71875 
Q 34.671875 45.796875 27.984375 45.796875 
Q 21.921875 45.796875 17.796875 41.75 
Q 13.671875 37.703125 13.234375 30.90625 
z
" id="ArialMT-101"/>
       <path d="M 4.984375 -4.296875 
L 13.53125 -5.5625 
Q 14.0625 -9.515625 16.5 -11.328125 
Q 19.78125 -13.765625 25.4375 -13.765625 
Q 31.546875 -13.765625 34.859375 -11.328125 
Q 38.1875 -8.890625 39.359375 -4.5 
Q 40.046875 -1.8125 39.984375 6.78125 
Q 34.234375 0 25.640625 0 
Q 14.9375 0 9.078125 7.71875 
Q 3.21875 15.4375 3.21875 26.21875 
Q 3.21875 33.640625 5.90625 39.90625 
Q 8.59375 46.1875 13.6875 49.609375 
Q 18.796875 53.03125 25.6875 53.03125 
Q 34.859375 53.03125 40.828125 45.609375 
L 40.828125 51.859375 
L 48.921875 51.859375 
L 48.921875 7.03125 
Q 48.921875 -5.078125 46.453125 -10.125 
Q 44 -15.1875 38.640625 -18.109375 
Q 33.296875 -21.046875 25.484375 -21.046875 
Q 16.21875 -21.046875 10.5 -16.875 
Q 4.78125 -12.703125 4.984375 -4.296875 
z
M 12.25 26.859375 
Q 12.25 16.65625 16.296875 11.96875 
Q 20.359375 7.28125 26.46875 7.28125 
Q 32.515625 7.28125 36.609375 11.9375 
Q 40.71875 16.609375 40.71875 26.5625 
Q 40.71875 36.078125 36.5 40.90625 
Q 32.28125 45.75 26.3125 45.75 
Q 20.453125 45.75 16.34375 40.984375 
Q 12.25 36.234375 12.25 26.859375 
z
" id="ArialMT-103"/>
       <path d="M 6.5 0 
L 6.5 51.859375 
L 14.40625 51.859375 
L 14.40625 44 
Q 17.4375 49.515625 20 51.265625 
Q 22.5625 53.03125 25.640625 53.03125 
Q 30.078125 53.03125 34.671875 50.203125 
L 31.640625 42.046875 
Q 28.421875 43.953125 25.203125 43.953125 
Q 22.3125 43.953125 20.015625 42.21875 
Q 17.71875 40.484375 16.75 37.40625 
Q 15.28125 32.71875 15.28125 27.15625 
L 15.28125 0 
z
" id="ArialMT-114"/>
       <path d="M 3.078125 15.484375 
L 11.765625 16.84375 
Q 12.5 11.625 15.84375 8.84375 
Q 19.1875 6.0625 25.203125 6.0625 
Q 31.25 6.0625 34.171875 8.515625 
Q 37.109375 10.984375 37.109375 14.3125 
Q 37.109375 17.28125 34.515625 19 
Q 32.71875 20.171875 25.53125 21.96875 
Q 15.875 24.421875 12.140625 26.203125 
Q 8.40625 27.984375 6.46875 31.125 
Q 4.546875 34.28125 4.546875 38.09375 
Q 4.546875 41.546875 6.125 44.5 
Q 7.71875 47.46875 10.453125 49.421875 
Q 12.5 50.921875 16.03125 51.96875 
Q 19.578125 53.03125 23.640625 53.03125 
Q 29.734375 53.03125 34.34375 51.265625 
Q 38.96875 49.515625 41.15625 46.5 
Q 43.359375 43.5 44.1875 38.484375 
L 35.59375 37.3125 
Q 35.015625 41.3125 32.203125 43.546875 
Q 29.390625 45.796875 24.265625 45.796875 
Q 18.21875 45.796875 15.625 43.796875 
Q 13.03125 41.796875 13.03125 39.109375 
Q 13.03125 37.40625 14.109375 36.03125 
Q 15.1875 34.625 17.484375 33.6875 
Q 18.796875 33.203125 25.25 31.453125 
Q 34.578125 28.953125 38.25 27.359375 
Q 41.9375 25.78125 44.03125 22.75 
Q 46.140625 19.734375 46.140625 15.234375 
Q 46.140625 10.84375 43.578125 6.953125 
Q 41.015625 3.078125 36.171875 0.953125 
Q 31.34375 -1.171875 25.25 -1.171875 
Q 15.140625 -1.171875 9.84375 3.03125 
Q 4.546875 7.234375 3.078125 15.484375 
z
" id="ArialMT-115"/>
      </defs>
      <use xlink:href="#ArialMT-48"/>
      <use x="55.615234" xlink:href="#ArialMT-46"/>
      <use x="83.398438" xlink:href="#ArialMT-48"/>
      <use x="139.013672" xlink:href="#ArialMT-45"/>
      <use x="172.314453" xlink:href="#ArialMT-53"/>
      <use x="227.929688" xlink:href="#ArialMT-48"/>
      <use x="283.544922" xlink:href="#ArialMT-46"/>
      <use x="311.328125" xlink:href="#ArialMT-48"/>
      <use x="366.943359" xlink:href="#ArialMT-32"/>
      <use x="394.726562" xlink:href="#ArialMT-100"/>
      <use x="450.341797" xlink:href="#ArialMT-101"/>
      <use x="505.957031" xlink:href="#ArialMT-103"/>
      <use x="561.572266" xlink:href="#ArialMT-114"/>
      <use x="594.873047" xlink:href="#ArialMT-101"/>
      <use x="650.488281" xlink:href="#ArialMT-101"/>
      <use x="706.103516" xlink:href="#ArialMT-115"/>
     </g>
    </g>
    <g id="line2d_7">
     <path d="M 18 57.219688 
L 38 57.219688 
" style="fill:none;stroke:#808080;stroke-dasharray:5.55,2.4;stroke-dashoffset:0;stroke-width:1.5;"/>
    </g>
    <g id="line2d_8"/>
    <g id="text_2">
     <!-- 150.0-250.0 degrees -->
     <g transform="translate(46 60.719688)scale(0.1 -0.1)">
      <defs>
       <path d="M 37.25 0 
L 28.46875 0 
L 28.46875 56 
Q 25.296875 52.984375 20.140625 49.953125 
Q 14.984375 46.921875 10.890625 45.40625 
L 10.890625 53.90625 
Q 18.265625 57.375 23.78125 62.296875 
Q 29.296875 67.234375 31.59375 71.875 
L 37.25 71.875 
z
" id="ArialMT-49"/>
       <path d="M 50.34375 8.453125 
L 50.34375 0 
L 3.03125 0 
Q 2.9375 3.171875 4.046875 6.109375 
Q 5.859375 10.9375 9.828125 15.625 
Q 13.8125 20.3125 21.34375 26.46875 
Q 33.015625 36.03125 37.109375 41.625 
Q 41.21875 47.21875 41.21875 52.203125 
Q 41.21875 57.421875 37.46875 61 
Q 33.734375 64.59375 27.734375 64.59375 
Q 21.390625 64.59375 17.578125 60.78125 
Q 13.765625 56.984375 13.71875 50.25 
L 4.6875 51.171875 
Q 5.609375 61.28125 11.65625 66.578125 
Q 17.71875 71.875 27.9375 71.875 
Q 38.234375 71.875 44.234375 66.15625 
Q 50.25 60.453125 50.25 52 
Q 50.25 47.703125 48.484375 43.546875 
Q 46.734375 39.40625 42.65625 34.8125 
Q 38.578125 30.21875 29.109375 22.21875 
Q 21.1875 15.578125 18.9375 13.203125 
Q 16.703125 10.84375 15.234375 8.453125 
z
" id="ArialMT-50"/>
      </defs>
      <use xlink:href="#ArialMT-49"/>
      <use x="55.615234" xlink:href="#ArialMT-53"/>
      <use x="111.230469" xlink:href="#ArialMT-48"/>
      <use x="166.845703" xlink:href="#ArialMT-46"/>
      <use x="194.628906" xlink:href="#ArialMT-48"/>
      <use x="250.244141" xlink:href="#ArialMT-45"/>
      <use x="283.544922" xlink:href="#ArialMT-50"/>
      <use x="339.160156" xlink:href="#ArialMT-53"/>
      <use x="394.775391" xlink:href="#ArialMT-48"/>
      <use x="450.390625" xlink:href="#ArialMT-46"/>
      <use x="478.173828" xlink:href="#ArialMT-48"/>
      <use x="533.789062" xlink:href="#ArialMT-32"/>
      <use x="561.572266" xlink:href="#ArialMT-100"/>
      <use x="617.1875" xlink:href="#ArialMT-101"/>
      <use x="672.802734" xlink:href="#ArialMT-103"/>
      <use x="728.417969" xlink:href="#ArialMT-114"/>
      <use x="761.71875" xlink:href="#ArialMT-101"/>
      <use x="817.333984" xlink:href="#ArialMT-101"/>
      <use x="872.949219" xlink:href="#ArialMT-115"/>
     </g>
    </g>
   </g>
  </g>
 </g>
 <defs>
  <clipPath id="pbb9b126d7e">
   <rect height="190.26" width="55.8" x="9" y="30.24"/>
  </clipPath>
 </defs>
</svg>
