<?xml version="1.0" encoding="utf-8" standalone="no"?>
<!DOCTYPE svg PUBLIC "-//W3C//DTD SVG 1.1//EN"
  "http://www.w3.org/Graphics/SVG/1.1/DTD/svg11.dtd">
<!-- Created with matplotlib (https://matplotlib.org/) -->
<svg height="252pt" version="1.1" viewBox="0 0 72 252" width="72pt" xmlns="http://www.w3.org/2000/svg" xmlns:xlink="http://www.w3.org/1999/xlink">
 <metadata>
  <rdf:RDF xmlns:cc="http://creativecommons.org/ns#" xmlns:dc="http://purl.org/dc/elements/1.1/" xmlns:rdf="http://www.w3.org/1999/02/22-rdf-syntax-ns#">
   <cc:Work>
    <dc:type rdf:resource="http://purl.org/dc/dcmitype/StillImage"/>
    <dc:date>2022-06-07T12:00:43.118003</dc:date>
    <dc:format>image/svg+xml</dc:format>
    <dc:creator>
     <cc:Agent>
      <dc:title>Matplotlib v3.3.4, https://matplotlib.org/</dc:title>
     </cc:Agent>
    </dc:creator>
   </cc:Work>
  </rdf:RDF>
 </metadata>
 <defs>
  <style type="text/css">*{stroke-linecap:butt;stroke-linejoin:round;}</style>
 </defs>
 <g id="figure_1">
  <g id="patch_1">
   <path d="M 0 252 
L 72 252 
L 72 0 
L 0 0 
z
" style="fill:none;"/>
  </g>
  <g id="axes_1">
   <g id="patch_2">
    <path d="M 9 220.5 
L 64.8 220.5 
L 64.8 30.24 
L 9 30.24 
z
" style="fill:#ffffff;"/>
   </g>
   <g id="matplotlib.axis_1">
    <g id="ytick_1">
     <g id="line2d_1">
      <defs>
       <path d="M 0 0 
L -3.5 0 
" id="md0ee36ae2f" style="stroke:#000000;stroke-width:0.8;"/>
      </defs>
      <g>
       <use style="stroke:#000000;stroke-width:0.8;" x="9" xlink:href="#md0ee36ae2f" y="211.851818"/>
      </g>
     </g>
     <g id="text_1">
      <!-- −100 -->
      <g transform="translate(-16.01875 214.714943)scale(0.08 -0.08)">
       <defs>
        <path d="M 52.828125 31.203125 
L 5.5625 31.203125 
L 5.5625 39.40625 
L 52.828125 39.40625 
z
" id="ArialMT-8722"/>
        <path d="M 37.25 0 
L 28.46875 0 
L 28.46875 56 
Q 25.296875 52.984375 20.140625 49.953125 
Q 14.984375 46.921875 10.890625 45.40625 
L 10.890625 53.90625 
Q 18.265625 57.375 23.78125 62.296875 
Q 29.296875 67.234375 31.59375 71.875 
L 37.25 71.875 
z
" id="ArialMT-49"/>
        <path d="M 4.15625 35.296875 
Q 4.15625 48 6.765625 55.734375 
Q 9.375 63.484375 14.515625 67.671875 
Q 19.671875 71.875 27.484375 71.875 
Q 33.25 71.875 37.59375 69.546875 
Q 41.9375 67.234375 44.765625 62.859375 
Q 47.609375 58.5 49.21875 52.21875 
Q 50.828125 45.953125 50.828125 35.296875 
Q 50.828125 22.703125 48.234375 14.96875 
Q 45.65625 7.234375 40.5 3 
Q 35.359375 -1.21875 27.484375 -1.21875 
Q 17.140625 -1.21875 11.234375 6.203125 
Q 4.15625 15.140625 4.15625 35.296875 
z
M 13.1875 35.296875 
Q 13.1875 17.671875 17.3125 11.828125 
Q 21.4375 6 27.484375 6 
Q 33.546875 6 37.671875 11.859375 
Q 41.796875 17.71875 41.796875 35.296875 
Q 41.796875 52.984375 37.671875 58.78125 
Q 33.546875 64.59375 27.390625 64.59375 
Q 21.34375 64.59375 17.71875 59.46875 
Q 13.1875 52.9375 13.1875 35.296875 
z
" id="ArialMT-48"/>
       </defs>
       <use xlink:href="#ArialMT-8722"/>
       <use x="58.398438" xlink:href="#ArialMT-49"/>
       <use x="114.013672" xlink:href="#ArialMT-48"/>
       <use x="169.628906" xlink:href="#ArialMT-48"/>
      </g>
     </g>
    </g>
    <g id="ytick_2">
     <g id="line2d_2">
      <g>
       <use style="stroke:#000000;stroke-width:0.8;" x="9" xlink:href="#md0ee36ae2f" y="190.231364"/>
      </g>
     </g>
     <g id="text_2">
      <!-- −75 -->
      <g transform="translate(-11.57 193.094489)scale(0.08 -0.08)">
       <defs>
        <path d="M 4.734375 62.203125 
L 4.734375 70.65625 
L 51.078125 70.65625 
L 51.078125 63.8125 
Q 44.234375 56.546875 37.515625 44.484375 
Q 30.8125 32.421875 27.15625 19.671875 
Q 24.515625 10.6875 23.78125 0 
L 14.75 0 
Q 14.890625 8.453125 18.0625 20.40625 
Q 21.234375 32.375 27.171875 43.484375 
Q 33.109375 54.59375 39.796875 62.203125 
z
" id="ArialMT-55"/>
        <path d="M 4.15625 18.75 
L 13.375 19.53125 
Q 14.40625 12.796875 18.140625 9.390625 
Q 21.875 6 27.15625 6 
Q 33.5 6 37.890625 10.78125 
Q 42.28125 15.578125 42.28125 23.484375 
Q 42.28125 31 38.0625 35.34375 
Q 33.84375 39.703125 27 39.703125 
Q 22.75 39.703125 19.328125 37.765625 
Q 15.921875 35.84375 13.96875 32.765625 
L 5.71875 33.84375 
L 12.640625 70.609375 
L 48.25 70.609375 
L 48.25 62.203125 
L 19.671875 62.203125 
L 15.828125 42.96875 
Q 22.265625 47.46875 29.34375 47.46875 
Q 38.71875 47.46875 45.15625 40.96875 
Q 51.609375 34.46875 51.609375 24.265625 
Q 51.609375 14.546875 45.953125 7.46875 
Q 39.0625 -1.21875 27.15625 -1.21875 
Q 17.390625 -1.21875 11.203125 4.25 
Q 5.03125 9.71875 4.15625 18.75 
z
" id="ArialMT-53"/>
       </defs>
       <use xlink:href="#ArialMT-8722"/>
       <use x="58.398438" xlink:href="#ArialMT-55"/>
       <use x="114.013672" xlink:href="#ArialMT-53"/>
      </g>
     </g>
    </g>
    <g id="ytick_3">
     <g id="line2d_3">
      <g>
       <use style="stroke:#000000;stroke-width:0.8;" x="9" xlink:href="#md0ee36ae2f" y="168.610909"/>
      </g>
     </g>
     <g id="text_3">
      <!-- −50 -->
      <g transform="translate(-11.57 171.474034)scale(0.08 -0.08)">
       <use xlink:href="#ArialMT-8722"/>
       <use x="58.398438" xlink:href="#ArialMT-53"/>
       <use x="114.013672" xlink:href="#ArialMT-48"/>
      </g>
     </g>
    </g>
    <g id="ytick_4">
     <g id="line2d_4">
      <g>
       <use style="stroke:#000000;stroke-width:0.8;" x="9" xlink:href="#md0ee36ae2f" y="146.990455"/>
      </g>
     </g>
     <g id="text_4">
      <!-- −25 -->
      <g transform="translate(-11.57 149.85358)scale(0.08 -0.08)">
       <defs>
        <path d="M 50.34375 8.453125 
L 50.34375 0 
L 3.03125 0 
Q 2.9375 3.171875 4.046875 6.109375 
Q 5.859375 10.9375 9.828125 15.625 
Q 13.8125 20.3125 21.34375 26.46875 
Q 33.015625 36.03125 37.109375 41.625 
Q 41.21875 47.21875 41.21875 52.203125 
Q 41.21875 57.421875 37.46875 61 
Q 33.734375 64.59375 27.734375 64.59375 
Q 21.390625 64.59375 17.578125 60.78125 
Q 13.765625 56.984375 13.71875 50.25 
L 4.6875 51.171875 
Q 5.609375 61.28125 11.65625 66.578125 
Q 17.71875 71.875 27.9375 71.875 
Q 38.234375 71.875 44.234375 66.15625 
Q 50.25 60.453125 50.25 52 
Q 50.25 47.703125 48.484375 43.546875 
Q 46.734375 39.40625 42.65625 34.8125 
Q 38.578125 30.21875 29.109375 22.21875 
Q 21.1875 15.578125 18.9375 13.203125 
Q 16.703125 10.84375 15.234375 8.453125 
z
" id="ArialMT-50"/>
       </defs>
       <use xlink:href="#ArialMT-8722"/>
       <use x="58.398438" xlink:href="#ArialMT-50"/>
       <use x="114.013672" xlink:href="#ArialMT-53"/>
      </g>
     </g>
    </g>
    <g id="ytick_5">
     <g id="line2d_5">
      <g>
       <use style="stroke:#000000;stroke-width:0.8;" x="9" xlink:href="#md0ee36ae2f" y="125.37"/>
      </g>
     </g>
     <g id="text_5">
      <!-- 0 -->
      <g transform="translate(-2.44875 128.233125)scale(0.08 -0.08)">
       <use xlink:href="#ArialMT-48"/>
      </g>
     </g>
    </g>
    <g id="ytick_6">
     <g id="line2d_6">
      <g>
       <use style="stroke:#000000;stroke-width:0.8;" x="9" xlink:href="#md0ee36ae2f" y="103.749545"/>
      </g>
     </g>
     <g id="text_6">
      <!-- 25 -->
      <g transform="translate(-6.8975 106.61267)scale(0.08 -0.08)">
       <use xlink:href="#ArialMT-50"/>
       <use x="55.615234" xlink:href="#ArialMT-53"/>
      </g>
     </g>
    </g>
    <g id="ytick_7">
     <g id="line2d_7">
      <g>
       <use style="stroke:#000000;stroke-width:0.8;" x="9" xlink:href="#md0ee36ae2f" y="82.129091"/>
      </g>
     </g>
     <g id="text_7">
      <!-- 50 -->
      <g transform="translate(-6.8975 84.992216)scale(0.08 -0.08)">
       <use xlink:href="#ArialMT-53"/>
       <use x="55.615234" xlink:href="#ArialMT-48"/>
      </g>
     </g>
    </g>
    <g id="ytick_8">
     <g id="line2d_8">
      <g>
       <use style="stroke:#000000;stroke-width:0.8;" x="9" xlink:href="#md0ee36ae2f" y="60.508636"/>
      </g>
     </g>
     <g id="text_8">
      <!-- 75 -->
      <g transform="translate(-6.8975 63.371761)scale(0.08 -0.08)">
       <use xlink:href="#ArialMT-55"/>
       <use x="55.615234" xlink:href="#ArialMT-53"/>
      </g>
     </g>
    </g>
    <g id="ytick_9">
     <g id="line2d_9">
      <g>
       <use style="stroke:#000000;stroke-width:0.8;" x="9" xlink:href="#md0ee36ae2f" y="38.888182"/>
      </g>
     </g>
     <g id="text_9">
      <!-- 100 -->
      <g transform="translate(-11.34625 41.751307)scale(0.08 -0.08)">
       <use xlink:href="#ArialMT-49"/>
       <use x="55.615234" xlink:href="#ArialMT-48"/>
       <use x="111.230469" xlink:href="#ArialMT-48"/>
      </g>
     </g>
    </g>
    <g id="text_10">
     <!-- Degrees -->
     <g transform="translate(-21.7025 140.488125)rotate(-90)scale(0.08 -0.08)">
      <defs>
       <path d="M 7.71875 0 
L 7.71875 71.578125 
L 32.375 71.578125 
Q 40.71875 71.578125 45.125 70.5625 
Q 51.265625 69.140625 55.609375 65.4375 
Q 61.28125 60.640625 64.078125 53.1875 
Q 66.890625 45.75 66.890625 36.1875 
Q 66.890625 28.03125 64.984375 21.734375 
Q 63.09375 15.4375 60.109375 11.296875 
Q 57.125 7.171875 53.578125 4.796875 
Q 50.046875 2.4375 45.046875 1.21875 
Q 40.046875 0 33.546875 0 
z
M 17.1875 8.453125 
L 32.46875 8.453125 
Q 39.546875 8.453125 43.578125 9.765625 
Q 47.609375 11.078125 50 13.484375 
Q 53.375 16.84375 55.25 22.53125 
Q 57.125 28.21875 57.125 36.328125 
Q 57.125 47.5625 53.4375 53.59375 
Q 49.75 59.625 44.484375 61.671875 
Q 40.671875 63.140625 32.234375 63.140625 
L 17.1875 63.140625 
z
" id="ArialMT-68"/>
       <path d="M 42.09375 16.703125 
L 51.171875 15.578125 
Q 49.03125 7.625 43.21875 3.21875 
Q 37.40625 -1.171875 28.375 -1.171875 
Q 17 -1.171875 10.328125 5.828125 
Q 3.65625 12.84375 3.65625 25.484375 
Q 3.65625 38.578125 10.390625 45.796875 
Q 17.140625 53.03125 27.875 53.03125 
Q 38.28125 53.03125 44.875 45.953125 
Q 51.46875 38.875 51.46875 26.03125 
Q 51.46875 25.25 51.421875 23.6875 
L 12.75 23.6875 
Q 13.234375 15.140625 17.578125 10.59375 
Q 21.921875 6.0625 28.421875 6.0625 
Q 33.25 6.0625 36.671875 8.59375 
Q 40.09375 11.140625 42.09375 16.703125 
z
M 13.234375 30.90625 
L 42.1875 30.90625 
Q 41.609375 37.453125 38.875 40.71875 
Q 34.671875 45.796875 27.984375 45.796875 
Q 21.921875 45.796875 17.796875 41.75 
Q 13.671875 37.703125 13.234375 30.90625 
z
" id="ArialMT-101"/>
       <path d="M 4.984375 -4.296875 
L 13.53125 -5.5625 
Q 14.0625 -9.515625 16.5 -11.328125 
Q 19.78125 -13.765625 25.4375 -13.765625 
Q 31.546875 -13.765625 34.859375 -11.328125 
Q 38.1875 -8.890625 39.359375 -4.5 
Q 40.046875 -1.8125 39.984375 6.78125 
Q 34.234375 0 25.640625 0 
Q 14.9375 0 9.078125 7.71875 
Q 3.21875 15.4375 3.21875 26.21875 
Q 3.21875 33.640625 5.90625 39.90625 
Q 8.59375 46.1875 13.6875 49.609375 
Q 18.796875 53.03125 25.6875 53.03125 
Q 34.859375 53.03125 40.828125 45.609375 
L 40.828125 51.859375 
L 48.921875 51.859375 
L 48.921875 7.03125 
Q 48.921875 -5.078125 46.453125 -10.125 
Q 44 -15.1875 38.640625 -18.109375 
Q 33.296875 -21.046875 25.484375 -21.046875 
Q 16.21875 -21.046875 10.5 -16.875 
Q 4.78125 -12.703125 4.984375 -4.296875 
z
M 12.25 26.859375 
Q 12.25 16.65625 16.296875 11.96875 
Q 20.359375 7.28125 26.46875 7.28125 
Q 32.515625 7.28125 36.609375 11.9375 
Q 40.71875 16.609375 40.71875 26.5625 
Q 40.71875 36.078125 36.5 40.90625 
Q 32.28125 45.75 26.3125 45.75 
Q 20.453125 45.75 16.34375 40.984375 
Q 12.25 36.234375 12.25 26.859375 
z
" id="ArialMT-103"/>
       <path d="M 6.5 0 
L 6.5 51.859375 
L 14.40625 51.859375 
L 14.40625 44 
Q 17.4375 49.515625 20 51.265625 
Q 22.5625 53.03125 25.640625 53.03125 
Q 30.078125 53.03125 34.671875 50.203125 
L 31.640625 42.046875 
Q 28.421875 43.953125 25.203125 43.953125 
Q 22.3125 43.953125 20.015625 42.21875 
Q 17.71875 40.484375 16.75 37.40625 
Q 15.28125 32.71875 15.28125 27.15625 
L 15.28125 0 
z
" id="ArialMT-114"/>
       <path d="M 3.078125 15.484375 
L 11.765625 16.84375 
Q 12.5 11.625 15.84375 8.84375 
Q 19.1875 6.0625 25.203125 6.0625 
Q 31.25 6.0625 34.171875 8.515625 
Q 37.109375 10.984375 37.109375 14.3125 
Q 37.109375 17.28125 34.515625 19 
Q 32.71875 20.171875 25.53125 21.96875 
Q 15.875 24.421875 12.140625 26.203125 
Q 8.40625 27.984375 6.46875 31.125 
Q 4.546875 34.28125 4.546875 38.09375 
Q 4.546875 41.546875 6.125 44.5 
Q 7.71875 47.46875 10.453125 49.421875 
Q 12.5 50.921875 16.03125 51.96875 
Q 19.578125 53.03125 23.640625 53.03125 
Q 29.734375 53.03125 34.34375 51.265625 
Q 38.96875 49.515625 41.15625 46.5 
Q 43.359375 43.5 44.1875 38.484375 
L 35.59375 37.3125 
Q 35.015625 41.3125 32.203125 43.546875 
Q 29.390625 45.796875 24.265625 45.796875 
Q 18.21875 45.796875 15.625 43.796875 
Q 13.03125 41.796875 13.03125 39.109375 
Q 13.03125 37.40625 14.109375 36.03125 
Q 15.1875 34.625 17.484375 33.6875 
Q 18.796875 33.203125 25.25 31.453125 
Q 34.578125 28.953125 38.25 27.359375 
Q 41.9375 25.78125 44.03125 22.75 
Q 46.140625 19.734375 46.140625 15.234375 
Q 46.140625 10.84375 43.578125 6.953125 
Q 41.015625 3.078125 36.171875 0.953125 
Q 31.34375 -1.171875 25.25 -1.171875 
Q 15.140625 -1.171875 9.84375 3.03125 
Q 4.546875 7.234375 3.078125 15.484375 
z
" id="ArialMT-115"/>
      </defs>
      <use xlink:href="#ArialMT-68"/>
      <use x="72.216797" xlink:href="#ArialMT-101"/>
      <use x="127.832031" xlink:href="#ArialMT-103"/>
      <use x="183.447266" xlink:href="#ArialMT-114"/>
      <use x="216.748047" xlink:href="#ArialMT-101"/>
      <use x="272.363281" xlink:href="#ArialMT-101"/>
      <use x="327.978516" xlink:href="#ArialMT-115"/>
     </g>
    </g>
   </g>
   <g id="line2d_10">
    <path clip-path="url(#p27386dc525)" d="M 11.536364 211.851818 
L 11.536474 210.104711 
L 11.536616 208.357603 
L 11.5368 206.610496 
L 11.537034 204.863388 
L 11.537332 203.116281 
L 11.53771 201.369174 
L 11.538187 199.622066 
L 11.538785 197.874959 
L 11.539532 196.127851 
L 11.540459 194.380744 
L 11.541606 192.633636 
L 11.543016 190.886529 
L 11.544742 189.139421 
L 11.546844 187.392314 
L 11.549391 185.645207 
L 11.552461 183.898099 
L 11.556145 182.150992 
L 11.56054 180.403884 
L 11.565759 178.656777 
L 11.571924 176.909669 
L 11.57917 175.162562 
L 11.58764 173.415455 
L 11.597491 171.668347 
L 11.608887 169.92124 
L 11.622001 168.174132 
L 11.637013 166.427025 
L 11.654104 164.679917 
L 11.673456 162.93281 
L 11.69525 161.185702 
L 11.719657 159.438595 
L 11.746839 157.691488 
L 11.776939 155.94438 
L 11.810079 154.197273 
L 11.846355 152.450165 
L 11.885829 150.703058 
L 11.928523 148.95595 
L 11.974417 147.208843 
L 12.023442 145.461736 
L 12.075475 143.714628 
L 12.130337 141.967521 
L 12.18779 140.220413 
L 12.247533 138.473306 
L 12.309206 136.726198 
L 12.37239 134.979091 
L 12.436606 133.231983 
L 12.501326 131.484876 
L 12.565973 129.737769 
L 12.629933 127.990661 
L 12.692561 126.243554 
L 12.753192 124.496446 
L 12.811153 122.749339 
L 12.865776 121.002231 
L 12.916409 119.255124 
L 12.962427 117.508017 
L 13.003251 115.760909 
L 13.038353 114.013802 
L 13.067272 112.266694 
L 13.089623 110.519587 
L 13.105104 108.772479 
L 13.113505 107.025372 
L 13.11471 105.278264 
L 13.108704 103.531157 
L 13.095568 101.78405 
L 13.075482 100.036942 
L 13.048717 98.289835 
L 13.015631 96.542727 
L 12.976663 94.79562 
L 12.932316 93.048512 
L 12.883157 91.301405 
L 12.829795 89.554298 
L 12.772874 87.80719 
L 12.71306 86.060083 
L 12.651024 84.312975 
L 12.587436 82.565868 
L 12.522949 80.81876 
L 12.458187 79.071653 
L 12.393741 77.324545 
L 12.330157 75.577438 
L 12.26793 73.830331 
L 12.207499 72.083223 
L 12.149245 70.336116 
L 12.093489 68.589008 
L 12.040488 66.841901 
L 11.990442 65.094793 
L 11.943493 63.347686 
L 11.899726 61.600579 
L 11.859177 59.853471 
L 11.821839 58.106364 
L 11.787661 56.359256 
L 11.756558 54.612149 
L 11.728417 52.865041 
L 11.7031 51.117934 
L 11.680452 49.370826 
L 11.660305 47.623719 
L 11.642479 45.876612 
L 11.626794 44.129504 
L 11.613066 42.382397 
L 11.601115 40.635289 
L 11.590767 38.888182 
" style="fill:none;stroke:#029e73;stroke-linecap:square;stroke-width:1.5;"/>
   </g>
   <g id="line2d_11">
    <path clip-path="url(#p27386dc525)" d="M 11.592833 211.851818 
L 11.60492 210.104711 
L 11.619238 208.357603 
L 11.636124 206.610496 
L 11.655946 204.863388 
L 11.679108 203.116281 
L 11.706051 201.369174 
L 11.737245 199.622066 
L 11.773193 197.874959 
L 11.814427 196.127851 
L 11.861502 194.380744 
L 11.914989 192.633636 
L 11.975472 190.886529 
L 12.043536 189.139421 
L 12.11976 187.392314 
L 12.204703 185.645207 
L 12.298892 183.898099 
L 12.40281 182.150992 
L 12.516881 180.403884 
L 12.641451 178.656777 
L 12.776778 176.909669 
L 12.92301 175.162562 
L 13.080174 173.415455 
L 13.248158 171.668347 
L 13.4267 169.92124 
L 13.615374 168.174132 
L 13.813579 166.427025 
L 14.020536 164.679917 
L 14.235282 162.93281 
L 14.456669 161.185702 
L 14.683366 159.438595 
L 14.913873 157.691488 
L 15.146526 155.94438 
L 15.379515 154.197273 
L 15.610907 152.450165 
L 15.838668 150.703058 
L 16.060691 148.95595 
L 16.27483 147.208843 
L 16.478928 145.461736 
L 16.670859 143.714628 
L 16.848559 141.967521 
L 17.010065 140.220413 
L 17.153553 138.473306 
L 17.277369 136.726198 
L 17.380061 134.979091 
L 17.460409 133.231983 
L 17.517448 131.484876 
L 17.550487 129.737769 
L 17.559126 127.990661 
L 17.543258 126.243554 
L 17.503076 124.496446 
L 17.43907 122.749339 
L 17.352012 121.002231 
L 17.242945 119.255124 
L 17.11316 117.508017 
L 16.96417 115.760909 
L 16.797685 114.013802 
L 16.615574 112.266694 
L 16.419832 110.519587 
L 16.212546 108.772479 
L 15.995854 107.025372 
L 15.771914 105.278264 
L 15.542865 103.531157 
L 15.310793 101.78405 
L 15.077708 100.036942 
L 14.845507 98.289835 
L 14.615959 96.542727 
L 14.390681 94.79562 
L 14.171125 93.048512 
L 13.958567 91.301405 
L 13.754102 89.554298 
L 13.558639 87.80719 
L 13.372903 86.060083 
L 13.197442 84.312975 
L 13.032632 82.565868 
L 12.878691 80.81876 
L 12.735688 79.071653 
L 12.603558 77.324545 
L 12.482119 75.577438 
L 12.371086 73.830331 
L 12.270088 72.083223 
L 12.178681 70.336116 
L 12.09637 68.589008 
L 12.022615 66.841901 
L 11.95685 65.094793 
L 11.898493 63.347686 
L 11.84696 61.600579 
L 11.801669 59.853471 
L 11.762052 58.106364 
L 11.727562 56.359256 
L 11.697674 54.612149 
L 11.671896 52.865041 
L 11.649764 51.117934 
L 11.630849 49.370826 
L 11.614759 47.623719 
L 11.601132 45.876612 
L 11.589645 44.129504 
L 11.580005 42.382397 
L 11.571951 40.635289 
L 11.565252 38.888182 
" style="fill:none;stroke:#cc78bc;stroke-linecap:square;stroke-width:1.5;"/>
   </g>
   <g id="line2d_12">
    <path clip-path="url(#p27386dc525)" d="M 11.556799 211.851818 
L 11.56436 210.104711 
L 11.57443 208.357603 
L 11.58775 206.610496 
L 11.605252 204.863388 
L 11.628093 203.116281 
L 11.6577 201.369174 
L 11.695819 199.622066 
L 11.74456 197.874959 
L 11.80646 196.127851 
L 11.88453 194.380744 
L 11.982319 192.633636 
L 12.103957 190.886529 
L 12.254211 189.139421 
L 12.438513 187.392314 
L 12.662991 185.645207 
L 12.93447 183.898099 
L 13.26045 182.150992 
L 13.649068 180.403884 
L 14.109009 178.656777 
L 14.649395 176.909669 
L 15.279624 175.162562 
L 16.009169 173.415455 
L 16.847332 171.668347 
L 17.802955 169.92124 
L 18.884093 168.174132 
L 20.097656 166.427025 
L 21.449017 164.679917 
L 22.941621 162.93281 
L 24.576582 161.185702 
L 26.352308 159.438595 
L 28.264154 157.691488 
L 30.30413 155.94438 
L 32.460687 154.197273 
L 34.718587 152.450165 
L 37.058888 150.703058 
L 39.459039 148.95595 
L 41.893117 147.208843 
L 44.332186 145.461736 
L 46.744792 143.714628 
L 49.097582 141.967521 
L 51.356031 140.220413 
L 53.485258 138.473306 
L 55.450904 136.726198 
L 57.220046 134.979091 
L 58.762108 133.231983 
L 60.049735 131.484876 
L 61.059604 129.737769 
L 61.77312 127.990661 
L 62.176991 126.243554 
L 62.263636 124.496446 
L 62.031424 122.749339 
L 61.484723 121.002231 
L 60.633764 119.255124 
L 59.494326 117.508017 
L 58.087243 115.760909 
L 56.437776 114.013802 
L 54.574856 112.266694 
L 52.530245 110.519587 
L 50.337635 108.772479 
L 48.031736 107.025372 
L 45.647373 105.278264 
L 43.218632 103.531157 
L 40.77808 101.78405 
L 38.356091 100.036942 
L 35.980277 98.289835 
L 33.675057 96.542727 
L 31.461352 94.79562 
L 29.356418 93.048512 
L 27.373795 91.301405 
L 25.523385 89.554298 
L 23.811617 87.80719 
L 22.241701 86.060083 
L 20.813947 84.312975 
L 19.526126 82.565868 
L 18.373862 80.81876 
L 17.351032 79.071653 
L 16.450155 77.324545 
L 15.662773 75.577438 
L 14.979796 73.830331 
L 14.391809 72.083223 
L 13.889348 70.336116 
L 13.463117 68.589008 
L 13.104178 66.841901 
L 12.804083 65.094793 
L 12.554979 63.347686 
L 12.34967 61.600579 
L 12.181649 59.853471 
L 12.045109 58.106364 
L 11.934924 56.359256 
L 11.846625 54.612149 
L 11.776353 52.865041 
L 11.720811 51.117934 
L 11.677213 49.370826 
L 11.643224 47.623719 
L 11.616906 45.876612 
L 11.596665 44.129504 
L 11.581203 42.382397 
L 11.569472 40.635289 
L 11.560631 38.888182 
" style="fill:none;stroke:#d55e00;stroke-linecap:square;stroke-width:1.5;"/>
   </g>
   <g id="line2d_13">
    <path clip-path="url(#p27386dc525)" d="M 11.718473 211.851818 
L 11.763022 210.104711 
L 11.817219 208.357603 
L 11.88284 206.610496 
L 11.961913 204.863388 
L 12.056738 203.116281 
L 12.169906 201.369174 
L 12.304311 199.622066 
L 12.463163 197.874959 
L 12.64999 196.127851 
L 12.868641 194.380744 
L 13.123273 192.633636 
L 13.418332 190.886529 
L 13.758528 189.139421 
L 14.148791 187.392314 
L 14.594217 185.645207 
L 15.100006 183.898099 
L 15.671374 182.150992 
L 16.313464 180.403884 
L 17.031237 178.656777 
L 17.829346 176.909669 
L 18.712012 175.162562 
L 19.682873 173.415455 
L 20.744842 171.668347 
L 21.899952 169.92124 
L 23.149202 168.174132 
L 24.492416 166.427025 
L 25.928095 164.679917 
L 27.453301 162.93281 
L 29.063546 161.185702 
L 30.75271 159.438595 
L 32.512993 157.691488 
L 34.33489 155.94438 
L 36.207208 154.197273 
L 38.117128 152.450165 
L 40.050295 150.703058 
L 41.990968 148.95595 
L 43.922193 147.208843 
L 45.826034 145.461736 
L 47.683827 143.714628 
L 49.476472 141.967521 
L 51.184753 140.220413 
L 52.789669 138.473306 
L 54.272789 136.726198 
L 55.616596 134.979091 
L 56.804832 133.231983 
L 57.822823 131.484876 
L 58.657783 129.737769 
L 59.299079 127.990661 
L 59.738457 126.243554 
L 59.970218 124.496446 
L 59.991342 122.749339 
L 59.801554 121.002231 
L 59.403328 119.255124 
L 58.801835 117.508017 
L 58.00483 115.760909 
L 57.022488 114.013802 
L 55.867183 112.266694 
L 54.553236 110.519587 
L 53.096613 108.772479 
L 51.514605 107.025372 
L 49.825491 105.278264 
L 48.048183 103.531157 
L 46.201884 101.78405 
L 44.305741 100.036942 
L 42.37853 98.289835 
L 40.438356 96.542727 
L 38.502386 94.79562 
L 36.586622 93.048512 
L 34.705707 91.301405 
L 32.872778 89.554298 
L 31.099357 87.80719 
L 29.39529 86.060083 
L 27.768719 84.312975 
L 26.226095 82.565868 
L 24.772227 80.81876 
L 23.410356 79.071653 
L 22.142258 77.324545 
L 20.968365 75.577438 
L 19.8879 73.830331 
L 18.899024 72.083223 
L 17.998989 70.336116 
L 17.184289 68.589008 
L 16.45081 66.841901 
L 15.793972 65.094793 
L 15.208867 63.347686 
L 14.690379 61.600579 
L 14.233298 59.853471 
L 13.832414 58.106364 
L 13.482605 56.359256 
L 13.178903 54.612149 
L 12.916551 52.865041 
L 12.691046 51.117934 
L 12.498172 49.370826 
L 12.334018 47.623719 
L 12.19499 45.876612 
L 12.077816 44.129504 
L 11.979539 42.382397 
L 11.897509 40.635289 
L 11.829368 38.888182 
" style="fill:none;stroke:#ca9161;stroke-linecap:square;stroke-width:1.5;"/>
   </g>
   <g id="patch_3">
    <path d="M 9 220.5 
L 9 30.24 
" style="fill:none;stroke:#000000;stroke-linecap:square;stroke-linejoin:miter;stroke-width:0.8;"/>
   </g>
  </g>
 </g>
 <defs>
  <clipPath id="p27386dc525">
   <rect height="190.26" width="55.8" x="9" y="30.24"/>
  </clipPath>
 </defs>
</svg>
