<?xml version="1.0" encoding="utf-8" standalone="no"?>
<!DOCTYPE svg PUBLIC "-//W3C//DTD SVG 1.1//EN"
  "http://www.w3.org/Graphics/SVG/1.1/DTD/svg11.dtd">
<!-- Created with matplotlib (https://matplotlib.org/) -->
<svg height="72pt" version="1.1" viewBox="0 0 144 72" width="144pt" xmlns="http://www.w3.org/2000/svg" xmlns:xlink="http://www.w3.org/1999/xlink">
 <metadata>
  <rdf:RDF xmlns:cc="http://creativecommons.org/ns#" xmlns:dc="http://purl.org/dc/elements/1.1/" xmlns:rdf="http://www.w3.org/1999/02/22-rdf-syntax-ns#">
   <cc:Work>
    <dc:type rdf:resource="http://purl.org/dc/dcmitype/StillImage"/>
    <dc:date>2022-06-07T15:11:41.488298</dc:date>
    <dc:format>image/svg+xml</dc:format>
    <dc:creator>
     <cc:Agent>
      <dc:title>Matplotlib v3.3.4, https://matplotlib.org/</dc:title>
     </cc:Agent>
    </dc:creator>
   </cc:Work>
  </rdf:RDF>
 </metadata>
 <defs>
  <style type="text/css">*{stroke-linecap:butt;stroke-linejoin:round;}</style>
 </defs>
 <g id="figure_1">
  <g id="patch_1">
   <path d="M 0 72 
L 144 72 
L 144 0 
L 0 0 
z
" style="fill:none;"/>
  </g>
  <g id="axes_1">
   <g id="patch_2">
    <path d="M 18 63 
L 129.6 63 
L 129.6 8.64 
L 18 8.64 
z
" style="fill:#ffffff;"/>
   </g>
   <g id="PathCollection_1">
    <defs>
     <path d="M 0 -3 
L -0.673542 -0.927051 
L -2.85317 -0.927051 
L -1.089814 0.354102 
L -1.763356 2.427051 
L -0 1.145898 
L 1.763356 2.427051 
L 1.089814 0.354102 
L 2.85317 -0.927051 
L 0.673542 -0.927051 
z
" id="me66aad013f" style="stroke:#cc78bc;"/>
    </defs>
    <g clip-path="url(#p0460e748c3)">
     <use style="fill:#cc78bc;stroke:#cc78bc;" x="73.287603" xlink:href="#me66aad013f" y="11.110909"/>
    </g>
   </g>
   <g id="PathCollection_2">
    <defs>
     <path d="M 0 3 
C 0.795609 3 1.55874 2.683901 2.12132 2.12132 
C 2.683901 1.55874 3 0.795609 3 0 
C 3 -0.795609 2.683901 -1.55874 2.12132 -2.12132 
C 1.55874 -2.683901 0.795609 -3 0 -3 
C -0.795609 -3 -1.55874 -2.683901 -2.12132 -2.12132 
C -2.683901 -1.55874 -3 -0.795609 -3 0 
C -3 0.795609 -2.683901 1.55874 -2.12132 2.12132 
C -1.55874 2.683901 -0.795609 3 0 3 
z
" id="maefc86ff10" style="stroke:#000000;"/>
    </defs>
    <g clip-path="url(#p0460e748c3)">
     <use style="stroke:#000000;" x="71.238017" xlink:href="#maefc86ff10" y="11.368186"/>
    </g>
   </g>
   <g id="matplotlib.axis_1">
    <g id="xtick_1">
     <g id="line2d_1">
      <defs>
       <path d="M 0 0 
L 0 3.5 
" id="ma114bfa88d" style="stroke:#000000;stroke-width:0.8;"/>
      </defs>
      <g>
       <use style="stroke:#000000;stroke-width:0.8;" x="23.072727" xlink:href="#ma114bfa88d" y="63"/>
      </g>
     </g>
     <g id="text_1">
      <!-- −1 -->
      <g transform="translate(17.371946 77.157813)scale(0.1 -0.1)">
       <defs>
        <path d="M 52.828125 31.203125 
L 5.5625 31.203125 
L 5.5625 39.40625 
L 52.828125 39.40625 
z
" id="ArialMT-8722"/>
        <path d="M 37.25 0 
L 28.46875 0 
L 28.46875 56 
Q 25.296875 52.984375 20.140625 49.953125 
Q 14.984375 46.921875 10.890625 45.40625 
L 10.890625 53.90625 
Q 18.265625 57.375 23.78125 62.296875 
Q 29.296875 67.234375 31.59375 71.875 
L 37.25 71.875 
z
" id="ArialMT-49"/>
       </defs>
       <use xlink:href="#ArialMT-8722"/>
       <use x="58.398438" xlink:href="#ArialMT-49"/>
      </g>
     </g>
    </g>
    <g id="xtick_2">
     <g id="line2d_2">
      <g>
       <use style="stroke:#000000;stroke-width:0.8;" x="73.8" xlink:href="#ma114bfa88d" y="63"/>
      </g>
     </g>
     <g id="text_2">
      <!-- 0 -->
      <g transform="translate(71.019531 77.157813)scale(0.1 -0.1)">
       <defs>
        <path d="M 4.15625 35.296875 
Q 4.15625 48 6.765625 55.734375 
Q 9.375 63.484375 14.515625 67.671875 
Q 19.671875 71.875 27.484375 71.875 
Q 33.25 71.875 37.59375 69.546875 
Q 41.9375 67.234375 44.765625 62.859375 
Q 47.609375 58.5 49.21875 52.21875 
Q 50.828125 45.953125 50.828125 35.296875 
Q 50.828125 22.703125 48.234375 14.96875 
Q 45.65625 7.234375 40.5 3 
Q 35.359375 -1.21875 27.484375 -1.21875 
Q 17.140625 -1.21875 11.234375 6.203125 
Q 4.15625 15.140625 4.15625 35.296875 
z
M 13.1875 35.296875 
Q 13.1875 17.671875 17.3125 11.828125 
Q 21.4375 6 27.484375 6 
Q 33.546875 6 37.671875 11.859375 
Q 41.796875 17.71875 41.796875 35.296875 
Q 41.796875 52.984375 37.671875 58.78125 
Q 33.546875 64.59375 27.390625 64.59375 
Q 21.34375 64.59375 17.71875 59.46875 
Q 13.1875 52.9375 13.1875 35.296875 
z
" id="ArialMT-48"/>
       </defs>
       <use xlink:href="#ArialMT-48"/>
      </g>
     </g>
    </g>
    <g id="xtick_3">
     <g id="line2d_3">
      <g>
       <use style="stroke:#000000;stroke-width:0.8;" x="124.527273" xlink:href="#ma114bfa88d" y="63"/>
      </g>
     </g>
     <g id="text_3">
      <!-- 1 -->
      <g transform="translate(121.746804 77.157813)scale(0.1 -0.1)">
       <use xlink:href="#ArialMT-49"/>
      </g>
     </g>
    </g>
   </g>
   <g id="line2d_4">
    <path clip-path="url(#p0460e748c3)" d="M 23.072727 60.528487 
L 24.097521 60.528036 
L 25.122314 60.527351 
L 26.147107 60.526322 
L 27.171901 60.524789 
L 28.196694 60.522528 
L 29.221488 60.519225 
L 30.246281 60.514444 
L 31.271074 60.507592 
L 32.295868 60.497865 
L 33.320661 60.484191 
L 34.345455 60.465154 
L 35.370248 60.438907 
L 36.395041 60.403072 
L 37.419835 60.354624 
L 38.444628 60.289767 
L 39.469421 60.203801 
L 40.494215 60.090981 
L 41.519008 59.944397 
L 42.543802 59.75585 
L 43.568595 59.515775 
L 44.593388 59.213196 
L 45.618182 58.835742 
L 46.642975 58.369748 
L 47.667769 57.800441 
L 48.692562 57.112243 
L 49.717355 56.289189 
L 50.742149 55.315481 
L 51.766942 54.176159 
L 52.791736 52.857897 
L 53.816529 51.349889 
L 54.841322 49.644797 
L 55.866116 47.739723 
L 56.890909 45.637147 
L 57.915702 43.345764 
L 58.940496 40.881164 
L 59.965289 38.266288 
L 60.990083 35.531589 
L 62.014876 32.714861 
L 63.039669 29.860687 
L 64.064463 27.01951 
L 65.089256 24.246314 
L 66.11405 21.598969 
L 67.138843 19.136299 
L 68.163636 16.915946 
L 69.18843 14.992154 
L 70.213223 13.413575 
L 71.238017 12.221228 
L 72.26281 11.446732 
L 73.287603 11.110909 
L 74.312397 11.222857 
L 75.33719 11.779538 
L 76.361983 12.765918 
L 77.386777 14.155638 
L 78.41157 15.912187 
L 79.436364 17.990495 
L 80.461157 20.338851 
L 81.48595 22.901036 
L 82.510744 25.618543 
L 83.535537 28.43277 
L 84.560331 31.287058 
L 85.585124 34.128506 
L 86.609917 36.909454 
L 87.634711 39.588614 
L 88.659504 42.131814 
L 89.684298 44.51235 
L 90.709091 46.710991 
L 91.733884 48.71566 
L 92.758678 50.520861 
L 93.783471 52.126913 
L 94.808264 53.539049 
L 95.833058 54.766459 
L 96.857851 55.821323 
L 97.882645 56.71789 
L 98.907438 57.471628 
L 99.932231 58.098497 
L 100.957025 58.614327 
L 101.981818 59.034341 
L 103.006612 59.372789 
L 104.031405 59.642708 
L 105.056198 59.855778 
L 106.080992 60.022269 
L 107.105785 60.151057 
L 108.130579 60.249685 
L 109.155372 60.324464 
L 110.180165 60.380602 
L 111.204959 60.422331 
L 112.229752 60.453045 
L 113.254545 60.475431 
L 114.279339 60.491589 
L 115.304132 60.503139 
L 116.328926 60.511316 
L 117.353719 60.517048 
L 118.378512 60.521028 
L 119.403306 60.523765 
L 120.428099 60.52563 
L 121.452893 60.526888 
L 122.477686 60.527728 
L 123.502479 60.528285 
L 124.527273 60.52865 
" style="fill:none;stroke:#cc78bc;stroke-linecap:square;stroke-width:1.5;"/>
   </g>
   <g id="line2d_5">
    <path clip-path="url(#p0460e748c3)" d="M 23.072727 60.526435 
L 24.097521 60.524965 
L 25.122314 60.522798 
L 26.147107 60.519636 
L 27.171901 60.515063 
L 28.196694 60.508514 
L 29.221488 60.499222 
L 30.246281 60.486167 
L 31.271074 60.467998 
L 32.295868 60.442956 
L 33.320661 60.408775 
L 34.345455 60.362569 
L 35.370248 60.300716 
L 36.395041 60.218726 
L 37.419835 60.111109 
L 38.444628 59.971248 
L 39.469421 59.791286 
L 40.494215 59.562037 
L 41.519008 59.27294 
L 42.543802 58.912065 
L 43.568595 58.466192 
L 44.593388 57.920982 
L 45.618182 57.261249 
L 46.642975 56.47135 
L 47.667769 55.535695 
L 48.692562 54.439384 
L 49.717355 53.168957 
L 50.742149 51.713242 
L 51.766942 50.064271 
L 52.791736 48.218223 
L 53.816529 46.176346 
L 54.841322 43.945802 
L 55.866116 41.540364 
L 56.890909 38.980915 
L 57.915702 36.295672 
L 58.940496 33.520097 
L 59.965289 30.696452 
L 60.990083 27.872978 
L 62.014876 25.102702 
L 63.039669 22.441908 
L 64.064463 19.948309 
L 65.089256 17.67902 
L 66.11405 15.688402 
L 67.138843 14.025916 
L 68.163636 12.734085 
L 69.18843 11.846684 
L 70.213223 11.38728 
L 71.238017 11.368186 
L 72.26281 11.789915 
L 73.287603 12.641159 
L 74.312397 13.899287 
L 75.33719 15.531352 
L 76.361983 17.49552 
L 77.386777 19.742851 
L 78.41157 22.219321 
L 79.436364 24.867969 
L 80.461157 27.63105 
L 81.48595 30.452082 
L 82.510744 33.277691 
L 83.535537 36.059172 
L 84.560331 38.753709 
L 85.585124 41.32523 
L 86.609917 43.744885 
L 87.634711 45.991162 
L 88.659504 48.049691 
L 89.684298 49.912766 
L 90.709091 51.578658 
L 91.733884 53.050787 
L 92.758678 54.336802 
L 93.783471 55.447633 
L 94.808264 56.396579 
L 95.833058 57.198445 
L 96.857851 57.86879 
L 97.882645 58.423274 
L 98.907438 58.877139 
L 99.932231 59.244811 
L 100.957025 59.539612 
L 101.981818 59.773588 
L 103.006612 59.957422 
L 104.031405 60.100415 
L 105.056198 60.210537 
L 106.080992 60.294507 
L 107.105785 60.357907 
L 108.130579 60.405308 
L 109.155372 60.440404 
L 110.180165 60.466137 
L 111.204959 60.484823 
L 112.229752 60.498261 
L 113.254545 60.507833 
L 114.279339 60.514585 
L 115.304132 60.519304 
L 116.328926 60.52257 
L 117.353719 60.524809 
L 118.378512 60.526329 
L 119.403306 60.527352 
L 120.428099 60.528034 
L 121.452893 60.528484 
L 122.477686 60.528778 
L 123.502479 60.528969 
L 124.527273 60.529091 
" style="fill:none;stroke:#000000;stroke-linecap:square;stroke-width:1.5;"/>
   </g>
   <g id="patch_3">
    <path d="M 18 63 
L 129.6 63 
" style="fill:none;stroke:#000000;stroke-linecap:square;stroke-linejoin:miter;stroke-width:0.8;"/>
   </g>
  </g>
 </g>
 <defs>
  <clipPath id="p0460e748c3">
   <rect height="54.36" width="111.6" x="18" y="8.64"/>
  </clipPath>
 </defs>
</svg>
