<?xml version="1.0" encoding="utf-8" standalone="no"?>
<!DOCTYPE svg PUBLIC "-//W3C//DTD SVG 1.1//EN"
  "http://www.w3.org/Graphics/SVG/1.1/DTD/svg11.dtd">
<!-- Created with matplotlib (https://matplotlib.org/) -->
<svg height="72pt" version="1.1" viewBox="0 0 144 72" width="144pt" xmlns="http://www.w3.org/2000/svg" xmlns:xlink="http://www.w3.org/1999/xlink">
 <metadata>
  <rdf:RDF xmlns:cc="http://creativecommons.org/ns#" xmlns:dc="http://purl.org/dc/elements/1.1/" xmlns:rdf="http://www.w3.org/1999/02/22-rdf-syntax-ns#">
   <cc:Work>
    <dc:type rdf:resource="http://purl.org/dc/dcmitype/StillImage"/>
    <dc:date>2022-06-07T15:11:41.140448</dc:date>
    <dc:format>image/svg+xml</dc:format>
    <dc:creator>
     <cc:Agent>
      <dc:title>Matplotlib v3.3.4, https://matplotlib.org/</dc:title>
     </cc:Agent>
    </dc:creator>
   </cc:Work>
  </rdf:RDF>
 </metadata>
 <defs>
  <style type="text/css">*{stroke-linecap:butt;stroke-linejoin:round;}</style>
 </defs>
 <g id="figure_1">
  <g id="patch_1">
   <path d="M 0 72 
L 144 72 
L 144 0 
L 0 0 
z
" style="fill:none;"/>
  </g>
  <g id="axes_1">
   <g id="patch_2">
    <path d="M 18 63 
L 129.6 63 
L 129.6 8.64 
L 18 8.64 
z
" style="fill:#ffffff;"/>
   </g>
   <g id="PathCollection_1">
    <defs>
     <path d="M 0 -3 
L -0.673542 -0.927051 
L -2.85317 -0.927051 
L -1.089814 0.354102 
L -1.763356 2.427051 
L -0 1.145898 
L 1.763356 2.427051 
L 1.089814 0.354102 
L 2.85317 -0.927051 
L 0.673542 -0.927051 
z
" id="m1d0b69b3b6" style="stroke:#029e73;"/>
    </defs>
    <g clip-path="url(#p39386ecd38)">
     <use style="fill:#029e73;stroke:#029e73;" x="74.312397" xlink:href="#m1d0b69b3b6" y="11.110909"/>
    </g>
   </g>
   <g id="PathCollection_2">
    <defs>
     <path d="M 0 3 
C 0.795609 3 1.55874 2.683901 2.12132 2.12132 
C 2.683901 1.55874 3 0.795609 3 0 
C 3 -0.795609 2.683901 -1.55874 2.12132 -2.12132 
C 1.55874 -2.683901 0.795609 -3 0 -3 
C -0.795609 -3 -1.55874 -2.683901 -2.12132 -2.12132 
C -2.683901 -1.55874 -3 -0.795609 -3 0 
C -3 0.795609 -2.683901 1.55874 -2.12132 2.12132 
C -1.55874 2.683901 -0.795609 3 0 3 
z
" id="md4a2c12663" style="stroke:#000000;"/>
    </defs>
    <g clip-path="url(#p39386ecd38)">
     <use style="stroke:#000000;" x="77.386777" xlink:href="#md4a2c12663" y="12.001622"/>
    </g>
   </g>
   <g id="matplotlib.axis_1">
    <g id="xtick_1">
     <g id="line2d_1">
      <defs>
       <path d="M 0 0 
L 0 3.5 
" id="m7535b0cb38" style="stroke:#000000;stroke-width:0.8;"/>
      </defs>
      <g>
       <use style="stroke:#000000;stroke-width:0.8;" x="23.072727" xlink:href="#m7535b0cb38" y="63"/>
      </g>
     </g>
     <g id="text_1">
      <!-- −1 -->
      <g transform="translate(17.371946 77.157813)scale(0.1 -0.1)">
       <defs>
        <path d="M 52.828125 31.203125 
L 5.5625 31.203125 
L 5.5625 39.40625 
L 52.828125 39.40625 
z
" id="ArialMT-8722"/>
        <path d="M 37.25 0 
L 28.46875 0 
L 28.46875 56 
Q 25.296875 52.984375 20.140625 49.953125 
Q 14.984375 46.921875 10.890625 45.40625 
L 10.890625 53.90625 
Q 18.265625 57.375 23.78125 62.296875 
Q 29.296875 67.234375 31.59375 71.875 
L 37.25 71.875 
z
" id="ArialMT-49"/>
       </defs>
       <use xlink:href="#ArialMT-8722"/>
       <use x="58.398438" xlink:href="#ArialMT-49"/>
      </g>
     </g>
    </g>
    <g id="xtick_2">
     <g id="line2d_2">
      <g>
       <use style="stroke:#000000;stroke-width:0.8;" x="73.8" xlink:href="#m7535b0cb38" y="63"/>
      </g>
     </g>
     <g id="text_2">
      <!-- 0 -->
      <g transform="translate(71.019531 77.157813)scale(0.1 -0.1)">
       <defs>
        <path d="M 4.15625 35.296875 
Q 4.15625 48 6.765625 55.734375 
Q 9.375 63.484375 14.515625 67.671875 
Q 19.671875 71.875 27.484375 71.875 
Q 33.25 71.875 37.59375 69.546875 
Q 41.9375 67.234375 44.765625 62.859375 
Q 47.609375 58.5 49.21875 52.21875 
Q 50.828125 45.953125 50.828125 35.296875 
Q 50.828125 22.703125 48.234375 14.96875 
Q 45.65625 7.234375 40.5 3 
Q 35.359375 -1.21875 27.484375 -1.21875 
Q 17.140625 -1.21875 11.234375 6.203125 
Q 4.15625 15.140625 4.15625 35.296875 
z
M 13.1875 35.296875 
Q 13.1875 17.671875 17.3125 11.828125 
Q 21.4375 6 27.484375 6 
Q 33.546875 6 37.671875 11.859375 
Q 41.796875 17.71875 41.796875 35.296875 
Q 41.796875 52.984375 37.671875 58.78125 
Q 33.546875 64.59375 27.390625 64.59375 
Q 21.34375 64.59375 17.71875 59.46875 
Q 13.1875 52.9375 13.1875 35.296875 
z
" id="ArialMT-48"/>
       </defs>
       <use xlink:href="#ArialMT-48"/>
      </g>
     </g>
    </g>
    <g id="xtick_3">
     <g id="line2d_3">
      <g>
       <use style="stroke:#000000;stroke-width:0.8;" x="124.527273" xlink:href="#m7535b0cb38" y="63"/>
      </g>
     </g>
     <g id="text_3">
      <!-- 1 -->
      <g transform="translate(121.746804 77.157813)scale(0.1 -0.1)">
       <use xlink:href="#ArialMT-49"/>
      </g>
     </g>
    </g>
   </g>
   <g id="line2d_4">
    <path clip-path="url(#p39386ecd38)" d="M 23.072727 60.528401 
L 24.097521 60.52784 
L 25.122314 60.527 
L 26.147107 60.525752 
L 27.171901 60.523917 
L 28.196694 60.521242 
L 29.221488 60.517378 
L 30.246281 60.51185 
L 31.271074 60.504014 
L 32.295868 60.493007 
L 33.320661 60.477692 
L 34.345455 60.456579 
L 35.370248 60.427748 
L 36.395041 60.388745 
L 37.419835 60.33648 
L 38.444628 60.267106 
L 39.469421 60.175896 
L 40.494215 60.057125 
L 41.519008 59.903951 
L 42.543802 59.708315 
L 43.568595 59.46088 
L 44.593388 59.150995 
L 45.618182 58.766731 
L 46.642975 58.29498 
L 47.667769 57.721644 
L 48.692562 57.031928 
L 49.717355 56.210733 
L 50.742149 55.243172 
L 51.766942 54.115196 
L 52.791736 52.814321 
L 53.816529 51.330438 
L 54.841322 49.656684 
L 55.866116 47.790319 
L 56.890909 45.733581 
L 57.915702 43.494453 
L 58.940496 41.087288 
L 59.965289 38.533236 
L 60.990083 35.860411 
L 62.014876 33.10377 
L 63.039669 30.304645 
L 64.064463 27.50995 
L 65.089256 24.771025 
L 66.11405 22.142185 
L 67.138843 19.678998 
L 68.163636 17.436378 
L 69.18843 15.466569 
L 70.213223 13.81714 
L 71.238017 12.529074 
L 72.26281 11.635083 
L 73.287603 11.158223 
L 74.312397 11.110909 
L 75.33719 11.494378 
L 76.361983 12.298634 
L 77.386777 13.50288 
L 78.41157 15.076414 
L 79.436364 16.979928 
L 80.461157 19.16714 
L 81.48595 21.586658 
L 82.510744 24.183981 
L 83.535537 26.903514 
L 84.560331 29.690515 
L 85.585124 32.492854 
L 86.609917 35.262543 
L 87.634711 37.956944 
L 88.659504 40.539653 
L 89.684298 42.981036 
L 90.709091 45.258421 
L 91.733884 47.355998 
L 92.758678 49.264434 
L 93.783471 50.980295 
L 94.808264 52.505302 
L 95.833058 53.845489 
L 96.857851 55.010331 
L 97.882645 56.011863 
L 98.907438 56.863858 
L 99.932231 57.581075 
L 100.957025 58.178614 
L 101.981818 58.671377 
L 103.006612 59.073642 
L 104.031405 59.398752 
L 105.056198 59.658908 
L 106.080992 59.865043 
L 107.105785 60.026784 
L 108.130579 60.152463 
L 109.155372 60.249181 
L 110.180165 60.322901 
L 111.204959 60.378555 
L 112.229752 60.420173 
L 113.254545 60.451002 
L 114.279339 60.473623 
L 115.304132 60.490067 
L 116.328926 60.501909 
L 117.353719 60.510358 
L 118.378512 60.51633 
L 119.403306 60.520512 
L 120.428099 60.523413 
L 121.452893 60.525408 
L 122.477686 60.526767 
L 123.502479 60.527684 
L 124.527273 60.528297 
" style="fill:none;stroke:#029e73;stroke-linecap:square;stroke-width:1.5;"/>
   </g>
   <g id="line2d_5">
    <path clip-path="url(#p39386ecd38)" d="M 23.072727 60.529091 
L 24.097521 60.528893 
L 25.122314 60.528593 
L 26.147107 60.52814 
L 27.171901 60.527465 
L 28.196694 60.526465 
L 29.221488 60.524999 
L 30.246281 60.522867 
L 31.271074 60.519796 
L 32.295868 60.515408 
L 33.320661 60.509198 
L 34.345455 60.500485 
L 35.370248 60.488371 
L 36.395041 60.471678 
L 37.419835 60.448883 
L 38.444628 60.418036 
L 39.469421 60.376669 
L 40.494215 60.321701 
L 41.519008 60.249325 
L 42.543802 60.154903 
L 43.568595 60.032854 
L 44.593388 59.876558 
L 45.618182 59.678271 
L 46.642975 59.429071 
L 47.667769 59.118844 
L 48.692562 58.736326 
L 49.717355 58.2692 
L 50.742149 57.704283 
L 51.766942 57.027795 
L 52.791736 56.225728 
L 53.816529 55.284318 
L 54.841322 54.190604 
L 55.866116 52.933091 
L 56.890909 51.502475 
L 57.915702 49.892417 
L 58.940496 48.100333 
L 59.965289 46.128156 
L 60.990083 43.983022 
L 62.014876 41.677838 
L 63.039669 39.231675 
L 64.064463 36.669944 
L 65.089256 34.024307 
L 66.11405 31.332307 
L 67.138843 28.636695 
L 68.163636 25.984449 
L 69.18843 23.425522 
L 70.213223 21.011351 
L 71.238017 18.793175 
L 72.26281 16.820253 
L 73.287603 15.138063 
L 74.312397 13.786559 
L 75.33719 12.7986 
L 76.361983 12.198618 
L 77.386777 12.001622 
L 78.41157 12.212565 
L 79.436364 12.826143 
L 80.461157 13.827013 
L 81.48595 15.190434 
L 82.510744 16.883282 
L 83.535537 18.865385 
L 84.560331 21.091108 
L 85.585124 23.511092 
L 86.609917 26.074062 
L 87.634711 28.728608 
L 88.659504 31.424853 
L 89.684298 34.115944 
L 90.709091 36.759295 
L 91.733884 39.317556 
L 92.758678 41.759272 
L 93.783471 44.059253 
L 94.808264 46.198641 
L 95.833058 48.164735 
L 96.857851 49.950586 
L 97.882645 51.55443 
L 98.907438 52.978992 
L 99.932231 54.230724 
L 100.957025 55.31902 
L 101.981818 56.255436 
L 103.006612 57.052969 
L 104.031405 57.725403 
L 105.056198 58.286745 
L 106.080992 58.750758 
L 107.105785 59.130601 
L 108.130579 59.438557 
L 109.155372 59.685852 
L 110.180165 59.88256 
L 111.204959 60.037561 
L 112.229752 60.15856 
L 113.254545 60.25214 
L 114.279339 60.323848 
L 115.304132 60.378292 
L 116.328926 60.419251 
L 117.353719 60.449785 
L 118.378512 60.472341 
L 119.403306 60.488854 
L 120.428099 60.500834 
L 121.452893 60.509448 
L 122.477686 60.515585 
L 123.502479 60.51992 
L 124.527273 60.522954 
" style="fill:none;stroke:#000000;stroke-linecap:square;stroke-width:1.5;"/>
   </g>
   <g id="patch_3">
    <path d="M 18 63 
L 129.6 63 
" style="fill:none;stroke:#000000;stroke-linecap:square;stroke-linejoin:miter;stroke-width:0.8;"/>
   </g>
  </g>
 </g>
 <defs>
  <clipPath id="p39386ecd38">
   <rect height="54.36" width="111.6" x="18" y="8.64"/>
  </clipPath>
 </defs>
</svg>
